<?xml version="1.0" encoding="utf-8"?>
<!-- Generator: Adobe Illustrator 25.0.0, SVG Export Plug-In . SVG Version: 6.00 Build 0)  -->
<svg version="1.1" id="Layer_1" xmlns="http://www.w3.org/2000/svg" xmlns:xlink="http://www.w3.org/1999/xlink" x="0px" y="0px"
	 viewBox="0 0 48 48" style="enable-background:new 0 0 48 48;" xml:space="preserve">
<style type="text/css">
	.st0{fill:#FF0000;stroke:#000000;stroke-miterlimit:10;}
</style>
<path class="st0" d="M24,37.1c-4.9-3.7-8.5-7.1-10.8-10.4c-2.4-3.3-3.5-6.5-3.5-9.7c0-2.4,0.4-4.5,1.3-6.4s2-3.4,3.3-4.6
	s2.9-2.2,4.6-2.8s3.4-1,5.1-1s3.4,0.3,5.1,1c1.7,0.6,3.3,1.6,4.6,2.8c1.4,1.2,2.5,2.8,3.3,4.6c0.9,1.8,1.3,4,1.3,6.4
	c0,3.2-1.2,6.4-3.5,9.7C32.5,30,28.9,33.4,24,37.1z M24,21c1.2,0,2.2-0.4,3-1.3c0.8-0.9,1.2-1.9,1.2-3.1s-0.4-2.2-1.3-3.1
	c-0.9-0.8-1.9-1.3-3-1.3c-1.2,0-2.2,0.4-3.1,1.3c-0.9,0.9-1.3,1.9-1.3,3.1s0.4,2.2,1.3,3.1C21.8,20.6,22.8,21,24,21z M9.6,45.7V41
	h28.7v4.7H9.6z"/>
</svg>
