<?xml version="1.0" encoding="utf-8"?>
<!-- Generator: Adobe Illustrator 25.0.0, SVG Export Plug-In . SVG Version: 6.00 Build 0)  -->
<svg version="1.1" xmlns="http://www.w3.org/2000/svg" xmlns:xlink="http://www.w3.org/1999/xlink" x="0px" y="0px"
	 viewBox="0 0 1000 1000" style="enable-background:new 0 0 1000 1000;" xml:space="preserve">
<style type="text/css">
	.st0{fill:#5B3C88;}
	.st1{fill:#FFFFFF;}
</style>
<g id="Layer_1">
	<path class="st0" d="M836.7,1000.5H163.3c-90.46,0-163.8-73.33-163.8-163.8V163.3C-0.5,72.83,72.83-0.5,163.3-0.5H836.7
		c90.46,0,163.8,73.33,163.8,163.8V836.7C1000.5,927.17,927.17,1000.5,836.7,1000.5z"/>
</g>
<g id="Layer_2">
	<path class="st1" d="M360.84,287.12v-84.61c0-14.88,5.58-27.89,16.74-39.05s24.18-16.74,39.05-16.74h167.37
		c14.88,0,27.89,5.58,39.05,16.74c11.16,11.16,16.74,24.18,16.74,39.05v84.61h176.66c14.88,0,27.89,5.58,39.05,16.74
		c11.16,11.16,16.74,24.18,16.74,39.05v222.22H594.59c-5.34,0-9.66-4.33-9.66-9.66v-18.42c0-15.3-12.41-27.71-27.71-27.71H445.27
		c-15.3,0-27.71,12.41-27.71,27.71v18.42c0,5.34-4.33,9.66-9.66,9.66H128.39V342.91c0-14.88,5.58-27.89,16.74-39.05
		c11.16-11.16,24.18-16.74,39.05-16.74H360.84z M433.47,287.12h133.68c9.3,0,16.84-7.54,16.84-16.84v-50.93
		c0-9.3-7.54-16.84-16.84-16.84H433.47c-9.3,0-16.84,7.54-16.84,16.84v50.93C416.63,279.58,424.17,287.12,433.47,287.12z
		 M473.35,620.92v-55.79h55.79v55.79H473.35z M128.39,620.92H407.9c5.34,0,9.66,4.33,9.66,9.66V649c0,15.3,12.41,27.71,27.71,27.71
		h111.94c15.3,0,27.71-12.41,27.71-27.71v-18.42c0-5.34,4.33-9.66,9.66-9.66h277.65v176.66c0,14.88-5.58,27.89-16.74,39.05
		c-11.16,11.16-24.18,16.74-39.05,16.74H184.18c-14.88,0-27.89-5.58-39.05-16.74c-11.16-11.16-16.74-24.18-16.74-39.05V620.92z"/>
</g>
</svg>
