<svg xmlns="http://www.w3.org/2000/svg" viewBox="0 0 1690 670.68"><defs><style>.cls-1{fill:#cfdcfa;stroke:#000;stroke-miterlimit:10;stroke-width:4px;}</style></defs><g id="Layer_2" data-name="Layer 2"><g id="Novo_Mapa" data-name="Novo Mapa"><path class="cls-1" d="M455.54,393.77h0a17.15,17.15,0,0,1-.89-18.88c28-47.19,148.84-250.61,159.58-269.94,10.34-18.62-6.58-29.31-11.87-32.1a16.41,16.41,0,0,0-2.68-1.1c-15.69-5-183.63-58.4-208-66.51-25.53-8.51-35.26,1.22-41.34,12.16S39.08,523.24,20.84,552.42s8.51,34.05,20.67,34.05,1582,24,1607.49,25.21c.53,0-.52,0,0,0l13,1c13.86,2,25.77,10.48,26,24.59,0,.14,0,.27,0,.41h0a30.43,30.43,0,0,1-31,30.41l-8-.15c-23.3,0-1523.32-17.86-1649-19.36l1652,20.1h35.81l.19-57-26-.4L451,592.7"/><path d="M61.27,420a33.83,33.83,0,0,1,2.73-5.4c1.75-2.83,3.45-4.35,5.4-4.92a6.06,6.06,0,0,1,4.92.81,6.41,6.41,0,0,1,2.85,7.14l.08.05c1.52-1.23,3.6-1.26,6-.44a40.13,40.13,0,0,0,6.64,1.92l-1.71,2.76a31,31,0,0,1-5.78-1.7c-3.2-1.14-5-.7-6.56,1.66l-1.57,2.52,8.94,5.54-1.65,2.66Zm11,3.15L74,420.38c1.76-2.85,1.33-5.62-1-7.08-2.67-1.66-5-.45-6.78,2.36a13.59,13.59,0,0,0-1.4,2.78Z"/><path d="M95.36,401.31c1.55,1,2.91,1.73,4.13,2.39L98,406.08l-2.51-1.36-.05.08a6.49,6.49,0,0,1-.28,6.6c-1.43,2.32-4.45,4.29-9.64,1.08l-8.65-5.36,1.66-2.67,8.17,5.06c2.82,1.75,5.29,2.06,6.79-.37a4.6,4.6,0,0,0-.26-5.09A4.75,4.75,0,0,0,92,403L83,397.33l1.65-2.68Z"/><path d="M107.28,391.13l-2-.92-.05.08a6.48,6.48,0,0,1-.6,5.89,5,5,0,0,1-7,1.89c-3.59-2.22-3.59-6.62,0-12.31l-.31-.19c-1.21-.75-3.64-1.79-5.51,1.25a8.49,8.49,0,0,0-1.28,4.54l-2.17-.5A10.9,10.9,0,0,1,90,385.18c2.8-4.53,6.58-3.72,9.54-1.88l5.54,3.43a26.86,26.86,0,0,0,3.68,2Zm-7.82-4.26c-1.87,2.87-3.41,6.53-.55,8.3a2.79,2.79,0,0,0,4.14-.91,4.38,4.38,0,0,0-.25-5.15,3.29,3.29,0,0,0-.77-.65Z"/><path d="M94.78,365.24l6.88-11.11,2.22,1.38-5.23,8.43,6.87,4.25,4.82-7.79,2.21,1.37-4.83,7.79,9.34,5.78L115.4,378Z"/><path d="M113.9,357.68c-1.75-1.08-3.27-2-4.69-2.73l1.46-2.36,3,1.69.06-.09a5.29,5.29,0,0,1-.69-6.13,3.6,3.6,0,0,1,.54-.7l2.53,1.57a6,6,0,0,0-.64.86c-1.17,1.9-.58,4.13,1.21,5.74a8.19,8.19,0,0,0,1.19.89l7.91,4.9L124.09,364Z"/><path d="M135.28,345.93l-2-.92,0,.08a6.45,6.45,0,0,1-.6,5.89,5,5,0,0,1-7,1.89c-3.59-2.22-3.59-6.62,0-12.31l-.32-.19c-1.2-.75-3.64-1.79-5.5,1.25a8.5,8.5,0,0,0-1.29,4.54l-2.16-.5A10.94,10.94,0,0,1,118,340c2.81-4.52,6.58-3.71,9.55-1.87l5.53,3.43a27.45,27.45,0,0,0,3.68,2Zm-7.82-4.27c-1.86,2.88-3.4,6.54-.54,8.31a2.78,2.78,0,0,0,4.13-.92,4.36,4.36,0,0,0-.24-5.14,3.5,3.5,0,0,0-.77-.65Z"/><path d="M128.53,332.69c-1.54-1-2.8-1.66-4.07-2.35l1.47-2.38,2.53,1.36,0-.08a6.41,6.41,0,0,1,.26-6.61c1.26-2,4.45-4.45,9.54-1.3l8.82,5.47-1.66,2.67-8.53-5.28c-2.39-1.49-4.95-1.82-6.51.69a4.55,4.55,0,0,0,.51,5.34,4.75,4.75,0,0,0,1.13,1L141,336.7l-1.66,2.68Z"/><path d="M155.86,311.52a11.9,11.9,0,0,1-1.78,4.77c-2.76,4.46-7.61,5.5-12.13,2.7s-6-8-3-12.84a10.35,10.35,0,0,1,3.11-3.25l1.7,1.88a7.73,7.73,0,0,0-2.67,2.71c-2.09,3.37-.7,6.79,2.37,8.69,3.43,2.12,6.91,1.23,8.74-1.73a9.35,9.35,0,0,0,1.33-3.73Z"/><path d="M141.23,293.92a2,2,0,1,1-2.07,3.34,1.93,1.93,0,0,1-.63-2.71A1.89,1.89,0,0,1,141.23,293.92Zm17.12,14.77-14.8-9.17,1.66-2.68L160,306Z"/><path d="M159.81,300.21a8.62,8.62,0,0,0,3.26-2.91c1.22-2,.82-3.48-.42-4.24s-2.45-.44-4.41,1.07c-2.62,2.07-4.86,2.44-6.63,1.33-2.39-1.48-3.14-4.63-1.17-7.81a8.44,8.44,0,0,1,3.15-3.06l1.55,1.88a6.85,6.85,0,0,0-2.75,2.5c-1,1.59-.61,3,.51,3.71s2.31.23,4.26-1.25c2.53-2,4.64-2.49,6.85-1.13,2.63,1.63,3.2,4.81,1,8.3a9.92,9.92,0,0,1-3.6,3.52Z"/><path d="M176.3,278.53a12.06,12.06,0,0,1-1.78,4.77c-2.76,4.46-7.61,5.5-12.13,2.7s-6-8-3-12.84a10.24,10.24,0,0,1,3.11-3.25l1.69,1.88a7.81,7.81,0,0,0-2.66,2.71c-2.09,3.37-.71,6.79,2.37,8.69,3.43,2.12,6.91,1.23,8.73-1.73a9,9,0,0,0,1.33-3.73Z"/><path d="M179.43,257.82c5.48,3.39,5.52,8.68,3.32,12.24-2.49,4-7.33,5.3-12,2.39-4.95-3.07-5.83-8.12-3.3-12.21C170.06,256,174.92,255,179.43,257.82Zm-7.1,11.84c3.25,2,6.85,1.66,8.47-1s.39-6-3-8.09c-2.51-1.55-6.45-2.25-8.43.95S169.53,267.92,172.33,269.66Z"/><path d="M179.29,226.36l17.91,11.1c1.31.81,2.83,1.68,3.89,2.24l-1.48,2.39L197,240.64l-.05.08a6.39,6.39,0,0,1-.21,6.81c-2.23,3.59-7,4.47-11.46,1.69-5-3-6.06-8-3.83-11.57a5.8,5.8,0,0,1,5-3.08l0-.06L177.63,229Zm11.29,10.7a6.58,6.58,0,0,0-1.22-.6,4.68,4.68,0,0,0-5.51,2c-1.73,2.79-.32,6,2.94,8,3,1.86,6.42,1.91,8.22-1a4.76,4.76,0,0,0-.79-5.93,5.14,5.14,0,0,0-1.07-.85Z"/><path d="M197.82,229.55c3.67,2.2,6.6.82,8.27-1.89a11.64,11.64,0,0,0,1.78-4.56l2.2.71a13.88,13.88,0,0,1-2.11,5.52c-2.82,4.55-7.54,5.4-12,2.65s-6.35-7.59-3.67-11.91c3-4.82,8-3.46,10.73-1.77a7.7,7.7,0,0,1,1.2.87Zm2.94-9.08c-1.68-1.08-4.79-2-6.66,1-1.7,2.75.06,5.46,1.8,6.83Z"/><path d="M213.9,211.77a10.93,10.93,0,0,0,4.29-3.93c1.68-2.73,1.25-5.21-.83-6.5-1.92-1.19-3.74-.77-6.5,1.37-3.28,2.63-6.35,3.62-9.23,1.83-3.21-2-3.94-6.14-1.45-10.15a11.12,11.12,0,0,1,3.81-3.93l1.73,2.09a9.29,9.29,0,0,0-3.4,3.29c-1.75,2.83-.73,4.94.67,5.81,1.91,1.19,3.64.52,6.5-1.64,3.54-2.65,6.31-3.37,9.33-1.5,3.17,2,4.51,6,1.48,10.9a12.4,12.4,0,0,1-4.61,4.44Z"/><path d="M227.53,180.18c5.48,3.39,5.52,8.68,3.32,12.24-2.49,4-7.33,5.3-12,2.39-4.95-3.07-5.83-8.12-3.3-12.21C218.16,178.34,223,177.39,227.53,180.18ZM220.43,192c3.25,2,6.84,1.66,8.47-1s.38-6-3-8.09c-2.51-1.55-6.45-2.25-8.44.95S217.63,190.28,220.43,192Z"/><path d="M240.8,166.56c1.55,1,2.91,1.73,4.12,2.39l-1.47,2.37L240.94,170l0,.07a6.54,6.54,0,0,1-.28,6.61c-1.44,2.31-4.46,4.29-9.64,1.08l-8.65-5.36,1.65-2.68,8.18,5.07c2.82,1.74,5.28,2.05,6.79-.37a4.62,4.62,0,0,0-.27-5.1,4.88,4.88,0,0,0-1.22-1.1l-9.07-5.61,1.66-2.68Z"/><path d="M230.57,149.54l4.26,2.64,2.4-3.86,2,1.26-2.4,3.87,8,4.94c1.84,1.14,3.21,1.25,4.14-.25a6.41,6.41,0,0,0,.77-1.68l2.13,1.14a8.37,8.37,0,0,1-1.12,2.64,4.49,4.49,0,0,1-2.94,2.2c-1.28.23-2.77-.27-4.51-1.35l-8.08-5-1.42,2.29-2-1.26,1.42-2.29-3.57-2.21Z"/><path d="M254.55,136.57c5.48,3.39,5.52,8.68,3.32,12.24-2.49,4-7.34,5.3-12,2.39-5-3.07-5.84-8.12-3.3-12.21C245.18,134.73,250,133.78,254.55,136.57Zm-7.1,11.84c3.25,2,6.84,1.66,8.47-1s.38-6-3-8.08c-2.5-1.56-6.45-2.26-8.43.94S244.65,146.67,247.45,148.41Z"/><path d="M253.4,131.14c-1.55-.95-2.8-1.66-4.08-2.35l1.45-2.34,2.47,1.33,0-.07a6,6,0,0,1,.18-6.36A5.12,5.12,0,0,1,259,119l0-.06a7.15,7.15,0,0,1-.9-2.86,5.93,5.93,0,0,1,1-3.9c1.22-2,4.3-4.1,9.45-.91l8.71,5.4-1.63,2.62-8.37-5.18c-2.86-1.78-5.21-1.77-6.55.38a4.14,4.14,0,0,0,.44,4.71,5,5,0,0,0,1.21,1l9.16,5.68-1.62,2.63-8.88-5.51c-2.36-1.46-4.7-1.47-6,.57a4.38,4.38,0,0,0,.61,5,4.83,4.83,0,0,0,1.2,1l8.92,5.53-1.63,2.63Z"/><path d="M285.09,104.11l-2-.92-.05.08a6.48,6.48,0,0,1-.6,5.89,5,5,0,0,1-7.05,1.89c-3.58-2.22-3.58-6.62,0-12.31l-.31-.19c-1.21-.75-3.64-1.79-5.5,1.25a8.41,8.41,0,0,0-1.29,4.54l-2.17-.5a11,11,0,0,1,1.73-5.69c2.8-4.52,6.58-3.71,9.54-1.87l5.54,3.43a26.86,26.86,0,0,0,3.68,2Zm-7.81-4.27c-1.87,2.88-3.41,6.54-.55,8.31a2.8,2.8,0,0,0,4.14-.92,4.36,4.36,0,0,0-.25-5.14,3.29,3.29,0,0,0-.77-.65Z"/><path d="M272,82.79a1.9,1.9,0,0,1,.61,2.75,1.88,1.88,0,0,1-2.68.59,1.92,1.92,0,0,1-.63-2.71A1.9,1.9,0,0,1,272,82.79Zm17.12,14.77-14.8-9.17L276,85.72l14.8,9.16Z"/><path d="M294.34,72.33c5.48,3.4,5.53,8.69,3.32,12.24-2.48,4-7.33,5.3-12,2.39-4.95-3.06-5.83-8.11-3.29-12.21C285,70.5,289.84,69.54,294.34,72.33Zm-7.09,11.84c3.24,2,6.84,1.67,8.46-1s.39-6-3-8.08c-2.51-1.55-6.45-2.25-8.43,1S284.44,82.44,287.25,84.17Z"/><path d="M293.8,67.29c-1.74-1.08-3.26-2-4.68-2.73l1.46-2.36,3,1.7.05-.1a5.29,5.29,0,0,1-.68-6.13,3.6,3.6,0,0,1,.54-.7L296,58.54a5,5,0,0,0-.65.87c-1.17,1.89-.57,4.12,1.21,5.73a8.58,8.58,0,0,0,1.19.89l7.91,4.9L304,73.61Z"/><path d="M336.39,608.71a32.8,32.8,0,0,1,6-.45c3.33,0,5.51.71,7,2.09a6.11,6.11,0,0,1,1.84,4.64,6.41,6.41,0,0,1-4.65,6.12v.09c1.85.67,2.94,2.43,3.5,5a40.44,40.44,0,0,0,1.78,6.68l-3.25-.05a31.69,31.69,0,0,1-1.52-5.82c-.68-3.34-2-4.64-4.81-4.77l-3,0-.14,10.51-3.13,0Zm3,11.08,3.2,0c3.35,0,5.5-1.75,5.53-4.54.05-3.15-2.21-4.54-5.51-4.59a13.87,13.87,0,0,0-3.11.23Z"/><path d="M369.93,628.31c0,1.82,0,3.38.09,4.76l-2.8,0-.13-2.85H367a6.49,6.49,0,0,1-5.8,3.16c-2.73,0-6-1.6-5.9-7.7l.13-10.18,3.15,0-.12,9.62c0,3.32,1,5.59,3.82,5.63a4.6,4.6,0,0,0,4.22-2.86,4.86,4.86,0,0,0,.31-1.62l.14-10.66,3.15,0Z"/><path d="M384.8,633.26l-.25-2.2h-.09a6.46,6.46,0,0,1-5.36,2.52,5,5,0,0,1-5.25-5.06c0-4.21,3.82-6.48,10.54-6.35v-.37c0-1.41-.35-4-3.91-4.06a8.52,8.52,0,0,0-4.56,1.24l-.69-2.12a11,11,0,0,1,5.77-1.45c5.32.07,6.57,3.72,6.52,7.21l-.08,6.51a27.08,27.08,0,0,0,.21,4.17Zm-.37-8.89c-3.43-.12-7.36.45-7.4,3.81a2.78,2.78,0,0,0,2.91,3.07,4.34,4.34,0,0,0,4.28-2.86,3.27,3.27,0,0,0,.17-1Z"/><path d="M417.19,632.91a15.62,15.62,0,0,1-6.42,1.07c-6.84-.09-11.91-4.48-11.8-12.45.1-7.61,5.29-12.66,12.82-12.56a13.23,13.23,0,0,1,5.75,1.14l-.81,2.54a11.68,11.68,0,0,0-4.86-1.06c-5.7-.07-9.51,3.52-9.6,9.89-.07,5.93,3.3,9.77,9.17,9.85a12.78,12.78,0,0,0,5.15-.93Z"/><path d="M430.41,633.86l-.25-2.21h-.09a6.49,6.49,0,0,1-5.36,2.53,5,5,0,0,1-5.26-5.07c.06-4.21,3.83-6.48,10.55-6.35v-.37c0-1.41-.34-4-3.91-4.06a8.46,8.46,0,0,0-4.55,1.24l-.69-2.12a10.94,10.94,0,0,1,5.77-1.45c5.32.07,6.57,3.72,6.52,7.21l-.08,6.51a27.08,27.08,0,0,0,.21,4.17ZM430,625c-3.42-.12-7.35.45-7.4,3.81a2.79,2.79,0,0,0,2.92,3.07,4.35,4.35,0,0,0,4.28-2.86,3.24,3.24,0,0,0,.16-1Z"/><path d="M438.28,621.25c0-1.82,0-3.26-.09-4.7l2.75,0,.13,2.81h.09a6,6,0,0,1,5.54-3.13,5.12,5.12,0,0,1,4.86,3.55h.07a7.15,7.15,0,0,1,2-2.25,6,6,0,0,1,3.85-1.17c2.32,0,5.73,1.57,5.65,7.63L463,634.28l-3.09,0,.12-9.85c.05-3.37-1.17-5.38-3.7-5.41a4.12,4.12,0,0,0-3.81,2.8,5.49,5.49,0,0,0-.28,1.58l-.14,10.78-3.09,0,.14-10.45c0-2.77-1.17-4.78-3.56-4.81a4.36,4.36,0,0,0-4,3.11,4.58,4.58,0,0,0-.26,1.55L441.2,634l-3.09,0Z"/><path d="M482.75,629.77c0,1.82,0,3.39.08,4.76l-2.8,0-.13-2.85h-.09a6.47,6.47,0,0,1-5.8,3.16c-2.72,0-6-1.6-5.9-7.7l.14-10.17,3.15,0-.13,9.61c0,3.32,1,5.59,3.82,5.63a4.62,4.62,0,0,0,4.23-2.85,4.72,4.72,0,0,0,.3-1.62l.14-10.67,3.15,0Z"/><path d="M488.11,622.61c0-2.05,0-3.8-.07-5.42l2.78,0,.07,3.41H491a5.27,5.27,0,0,1,4.89-3.75,3.49,3.49,0,0,1,.88.1l0,3a4.76,4.76,0,0,0-1.07-.11c-2.23,0-3.83,1.63-4.29,4a8.4,8.4,0,0,0-.15,1.47l-.12,9.3-3.15,0Z"/><path d="M511.8,634.28a12,12,0,0,1-5,.94c-5.25-.07-8.64-3.68-8.57-9s3.78-9.24,9.47-9.16a10.24,10.24,0,0,1,4.39,1l-.74,2.42a7.71,7.71,0,0,0-3.69-.88c-4-.05-6.18,2.89-6.22,6.51-.06,4,2.51,6.55,6,6.59a9.17,9.17,0,0,0,3.88-.78Zm-4.28.49-1.2,1.87a2.66,2.66,0,0,1,2.48,2.52c0,2.12-1.78,2.89-3.8,2.87a5.19,5.19,0,0,1-2.43-.66l.55-1.53a4.08,4.08,0,0,0,1.95.55c.79,0,1.56-.27,1.55-1.12s-1.08-1.38-2.78-1.54l1.73-3Z"/><path d="M525.19,635.08l-.25-2.2h-.1a6.42,6.42,0,0,1-5.35,2.52,5,5,0,0,1-5.26-5.06c.06-4.22,3.83-6.48,10.55-6.35v-.37c0-1.41-.34-4-3.91-4.06a8.54,8.54,0,0,0-4.55,1.23l-.69-2.11a10.94,10.94,0,0,1,5.77-1.45c5.32.07,6.57,3.72,6.52,7.21l-.08,6.51a27.08,27.08,0,0,0,.21,4.17Zm-.38-8.89c-3.42-.12-7.35.45-7.4,3.81a2.79,2.79,0,0,0,2.92,3.07,4.35,4.35,0,0,0,4.28-2.86,3.24,3.24,0,0,0,.16-1Z"/><path d="M1107.27,619.56a32.8,32.8,0,0,1,6-.45c3.33,0,5.51.71,7,2.09a6.1,6.1,0,0,1,1.84,4.63,6.41,6.41,0,0,1-4.65,6.13V632c1.84.68,2.93,2.44,3.49,5a40.35,40.35,0,0,0,1.78,6.69l-3.25-.05a31.69,31.69,0,0,1-1.52-5.82c-.68-3.34-2-4.64-4.81-4.77l-3,0-.14,10.51-3.13,0Zm3,11.08,3.2,0c3.35,0,5.5-1.76,5.54-4.54,0-3.15-2.22-4.54-5.52-4.59a13.87,13.87,0,0,0-3.11.23Z"/><path d="M1140.82,639.16c0,1.82,0,3.38.08,4.76l-2.8,0L1138,641h-.09a6.49,6.49,0,0,1-5.8,3.16c-2.73,0-6-1.6-5.9-7.7l.13-10.18,3.15,0-.12,9.62c0,3.32,1,5.59,3.82,5.63a4.6,4.6,0,0,0,4.22-2.86,4.86,4.86,0,0,0,.31-1.62l.14-10.66,3.15,0Z"/><path d="M1155.68,644.11l-.25-2.2h-.09a6.46,6.46,0,0,1-5.36,2.52,5,5,0,0,1-5.25-5.06c0-4.21,3.82-6.48,10.54-6.35v-.37c0-1.41-.35-4-3.91-4.06a8.52,8.52,0,0,0-4.56,1.24l-.69-2.12a11,11,0,0,1,5.77-1.45c5.32.07,6.57,3.72,6.52,7.21l-.08,6.51a27.08,27.08,0,0,0,.21,4.17Zm-.37-8.89c-3.43-.12-7.36.45-7.4,3.81a2.78,2.78,0,0,0,2.91,3.07,4.34,4.34,0,0,0,4.28-2.86,3.27,3.27,0,0,0,.17-1Z"/><path d="M1188.07,643.75a15.42,15.42,0,0,1-6.42,1.08c-6.84-.09-11.91-4.48-11.8-12.45.1-7.61,5.3-12.66,12.83-12.56a13.21,13.21,0,0,1,5.74,1.14l-.81,2.54a11.68,11.68,0,0,0-4.86-1.06c-5.7-.07-9.51,3.52-9.6,9.89-.07,5.93,3.3,9.77,9.17,9.85a12.87,12.87,0,0,0,5.16-.93Z"/><path d="M1201.29,644.7l-.25-2.2H1201a6.49,6.49,0,0,1-5.36,2.53,5,5,0,0,1-5.25-5.07c.05-4.21,3.82-6.48,10.54-6.35v-.37c0-1.41-.35-4-3.92-4.06a8.46,8.46,0,0,0-4.55,1.24l-.69-2.12a11,11,0,0,1,5.77-1.45c5.32.07,6.57,3.72,6.52,7.21l-.08,6.51a27.08,27.08,0,0,0,.21,4.17Zm-.38-8.89c-3.42-.12-7.35.45-7.39,3.81a2.78,2.78,0,0,0,2.91,3.07,4.35,4.35,0,0,0,4.28-2.86,3,3,0,0,0,.16-1Z"/><path d="M1209.16,632.1c0-1.82,0-3.26-.09-4.7l2.75,0,.13,2.81h.09a6,6,0,0,1,5.54-3.13,5.12,5.12,0,0,1,4.86,3.55h.07a7.22,7.22,0,0,1,2-2.24,6,6,0,0,1,3.85-1.17c2.32,0,5.73,1.57,5.65,7.63l-.13,10.25-3.09,0,.12-9.85c0-3.37-1.17-5.38-3.7-5.41a4.12,4.12,0,0,0-3.81,2.8,5.49,5.49,0,0,0-.28,1.58L1223,645l-3.09,0,.14-10.45c0-2.77-1.16-4.78-3.56-4.81a4.36,4.36,0,0,0-4,3.1,5,5,0,0,0-.26,1.56l-.14,10.49-3.09,0Z"/><path d="M1253.63,640.62c0,1.82,0,3.39.08,4.76l-2.8,0-.13-2.85h-.09a6.49,6.49,0,0,1-5.8,3.16c-2.72,0-6-1.6-5.9-7.7l.14-10.17,3.15,0-.13,9.61c0,3.32,1,5.59,3.82,5.63a4.64,4.64,0,0,0,4.23-2.85,5,5,0,0,0,.31-1.62l.13-10.67,3.15,0Z"/><path d="M1259,633.46c0-2.05,0-3.8-.07-5.42l2.78,0,.07,3.41h.12a5.27,5.27,0,0,1,4.89-3.75,3.49,3.49,0,0,1,.88.1l0,3a4.76,4.76,0,0,0-1.07-.11c-2.23,0-3.83,1.63-4.29,4a8.62,8.62,0,0,0-.15,1.48l-.12,9.3-3.15,0Z"/><path d="M1282.68,645.13a12,12,0,0,1-5,.94c-5.25-.07-8.64-3.68-8.57-9s3.78-9.24,9.47-9.16a10.1,10.1,0,0,1,4.39,1l-.74,2.42a7.68,7.68,0,0,0-3.69-.88c-4,0-6.18,2.89-6.22,6.51,0,4,2.51,6.55,6,6.59a9.17,9.17,0,0,0,3.88-.78Zm-4.28.49-1.2,1.87a2.66,2.66,0,0,1,2.48,2.52c0,2.12-1.78,2.89-3.79,2.86a5,5,0,0,1-2.44-.66l.55-1.52a4.08,4.08,0,0,0,2,.55c.79,0,1.56-.27,1.55-1.12s-1.08-1.38-2.78-1.54l1.73-3Z"/><path d="M1296.07,645.93l-.25-2.2h-.09a6.46,6.46,0,0,1-5.36,2.52,5,5,0,0,1-5.26-5.06c.06-4.22,3.83-6.48,10.55-6.35v-.37c0-1.41-.34-4-3.91-4.06a8.45,8.45,0,0,0-4.55,1.23l-.69-2.11a10.94,10.94,0,0,1,5.77-1.45c5.32.07,6.57,3.72,6.52,7.21l-.08,6.51a27.08,27.08,0,0,0,.21,4.17Zm-.38-8.89c-3.42-.12-7.35.45-7.39,3.81a2.78,2.78,0,0,0,2.91,3.07,4.35,4.35,0,0,0,4.28-2.86,3,3,0,0,0,.16-1Z"/><path d="M502.45,324.61a32.88,32.88,0,0,1,2.58-5.47c1.67-2.88,3.32-4.45,5.26-5.07a6.11,6.11,0,0,1,4.95.67,6.41,6.41,0,0,1,3,7.06l.07.05c1.49-1.27,3.57-1.36,6-.6a40.81,40.81,0,0,0,6.69,1.73l-1.63,2.81a31.8,31.8,0,0,1-5.82-1.54c-3.24-1.05-5-.57-6.52,1.84l-1.49,2.56,9.08,5.29-1.57,2.71Zm11.12,2.85,1.61-2.77c1.69-2.9,1.18-5.65-1.23-7.05-2.72-1.59-5.05-.31-6.71,2.54a13.72,13.72,0,0,0-1.33,2.82Z"/><path d="M536,305c1.58.92,3,1.66,4.19,2.28l-1.4,2.41-2.55-1.28,0,.07a6.52,6.52,0,0,1-.1,6.61c-1.37,2.36-4.34,4.42-9.61,1.35l-8.79-5.12,1.58-2.72,8.31,4.84c2.87,1.66,5.34,1.91,6.78-.56a4.62,4.62,0,0,0-.4-5.09,5,5,0,0,0-1.26-1.06l-9.22-5.37,1.59-2.72Z"/><path d="M547.64,294.54l-2-.87,0,.08a6.5,6.5,0,0,1-.44,5.91,5,5,0,0,1-7,2.08c-3.65-2.12-3.77-6.51-.34-12.3l-.32-.19c-1.23-.71-3.69-1.68-5.47,1.41a8.51,8.51,0,0,0-1.16,4.57l-2.18-.44a11,11,0,0,1,1.57-5.73c2.68-4.6,6.48-3.89,9.49-2.14l5.63,3.28a26.49,26.49,0,0,0,3.73,1.87Zm-7.93-4.05c-1.78,2.92-3.22,6.62-.31,8.32a2.79,2.79,0,0,0,4.1-1,4.37,4.37,0,0,0-.38-5.14,3.77,3.77,0,0,0-.79-.63Z"/><path d="M534.73,269.17a29.09,29.09,0,0,1,2.42-5.21c1.59-2.72,3.06-4.19,4.88-4.87a5.13,5.13,0,0,1,4.73.41,5.74,5.74,0,0,1,2.53,6.22l.08,0a6.2,6.2,0,0,1,7.78-1.27,6.36,6.36,0,0,1,3.13,4.22c.52,2.24-.24,4.95-2.24,8.39a41.85,41.85,0,0,1-2.69,4.07Zm10.16,2.29,1.45-2.48c1.64-2.83,1.11-5.39-.92-6.57-2.43-1.42-4.49-.15-6.08,2.59a12.62,12.62,0,0,0-1.21,2.53Zm10,5.84a14.8,14.8,0,0,0,1.46-2.2c1.64-2.81,2.12-6-.93-7.77-2.85-1.66-5.49.11-7.21,3.06l-1.32,2.26Z"/><path d="M559.11,258.68c3.73,2.1,6.62.64,8.22-2.11A11.74,11.74,0,0,0,569,252l2.22.66a14,14,0,0,1-2,5.57c-2.7,4.63-7.39,5.61-11.91,3s-6.55-7.42-4-11.81c2.86-4.91,7.92-3.68,10.68-2.07a6.81,6.81,0,0,1,1.23.84Zm2.69-9.16c-1.7-1-4.84-1.87-6.62,1.2-1.63,2.79.2,5.45,2,6.78Z"/><path d="M552.24,235.85l1.58-2.72L575.91,246l-1.59,2.72Z"/><path d="M583.45,233l-2-.86,0,.08a6.47,6.47,0,0,1-.43,5.91,5,5,0,0,1-7,2.08c-3.64-2.12-3.76-6.52-.34-12.31l-.32-.18c-1.22-.71-3.68-1.69-5.46,1.4a8.51,8.51,0,0,0-1.16,4.57l-2.18-.43a11,11,0,0,1,1.57-5.74c2.68-4.6,6.47-3.89,9.49-2.13l5.63,3.27a26.49,26.49,0,0,0,3.73,1.87ZM575.52,229c-1.78,2.93-3.23,6.63-.32,8.32a2.79,2.79,0,0,0,4.11-1,4.37,4.37,0,0,0-.38-5.13,3.22,3.22,0,0,0-.79-.63Z"/><path d="M593.25,216.2l-25-5.34,1.71-3,12.24,2.76c3.35.75,6.35,1.46,9.12,2.32l0-.08c-2.08-2-4.22-4.39-6.4-6.92l-8.31-9.58,1.69-2.9,16.6,19.7Z"/><path d="M582.81,189.75a2,2,0,1,1-2.68.7A1.88,1.88,0,0,1,582.81,189.75ZM600.33,204l-15-8.76,1.58-2.72,15,8.76Z"/><path d="M601.56,195.52a8.61,8.61,0,0,0,3.18-3c1.17-2,.72-3.49-.54-4.23s-2.46-.37-4.38,1.2c-2.56,2.14-4.79,2.57-6.59,1.51-2.43-1.41-3.27-4.54-1.38-7.77a8.43,8.43,0,0,1,3.07-3.15l1.59,1.84a6.83,6.83,0,0,0-2.68,2.57c-.94,1.61-.52,3,.61,3.69s2.32.17,4.23-1.36c2.48-2,4.57-2.62,6.82-1.31,2.67,1.55,3.33,4.71,1.26,8.26a10,10,0,0,1-3.51,3.62Z"/><path d="M594.28,169.87l4.33,2.53,2.29-3.94,2.07,1.21-2.29,3.93,8.11,4.72c1.88,1.09,3.25,1.17,4.14-.36a6.33,6.33,0,0,0,.72-1.7l2.15,1.09a7.78,7.78,0,0,1-1,2.66,4.43,4.43,0,0,1-2.88,2.28c-1.27.27-2.77-.2-4.54-1.22l-8.22-4.79-1.35,2.33-2.08-1.2,1.36-2.33L593.43,173Z"/><path d="M622.59,165.8l-2-.87,0,.09a6.48,6.48,0,0,1-.44,5.9,5,5,0,0,1-7,2.09c-3.65-2.13-3.77-6.52-.34-12.31l-.32-.18c-1.23-.72-3.69-1.69-5.47,1.4a8.51,8.51,0,0,0-1.16,4.57l-2.18-.44a11,11,0,0,1,1.57-5.73c2.68-4.6,6.48-3.89,9.49-2.13l5.63,3.27a26.49,26.49,0,0,0,3.73,1.87Zm-7.93-4.05c-1.78,2.93-3.22,6.63-.31,8.32a2.79,2.79,0,0,0,4.1-1,4.34,4.34,0,0,0-.38-5.13,3.22,3.22,0,0,0-.79-.63Z"/></g></g></svg>