<svg xmlns="http://www.w3.org/2000/svg" viewBox="0 0 1679.06 809.79"><defs><style>.cls-1{fill:#cfdcfa;stroke-width:4px;}.cls-1,.cls-2,.cls-3,.cls-4{stroke:#000;stroke-miterlimit:10;}.cls-2{fill:#2aff3c;}.cls-2,.cls-3,.cls-4{stroke-width:2px;}.cls-3{fill:#e90000;}.cls-4{fill:#ff0;}</style></defs><g id="Layer_2" data-name="Layer 2"><g id="Novo_Mapa" data-name="Novo Mapa"><path class="cls-1" d="M368.71,267.29H70.41a12,12,0,0,0-12,11.59L45.63,613.1a12,12,0,0,0,15.29,12l303.21-85.37a12,12,0,0,0,8.76-11.23l7.85-248.85A12,12,0,0,0,368.71,267.29Z" transform="translate(-6)"/><path class="cls-1" d="M434.12,304.72l-6.7,207.64a9.23,9.23,0,0,0,10.83,9.38l304.37-54.06a8.41,8.41,0,0,0,6.88-8.9l-7.4-99a8.42,8.42,0,0,0-7.35-7.72l-35.57-4.44c-55-8.77-177.08-46.89-234.32-65.28A23.53,23.53,0,0,0,434.12,304.72Z" transform="translate(-6)"/><path class="cls-1" d="M779.43,362.59a5.86,5.86,0,0,1,5.82-6.52h113c40.58,0,162.51-13.79,216.58-15.91s164.33-6.36,206.74-11.66,113.45-21.2,145.25-28.62,40.29-10.61,71-15.91l9.55-1.65c5.92-1,8.27,7.36,2.67,9.55-12.14,4.76-26.84,10.33-44,16.49-56.19,20.14-131.47,41.35-159,49.83s-154.79,30.74-154.79,30.74l-396,70.49a8.35,8.35,0,0,1-9.78-7.56Z" transform="translate(-6)"/><path class="cls-1" d="M329.37,226.83,68,227.75a9.18,9.18,0,0,1-9.21-9.14L58,34C57.92,6.65,90.08-8.08,110.71,9.87L336.87,206.68A11.48,11.48,0,0,1,329.37,226.83Z" transform="translate(-6)"/><path d="M373.25,551.94a32.15,32.15,0,0,1,5.76-1.82c3.25-.72,5.53-.58,7.3.42a6.08,6.08,0,0,1,2.86,4.09,6.41,6.41,0,0,1-3.12,7l0,.08c1.94.24,3.41,1.7,4.54,4a40.81,40.81,0,0,0,3.26,6.09l-3.17.71a32.27,32.27,0,0,1-2.82-5.33c-1.42-3.08-3-4.06-5.77-3.53l-2.9.64,2.29,10.27-3.06.67ZM378.7,562l3.12-.7c3.28-.73,5-3,4.35-5.68-.68-3.08-3.2-3.92-6.43-3.21a13.65,13.65,0,0,0-3,.94Z" transform="translate(-6)"/><path d="M410.42,563.33c.4,1.78.79,3.29,1.17,4.62l-2.73.6-.78-2.74-.09,0a6.5,6.5,0,0,1-4.92,4.41c-2.66.59-6.19-.19-7.51-6.15l-2.2-9.94,3.08-.68,2.08,9.39c.71,3.24,2.21,5.22,5,4.61a4.63,4.63,0,0,0,3.47-3.75,4.93,4.93,0,0,0-.07-1.65l-2.31-10.41,3.08-.68Z" transform="translate(-6)"/><path d="M426,564.76l-.75-2.09-.09,0a6.5,6.5,0,0,1-4.64,3.69,5,5,0,0,1-6.27-3.73c-.92-4.12,2.23-7.19,8.81-8.6l-.08-.36c-.3-1.38-1.26-3.85-4.74-3.07a8.58,8.58,0,0,0-4.15,2.25L413,551a10.85,10.85,0,0,1,5.28-2.73c5.2-1.15,7.25,2.12,8,5.53l1.41,6.36a27.14,27.14,0,0,0,1.16,4Zm-2.4-8.58c-3.36.67-7.06,2.12-6.33,5.41a2.79,2.79,0,0,0,3.54,2.32,4.36,4.36,0,0,0,3.51-3.76,3,3,0,0,0-.07-1Z" transform="translate(-6)"/><path d="M440.66,536.66l3.08-.68,3.51,15.84c1.39,6.3-1.27,8.92-5.34,9.83a10.4,10.4,0,0,1-3.41.17l-.1-2.6a7.45,7.45,0,0,0,2.69-.12c2.73-.6,4.05-2.2,3-6.85Z" transform="translate(-6)"/><path d="M467.53,546.48c1.39,6.3-2.37,10-6.45,10.92-4.61,1-8.92-1.55-10.12-6.95-1.25-5.68,1.75-9.84,6.45-10.88C462.3,538.49,466.38,541.3,467.53,546.48Zm-13.44,3.18c.83,3.73,3.58,6.07,6.6,5.4s4.57-3.92,3.71-7.78c-.63-2.87-2.89-6.19-6.56-5.37S453.38,546.44,454.09,549.66Z" transform="translate(-6)"/><path d="M472.17,551.52a8.61,8.61,0,0,0,4.35.47c2.28-.41,3.13-1.72,2.87-3.15s-1.32-2.12-3.75-2.56c-3.3-.56-5.07-2-5.44-4-.5-2.76,1.33-5.43,5-6.1a8.39,8.39,0,0,1,4.39.29l-.36,2.41a6.71,6.71,0,0,0-3.7-.37c-1.84.33-2.64,1.57-2.41,2.86s1.38,1.87,3.78,2.33c3.16.57,5,1.78,5.43,4.33.55,3-1.42,5.59-5.46,6.33a10,10,0,0,1-5-.32Z" transform="translate(-6)"/><path d="M487.49,543.75c.83,4.2,3.82,5.45,6.94,4.88a12,12,0,0,0,4.59-1.74l1,2.11a13.94,13.94,0,0,1-5.52,2.13c-5.26,1-9.07-2-10-7.11s1.38-9.8,6.38-10.71c5.59-1,7.94,3.62,8.51,6.77a7.52,7.52,0,0,1,.16,1.48Zm8.71-3.9c-.33-2-1.72-4.9-5.21-4.26-3.18.57-4,3.7-3.87,5.91Zm-1.88-14.45-3.4,5.86-2.2.4L490.9,526Z" transform="translate(-6)"/><path d="M522.88,534l-9.25,1.68,1.56,8.62,10.35-1.88L526,545l-13.45,2.44-4.34-23.87,12.91-2.34.46,2.56-9.8,1.79,1.37,7.56,9.26-1.69Z" transform="translate(-6)"/><path d="M528.94,541.2a8.72,8.72,0,0,0,4.35.47c2.28-.42,3.13-1.73,2.87-3.16s-1.32-2.12-3.76-2.56c-3.29-.55-5.07-2-5.43-4-.5-2.76,1.33-5.43,5-6.1a8.4,8.4,0,0,1,4.39.29l-.36,2.4a6.91,6.91,0,0,0-3.7-.37c-1.84.34-2.65,1.58-2.41,2.87s1.38,1.87,3.78,2.33c3.15.56,5,1.77,5.43,4.33.55,3-1.42,5.59-5.47,6.32a10.06,10.06,0,0,1-5-.31Z" transform="translate(-6)"/><path d="M541.74,529.23c-.33-1.78-.65-3.19-1-4.6l2.71-.49.67,2.73.08,0a6,6,0,0,1,4.84-4.13,5.12,5.12,0,0,1,5.45,2.56h.07a7,7,0,0,1,1.53-2.59,5.91,5.91,0,0,1,3.55-1.88c2.28-.42,5.92.44,7,6.4l1.84,10.08-3,.56-1.77-9.69c-.6-3.32-2.18-5.06-4.67-4.61a4.15,4.15,0,0,0-3.2,3.48,5.15,5.15,0,0,0,0,1.61l1.93,10.6-3,.56-1.87-10.28c-.5-2.73-2.06-4.47-4.41-4a4.39,4.39,0,0,0-3.32,3.82,5.28,5.28,0,0,0,0,1.58l1.88,10.32-3,.56Z" transform="translate(-6)"/><path d="M573.83,528.05c.83,4.19,3.82,5.44,6.94,4.88a12,12,0,0,0,4.59-1.74l.95,2.11a13.94,13.94,0,0,1-5.52,2.13c-5.26,1-9.07-2-10-7.11s1.38-9.8,6.38-10.71c5.59-1,7.94,3.62,8.51,6.77a7.52,7.52,0,0,1,.16,1.48Zm8.71-3.9c-.33-2-1.72-4.9-5.21-4.26-3.18.57-4,3.69-3.87,5.91Zm-1.88-14.45-3.4,5.86-2.2.4,2.18-5.64Z" transform="translate(-6)"/><path d="M589.14,521.35c-.37-2-.73-3.74-1.11-5.31l2.73-.5.73,3.34.11,0a5.27,5.27,0,0,1,4.09-4.62,3.86,3.86,0,0,1,.88-.07l.53,2.93a5.55,5.55,0,0,0-1.08.1c-2.19.4-3.44,2.34-3.44,4.75a8.57,8.57,0,0,0,.14,1.47l1.66,9.16-3.1.56Z" transform="translate(-6)"/><path d="M602.49,508.4a1.91,1.91,0,0,1-1.63,2.3,1.88,1.88,0,0,1-2.23-1.59,1.91,1.91,0,0,1,1.58-2.29A1.9,1.9,0,0,1,602.49,508.4ZM603,531l-3.11-17.13,3.1-.56,3.11,17.12Z" transform="translate(-6)"/><path d="M625.22,518c1.15,6.34-2.74,9.92-6.86,10.67-4.65.84-8.85-1.89-9.84-7.33-1-5.73,2.12-9.77,6.86-10.63C620.3,509.77,624.27,512.73,625.22,518Zm-13.55,2.67c.69,3.76,3.35,6.19,6.39,5.64s4.71-3.74,4-7.63c-.53-2.89-2.66-6.29-6.36-5.62S611.08,517.37,611.67,520.62Z" transform="translate(-6)"/><path d="M637.27,520.89a10.88,10.88,0,0,0,5.79.55c3.15-.57,4.7-2.56,4.26-5-.4-2.21-1.93-3.28-5.37-3.9-4.15-.67-6.94-2.28-7.54-5.62-.68-3.72,1.91-7,6.56-7.88a11,11,0,0,1,5.47.2l-.4,2.68a9.22,9.22,0,0,0-4.71-.32c-3.28.6-4.17,2.77-3.87,4.4.4,2.21,2,3,5.58,3.72,4.34.85,6.73,2.42,7.37,5.92.66,3.66-1.45,7.37-7.11,8.4a12.4,12.4,0,0,1-6.38-.45Z" transform="translate(-6)"/><path d="M654.65,519.72a2.14,2.14,0,0,1,1.7-2.63,2.27,2.27,0,1,1-1.7,2.63Z" transform="translate(-6)"/><path d="M666.31,494.83l12.86-2.33.46,2.57-9.75,1.77,1.44,8,9-1.64.46,2.55-9,1.64,2,10.8-3.1.56Z" transform="translate(-6)"/><path d="M686.38,493.15a1.92,1.92,0,0,1-1.63,2.3,1.89,1.89,0,0,1-2.23-1.6,2,2,0,1,1,3.86-.7Zm.51,22.6-3.11-17.13,3.1-.56L690,515.19Z" transform="translate(-6)"/><path d="M690.61,489.1l3.1-.57,4.57,25.15-3.1.56Z" transform="translate(-6)"/><path d="M699,487.58l3.09-.56,2,10.69h.07a6.28,6.28,0,0,1,1.84-2.61,6.35,6.35,0,0,1,3-1.44c2.31-.42,6.23.32,7.3,6.23l1.86,10.2-3.1.56-1.8-9.86c-.5-2.76-2-4.89-4.88-4.36a4.61,4.61,0,0,0-3.64,3.87,4.42,4.42,0,0,0,.06,1.52l1.89,10.35-3.1.57Z" transform="translate(-6)"/><path d="M737.13,497.6c1.15,6.34-2.74,9.92-6.86,10.67-4.65.84-8.85-1.89-9.84-7.33-1-5.73,2.12-9.77,6.86-10.63C732.21,489.41,736.18,492.38,737.13,497.6Zm-13.55,2.67c.69,3.76,3.35,6.19,6.39,5.64s4.72-3.74,4-7.63c-.53-2.89-2.65-6.29-6.36-5.62S723,497,723.58,500.27Z" transform="translate(-6)"/><path d="M1107.13,417.65a33.67,33.67,0,0,1,5.84-1.57c3.28-.58,5.55-.34,7.28.74a6.13,6.13,0,0,1,2.68,4.21,6.43,6.43,0,0,1-3.42,6.89V428c1.94.32,3.34,1.84,4.36,4.22a40.75,40.75,0,0,0,3,6.23l-3.2.57a32.71,32.71,0,0,1-2.59-5.44c-1.29-3.15-2.81-4.19-5.62-3.78l-2.92.52,1.84,10.35-3.08.55Zm5,10.33,3.15-.56c3.3-.59,5.07-2.76,4.59-5.5-.56-3.1-3-4.05-6.29-3.48a13.76,13.76,0,0,0-3,.82Z" transform="translate(-6)"/><path d="M1143.76,430.6c.32,1.8.66,3.33,1,4.67l-2.75.49-.67-2.77h-.09a6.48,6.48,0,0,1-5.1,4.2c-2.68.48-6.17-.45-7.24-6.46l-1.78-10,3.1-.55,1.68,9.47c.58,3.27,2,5.31,4.81,4.81a4.61,4.61,0,0,0,3.62-3.6,5.06,5.06,0,0,0,0-1.65l-1.87-10.5,3.1-.55Z" transform="translate(-6)"/><path d="M1159.31,432.68l-.66-2.12-.09,0a6.49,6.49,0,0,1-4.79,3.48,5,5,0,0,1-6.11-4c-.74-4.16,2.53-7.09,9.16-8.22l-.06-.37c-.25-1.39-1.1-3.9-4.61-3.26a8.6,8.6,0,0,0-4.24,2.07l-1.07-1.94a10.88,10.88,0,0,1,5.39-2.51c5.24-.93,7.15,2.42,7.76,5.86l1.14,6.41a27.77,27.77,0,0,0,1,4.06Zm-2-8.67c-3.39.53-7.14,1.82-6.55,5.13a2.78,2.78,0,0,0,3.44,2.47,4.35,4.35,0,0,0,3.67-3.61,3.37,3.37,0,0,0,0-1Z" transform="translate(-6)"/><path d="M1175.12,405.21l3.1-.55,2.84,16c1.13,6.36-1.63,8.86-5.74,9.6a10.57,10.57,0,0,1-3.41,0v-2.6a7.85,7.85,0,0,0,2.7,0c2.75-.49,4.14-2,3.31-6.72Z" transform="translate(-6)"/><path d="M1201.54,416.15c1.13,6.34-2.78,9.91-6.9,10.64-4.65.83-8.84-1.92-9.81-7.37-1-5.73,2.15-9.76,6.9-10.6C1196.65,407.94,1200.61,410.93,1201.54,416.15ZM1188,418.76c.66,3.76,3.32,6.21,6.36,5.67s4.73-3.72,4-7.61c-.52-2.9-2.63-6.31-6.34-5.65S1187.41,415.51,1188,418.76Z" transform="translate(-6)"/><path d="M1206,421.09a8.69,8.69,0,0,0,4.35.49c2.28-.4,3.13-1.71,2.88-3.14s-1.31-2.13-3.74-2.58c-3.3-.57-5.07-2-5.42-4.05-.49-2.76,1.35-5.43,5-6.08a8.43,8.43,0,0,1,4.38.31l-.37,2.4a6.86,6.86,0,0,0-3.7-.38c-1.84.32-2.65,1.56-2.42,2.85s1.37,1.88,3.78,2.35c3.15.58,5,1.8,5.41,4.35.54,3-1.45,5.59-5.5,6.31a10,10,0,0,1-5-.34Z" transform="translate(-6)"/><path d="M1221.36,413.38c.82,4.2,3.8,5.45,6.93,4.89a11.81,11.81,0,0,0,4.59-1.73l.94,2.11a13.9,13.9,0,0,1-5.52,2.12c-5.26,1-9.06-2-10-7.13s1.39-9.8,6.39-10.7c5.59-1,7.94,3.64,8.51,6.79a8.17,8.17,0,0,1,.15,1.48Zm8.71-3.89c-.32-2-1.71-4.9-5.2-4.27-3.18.57-4,3.69-3.88,5.91ZM1228.22,395l-3.41,5.85-2.21.4,2.2-5.63Z" transform="translate(-6)"/><path d="M1256.67,403.65l-9.25,1.7L1249,414l10.35-1.9.47,2.57-13.44,2.47L1242,393.25l12.89-2.37.48,2.56-9.8,1.81,1.39,7.55,9.25-1.7Z" transform="translate(-6)"/><path d="M1262.71,410.82a8.63,8.63,0,0,0,4.35.44c2.28-.42,3.12-1.74,2.85-3.17s-1.33-2.11-3.76-2.54c-3.31-.54-5.08-1.95-5.46-4-.52-2.76,1.3-5.44,5-6.12a8.43,8.43,0,0,1,4.39.26l-.35,2.41a6.84,6.84,0,0,0-3.7-.35c-1.84.34-2.64,1.59-2.4,2.88s1.39,1.86,3.8,2.31c3.16.55,5,1.75,5.45,4.3.57,3-1.39,5.6-5.43,6.36a9.87,9.87,0,0,1-5-.3Z" transform="translate(-6)"/><path d="M1275.34,398.81c-.35-1.78-.68-3.19-1-4.59l2.7-.52.69,2.72h.09a6,6,0,0,1,4.79-4.19,5.14,5.14,0,0,1,5.48,2.5h.07a7,7,0,0,1,1.5-2.6,6,6,0,0,1,3.53-1.92c2.29-.44,5.93.38,7.08,6.33l1.93,10.07-3,.58-1.86-9.67c-.64-3.31-2.24-5-4.73-4.56a4.15,4.15,0,0,0-3.16,3.51,5.18,5.18,0,0,0,0,1.61l2,10.59-3,.58-2-10.26c-.52-2.72-2.1-4.45-4.45-4a4.4,4.4,0,0,0-3.28,3.85,5.29,5.29,0,0,0,.06,1.58l2,10.31-3,.58Z" transform="translate(-6)"/><path d="M1307.32,397.25c.91,4.19,3.92,5.38,7,4.75a11.7,11.7,0,0,0,4.55-1.82l1,2.09a14.08,14.08,0,0,1-5.48,2.24c-5.25,1.05-9.1-1.8-10.13-6.93s1.19-9.82,6.17-10.83c5.57-1.12,8,3.47,8.64,6.62a7.91,7.91,0,0,1,.19,1.47Zm8.64-4.06c-.37-2-1.82-4.86-5.3-4.16-3.17.64-3.94,3.77-3.75,6Zm-2.15-14.41-3.29,5.92-2.2.45,2.07-5.68Z" transform="translate(-6)"/><path d="M1322.33,390.26c-.42-2-.83-3.71-1.26-5.27l2.72-.58.82,3.32.11,0a5.27,5.27,0,0,1,4-4.73,3.5,3.5,0,0,1,.88-.1l.61,2.92a5,5,0,0,0-1.07.13c-2.18.46-3.38,2.43-3.31,4.84a7.86,7.86,0,0,0,.18,1.47l1.92,9.1-3.08.65Z" transform="translate(-6)"/><path d="M1335,377a1.9,1.9,0,0,1-1.54,2.35,1.88,1.88,0,0,1-2.29-1.51A2,2,0,1,1,1335,377Zm1.36,22.57-3.75-17,3.07-.68,3.76,17Z" transform="translate(-6)"/><path d="M1358.06,385.21c1.57,6.26-2.07,10.08-6.13,11.11-4.58,1.15-9-1.29-10.31-6.65-1.43-5.65,1.45-9.89,6.12-11.07C1352.6,377.37,1356.76,380.07,1358.06,385.21Zm-13.34,3.57c.93,3.71,3.76,6,6.75,5.21s4.45-4.05,3.49-7.88c-.72-2.86-3.07-6.11-6.72-5.19S1343.91,385.58,1344.72,388.78Z" transform="translate(-6)"/><path d="M1370.59,386.5a11,11,0,0,0,5.82-.09c3.07-.91,4.4-3.05,3.7-5.4-.64-2.16-2.28-3.06-5.76-3.3-4.2-.22-7.14-1.52-8.11-4.78-1.07-3.62,1.14-7.2,5.68-8.54a11.18,11.18,0,0,1,5.46-.4l-.11,2.71a9.23,9.23,0,0,0-4.72.2c-3.19,1-3.84,3.2-3.37,4.78.64,2.16,2.37,2.81,6,3.1,4.4.38,6.95,1.68,8,5.09,1.06,3.57-.64,7.49-6.15,9.12a12.43,12.43,0,0,1-6.4.25Z" transform="translate(-6)"/><path d="M1387.75,383.46a2.13,2.13,0,0,1,1.41-2.8,2.27,2.27,0,1,1-1.41,2.8Z" transform="translate(-6)"/><path d="M1396.59,357.47l12.52-3.74.75,2.5-9.51,2.84,2.31,7.74,8.79-2.62.74,2.48-8.78,2.63,3.14,10.52-3,.9Z" transform="translate(-6)"/><path d="M1416.27,353.59a1.9,1.9,0,0,1-1.36,2.47,1.88,1.88,0,0,1-2.39-1.34,2,2,0,1,1,3.75-1.13Zm3,22.41-5-16.67,3-.91,5,16.67Z" transform="translate(-6)"/><path d="M1420,349.1l3-.91,7.42,24.46-3,.91Z" transform="translate(-6)"/><path d="M1428,346.67l3-.93,3.2,10.39.07,0a6.46,6.46,0,0,1,4.36-4.6c2.24-.69,6.22-.42,8,5.32l3.05,9.91-3,.93-2.94-9.58c-.83-2.68-2.54-4.63-5.37-3.76a4.6,4.6,0,0,0-3.15,4.28,4.27,4.27,0,0,0,.24,1.51l3.09,10.05-3,.93Z" transform="translate(-6)"/><path d="M1466.92,352c1.94,6.15-1.48,10.19-5.47,11.45-4.5,1.42-9-.76-10.68-6-1.75-5.55.87-9.95,5.47-11.4C1461,344.51,1465.32,347,1466.92,352Zm-13.11,4.35c1.15,3.64,4.11,5.73,7,4.8s4.21-4.3,3-8.07c-.89-2.81-3.42-5.92-7-4.78S1452.82,353.21,1453.81,356.36Z" transform="translate(-6)"/><path class="cls-1" d="M791.44,519.06l6.39,85.58A18.7,18.7,0,0,1,783,624.34h0a18.7,18.7,0,0,1-22.48-17l-5.79-81.49a6.86,6.86,0,0,0-7.9-6.3l-4.22.66L454.85,572.56l-88.94,19.68c-1,.22-2,.46-2.93.74L85.38,671.13c-21.29,6-37.38,24.44-38.69,46.52-1.14,19.11-1,63.77-.81,90.14H1662.27A20.79,20.79,0,0,0,1683.06,787V289.73l-131.48,54.4c-12.13,4.76-26.84,10.33-44,16.49-56.19,20.14-131.47,41.35-159,49.83s-154.79,30.75-154.79,30.75l-396,70.48-.55.08A6.86,6.86,0,0,0,791.44,519.06Z" transform="translate(-6)"/><path d="M6.31,597.15a32.42,32.42,0,0,1-.28-6c.13-3.33.85-5.49,2.27-7A6.12,6.12,0,0,1,13,582.44a6.41,6.41,0,0,1,6,4.82h.09c.72-1.82,2.52-2.87,5.05-3.35a42.16,42.16,0,0,0,6.73-1.6l-.13,3.24a31.52,31.52,0,0,1-5.87,1.36c-3.35.59-4.69,1.85-4.89,4.68l-.12,3,10.5.42-.12,3.12Zm11.16-2.69.13-3.2c.13-3.35-1.61-5.54-4.39-5.66-3.15-.12-4.6,2.09-4.74,5.4a13.55,13.55,0,0,0,.15,3.11Z" transform="translate(-6)"/><path d="M26.81,564.15c1.82.07,3.39.07,4.76,0l-.11,2.8-2.85,0v.09a6.53,6.53,0,0,1,3,5.89c-.11,2.72-1.77,5.93-7.87,5.68l-10.16-.4.12-3.15,9.61.38c3.32.13,5.62-.81,5.73-3.66a4.61,4.61,0,0,0-2.74-4.3,4.83,4.83,0,0,0-1.61-.36l-10.65-.42.12-3.15Z" transform="translate(-6)"/><path d="M32.17,549.41l-2.21.2v.09a6.51,6.51,0,0,1,2.37,5.43,5,5,0,0,1-5.2,5.11c-4.21-.17-6.38-4-6.06-10.71l-.37,0c-1.41-.06-4.05.24-4.17,3.8a8.5,8.5,0,0,0,1.11,4.59l-2.13.63a11,11,0,0,1-1.29-5.8c.21-5.32,3.9-6.47,7.38-6.33l6.51.26a26.74,26.74,0,0,0,4.17-.1Zm-8.91.14c-.21,3.42.25,7.37,3.62,7.5A2.78,2.78,0,0,0,30,554.22a4.36,4.36,0,0,0-2.74-4.36,3.67,3.67,0,0,0-1-.19Z" transform="translate(-6)"/><path d="M8.67,529.89l24.24,1L32.78,534,8.54,533Z" transform="translate(-6)"/><path d="M20.44,524.63c-1.81-.07-3.26-.07-4.7,0l.11-2.8,2.87-.06v-.09a6.4,6.4,0,0,1-3-5.88c.09-2.39,1.68-6.07,7.65-5.83l10.38.41-.13,3.15-10-.4c-2.82-.11-5.21.85-5.33,3.81a4.55,4.55,0,0,0,3.07,4.4,5.2,5.2,0,0,0,1.46.27l10.48.42-.12,3.15Z" transform="translate(-6)"/><path d="M9.33,496.31l5.28-3.25-.1,2.41L11,497.42v.07l3.33,2.22-.09,2.38-5-3.63Zm16.55,6.78c4.28.1,6.15-2.56,6.28-5.72a11.41,11.41,0,0,0-.71-4.86l2.29-.45a14.11,14.11,0,0,1,.85,5.84c-.21,5.35-3.87,8.41-9.12,8.2s-9.26-3.47-9.06-8.54c.23-5.68,5.29-7,8.49-6.86a10.5,10.5,0,0,1,1.47.17ZM24,493.72c-2-.11-5.18.62-5.32,4.19-.13,3.2,2.76,4.72,4.95,5.06Z" transform="translate(-6)"/><path d="M31.41,487.46a8.35,8.35,0,0,0,1.42-4.12c.09-2.3-1-3.43-2.45-3.48S28,480.66,27,483c-1.24,3.08-3,4.48-5.11,4.4-2.8-.11-5-2.47-4.86-6.21a8.66,8.66,0,0,1,1.25-4.24l2.27.89a6.7,6.7,0,0,0-1.15,3.52c-.08,1.87,1,2.95,2.26,3s2.12-1,3.08-3.19c1.27-3,2.84-4.47,5.43-4.36,3.06.12,5.12,2.58,5,6.72a10,10,0,0,1-1.39,4.84Z" transform="translate(-6)"/><path d="M35.43,448.21a15.51,15.51,0,0,1,.89,6.45c-.27,6.83-4.8,11.8-12.74,11.48-7.59-.3-12.53-5.65-12.23-13.17a13.05,13.05,0,0,1,1.31-5.71l2.52.86A11.44,11.44,0,0,0,14,453c-.23,5.69,3.25,9.61,9.62,9.86,5.94.24,9.88-3,10.12-8.92a12.49,12.49,0,0,0-.8-5.15Z" transform="translate(-6)"/><path d="M28.14,428.72c6.43.25,9.06,4.83,8.89,9-.19,4.71-3.78,8.21-9.29,8-5.82-.23-9.09-4.18-8.89-9C19.05,431.74,22.81,428.5,28.14,428.72Zm-.38,13.81c3.82.16,6.78-1.92,6.91-5S32,432.11,28.11,432c-2.94-.12-6.74,1.2-6.89,4.94S24.46,442.4,27.76,442.53Z" transform="translate(-6)"/><path d="M25.17,424.59c-2.05-.08-3.82-.11-5.44-.07l.11-2.77,3.42,0v-.14a5.22,5.22,0,0,1-3.62-5,3.39,3.39,0,0,1,.14-.89l3,.12a4.12,4.12,0,0,0-.15,1.07c-.09,2.23,1.54,3.88,3.89,4.41a8.71,8.71,0,0,0,1.47.2l9.28.38-.13,3.13Z" transform="translate(-6)"/><path d="M25.64,412.69c-2.05-.08-3.81-.12-5.43-.07l.11-2.77,3.42,0v-.14a5.21,5.21,0,0,1-3.62-5,3.47,3.47,0,0,1,.14-.9l3,.12a5.3,5.3,0,0,0-.15,1.08c-.09,2.23,1.54,3.88,3.9,4.4a8.66,8.66,0,0,0,1.47.21l9.28.37-.13,3.13Z" transform="translate(-6)"/><path d="M30,399.68c4.28.1,6.15-2.57,6.28-5.73a11.41,11.41,0,0,0-.71-4.86l2.29-.44a14.06,14.06,0,0,1,.85,5.83c-.21,5.36-3.87,8.42-9.12,8.21s-9.26-3.47-9.06-8.54c.23-5.69,5.29-7,8.49-6.87a12.3,12.3,0,0,1,1.47.17Zm-1.89-9.37c-2-.12-5.18.62-5.32,4.18-.13,3.2,2.76,4.72,5,5.06Z" transform="translate(-6)"/><path d="M16.64,379.33a1.86,1.86,0,0,1,1.86,2.09,1.89,1.89,0,0,1-2,1.83,1.94,1.94,0,0,1-1.9-2.06A1.88,1.88,0,0,1,16.64,379.33Zm22.16,4.41-17.41-.69.13-3.17,17.41.7Z" transform="translate(-6)"/><path d="M39.52,365.69l-2.2.16V366a6.5,6.5,0,0,1,2.38,5.43,5,5,0,0,1-5.21,5.12c-4.21-.17-6.36-4-6.06-10.73h-.36c-1.44-.06-4,.23-4.18,3.8A8.67,8.67,0,0,0,25,374.15l-2.11.63A10.74,10.74,0,0,1,21.56,369c.21-5.32,3.9-6.47,7.38-6.33l6.51.26a24.5,24.5,0,0,0,4.19-.12Zm-8.9.11c-.21,3.45.24,7.4,3.62,7.53a2.82,2.82,0,0,0,3.15-2.86,4.35,4.35,0,0,0-2.75-4.33,3.27,3.27,0,0,0-1-.22Z" transform="translate(-6)"/><path d="M32.67,346l7.53,2.82-.13,3.24-23.91-9.21.15-3.77,24.57-7.3-.14,3.34L33,337.43Zm-2.13-8-7.07,2.1c-1.6.47-3.06.78-4.47,1.08v.07c1.42.42,2.88.87,4.33,1.4l6.92,2.65Z" transform="translate(-6)"/><path d="M15.48,327.43l.12-3.16,25.54,1L41,328.46Z" transform="translate(-6)"/><path d="M15.82,319l.12-3.17,25.54,1L41.35,320Z" transform="translate(-6)"/><path d="M33.63,309.39c4.29.1,6.16-2.56,6.29-5.73a11.36,11.36,0,0,0-.71-4.85l2.29-.45a13.93,13.93,0,0,1,.84,5.83c-.21,5.36-3.86,8.42-9.11,8.21s-9.27-3.47-9.06-8.54c.22-5.68,5.28-7,8.48-6.86a10.83,10.83,0,0,1,1.47.16ZM31.74,300c-2-.12-5.18.62-5.32,4.18-.13,3.2,2.77,4.73,4.95,5.06Z" transform="translate(-6)"/><path d="M29.72,293c-1.8-.07-3.28-.1-4.72-.05l.11-2.8L28,290V290a6.39,6.39,0,0,1-3-5.88c.09-2.41,1.68-6.1,7.65-5.86l10.4.42-.13,3.16-10-.4c-2.8-.11-5.18.84-5.3,3.82a4.63,4.63,0,0,0,4.53,4.65l10.47.42-.13,3.17Z" transform="translate(-6)"/><path d="M226.25,75.84l-7.1-6.17-5.75,6.61,7.94,6.91-1.72,2-10.31-9,15.93-18.31,9.9,8.62-1.72,2-7.52-6.55-5,5.8L228,73.89Z" transform="translate(-6)"/><path d="M224.43,85.07a8.7,8.7,0,0,0,2.35,3.69c1.75,1.51,3.3,1.36,4.26.26s.83-2.35-.35-4.53c-1.63-2.92-1.63-5.19-.25-6.76,1.84-2.12,5.07-2.36,7.9.1a8.51,8.51,0,0,1,2.51,3.61l-2.1,1.22a6.85,6.85,0,0,0-2-3.12c-1.41-1.22-2.88-1.08-3.74-.09s-.6,2.25.54,4.41c1.53,2.82,1.72,5,0,7-2,2.33-5.26,2.38-8.36-.32a9.9,9.9,0,0,1-2.9-4.13Z" transform="translate(-6)"/><path d="M251,82.73l-3.29,3.78,3.43,3-1.57,1.81-3.44-3L240,95.4c-1.42,1.63-1.75,3-.42,4.13a6.35,6.35,0,0,0,1.54,1l-1.47,1.91a8,8,0,0,1-2.42-1.53,4.4,4.4,0,0,1-1.7-3.25c0-1.3.71-2.69,2-4.24l6.25-7.17-2-1.77,1.58-1.81,2,1.77,2.75-3.16Z" transform="translate(-6)"/><path d="M250.28,95.94c1.35-1.55,2.46-2.91,3.45-4.19l2.09,1.83-2.15,2.65.09.08a5.28,5.28,0,0,1,6.16.3,3.58,3.58,0,0,1,.6.65l-1.95,2.25a4.9,4.9,0,0,0-.75-.78c-1.69-1.47-4-1.23-5.86.27a8.57,8.57,0,0,0-1.07,1l-6.11,7L242.41,105Z" transform="translate(-6)"/><path d="M258.44,118.93l1.23-1.84-.07-.06a6.54,6.54,0,0,1-5.73-1.54,5,5,0,0,1-.73-7.26c2.77-3.19,7.11-2.48,12.15,2l.25-.28c.93-1.06,2.35-3.3-.36-5.63a8.49,8.49,0,0,0-4.27-2l.84-2.06a11,11,0,0,1,5.34,2.62c4,3.5,2.6,7.09.31,9.72l-4.27,4.92a27,27,0,0,0-2.54,3.31Zm5.46-7c-2.54-2.31-5.9-4.42-8.11-1.88a2.78,2.78,0,0,0,.24,4.23,4.34,4.34,0,0,0,5.11.59,3.15,3.15,0,0,0,.77-.66Z" transform="translate(-6)"/><path d="M292.36,114.56l-13.84,15.9c-1,1.16-2.11,2.52-2.84,3.48l-2.12-1.85,1.85-2.38-.06-.05a6.37,6.37,0,0,1-6.69-1.31c-3.18-2.77-3.3-7.6.17-11.58,3.8-4.41,8.84-4.7,12-1.92a5.81,5.81,0,0,1,2.23,5.44l.06,0,6.82-7.85ZM280,124a6.76,6.76,0,0,0,.79-1.11,4.68,4.68,0,0,0-1.07-5.76c-2.47-2.15-5.84-1.27-8.35,1.62-2.32,2.66-2.92,6-.35,8.28a4.79,4.79,0,0,0,6,.17,5.11,5.11,0,0,0,1-.93Z" transform="translate(-6)"/><path d="M286.84,143.65l1.24-1.84-.07-.06a6.53,6.53,0,0,1-5.73-1.54,5,5,0,0,1-.73-7.26c2.77-3.19,7.11-2.48,12.15,2l.25-.28c.93-1.06,2.34-3.3-.36-5.63a8.53,8.53,0,0,0-4.27-2l.84-2.06a11,11,0,0,1,5.34,2.62c4,3.5,2.6,7.09.31,9.73l-4.27,4.91a26.29,26.29,0,0,0-2.54,3.32Zm5.47-7c-2.54-2.3-5.9-4.42-8.11-1.88a2.78,2.78,0,0,0,.24,4.23,4.34,4.34,0,0,0,5.11.59,3.15,3.15,0,0,0,.77-.66Z" transform="translate(-6)"/><path d="M326.53,144.29l-13.84,15.9c-1,1.17-2.11,2.52-2.84,3.48l-2.12-1.85,1.85-2.37-.06-.06a6.37,6.37,0,0,1-6.69-1.31c-3.18-2.77-3.3-7.59.17-11.57,3.8-4.41,8.84-4.71,12-1.93a5.82,5.82,0,0,1,2.23,5.44l.06,0,6.82-7.84Zm-12.38,9.43a6.36,6.36,0,0,0,.79-1.11,4.68,4.68,0,0,0-1.07-5.76c-2.47-2.15-5.84-1.27-8.35,1.62-2.32,2.67-2.92,6-.35,8.28a4.78,4.78,0,0,0,6,.17,5.36,5.36,0,0,0,1-.92Z" transform="translate(-6)"/><path d="M331.44,170.7c-4.23,4.86-9.46,4.05-12.61,1.31-3.57-3.1-4.06-8.09-.43-12.26,3.83-4.4,9-4.46,12.59-1.29S334.93,166.7,331.44,170.7Zm-10.54-8.91c-2.51,2.88-2.75,6.48-.42,8.51s5.87,1.35,8.46-1.64c1.94-2.22,3.26-6,.42-8.47S323.06,159.3,320.9,161.79Z" transform="translate(-6)"/><path d="M347.78,195.64a15.48,15.48,0,0,1-5.6-3.33c-5.15-4.49-6.18-11.12-.95-17.13,5-5.74,12.23-6.23,17.91-1.29a13.15,13.15,0,0,1,3.64,4.59l-2.25,1.42a11.5,11.5,0,0,0-3-4c-4.3-3.74-9.53-3.47-13.71,1.34-3.9,4.48-3.81,9.58.62,13.44a12.81,12.81,0,0,0,4.54,2.63Z" transform="translate(-6)"/><path d="M364.16,204.65c-1.18,1.39-2.15,2.62-3,3.73l-2.13-1.82,1.72-2.28-.07-.05a6.53,6.53,0,0,1-6.49-1.27c-2.07-1.77-3.57-5.05.39-9.7l6.6-7.74,2.39,2-6.23,7.32c-2.15,2.53-2.83,4.92-.66,6.77a4.63,4.63,0,0,0,5.08.5,4.82,4.82,0,0,0,1.27-1.05L370,193l2.4,2Z" transform="translate(-6)"/><path d="M373.08,202.75c1.3-1.8,2.3-3.3,3.19-4.69l2.3,1.66L377,202.23l.06,0a6.79,6.79,0,0,1,7,.88c3.42,2.46,3.92,7.2.84,11.49-3.67,5.09-8.59,5.36-11.9,3a6.09,6.09,0,0,1-2.75-5.37l-.06,0-5.54,7.69-2.55-1.84Zm-.16,5.62a5.75,5.75,0,0,0-.64,1.12,4.87,4.87,0,0,0,1.67,5.78c2.72,2,5.9.86,8.24-2.38,2-2.82,2.29-6.31-.43-8.27a5,5,0,0,0-6.17.38,5.28,5.28,0,0,0-.91.92Z" transform="translate(-6)"/><path d="M383.61,224.42l9.49-14.59,2.64,1.72-9.49,14.59Zm15.14-16.79a2,2,0,1,1-3.29-2.14,1.93,1.93,0,0,1,2.73-.58A1.9,1.9,0,0,1,398.75,207.63Z" transform="translate(-6)"/><path d="M719.59,322.65l-9.33-1.17-1.09,8.7,10.44,1.31-.32,2.59-13.57-1.7,3-24.08,13,1.63-.32,2.59-9.89-1.24-1,7.63,9.34,1.17Z" transform="translate(-6)"/><path d="M723.22,331.32a8.63,8.63,0,0,0,4,1.75c2.29.29,3.5-.71,3.68-2.15s-.63-2.42-2.82-3.57c-3-1.52-4.24-3.4-4-5.47.35-2.78,2.9-4.78,6.61-4.32a8.46,8.46,0,0,1,4.1,1.59l-1.06,2.19a6.89,6.89,0,0,0-3.42-1.46c-1.85-.23-3,.71-3.16,2s.76,2.2,2.91,3.36c2.84,1.48,4.2,3.18,3.89,5.76-.39,3.06-3,4.9-7.12,4.39a9.83,9.83,0,0,1-4.7-1.81Z" transform="translate(-6)"/><path d="M743.62,314.16l-.37,5,4.54.34-.18,2.39-4.54-.34-.69,9.36c-.16,2.17.37,3.43,2.13,3.57a6.19,6.19,0,0,0,1.85-.1l0,2.41a8,8,0,0,1-2.86.23,4.46,4.46,0,0,1-3.31-1.59c-.8-1-1-2.58-.89-4.62l.71-9.49-2.69-.2.18-2.39,2.69.2.31-4.18Z" transform="translate(-6)"/><path d="M751,325.1c.13-2.05.19-3.8.2-5.42l2.77.18-.1,3.41H754a5.31,5.31,0,0,1,5.09-3.49,3.75,3.75,0,0,1,.87.15l-.19,3a5.15,5.15,0,0,0-1.07-.16c-2.23-.15-3.91,1.43-4.49,3.77a8.93,8.93,0,0,0-.23,1.46l-.6,9.28-3.14-.2Z" transform="translate(-6)"/><path d="M771.41,338.45l-.13-2.22h-.1a6.48,6.48,0,0,1-5.48,2.24,5,5,0,0,1-5-5.33c.27-4.21,4.16-6.28,10.86-5.79l0-.37c.09-1.41-.14-4.05-3.7-4.27a8.56,8.56,0,0,0-4.61,1l-.58-2.15a11,11,0,0,1,5.84-1.14c5.31.34,6.36,4.06,6.14,7.54l-.43,6.5a26.4,26.4,0,0,0,0,4.17Zm.09-8.91c-3.41-.29-7.37.07-7.59,3.42a2.79,2.79,0,0,0,2.76,3.22,4.35,4.35,0,0,0,4.42-2.63,3.32,3.32,0,0,0,.21-1Z" transform="translate(-6)"/><path d="M795.72,314.37l-1.26,21c-.09,1.54-.14,3.28-.13,4.49l-2.81-.17,0-3h-.08a6.38,6.38,0,0,1-6.1,3.05c-4.21-.26-7.25-4-6.93-9.28.32-5.81,4.14-9.12,8.37-8.87a5.81,5.81,0,0,1,5.08,2.95H792l.63-10.37Zm-4.06,15a6.22,6.22,0,0,0,0-1.36,4.69,4.69,0,0,0-4.36-3.91c-3.27-.19-5.4,2.56-5.63,6.38-.21,3.53,1.37,6.56,4.78,6.77a4.79,4.79,0,0,0,4.85-3.52,5.51,5.51,0,0,0,.23-1.35Z" transform="translate(-6)"/><path d="M810,339.72l-.28-2.19h-.1a6.48,6.48,0,0,1-5.32,2.59,5,5,0,0,1-5.32-5c0-4.21,3.74-6.53,10.46-6.48v-.37c0-1.41-.4-4-4-4a8.53,8.53,0,0,0-4.54,1.3l-.72-2.1a11,11,0,0,1,5.75-1.53c5.32,0,6.62,3.64,6.62,7.12v6.52a27.85,27.85,0,0,0,.26,4.16Zm-.5-8.89c-3.42-.07-7.35.55-7.35,3.91a2.79,2.79,0,0,0,3,3,4.35,4.35,0,0,0,4.24-2.91,3.33,3.33,0,0,0,.15-1Z" transform="translate(-6)"/><path d="M840.38,314.17v21.06c0,1.55.06,3.29.14,4.49h-2.81l-.16-3h-.09a6.37,6.37,0,0,1-5.9,3.41c-4.22,0-7.47-3.57-7.47-8.84,0-5.82,3.58-9.36,7.82-9.36a5.81,5.81,0,0,1,5.25,2.64h.07V314.17Zm-3.15,15.23a6.86,6.86,0,0,0-.13-1.35,4.68,4.68,0,0,0-4.59-3.65c-3.28,0-5.23,2.88-5.23,6.7,0,3.54,1.76,6.47,5.17,6.47a4.79,4.79,0,0,0,4.63-3.8,5.22,5.22,0,0,0,.15-1.35Z" transform="translate(-6)"/><path d="M861.41,330.85c0,6.45-4.47,9.27-8.66,9.27-4.72,0-8.37-3.44-8.37-9,0-5.82,3.83-9.23,8.65-9.23C858,321.92,861.41,325.55,861.41,330.85Zm-13.81.2c0,3.82,2.19,6.7,5.28,6.7s5.31-2.84,5.31-6.79c0-2.94-1.49-6.67-5.25-6.67S847.6,327.75,847.6,331.05Z" transform="translate(-6)"/><path d="M890.1,339a15.72,15.72,0,0,1-6.41,1.15c-6.83,0-12-4.32-12-12.29,0-7.61,5.13-12.73,12.66-12.73a13.14,13.14,0,0,1,5.76,1.07l-.77,2.55a11.54,11.54,0,0,0-4.88-1c-5.7,0-9.46,3.64-9.46,10,0,5.94,3.42,9.73,9.29,9.73a12.85,12.85,0,0,0,5.14-1Z" transform="translate(-6)"/><path d="M908.05,335c0,1.82.06,3.39.14,4.76h-2.8l-.16-2.84h-.09a6.53,6.53,0,0,1-5.77,3.24c-2.72,0-6-1.53-6-7.63V322.32h3.15v9.61c0,3.32,1,5.58,3.89,5.58a4.62,4.62,0,0,0,4.19-2.91,4.93,4.93,0,0,0,.29-1.62V322.32h3.15Z" transform="translate(-6)"/><path d="M913.48,327.84c-.11-2.21-.26-4-.43-5.65l2.83-.15.32,3h.07a6.83,6.83,0,0,1,6-3.67c4.21-.21,7.56,3.18,7.83,8.45.32,6.27-3.36,9.55-7.43,9.76a6.1,6.1,0,0,1-5.5-2.47h-.07l.47,9.46-3.14.16Zm3.38,4.49a5.8,5.8,0,0,0,.2,1.28,4.87,4.87,0,0,0,4.91,3.47c3.36-.17,5.15-3,4.95-7-.17-3.47-2.14-6.36-5.49-6.19a5,5,0,0,0-4.59,4.14,5.14,5.14,0,0,0-.13,1.29Z" transform="translate(-6)"/><path d="M936.51,315.92a1.92,1.92,0,0,1-1.88,2.1,1.9,1.9,0,0,1-2-1.84,1.94,1.94,0,0,1,1.84-2.1A1.91,1.91,0,0,1,936.51,315.92Zm-2,22.52-1.16-17.37,3.15-.21,1.15,17.37Z" transform="translate(-6)"/><path d="M1167.7,310.55l-9.4.39.36,8.76,10.51-.44.11,2.61-13.66.56-1-24.24,13.11-.54.1,2.61-9.95.41.31,7.68,9.4-.39Z" transform="translate(-6)"/><path d="M1172.7,318.5a8.77,8.77,0,0,0,4.25,1.06c2.31-.1,3.33-1.28,3.27-2.74s-1-2.28-3.37-3c-3.19-1-4.75-2.65-4.83-4.74-.12-2.8,2-5.2,5.79-5.36a8.49,8.49,0,0,1,4.31.89l-.69,2.34a6.71,6.71,0,0,0-3.61-.88c-1.87.08-2.83,1.2-2.78,2.51s1.11,2,3.43,2.83c3,1,4.67,2.43,4.79,5,.13,3.08-2.17,5.34-6.28,5.52a10,10,0,0,1-4.94-1Z" transform="translate(-6)"/><path d="M1190.34,298.52l.22,5,4.54-.2.11,2.39-4.54.2.41,9.38c.09,2.16.77,3.36,2.54,3.28a6,6,0,0,0,1.82-.31l.25,2.4a7.89,7.89,0,0,1-2.8.56,4.44,4.44,0,0,1-3.48-1.19c-.91-.92-1.33-2.44-1.42-4.48l-.42-9.5-2.7.12-.1-2.4,2.69-.12-.18-4.19Z" transform="translate(-6)"/><path d="M1198.88,308.58c-.1-2.05-.23-3.8-.4-5.41l2.78-.13.27,3.41h.12a5.27,5.27,0,0,1,4.67-4,3.14,3.14,0,0,1,.88.05l.14,3a5.28,5.28,0,0,0-1.08,0c-2.23.1-3.73,1.85-4,4.24a7.93,7.93,0,0,0-.06,1.48l.42,9.29-3.14.15Z" transform="translate(-6)"/><path d="M1220.62,319.57l-.39-2.19h-.09a6.46,6.46,0,0,1-5.2,2.84,5,5,0,0,1-5.55-4.73c-.2-4.22,3.42-6.71,10.14-7v-.37c-.07-1.42-.6-4-4.16-3.82a8.45,8.45,0,0,0-4.47,1.51l-.81-2.07a11,11,0,0,1,5.66-1.8c5.32-.25,6.79,3.32,7,6.8l.31,6.51a27.54,27.54,0,0,0,.46,4.15Zm-.92-8.86c-3.43.09-7.32.89-7.15,4.26a2.78,2.78,0,0,0,3.09,2.88,4.36,4.36,0,0,0,4.1-3.11,3.26,3.26,0,0,0,.11-1Z" transform="translate(-6)"/><path d="M1242,292.89l1.09,21c.08,1.54.23,3.28.37,4.48l-2.81.14-.31-3h-.09a6.35,6.35,0,0,1-5.72,3.7c-4.21.22-7.65-3.17-7.92-8.44-.33-5.81,3.1-9.53,7.33-9.75a5.8,5.8,0,0,1,5.38,2.37h.07l-.54-10.38Zm-2.36,15.37a6.2,6.2,0,0,0-.2-1.34,4.68,4.68,0,0,0-4.77-3.4c-3.27.17-5.08,3.14-4.88,7,.18,3.53,2.09,6.37,5.5,6.2a4.77,4.77,0,0,0,4.42-4,5.43,5.43,0,0,0,.09-1.36Z" transform="translate(-6)"/><path d="M1258.18,317.58l-.4-2.18h-.1a6.46,6.46,0,0,1-5.17,2.89,5,5,0,0,1-5.59-4.69c-.24-4.21,3.36-6.73,10.08-7.07l0-.36c-.08-1.42-.62-4-4.18-3.79a8.48,8.48,0,0,0-4.46,1.55l-.84-2.06a10.93,10.93,0,0,1,5.66-1.85c5.31-.3,6.81,3.26,7,6.74l.37,6.51a27,27,0,0,0,.49,4.14Zm-1-8.85c-3.43.12-7.31,1-7.12,4.32a2.79,2.79,0,0,0,3.12,2.86,4.38,4.38,0,0,0,4.08-3.15,3.19,3.19,0,0,0,.09-1Z" transform="translate(-6)"/><path d="M1286.72,290.17l1.4,21c.1,1.55.28,3.28.44,4.48l-2.81.18-.36-3h-.08a6.39,6.39,0,0,1-5.67,3.79c-4.21.28-7.69-3.06-8-8.33-.41-5.81,3-9.57,7.18-9.86a5.84,5.84,0,0,1,5.42,2.29h.07l-.69-10.37Zm-2.13,15.41a6.94,6.94,0,0,0-.22-1.34,4.68,4.68,0,0,0-4.82-3.33c-3.27.22-5,3.22-4.78,7,.24,3.52,2.19,6.34,5.59,6.11a4.79,4.79,0,0,0,4.37-4.1,5.12,5.12,0,0,0,.06-1.37Z" transform="translate(-6)"/><path d="M1308.63,305.21c.51,6.43-3.73,9.6-7.9,9.93-4.71.37-8.62-2.77-9.06-8.28-.46-5.81,3.09-9.51,7.89-9.89C1304.55,296.57,1308.21,299.93,1308.63,305.21Zm-13.75,1.3c.3,3.81,2.71,6.5,5.79,6.25s5.07-3.25,4.75-7.18c-.23-2.94-2-6.54-5.76-6.24S1294.62,303.22,1294.88,306.51Z" transform="translate(-6)"/><path d="M1338.06,310a15.59,15.59,0,0,1-6.22,2c-6.77.88-12.41-2.76-13.43-10.66-1-7.55,3.46-13.28,10.93-14.24a13,13,0,0,1,5.85.32l-.44,2.63a11.44,11.44,0,0,0-5-.37c-5.65.73-8.92,4.82-8.11,11.14.76,5.89,4.64,9.21,10.47,8.46a12.86,12.86,0,0,0,5-1.64Z" transform="translate(-6)"/><path d="M1355.27,303.12c.29,1.81.6,3.34.91,4.68l-2.76.45-.63-2.78-.09,0a6.5,6.5,0,0,1-5.16,4.13c-2.69.44-6.16-.54-7.15-6.56l-1.64-10,3.11-.51,1.55,9.49c.54,3.27,1.92,5.33,4.74,4.87a4.62,4.62,0,0,0,3.67-3.54,5.32,5.32,0,0,0,0-1.65l-1.72-10.52,3.1-.51Z" transform="translate(-6)"/><path d="M1359,295.39c-.41-2.19-.79-3.95-1.17-5.55l2.78-.51.71,2.88h.07a6.79,6.79,0,0,1,5.47-4.42c4.14-.77,7.91,2.15,8.86,7.35,1.14,6.17-2.08,9.9-6.09,10.64a6.06,6.06,0,0,1-5.77-1.73h-.07l1.71,9.32-3.1.57Zm3.93,4a5.65,5.65,0,0,0,.37,1.25,4.85,4.85,0,0,0,5.32,2.79c3.3-.6,4.71-3.66,4-7.58-.63-3.42-2.95-6-6.25-5.42a5,5,0,0,0-4,4.7,5.64,5.64,0,0,0,0,1.3Z" transform="translate(-6)"/><path d="M1380.43,280.58a1.91,1.91,0,0,1-1.6,2.32,1.88,1.88,0,0,1-2.25-1.57,2,2,0,1,1,3.85-.75Zm.78,22.6-3.32-17.09,3.1-.6,3.31,17.09Z" transform="translate(-6)"/><path class="cls-2" d="M198.65,236.29q-12.32-9.27-18.26-17.58t-5.94-16.41a24.87,24.87,0,0,1,2.19-10.71,24.3,24.3,0,0,1,5.65-7.76,23.81,23.81,0,0,1,7.8-4.72,23.7,23.7,0,0,1,17.12,0,24,24,0,0,1,7.8,4.72,24.45,24.45,0,0,1,5.65,7.76,25.06,25.06,0,0,1,2.19,10.8q0,8-5.94,16.32T198.65,236.29Zm.08-27.15a6.89,6.89,0,0,0,5.15-2.2,7.3,7.3,0,0,0,2.11-5.23,7.07,7.07,0,0,0-2.15-5.18,7,7,0,0,0-5.11-2.15,7.21,7.21,0,0,0-5.23,2.15,7,7,0,0,0-2.19,5.18,7.5,7.5,0,0,0,7.42,7.43ZM174.44,250.8v-7.93h48.41v7.93Z" transform="translate(-6)"/><path class="cls-3" d="M394.05,409.57q-9.72,12-18.23,17.61t-16.61,5.36A24.86,24.86,0,0,1,348.59,430,24.12,24.12,0,0,1,341,424a23.67,23.67,0,0,1-4.44-8,23.62,23.62,0,0,1,.61-17.11,23.86,23.86,0,0,1,5-7.63,24.26,24.26,0,0,1,8-5.36A24.93,24.93,0,0,1,361,384.16q8,.29,16.1,6.53T394.05,409.57Zm-27.14-1.06a6.89,6.89,0,0,0-2-5.22,7.29,7.29,0,0,0-5.15-2.3,7.1,7.1,0,0,0-5.26,2,7,7,0,0,0-2.33,5,7.21,7.21,0,0,0,2,5.3,7,7,0,0,0,5.11,2.38,7.5,7.5,0,0,0,7.68-7.15Zm40.76,25.77-7.92-.29,1.74-48.37,7.92.28Z" transform="translate(-6)"/><path class="cls-4" d="M754.77,412.58q-8.6,12.78-16.57,19.17t-16.06,6.82A24.79,24.79,0,0,1,711.33,437a24.45,24.45,0,0,1-8.06-5.22,23.91,23.91,0,0,1-5.13-7.54,23.68,23.68,0,0,1-.92-17.1,23.94,23.94,0,0,1,4.29-8A24.47,24.47,0,0,1,709,393a25.07,25.07,0,0,1,10.66-2.77q8-.44,16.61,5.06T754.77,412.58ZM727.65,414a6.89,6.89,0,0,0-2.46-5,7.32,7.32,0,0,0-5.34-1.82,7.06,7.06,0,0,0-5.06,2.43,6.91,6.91,0,0,0-1.87,5.21,7.19,7.19,0,0,0,2.42,5.1,7,7,0,0,0,5.3,1.91,7.47,7.47,0,0,0,7-7.81Zm42.91,22-7.92.43L760,388.05l7.92-.42Z" transform="translate(-6)"/></g></g></svg>