<svg xmlns="http://www.w3.org/2000/svg" viewBox="0 0 1548.93 531.11"><defs><style>.cls-1{fill:#cfdcfa;}.cls-1,.cls-2,.cls-4{stroke:#000;stroke-miterlimit:10;}.cls-1,.cls-2{stroke-width:4px;}.cls-2{fill:#b5ffaa;}.cls-3{fill:#005000;}.cls-4{fill:#2aff3c;stroke-width:2px;}</style></defs><g id="Layer_2" data-name="Layer 2"><g id="Novo_Mapa" data-name="Novo Mapa"><path class="cls-1" d="M453.58,83.56,72.22,2.48C59.19-.29,46.86,9.2,47.13,21.79L57.74,510.11C58,522.43,70.25,531.4,83,528.59l364-80.13c9.16-2,15.7-9.63,15.88-18.49l6.79-327.12C469.81,93.64,463.11,85.58,453.58,83.56Z" transform="translate(-6.69)"/><path class="cls-1" d="M538.58,95.08,878,126.66a9.27,9.27,0,0,1,8.29,9.65l-4.34,197.6a9.29,9.29,0,0,1-7.22,8.71L535.92,419.56a9.23,9.23,0,0,1-11.16-9.2l3.74-306.13A9.23,9.23,0,0,1,538.58,95.08Z" transform="translate(-6.69)"/><path class="cls-1" d="M936.43,142.72l-3.58,180.14a9.28,9.28,0,0,0,10.8,9.35l307.2-50.89a9.29,9.29,0,0,0,7.77-9.16V163.77a9.29,9.29,0,0,0-8.71-9.28L946.29,133.64A9.28,9.28,0,0,0,936.43,142.72Z" transform="translate(-6.69)"/><path class="cls-2" d="M1288.62,164.25V266.39a7.67,7.67,0,0,0,8.75,7.58l226.5-32.65A34.69,34.69,0,0,0,1553.62,207h0a34.69,34.69,0,0,0-32.27-34.61l-224.53-15.76A7.66,7.66,0,0,0,1288.62,164.25Z" transform="translate(-6.69)"/><path class="cls-3" d="M1357.74,195.54a45.51,45.51,0,0,1,7.4-.51c3.37,0,5.8.66,7.43,2a7,7,0,0,1,2.57,5.61,7.64,7.64,0,0,1-2.22,5.75c-1.87,1.76-4.67,2.57-7.88,2.57a13.86,13.86,0,0,1-1.87-.12v8.68h-5.43Zm5.43,11a8.73,8.73,0,0,0,1.83.14c2.91,0,4.71-1.47,4.71-3.93,0-2.23-1.53-3.56-4.3-3.56a11.12,11.12,0,0,0-2.24.18Z" transform="translate(-6.69)"/><path class="cls-3" d="M1378.13,207.67c0-2.58-.05-4.29-.14-5.81h4.7l.2,3.27h.14a5.16,5.16,0,0,1,4.75-3.66,4.68,4.68,0,0,1,1.17.1v5.15a6.68,6.68,0,0,0-1.48-.15,3.53,3.53,0,0,0-3.75,2.78,6.4,6.4,0,0,0-.1,1.22v8.91h-5.49Z" transform="translate(-6.69)"/><path class="cls-3" d="M1401.44,219.48l-.32-1.75H1401a6.3,6.3,0,0,1-5,2.15,5.37,5.37,0,0,1-5.69-5.39c0-4.59,4.1-6.77,10.33-6.76v-.22c0-.94-.5-2.28-3.22-2.27a10.21,10.21,0,0,0-4.86,1.31l-1-3.5a14.29,14.29,0,0,1,6.85-1.58c5.87,0,7.72,3.46,7.72,7.6v6.15a25.55,25.55,0,0,0,.28,4.26Zm-.66-8.33c-2.88,0-5.11.68-5.11,2.78a2,2,0,0,0,2.17,2.11,3,3,0,0,0,2.84-2,3.54,3.54,0,0,0,.1-.93Z" transform="translate(-6.69)"/><path class="cls-3" d="M1423.65,219a12.87,12.87,0,0,1-4.91.82c-5.69,0-9.32-3.48-9.32-9,0-5.15,3.52-9.36,10.07-9.36a12.41,12.41,0,0,1,4.18.7l-.85,4.07a7.29,7.29,0,0,0-3.07-.56,4.94,4.94,0,0,0,.09,9.88A8.23,8.23,0,0,0,1423,215Zm-3.74.29-1,1.73a2.77,2.77,0,0,1,2.61,2.61c0,2.34-2.08,3.14-4.37,3.14a5.6,5.6,0,0,1-2.9-.71l.72-2a4.38,4.38,0,0,0,2,.59c.63,0,1.28-.24,1.27-.93s-.82-1.16-2.8-1.3l1.55-3.1Z" transform="translate(-6.69)"/><path class="cls-3" d="M1436.83,219.48l-.32-1.75h-.12a6.3,6.3,0,0,1-5,2.15,5.38,5.38,0,0,1-5.7-5.39c0-4.59,4.11-6.77,10.34-6.76v-.22c0-.94-.5-2.28-3.22-2.27a10.17,10.17,0,0,0-4.86,1.31l-1-3.5a14.29,14.29,0,0,1,6.85-1.58c5.86,0,7.72,3.46,7.72,7.6v6.15a25.55,25.55,0,0,0,.28,4.26Zm-.66-8.33c-2.89,0-5.11.68-5.11,2.78a2,2,0,0,0,2.17,2.11,3,3,0,0,0,2.83-2,3.16,3.16,0,0,0,.11-.93Z" transform="translate(-6.69)"/><path d="M481.14,416.83a32.46,32.46,0,0,1-.39-6c.07-3.32.74-5.5,2.14-7a6.09,6.09,0,0,1,4.65-1.8,6.38,6.38,0,0,1,6.08,4.7h.09c.69-1.83,2.46-2.92,5-3.45a41.54,41.54,0,0,0,6.7-1.73l-.07,3.25a31.89,31.89,0,0,1-5.84,1.47c-3.34.65-4.66,1.94-4.81,4.77l-.06,3,10.51.22-.07,3.13Zm11.11-2.9.06-3.2c.07-3.36-1.71-5.52-4.49-5.58-3.15-.06-4.56,2.18-4.64,5.49a14.14,14.14,0,0,0,.21,3.1Z" transform="translate(-6.69)"/><path d="M501,383.44c1.82,0,3.39,0,4.76-.05l0,2.8-2.85.11v.09a6.5,6.5,0,0,1,3.13,5.83c-.06,2.72-1.66,6-7.76,5.83l-10.17-.21.07-3.15,9.61.2c3.32.07,5.6-.92,5.66-3.77a4.61,4.61,0,0,0-2.82-4.25,4.91,4.91,0,0,0-1.62-.32l-10.66-.23.07-3.15Z" transform="translate(-6.69)"/><path d="M506.08,368.61l-2.2.23v.1a6.46,6.46,0,0,1,2.48,5.38,5,5,0,0,1-5.1,5.21c-4.22-.09-6.46-3.87-6.27-10.6h-.37c-1.41,0-4,.31-4.1,3.87a8.53,8.53,0,0,0,1.21,4.57l-2.12.67a10.91,10.91,0,0,1-1.41-5.78c.11-5.32,3.78-6.54,7.26-6.46l6.51.13a27.4,27.4,0,0,0,4.17-.17Zm-8.89.31c-.15,3.42.39,7.36,3.75,7.43a2.79,2.79,0,0,0,3.09-2.9,4.36,4.36,0,0,0-2.82-4.3,3.68,3.68,0,0,0-1-.17Z" transform="translate(-6.69)"/><path d="M496.18,332.5c-3.37.12-7.47.25-10.47.17v.09c2.8.9,5.84,2,9.13,3.25l11.68,4.53,0,2.36-11.63,3.72c-3.45,1.08-6.58,2-9.47,2.58v.08c3,.15,7.05.39,10.69.7l10.4.86-.07,3-24.22-2.2.09-4,11.82-3.88c3-.94,5.68-1.7,8.23-2.28v-.09c-2.44-.69-5.1-1.59-8.12-2.74l-11.65-4.57.09-4,24.28-1-.06,3.08Z" transform="translate(-6.69)"/><path d="M507.22,314.48l-2.21.23v.1a6.43,6.43,0,0,1,2.48,5.38,5,5,0,0,1-5.1,5.21c-4.22-.09-6.45-3.88-6.27-10.6h-.37c-1.41,0-4,.31-4.09,3.87a8.38,8.38,0,0,0,1.2,4.56l-2.12.68a11,11,0,0,1-1.41-5.78c.11-5.32,3.78-6.54,7.27-6.47l6.51.14a27.38,27.38,0,0,0,4.17-.18Zm-8.9.31c-.14,3.42.39,7.35,3.75,7.42a2.79,2.79,0,0,0,3.1-2.89,4.36,4.36,0,0,0-2.83-4.3,3.27,3.27,0,0,0-1-.17Z" transform="translate(-6.69)"/><path d="M495.39,306.54c-2.05-.05-3.8,0-5.42,0l.06-2.78,3.42-.05v-.11a5.29,5.29,0,0,1-3.71-4.93,3.34,3.34,0,0,1,.11-.87l3,.06a5.42,5.42,0,0,0-.11,1.07c0,2.23,1.6,3.84,4,4.33a8.42,8.42,0,0,0,1.48.15l9.29.2-.06,3.15Z" transform="translate(-6.69)"/><path d="M485.38,290.86a1.91,1.91,0,0,1,1.92,2.06,1.89,1.89,0,0,1-2,1.87,1.92,1.92,0,0,1-1.93-2A1.9,1.9,0,0,1,485.38,290.86Zm22.25,4-17.41-.37.07-3.15,17.4.37Z" transform="translate(-6.69)"/><path d="M508,276.8l-2.21.23v.09a6.49,6.49,0,0,1,2.48,5.38,5,5,0,0,1-5.1,5.21c-4.22-.08-6.46-3.87-6.27-10.59h-.37c-1.41,0-4,.32-4.09,3.88a8.4,8.4,0,0,0,1.2,4.56l-2.12.68a11.05,11.05,0,0,1-1.41-5.78c.11-5.32,3.78-6.54,7.26-6.47l6.52.14a27.38,27.38,0,0,0,4.17-.18Zm-8.9.3c-.15,3.43.39,7.36,3.75,7.43a2.8,2.8,0,0,0,3.1-2.89,4.37,4.37,0,0,0-2.83-4.3,3,3,0,0,0-1-.17Z" transform="translate(-6.69)"/><path d="M508.41,257.32,484,264.76l.07-3.41,12-3.51c3.29-1,6.27-1.81,9.11-2.41v-.08c-2.79-.74-5.82-1.8-9-2.95L484.34,248l.07-3.35,24.08,9.18Z" transform="translate(-6.69)"/><path d="M486.46,239.25a2,2,0,1,1-2,1.92A1.91,1.91,0,0,1,486.46,239.25Zm22.25,4-17.41-.37.07-3.15,17.4.37Z" transform="translate(-6.69)"/><path d="M484.1,226.42l5.22-3.34-.05,2.42-3.45,2v.07l3.36,2.16-.05,2.36-5.08-3.5Zm16.69,6.47c4.28,0,6.1-2.65,6.17-5.83a11.7,11.7,0,0,0-.79-4.84l2.26-.5a14.16,14.16,0,0,1,1,5.83c-.12,5.34-3.75,8.49-9,8.38s-9.33-3.31-9.22-8.39c.12-5.68,5.13-7.06,8.33-7a7.33,7.33,0,0,1,1.49.14Zm-2.08-9.31c-2-.07-5.14.71-5.22,4.26-.06,3.23,2.83,4.67,5,5Z" transform="translate(-6.69)"/><path d="M487,212.8a1.91,1.91,0,0,1,1.93,2,1.89,1.89,0,0,1-2,1.87,1.93,1.93,0,0,1-1.93-2A1.9,1.9,0,0,1,487,212.8Zm22.25,4-17.4-.36.06-3.15,17.41.36Z" transform="translate(-6.69)"/><path d="M497.45,208.14c-2.05,0-3.8,0-5.42,0l.06-2.78,3.42,0v-.11a5.29,5.29,0,0,1-3.71-4.93,3.34,3.34,0,0,1,.11-.87l3,.06a5.42,5.42,0,0,0-.11,1.07c0,2.23,1.6,3.84,4,4.32a8.39,8.39,0,0,0,1.48.16l9.29.2-.06,3.15Z" transform="translate(-6.69)"/><path d="M509.88,187.14l-2.2.23v.1a6.48,6.48,0,0,1,2.48,5.38,5,5,0,0,1-5.11,5.21c-4.21-.09-6.45-3.87-6.26-10.6h-.37c-1.41,0-4,.31-4.1,3.87a8.62,8.62,0,0,0,1.2,4.57l-2.12.67a10.91,10.91,0,0,1-1.4-5.78c.11-5.32,3.77-6.54,7.26-6.46l6.51.13a27.4,27.4,0,0,0,4.17-.17Zm-8.89.31c-.15,3.42.38,7.36,3.75,7.43a2.79,2.79,0,0,0,3.09-2.9,4.36,4.36,0,0,0-2.82-4.3,3.74,3.74,0,0,0-1-.17Z" transform="translate(-6.69)"/><path d="M509.78,154.75a15.5,15.5,0,0,1,1,6.44c-.15,6.83-4.58,11.86-12.54,11.7-7.61-.16-12.62-5.4-12.46-12.93a13.11,13.11,0,0,1,1.19-5.74l2.53.83a11.44,11.44,0,0,0-1.1,4.86c-.12,5.69,3.44,9.53,9.81,9.67,5.93.12,9.8-3.22,9.92-9.09a12.73,12.73,0,0,0-.89-5.16Z" transform="translate(-6.69)"/><path d="M502.09,135.39c6.45.14,9.18,4.67,9.09,8.85-.1,4.72-3.62,8.3-9.14,8.18-5.83-.12-9.15-4-9.05-8.83C493.09,138.58,496.79,135.28,502.09,135.39ZM502,149.2c3.81.08,6.73-2,6.8-5.14s-2.73-5.36-6.68-5.44c-2.94-.06-6.69,1.34-6.77,5.1S498.71,149.13,502,149.2Z" transform="translate(-6.69)"/><path d="M507.81,132a8.61,8.61,0,0,0,1.33-4.17c.05-2.32-1.06-3.41-2.52-3.44s-2.34.87-3.25,3.17c-1.21,3.12-2.95,4.57-5,4.52-2.8-.06-5.05-2.39-5-6.13a8.48,8.48,0,0,1,1.16-4.24l2.28.84a6.92,6.92,0,0,0-1.1,3.54c0,1.87,1,2.91,2.33,2.94s2.11-1,3-3.25c1.18-3,2.72-4.5,5.32-4.45,3.09.06,5.2,2.51,5.11,6.62a10,10,0,0,1-1.31,4.86Z" transform="translate(-6.69)"/><path d="M489,113.05l5,.11.1-4.55,2.39,0-.09,4.55,9.38.19c2.17,0,3.4-.55,3.44-2.32a6.21,6.21,0,0,0-.19-1.84l2.41-.09a8,8,0,0,1,.37,2.84,4.39,4.39,0,0,1-1.41,3.38c-1,.86-2.52,1.18-4.56,1.14l-9.51-.2L496.3,119l-2.4,0,.06-2.69-4.2-.09Z" transform="translate(-6.69)"/><path d="M511.8,95.76l-2.21.23v.1a6.45,6.45,0,0,1,2.48,5.37,5,5,0,0,1-5.1,5.22c-4.22-.09-6.45-3.88-6.27-10.6h-.37c-1.41,0-4,.32-4.09,3.88a8.4,8.4,0,0,0,1.2,4.56l-2.12.68a11,11,0,0,1-1.41-5.78c.11-5.32,3.78-6.54,7.26-6.47l6.52.14a27.38,27.38,0,0,0,4.17-.18Zm-8.9.3c-.15,3.43.39,7.36,3.75,7.43a2.79,2.79,0,0,0,3.1-2.89,4.37,4.37,0,0,0-2.83-4.3,3,3,0,0,0-1-.17Z" transform="translate(-6.69)"/><path class="cls-4" d="M900.35,227.93q-9.54,12.12-18,17.88t-16.53,5.61A24.83,24.83,0,0,1,855.2,249a24.29,24.29,0,0,1-7.64-5.81,24,24,0,0,1-4.56-7.9,23.7,23.7,0,0,1,.36-17.12A23.74,23.74,0,0,1,856.12,205,24.91,24.91,0,0,1,867,203q8,.16,16.19,6.29T900.35,227.93Zm-27.15-.65a6.86,6.86,0,0,0-2.08-5.19,7.28,7.28,0,0,0-5.19-2.22,7.1,7.1,0,0,0-5.23,2,7,7,0,0,0-2.25,5.06,7.15,7.15,0,0,0,2,5.27,7,7,0,0,0,5.14,2.3,7.48,7.48,0,0,0,7.57-7.26Zm41.14,25.15-7.92-.17,1-48.39,7.93.16Z" transform="translate(-6.69)"/><path d="M579.05,58.9a33.11,33.11,0,0,1,6,0c3.32.31,5.44,1.14,6.82,2.64a6.11,6.11,0,0,1,1.47,4.76,6.42,6.42,0,0,1-5.13,5.74v.08c1.78.82,2.74,2.67,3.09,5.23a40.93,40.93,0,0,0,1.24,6.8l-3.24-.3A32.76,32.76,0,0,1,588.28,78c-.4-3.38-1.59-4.78-4.41-5.14l-3-.28-1,10.47-3.11-.29Zm2.09,11.28,3.19.3c3.34.31,5.62-1.31,5.88-4.08.29-3.14-1.84-4.71-5.13-5a13.56,13.56,0,0,0-3.12,0Z" transform="translate(-6.69)"/><path d="M610.92,81.11c-.17,1.82-.26,3.38-.3,4.76l-2.79-.26.1-2.85h-.09a6.49,6.49,0,0,1-6,2.7c-2.72-.26-5.83-2.08-5.27-8.16l1-10.13,3.13.3L599.73,77c-.31,3.3.51,5.65,3.36,5.91a4.61,4.61,0,0,0,4.44-2.5,5.13,5.13,0,0,0,.44-1.59l1-10.62,3.13.29Z" transform="translate(-6.69)"/><path d="M625.34,87.24,625.27,85h-.09a6.51,6.51,0,0,1-5.55,2.09,5,5,0,0,1-4.83-5.47c.39-4.2,4.33-6.16,11-5.48l0-.37c.14-1.41,0-4.06-3.57-4.37a8.49,8.49,0,0,0-4.64.87l-.52-2.16a11,11,0,0,1,5.87-1c5.3.5,6.25,4.24,5.93,7.71l-.61,6.49a26.09,26.09,0,0,0-.12,4.17Zm.34-8.89c-3.41-.39-7.37-.14-7.68,3.21a2.79,2.79,0,0,0,2.66,3.29,4.37,4.37,0,0,0,4.5-2.51,3.42,3.42,0,0,0,.24-1Z" transform="translate(-6.69)"/><path d="M645.33,81.45l-3.2,7.36-3.24-.3,10.47-23.4,3.75.35,6,24.93-3.34-.31-1.88-7.83Zm8.16-1.7-1.74-7.18c-.38-1.63-.61-3.1-.84-4.52h-.08c-.48,1.38-1,2.82-1.61,4.26l-3,6.77Z" transform="translate(-6.69)"/><path d="M663.62,78.05c.17-1.81.24-3.25.29-4.7l2.79.26-.1,2.87h.09a6.43,6.43,0,0,1,6-2.71c2.38.22,6,2,5.42,8l-1,10.34-3.13-.29.93-10c.26-2.8-.58-5.25-3.53-5.52a4.54,4.54,0,0,0-4.55,2.83,5.32,5.32,0,0,0-.35,1.45l-1,10.44-3.14-.29Z" transform="translate(-6.69)"/><path d="M688.05,70.57l-.46,5,4.53.42-.23,2.39L687.36,78l-.87,9.34c-.2,2.16.31,3.44,2.07,3.6a6.12,6.12,0,0,0,1.85-.06l-.08,2.41a7.78,7.78,0,0,1-2.85.17,4.4,4.4,0,0,1-3.28-1.65c-.78-1-1-2.6-.8-4.63l.88-9.47-2.69-.25.23-2.39,2.68.25.39-4.17Z" transform="translate(-6.69)"/><path d="M710.35,86.26c-.6,6.41-5.31,8.81-9.48,8.42-4.7-.44-8-4.2-7.5-9.71.54-5.8,4.67-8.83,9.47-8.39C707.82,77.05,710.84,81,710.35,86.26Zm-13.76-1.08c-.36,3.8,1.56,6.86,4.63,7.15s5.55-2.33,5.91-6.27c.28-2.93-.86-6.77-4.6-7.12S696.9,81.89,696.59,85.18Zm7.83-15.64,3,5.46L705,74.77l-1.76-3.58h-.08l-2.39,3.2-2.35-.22,3.85-4.82Z" transform="translate(-6.69)"/><path d="M714.7,82.81c.16-1.81.24-3.25.29-4.7l2.79.26-.1,2.87h.09a6.41,6.41,0,0,1,6-2.71c2.39.22,6,2,5.42,7.95l-1,10.34-3.14-.29.94-10c.26-2.8-.58-5.25-3.53-5.52A4.54,4.54,0,0,0,718,83.86a5,5,0,0,0-.35,1.45l-1,10.44-3.13-.29Z" transform="translate(-6.69)"/><path d="M733.41,97.31,735,80l3.13.29-1.61,17.34Zm5.6-21.9a1.91,1.91,0,0,1-2.19,1.77A1.89,1.89,0,0,1,735.1,75a1.92,1.92,0,0,1,2.14-1.77A1.9,1.9,0,0,1,739,75.41Z" transform="translate(-6.69)"/><path d="M758.31,90.72c-.6,6.42-5.31,8.82-9.48,8.43-4.7-.44-8-4.2-7.5-9.71.54-5.8,4.67-8.83,9.46-8.39C755.78,81.52,758.8,85.44,758.31,90.72Zm-13.76-1.08c-.36,3.81,1.55,6.87,4.63,7.16s5.55-2.33,5.91-6.27c.28-2.93-.86-6.77-4.6-7.12S744.85,86.36,744.55,89.64Z" transform="translate(-6.69)"/><path d="M771.42,76.49l3.13.29-2,21.52,10.33,1-.25,2.63-13.46-1.25Z" transform="translate(-6.69)"/><path d="M802,94.8c-.59,6.42-5.31,8.81-9.47,8.42-4.71-.44-8-4.2-7.5-9.71.54-5.8,4.67-8.83,9.46-8.39C799.47,85.59,802.5,89.52,802,94.8Zm-13.76-1.08c-.35,3.8,1.56,6.86,4.64,7.15s5.54-2.33,5.91-6.27c.27-2.93-.86-6.77-4.61-7.12S788.55,90.43,788.24,93.72Z" transform="translate(-6.69)"/><path d="M820.11,100.61c-.17,1.82-.26,3.38-.3,4.75L817,105.1l.1-2.84H817a6.5,6.5,0,0,1-6,2.69c-2.71-.25-5.82-2.08-5.26-8.15l.94-10.13,3.14.29-.89,9.58c-.31,3.3.51,5.64,3.36,5.91a4.63,4.63,0,0,0,4.44-2.51,4.87,4.87,0,0,0,.43-1.59l1-10.61,3.14.29Z" transform="translate(-6.69)"/><path d="M826,93.91c.19-2,.3-3.8.36-5.42l2.76.26-.2,3.41h.12a5.27,5.27,0,0,1,5.18-3.34,3.64,3.64,0,0,1,.86.17l-.27,3a5.59,5.59,0,0,0-1.07-.19c-2.22-.2-3.94,1.32-4.59,3.64a9,9,0,0,0-.27,1.46l-.86,9.26-3.13-.29Z" transform="translate(-6.69)"/><path d="M838.8,99c-.33,4.26,2.21,6.27,5.37,6.57a11.82,11.82,0,0,0,4.89-.44l.34,2.29a14,14,0,0,1-5.88.56c-5.33-.49-8.2-4.34-7.72-9.54s4-9.07,9-8.6c5.65.53,6.67,5.63,6.37,8.82a7.94,7.94,0,0,1-.24,1.47Zm9.44-1.41c.22-2-.34-5.18-3.87-5.51-3.22-.3-4.86,2.48-5.32,4.65Z" transform="translate(-6.69)"/><path d="M855.42,95.92c.17-1.81.24-3.25.29-4.69l2.79.26-.09,2.86h.09a6.41,6.41,0,0,1,6-2.71c2.38.22,6,2,5.42,8L869,110l-3.14-.3.93-10c.26-2.8-.58-5.25-3.53-5.52A4.54,4.54,0,0,0,858.71,97a4.82,4.82,0,0,0-.36,1.44l-1,10.45-3.14-.3Z" transform="translate(-6.69)"/><path d="M886.55,111a11.9,11.9,0,0,1-5.06.54c-5.23-.49-8.32-4.36-7.83-9.66s4.51-8.9,10.18-8.37a10.17,10.17,0,0,1,4.29,1.33l-.92,2.35A7.78,7.78,0,0,0,883.6,96c-4-.37-6.4,2.39-6.73,6-.37,4,2,6.73,5.43,7.05a9.34,9.34,0,0,0,3.94-.47Zm-4.3.15-1.35,1.77a2.66,2.66,0,0,1,2.28,2.71c-.2,2.11-2,2.74-4,2.55a5,5,0,0,1-2.37-.85l.68-1.48a3.93,3.93,0,0,0,1.89.7c.79.08,1.58-.14,1.64-1s-1-1.46-2.66-1.76l2-2.83Z" transform="translate(-6.69)"/><path d="M906.49,104.53c-.6,6.42-5.31,8.81-9.48,8.43-4.7-.44-8-4.21-7.5-9.71.54-5.8,4.67-8.84,9.47-8.39C904,95.33,907,99.25,906.49,104.53Zm-13.76-1.08c-.35,3.81,1.56,6.87,4.63,7.16s5.55-2.34,5.91-6.27c.28-2.93-.85-6.78-4.6-7.13S893,100.17,892.73,103.45Z" transform="translate(-6.69)"/><path d="M934.59,90.39l-2,21c-.14,1.54-.24,3.28-.27,4.48l-2.8-.26.12-3h-.09a6.37,6.37,0,0,1-6.19,2.85c-4.2-.4-7.11-4.25-6.62-9.5.51-5.8,4.43-9,8.65-8.59a5.8,5.8,0,0,1,5,3.11h.07l1-10.35ZM930,105.27a6.19,6.19,0,0,0,0-1.36,4.68,4.68,0,0,0-4.22-4.06c-3.27-.3-5.48,2.38-5.84,6.19-.33,3.52,1.15,6.61,4.55,6.92a4.78,4.78,0,0,0,5-3.35,5.05,5.05,0,0,0,.28-1.34Z" transform="translate(-6.69)"/><path d="M954,109c-.6,6.42-5.32,8.81-9.48,8.42-4.71-.44-8-4.2-7.5-9.7.54-5.8,4.66-8.84,9.46-8.39C951.45,99.75,954.48,103.68,954,109Zm-13.77-1.08c-.35,3.8,1.56,6.87,4.64,7.15s5.54-2.33,5.91-6.26c.27-2.94-.86-6.78-4.61-7.13S940.53,104.59,940.22,107.88Z" transform="translate(-6.69)"/><path d="M957,114.91a8.74,8.74,0,0,0,4.07,1.63c2.3.21,3.47-.82,3.61-2.27s-.71-2.4-2.93-3.47c-3-1.43-4.35-3.27-4.15-5.35.26-2.79,2.75-4.87,6.47-4.52a8.36,8.36,0,0,1,4.15,1.46l-1,2.22a6.84,6.84,0,0,0-3.46-1.35c-1.86-.18-3,.8-3.09,2.11s.82,2.17,3,3.26c2.89,1.39,4.3,3,4.07,5.63-.29,3.07-2.88,5-7,4.62a10,10,0,0,1-4.76-1.66Z" transform="translate(-6.69)"/><path d="M979,116.36a10.83,10.83,0,0,0,5.43,2.09c3.19.29,5.22-1.2,5.45-3.64.2-2.24-1-3.68-4.13-5.21-3.81-1.76-6.06-4.07-5.75-7.45.35-3.76,3.74-6.26,8.44-5.82A11,11,0,0,1,993.65,98l-1.11,2.47a9.1,9.1,0,0,0-4.45-1.57c-3.32-.31-4.75,1.54-4.91,3.19-.21,2.24,1.16,3.48,4.37,5.08,4,2,5.83,4.15,5.5,7.69-.34,3.71-3.38,6.71-9.1,6.18a12.51,12.51,0,0,1-6-2.15Z" transform="translate(-6.69)"/><path d="M1006.33,122.75l-.07-2.22h-.09a6.48,6.48,0,0,1-5.55,2.09,5,5,0,0,1-4.83-5.47c.39-4.19,4.33-6.15,11-5.48l0-.37c.14-1.41,0-4.05-3.57-4.37a8.49,8.49,0,0,0-4.64.88l-.52-2.17a11,11,0,0,1,5.87-1c5.29.49,6.25,4.23,5.93,7.7l-.61,6.49a26.09,26.09,0,0,0-.12,4.17Zm.34-8.9c-3.41-.39-7.37-.14-7.68,3.21a2.78,2.78,0,0,0,2.66,3.29,4.37,4.37,0,0,0,4.5-2.51,3.27,3.27,0,0,0,.24-1Z" transform="translate(-6.69)"/><path d="M1015.18,110.81c.17-1.81.24-3.25.29-4.7l2.79.26-.09,2.87h.08a6.43,6.43,0,0,1,6-2.71c2.38.22,6,2,5.42,7.95l-1,10.34-3.13-.29.93-10c.26-2.8-.58-5.25-3.53-5.52a4.54,4.54,0,0,0-4.55,2.84,5.15,5.15,0,0,0-.35,1.44l-1,10.44-3.14-.29Z" transform="translate(-6.69)"/><path d="M1039.61,103.33l-.46,5,4.53.42-.22,2.39-4.53-.42-.87,9.34c-.21,2.16.3,3.44,2.06,3.6a6.12,6.12,0,0,0,1.85-.06l-.08,2.41a7.78,7.78,0,0,1-2.85.17,4.4,4.4,0,0,1-3.28-1.65c-.78-1-1-2.6-.8-4.63l.88-9.47-2.69-.25.23-2.39,2.68.25.39-4.17Z" transform="translate(-6.69)"/><path d="M1061.91,119c-.6,6.41-5.31,8.81-9.48,8.42-4.7-.44-8-4.2-7.5-9.71.54-5.8,4.67-8.83,9.47-8.39C1059.38,109.81,1062.4,113.74,1061.91,119Zm-13.76-1.08c-.36,3.8,1.56,6.86,4.63,7.15s5.55-2.33,5.91-6.27c.28-2.93-.85-6.77-4.6-7.12S1048.46,114.65,1048.15,117.94Z" transform="translate(-6.69)"/><path d="M1064.93,125a8.59,8.59,0,0,0,4.06,1.62c2.31.22,3.48-.81,3.61-2.26s-.7-2.4-2.92-3.48c-3-1.42-4.35-3.27-4.15-5.34.26-2.79,2.74-4.87,6.47-4.53a8.42,8.42,0,0,1,4.14,1.47l-1,2.22a6.75,6.75,0,0,0-3.46-1.36c-1.86-.17-3,.81-3.1,2.11s.83,2.17,3,3.27c2.88,1.39,4.3,3,4.06,5.63-.28,3.07-2.87,5-7,4.62a10,10,0,0,1-4.75-1.66Z" transform="translate(-6.69)"/><path d="M30.59,478.55l7.67,2.37.06,3.25-24.4-7.82-.07-3.76L38,463.87l.06,3.35L30.44,470ZM28,470.63l-6.94,2.53c-1.57.55-3,.94-4.4,1.32v.09c1.43.32,2.92.67,4.41,1.12L28.13,478Z" transform="translate(-6.69)"/><path d="M20.48,460.26l9.7-3.58c1.6-.62,3-1.1,4.47-1.51v-.09c-1.46-.38-2.91-.85-4.52-1.38l-9.82-3.23-.06-3.31,17.52,6.54.06,3-17.29,6.93Z" transform="translate(-6.69)"/><path d="M35.78,446.05a2.13,2.13,0,0,1-2.32-2.11,2.1,2.1,0,0,1,2.24-2.16,2.14,2.14,0,1,1,.08,4.27Z" transform="translate(-6.69)"/><path d="M14.87,426.78l5-.09-.08-4.55,2.4,0,.08,4.55,9.38-.17c2.17,0,3.38-.68,3.35-2.45a6.33,6.33,0,0,0-.26-1.83l2.4-.19a8.09,8.09,0,0,1,.49,2.82,4.43,4.43,0,0,1-1.28,3.44c-1,.89-2.48,1.27-4.52,1.31l-9.51.17.05,2.7-2.39,0,0-2.7-4.2.08Z" transform="translate(-6.69)"/><path d="M37,408.62l-2.19.32V409a6.51,6.51,0,0,1,2.69,5.28,5,5,0,0,1-4.9,5.4c-4.22.08-6.6-3.62-6.67-10.34h-.37c-1.42,0-4,.47-4,4A8.43,8.43,0,0,0,23,417.92l-2.09.76A10.93,10.93,0,0,1,19.24,413c-.09-5.32,3.52-6.68,7-6.74l6.51-.12a27.24,27.24,0,0,0,4.16-.34Zm-8.88.65c0,3.43.67,7.34,4,7.28a2.79,2.79,0,0,0,3-3,4.34,4.34,0,0,0-3-4.19,3.3,3.3,0,0,0-1-.14Z" transform="translate(-6.69)"/><path d="M24.13,401.14c-1.82,0-3.26.12-4.7.23l-.05-2.79,2.86-.23v-.09a6.41,6.41,0,0,1-3.36-5.7c-.05-2.39,1.32-6.15,7.3-6.26l10.39-.19,0,3.15-10,.18c-2.82.05-5.15,1.15-5.1,4.12a4.54,4.54,0,0,0,3.32,4.2,4.78,4.78,0,0,0,1.48.2l10.49-.19,0,3.15Z" transform="translate(-6.69)"/><path d="M35.62,368.54a12.06,12.06,0,0,1,1.1,5c.09,5.25-3.42,8.75-8.74,8.84s-9.34-3.49-9.44-9.18a10.12,10.12,0,0,1,.84-4.42l2.45.66a7.6,7.6,0,0,0-.77,3.72c.07,4,3.08,6.09,6.7,6,4-.07,6.46-2.71,6.4-6.18a9.26,9.26,0,0,0-.9-3.86Z" transform="translate(-6.69)"/><path d="M24.2,365c-2.05,0-3.8.12-5.42.24l-.05-2.78,3.42-.18v-.11a5.29,5.29,0,0,1-3.89-4.78,3.53,3.53,0,0,1,.07-.88l3-.05a5,5,0,0,0-.07,1.07c0,2.23,1.75,3.78,4.12,4.17a8.76,8.76,0,0,0,1.48.1l9.3-.17.06,3.15Z" transform="translate(-6.69)"/><path d="M27.82,351.78c4.28-.14,6-2.89,5.94-6.06a12,12,0,0,0-1-4.81l2.24-.59a14.1,14.1,0,0,1,1.21,5.78c.1,5.35-3.41,8.63-8.63,8.72s-9.45-2.93-9.54-8c-.1-5.68,4.85-7.25,8.06-7.31a8.2,8.2,0,0,1,1.48.08Zm-2.44-9.22c-2,0-5.11.9-5.05,4.45.06,3.24,3,4.56,5.21,4.77Z" transform="translate(-6.69)"/><path d="M9.84,320.81l21.06-.38c1.55,0,3.29-.12,4.49-.22l0,2.81-3,.22v.08a6.35,6.35,0,0,1,3.51,5.84c.08,4.22-3.43,7.54-8.7,7.63-5.82.13-9.42-3.41-9.5-7.65a5.83,5.83,0,0,1,2.55-5.3v-.07L9.9,324Zm15.28,2.87a7,7,0,0,0-1.35.16,4.69,4.69,0,0,0-3.56,4.65c.06,3.28,3,5.19,6.8,5.12,3.53-.07,6.43-1.88,6.37-5.29a4.77,4.77,0,0,0-3.88-4.56,5.33,5.33,0,0,0-1.36-.13Z" transform="translate(-6.69)"/><path d="M26.15,299.48c6.44-.12,9.34,4.3,9.42,8.49.08,4.72-3.3,8.42-8.82,8.52-5.83.11-9.3-3.66-9.39-8.48C17.27,303,20.84,299.57,26.15,299.48Zm.44,13.79c3.82-.06,6.66-2.3,6.6-5.39s-2.93-5.25-6.88-5.18c-2.94.05-6.64,1.6-6.57,5.36S23.29,313.33,26.59,313.27Z" transform="translate(-6.69)"/><path d="M9,273.12l21.06-.38c1.55,0,3.29-.12,4.49-.23l.05,2.82-3,.21v.09a6.37,6.37,0,0,1,3.51,5.84c.08,4.22-3.43,7.54-8.71,7.63-5.82.13-9.41-3.42-9.49-7.65a5.79,5.79,0,0,1,2.55-5.3v-.07L9,276.26ZM24.27,276a6.91,6.91,0,0,0-1.35.16,4.68,4.68,0,0,0-3.56,4.65c.06,3.28,3,5.18,6.79,5.11,3.54-.06,6.44-1.87,6.38-5.28a4.78,4.78,0,0,0-3.88-4.56,5,5,0,0,0-1.36-.13Z" transform="translate(-6.69)"/><path d="M26.28,265.76c4.28-.14,6-2.89,5.94-6.07a11.62,11.62,0,0,0-1-4.8l2.24-.6a14.16,14.16,0,0,1,1.21,5.79c.1,5.35-3.41,8.63-8.63,8.72s-9.45-2.94-9.54-8c-.1-5.68,4.85-7.25,8.06-7.31a7.36,7.36,0,0,1,1.48.08Zm-2.44-9.23c-2,0-5.11.91-5.05,4.46.06,3.23,3,4.55,5.21,4.77Z" transform="translate(-6.69)"/><path d="M33.81,232.07l-2.19.32v.09a6.46,6.46,0,0,1,2.69,5.28,5,5,0,0,1-4.9,5.4c-4.21.08-6.6-3.61-6.67-10.34h-.37c-1.41,0-4,.47-3.94,4a8.43,8.43,0,0,0,1.38,4.51l-2.1.76a11,11,0,0,1-1.63-5.72c-.09-5.32,3.52-6.68,7-6.74l6.51-.12a27.13,27.13,0,0,0,4.16-.34Zm-8.88.65c0,3.42.68,7.34,4,7.28a2.79,2.79,0,0,0,3-3,4.35,4.35,0,0,0-3-4.19,3.3,3.3,0,0,0-1-.14Z" transform="translate(-6.69)"/><path d="M8.12,224.83l0-3.15,25.55-.46.06,3.15Z" transform="translate(-6.69)"/><path d="M20.82,216.1c-1.82,0-3.26.12-4.7.23l-.05-2.75,2.8-.22v-.09a6,6,0,0,1-3.3-5.43,5.13,5.13,0,0,1,3.41-5v-.07a7.11,7.11,0,0,1-2.3-1.93,5.92,5.92,0,0,1-1.29-3.8c0-2.33,1.4-5.78,7.45-5.89L33.08,191l.05,3.09-9.84.18c-3.37.06-5.35,1.34-5.3,3.87a4.13,4.13,0,0,0,2.92,3.71,5,5,0,0,0,1.59.24l10.77-.2.06,3.09-10.45.19c-2.77.05-4.74,1.31-4.7,3.7a4.4,4.4,0,0,0,3.23,3.89A5,5,0,0,0,23,213l10.49-.19.05,3.09Z" transform="translate(-6.69)"/><path d="M24.82,184.23c4.28-.14,6-2.89,5.94-6.07a11.62,11.62,0,0,0-1-4.8l2.24-.6a13.87,13.87,0,0,1,1.21,5.79c.1,5.35-3.41,8.63-8.63,8.72s-9.45-2.94-9.54-8c-.1-5.68,4.86-7.25,8.06-7.31a8.39,8.39,0,0,1,1.49.08ZM22.38,175c-2,0-5.11.9-5,4.45.05,3.23,3,4.56,5.21,4.77Z" transform="translate(-6.69)"/><path d="M10.28,164.68a1.91,1.91,0,0,1,2,2,1.89,1.89,0,0,1-1.93,2,1.92,1.92,0,0,1-2-1.93A1.9,1.9,0,0,1,10.28,164.68Zm22.39,3.14-17.41.31L15.2,165l17.41-.31Z" transform="translate(-6.69)"/><path d="M6.69,144.84l21.07-.38c1.54,0,3.28-.12,4.48-.23l0,2.82-3,.21v.09a6.37,6.37,0,0,1,3.51,5.84c.07,4.22-3.43,7.53-8.71,7.63-5.82.13-9.42-3.42-9.49-7.65a5.8,5.8,0,0,1,2.54-5.3v-.07L6.75,148ZM22,147.71a6.22,6.22,0,0,0-1.35.16,4.67,4.67,0,0,0-3.56,4.65c.06,3.27,3,5.18,6.79,5.11,3.54-.06,6.44-1.87,6.38-5.29a4.77,4.77,0,0,0-3.88-4.55,5,5,0,0,0-1.36-.13Z" transform="translate(-6.69)"/><path d="M32,129.45l-2.19.32v.09a6.51,6.51,0,0,1,2.69,5.28,5,5,0,0,1-4.9,5.41c-4.22.07-6.6-3.62-6.67-10.35h-.37c-1.42,0-4,.47-3.95,4A8.49,8.49,0,0,0,18,138.76l-2.09.75a10.9,10.9,0,0,1-1.63-5.72c-.09-5.32,3.52-6.68,7-6.74l6.51-.12a27.24,27.24,0,0,0,4.16-.34Zm-8.88.65c0,3.43.67,7.34,4,7.28a2.79,2.79,0,0,0,3-3,4.36,4.36,0,0,0-3-4.19,3,3,0,0,0-1-.13Z" transform="translate(-6.69)"/><path d="M31.7,114l-24.25.43L7.39,111l12.12-8a68.06,68.06,0,0,1,7.82-4.47l0-.08c-3.24.34-6.19.45-9.95.52l-10.17.18,0-3,24.26-.43L31.43,99l-12.15,7.93a79.46,79.46,0,0,1-8,4.66l0,.1c3.08-.24,6-.33,10-.41l10.37-.18Z" transform="translate(-6.69)"/><path d="M23.12,88.88c4.28-.14,6-2.88,5.94-6.06a11.8,11.8,0,0,0-1-4.81l2.24-.59a14.14,14.14,0,0,1,1.21,5.78c.1,5.35-3.41,8.63-8.63,8.73s-9.45-2.94-9.54-8c-.1-5.67,4.85-7.25,8.06-7.31a7.21,7.21,0,0,1,1.48.09Zm-2.44-9.22c-2,0-5.11.91-5,4.46.06,3.23,3,4.55,5.21,4.76Z" transform="translate(-6.69)"/><path d="M13.53,71.57,23.23,68c1.6-.61,3-1.09,4.47-1.51v-.09c-1.45-.37-2.91-.85-4.52-1.38l-9.82-3.23-.06-3.31L30.83,65l.05,3L13.59,75Z" transform="translate(-6.69)"/><path d="M22.5,53.9c4.27-.14,6-2.89,5.93-6.07a11.62,11.62,0,0,0-1-4.8l2.24-.6a14,14,0,0,1,1.22,5.79c.09,5.35-3.42,8.63-8.64,8.72s-9.45-2.94-9.54-8c-.1-5.68,4.86-7.25,8.06-7.31a8.39,8.39,0,0,1,1.49.08Zm-2.45-9.23c-2,0-5.11.91-5,4.46.05,3.23,3,4.55,5.21,4.77Z" transform="translate(-6.69)"/><path d="M27.12,38a8.75,8.75,0,0,0,1.17-4.22c-.05-2.31-1.2-3.36-2.66-3.34s-2.3,1-3.13,3.29c-1.08,3.17-2.76,4.69-4.85,4.72-2.8,0-5.14-2.19-5.21-5.93a8.52,8.52,0,0,1,1-4.29l2.32.75a6.82,6.82,0,0,0-1,3.59c0,1.87,1.13,2.86,2.44,2.84s2.06-1.06,2.91-3.36c1.06-3,2.55-4.6,5.15-4.66,3.08-.05,5.28,2.3,5.36,6.42a10,10,0,0,1-1.13,4.91Z" transform="translate(-6.69)"/><path d="M660.19,403.23a33.11,33.11,0,0,1,5.77-1.82c3.25-.73,5.52-.59,7.3.41a6.12,6.12,0,0,1,2.86,4.09,6.41,6.41,0,0,1-3.12,7l0,.09c2,.23,3.42,1.69,4.54,4a42.09,42.09,0,0,0,3.27,6.09l-3.17.71a33.21,33.21,0,0,1-2.82-5.33c-1.42-3.08-3-4-5.78-3.53l-2.89.65,2.29,10.26-3.06.68Zm5.46,10.09,3.13-.69c3.27-.73,5-3,4.34-5.69-.69-3.08-3.2-3.92-6.43-3.2a13.8,13.8,0,0,0-3,.94Z" transform="translate(-6.69)"/><path d="M697.35,414.57c.4,1.78.8,3.29,1.18,4.62l-2.73.61-.79-2.74-.08,0a6.5,6.5,0,0,1-4.92,4.41c-2.66.6-6.18-.18-7.51-6.13l-2.22-9.93,3.08-.69,2.09,9.39c.72,3.23,2.22,5.21,5,4.59a4.62,4.62,0,0,0,3.46-3.75,4.7,4.7,0,0,0-.08-1.65l-2.32-10.4,3.08-.69Z" transform="translate(-6.69)"/><path d="M713,416l-.75-2.09-.09,0a6.49,6.49,0,0,1-4.64,3.7,5,5,0,0,1-6.27-3.72c-.92-4.12,2.22-7.19,8.8-8.61l-.09-.36c-.3-1.38-1.26-3.85-4.74-3.06a8.52,8.52,0,0,0-4.14,2.26l-1.16-1.9a11,11,0,0,1,5.27-2.74c5.2-1.16,7.26,2.11,8,5.51l1.41,6.36a28.37,28.37,0,0,0,1.17,4Zm-2.42-8.57c-3.35.67-7,2.13-6.32,5.41a2.79,2.79,0,0,0,3.55,2.32,4.34,4.34,0,0,0,3.5-3.77,3,3,0,0,0-.07-1Z" transform="translate(-6.69)"/><path d="M745.67,397.75c-.91-3.25-2-7.2-2.65-10.13l-.1,0c-.2,2.93-.52,6.14-1,9.65l-1.62,12.42-2.31.51-6.37-10.41c-1.88-3.1-3.48-5.93-4.77-8.59l-.08,0c.58,3,1.3,6.95,1.87,10.55l1.64,10.31-2.91.65-3.64-24.05,3.91-.87,6.59,10.56c1.62,2.68,3,5.11,4.17,7.44l.09,0c.09-2.53.33-5.33.72-8.53l1.67-12.41,3.91-.87,6.75,23.35-3,.67Z" transform="translate(-6.69)"/><path d="M765.8,404.18l-.75-2.09-.09,0a6.48,6.48,0,0,1-4.63,3.69,5,5,0,0,1-6.28-3.71c-.92-4.12,2.22-7.19,8.8-8.61l-.08-.36c-.31-1.38-1.27-3.85-4.75-3.06a8.4,8.4,0,0,0-4.14,2.26l-1.16-1.9a10.82,10.82,0,0,1,5.28-2.74c5.19-1.16,7.25,2.1,8,5.51l1.42,6.36a26.65,26.65,0,0,0,1.16,4Zm-2.41-8.57c-3.36.67-7.06,2.13-6.32,5.41a2.79,2.79,0,0,0,3.54,2.32,4.37,4.37,0,0,0,3.51-3.77,3.68,3.68,0,0,0-.07-1Z" transform="translate(-6.69)"/><path d="M772.18,399.45a8.69,8.69,0,0,0,4.36.3c2.26-.51,3.06-1.85,2.74-3.27s-1.4-2.06-3.85-2.41c-3.32-.42-5.14-1.77-5.59-3.81-.61-2.73,1.11-5.48,4.77-6.29a8.32,8.32,0,0,1,4.39.12l-.27,2.41a6.9,6.9,0,0,0-3.7-.22c-1.83.41-2.58,1.68-2.3,3s1.45,1.81,3.87,2.18c3.18.44,5,1.57,5.6,4.11.67,3-1.2,5.64-5.21,6.54a10.05,10.05,0,0,1-5-.12Z" transform="translate(-6.69)"/><path d="M796.65,397.29l-.75-2.08-.09,0a6.48,6.48,0,0,1-4.63,3.69,5,5,0,0,1-6.28-3.72c-.92-4.11,2.22-7.19,8.8-8.61l-.08-.36c-.31-1.38-1.27-3.85-4.75-3.05a8.42,8.42,0,0,0-4.14,2.25l-1.16-1.9a11,11,0,0,1,5.27-2.74c5.2-1.16,7.26,2.11,8,5.51l1.42,6.36a27.14,27.14,0,0,0,1.16,4Zm-2.41-8.57c-3.36.68-7.06,2.13-6.32,5.42a2.78,2.78,0,0,0,3.54,2.31,4.37,4.37,0,0,0,3.51-3.77,3.58,3.58,0,0,0-.07-1Z" transform="translate(-6.69)"/><path d="M802.85,372.94l1.09,4.89,4.44-1,.53,2.34-4.44,1,2,9.15c.47,2.12,1.35,3.18,3.08,2.8a6.21,6.21,0,0,0,1.74-.63l.66,2.32a8.12,8.12,0,0,1-2.66,1,4.44,4.44,0,0,1-3.63-.56c-1.06-.75-1.74-2.17-2.19-4.17l-2.07-9.28-2.63.59-.52-2.34,2.63-.59-.92-4.09Z" transform="translate(-6.69)"/><path d="M828.89,381c1.41,6.29-2.34,10-6.43,10.93-4.61,1-8.91-1.54-10.12-6.93-1.27-5.69,1.73-9.85,6.43-10.9C823.65,373,827.74,375.83,828.89,381Zm-13.43,3.2c.84,3.73,3.6,6.06,6.61,5.38s4.56-3.92,3.7-7.78c-.64-2.87-2.9-6.18-6.57-5.36S814.75,381,815.46,384.21Z" transform="translate(-6.69)"/><path d="M841.05,383.47a11,11,0,0,0,5.8.32c3.13-.7,4.61-2.75,4.07-5.14-.49-2.2-2.06-3.21-5.52-3.69-4.17-.51-7-2-7.76-5.32-.83-3.69,1.63-7.1,6.24-8.13a11.19,11.19,0,0,1,5.48,0l-.3,2.7a9.25,9.25,0,0,0-4.72-.13c-3.25.73-4.05,2.93-3.69,4.55.49,2.2,2.17,3,5.72,3.49,4.37.68,6.82,2.16,7.6,5.63.81,3.63-1.15,7.42-6.76,8.67a12.37,12.37,0,0,1-6.4-.19Z" transform="translate(-6.69)"/><path d="M869,381.14l-.75-2.09-.09,0a6.46,6.46,0,0,1-4.64,3.69,5,5,0,0,1-6.27-3.71c-.92-4.12,2.22-7.19,8.8-8.61l-.08-.36c-.31-1.38-1.27-3.85-4.75-3.06a8.52,8.52,0,0,0-4.14,2.26l-1.16-1.9a11,11,0,0,1,5.27-2.74c5.2-1.16,7.26,2.11,8,5.51l1.41,6.36a28.37,28.37,0,0,0,1.17,4Zm-2.41-8.57c-3.37.67-7.06,2.13-6.33,5.41a2.8,2.8,0,0,0,3.55,2.32,4.34,4.34,0,0,0,3.5-3.77,3,3,0,0,0-.07-1Z" transform="translate(-6.69)"/><path d="M877.56,369.58l.07,0c.28-.69.7-1.57,1-2.26l3.7-7,3.71-.83-5,8.45,9.71,8.34-3.76.84-7.67-6.86-1.19,2.12,1.43,6.4-3.07.68L871,354.52l3.07-.69Z" transform="translate(-6.69)"/><path d="M903.08,373.54l-.75-2.08-.1,0a6.49,6.49,0,0,1-4.63,3.69,5,5,0,0,1-6.28-3.72c-.92-4.11,2.23-7.19,8.8-8.61l-.08-.36c-.31-1.38-1.27-3.85-4.74-3.05a8.5,8.5,0,0,0-4.15,2.25l-1.16-1.9a11,11,0,0,1,5.28-2.74c5.19-1.16,7.25,2.11,8,5.51l1.42,6.36a27.14,27.14,0,0,0,1.16,4ZM900.66,365c-3.36.68-7,2.13-6.32,5.42a2.78,2.78,0,0,0,3.54,2.31,4.36,4.36,0,0,0,3.51-3.77,3.24,3.24,0,0,0-.07-1Z" transform="translate(-6.69)"/><path d="M909.18,349.3a1.91,1.91,0,0,1-1.54,2.36,1.89,1.89,0,0,1-2.29-1.51,1.92,1.92,0,0,1,1.49-2.35A1.89,1.89,0,0,1,909.18,349.3Zm1.41,22.56-3.79-17,3.07-.68,3.8,17Z" transform="translate(-6.69)"/></g></g></svg>