<svg xmlns="http://www.w3.org/2000/svg" viewBox="0 0 1185.83 762.58"><defs><style>.cls-1{fill:#cfdcfa;stroke:#000;stroke-miterlimit:10;stroke-width:4px;}.cls-2{opacity:0.98;}.cls-3{opacity:0.99;}</style></defs><g id="Layer_2" data-name="Layer 2"><g id="Novo_Mapa" data-name="Novo Mapa"><path class="cls-1" d="M61.93,695.38c1.55,12.1,18.69,11.17,18.69,11.17l269.58-8.37c12.47-.93,14-8.38,14-8.38L372,540c3.11-41.87-26.49-361.91-26.49-361.91C344,140.9,348.64,55.3,348.64,55.3c0-9.3-17.14-9.3-17.14-9.3L56.27,38.26c-13,.3-11.48,7.74-11.48,7.74Z" transform="translate(-6.89 -5.92)"/><path class="cls-1" d="M417.1,686.53l8.75-140.9c3.15-42.35-26.74-366.11-26.74-366.11-1.58-37.65,2.25-122.63,2.25-122.63,0-7.53,15.74-6.59,15.74-6.59l262.74,5.64c14.15,1,12.58,7.53,12.58,7.53l-3.15,152.47c0,17.89-1.57,27.3-7.86,45.18s-12.59,45.18-12.59,45.18c-4.72,15.06-4.72,18.82-4.72,29.17S662,374.08,661,387.24c-1.58,19.76,3.14,80,3.14,80A221.31,221.31,0,0,0,673.54,503c4.72,18.82,7.87,65.88,7.87,65.88l6.29,133.21c0,7.53-14.16,6.59-14.16,6.59L430.42,696.46C417.1,695,417.1,686.53,417.1,686.53Z" transform="translate(-6.89 -5.92)"/><path class="cls-1" d="M724.81,483.07A209.12,209.12,0,0,1,718,456c0-.18,0-.36-.07-.54-.34-4.31-4.72-60-3.18-78.81,1.07-13,3.2-40.94,3.2-51.17s0-14,4.81-28.84c0,0,6.41-27,12.82-44.66s8-27,8-44.66l3.21-150.71h0c0-5.77,8.91-10.16,18.71-9.21L1049,74.66c6.87.66,12.23,3.82,13.27,7.82,6.87,26.57,31.68,123.61,30.3,135.63-1.6,14-9.61,143.28,3.2,202.82,6.31,29.27,9.51,45.5,11.14,54.44,1,5.63-6.75,10.48-16.5,10.3-35.12-.65-114.88-1.72-183.72.39-69.61,2.12-137.14,3.9-165.33,4.62C733.31,490.89,726.28,487.64,724.81,483.07Z" transform="translate(-6.89 -5.92)"/><path class="cls-1" d="M742,696.64l-6.41-140.49-2.75-23.78c-.45-4,4.82-7.38,11.68-7.54,34.63-.81,106.9-2.39,170-4.32,75.33-2.3,163.74-.81,192.42-.21,5.58.11,10.3,2.42,11.47,5.59l72,194.79c1.59,4.29-3.85,8.37-11.39,8.56l-96.14,2.43c-27.78.89-53,.71-78.22-.13-27.2-.91-54.49-2.59-85.23-4.52-59.29-3.73-72.11-4.66-72.11-4.66-35.25-2.79-51.27-3.72-70.5-5.58-7.15-.69-13.85-1.38-19.45-2-9.13-1-15.72-5.62-15.59-11Z" transform="translate(-6.89 -5.92)"/><g class="cls-2"><path d="M238.31,6.28a32.7,32.7,0,0,1,6-.34c3.33.09,5.5.79,7,2.2a6,6,0,0,1,1.77,4.66,6.4,6.4,0,0,1-4.75,6.05v.09c1.83.7,2.89,2.48,3.41,5a40,40,0,0,0,1.67,6.71l-3.25-.09a32.08,32.08,0,0,1-1.42-5.86c-.63-3.34-1.9-4.66-4.73-4.84l-3-.09-.31,10.51-3.13-.09Zm2.8,11.13,3.2.1c3.35.09,5.53-1.67,5.61-4.45.09-3.15-2.14-4.58-5.44-4.68a13.56,13.56,0,0,0-3.11.18Z" transform="translate(-6.89 -5.92)"/><path d="M271.53,26.43c-.06,1.82,0,3.38,0,4.76l-2.8-.08-.08-2.85h-.09a6.5,6.5,0,0,1-5.85,3.07c-2.73-.08-5.95-1.7-5.77-7.8l.3-10.17,3.14.09-.28,9.62c-.1,3.31.87,5.6,3.73,5.68A4.62,4.62,0,0,0,268.1,26a4.84,4.84,0,0,0,.34-1.62l.31-10.65,3.15.09Z" transform="translate(-6.89 -5.92)"/><path d="M286.31,31.62l-.21-2.2H286a6.44,6.44,0,0,1-5.4,2.43,5,5,0,0,1-5.16-5.14c.12-4.22,3.92-6.42,10.64-6.18v-.37c0-1.41-.28-4-3.84-4.13a8.42,8.42,0,0,0-4.57,1.17L277,15.07a11,11,0,0,1,5.79-1.36c5.32.16,6.51,3.83,6.41,7.32L289,27.54a26.44,26.44,0,0,0,.14,4.17Zm-.23-8.89c-3.42-.18-7.36.32-7.46,3.69a2.78,2.78,0,0,0,2.87,3.11,4.35,4.35,0,0,0,4.32-2.78,3.36,3.36,0,0,0,.18-1Z" transform="translate(-6.89 -5.92)"/><path d="M305.52,10.57l-7.39-.22.08-2.65,18,.53-.07,2.65-7.43-.22L308,32.26l-3.15-.09Z" transform="translate(-6.89 -5.92)"/><path d="M316.77,20.53c.06-2.06.06-3.81,0-5.43l2.77.08,0,3.42h.11a5.29,5.29,0,0,1,5-3.66,4,4,0,0,1,.88.11l-.09,3a5.3,5.3,0,0,0-1.07-.13c-2.23-.06-3.86,1.57-4.36,3.93a9.41,9.41,0,0,0-.17,1.47l-.27,9.3-3.15-.09Z" transform="translate(-6.89 -5.92)"/><path d="M337.66,33.13l-.21-2.21h-.1a6.47,6.47,0,0,1-5.4,2.44,5,5,0,0,1-5.16-5.15c.12-4.21,3.92-6.42,10.64-6.18v-.37c0-1.41-.28-4-3.84-4.13A8.51,8.51,0,0,0,329,18.7l-.66-2.13a11.06,11.06,0,0,1,5.79-1.36c5.32.16,6.51,3.83,6.41,7.32L340.38,29a26.4,26.4,0,0,0,.14,4.17Zm-.23-8.9c-3.42-.17-7.36.33-7.46,3.69A2.79,2.79,0,0,0,332.84,31a4.36,4.36,0,0,0,4.32-2.79,3.3,3.3,0,0,0,.18-1Z" transform="translate(-6.89 -5.92)"/><path d="M346.8,16l3.13,9.86c.53,1.63.94,3.08,1.29,4.53h.09c.44-1.44,1-2.87,1.59-4.46l3.69-9.65,3.31.1-7.36,17.19-3-.08-6.12-17.6Z" transform="translate(-6.89 -5.92)"/><path d="M364,25.77c-.07,4.27,2.6,6.12,5.78,6.21a11.64,11.64,0,0,0,4.84-.75l.49,2.27a14.13,14.13,0,0,1-5.84.93c-5.34-.15-8.46-3.81-8.3-9s3.38-9.3,8.46-9.15c5.68.17,7,5.19,6.92,8.39a7.74,7.74,0,0,1-.15,1.48Zm9.33-2c.09-2-.67-5.15-4.22-5.25-3.23-.09-4.69,2.78-5,5Z" transform="translate(-6.89 -5.92)"/><path d="M379.69,31.14a8.75,8.75,0,0,0,4.16,1.36c2.31.07,3.42-1,3.46-2.49s-.85-2.35-3.14-3.28c-3.11-1.23-4.55-3-4.48-5.07.08-2.81,2.43-5,6.17-4.93a8.4,8.4,0,0,1,4.23,1.19l-.86,2.28a6.81,6.81,0,0,0-3.53-1.13c-1.87-.05-2.92,1-3,2.31s1,2.11,3.22,3.06c3,1.21,4.48,2.77,4.41,5.36-.09,3.09-2.55,5.18-6.66,5.06a10,10,0,0,1-4.85-1.36Z" transform="translate(-6.89 -5.92)"/><path d="M393.94,31.55a8.61,8.61,0,0,0,4.16,1.37c2.31.06,3.42-1,3.46-2.5s-.85-2.34-3.14-3.28c-3.11-1.23-4.55-3-4.48-5.07.08-2.8,2.43-5,6.17-4.92a8.4,8.4,0,0,1,4.23,1.19l-.86,2.28A6.81,6.81,0,0,0,400,19.49c-1.87,0-2.92,1-3,2.3s1,2.12,3.22,3.07c3,1.2,4.48,2.76,4.41,5.36-.09,3.08-2.55,5.17-6.66,5.05a9.91,9.91,0,0,1-4.85-1.35Z" transform="translate(-6.89 -5.92)"/><path d="M418.19,35.49,418,33.28h-.09a6.5,6.5,0,0,1-5.4,2.44,5,5,0,0,1-5.17-5.15c.12-4.22,3.92-6.42,10.64-6.18l0-.37c0-1.41-.28-4-3.85-4.13a8.42,8.42,0,0,0-4.57,1.17l-.66-2.13a11,11,0,0,1,5.79-1.36c5.32.16,6.51,3.83,6.41,7.32l-.19,6.51a26.4,26.4,0,0,0,.14,4.17Zm-.23-8.9c-3.42-.18-7.36.33-7.46,3.69a2.79,2.79,0,0,0,2.87,3.12,4.36,4.36,0,0,0,4.32-2.79,3.36,3.36,0,0,0,.18-1Z" transform="translate(-6.89 -5.92)"/><path d="M437.46,11.78,437,26.15c-.16,5.41,2.17,7.78,5.44,7.87,3.57.11,6-2.2,6.12-7.53L449,12.12l3.15.09-.41,14.15c-.22,7.46-4.23,10.38-9.49,10.23-4.95-.15-8.6-3.08-8.38-10.62l.42-14.28Z" transform="translate(-6.89 -5.92)"/><path d="M457.14,23.92c.05-1.82,0-3.26,0-4.71l2.75.08L460,22.1h.08a6,6,0,0,1,5.59-3,5.09,5.09,0,0,1,4.8,3.63h.08a7,7,0,0,1,2-2.21,6,6,0,0,1,3.87-1.11c2.32.07,5.7,1.67,5.52,7.72l-.3,10.24-3.09-.09.29-9.84c.1-3.37-1.08-5.4-3.62-5.47a4.13,4.13,0,0,0-3.85,2.73,5.54,5.54,0,0,0-.3,1.58L470.74,37l-3.09-.09L468,26.49c.08-2.77-1.09-4.8-3.48-4.87a4.38,4.38,0,0,0-4,3.05,5.14,5.14,0,0,0-.29,1.55l-.31,10.49-3.08-.09Z" transform="translate(-6.89 -5.92)"/></g><g class="cls-2"><path d="M782.41,11.57a33.3,33.3,0,0,1,6.05,0c3.31.32,5.43,1.16,6.81,2.66a6.07,6.07,0,0,1,1.45,4.77,6.41,6.41,0,0,1-5.14,5.72v.09c1.78.82,2.72,2.67,3.07,5.23a39.17,39.17,0,0,0,1.23,6.8l-3.24-.31a32.72,32.72,0,0,1-1-5.93c-.4-3.38-1.58-4.78-4.4-5.15l-3-.28-1,10.47-3.11-.3Zm2.07,11.29,3.19.3c3.33.32,5.62-1.29,5.89-4.06.3-3.14-1.84-4.72-5.13-5a14.3,14.3,0,0,0-3.11,0Z" transform="translate(-6.89 -5.92)"/><path d="M814.23,33.86c-.17,1.82-.26,3.38-.31,4.75l-2.78-.26.1-2.85h-.09a6.48,6.48,0,0,1-6,2.68c-2.71-.26-5.82-2.09-5.24-8.16l1-10.13,3.14.3-.92,9.57c-.31,3.3.5,5.65,3.35,5.92a4.63,4.63,0,0,0,4.45-2.49,5.13,5.13,0,0,0,.44-1.59l1-10.62,3.14.3Z" transform="translate(-6.89 -5.92)"/><path d="M828.64,40l-.07-2.21h-.09a6.47,6.47,0,0,1-5.55,2.07,5,5,0,0,1-4.82-5.47c.41-4.2,4.35-6.15,11-5.47l0-.37c.13-1.4,0-4-3.56-4.37a8.54,8.54,0,0,0-4.64.86l-.52-2.16a11,11,0,0,1,5.87-1c5.3.51,6.24,4.25,5.91,7.73l-.62,6.48a26.17,26.17,0,0,0-.13,4.17Zm.36-8.89c-3.4-.4-7.37-.16-7.69,3.19A2.78,2.78,0,0,0,824,37.61a4.37,4.37,0,0,0,4.5-2.49,3.42,3.42,0,0,0,.24-1Z" transform="translate(-6.89 -5.92)"/><path d="M849.19,20.27l-7.35-.7.25-2.64L860,18.64l-.25,2.64-7.39-.71-2.06,21.52-3.13-.3Z" transform="translate(-6.89 -5.92)"/><path d="M859.77,31c.19-2.05.31-3.79.37-5.41l2.76.27-.2,3.41h.11A5.29,5.29,0,0,1,868,25.89a3.72,3.72,0,0,1,.87.18l-.29,3a4.81,4.81,0,0,0-1.06-.19c-2.22-.22-3.95,1.31-4.6,3.63a7.78,7.78,0,0,0-.27,1.45l-.88,9.26-3.14-.3Z" transform="translate(-6.89 -5.92)"/><path d="M879.78,44.9l-.07-2.21h-.09a6.51,6.51,0,0,1-5.55,2.08,5,5,0,0,1-4.82-5.48c.4-4.2,4.35-6.15,11-5.46l0-.37c.13-1.41,0-4.06-3.56-4.38a8.45,8.45,0,0,0-4.64.87l-.52-2.17a11,11,0,0,1,5.87-1c5.3.5,6.24,4.25,5.91,7.72L882.76,41a26.3,26.3,0,0,0-.13,4.18Zm.36-8.89c-3.41-.4-7.37-.16-7.69,3.19a2.78,2.78,0,0,0,2.65,3.3,4.37,4.37,0,0,0,4.51-2.5,3.34,3.34,0,0,0,.24-1Z" transform="translate(-6.89 -5.92)"/><path d="M890,28.4l2.47,10c.43,1.66.74,3.13,1,4.61h.1c.53-1.41,1.17-2.8,1.87-4.34l4.32-9.39,3.3.31L894.6,46.32l-3-.29-5-18Z" transform="translate(-6.89 -5.92)"/><path d="M906.58,39.29c-.35,4.27,2.19,6.28,5.35,6.58a11.71,11.71,0,0,0,4.89-.42l.34,2.29a14.09,14.09,0,0,1-5.89.55c-5.33-.51-8.19-4.36-7.69-9.56s4-9.06,9-8.58c5.66.54,6.66,5.65,6.36,8.84a8.37,8.37,0,0,1-.25,1.46ZM916,37.91c.22-2-.33-5.18-3.86-5.52-3.22-.31-4.87,2.47-5.33,4.64Z" transform="translate(-6.89 -5.92)"/><path d="M921.85,45.68a8.6,8.6,0,0,0,4.06,1.64c2.3.22,3.48-.81,3.62-2.26s-.7-2.4-2.92-3.48c-3-1.43-4.34-3.28-4.14-5.36.27-2.79,2.76-4.86,6.48-4.51a8.46,8.46,0,0,1,4.15,1.48l-1,2.21A6.93,6.93,0,0,0,928.64,34c-1.86-.18-3,.8-3.1,2.11s.82,2.17,3,3.27c2.88,1.39,4.29,3,4.05,5.64-.3,3.07-2.89,5-7,4.6A10,10,0,0,1,920.86,48Z" transform="translate(-6.89 -5.92)"/><path d="M936.05,47a8.66,8.66,0,0,0,4.05,1.63c2.31.22,3.48-.81,3.62-2.26S943,44,940.8,42.93c-3-1.43-4.34-3.28-4.13-5.35.26-2.79,2.75-4.87,6.48-4.51a8.46,8.46,0,0,1,4.14,1.47l-1,2.22a6.75,6.75,0,0,0-3.46-1.36c-1.86-.18-3,.8-3.1,2.1s.82,2.17,3,3.27c2.88,1.4,4.29,3,4,5.64-.29,3.07-2.89,5-7,4.61a10,10,0,0,1-4.76-1.68Z" transform="translate(-6.89 -5.92)"/><path d="M960,52.56l-.07-2.21h-.1a6.46,6.46,0,0,1-5.55,2.07,5,5,0,0,1-4.81-5.47c.4-4.2,4.34-6.15,11-5.46l0-.37c.14-1.41,0-4.06-3.56-4.38a8.56,8.56,0,0,0-4.64.86l-.51-2.16a10.89,10.89,0,0,1,5.86-1c5.3.5,6.24,4.25,5.91,7.72L963,48.66a27.44,27.44,0,0,0-.13,4.17Zm.35-8.89c-3.4-.4-7.37-.16-7.69,3.19a2.8,2.8,0,0,0,2.66,3.3,4.35,4.35,0,0,0,4.5-2.5,3.42,3.42,0,0,0,.24-1Z" transform="translate(-6.89 -5.92)"/><path d="M980.77,30.18,979.4,44.49c-.51,5.39,1.66,7.9,4.92,8.21,3.55.34,6.09-1.81,6.6-7.11l1.37-14.31,3.13.3-1.34,14.09c-.71,7.42-4.9,10.08-10.14,9.58-4.93-.47-8.38-3.64-7.67-11.15l1.36-14.22Z" transform="translate(-6.89 -5.92)"/><path d="M999.61,43.58c.17-1.81.25-3.25.3-4.69l2.74.26-.1,2.8h.09a6,6,0,0,1,5.77-2.66,5.12,5.12,0,0,1,4.55,3.94h.07a7,7,0,0,1,2.18-2.07,5.87,5.87,0,0,1,3.92-.85c2.32.22,5.58,2,5,8.06l-1,10.21-3.07-.3.93-9.8c.32-3.36-.72-5.46-3.25-5.7a4.13,4.13,0,0,0-4,2.48,5.5,5.5,0,0,0-.41,1.55l-1,10.73-3.08-.29,1-10.4c.27-2.76-.76-4.87-3.14-5.09a4.36,4.36,0,0,0-4.23,2.77,5,5,0,0,0-.39,1.53l-1,10.44-3.07-.29Z" transform="translate(-6.89 -5.92)"/></g><path d="M698.83,613.37a33.66,33.66,0,0,1-.79-6c-.14-3.32.39-5.54,1.69-7.11a6.08,6.08,0,0,1,4.52-2.11,6.42,6.42,0,0,1,6.38,4.3h.09c.57-1.88,2.27-3.07,4.75-3.77a40.55,40.55,0,0,0,6.57-2.15l.15,3.24a31.82,31.82,0,0,1-5.74,1.85c-3.29.86-4.52,2.23-4.49,5.07l.13,3,10.51-.46.13,3.13Zm10.89-3.61-.14-3.2c-.14-3.35-2.06-5.4-4.84-5.27-3.15.13-4.42,2.46-4.28,5.77a13.13,13.13,0,0,0,.42,3.08Z" transform="translate(-6.89 -5.92)"/><path d="M716.49,578.75c1.83-.08,3.39-.2,4.76-.35l.12,2.8-2.84.29v.09a6.52,6.52,0,0,1,3.49,5.61c.12,2.73-1.27,6.06-7.36,6.33L704.5,594l-.14-3.15,9.61-.42c3.32-.14,5.53-1.27,5.4-4.13a4.62,4.62,0,0,0-3.08-4.06,5,5,0,0,0-1.64-.21l-10.65.46-.14-3.14Z" transform="translate(-6.89 -5.92)"/><path d="M720.57,563.53l-2.18.39v.1a6.44,6.44,0,0,1,2.86,5.19,5,5,0,0,1-4.72,5.56c-4.21.21-6.71-3.4-7-10.12l-.37,0c-1.41.07-4,.6-3.81,4.16a8.51,8.51,0,0,0,1.52,4.46l-2.06.82a10.92,10.92,0,0,1-1.82-5.66c-.26-5.31,3.3-6.79,6.79-7l6.5-.33a26.1,26.1,0,0,0,4.15-.47Zm-8.85.94c.1,3.43.91,7.32,4.27,7.15a2.79,2.79,0,0,0,2.88-3.11,4.35,4.35,0,0,0-3.12-4.09,3.64,3.64,0,0,0-1-.1Z" transform="translate(-6.89 -5.92)"/><path d="M697.54,546.73l.67,7.37-2.63.24L694,536.44l2.63-.24.68,7.4,21.53-2,.28,3.14Z" transform="translate(-6.89 -5.92)"/><path d="M700.55,533.93l9.33-4.48c1.53-.76,2.91-1.37,4.31-1.91v-.1c-1.49-.23-3-.57-4.64-1l-10.08-2.3-.36-3.29,18.06,4.88.34,3-16.57,8.52Z" transform="translate(-6.89 -5.92)"/><path d="M714.35,518a2.14,2.14,0,0,1-2.56-1.82,2.28,2.28,0,1,1,2.56,1.82Z" transform="translate(-6.89 -5.92)"/><path d="M712,495.65,691.2,510.52l-1-3.24,10.27-7.2c2.81-2,5.36-3.72,7.86-5.2l0-.08c-2.88.2-6.09.17-9.43.08l-12.68-.3-1-3.2,25.75,1Z" transform="translate(-6.89 -5.92)"/><path d="M685.43,484.73a1.9,1.9,0,0,1,2.42,1.44,1.87,1.87,0,0,1-1.4,2.35,1.93,1.93,0,0,1-2.42-1.39A1.91,1.91,0,0,1,685.43,484.73Zm22.5-2.33-16.83,4.48-.81-3,16.83-4.49Z" transform="translate(-6.89 -5.92)"/><path d="M693.27,477.06c-1.78.34-3.19.67-4.59,1l-.52-2.75,2.78-.71,0-.08a6.43,6.43,0,0,1-4.28-5c-.45-2.35.26-6.3,6.13-7.42l10.2-1.95.59,3.09-9.86,1.89c-2.76.52-4.88,2-4.32,4.92a4.57,4.57,0,0,0,4,3.58,4.77,4.77,0,0,0,1.49-.06l10.3-2,.59,3.09Z" transform="translate(-6.89 -5.92)"/><path d="M680.25,453.57l5-.35-.32-4.54,2.39-.16.32,4.53,9.36-.65c2.17-.15,3.35-.86,3.22-2.62a6.4,6.4,0,0,0-.35-1.82l2.39-.31a8.35,8.35,0,0,1,.63,2.79,4.47,4.47,0,0,1-1.1,3.51c-.9.93-2.41,1.4-4.45,1.54l-9.48.66.18,2.69-2.39.17-.19-2.69-4.18.29Z" transform="translate(-6.89 -5.92)"/><path d="M693.85,442.91c4.27-.32,5.86-3.14,5.67-6.32a11.68,11.68,0,0,0-1.19-4.76l2.21-.69a14,14,0,0,1,1.47,5.73c.33,5.34-3,8.77-8.25,9.09s-9.57-2.52-9.88-7.6c-.35-5.67,4.53-7.46,7.73-7.65a8.81,8.81,0,0,1,1.49,0ZM691,433.8c-2,.09-5.07,1.13-4.85,4.68.2,3.22,3.2,4.42,5.41,4.53Z" transform="translate(-6.89 -5.92)"/><path d="M692.42,417.25c4.27-.24,5.92-3,5.79-6.2a11.74,11.74,0,0,0-1.08-4.78l2.22-.65a14.2,14.2,0,0,1,1.35,5.76c.21,5.35-3.22,8.7-8.43,8.92s-9.52-2.73-9.73-7.81c-.23-5.67,4.69-7.36,7.89-7.49a8,8,0,0,1,1.49.05Zm-2.65-9.17c-2,.05-5.09,1-4.95,4.57.13,3.23,3.11,4.49,5.32,4.65Z" transform="translate(-6.89 -5.92)"/><path d="M699.59,393.44l-24.24-1.05.15-3.44,12.58-7.24a68.76,68.76,0,0,1,8.08-4l0-.08c-3.25.14-6.21.07-10-.09L676,377.12l.13-2.95,24.24,1.05-.14,3.18-12.62,7.17a81.53,81.53,0,0,1-8.31,4.16l0,.11c3.08-.06,6,0,10,.2l10.37.45Z" transform="translate(-6.89 -5.92)"/><path d="M693.27,353.85c6.43.46,8.93,5.11,8.63,9.29-.33,4.71-4,8.1-9.53,7.71-5.81-.41-8.94-4.47-8.6-9.27C684.12,356.59,688,353.48,693.27,353.85Zm-.77,13.78c3.81.27,6.83-1.71,7-4.79s-2.46-5.49-6.4-5.77c-2.94-.2-6.76,1-7,4.77S689.21,367.4,692.5,367.63Z" transform="translate(-6.89 -5.92)"/><path d="M685,348.61l9.94-2.86c1.64-.5,3.1-.87,4.57-1.17v-.1c-1.42-.48-2.84-1.06-4.41-1.7l-9.55-3.95.18-3.31,17,7.82-.17,3L684.85,352Z" transform="translate(-6.89 -5.92)"/><path d="M695,331.55c4.28.09,6.14-2.57,6.24-5.75a11.8,11.8,0,0,0-.72-4.85l2.26-.47a13.9,13.9,0,0,1,.91,5.84c-.18,5.35-3.85,8.44-9.07,8.26s-9.29-3.42-9.11-8.5c.19-5.68,5.22-7,8.42-6.89a8.46,8.46,0,0,1,1.48.16Zm-2-9.33c-2-.1-5.15.64-5.27,4.19-.11,3.23,2.76,4.7,5,5Z" transform="translate(-6.89 -5.92)"/><path d="M684.22,288.57l20.43,5.17c1.5.38,3.2.75,4.39,1l-.69,2.73-3-.58,0,.08a6.39,6.39,0,0,1,1.85,6.56c-1,4.09-5.29,6.37-10.41,5.07-5.65-1.4-8.19-5.77-7.15-9.88a5.82,5.82,0,0,1,3.85-4.44l0-.07-10.08-2.55Zm14,6.79a6.66,6.66,0,0,0-1.35-.2,4.67,4.67,0,0,0-4.65,3.55c-.81,3.18,1.5,5.78,5.21,6.72,3.42.87,6.7-.12,7.54-3.43a4.78,4.78,0,0,0-2.55-5.42,5.23,5.23,0,0,0-1.28-.48Z" transform="translate(-6.89 -5.92)"/><path d="M702.81,286.15c4.16,1,6.55-1.18,7.34-4.26a11.77,11.77,0,0,0,.34-4.89l2.31,0a13.91,13.91,0,0,1-.37,5.9c-1.33,5.18-5.58,7.41-10.64,6.11s-8.33-5.35-7.06-10.28c1.41-5.5,6.61-5.7,9.71-4.9a7.21,7.21,0,0,1,1.41.48Zm.1-9.54c-1.92-.53-5.16-.49-6,2.95-.8,3.13,1.68,5.19,3.75,6Z" transform="translate(-6.89 -5.92)"/><path d="M695.16,253.37l.93-3,15.5,4.8c6.17,1.91,7.13,5.51,5.89,9.5a10.39,10.39,0,0,1-1.53,3l-2.31-1.19a7.53,7.53,0,0,0,1.22-2.4c.83-2.67.1-4.61-4.45-6Z" transform="translate(-6.89 -5.92)"/><path d="M724,243.35l-2.19-.39,0,.09a6.5,6.5,0,0,1,.89,5.86,5,5,0,0,1-6.36,3.58c-4-1.25-5.12-5.51-3.07-11.92l-.35-.11c-1.35-.42-4-.82-5,2.59a8.54,8.54,0,0,0-.11,4.72l-2.23,0a11.08,11.08,0,0,1,.26-5.94c1.59-5.07,5.45-5.23,8.77-4.19l6.22,1.94a27.67,27.67,0,0,0,4.06,1Zm-8.64-2.18c-1.09,3.25-1.67,7.17,1.55,8.18a2.78,2.78,0,0,0,3.77-1.92,4.36,4.36,0,0,0-1.52-4.92,3.45,3.45,0,0,0-.91-.44Z" transform="translate(-6.89 -5.92)"/><path d="M714.13,231.7c-1.8-.22-3.24-.34-4.69-.42l.34-2.78,2.86.17v-.09a6.4,6.4,0,0,1-2.54-6.1c.29-2.38,2.16-5.92,8.1-5.21l10.31,1.25-.38,3.13-10-1.21c-2.8-.33-5.26.44-5.62,3.38a4.54,4.54,0,0,0,2.72,4.62,4.94,4.94,0,0,0,1.43.4l10.41,1.25-.38,3.13Z" transform="translate(-6.89 -5.92)"/><path d="M720.33,209.83c4.28,0,6.1-2.66,6.16-5.84a11.81,11.81,0,0,0-.8-4.84l2.26-.51a14,14,0,0,1,1,5.83c-.1,5.34-3.73,8.49-9,8.39s-9.33-3.29-9.23-8.37c.11-5.68,5.12-7.07,8.32-7a7.14,7.14,0,0,1,1.48.14Zm-2.1-9.31c-2-.07-5.14.71-5.21,4.26-.06,3.23,2.83,4.67,5,5Z" transform="translate(-6.89 -5.92)"/><path d="M706.53,189.74a1.91,1.91,0,0,1,1.92,2.06,1.89,1.89,0,0,1-2,1.87,1.92,1.92,0,0,1-1.93-2A1.9,1.9,0,0,1,706.53,189.74Zm22.26,4-17.41-.35.06-3.15,17.41.35Z" transform="translate(-6.89 -5.92)"/><path d="M717,185.07c-2.05,0-3.81,0-5.42,0l.05-2.78,3.42-.05v-.11a5.29,5.29,0,0,1-3.71-4.93,4,4,0,0,1,.11-.88l3,.07a4.71,4.71,0,0,0-.12,1.07c0,2.23,1.61,3.84,4,4.32a8.38,8.38,0,0,0,1.47.16l9.3.19-.06,3.15Z" transform="translate(-6.89 -5.92)"/><path d="M720.64,158c6.45.13,9.18,4.66,9.09,8.84-.09,4.72-3.61,8.3-9.14,8.19-5.82-.12-9.15-4-9.05-8.84C711.64,161.15,715.34,157.85,720.64,158Zm-.08,13.8c3.82.08,6.74-2,6.8-5.14s-2.73-5.36-6.68-5.44c-2.94-.06-6.7,1.35-6.77,5.11S717.26,171.7,720.56,171.76Z" transform="translate(-6.89 -5.92)"/><path d="M388.6,535.78a33.65,33.65,0,0,1-.57-6c0-3.33.6-5.52,2-7a6.06,6.06,0,0,1,4.6-1.94,6.4,6.4,0,0,1,6.21,4.53h.09c.64-1.85,2.38-3,4.89-3.59a40.64,40.64,0,0,0,6.65-1.91l0,3.25a31.65,31.65,0,0,1-5.8,1.63c-3.32.75-4.6,2.07-4.67,4.9l0,3,10.51-.07,0,3.13Zm11-3.2,0-3.21c0-3.35-1.87-5.46-4.65-5.44-3.15,0-4.5,2.3-4.49,5.61a14.35,14.35,0,0,0,.3,3.1Z" transform="translate(-6.89 -5.92)"/><path d="M406.85,501.77c1.82-.07,3.38-.2,4.75-.34l.12,2.79-2.84.29v.09a6.5,6.5,0,0,1,3.48,5.62c.12,2.72-1.27,6.06-7.37,6.31l-10.16.44-.14-3.15,9.61-.41c3.32-.14,5.53-1.27,5.41-4.12a4.63,4.63,0,0,0-3.08-4.07A5,5,0,0,0,405,505l-10.65.45-.14-3.15Z" transform="translate(-6.89 -5.92)"/><path d="M410.8,486.75l-2.18.4v.09a6.49,6.49,0,0,1,2.88,5.18,5,5,0,0,1-4.69,5.59c-4.22.23-6.73-3.38-7.06-10.1l-.37,0c-1.41.07-4,.61-3.79,4.17a8.48,8.48,0,0,0,1.55,4.46l-2.07.84a11,11,0,0,1-1.84-5.66c-.29-5.31,3.27-6.81,6.75-7l6.51-.36a27.34,27.34,0,0,0,4.15-.49Zm-8.85,1c.12,3.43.95,7.31,4.31,7.12a2.77,2.77,0,0,0,2.86-3.11,4.35,4.35,0,0,0-3.14-4.08,3.54,3.54,0,0,0-1-.1Z" transform="translate(-6.89 -5.92)"/><path d="M385.35,468l-.2-3.15,16.18-1c6.44-.42,8.62,2.61,8.89,6.77a10,10,0,0,1-.35,3.39l-2.58-.29a7.52,7.52,0,0,0,.29-2.68c-.18-2.79-1.55-4.34-6.3-4Z" transform="translate(-6.89 -5.92)"/><path d="M399.09,443.05c6.43-.44,9.55,3.83,9.84,8,.32,4.71-2.86,8.59-8.38,9-5.81.39-9.47-3.2-9.8-8C390.41,447,393.8,443.41,399.09,443.05Zm1.15,13.76c3.81-.26,6.53-2.64,6.31-5.73s-3.19-5.1-7.13-4.83c-2.94.21-6.55,1.94-6.3,5.7S396.94,457,400.24,456.81Z" transform="translate(-6.89 -5.92)"/><path d="M387.19,438.44c-2.34.24-3.81-.64-3.92-2.18a4.78,4.78,0,0,1,.63-2.29,3.73,3.73,0,0,0,.51-1.55c-.05-.56-.4-.88-1.6-.88l-.12-1.68c2.37-.21,3.68.5,3.8,2.19a4.62,4.62,0,0,1-.59,2.25,3.46,3.46,0,0,0-.52,1.59c0,.57.68.82,1.68.82ZM407,428.83l-2.17.44v.1a6.44,6.44,0,0,1,3,5.12,5,5,0,0,1-4.6,5.66c-4.21.31-6.79-3.25-7.23-10l-.36,0c-1.42.1-4,.69-3.73,4.25a8.53,8.53,0,0,0,1.63,4.43l-2.05.86a11,11,0,0,1-1.94-5.62c-.38-5.3,3.15-6.86,6.63-7.11l6.5-.47a27.53,27.53,0,0,0,4.13-.56ZM398.13,430c.17,3.42,1.07,7.29,4.43,7a2.79,2.79,0,0,0,2.81-3.16,4.35,4.35,0,0,0-3.22-4,3.17,3.17,0,0,0-1-.08Z" transform="translate(-6.89 -5.92)"/><path d="M396.38,406.13c6.43-.48,9.58,3.77,9.89,7.94.35,4.71-2.81,8.61-8.32,9-5.81.43-9.5-3.13-9.86-7.94C387.72,410.16,391.09,406.52,396.38,406.13Zm1.23,13.75c3.81-.28,6.51-2.68,6.28-5.76s-3.22-5.08-7.16-4.79c-2.94.22-6.54,2-6.26,5.73S394.32,420.13,397.61,419.88Z" transform="translate(-6.89 -5.92)"/><path d="M380.13,395.67l-.24-3.14,21.55-1.69-.81-10.34,2.64-.2,1.05,13.48Z" transform="translate(-6.89 -5.92)"/><path d="M380.45,375.16a1.92,1.92,0,0,1,2.13,1.86,1.9,1.9,0,0,1-1.81,2.06,1.92,1.92,0,0,1-2.12-1.81A1.89,1.89,0,0,1,380.45,375.16ZM403,376.92l-17.36,1.38-.25-3.14,17.36-1.38Z" transform="translate(-6.89 -5.92)"/><path d="M389.67,369.57c-1.81.15-3.25.33-4.68.53l-.22-2.75,2.78-.39v-.09a6,6,0,0,1-3.63-5.22,5.11,5.11,0,0,1,3.08-5.17v-.07a7,7,0,0,1-2.42-1.78,5.87,5.87,0,0,1-1.53-3.72c-.19-2.31,1-5.85,7.06-6.34l10.22-.83.25,3.08-9.81.8c-3.36.27-5.25,1.67-5.05,4.2a4.15,4.15,0,0,0,3.15,3.53,5.47,5.47,0,0,0,1.6.13l10.75-.88.25,3.08-10.42.85c-2.77.22-4.65,1.61-4.46,4a4.37,4.37,0,0,0,3.47,3.68,4.78,4.78,0,0,0,1.57.11l10.47-.85.25,3.09Z" transform="translate(-6.89 -5.92)"/><path d="M399.1,329l-2.17.46v.1a6.48,6.48,0,0,1,3,5.09,5,5,0,0,1-4.54,5.71c-4.21.35-6.82-3.18-7.33-9.89l-.37,0c-1.41.12-4,.73-3.67,4.28a8.46,8.46,0,0,0,1.66,4.42l-2,.89a10.93,10.93,0,0,1-2-5.6c-.44-5.31,3.08-6.9,6.55-7.19l6.49-.54a27.06,27.06,0,0,0,4.13-.6Zm-8.82,1.23c.21,3.42,1.15,7.28,4.5,7a2.79,2.79,0,0,0,2.78-3.2,4.38,4.38,0,0,0-3.25-4,3.21,3.21,0,0,0-1-.06Z" transform="translate(-6.89 -5.92)"/><path d="M371.09,300.93l21-1.78c1.54-.13,3.27-.33,4.46-.52l.24,2.81-3,.41v.08a6.38,6.38,0,0,1,3.89,5.6c.36,4.21-2.92,7.75-8.18,8.2-5.8.51-9.62-2.79-10-7a5.82,5.82,0,0,1,2.19-5.46v-.07l-10.36.88Zm15.44,1.85a7,7,0,0,0-1.34.25,4.69,4.69,0,0,0-3.24,4.88c.28,3.26,3.31,5,7.12,4.65,3.52-.3,6.3-2.3,6-5.7a4.78,4.78,0,0,0-4.18-4.29,5.07,5.07,0,0,0-1.36,0Z" transform="translate(-6.89 -5.92)"/><path d="M395.28,283.88l-2.17.47v.09a6.46,6.46,0,0,1,3,5.09,5,5,0,0,1-4.52,5.72c-4.2.36-6.83-3.16-7.36-9.87l-.37,0c-1.41.12-4,.75-3.66,4.3a8.48,8.48,0,0,0,1.68,4.41l-2,.89a10.92,10.92,0,0,1-2-5.59c-.46-5.31,3.06-6.91,6.53-7.21l6.49-.56A25.75,25.75,0,0,0,395,281Zm-8.82,1.25c.22,3.42,1.17,7.28,4.53,7a2.78,2.78,0,0,0,2.76-3.2,4.33,4.33,0,0,0-3.26-4,3.56,3.56,0,0,0-1-.07Z" transform="translate(-6.89 -5.92)"/><path d="M390.18,269.26a10.8,10.8,0,0,0,1.08-5.71c-.27-3.2-2.11-4.93-4.55-4.71-2.24.19-3.45,1.62-4.39,5-1.05,4.07-2.91,6.7-6.29,7-3.77.33-6.83-2.55-7.24-7.26a11,11,0,0,1,.7-5.43l2.64.65a9.18,9.18,0,0,0-.75,4.66c.29,3.32,2.36,4.4,4,4.26,2.24-.2,3.22-1.77,4.22-5.21,1.25-4.24,3-6.48,6.58-6.79,3.71-.32,7.21,2.12,7.71,7.85a12.42,12.42,0,0,1-1,6.31Z" transform="translate(-6.89 -5.92)"/><path d="M369.87,249.4a2,2,0,1,1,.34,3.91,1.92,1.92,0,0,1-2.13-1.79A1.89,1.89,0,0,1,369.87,249.4ZM392.42,251l-17.34,1.52-.28-3.14,17.35-1.52Z" transform="translate(-6.89 -5.92)"/><path d="M366.22,244.83l-.27-3.14,25.46-2.24.27,3.14Z" transform="translate(-6.89 -5.92)"/><path d="M373.49,234.47l9.42-4.27c1.55-.73,2.94-1.3,4.35-1.82v-.09c-1.47-.27-3-.64-4.61-1.06l-10-2.52-.29-3.3,17.94,5.28.27,3-16.75,8.14Z" transform="translate(-6.89 -5.92)"/><path d="M388.55,207.42l-2.17.47v.1a6.46,6.46,0,0,1,3.06,5.07,5,5,0,0,1-4.5,5.74c-4.2.38-6.84-3.14-7.39-9.84l-.37,0c-1.41.13-4,.76-3.65,4.31a8.48,8.48,0,0,0,1.7,4.4l-2,.91a11,11,0,0,1-2-5.59c-.47-5.3,3-6.92,6.51-7.23l6.49-.58a28.14,28.14,0,0,0,4.12-.64Zm-8.81,1.28c.23,3.42,1.2,7.27,4.55,7a2.79,2.79,0,0,0,2.76-3.21,4.37,4.37,0,0,0-3.29-4,3.13,3.13,0,0,0-1-.06Z" transform="translate(-6.89 -5.92)"/><path d="M1158.65,592.25a34,34,0,0,1-2.58-5.48c-1.15-3.12-1.32-5.39-.56-7.28a6.05,6.05,0,0,1,3.66-3.39,6.42,6.42,0,0,1,7.39,2.15l.08,0c0-2,1.22-3.62,3.38-5a40.65,40.65,0,0,0,5.59-4.06l1.13,3a32.48,32.48,0,0,1-4.89,3.51c-2.87,1.82-3.63,3.5-2.73,6.2l1,2.78L1180,581l1.09,2.94Zm9.27-6.77-1.11-3c-1.16-3.15-3.61-4.51-6.22-3.54-2.95,1.09-3.45,3.69-2.31,6.8a13.45,13.45,0,0,0,1.34,2.81Z" transform="translate(-6.89 -5.92)"/><path d="M1164.91,553.9c1.71-.64,3.15-1.24,4.42-1.79l1,2.62-2.62,1.15,0,.08a6.49,6.49,0,0,1,5,4.28c1,2.56.65,6.16-5.07,8.27l-9.55,3.53-1.09-3,9-3.33c3.11-1.15,4.87-2.9,3.88-5.58a4.62,4.62,0,0,0-4.18-2.93,5,5,0,0,0-1.62.3l-10,3.69-1.09-3Z" transform="translate(-6.89 -5.92)"/><path d="M1164.19,538.23l-2,1,0,.09a6.47,6.47,0,0,1,4.28,4.1,5,5,0,0,1-2.84,6.72c-4,1.46-7.42-1.24-9.71-7.57l-.35.13c-1.33.49-3.65,1.77-2.39,5.11a8.49,8.49,0,0,0,2.79,3.81l-1.73,1.4a11,11,0,0,1-3.42-4.86c-1.85-5,1.12-7.47,4.39-8.68l6.11-2.26a26.28,26.28,0,0,0,3.81-1.69Zm-8.16,3.54c1.12,3.24,3,6.71,6.21,5.54a2.78,2.78,0,0,0,1.82-3.82,4.35,4.35,0,0,0-4.21-3,3.28,3.28,0,0,0-1,.2Z" transform="translate(-6.89 -5.92)"/><path d="M1134.52,528.57l13.69-4.41c5.15-1.66,6.6-4.65,5.59-7.76-1.09-3.4-4.07-4.89-9.14-3.25L1131,517.56l-1-3,13.47-4.34c7.1-2.29,11.2.51,12.81,5.51,1.52,4.71,0,9.14-7.2,11.46l-13.6,4.38Z" transform="translate(-6.89 -5.92)"/><path d="M1127.77,508.16l-.74-3.06,24.86-6,.73,3.06Z" transform="translate(-6.89 -5.92)"/><path d="M1128.1,495.69a1.91,1.91,0,0,1,2.38,1.5,1.89,1.89,0,0,1-1.47,2.32,1.92,1.92,0,0,1-2.37-1.46A1.89,1.89,0,0,1,1128.1,495.69Zm22.53-1.77L1133.71,498l-.74-3.06,16.93-4.06Z" transform="translate(-6.89 -5.92)"/><path d="M1145.64,486.93a8.57,8.57,0,0,0,.23-4.37c-.54-2.25-1.89-3-3.31-2.68s-2,1.43-2.34,3.88c-.38,3.33-1.7,5.18-3.73,5.65-2.72.66-5.49-1-6.36-4.66a8.37,8.37,0,0,1,0-4.4l2.42.23a6.86,6.86,0,0,0-.16,3.71c.44,1.82,1.72,2.56,3,2.25s1.78-1.48,2.11-3.91c.39-3.18,1.5-5,4-5.66,3-.72,5.66,1.11,6.62,5.11a9.81,9.81,0,0,1,0,5Z" transform="translate(-6.89 -5.92)"/><path d="M1142.26,473.13a8.7,8.7,0,0,0,.29-4.36c-.51-2.26-1.85-3.06-3.27-2.74s-2.06,1.41-2.4,3.86c-.43,3.31-1.77,5.14-3.81,5.59-2.73.61-5.48-1.11-6.3-4.76a8.47,8.47,0,0,1,.12-4.4l2.41.27a6.93,6.93,0,0,0-.22,3.71c.41,1.82,1.69,2.58,3,2.29s1.81-1.45,2.17-3.88c.44-3.17,1.57-5,4.11-5.6,3-.67,5.64,1.2,6.54,5.21a10,10,0,0,1-.11,5Z" transform="translate(-6.89 -5.92)"/><path d="M1134.08,458.08c4.19-.89,5.4-3.9,4.78-7a11.69,11.69,0,0,0-1.81-4.56l2.1-1a14.11,14.11,0,0,1,2.22,5.49c1,5.25-1.84,9.09-7,10.1s-9.82-1.22-10.8-6.21c-1.1-5.58,3.5-8,6.64-8.62a7.8,7.8,0,0,1,1.48-.18Zm-4-8.65c-2,.35-4.87,1.79-4.18,5.27.63,3.18,3.76,4,6,3.78Z" transform="translate(-6.89 -5.92)"/><path d="M1135.82,441.71a8.64,8.64,0,0,0,.36-4.36c-.47-2.27-1.8-3.09-3.23-2.79s-2.08,1.37-2.46,3.81c-.48,3.32-1.85,5.12-3.9,5.54-2.74.57-5.46-1.2-6.22-4.86a8.36,8.36,0,0,1,.19-4.4l2.41.31a6.78,6.78,0,0,0-.28,3.7c.38,1.83,1.64,2.61,2.93,2.34s1.83-1.43,2.23-3.84c.49-3.17,1.65-5,4.2-5.53,3-.63,5.62,1.28,6.46,5.31a9.93,9.93,0,0,1-.2,5Z" transform="translate(-6.89 -5.92)"/><path d="M1129.44,401.28a22.28,22.28,0,0,1,2.87,7c.77,3.6.5,6.76-1.23,9.54a12.4,12.4,0,0,1-8.1,5.2c-7.08,1.51-13.31-2.24-15-10.19a15.22,15.22,0,0,1-.19-6.17l2.66.22a12.5,12.5,0,0,0,.11,5.46c1.24,5.76,5.63,8.76,11.58,7.49s8.79-5.67,7.6-11.22a10.2,10.2,0,0,0-1.51-3.93l-7.07,1.52,1,4.8-2.45.52-1.68-7.81Z" transform="translate(-6.89 -5.92)"/><path d="M1123.47,383c1.81-.22,3.35-.47,4.71-.73l.34,2.78-2.8.52v.09a6.48,6.48,0,0,1,3.92,5.32c.34,2.7-.78,6.14-6.84,6.89l-10.1,1.24-.38-3.12,9.54-1.18c3.3-.41,5.41-1.71,5.06-4.55a4.61,4.61,0,0,0-3.4-3.8,4.85,4.85,0,0,0-1.64-.09l-10.59,1.31-.39-3.13Z" transform="translate(-6.89 -5.92)"/><path d="M1105.24,375.78a2,2,0,1,1,.33,3.91,1.93,1.93,0,0,1-2.13-1.79A1.89,1.89,0,0,1,1105.24,375.78Zm22.55,1.59-17.35,1.51-.27-3.14,17.34-1.51Z" transform="translate(-6.89 -5.92)"/><path d="M1114.31,369.86c-1.82.09-3.26.23-4.69.39l-.15-2.75,2.79-.31v-.09a6,6,0,0,1-3.48-5.32,5.11,5.11,0,0,1,3.23-5.08v-.08a7.05,7.05,0,0,1-2.36-1.84,5.87,5.87,0,0,1-1.42-3.76c-.12-2.32,1.19-5.82,7.24-6.13l10.24-.54.16,3.09L1116,348c-3.37.18-5.3,1.52-5.17,4.05a4.15,4.15,0,0,0,3,3.62,5.46,5.46,0,0,0,1.6.17l10.77-.56.16,3.09-10.44.54c-2.77.15-4.69,1.48-4.57,3.86a4.38,4.38,0,0,0,3.36,3.78,5.05,5.05,0,0,0,1.57.16l10.48-.55.16,3.09Z" transform="translate(-6.89 -5.92)"/><path d="M1125.41,329.74l-2.19.33v.09a6.48,6.48,0,0,1,2.71,5.27,5,5,0,0,1-4.87,5.43c-4.22.09-6.62-3.59-6.72-10.32H1114c-1.42,0-4,.49-3.93,4.05a8.53,8.53,0,0,0,1.4,4.51l-2.09.77a11,11,0,0,1-1.65-5.72c-.12-5.32,3.49-6.7,7-6.77l6.52-.15a27.21,27.21,0,0,0,4.16-.36Zm-8.88.69c0,3.43.71,7.34,4.07,7.26a2.79,2.79,0,0,0,3-3,4.36,4.36,0,0,0-3-4.18,3.28,3.28,0,0,0-1-.13Z" transform="translate(-6.89 -5.92)"/><path d="M1113.31,322.23c-2,0-3.8.08-5.41.18l0-2.77,3.42-.15v-.11a5.26,5.26,0,0,1-3.85-4.82,3.1,3.1,0,0,1,.08-.88l3,0a4.86,4.86,0,0,0-.09,1.07c0,2.24,1.71,3.8,4.09,4.21a8.53,8.53,0,0,0,1.48.12l9.3-.08,0,3.15Z" transform="translate(-6.89 -5.92)"/><path d="M1104.82,309c-2.35.06-3.75-.93-3.74-2.47a4.84,4.84,0,0,1,.8-2.24,3.72,3.72,0,0,0,.63-1.51c0-.56-.33-.91-1.53-1v-1.69c2.38,0,3.63.78,3.62,2.47a4.58,4.58,0,0,1-.76,2.2,3.5,3.5,0,0,0-.64,1.55c0,.57.61.87,1.62.95Zm20.45-8.07-2.2.27v.09a6.51,6.51,0,0,1,2.57,5.34,5,5,0,0,1-5,5.3c-4.22,0-6.52-3.77-6.44-10.49h-.37c-1.41,0-4,.38-4,3.94a8.42,8.42,0,0,0,1.28,4.54l-2.11.71a10.85,10.85,0,0,1-1.5-5.75c0-5.32,3.66-6.6,7.15-6.59l6.51,0a26.86,26.86,0,0,0,4.17-.24Zm-8.89.46c-.09,3.42.51,7.35,3.87,7.36a2.79,2.79,0,0,0,3-2.94,4.36,4.36,0,0,0-2.9-4.26,3.28,3.28,0,0,0-1-.15Z" transform="translate(-6.89 -5.92)"/><path d="M1117.23,291.41c4.29,0,6.1-2.67,6.15-5.85a11.76,11.76,0,0,0-.8-4.83l2.26-.52a14.16,14.16,0,0,1,1,5.83c-.09,5.35-3.71,8.5-8.94,8.41s-9.34-3.28-9.25-8.36c.11-5.68,5.12-7.08,8.32-7a7.22,7.22,0,0,1,1.48.14Zm-2.11-9.3c-2-.07-5.14.72-5.2,4.27-.06,3.23,2.84,4.66,5,4.95Z" transform="translate(-6.89 -5.92)"/><path d="M1122.46,275.74a8.61,8.61,0,0,0,1.35-4.16c.07-2.31-1-3.41-2.49-3.46s-2.35.86-3.28,3.15c-1.23,3.11-3,4.55-5.06,4.48-2.81-.08-5-2.42-4.94-6.16a8.5,8.5,0,0,1,1.2-4.23l2.27.85a7,7,0,0,0-1.12,3.54c-.05,1.87,1,2.91,2.3,2.95s2.12-1,3.07-3.22c1.2-3,2.76-4.48,5.35-4.42,3.09.09,5.18,2.55,5.06,6.66a9.81,9.81,0,0,1-1.35,4.85Z" transform="translate(-6.89 -5.92)"/><g class="cls-2"><path d="M19,599.75a33.28,33.28,0,0,1-.71-6c-.09-3.32.47-5.53,1.79-7.08a6.09,6.09,0,0,1,4.55-2A6.4,6.4,0,0,1,31,589h.09c.59-1.86,2.31-3,4.8-3.7a40.75,40.75,0,0,0,6.6-2.06l.1,3.25a32.07,32.07,0,0,1-5.76,1.76c-3.3.82-4.55,2.17-4.56,5l.09,3,10.51-.32L43,599ZM30,596.3l-.09-3.21c-.1-3.35-2-5.42-4.77-5.33-3.15.09-4.45,2.4-4.36,5.71a14.2,14.2,0,0,0,.37,3.09Z" transform="translate(-6.89 -5.92)"/><path d="M37.19,565.4c1.82,0,3.38-.16,4.75-.28l.09,2.79-2.84.25v.09a6.51,6.51,0,0,1,3.41,5.67c.08,2.72-1.35,6-7.45,6.22l-10.17.3-.09-3.15L34.5,577c3.32-.09,5.54-1.19,5.46-4a4.6,4.6,0,0,0-3-4.1,4.82,4.82,0,0,0-1.63-.24l-10.66.32-.09-3.15Z" transform="translate(-6.89 -5.92)"/><path d="M41.5,550.33l-2.19.35v.09A6.52,6.52,0,0,1,42.07,556a5,5,0,0,1-4.84,5.46c-4.21.13-6.64-3.54-6.79-10.26h-.37c-1.41,0-4,.52-3.9,4.08a8.52,8.52,0,0,0,1.44,4.5l-2.09.78a11,11,0,0,1-1.69-5.7c-.16-5.32,3.44-6.73,6.92-6.83l6.51-.19a28.05,28.05,0,0,0,4.16-.39Zm-8.87.76c0,3.43.77,7.33,4.13,7.23a2.78,2.78,0,0,0,2.94-3,4.35,4.35,0,0,0-3-4.16,3.25,3.25,0,0,0-1-.12Z" transform="translate(-6.89 -5.92)"/><path d="M16.79,535.64l-.38-13.06,2.6-.08.3,9.91,8.07-.24L27.11,523l2.59-.07L30,532.1l11-.33.09,3.15Z" transform="translate(-6.89 -5.92)"/><path d="M28.57,518.78c-2.05.06-3.8.17-5.41.31l-.08-2.78,3.4-.22V516a5.27,5.27,0,0,1-3.95-4.73,3.51,3.51,0,0,1,.06-.88l3-.09a4.49,4.49,0,0,0-.06,1.08c.06,2.23,1.79,3.75,4.17,4.11a8.79,8.79,0,0,0,1.48.09l9.3-.28.09,3.15Z" transform="translate(-6.89 -5.92)"/><path d="M39.92,497.19l-2.19.34v.09a6.52,6.52,0,0,1,2.75,5.25,5,5,0,0,1-4.84,5.46c-4.21.13-6.64-3.54-6.79-10.26h-.37c-1.41,0-4,.52-3.9,4.08a8.52,8.52,0,0,0,1.43,4.5l-2.08.78a10.93,10.93,0,0,1-1.69-5.7c-.16-5.32,3.43-6.72,6.92-6.83l6.51-.19a28.05,28.05,0,0,0,4.16-.39Zm-8.87.75c0,3.43.76,7.33,4.13,7.23a2.79,2.79,0,0,0,2.94-3,4.37,4.37,0,0,0-3-4.16,3.25,3.25,0,0,0-1-.12Z" transform="translate(-6.89 -5.92)"/><path d="M27,489.87c-1.81.05-3.25.15-4.69.28l-.09-2.8,2.86-.26V487a6.42,6.42,0,0,1-3.43-5.66c-.07-2.39,1.25-6.17,7.23-6.35l10.38-.31.1,3.15-10,.3c-2.81.08-5.13,1.21-5,4.17a4.58,4.58,0,0,0,3.38,4.17,4.75,4.75,0,0,0,1.47.17l10.49-.31.09,3.15Z" transform="translate(-6.89 -5.92)"/><path d="M38.1,457.13a12,12,0,0,1,1.16,5c.15,5.25-3.32,8.79-8.64,9s-9.38-3.38-9.55-9.07a10.16,10.16,0,0,1,.79-4.43l2.45.63a7.76,7.76,0,0,0-.72,3.73c.12,4,3.16,6.06,6.77,5.94,4-.12,6.43-2.78,6.33-6.26a9.17,9.17,0,0,0-.95-3.84Z" transform="translate(-6.89 -5.92)"/><path d="M16.19,450.53a2,2,0,1,1,.12,3.92,1.93,1.93,0,0,1-2-1.91A1.9,1.9,0,0,1,16.19,450.53Zm22.43,2.87-17.4.52-.1-3.15,17.4-.52Z" transform="translate(-6.89 -5.92)"/><path d="M35.16,445.52a8.55,8.55,0,0,0,1.11-4.23c-.06-2.31-1.23-3.35-2.69-3.3s-2.29,1-3.09,3.32c-1,3.18-2.71,4.72-4.79,4.78-2.81.08-5.17-2.13-5.29-5.87a8.51,8.51,0,0,1,.95-4.3l2.32.72a6.93,6.93,0,0,0-.92,3.6c.06,1.87,1.17,2.85,2.48,2.81s2.05-1.08,2.87-3.39c1-3,2.49-4.63,5.09-4.72,3.08-.09,5.31,2.24,5.44,6.35a10,10,0,0,1-1.07,4.93Z" transform="translate(-6.89 -5.92)"/><path d="M36.94,418.34a11.87,11.87,0,0,1,1.16,5c.16,5.25-3.31,8.79-8.63,8.95s-9.39-3.38-9.56-9.07a10.29,10.29,0,0,1,.8-4.43l2.45.63a7.74,7.74,0,0,0-.73,3.73c.12,4,3.16,6.06,6.78,5.94,4-.12,6.43-2.79,6.33-6.26a9.33,9.33,0,0,0-.95-3.84Z" transform="translate(-6.89 -5.92)"/><path d="M28.13,399.34c6.45-.19,9.4,4.19,9.52,8.37.15,4.72-3.19,8.47-8.71,8.64-5.82.17-9.34-3.56-9.48-8.37C19.31,403,22.83,399.49,28.13,399.34Zm.62,13.79c3.81-.12,6.62-2.39,6.53-5.48s-3-5.21-6.94-5.1c-2.95.09-6.62,1.69-6.51,5.45S25.45,413.23,28.75,413.13Z" transform="translate(-6.89 -5.92)"/><path d="M10.66,373.18l21.06-.62c1.55-.05,3.29-.16,4.48-.28l.09,2.81-3,.25v.09a6.39,6.39,0,0,1,3.58,5.8c.12,4.21-3.35,7.57-8.62,7.73-5.82.2-9.46-3.31-9.59-7.54a5.81,5.81,0,0,1,2.49-5.33V376l-10.39.31ZM26,375.87a7.05,7.05,0,0,0-1.35.18,4.67,4.67,0,0,0-3.5,4.69c.1,3.28,3,5.15,6.85,5,3.54-.11,6.42-2,6.32-5.37a4.78,4.78,0,0,0-3.94-4.51,5.38,5.38,0,0,0-1.36-.12Z" transform="translate(-6.89 -5.92)"/><path d="M27.87,365.62c4.27-.19,6-3,5.86-6.14a11.58,11.58,0,0,0-1-4.79l2.23-.62a14,14,0,0,1,1.28,5.77c.16,5.35-3.31,8.67-8.52,8.82s-9.49-2.82-9.64-7.91c-.17-5.67,4.77-7.3,8-7.4a7.85,7.85,0,0,1,1.49.06Zm-2.55-9.2c-2,0-5.1,1-5,4.52.09,3.23,3.05,4.52,5.26,4.71Z" transform="translate(-6.89 -5.92)"/><path d="M31.48,341.91a11,11,0,0,0,1.41-5.64c-.1-3.2-1.83-5-4.29-5-2.24.07-3.53,1.42-4.66,4.73-1.28,4-3.29,6.52-6.69,6.62-3.77.11-6.67-3-6.81-7.67a11.11,11.11,0,0,1,1-5.38l2.59.79A9.25,9.25,0,0,0,13,335c.09,3.33,2.11,4.53,3.76,4.48,2.25-.07,3.32-1.58,4.51-5,1.49-4.16,3.4-6.29,7-6.4,3.72-.11,7.07,2.53,7.25,8.28a12.59,12.59,0,0,1-1.4,6.24Z" transform="translate(-6.89 -5.92)"/><path d="M25.42,308.05c6.44-.2,9.39,4.19,9.52,8.37.14,4.72-3.19,8.47-8.72,8.64-5.82.17-9.34-3.56-9.48-8.37C16.59,311.69,20.12,308.2,25.42,308.05ZM26,321.84c3.82-.12,6.63-2.39,6.53-5.48s-3-5.21-6.94-5.1c-2.94.09-6.62,1.69-6.51,5.45S22.73,321.94,26,321.84Z" transform="translate(-6.89 -5.92)"/><path d="M29,289.37c1.82-.06,3.38-.16,4.76-.29l.08,2.8-2.84.25v.09a6.51,6.51,0,0,1,3.42,5.66c.08,2.73-1.35,6-7.45,6.22l-10.17.31-.1-3.15,9.62-.29c3.31-.1,5.54-1.2,5.45-4.05a4.6,4.6,0,0,0-3-4.1,4.78,4.78,0,0,0-1.63-.24l-10.65.31-.1-3.14Z" transform="translate(-6.89 -5.92)"/><path d="M11.05,280.82l5-.15-.13-4.55,2.39-.07.14,4.55,9.38-.28c2.16-.06,3.37-.72,3.32-2.49a6.49,6.49,0,0,0-.29-1.83l2.4-.22a7.76,7.76,0,0,1,.52,2.82,4.42,4.42,0,0,1-1.23,3.45c-.94.9-2.46,1.3-4.51,1.37l-9.5.28.08,2.69-2.4.08-.08-2.7L12,283.9Z" transform="translate(-6.89 -5.92)"/><path d="M23.89,256.77c6.44-.19,9.4,4.2,9.52,8.38.14,4.72-3.19,8.46-8.71,8.63-5.83.17-9.35-3.55-9.49-8.37C15.06,260.41,18.59,256.93,23.89,256.77Zm.61,13.79c3.82-.11,6.63-2.39,6.54-5.47s-3-5.22-6.95-5.1c-2.94.08-6.62,1.68-6.51,5.44S21.2,270.66,24.5,270.56Z" transform="translate(-6.89 -5.92)"/><path d="M19.94,252.88c-1.82.05-3.26.15-4.7.28l-.08-2.75,2.8-.25v-.09a6,6,0,0,1-3.37-5.39,5.12,5.12,0,0,1,3.35-5v-.07a7.18,7.18,0,0,1-2.33-1.9,6,6,0,0,1-1.34-3.79c-.06-2.33,1.33-5.79,7.38-6l10.25-.31.09,3.09-9.84.3c-3.37.1-5.33,1.4-5.25,3.93a4.11,4.11,0,0,0,3,3.68,5,5,0,0,0,1.59.21l10.77-.32.09,3.09-10.44.31c-2.77.08-4.73,1.37-4.65,3.76a4.36,4.36,0,0,0,3.27,3.85,5,5,0,0,0,1.57.19l10.49-.31.09,3.09Z" transform="translate(-6.89 -5.92)"/><path d="M31.46,212.84l-2.19.35v.09A6.47,6.47,0,0,1,32,218.53,5,5,0,0,1,27.19,224c-4.21.13-6.64-3.54-6.79-10.26H20c-1.42,0-4,.51-3.9,4.08a8.45,8.45,0,0,0,1.43,4.49l-2.08.78a11,11,0,0,1-1.7-5.69c-.16-5.32,3.44-6.73,6.93-6.83l6.51-.2a26.82,26.82,0,0,0,4.15-.38Zm-8.87.76c0,3.43.76,7.33,4.12,7.23a2.8,2.8,0,0,0,2.95-3.05,4.36,4.36,0,0,0-3-4.15,3.28,3.28,0,0,0-1-.12Z" transform="translate(-6.89 -5.92)"/><path d="M8.81,202.27a1.91,1.91,0,0,1,2,2,1.89,1.89,0,0,1-1.91,2,1.94,1.94,0,0,1-2-1.91A1.91,1.91,0,0,1,8.81,202.27Zm22.42,2.88-17.4.51-.09-3.14,17.4-.52Z" transform="translate(-6.89 -5.92)"/><path d="M21.64,181.24c6.45-.19,9.4,4.2,9.52,8.38.14,4.72-3.19,8.46-8.71,8.63-5.82.17-9.34-3.56-9.49-8.37C12.81,184.88,16.34,181.4,21.64,181.24ZM22.26,195c3.81-.11,6.62-2.39,6.53-5.47s-3-5.22-6.94-5.1c-3,.08-6.62,1.68-6.51,5.44S19,195.13,22.26,195Z" transform="translate(-6.89 -5.92)"/><path d="M18.41,177.33c-2.05.06-3.8.17-5.41.31l-.09-2.78,3.41-.22v-.11a5.27,5.27,0,0,1-4-4.73,3.63,3.63,0,0,1,.06-.89l3-.08a5.14,5.14,0,0,0-.05,1.08c.06,2.23,1.79,3.75,4.17,4.11a7.88,7.88,0,0,0,1.48.08l9.3-.27.09,3.15Z" transform="translate(-6.89 -5.92)"/></g><g class="cls-3"><path d="M842.72,496.84l-6.15.16-.06-2.2,15-.39,0,2.21-6.18.16.46,18-2.63.07Z" transform="translate(-6.89 -5.92)"/><path d="M853.58,500.07l3.06,8.06c.52,1.33.92,2.52,1.28,3.72H858c.3-1.21.68-2.43,1.11-3.77l2.63-8.21,2.76-.07-5.33,14.65-2.52.07-5.89-14.36Z" transform="translate(-6.89 -5.92)"/><path d="M865.52,512.72a1.78,1.78,0,0,1,1.74-2,1.9,1.9,0,1,1-1.74,2Z" transform="translate(-6.89 -5.92)"/><path d="M894.21,512.59a18.6,18.6,0,0,1-6.19,1.28A9.47,9.47,0,0,1,877.38,504c-.16-6,3.86-10.55,10.64-10.74a12.81,12.81,0,0,1,5.08.79l-.6,2.15a10.25,10.25,0,0,0-4.49-.75c-4.9.14-8,3.28-7.89,8.34s3.3,8.07,8,7.94a8.47,8.47,0,0,0,3.45-.64l-.17-6-4.09.11-.05-2.09,6.65-.18Z" transform="translate(-6.89 -5.92)"/><path d="M900.62,494.69a1.64,1.64,0,1,1-3.27.1,1.61,1.61,0,0,1,1.6-1.69A1.57,1.57,0,0,1,900.62,494.69Zm-2.41,18.69-.42-14.5,2.63-.08.41,14.5Z" transform="translate(-6.89 -5.92)"/><path d="M904.9,503.19c-.06-1.71-.14-3.17-.26-4.51l2.31-.07.19,2.84h.09a4.39,4.39,0,0,1,3.95-3.29,2.86,2.86,0,0,1,.73,0l.07,2.48a4.07,4.07,0,0,0-.89-.05c-1.86.05-3.14,1.49-3.44,3.48a8,8,0,0,0-.07,1.23l.23,7.75-2.62.08Z" transform="translate(-6.89 -5.92)"/><path d="M922.89,512.65l-.28-1.83h-.08a5.41,5.41,0,0,1-4.37,2.3,4.15,4.15,0,0,1-4.56-4c-.1-3.52,3-5.54,8.56-5.66v-.31c0-1.18-.43-3.35-3.4-3.25a7.07,7.07,0,0,0-3.75,1.19l-.65-1.73a9.19,9.19,0,0,1,4.75-1.42c4.43-.13,5.6,2.87,5.69,5.78l.16,5.42a23.59,23.59,0,0,0,.32,3.47Zm-.62-7.4c-2.86,0-6.11.64-6,3.44a2.32,2.32,0,0,0,2.54,2.45,3.62,3.62,0,0,0,3.46-2.53,2.73,2.73,0,0,0,.1-.83Z" transform="translate(-6.89 -5.92)"/><path d="M928.86,509.79a7.2,7.2,0,0,0,3.52.95c1.93,0,2.8-1,2.77-2.23s-.82-1.91-2.76-2.59c-2.65-.88-3.92-2.28-3.95-4-.06-2.34,1.79-4.3,4.91-4.37a7,7,0,0,1,3.58.8l-.61,1.94a5.7,5.7,0,0,0-3-.79c-1.56,0-2.38,1-2.36,2s.9,1.72,2.82,2.41c2.52.87,3.85,2.1,3.91,4.27.06,2.57-1.89,4.42-5.32,4.5a8.29,8.29,0,0,1-4.1-.91Z" transform="translate(-6.89 -5.92)"/><path d="M940.72,509.52a7.17,7.17,0,0,0,3.52,1c1.93,0,2.8-1,2.78-2.21s-.81-1.92-2.75-2.61c-2.64-.89-3.91-2.3-3.94-4,0-2.33,1.82-4.29,4.94-4.35a7,7,0,0,1,3.57.83l-.62,1.93a5.62,5.62,0,0,0-3-.8c-1.56,0-2.39.94-2.37,2s.89,1.72,2.81,2.42c2.52.88,3.84,2.12,3.89,4.29.05,2.57-1.91,4.41-5.34,4.47a8.29,8.29,0,0,1-4.1-.93Z" transform="translate(-6.89 -5.92)"/><path d="M966,504.39c.08,5.37-3.61,7.78-7.1,7.83-3.94,0-7-2.77-7.08-7.38-.07-4.85,3.08-7.74,7.09-7.79C963.1,497,966,500,966,504.39Zm-11.5.33c.05,3.19,1.91,5.55,4.48,5.52s4.39-2.43,4.34-5.72c0-2.46-1.32-5.54-4.45-5.5S954.48,502,954.52,504.72Z" transform="translate(-6.89 -5.92)"/><path d="M969.21,490.45l2.62,0,.23,21.3-2.63,0Z" transform="translate(-6.89 -5.92)"/></g><path d="M155.85,714.21a26.81,26.81,0,0,1,5-.59c2.77-.09,4.61.38,5.91,1.48a5.07,5.07,0,0,1,1.7,3.79,5.31,5.31,0,0,1-3.65,5.27v.07c1.55.5,2.53,1.92,3.09,4a34.32,34.32,0,0,0,1.72,5.5l-2.7.09a26.52,26.52,0,0,1-1.48-4.8c-.69-2.75-1.81-3.79-4.18-3.79l-2.47.07.27,8.76-2.61.08Zm2.89,9.12,2.67-.09c2.79-.08,4.51-1.66,4.44-4-.08-2.63-2-3.71-4.76-3.63a11.33,11.33,0,0,0-2.58.31Z" transform="translate(-6.89 -5.92)"/><path d="M184.5,729.3c.05,1.52.14,2.82.24,4l-2.33.08L182.2,731h-.07a5.43,5.43,0,0,1-4.72,2.85c-2.27.07-5-1.12-5.19-6.2l-.26-8.47,2.62-.09.25,8c.09,2.76,1,4.61,3.38,4.54a3.85,3.85,0,0,0,3.42-2.53,4.33,4.33,0,0,0,.2-1.36l-.28-8.88,2.62-.08Z" transform="translate(-6.89 -5.92)"/><path d="M197.07,732.88l-.29-1.82h-.08a5.42,5.42,0,0,1-4.37,2.3,4.15,4.15,0,0,1-4.56-4c-.11-3.51,2.95-5.54,8.55-5.67v-.31c0-1.18-.44-3.35-3.41-3.24a7,7,0,0,0-3.74,1.2l-.65-1.74a9.13,9.13,0,0,1,4.74-1.42c4.44-.13,5.61,2.86,5.7,5.77l.17,5.42a22.23,22.23,0,0,0,.33,3.47Zm-.64-7.39c-2.86,0-6.11.64-6,3.44a2.32,2.32,0,0,0,2.54,2.45,3.64,3.64,0,0,0,3.46-2.54,3.08,3.08,0,0,0,.1-.83Z" transform="translate(-6.89 -5.92)"/><path d="M209.28,712.27l10.89-.34.06,2.18-8.26.25.21,6.73,7.63-.24.07,2.17-7.63.23.28,9.15-2.62.08Z" transform="translate(-6.89 -5.92)"/><path d="M223.36,722.07c-.06-1.71-.15-3.17-.26-4.51l2.31-.08.19,2.85h.09a4.42,4.42,0,0,1,3.94-3.3,3.4,3.4,0,0,1,.73.05l.08,2.49a3.61,3.61,0,0,0-.9,0c-1.86,0-3.13,1.5-3.42,3.48a7,7,0,0,0-.07,1.23l.24,7.75-2.62.08Z" transform="translate(-6.89 -5.92)"/><path d="M241.36,731.5l-.29-1.82H241a5.37,5.37,0,0,1-4.37,2.3,4.14,4.14,0,0,1-4.56-4c-.1-3.51,2.95-5.54,8.55-5.67V722c0-1.18-.43-3.35-3.4-3.25a7.16,7.16,0,0,0-3.75,1.2l-.65-1.73a9.1,9.1,0,0,1,4.75-1.42c4.43-.14,5.6,2.86,5.69,5.76l.17,5.43a22,22,0,0,0,.33,3.46Zm-.64-7.39c-2.86,0-6.11.64-6,3.45a2.32,2.32,0,0,0,2.54,2.45,3.63,3.63,0,0,0,3.46-2.54,2.73,2.73,0,0,0,.1-.83Z" transform="translate(-6.89 -5.92)"/><path d="M247.44,720.72c0-1.51-.13-2.71-.24-3.91l2.33-.07.22,2.38h.07a5.36,5.36,0,0,1,4.71-2.86c2-.06,5.15,1,5.31,6l.26,8.65-2.62.08-.26-8.36c-.07-2.34-1-4.28-3.48-4.2a3.78,3.78,0,0,0-3.47,2.82,4.12,4.12,0,0,0-.15,1.22l.27,8.74-2.62.08Z" transform="translate(-6.89 -5.92)"/><path d="M274.73,729.94a10.08,10.08,0,0,1-4.14,1c-4.37.14-7.33-2.75-7.46-7.18a7.4,7.4,0,0,1,7.55-8,8.78,8.78,0,0,1,3.69.66l-.53,2.05a6.35,6.35,0,0,0-3.1-.61c-3.31.11-5.05,2.64-4.95,5.66.11,3.35,2.33,5.35,5.22,5.26a7.71,7.71,0,0,0,3.21-.79Z" transform="translate(-6.89 -5.92)"/><path d="M280.23,711.68a1.59,1.59,0,0,1-1.63,1.69,1.56,1.56,0,0,1-1.64-1.59,1.64,1.64,0,1,1,3.27-.1Zm-2.37,18.69-.45-14.5,2.62-.08.45,14.5Z" transform="translate(-6.89 -5.92)"/><path d="M284.42,727.48a7.21,7.21,0,0,0,3.53.92c1.92-.06,2.79-1,2.75-2.24s-.83-1.91-2.78-2.57c-2.65-.87-3.93-2.26-4-4-.07-2.33,1.77-4.31,4.88-4.4a6.94,6.94,0,0,1,3.58.78l-.59,1.93a5.76,5.76,0,0,0-3-.76c-1.56.05-2.38,1-2.34,2.07s.9,1.71,2.83,2.39c2.52.85,3.86,2.07,3.94,4.23.08,2.57-1.87,4.44-5.29,4.54a8.26,8.26,0,0,1-4.11-.88Z" transform="translate(-6.89 -5.92)"/><path d="M307.07,728.94a10,10,0,0,1-4.14,1c-4.37.13-7.32-2.75-7.46-7.19a7.39,7.39,0,0,1,7.55-8,8.44,8.44,0,0,1,3.69.66l-.52,2a6.56,6.56,0,0,0-3.11-.6c-3.31.1-5.05,2.64-4.95,5.65.11,3.36,2.33,5.36,5.22,5.27a7.64,7.64,0,0,0,3.21-.8Z" transform="translate(-6.89 -5.92)"/><path d="M322.91,721.57c.17,5.37-3.49,7.84-7,7.95-3.93.12-7.06-2.65-7.2-7.25-.16-4.86,2.95-7.79,7-7.92C319.87,714.22,322.77,717.16,322.91,721.57Zm-11.49.53c.1,3.18,2,5.52,4.57,5.44s4.34-2.5,4.24-5.79c-.08-2.45-1.41-5.52-4.54-5.42S311.33,719.35,311.42,722.1Z" transform="translate(-6.89 -5.92)"/><path d="M348.26,727.27a18.45,18.45,0,0,1-6.18,1.31,9.49,9.49,0,0,1-10.68-9.85c-.18-6,3.83-10.57,10.6-10.78a12.5,12.5,0,0,1,5.08.77l-.58,2.15a10.29,10.29,0,0,0-4.49-.73c-4.91.15-8,3.3-7.87,8.36s3.33,8.06,8.06,7.92a8.39,8.39,0,0,0,3.45-.66l-.19-6-4.09.13-.06-2.09,6.65-.2Z" transform="translate(-6.89 -5.92)"/><path d="M354.51,709.16a1.63,1.63,0,1,1-3.26.2,1.6,1.6,0,0,1,1.54-1.74A1.57,1.57,0,0,1,354.51,709.16Zm-1.78,18.75-.9-14.47,2.62-.17.9,14.48Z" transform="translate(-6.89 -5.92)"/><path d="M358.66,706.24l2.62-.12,1,21.28-2.62.12Z" transform="translate(-6.89 -5.92)"/><path d="M384.92,705.32l.5,17.55c0,1.29.12,2.74.22,3.73l-2.34.07-.21-2.5H383a5.32,5.32,0,0,1-4.84,3c-3.51.1-6.3-2.8-6.43-7.19-.16-4.85,2.76-7.88,6.29-8a4.86,4.86,0,0,1,4.44,2.07h.06l-.25-8.66Zm-2.26,12.76a5.38,5.38,0,0,0-.15-1.12,3.91,3.91,0,0,0-3.9-2.93c-2.73.08-4.3,2.52-4.21,5.71.09,2.94,1.62,5.35,4.47,5.27a4,4,0,0,0,3.76-3.28,4.53,4.53,0,0,0,.1-1.13Z" transform="translate(-6.89 -5.92)"/><path d="M391.22,719.71c.12,3.56,2.42,5,5.07,4.94a9.9,9.9,0,0,0,4-.82l.5,1.86a11.81,11.81,0,0,1-4.82,1c-4.46.09-7.2-2.83-7.28-7.19s2.43-7.88,6.67-8c4.73-.09,6.05,4,6.1,6.71a6.93,6.93,0,0,1-.06,1.24Zm7.69-2.05c0-1.66-.76-4.26-3.72-4.2-2.7,0-3.8,2.51-4,4.35Z" transform="translate(-6.89 -5.92)"/><path d="M414.5,719.75l-2,6.38-2.71,0,6.66-20.3,3.14,0L426.69,726l-2.79,0-2.23-6.33Zm6.62-2.11-2.07-5.8c-.45-1.32-.77-2.52-1.08-3.68h-.07c-.28,1.19-.58,2.43-1,3.67L415,717.7Z" transform="translate(-6.89 -5.92)"/><path d="M429.68,716.06c.09-1.72.12-3.18.11-4.52l2.31.11,0,2.85h.09a4.41,4.41,0,0,1,4.2-3,2.79,2.79,0,0,1,.73.11l-.13,2.48a4.36,4.36,0,0,0-.89-.12c-1.86-.1-3.25,1.24-3.7,3.19a6.64,6.64,0,0,0-.17,1.23l-.4,7.74-2.62-.14Z" transform="translate(-6.89 -5.92)"/><path d="M446.86,726.93l-.14-1.84h-.07A5.4,5.4,0,0,1,442.1,727a4.13,4.13,0,0,1-4.21-4.38c.17-3.51,3.38-5.28,9-5l0-.31c.06-1.18-.16-3.37-3.13-3.51a7,7,0,0,0-3.83.89l-.51-1.78a9.1,9.1,0,0,1,4.85-1c4.43.22,5.35,3.31,5.2,6.21l-.27,5.42a23.34,23.34,0,0,0,0,3.48Zm0-7.42c-2.85-.2-6.14.14-6.28,2.94a2.32,2.32,0,0,0,2.33,2.65,3.62,3.62,0,0,0,3.65-2.24,2.61,2.61,0,0,0,.17-.83Z" transform="translate(-6.89 -5.92)"/><path d="M465.58,723.9c-.08,1.53-.09,2.83-.08,4l-2.33-.12,0-2.38h-.07a5.42,5.42,0,0,1-4.94,2.45c-2.26-.11-4.92-1.52-4.66-6.6l.43-8.47,2.62.13-.41,8c-.14,2.76.63,4.68,3,4.8a3.85,3.85,0,0,0,3.62-2.24,4.07,4.07,0,0,0,.3-1.34l.46-8.87,2.62.13Zm-.94-16.9-3.87,4.11-1.87-.1,2.85-4.16Z" transform="translate(-6.89 -5.92)"/><path d="M466,732.1a4.13,4.13,0,0,0,2.93-1c.76-.78,1.11-1.91,1.29-5.39l.62-12.12,2.62.13-.67,13.14c-.14,2.82-.68,4.62-2,5.89a6.74,6.74,0,0,1-4.58,1.41Zm8-22.43a1.64,1.64,0,1,1-3.27-.17,1.61,1.61,0,0,1,1.74-1.55A1.58,1.58,0,0,1,474,709.67Z" transform="translate(-6.89 -5.92)"/><path d="M490.56,721.75c-.27,5.36-4.11,7.52-7.6,7.34-3.93-.2-6.82-3.22-6.58-7.82.24-4.85,3.58-7.52,7.59-7.32S490.79,717.33,490.56,721.75Zm-11.5-.42c-.16,3.18,1.54,5.66,4.11,5.8s4.54-2.14,4.71-5.43c.12-2.45-1-5.62-4.09-5.77S479.2,718.58,479.06,721.33Z" transform="translate(-6.89 -5.92)"/><path d="M710.93,721.44a26.12,26.12,0,0,1,5,0c2.77.21,4.55.88,5.71,2.11a5,5,0,0,1,1.28,4,5.33,5.33,0,0,1-4.2,4.84v.07c1.5.66,2.31,2.19,2.64,4.31a33.41,33.41,0,0,0,1.12,5.66l-2.7-.21a25.73,25.73,0,0,1-.95-4.93c-.38-2.81-1.39-4-3.74-4.23l-2.46-.19-.69,8.73-2.6-.2Zm1.88,9.37,2.66.21c2.79.22,4.67-1.16,4.85-3.47.21-2.61-1.59-3.9-4.34-4.12a11.2,11.2,0,0,0-2.59,0Z" transform="translate(-6.89 -5.92)"/><path d="M737.75,739.57c-.11,1.52-.17,2.82-.19,4l-2.32-.18,0-2.38h-.07a5.41,5.41,0,0,1-5,2.31c-2.26-.18-4.88-1.66-4.48-6.73l.67-8.46,2.62.21-.64,8c-.21,2.76.5,4.7,2.87,4.89a3.84,3.84,0,0,0,3.67-2.14,4,4,0,0,0,.35-1.33l.7-8.86,2.62.21Z" transform="translate(-6.89 -5.92)"/><path d="M749.86,744.51l-.08-1.84h-.08a5.42,5.42,0,0,1-4.6,1.81A4.15,4.15,0,0,1,741,740c.28-3.51,3.54-5.19,9.12-4.7l0-.31c.1-1.18-.06-3.38-3-3.6a7,7,0,0,0-3.86.78l-.46-1.8a9.26,9.26,0,0,1,4.88-.89c4.42.35,5.26,3.46,5,6.36l-.43,5.41a22.92,22.92,0,0,0-.06,3.48Zm.18-7.42c-2.84-.28-6.14,0-6.36,2.77a2.32,2.32,0,0,0,2.25,2.71,3.63,3.63,0,0,0,3.72-2.14,2.93,2.93,0,0,0,.19-.82Z" transform="translate(-6.89 -5.92)"/><path d="M764.57,725.53l10.84,1.1-.22,2.16L767,728l-.67,6.7,7.59.77-.21,2.15-7.6-.77-.92,9.1-2.61-.26Z" transform="translate(-6.89 -5.92)"/><path d="M777.1,737.08c.16-1.71.25-3.16.3-4.51l2.31.22-.17,2.84h.09a4.42,4.42,0,0,1,4.32-2.79,3.14,3.14,0,0,1,.73.15l-.24,2.47a4,4,0,0,0-.88-.16c-1.85-.18-3.29,1.1-3.83,3a6.33,6.33,0,0,0-.23,1.21l-.72,7.72-2.61-.25Z" transform="translate(-6.89 -5.92)"/><path d="M793.77,748.57l-.08-1.84h-.08a5.41,5.41,0,0,1-4.6,1.79,4.13,4.13,0,0,1-4.07-4.51c.29-3.51,3.55-5.17,9.13-4.67l0-.31c.1-1.17-.05-3.38-3-3.61a7.1,7.1,0,0,0-3.86.77l-.45-1.8a9.16,9.16,0,0,1,4.88-.87c4.42.37,5.24,3.48,5,6.37l-.44,5.41a21.75,21.75,0,0,0-.07,3.48Zm.2-7.41c-2.84-.3-6.14-.06-6.37,2.74a2.33,2.33,0,0,0,2.25,2.72,3.64,3.64,0,0,0,3.72-2.13,2.85,2.85,0,0,0,.19-.82Z" transform="translate(-6.89 -5.92)"/><path d="M800.91,738.51c.11-1.51.15-2.71.17-3.92l2.33.18,0,2.39h.07a5.35,5.35,0,0,1,5-2.35c2,.15,5,1.58,4.63,6.55l-.65,8.63-2.62-.19.63-8.35c.18-2.34-.55-4.36-3-4.55a3.81,3.81,0,0,0-3.75,2.43,4.23,4.23,0,0,0-.27,1.21l-.66,8.72-2.62-.2Z" transform="translate(-6.89 -5.92)"/><path d="M827.07,750.57a10.06,10.06,0,0,1-4.21.52c-4.37-.32-7-3.51-6.67-7.93a7.4,7.4,0,0,1,8.35-7.14,8.53,8.53,0,0,1,3.6,1.05l-.73,2a6.47,6.47,0,0,0-3-.93c-3.3-.25-5.29,2.09-5.51,5.1-.26,3.35,1.75,5.58,4.63,5.79a7.73,7.73,0,0,0,3.27-.45Z" transform="translate(-6.89 -5.92)"/><path d="M830.12,751.33l1.11-14.47,2.61.2-1.1,14.47ZM834.48,733a1.63,1.63,0,1,1-1.5-1.76A1.58,1.58,0,0,1,834.48,733Z" transform="translate(-6.89 -5.92)"/><path d="M836.94,749.15a7.28,7.28,0,0,0,3.41,1.31c1.92.15,2.88-.73,3-1.94s-.61-2-2.48-2.86c-2.54-1.15-3.67-2.66-3.53-4.4.19-2.33,2.23-4.09,5.34-3.85a7,7,0,0,1,3.47,1.17l-.8,1.86a5.68,5.68,0,0,0-2.9-1.08c-1.55-.12-2.47.7-2.55,1.79s.71,1.8,2.55,2.69c2.42,1.12,3.62,2.48,3.46,4.64-.2,2.56-2.33,4.2-5.75,3.93a8.2,8.2,0,0,1-4-1.32Z" transform="translate(-6.89 -5.92)"/><path d="M859.27,753a10,10,0,0,1-4.21.56c-4.36-.3-7-3.46-6.72-7.89a7.38,7.38,0,0,1,8.29-7.19,8.5,8.5,0,0,1,3.61,1l-.72,2a6.38,6.38,0,0,0-3-.91c-3.3-.22-5.28,2.13-5.48,5.14-.22,3.36,1.79,5.56,4.68,5.76a7.68,7.68,0,0,0,3.27-.48Z" transform="translate(-6.89 -5.92)"/><path d="M875.7,747.13c-.34,5.36-4.22,7.46-7.69,7.24-3.93-.26-6.78-3.31-6.48-7.91.31-4.85,3.68-7.47,7.68-7.21C873.38,739.52,876,742.72,875.7,747.13Zm-11.49-.58c-.2,3.18,1.46,5.69,4,5.85s4.57-2.07,4.78-5.36c.16-2.45-.88-5.62-4-5.83S864.39,743.81,864.21,746.55Z" transform="translate(-6.89 -5.92)"/><path d="M900.43,755.21a18.66,18.66,0,0,1-6.28.71,9.49,9.49,0,0,1-9.7-10.82c.39-6,4.81-10.16,11.57-9.73a12.73,12.73,0,0,1,5,1.25l-.79,2.09a10.23,10.23,0,0,0-4.4-1.15c-4.89-.31-8.3,2.53-8.62,7.58s2.55,8.34,7.27,8.64a8.48,8.48,0,0,0,3.5-.32l.38-6-4.08-.25.13-2.09,6.64.42Z" transform="translate(-6.89 -5.92)"/><path d="M904.3,756.36l.92-14.48,2.62.17-.92,14.48ZM908.42,738a1.64,1.64,0,1,1-1.53-1.75A1.6,1.6,0,0,1,908.42,738Z" transform="translate(-6.89 -5.92)"/><path d="M912.65,735.55l2.62.16L913.94,757l-2.62-.17Z" transform="translate(-6.89 -5.92)"/><path d="M938.55,737.17l-1.09,17.52c-.08,1.29-.12,2.74-.11,3.74l-2.34-.14,0-2.52H935a5.33,5.33,0,0,1-5.09,2.53c-3.51-.22-6-3.36-5.76-7.75.28-4.84,3.47-7.59,7-7.37a4.82,4.82,0,0,1,4.23,2.47h.06l.54-8.65Zm-3.41,12.5a4.77,4.77,0,0,0,0-1.13,3.9,3.9,0,0,0-3.62-3.27c-2.73-.17-4.51,2.12-4.71,5.31-.18,2.94,1.13,5.47,4,5.65a4,4,0,0,0,4-2.93,4.66,4.66,0,0,0,.2-1.12Z" transform="translate(-6.89 -5.92)"/><path d="M943.49,752c-.16,3.57,2,5.17,4.66,5.33a9.67,9.67,0,0,0,4.05-.51l.36,1.9a11.6,11.6,0,0,1-4.89.64c-4.45-.27-6.95-3.39-6.69-7.74s3-7.66,7.28-7.41c4.72.28,5.71,4.5,5.55,7.17a6.73,6.73,0,0,1-.16,1.23Zm7.82-1.43c.13-1.66-.42-4.31-3.37-4.48-2.69-.16-4,2.2-4.3,4Z" transform="translate(-6.89 -5.92)"/><path d="M966.61,753.77,964.19,760l-2.7-.15L969.41,740l3.14.16,5.84,20.55-2.79-.15-1.83-6.45Zm6.74-1.69-1.7-5.92c-.36-1.34-.6-2.56-.84-3.73h-.07c-.35,1.17-.73,2.38-1.2,3.6l-2.29,5.74Z" transform="translate(-6.89 -5.92)"/><path d="M981.59,750.89c.08-1.71.1-3.17.09-4.52l2.31.11,0,2.85h.09a4.4,4.4,0,0,1,4.18-3,2.67,2.67,0,0,1,.73.11l-.11,2.47a4.42,4.42,0,0,0-.9-.11c-1.85-.09-3.23,1.25-3.68,3.2a7.63,7.63,0,0,0-.16,1.23l-.36,7.74-2.62-.12Z" transform="translate(-6.89 -5.92)"/><path d="M998.79,761.63l-.17-1.84h-.07a5.42,5.42,0,0,1-4.53,2,4.14,4.14,0,0,1-4.26-4.33c.14-3.52,3.33-5.32,8.93-5.06v-.31c0-1.18-.2-3.38-3.17-3.48a7.07,7.07,0,0,0-3.82.94l-.53-1.78a9.09,9.09,0,0,1,4.83-1.09c4.43.18,5.4,3.25,5.28,6.16l-.21,5.42a23,23,0,0,0,.08,3.48Zm-.12-7.42c-2.86-.18-6.14.21-6.25,3a2.32,2.32,0,0,0,2.36,2.62,3.63,3.63,0,0,0,3.63-2.29,2.77,2.77,0,0,0,.16-.82Z" transform="translate(-6.89 -5.92)"/><path d="M1017.39,758.24c0,1.53,0,2.83,0,4l-2.33-.07-.08-2.38h-.07a5.4,5.4,0,0,1-4.88,2.56c-2.27-.06-4.95-1.41-4.81-6.5l.25-8.47,2.62.08-.23,8c-.08,2.76.73,4.66,3.11,4.73a3.86,3.86,0,0,0,3.56-2.32,4.08,4.08,0,0,0,.27-1.34l.26-8.88,2.63.07Zm-1.31-16.87-3.78,4.19-1.87,0,2.75-4.22Z" transform="translate(-6.89 -5.92)"/><path d="M1018,766.42a4.12,4.12,0,0,0,2.9-1.06c.74-.8,1.06-2,1.13-5.43l.24-12.13,2.62.05-.26,13.15c-.06,2.82-.54,4.64-1.85,6a6.76,6.76,0,0,1-4.54,1.55Zm7.29-22.67a1.64,1.64,0,1,1-3.27-.06,1.61,1.61,0,0,1,1.69-1.61A1.58,1.58,0,0,1,1025.28,743.75Z" transform="translate(-6.89 -5.92)"/><path d="M1042.08,755.17c0,5.38-3.8,7.69-7.29,7.66-3.93,0-6.94-2.94-6.9-7.54,0-4.86,3.27-7.67,7.28-7.63C1039.34,747.7,1042.12,750.75,1042.08,755.17Zm-11.5.06c0,3.18,1.77,5.6,4.34,5.62s4.44-2.32,4.48-5.61c0-2.46-1.19-5.57-4.32-5.6S1030.6,752.48,1030.58,755.23Z" transform="translate(-6.89 -5.92)"/></g></g></svg>