<svg xmlns="http://www.w3.org/2000/svg" viewBox="0 0 1586.06 793.05"><defs><style>.cls-1{fill:#cfdcfa;stroke:#000;stroke-miterlimit:10;stroke-width:4px;}.cls-2{opacity:0.98;}</style></defs><g id="Layer_2" data-name="Layer 2"><g id="Novo_Mapa" data-name="Novo Mapa"><path class="cls-1" d="M350.08,170.34a26.55,26.55,0,0,0-7.37,20.93C347,245,384.62,720.51,384.62,720.51c1,12-8.33,22.23-19.91,21.88L120.4,735.1c-9.74-.29-17.77-8.05-18.76-18.13L29.42,2H1574c11,0,19.75,9.42,19.42,20.81V284l-26.18.63h1c-18.47-.21-19.63-2.63-19.63-20.21l-1-117.48c0-10.85-8.24-19.76-18.66-20.19l-1.75-.07c-11-.45-20.2,8.72-20.2,20.19l.42,118.13c0,14-3,17-18,18l-55.74-3.9c-7.31-.15-16.82-1.23-22.72-5.71-5-3.79-7.12-10.58-7.12-18.46l-3.48-118.66c0-12.6-9.66-22.89-21.76-23.19h-.53c-14.27-.35-25.83,11.94-25.17,26.76,1.64,36.79,5.34,94.49,4.54,111.24-1.16,24.14-13.92,27.93-58,24.31,0,0-353.93-12.31-369-13.52s-29-1.2-30.16-22.93l-6-116.89c-.51-14.37-12-25.64-25.83-25.31h-.61c-13.92.33-24.78,12.64-23.9,27.09,2.06,34,5.33,105.58,5.48,117.17s-3,17-14,19c-15,2.73-57.18-1-78,1-21,2-42.13,19.14-38,48,2,14,6.76,68.57,6.8,69L759,729.84c1.13,12.13-8.23,22.52-19.93,22.15l-262.34-8.4c-9.78-.31-17.81-8.14-18.74-18.27L407.83,182c-.9-6.5-6.23-13-13.81-17.4a36.29,36.29,0,0,0-42.81,4.66C350.83,169.61,350.45,170,350.08,170.34Z" transform="translate(-9.35)"/><g class="cls-2"><path d="M49.15,582A34.23,34.23,0,0,1,48,576.1c-.33-3.31.08-5.55,1.29-7.19a6.08,6.08,0,0,1,4.4-2.36,6.43,6.43,0,0,1,6.61,3.94h.08c.47-1.91,2.09-3.19,4.54-4a40.4,40.4,0,0,0,6.44-2.52l.32,3.23a32.34,32.34,0,0,1-5.62,2.17c-3.23,1-4.38,2.48-4.2,5.31l.3,3,10.46-1,.31,3.11Zm10.68-4.21-.32-3.19c-.33-3.33-2.36-5.26-5.13-5-3.13.32-4.27,2.71-4,6a14,14,0,0,0,.59,3.06Z" transform="translate(-9.35)"/><path d="M64.85,546.51c1.82-.18,3.37-.4,4.73-.62l.28,2.78-2.82.45v.09a6.5,6.5,0,0,1,3.8,5.41c.27,2.71-.92,6.12-7,6.73l-10.12,1-.32-3.13,9.57-1c3.3-.33,5.45-1.58,5.16-4.43A4.61,4.61,0,0,0,64.84,550a5.05,5.05,0,0,0-1.64-.12L52.59,550.9l-.32-3.13Z" transform="translate(-9.35)"/><path d="M68.11,531.18l-2.16.49v.1a6.49,6.49,0,0,1,3.11,5,5,5,0,0,1-4.44,5.79c-4.2.42-6.87-3.07-7.5-9.77l-.36,0c-1.41.14-4,.8-3.6,4.34a8.49,8.49,0,0,0,1.74,4.39l-2,.92A11,11,0,0,1,50.79,537c-.53-5.3,3-7,6.43-7.3L63.7,529a26.61,26.61,0,0,0,4.12-.68Zm-8.8,1.37c.27,3.42,1.27,7.26,4.62,6.92a2.78,2.78,0,0,0,2.72-3.24,4.34,4.34,0,0,0-3.32-3.93,3.16,3.16,0,0,0-1,0Z" transform="translate(-9.35)"/><path d="M42.43,518.25l-1.3-13,2.6-.26,1,9.87,8-.8-.91-9.12,2.58-.26.91,9.12,10.93-1.09.31,3.13Z" transform="translate(-9.35)"/><path d="M53,500.61c-2,.2-3.78.43-5.38.68l-.28-2.76,3.39-.46V498a5.29,5.29,0,0,1-4.28-4.45,4.31,4.31,0,0,1,0-.88l3-.3a4.91,4.91,0,0,0,0,1.08c.23,2.22,2.06,3.62,4.46,3.81a8.16,8.16,0,0,0,1.48,0l9.25-.93.32,3.13Z" transform="translate(-9.35)"/><path d="M62.81,478.27l-2.16.5v.09a6.46,6.46,0,0,1,3.11,5,5,5,0,0,1-4.44,5.79c-4.19.42-6.87-3.07-7.49-9.77l-.37,0c-1.41.14-4,.8-3.6,4.35a8.49,8.49,0,0,0,1.74,4.38l-2,.92a10.85,10.85,0,0,1-2.09-5.56c-.53-5.3,3-6.95,6.43-7.3l6.48-.65a26.67,26.67,0,0,0,4.12-.67ZM54,479.64c.27,3.42,1.28,7.26,4.63,6.93a2.8,2.8,0,0,0,2.72-3.25A4.36,4.36,0,0,0,58,479.39a3.43,3.43,0,0,0-1-.05Z" transform="translate(-9.35)"/><path d="M49.4,471.87c-1.81.18-3.24.39-4.66.61l-.28-2.78,2.83-.46v-.09a6.42,6.42,0,0,1-3.82-5.4c-.23-2.38.82-6.25,6.77-6.84l10.34-1,.31,3.14-10,1c-2.8.28-5,1.57-4.74,4.52a4.57,4.57,0,0,0,3.66,3.92,5,5,0,0,0,1.48.07l10.44-1,.31,3.14Z" transform="translate(-9.35)"/><path d="M58.19,438.44a12,12,0,0,1,1.5,4.87c.52,5.22-2.69,9-8,9.53s-9.6-2.72-10.16-8.38A10.1,10.1,0,0,1,42,440l2.49.45a7.71,7.71,0,0,0-.46,3.77c.39,4,3.57,5.82,7.17,5.45,4-.4,6.22-3.22,5.88-6.68a9.32,9.32,0,0,0-1.22-3.77Z" transform="translate(-9.35)"/><path d="M35.88,433.38a2,2,0,0,1,.39,3.91,1.93,1.93,0,0,1-2.16-1.76A1.9,1.9,0,0,1,35.88,433.38Zm22.57,1.3-17.33,1.73-.31-3.13,17.32-1.74Z" transform="translate(-9.35)"/><path d="M54.44,427.06a8.54,8.54,0,0,0,.82-4.29c-.23-2.3-1.47-3.26-2.92-3.11s-2.21,1.15-2.85,3.53c-.82,3.25-2.37,4.9-4.45,5.1-2.79.28-5.3-1.76-5.68-5.48a8.5,8.5,0,0,1,.64-4.35l2.37.55a6.9,6.9,0,0,0-.66,3.66c.19,1.85,1.36,2.76,2.66,2.63s2-1.23,2.63-3.59c.81-3.1,2.16-4.8,4.75-5.06,3.07-.31,5.46,1.86,5.87,6a10,10,0,0,1-.72,5Z" transform="translate(-9.35)"/><path d="M54.32,399.82a12,12,0,0,1,1.5,4.87c.53,5.23-2.69,9-8,9.53s-9.6-2.71-10.17-8.38a10.27,10.27,0,0,1,.48-4.47l2.5.46a7.65,7.65,0,0,0-.47,3.77c.4,3.95,3.58,5.82,7.17,5.45,4-.4,6.23-3.23,5.88-6.68A9.22,9.22,0,0,0,52,400.59Z" transform="translate(-9.35)"/><path d="M44.2,381.49c6.42-.65,9.67,3.52,10.09,7.68.47,4.7-2.59,8.67-8.09,9.23-5.8.58-9.57-2.9-10.05-7.69C35.65,385.73,38.93,382,44.2,381.49Zm1.58,13.71c3.8-.38,6.44-2.84,6.13-5.92s-3.35-5-7.28-4.6c-2.93.29-6.48,2.14-6.11,5.89S42.5,395.53,45.78,395.2Z" transform="translate(-9.35)"/><path d="M24.94,356.62l21-2.1c1.54-.16,3.26-.39,4.45-.59l.28,2.8-3,.46v.08a6.4,6.4,0,0,1,4,5.54c.42,4.2-2.81,7.79-8.06,8.31-5.79.61-9.66-2.63-10.09-6.85a5.79,5.79,0,0,1,2.11-5.48v-.08l-10.34,1Zm15.47,1.61a6.16,6.16,0,0,0-1.33.27,4.69,4.69,0,0,0-3.17,4.92c.33,3.27,3.39,4.93,7.19,4.55,3.52-.35,6.27-2.4,5.93-5.79A4.79,4.79,0,0,0,44.78,358a5.11,5.11,0,0,0-1.36,0Z" transform="translate(-9.35)"/><path d="M41.58,347.87c4.25-.49,5.74-3.37,5.42-6.54a11.71,11.71,0,0,0-1.37-4.7l2.18-.78a14,14,0,0,1,1.69,5.67c.53,5.32-2.69,8.88-7.89,9.4S32,348.76,31.44,343.7c-.56-5.65,4.25-7.62,7.44-7.94a7,7,0,0,1,1.48,0Zm-3.19-9c-2,.17-5,1.33-4.66,4.86.32,3.21,3.36,4.29,5.58,4.32Z" transform="translate(-9.35)"/><path d="M43.52,324a11,11,0,0,0,1-5.73c-.32-3.19-2.17-4.89-4.62-4.65-2.24.23-3.42,1.67-4.32,5.05-1,4.07-2.83,6.73-6.21,7.07-3.75.37-6.85-2.47-7.33-7.17a11.11,11.11,0,0,1,.64-5.45l2.64.62a9.16,9.16,0,0,0-.69,4.67c.33,3.32,2.42,4.37,4.07,4.21,2.24-.23,3.2-1.81,4.15-5.27,1.2-4.25,3-6.51,6.5-6.87,3.7-.37,7.23,2,7.8,7.75a12.39,12.39,0,0,1-.95,6.33Z" transform="translate(-9.35)"/><path d="M35.1,290.61c6.42-.64,9.67,3.53,10.09,7.69.47,4.7-2.59,8.67-8.09,9.22-5.8.58-9.57-2.89-10-7.68C26.55,294.86,29.83,291.14,35.1,290.61Zm1.58,13.71c3.8-.38,6.44-2.84,6.13-5.91s-3.35-5-7.28-4.61c-2.93.3-6.48,2.15-6.11,5.89S33.4,304.65,36.68,304.32Z" transform="translate(-9.35)"/><path d="M37.34,271.73c1.82-.18,3.37-.4,4.73-.62l.28,2.78-2.82.46v.08a6.51,6.51,0,0,1,3.8,5.41c.27,2.71-.92,6.12-7,6.73l-10.13,1-.31-3.13,9.57-1c3.3-.33,5.44-1.58,5.16-4.43a4.6,4.6,0,0,0-3.31-3.87,4.84,4.84,0,0,0-1.65-.13l-10.61,1.06L24.76,273Z" transform="translate(-9.35)"/><path d="M18.87,264.46l5-.5-.46-4.53,2.39-.24.45,4.53,9.34-.94c2.16-.21,3.31-1,3.14-2.72a7,7,0,0,0-.41-1.8l2.37-.38a7.75,7.75,0,0,1,.72,2.77,4.45,4.45,0,0,1-1,3.53c-.87,1-2.36,1.47-4.4,1.68l-9.46.94.27,2.69-2.39.23L24.17,267l-4.18.42Z" transform="translate(-9.35)"/><path d="M30,239.57c6.42-.65,9.67,3.52,10.09,7.69.47,4.69-2.59,8.67-8.09,9.22-5.8.58-9.57-2.9-10-7.69C21.44,243.81,24.72,240.09,30,239.57Zm1.58,13.71c3.8-.38,6.44-2.84,6.13-5.92s-3.35-5-7.28-4.6c-2.93.29-6.49,2.14-6.11,5.89S28.29,253.61,31.57,253.28Z" transform="translate(-9.35)"/><path d="M25.78,236c-1.81.18-3.24.38-4.67.61l-.27-2.74,2.77-.44v-.09a6,6,0,0,1-3.73-5.15,5.13,5.13,0,0,1,3-5.23v-.07a7,7,0,0,1-2.45-1.73,5.91,5.91,0,0,1-1.6-3.69c-.23-2.31.92-5.86,6.94-6.47l10.2-1,.31,3.08-9.8,1c-3.35.33-5.21,1.77-5,4.29a4.11,4.11,0,0,0,3.21,3.46,5,5,0,0,0,1.61.1L37,220.78l.31,3.07-10.4,1.05c-2.76.27-4.62,1.69-4.38,4.07a4.37,4.37,0,0,0,3.54,3.61,5.06,5.06,0,0,0,1.57.09l10.44-1,.31,3.07Z" transform="translate(-9.35)"/><path d="M34.47,195.22l-2.16.49v.1a6.46,6.46,0,0,1,3.11,5A5,5,0,0,1,31,206.64c-4.2.42-6.87-3.07-7.5-9.77l-.36,0c-1.41.14-4,.8-3.6,4.34a8.49,8.49,0,0,0,1.74,4.39l-2,.92a11,11,0,0,1-2.1-5.56c-.53-5.3,3-6.95,6.43-7.3l6.48-.65a27.93,27.93,0,0,0,4.12-.67Zm-8.8,1.37c.27,3.42,1.28,7.26,4.62,6.92A2.79,2.79,0,0,0,33,200.27a4.36,4.36,0,0,0-3.33-3.93,3.11,3.11,0,0,0-1-.05Z" transform="translate(-9.35)"/><path d="M11.13,186.26a2,2,0,1,1-1.76,2.14A1.89,1.89,0,0,1,11.13,186.26Zm22.57,1.29-17.32,1.74-.31-3.13,17.32-1.74Z" transform="translate(-9.35)"/><path d="M22.47,164.38c6.41-.64,9.66,3.53,10.08,7.69.47,4.7-2.59,8.67-8.09,9.22-5.8.58-9.57-2.89-10-7.68C13.91,168.63,17.19,164.91,22.47,164.38ZM24,178.09c3.8-.38,6.44-2.84,6.14-5.92s-3.36-5-7.29-4.6c-2.93.3-6.48,2.14-6.11,5.89S20.76,178.42,24,178.09Z" transform="translate(-9.35)"/><path d="M19,160.71c-2,.2-3.79.43-5.38.68l-.28-2.76,3.39-.46,0-.11a5.29,5.29,0,0,1-4.27-4.45,3.69,3.69,0,0,1,0-.88l3-.3a5.69,5.69,0,0,0,0,1.08c.22,2.22,2.05,3.62,4.45,3.82a9.37,9.37,0,0,0,1.49,0l9.25-.93.31,3.13Z" transform="translate(-9.35)"/></g><g class="cls-2"><path d="M403.44,647.09a30,30,0,0,1-1.15-6c-.32-3.31.17-5.55,1.53-7.17a7,7,0,0,1,4.91-2.3,7.21,7.21,0,0,1,7.27,4h.1c.53-1.89,2.36-3.16,5.08-4a48.63,48.63,0,0,0,7.18-2.44l.31,3.24a38.81,38.81,0,0,1-6.26,2.09c-3.6,1-4.9,2.42-4.73,5.26l.28,2.95,11.61-.91.31,3.12Zm11.9-4.07-.31-3.19c-.32-3.34-2.54-5.3-5.61-5.06-3.48.27-4.78,2.65-4.46,6a11.8,11.8,0,0,0,.6,3.06Z" transform="translate(-9.35)"/><path d="M421.37,611.76c2-.15,3.73-.35,5.25-.55l.26,2.78-3.12.42v.09A6.58,6.58,0,0,1,427.9,620c.26,2.71-1.11,6.1-7.85,6.63l-11.24.88-.3-3.14,10.62-.83c3.66-.29,6.06-1.51,5.78-4.36a4.77,4.77,0,0,0-3.61-3.92,6.13,6.13,0,0,0-1.82-.15L407.7,616l-.3-3.14Z" transform="translate(-9.35)"/><path d="M425.2,596.48l-2.41.46v.1a6.42,6.42,0,0,1,3.38,5.08c.34,3.5-2.25,5.51-5,5.73-4.65.36-7.57-3.16-8.17-9.86l-.4,0c-1.57.12-4.42.75-4.06,4.3a8,8,0,0,0,1.87,4.4l-2.26.9a10.34,10.34,0,0,1-2.23-5.59c-.52-5.3,3.38-6.91,7.23-7.21l7.2-.57a33.06,33.06,0,0,0,4.57-.62Zm-9.78,1.26c.25,3.42,1.31,7.27,5,7,2.29-.18,3.22-1.63,3.06-3.21a4.51,4.51,0,0,0-3.63-4,4.28,4.28,0,0,0-1.11-.07Z" transform="translate(-9.35)"/><path d="M396.44,578.27l-.3-3.14,17.91-1.41c7.13-.55,9.63,2.42,10,6.58a9.26,9.26,0,0,1-.31,3.4l-2.86-.24a7,7,0,0,0,.25-2.68c-.27-2.78-1.83-4.31-7.09-3.89Z" transform="translate(-9.35)"/><path d="M411.12,552.93c7.13-.56,10.67,3.65,11.07,7.82.46,4.71-3,8.64-9.1,9.12-6.43.5-10.57-3-11-7.82C401.58,557.07,405.27,553.39,411.12,552.93Zm1.55,13.73c4.22-.33,7.19-2.76,6.89-5.83s-3.64-5-8-4.7c-3.25.26-7.22,2.06-6.86,5.81S409,567,412.67,566.66Z" transform="translate(-9.35)"/><path d="M397.85,548.45c-2.6.27-4.24-.59-4.39-2.12a4.45,4.45,0,0,1,.67-2.3,3.5,3.5,0,0,0,.54-1.56c-.06-.56-.45-.88-1.79-.86l-.16-1.68c2.63-.24,4.09.45,4.25,2.14a4.23,4.23,0,0,1-.62,2.26,3.27,3.27,0,0,0-.55,1.59c.05.57.77.82,1.88.8Zm21.76-9.9-2.4.47v.1a6.44,6.44,0,0,1,3.38,5.08c.34,3.5-2.25,5.51-5,5.73-4.66.36-7.57-3.16-8.17-9.86l-.41,0c-1.56.12-4.42.75-4.05,4.3a7.92,7.92,0,0,0,1.87,4.4l-2.26.9a10.27,10.27,0,0,1-2.24-5.59c-.51-5.3,3.39-6.91,7.24-7.21l7.19-.57a33,33,0,0,0,4.58-.62Zm-9.77,1.27c.25,3.41,1.31,7.27,5,7,2.3-.18,3.22-1.63,3.07-3.21a4.51,4.51,0,0,0-3.63-4,4.28,4.28,0,0,0-1.11-.07Z" transform="translate(-9.35)"/><path d="M407.56,516c7.12-.55,10.67,3.66,11.07,7.83.45,4.7-3,8.63-9.1,9.11-6.44.5-10.57-3-11-7.81C398,520.09,401.7,516.41,407.56,516Zm1.55,13.74c4.22-.33,7.18-2.76,6.89-5.84s-3.65-5-8-4.69c-3.25.25-7.22,2.05-6.86,5.8S405.46,530,409.11,529.69Z" transform="translate(-9.35)"/><path d="M386.57,490.84,409.84,489c1.71-.13,3.63-.34,5-.53l.27,2.8-3.31.42v.09a6.45,6.45,0,0,1,4.34,5.59c.4,4.2-3.23,7.75-9.06,8.21-6.42.53-10.68-2.76-11.08-7a5.57,5.57,0,0,1,2.41-5.46v-.07l-11.48.9Zm17.13,1.81a8.17,8.17,0,0,0-1.48.25,4.73,4.73,0,0,0-3.59,4.89c.32,3.26,3.68,5,7.91,4.63,3.9-.3,7-2.31,6.65-5.71a5,5,0,0,0-4.64-4.28,6.34,6.34,0,0,0-1.52,0Z" transform="translate(-9.35)"/><path d="M405.14,482.3c4.72-.43,6.41-3.29,6.1-6.46a10.73,10.73,0,0,0-1.44-4.72l2.43-.75a13.07,13.07,0,0,1,1.78,5.69c.51,5.33-3.11,8.84-8.88,9.3S394.45,483.07,394,478c-.54-5.66,4.82-7.57,8.36-7.85a9.26,9.26,0,0,1,1.65,0Zm-3.41-9c-2.2.14-5.58,1.26-5.24,4.79.31,3.22,3.67,4.34,6.13,4.4Z" transform="translate(-9.35)"/><path d="M385,459.8l-.3-3.14,23.88-1.87-1-10.33,2.92-.23,1.3,13.47Z" transform="translate(-9.35)"/><path d="M385.19,439.27a2.07,2.07,0,0,1,2.37,1.84,2,2,0,0,1-2,2.07,2.08,2.08,0,0,1-2.37-1.79A2,2,0,0,1,385.19,439.27Zm25,1.59L391,442.37l-.3-3.14,19.23-1.5Z" transform="translate(-9.35)"/><path d="M395.35,433.57c-2,.16-3.59.34-5.18.55l-.26-2.74L393,431v-.08a6.12,6.12,0,0,1-4.06-5.2,5.08,5.08,0,0,1,3.38-5.19v-.08a7.62,7.62,0,0,1-2.7-1.76,5.68,5.68,0,0,1-1.72-3.7c-.22-2.32,1.11-5.86,7.8-6.38l11.32-.89.3,3.08-10.88.85c-3.72.29-5.81,1.7-5.57,4.23a4.32,4.32,0,0,0,3.51,3.5,6.4,6.4,0,0,0,1.78.12l11.91-.93.29,3.08-11.54.9c-3.06.24-5.15,1.64-4.92,4,.19,2,2.07,3.27,3.87,3.66a6.28,6.28,0,0,0,1.75.1l11.59-.91.3,3.08Z" transform="translate(-9.35)"/><path d="M405.58,392.94l-2.4.47v.1a6.43,6.43,0,0,1,3.37,5.08c.34,3.5-2.24,5.51-5,5.73-4.66.36-7.58-3.16-8.17-9.86l-.41,0c-1.56.12-4.42.75-4.06,4.3a8.07,8.07,0,0,0,1.87,4.4l-2.25.9a10.27,10.27,0,0,1-2.24-5.59c-.51-5.3,3.38-6.91,7.23-7.21l7.2-.57a33.06,33.06,0,0,0,4.57-.62Zm-9.77,1.27c.24,3.41,1.3,7.27,5,7,2.3-.18,3.22-1.63,3.07-3.21a4.52,4.52,0,0,0-3.63-4,4.33,4.33,0,0,0-1.12-.07Z" transform="translate(-9.35)"/><path d="M374.43,364.92l23.27-1.83c1.71-.13,3.63-.34,4.95-.53l.27,2.8-3.31.42v.09a6.45,6.45,0,0,1,4.33,5.59c.4,4.2-3.22,7.75-9.05,8.21-6.43.53-10.68-2.76-11.09-7a5.57,5.57,0,0,1,2.41-5.46v-.07l-11.49.9Zm17.13,1.81a8.48,8.48,0,0,0-1.48.25,4.74,4.74,0,0,0-3.59,4.89c.32,3.26,3.68,5,7.91,4.63,3.91-.3,7-2.31,6.65-5.71-.2-2.11-2-3.9-4.64-4.28a6.33,6.33,0,0,0-1.52,0Z" transform="translate(-9.35)"/><path d="M401.23,347.83l-2.4.47v.09a6.46,6.46,0,0,1,3.38,5.08c.33,3.51-2.25,5.51-5,5.73-4.66.37-7.58-3.16-8.17-9.86l-.41,0c-1.56.13-4.42.75-4.05,4.3a8,8,0,0,0,1.86,4.41l-2.25.89a10.24,10.24,0,0,1-2.24-5.59c-.51-5.3,3.38-6.91,7.23-7.21l7.2-.56A33.35,33.35,0,0,0,401,345Zm-9.77,1.26c.25,3.42,1.3,7.27,5,7,2.3-.18,3.22-1.62,3.07-3.21a4.52,4.52,0,0,0-3.63-4,3.91,3.91,0,0,0-1.12-.06Z" transform="translate(-9.35)"/><path d="M395.57,333.2a10,10,0,0,0,1.2-5.72c-.31-3.19-2.34-4.92-5-4.71-2.49.2-3.83,1.62-4.87,5-1.17,4.06-3.23,6.69-7,7-4.17.32-7.57-2.56-8-7.27a10.09,10.09,0,0,1,.79-5.43l2.92.65a8.43,8.43,0,0,0-.83,4.66c.32,3.32,2.62,4.4,4.44,4.26,2.49-.2,3.58-1.76,4.69-5.21,1.38-4.24,3.37-6.47,7.3-6.78,4.11-.33,8,2.12,8.54,7.85a11.31,11.31,0,0,1-1.15,6.31Z" transform="translate(-9.35)"/><path d="M373.05,313.32a2.06,2.06,0,0,1,2.37,1.83,2,2,0,0,1-2,2.08,2.09,2.09,0,0,1-2.37-1.79A2,2,0,0,1,373.05,313.32Zm25,1.59-19.23,1.51-.31-3.14,19.23-1.51Z" transform="translate(-9.35)"/><path d="M369,308.73l-.31-3.14L397,303.38l.3,3.14Z" transform="translate(-9.35)"/><path d="M377.09,298.35l10.45-4.25c1.73-.72,3.27-1.3,4.83-1.81v-.09c-1.63-.28-3.28-.65-5.11-1.07l-11.11-2.54-.31-3.3,19.88,5.31.29,3-18.59,8.11Z" transform="translate(-9.35)"/><path d="M393.86,271.33l-2.4.47v.09a6.43,6.43,0,0,1,3.38,5.08,5.13,5.13,0,0,1-5,5.73c-4.65.37-7.57-3.15-8.16-9.86l-.41,0c-1.56.12-4.42.74-4.06,4.29a8,8,0,0,0,1.87,4.41l-2.26.89a10.31,10.31,0,0,1-2.23-5.59c-.51-5.3,3.38-6.91,7.23-7.21l7.2-.56a34.66,34.66,0,0,0,4.57-.62Zm-9.78,1.26c.25,3.42,1.31,7.27,5,7,2.29-.18,3.22-1.62,3.06-3.2a4.52,4.52,0,0,0-3.62-4,3.94,3.94,0,0,0-1.12-.06Z" transform="translate(-9.35)"/></g><g class="cls-2"><path d="M777.64,747.5a32,32,0,0,1-1.07-6c-.31-3.31.12-5.55,1.34-7.18a6.07,6.07,0,0,1,4.42-2.32,6.42,6.42,0,0,1,6.58,4H789c.48-1.9,2.12-3.17,4.57-4a41.05,41.05,0,0,0,6.46-2.47l.3,3.24a32.92,32.92,0,0,1-5.64,2.12c-3.24,1-4.41,2.44-4.24,5.28l.27,2.95,10.47-1,.28,3.12Zm10.71-4.12-.3-3.19c-.3-3.34-2.31-5.29-5.08-5-3.14.29-4.3,2.68-4,6a13.34,13.34,0,0,0,.56,3.06Z" transform="translate(-9.35)"/><path d="M793.63,712.1c1.82-.17,3.37-.37,4.73-.58l.26,2.78-2.82.43v.09a6.49,6.49,0,0,1,3.75,5.44c.25,2.71-1,6.11-7,6.67l-10.13.93-.29-3.14,9.58-.88c3.3-.3,5.46-1.54,5.2-4.38a4.64,4.64,0,0,0-3.28-3.91,4.78,4.78,0,0,0-1.64-.13l-10.62,1-.29-3.14Z" transform="translate(-9.35)"/><path d="M797,696.79l-2.16.48v.1a6.46,6.46,0,0,1,3.07,5.06,5,5,0,0,1-4.49,5.75c-4.2.39-6.85-3.12-7.41-9.82l-.37,0c-1.41.13-4,.77-3.64,4.32a8.49,8.49,0,0,0,1.71,4.39l-2,.91a10.9,10.9,0,0,1-2.05-5.58c-.48-5.3,3-6.92,6.49-7.24l6.49-.6a26.85,26.85,0,0,0,4.12-.64Zm-8.8,1.3c.24,3.42,1.21,7.27,4.56,7a2.79,2.79,0,0,0,2.75-3.22,4.36,4.36,0,0,0-3.29-4,3.21,3.21,0,0,0-1-.06Z" transform="translate(-9.35)"/><path d="M773.79,680.27l.68,7.35-2.64.25L770.19,670l2.64-.25.68,7.4,21.52-2,.29,3.14Z" transform="translate(-9.35)"/><path d="M776.8,667l9.41-4.29c1.55-.74,2.94-1.32,4.34-1.83v-.1c-1.47-.26-3-.63-4.61-1l-10-2.5-.3-3.3,18,5.24.28,3-16.73,8.19Z" transform="translate(-9.35)"/><path d="M791,651.69a2.13,2.13,0,0,1-2.47-1.93,2.27,2.27,0,1,1,2.47,1.93Z" transform="translate(-9.35)"/><path d="M791,631.62,767.6,641.74l-.31-3.39,11.57-4.84c3.16-1.34,6-2.5,8.77-3.41V630c-2.86-.42-6-1.13-9.23-1.93l-12.33-3-.3-3.34,25,6.41Z" transform="translate(-9.35)"/><path d="M767.19,616.12a1.91,1.91,0,0,1,2.14,1.83,1.88,1.88,0,0,1-1.78,2.08,1.92,1.92,0,0,1-2.14-1.78A1.89,1.89,0,0,1,767.19,616.12Zm22.56,1.49-17.33,1.59-.29-3.14,17.33-1.59Z" transform="translate(-9.35)"/><path d="M776.33,610.38c-1.81.16-3.24.35-4.67.57l-.26-2.78,2.84-.44v-.09a6.41,6.41,0,0,1-3.77-5.43c-.22-2.38.87-6.24,6.83-6.79l10.34-.95.29,3.14-10,.92c-2.8.25-5,1.52-4.78,4.47a4.58,4.58,0,0,0,3.62,4,5.09,5.09,0,0,0,1.49.08l10.44-1,.29,3.14Z" transform="translate(-9.35)"/><path d="M764.5,587.73l5-.46-.42-4.53,2.39-.22.42,4.53,9.34-.86c2.16-.19,3.32-.93,3.16-2.69a6.38,6.38,0,0,0-.4-1.81l2.39-.36a8.19,8.19,0,0,1,.69,2.78,4.45,4.45,0,0,1-1,3.52c-.88,1-2.38,1.45-4.42,1.64l-9.46.87.24,2.68L770,593l-.25-2.68-4.18.38Z" transform="translate(-9.35)"/><path d="M777.84,576.79c4.26-.45,5.76-3.32,5.47-6.48a11.59,11.59,0,0,0-1.32-4.72l2.18-.76a13.93,13.93,0,0,1,1.64,5.68c.49,5.33-2.77,8.86-8,9.33s-9.64-2.23-10.1-7.29c-.52-5.66,4.31-7.59,7.5-7.89a7.55,7.55,0,0,1,1.49,0Zm-3.11-9c-2,.15-5,1.28-4.71,4.82.3,3.22,3.33,4.32,5.55,4.37Z" transform="translate(-9.35)"/><path d="M775.5,551.23c4.25-.45,5.76-3.32,5.47-6.48a11.73,11.73,0,0,0-1.33-4.72l2.19-.76a14.09,14.09,0,0,1,1.64,5.68c.48,5.33-2.77,8.86-8,9.33s-9.64-2.23-10.11-7.29c-.51-5.66,4.31-7.59,7.5-7.89a7.55,7.55,0,0,1,1.49,0Zm-3.12-9c-2,.15-5,1.28-4.7,4.82.29,3.22,3.33,4.32,5.54,4.37Z" transform="translate(-9.35)"/><path d="M781.4,526.6l-24.16,2.22-.31-3.43,11.5-8.86a69,69,0,0,1,7.47-5l0-.08c-3.2.58-6.14.91-9.89,1.25l-10.12.93-.27-2.94,24.16-2.22.29,3.17-11.54,8.8a78.81,78.81,0,0,1-7.68,5.24l.05.1c3-.46,5.95-.77,9.94-1.14l10.33-1Z" transform="translate(-9.35)"/><path d="M769,488.29c6.42-.58,9.64,3.61,10,7.78.43,4.7-2.66,8.65-8.17,9.15-5.8.53-9.54-3-10-7.76C760.39,492.47,763.7,488.78,769,488.29ZM770.44,502c3.81-.35,6.47-2.79,6.19-5.86s-3.31-5-7.25-4.67c-2.93.27-6.5,2.09-6.16,5.84S767.16,502.32,770.44,502Z" transform="translate(-9.35)"/><path d="M760,484.12l9.4-4.29c1.56-.73,3-1.31,4.35-1.83v-.09c-1.48-.27-3-.63-4.61-1l-10-2.5-.3-3.3,18,5.23.28,3-16.73,8.19Z" transform="translate(-9.35)"/><path d="M767.66,465.84c4.26-.45,5.77-3.32,5.48-6.49a11.84,11.84,0,0,0-1.33-4.72l2.19-.75a14.07,14.07,0,0,1,1.63,5.68c.49,5.33-2.76,8.85-8,9.33s-9.64-2.23-10.11-7.3c-.52-5.65,4.31-7.59,7.5-7.88a7.72,7.72,0,0,1,1.49,0Zm-3.11-9c-2,.15-5,1.28-4.71,4.82.3,3.21,3.33,4.32,5.55,4.37Z" transform="translate(-9.35)"/><path d="M746.76,428.67l21-1.92c1.54-.14,3.26-.36,4.45-.55l.26,2.8-3,.43v.09a6.37,6.37,0,0,1,3.94,5.57c.38,4.2-2.87,7.76-8.13,8.24-5.79.56-9.64-2.71-10-6.93a5.82,5.82,0,0,1,2.15-5.47v-.07l-10.35.95Zm15.45,1.75a6.12,6.12,0,0,0-1.33.25,4.68,4.68,0,0,0-3.21,4.9c.3,3.26,3.34,4.95,7.15,4.6,3.52-.32,6.28-2.34,6-5.74a4.78,4.78,0,0,0-4.21-4.26,5.09,5.09,0,0,0-1.36,0Z" transform="translate(-9.35)"/><path d="M763.46,420.06c4.26-.45,5.77-3.32,5.48-6.48a11.73,11.73,0,0,0-1.33-4.72l2.19-.76a14.07,14.07,0,0,1,1.63,5.68c.49,5.33-2.76,8.86-8,9.33s-9.64-2.23-10.11-7.3c-.52-5.65,4.31-7.59,7.5-7.88a8.64,8.64,0,0,1,1.49,0Zm-3.11-9c-2,.15-5,1.28-4.7,4.82.29,3.22,3.33,4.32,5.54,4.37Z" transform="translate(-9.35)"/><path d="M744.76,392.71l-.29-3.14,16.15-1.48c6.43-.59,8.69,2.37,9.07,6.53a10.25,10.25,0,0,1-.25,3.39l-2.59-.22a7.71,7.71,0,0,0,.22-2.68c-.26-2.78-1.68-4.3-6.41-3.86Z" transform="translate(-9.35)"/><path d="M767.28,372.65l-2.16.47v.1a6.48,6.48,0,0,1,3.07,5.07,5,5,0,0,1-4.49,5.75c-4.2.38-6.85-3.13-7.42-9.83l-.36,0c-1.41.13-4,.77-3.64,4.32A8.48,8.48,0,0,0,754,383l-2,.9a11,11,0,0,1-2-5.58c-.49-5.3,3-6.92,6.49-7.24l6.49-.6a25.68,25.68,0,0,0,4.12-.64Zm-8.8,1.3c.23,3.42,1.21,7.27,4.56,7a2.79,2.79,0,0,0,2.75-3.22,4.37,4.37,0,0,0-3.29-4,3.21,3.21,0,0,0-1-.06Z" transform="translate(-9.35)"/><path d="M753.93,366.14c-1.81.16-3.24.36-4.67.57l-.26-2.78,2.84-.44v-.09a6.41,6.41,0,0,1-3.77-5.43c-.22-2.38.87-6.24,6.82-6.79l10.35-.95.28,3.14-10,.92c-2.8.25-5,1.52-4.78,4.47a4.56,4.56,0,0,0,3.62,4,5,5,0,0,0,1.48.08l10.45-1,.29,3.14Z" transform="translate(-9.35)"/><path d="M756.49,344.06c4.26-.45,5.77-3.32,5.48-6.48a11.73,11.73,0,0,0-1.33-4.72l2.19-.76a14.07,14.07,0,0,1,1.63,5.68c.49,5.33-2.76,8.86-8,9.33s-9.64-2.23-10.11-7.3c-.52-5.65,4.31-7.59,7.5-7.88a8.64,8.64,0,0,1,1.49,0Zm-3.11-9c-2,.15-5,1.28-4.71,4.82.3,3.22,3.33,4.32,5.55,4.37Z" transform="translate(-9.35)"/><path d="M740.55,325.64a2,2,0,1,1,.36,3.91,1.93,1.93,0,0,1-2.15-1.78A1.91,1.91,0,0,1,740.55,325.64Zm22.56,1.48-17.34,1.59-.29-3.14L762.82,324Z" transform="translate(-9.35)"/><path d="M750.4,319.83c-2,.19-3.79.4-5.38.64l-.26-2.76,3.39-.43v-.11a5.31,5.31,0,0,1-4.24-4.48,3.74,3.74,0,0,1,0-.89l3-.27a4.85,4.85,0,0,0,0,1.08c.21,2.22,2,3.64,4.42,3.85a8.27,8.27,0,0,0,1.49,0l9.26-.85.29,3.14Z" transform="translate(-9.35)"/><path d="M751,292.49c6.42-.59,9.64,3.61,10,7.77.43,4.7-2.66,8.65-8.17,9.15-5.8.54-9.54-3-10-7.76C742.43,296.67,745.74,293,751,292.49Zm1.46,13.72c3.81-.34,6.47-2.78,6.19-5.86s-3.31-5-7.25-4.66c-2.93.27-6.5,2.08-6.16,5.83S749.2,306.52,752.48,306.21Z" transform="translate(-9.35)"/></g><g class="cls-2"><path d="M964.29,274.09a32.42,32.42,0,0,1,6-.28c3.33.14,5.49.86,6.95,2.28a6.08,6.08,0,0,1,1.71,4.69,6.41,6.41,0,0,1-4.82,6v.09c1.82.72,2.87,2.52,3.35,5.05a41.4,41.4,0,0,0,1.59,6.73l-3.24-.13a31.52,31.52,0,0,1-1.36-5.87c-.58-3.35-1.84-4.69-4.67-4.9l-3-.12-.42,10.5-3.13-.12ZM967,285.25l3.2.13c3.35.14,5.55-1.6,5.66-4.38.13-3.15-2.09-4.61-5.39-4.75a14.12,14.12,0,0,0-3.11.15Z" transform="translate(-9.35)"/><path d="M997.28,294.61c-.07,1.83-.08,3.39,0,4.77l-2.8-.11,0-2.86h-.09a6.5,6.5,0,0,1-5.89,3c-2.72-.12-5.92-1.77-5.67-7.87l.41-10.17,3.15.13-.4,9.61c-.13,3.31.81,5.61,3.67,5.73a4.61,4.61,0,0,0,4.3-2.73,4.83,4.83,0,0,0,.35-1.61l.44-10.66,3.14.13Z" transform="translate(-9.35)"/><path d="M1012,300l-.18-2.21h-.1a6.44,6.44,0,0,1-5.43,2.37,5,5,0,0,1-5.11-5.2c.18-4.21,4-6.38,10.72-6.06l0-.37c.05-1.41-.24-4-3.8-4.17a8.53,8.53,0,0,0-4.58,1.11l-.64-2.13a11,11,0,0,1,5.81-1.29c5.31.22,6.46,3.9,6.32,7.39l-.27,6.5a26.84,26.84,0,0,0,.1,4.18Zm-.12-8.9c-3.42-.21-7.37.24-7.51,3.61a2.79,2.79,0,0,0,2.83,3.14,4.34,4.34,0,0,0,4.36-2.73,3.38,3.38,0,0,0,.19-1Z" transform="translate(-9.35)"/><path d="M1031.45,279.14l-7.38-.3.1-2.64,17.95.73-.1,2.64-7.42-.3-.88,21.6-3.15-.13Z" transform="translate(-9.35)"/><path d="M1044.21,283.87l3,9.89c.52,1.64.91,3.1,1.24,4.55h.09c.46-1.43,1-2.86,1.64-4.43l3.8-9.62,3.31.14-7.55,17.11-3-.12-5.91-17.66Z" transform="translate(-9.35)"/><path d="M1057.51,300a2.14,2.14,0,0,1,2.24-2.2,2.28,2.28,0,1,1-2.24,2.2Z" transform="translate(-9.35)"/><path d="M1077.4,302.65l-7-24.56,3.4.13,3.28,12.11c.91,3.31,1.69,6.3,2.22,9.15h.09c.79-2.77,1.91-5.78,3.13-8.89l4.59-11.82,3.34.13-9.65,23.89Z" transform="translate(-9.35)"/><path d="M1091.46,303.22l.71-17.39,3.15.13-.71,17.39Zm4.44-22.16A2,2,0,1,1,1094,279,1.91,1.91,0,0,1,1095.9,281.06Z" transform="translate(-9.35)"/><path d="M1100.39,290.87c.08-1.81.08-3.26,0-4.7l2.8.11,0,2.87h.09a6.42,6.42,0,0,1,5.89-3c2.39.1,6.07,1.69,5.82,7.66l-.42,10.38-3.15-.13.41-10c.12-2.81-.85-5.21-3.81-5.33a4.57,4.57,0,0,0-4.39,3.07,4.86,4.86,0,0,0-.28,1.46L1103,303.7l-3.14-.13Z" transform="translate(-9.35)"/><path d="M1124.41,282.13l-.21,5,4.55.18-.1,2.4-4.55-.19-.38,9.38c-.09,2.16.49,3.41,2.25,3.49a6.48,6.48,0,0,0,1.85-.16l0,2.41a8,8,0,0,1-2.84.32,4.44,4.44,0,0,1-3.36-1.48c-.83-1-1.13-2.54-1-4.58l.38-9.5-2.69-.11.1-2.4,2.69.11.17-4.19Z" transform="translate(-9.35)"/><path d="M1133.49,296.8c-.12,4.28,2.53,6.15,5.7,6.28a11.9,11.9,0,0,0,4.86-.69l.46,2.27a14.13,14.13,0,0,1-5.85.87c-5.34-.22-8.41-3.91-8.2-9.13s3.49-9.26,8.57-9c5.67.23,7,5.27,6.82,8.47a6.83,6.83,0,0,1-.17,1.48Zm9.35-1.9c.11-2-.61-5.15-4.16-5.3-3.23-.13-4.72,2.73-5.06,4.93Z" transform="translate(-9.35)"/><path d="M1159.13,297.85c-.11,4.27,2.53,6.15,5.71,6.28a11.68,11.68,0,0,0,4.85-.7l.46,2.27a13.87,13.87,0,0,1-5.84.87c-5.35-.21-8.42-3.91-8.2-9.12s3.48-9.27,8.56-9.06c5.68.23,7,5.27,6.83,8.47a8.27,8.27,0,0,1-.17,1.48Zm9.35-1.9c.12-2-.6-5.16-4.15-5.3-3.23-.13-4.72,2.73-5.07,4.92Z" transform="translate(-9.35)"/></g><path d="M1186.44,307l.67-24.25,3.45.09,7.42,12.47a70.57,70.57,0,0,1,4.11,8l.08,0c-.19-3.25-.17-6.21-.06-10l.28-10.17,2.95.08-.68,24.25-3.18-.08-7.36-12.51a79.64,79.64,0,0,1-4.29-8.25l-.11,0c.1,3.08.07,6,0,10l-.28,10.37Z" transform="translate(-9.35)"/><path d="M1226,299.2c-.18,6.45-4.73,9.14-8.91,9-4.72-.14-8.27-3.68-8.12-9.2.16-5.82,4.09-9.12,8.9-9C1222.82,290.18,1226.1,293.9,1226,299.2Zm-13.81-.18c-.1,3.82,2,6.75,5.09,6.84s5.38-2.69,5.49-6.64c.09-2.94-1.29-6.71-5-6.81S1212.24,295.72,1212.14,299Z" transform="translate(-9.35)"/><path d="M1231.16,290.81l3.14,9.85c.54,1.63,1,3.08,1.3,4.53h.09c.44-1.44,1-2.87,1.59-4.46l3.67-9.66,3.31.09-7.33,17.21-3-.08-6.14-17.59Z" transform="translate(-9.35)"/><path d="M1248.4,300.57c-.05,4.28,2.61,6.12,5.79,6.2A11.64,11.64,0,0,0,1259,306l.5,2.26a14.3,14.3,0,0,1-5.84,1c-5.35-.15-8.46-3.8-8.32-9s3.37-9.31,8.45-9.17c5.68.16,7,5.18,6.93,8.39a7.22,7.22,0,0,1-.14,1.48Zm9.33-2c.09-2-.68-5.15-4.22-5.25-3.23-.09-4.69,2.8-5,5Z" transform="translate(-9.35)"/><path d="M1287.79,284.23l-.58,21.06c0,1.55,0,3.29,0,4.49l-2.81-.07-.08-3h-.08a6.37,6.37,0,0,1-6,3.24c-4.21-.12-7.37-3.77-7.22-9.05.14-5.82,3.84-9.25,8.08-9.13a5.79,5.79,0,0,1,5.17,2.78h.08l.29-10.39Zm-3.57,15.14a7,7,0,0,0-.09-1.36,4.67,4.67,0,0,0-4.48-3.76c-3.28-.1-5.32,2.72-5.43,6.55-.1,3.53,1.58,6.52,5,6.61a4.77,4.77,0,0,0,4.73-3.67,5.17,5.17,0,0,0,.2-1.35Z" transform="translate(-9.35)"/><path d="M1294.35,301.85c0,4.28,2.61,6.11,5.79,6.2a11.69,11.69,0,0,0,4.85-.75l.49,2.26a14.23,14.23,0,0,1-5.84.95c-5.35-.15-8.46-3.8-8.32-9s3.37-9.31,8.45-9.17c5.68.16,7,5.18,6.94,8.39a7.94,7.94,0,0,1-.15,1.48Zm9.33-2c.09-2-.67-5.15-4.22-5.25-3.23-.09-4.69,2.8-5,5Z" transform="translate(-9.35)"/><path d="M1323.74,286.53l3.15.09-.45,16.21c-.18,6.45-3.39,8.35-7.57,8.23a10.14,10.14,0,0,1-3.34-.66l.53-2.54a7.82,7.82,0,0,0,2.64.53c2.79.08,4.47-1.15,4.6-5.9Z" transform="translate(-9.35)"/><path d="M1341,311.28l-.22-2.21h-.09a6.5,6.5,0,0,1-5.4,2.45,5,5,0,0,1-5.18-5.14c.12-4.22,3.92-6.43,10.64-6.2v-.36c0-1.42-.28-4.05-3.85-4.13a8.53,8.53,0,0,0-4.57,1.17l-.66-2.12a11,11,0,0,1,5.79-1.37c5.32.15,6.51,3.82,6.42,7.31l-.18,6.51a26.44,26.44,0,0,0,.14,4.17Zm-.25-8.9c-3.42-.17-7.36.34-7.45,3.7a2.79,2.79,0,0,0,2.87,3.12,4.36,4.36,0,0,0,4.32-2.8,3.3,3.3,0,0,0,.18-1Z" transform="translate(-9.35)"/><path d="M1349,298.79c0-1.81,0-3.26,0-4.7l2.8.08.1,2.86h.09a6.39,6.39,0,0,1,5.84-3.1c2.39.06,6.09,1.61,5.93,7.59l-.29,10.38-3.15-.09.28-10c.08-2.82-.92-5.2-3.88-5.29a4.58,4.58,0,0,0-4.36,3.13,5,5,0,0,0-.25,1.47l-.3,10.48-3.15-.09Z" transform="translate(-9.35)"/><path d="M1370.64,304c-.05,4.28,2.61,6.12,5.79,6.21a11.83,11.83,0,0,0,4.85-.76l.49,2.26a13.89,13.89,0,0,1-5.84.95c-5.35-.15-8.46-3.8-8.32-9s3.37-9.31,8.45-9.16c5.68.15,7,5.18,6.94,8.38a7.84,7.84,0,0,1-.15,1.48Zm9.33-2c.09-2-.67-5.14-4.22-5.24-3.23-.09-4.69,2.79-5,5Z" transform="translate(-9.35)"/><path d="M1386.67,312.55l.49-17.4,3.15.09-.49,17.4Zm4.16-22.22a2,2,0,1,1-1.9-2A1.9,1.9,0,0,1,1390.83,290.33Z" transform="translate(-9.35)"/><path d="M1395.42,300.8c.06-2.05.06-3.8,0-5.42l2.77.08,0,3.42h.11a5.31,5.31,0,0,1,5-3.68,3.4,3.4,0,0,1,.88.12l-.08,3a5.36,5.36,0,0,0-1.07-.12c-2.23-.06-3.86,1.58-4.35,3.93a7.52,7.52,0,0,0-.17,1.48l-.26,9.29-3.15-.08Z" transform="translate(-9.35)"/><path d="M1422.5,304.67c-.18,6.45-4.73,9.14-8.91,9-4.72-.13-8.27-3.67-8.12-9.2.17-5.82,4.09-9.12,8.9-9C1419.38,295.65,1422.65,299.38,1422.5,304.67Zm-13.8-.18c-.11,3.82,2,6.75,5.09,6.84s5.38-2.69,5.49-6.64c.08-2.94-1.3-6.7-5.06-6.81S1408.79,301.19,1408.7,304.49Z" transform="translate(-9.35)"/><path class="cls-1" d="M817.42,742,788.13,428.26c0-.44-7.71-83.26-7.71-83.26-4.13-28.86,3.9-39,25-39l402.87,13.44c20.13.56,22.13,8.56,22.13,16.56s8,404,8,404c0,18-13.22,19-20.11,20s-386-6-386-6C819.42,755,817.42,742,817.42,742Z" transform="translate(-9.35)"/><g class="cls-2"><path d="M1252.91,710.7a32.76,32.76,0,0,1-.67-6c-.08-3.33.5-5.53,1.83-7.08a6,6,0,0,1,4.56-2,6.39,6.39,0,0,1,6.29,4.42h.09c.6-1.86,2.32-3,4.82-3.67a39.91,39.91,0,0,0,6.61-2l.08,3.25a31.25,31.25,0,0,1-5.76,1.73c-3.31.8-4.56,2.15-4.59,5l.07,3,10.51-.25.08,3.13Zm11-3.4-.08-3.2c-.08-3.35-2-5.43-4.73-5.36-3.15.07-4.47,2.38-4.39,5.68a14,14,0,0,0,.35,3.1Z" transform="translate(-9.35)"/><path d="M1271.24,676.45c1.83-.05,3.39-.15,4.76-.26l.07,2.79-2.84.24v.09a6.49,6.49,0,0,1,3.38,5.68c.07,2.72-1.38,6-7.48,6.18l-10.17.25-.08-3.15,9.62-.24c3.31-.08,5.55-1.17,5.48-4a4.63,4.63,0,0,0-3-4.12,5.07,5.07,0,0,0-1.63-.25l-10.66.26-.08-3.15Z" transform="translate(-9.35)"/><path d="M1275.64,661.4l-2.19.33v.1a6.47,6.47,0,0,1,2.72,5.26,5,5,0,0,1-4.86,5.44c-4.21.1-6.62-3.58-6.74-10.3h-.37c-1.41,0-4,.49-3.91,4.06a8.41,8.41,0,0,0,1.4,4.5l-2.08.77a10.87,10.87,0,0,1-1.67-5.71c-.13-5.32,3.48-6.7,7-6.79l6.51-.16a27,27,0,0,0,4.16-.36Zm-8.87.71c0,3.43.72,7.33,4.08,7.25a2.79,2.79,0,0,0,3-3,4.36,4.36,0,0,0-3-4.17,3.25,3.25,0,0,0-1-.12Z" transform="translate(-9.35)"/><path d="M1250.93,643.44l14.38-.35c5.41-.13,7.64-2.59,7.56-5.86-.08-3.57-2.52-5.84-7.85-5.71l-14.37.35-.08-3.15,14.15-.34c7.46-.19,10.6,3.66,10.73,8.92.12,5-2.62,8.76-10.15,8.94l-14.29.35Z" transform="translate(-9.35)"/><path d="M1249.15,623.42l-.08-3.15,25.55-.63.08,3.15Z" transform="translate(-9.35)"/><path d="M1252.08,611.31a2,2,0,1,1,.09,3.92,1.92,1.92,0,0,1-2-1.92A1.89,1.89,0,0,1,1252.08,611.31Zm22.41,3-17.41.42-.07-3.15,17.4-.42Z" transform="translate(-9.35)"/><path d="M1271.07,606.4a8.61,8.61,0,0,0,1.14-4.22c-.06-2.31-1.22-3.36-2.68-3.32s-2.29,1-3.1,3.31c-1.06,3.17-2.74,4.7-4.83,4.75-2.8.07-5.15-2.16-5.25-5.9a8.43,8.43,0,0,1,1-4.29l2.32.73a6.88,6.88,0,0,0-.94,3.6c0,1.87,1.15,2.85,2.46,2.82s2.06-1.07,2.89-3.37c1-3,2.52-4.63,5.12-4.7,3.08-.07,5.3,2.27,5.4,6.38a9.87,9.87,0,0,1-1.09,4.92Z" transform="translate(-9.35)"/><path d="M1270.72,592.15a8.64,8.64,0,0,0,1.14-4.22c-.06-2.31-1.22-3.36-2.68-3.32s-2.29,1-3.1,3.31c-1.06,3.17-2.74,4.7-4.82,4.75-2.81.06-5.16-2.16-5.26-5.9a8.43,8.43,0,0,1,1-4.29l2.32.73a6.88,6.88,0,0,0-.94,3.6c.05,1.86,1.15,2.85,2.46,2.82s2.06-1.07,2.89-3.38c1-3,2.52-4.62,5.12-4.69,3.08-.08,5.3,2.27,5.4,6.38a9.87,9.87,0,0,1-1.09,4.92Z" transform="translate(-9.35)"/><path d="M1265.41,575.8c4.28-.17,6-2.92,5.9-6.1a11.84,11.84,0,0,0-1-4.8l2.23-.61a13.77,13.77,0,0,1,1.25,5.78c.14,5.35-3.35,8.65-8.57,8.78s-9.47-2.88-9.59-8c-.14-5.68,4.8-7.29,8-7.36a7.52,7.52,0,0,1,1.48.07Zm-2.5-9.21c-2,0-5.11.95-5,4.49.08,3.23,3,4.54,5.24,4.74Z" transform="translate(-9.35)"/><path d="M1269.93,559.87a8.65,8.65,0,0,0,1.14-4.23c-.06-2.31-1.22-3.35-2.68-3.31s-2.29,1-3.1,3.31c-1.06,3.17-2.74,4.7-4.82,4.74-2.81.07-5.16-2.15-5.25-5.89a8.34,8.34,0,0,1,1-4.29l2.32.73a7,7,0,0,0-.94,3.59c0,1.87,1.15,2.86,2.46,2.83s2.06-1.07,2.89-3.38c1-3,2.52-4.62,5.12-4.69,3.08-.08,5.3,2.27,5.4,6.38a9.9,9.9,0,0,1-1.09,4.92Z" transform="translate(-9.35)"/><path d="M1271.06,518.91a21.87,21.87,0,0,1,1.52,7.42c.09,3.68-.77,6.74-3,9.15a12.37,12.37,0,0,1-8.93,3.59c-7.23.17-12.65-4.67-12.85-12.8a15.22,15.22,0,0,1,1-6.09l2.57.72a12.27,12.27,0,0,0-.91,5.38c.15,5.88,3.9,9.65,10,9.5s9.69-3.92,9.56-9.6a10,10,0,0,0-.76-4.14l-7.23.17.12,4.91-2.5.06-.2-8Z" transform="translate(-9.35)"/><path d="M1266.92,499.71c1.82,0,3.38-.15,4.76-.26l.07,2.79-2.84.24v.09a6.51,6.51,0,0,1,3.38,5.68c.07,2.72-1.38,6-7.48,6.18l-10.17.25-.08-3.15,9.62-.24c3.31-.08,5.54-1.17,5.47-4a4.61,4.61,0,0,0-3-4.12,5.07,5.07,0,0,0-1.63-.25l-10.66.26-.08-3.15Z" transform="translate(-9.35)"/><path d="M1249.14,491.32a1.91,1.91,0,0,1,2,2,1.88,1.88,0,0,1-1.92,1.95,1.92,1.92,0,0,1-2-1.92A1.9,1.9,0,0,1,1249.14,491.32Zm22.41,3-17.4.43-.08-3.15,17.41-.43Z" transform="translate(-9.35)"/><path d="M1258.64,486.2c-1.81,0-3.25.14-4.69.26l-.07-2.75,2.8-.24v-.09a6,6,0,0,1-3.34-5.41,5.14,5.14,0,0,1,3.37-5v-.07a7.11,7.11,0,0,1-2.31-1.91,5.93,5.93,0,0,1-1.32-3.8c-.06-2.32,1.36-5.78,7.41-5.93l10.25-.25.07,3.09-9.84.24c-3.37.08-5.33,1.37-5.27,3.91a4.12,4.12,0,0,0,2.94,3.69,5,5,0,0,0,1.59.22l10.77-.26.08,3.09-10.44.25c-2.77.07-4.74,1.35-4.68,3.74a4.39,4.39,0,0,0,3.26,3.87,5.21,5.21,0,0,0,1.56.2l10.49-.26.08,3.09Z" transform="translate(-9.35)"/><path d="M1270.38,446.23l-2.19.33v.09a6.49,6.49,0,0,1,2.72,5.26,5,5,0,0,1-4.86,5.44c-4.22.1-6.62-3.57-6.74-10.3h-.37c-1.41,0-4,.5-3.92,4.06a8.5,8.5,0,0,0,1.41,4.5l-2.09.77a11,11,0,0,1-1.66-5.7c-.13-5.32,3.47-6.71,7-6.79l6.51-.16a26.91,26.91,0,0,0,4.16-.37Zm-8.88.71c0,3.42.72,7.33,4.09,7.25a2.79,2.79,0,0,0,3-3,4.37,4.37,0,0,0-3-4.17,3.28,3.28,0,0,0-1-.13Z" transform="translate(-9.35)"/><path d="M1258.21,438.83c-2.06.05-3.81.14-5.42.27l-.07-2.77,3.41-.2V436a5.29,5.29,0,0,1-3.93-4.75,3.53,3.53,0,0,1,.07-.88l3-.08a5.11,5.11,0,0,0-.07,1.08c.06,2.23,1.78,3.77,4.15,4.14a8.79,8.79,0,0,0,1.48.09l9.3-.22.08,3.14Z" transform="translate(-9.35)"/><path d="M1249.46,425.94c-2.35.13-3.77-.82-3.81-2.36a4.81,4.81,0,0,1,.74-2.26,3.67,3.67,0,0,0,.58-1.53c0-.56-.35-.9-1.55-1l0-1.68c2.38-.1,3.65.68,3.69,2.37a4.65,4.65,0,0,1-.7,2.22,3.47,3.47,0,0,0-.59,1.56c0,.57.64.85,1.64.9Zm20.21-8.65-2.19.33v.1a6.47,6.47,0,0,1,2.72,5.26,5,5,0,0,1-4.86,5.44c-4.21.1-6.62-3.58-6.74-10.3h-.37c-1.41,0-4,.5-3.92,4.07a8.53,8.53,0,0,0,1.41,4.5l-2.08.77a10.87,10.87,0,0,1-1.67-5.71c-.13-5.32,3.47-6.71,7-6.79l6.51-.16a28.29,28.29,0,0,0,4.16-.36Zm-8.87.71c0,3.43.72,7.33,4.08,7.25a2.79,2.79,0,0,0,3-3,4.36,4.36,0,0,0-3-4.17,3.25,3.25,0,0,0-1-.12Z" transform="translate(-9.35)"/><path d="M1261.31,408c4.27-.17,6-2.92,5.89-6.1a11.52,11.52,0,0,0-1-4.8l2.24-.61a14.09,14.09,0,0,1,1.25,5.78c.13,5.35-3.35,8.65-8.57,8.78s-9.47-2.88-9.6-8c-.13-5.68,4.81-7.29,8-7.36a6.91,6.91,0,0,1,1.49.07Zm-2.51-9.21c-2,0-5.1.94-5,4.49.08,3.23,3,4.54,5.24,4.74Z" transform="translate(-9.35)"/><path d="M1265.83,392.09a8.76,8.76,0,0,0,1.14-4.23c-.06-2.31-1.22-3.35-2.68-3.31s-2.29,1-3.11,3.31c-1.06,3.17-2.73,4.7-4.82,4.74-2.8.07-5.16-2.15-5.25-5.89a8.43,8.43,0,0,1,1-4.29l2.32.73a6.87,6.87,0,0,0-.94,3.59c0,1.87,1.15,2.86,2.46,2.83s2.06-1.08,2.89-3.38c1-3,2.52-4.62,5.11-4.69,3.09-.08,5.31,2.27,5.41,6.38a9.89,9.89,0,0,1-1.1,4.92Z" transform="translate(-9.35)"/></g><g class="cls-2"><path d="M117,745.59a33.7,33.7,0,0,1,6-.35c3.33.09,5.5.79,7,2.19a6.09,6.09,0,0,1,1.78,4.66,6.43,6.43,0,0,1-4.75,6.06v.08c1.83.7,2.9,2.48,3.42,5a39.77,39.77,0,0,0,1.68,6.7l-3.25-.09a32.22,32.22,0,0,1-1.43-5.85c-.63-3.34-1.9-4.66-4.74-4.84l-3-.08-.3,10.51-3.13-.09Zm2.82,11.13,3.2.09c3.36.09,5.53-1.67,5.61-4.45.09-3.15-2.15-4.59-5.45-4.68a12.83,12.83,0,0,0-3.11.19Z" transform="translate(-9.35)"/><path d="M150.23,765.69c0,1.83,0,3.39,0,4.77l-2.8-.08-.09-2.85h-.08a6.5,6.5,0,0,1-5.85,3.08c-2.73-.08-5.95-1.69-5.78-7.79l.28-10.17,3.15.08-.27,9.62c-.09,3.31.88,5.6,3.73,5.68a4.6,4.6,0,0,0,4.27-2.79,4.84,4.84,0,0,0,.34-1.61l.3-10.66,3.14.09Z" transform="translate(-9.35)"/><path d="M165,770.88l-.22-2.21h-.09a6.47,6.47,0,0,1-5.4,2.44,5,5,0,0,1-5.17-5.14c.12-4.21,3.92-6.43,10.64-6.19v-.37c0-1.41-.29-4-3.85-4.12a8.42,8.42,0,0,0-4.57,1.17l-.66-2.13A11,11,0,0,1,161.5,753c5.31.15,6.51,3.82,6.41,7.31l-.18,6.51a26.37,26.37,0,0,0,.15,4.17Zm-.24-8.9c-3.42-.17-7.36.33-7.46,3.7a2.78,2.78,0,0,0,2.87,3.11,4.37,4.37,0,0,0,4.33-2.79,3.33,3.33,0,0,0,.17-1Z" transform="translate(-9.35)"/><path d="M186.08,747.2l3.15.09-.46,16.21c-.18,6.45-3.39,8.34-7.57,8.23a10.74,10.74,0,0,1-3.34-.66l.53-2.55a7.56,7.56,0,0,0,2.64.54c2.79.08,4.47-1.15,4.6-5.9Z" transform="translate(-9.35)"/><path d="M209.73,763.26c-.18,6.44-4.73,9.13-8.91,9-4.72-.14-8.27-3.68-8.11-9.2.16-5.83,4.08-9.12,8.9-9C206.61,754.23,209.88,758,209.73,763.26Zm-13.8-.19c-.11,3.82,2,6.75,5.09,6.84s5.38-2.69,5.49-6.64c.08-2.94-1.3-6.7-5.06-6.81S196,759.77,195.93,763.07Z" transform="translate(-9.35)"/><path d="M223.14,772.51l-.22-2.21h-.09a6.5,6.5,0,0,1-5.4,2.44,5,5,0,0,1-5.18-5.14c.12-4.21,3.92-6.42,10.64-6.19V761c0-1.41-.28-4-3.85-4.12a8.41,8.41,0,0,0-4.56,1.17l-.66-2.13a10.93,10.93,0,0,1,5.78-1.36c5.32.15,6.52,3.82,6.42,7.31l-.18,6.51a26.44,26.44,0,0,0,.14,4.17Zm-.25-8.9c-3.42-.17-7.36.34-7.45,3.7a2.78,2.78,0,0,0,2.87,3.11,4.35,4.35,0,0,0,4.32-2.79,3.36,3.36,0,0,0,.18-1Zm-7.33-11.73c0-2.36,1-3.73,2.56-3.69a4.73,4.73,0,0,1,2.21.86,3.66,3.66,0,0,0,1.5.66c.56,0,.91-.3,1-1.5l1.68,0c0,2.38-.86,3.61-2.55,3.56a4.74,4.74,0,0,1-2.19-.81,3.43,3.43,0,0,0-1.52-.68c-.57,0-.89.59-1,1.59Z" transform="translate(-9.35)"/><path d="M246.83,764.3c-.18,6.44-4.73,9.13-8.91,9-4.72-.13-8.27-3.68-8.11-9.2.16-5.82,4.08-9.12,8.9-9C243.71,755.27,247,759,246.83,764.3Zm-13.8-.19c-.11,3.82,2,6.75,5.09,6.84s5.38-2.69,5.49-6.64c.08-2.94-1.3-6.7-5.06-6.81S233.12,760.81,233,764.11Z" transform="translate(-9.35)"/><path d="M274,748.37l-.6,21c0,1.55,0,3.29,0,4.5l-2.81-.08-.08-3h-.08a6.37,6.37,0,0,1-6,3.24c-4.22-.12-7.37-3.77-7.22-9,.13-5.82,3.84-9.25,8.08-9.13a5.81,5.81,0,0,1,5.18,2.79h.07l.29-10.39Zm-3.58,15.13a6.86,6.86,0,0,0-.09-1.35,4.68,4.68,0,0,0-4.48-3.77c-3.28-.09-5.32,2.73-5.43,6.55-.1,3.53,1.58,6.52,5,6.61a4.77,4.77,0,0,0,4.73-3.67,5.17,5.17,0,0,0,.2-1.35Z" transform="translate(-9.35)"/><path d="M280.51,766c-.05,4.28,2.61,6.12,5.79,6.21a11.61,11.61,0,0,0,4.84-.76l.5,2.27a14.13,14.13,0,0,1-5.84.94c-5.35-.15-8.46-3.8-8.32-9s3.37-9.3,8.45-9.16c5.68.16,7,5.18,6.94,8.38a8,8,0,0,1-.15,1.49Zm9.33-2c.09-2-.67-5.15-4.22-5.25-3.23-.09-4.69,2.79-5,5Z" transform="translate(-9.35)"/><path d="M304.94,750.53l3.15.09-.6,21.61,10.37.29-.08,2.64-13.52-.38Z" transform="translate(-9.35)"/><path d="M321.16,775.26l.49-17.4,3.14.09-.48,17.4ZM325.32,753a1.92,1.92,0,0,1-2.07,1.91,1.89,1.89,0,0,1-1.85-2,2,2,0,1,1,3.92.11Z" transform="translate(-9.35)"/><path d="M329.94,762.79c.05-1.81,0-3.26,0-4.7l2.75.08.09,2.8h.09a6,6,0,0,1,5.58-3,5.13,5.13,0,0,1,4.81,3.63h.07a7,7,0,0,1,2-2.21,6,6,0,0,1,3.86-1.12c2.32.07,5.7,1.66,5.53,7.72l-.28,10.24-3.09-.08.27-9.85c.1-3.37-1.09-5.4-3.62-5.47a4.13,4.13,0,0,0-3.85,2.74,5.54,5.54,0,0,0-.3,1.58l-.3,10.78-3.09-.09.29-10.44c.08-2.77-1.09-4.8-3.48-4.87a4.4,4.4,0,0,0-4,3,5.47,5.47,0,0,0-.28,1.55l-.29,10.49-3.09-.08Z" transform="translate(-9.35)"/><path d="M369.24,776.61,369,774.4h-.09a6.5,6.5,0,0,1-5.4,2.44,5,5,0,0,1-5.17-5.14c.11-4.21,3.91-6.42,10.63-6.19l0-.37c0-1.41-.29-4-3.85-4.12a8.42,8.42,0,0,0-4.57,1.17l-.66-2.13a10.93,10.93,0,0,1,5.78-1.36c5.32.15,6.52,3.82,6.42,7.31l-.18,6.51a26.44,26.44,0,0,0,.14,4.17Zm-.24-8.9c-3.43-.17-7.37.33-7.46,3.7a2.78,2.78,0,0,0,2.87,3.11,4.35,4.35,0,0,0,4.32-2.79,3.36,3.36,0,0,0,.18-1Z" transform="translate(-9.35)"/></g><g class="cls-2"><path d="M486,754.82a32.63,32.63,0,0,1,6-.35c3.33.09,5.5.78,7,2.19a6.11,6.11,0,0,1,1.77,4.66,6.41,6.41,0,0,1-4.75,6.06v.08c1.83.7,2.9,2.48,3.42,5a39.7,39.7,0,0,0,1.68,6.71l-3.25-.09a32.22,32.22,0,0,1-1.43-5.85c-.63-3.34-1.9-4.67-4.74-4.84l-3-.08-.3,10.51-3.13-.09ZM488.81,766l3.2.09c3.35.09,5.52-1.68,5.6-4.46.09-3.14-2.14-4.58-5.45-4.67a13.56,13.56,0,0,0-3.11.18Z" transform="translate(-9.35)"/><path d="M519.23,774.92c-.05,1.83,0,3.39,0,4.77l-2.79-.08-.09-2.85h-.09a6.49,6.49,0,0,1-5.85,3.08c-2.73-.08-5.95-1.7-5.78-7.8l.28-10.17,3.15.09-.27,9.62c-.09,3.31.88,5.6,3.74,5.68a4.62,4.62,0,0,0,4.27-2.79,5.1,5.1,0,0,0,.33-1.61l.3-10.66,3.15.09Z" transform="translate(-9.35)"/><path d="M534,780.11l-.21-2.21h-.1a6.47,6.47,0,0,1-5.4,2.44,5,5,0,0,1-5.17-5.14c.12-4.22,3.92-6.43,10.64-6.19v-.37c0-1.41-.28-4-3.85-4.13a8.6,8.6,0,0,0-4.57,1.17l-.66-2.12a10.87,10.87,0,0,1,5.79-1.36c5.32.14,6.51,3.82,6.41,7.3l-.18,6.51a27.7,27.7,0,0,0,.15,4.18Zm-.24-8.9c-3.42-.17-7.36.33-7.45,3.7a2.79,2.79,0,0,0,2.86,3.11,4.37,4.37,0,0,0,4.33-2.8,3.24,3.24,0,0,0,.18-1Z" transform="translate(-9.35)"/><path d="M555.08,756.43l3.15.08-.46,16.21c-.18,6.46-3.39,8.35-7.56,8.23a10.42,10.42,0,0,1-3.34-.65l.53-2.55a7.45,7.45,0,0,0,2.63.54c2.8.08,4.47-1.15,4.6-5.91Z" transform="translate(-9.35)"/><path d="M578.73,772.49c-.18,6.44-4.73,9.13-8.91,9-4.72-.13-8.27-3.67-8.11-9.19.16-5.83,4.08-9.12,8.9-9C575.61,763.46,578.88,767.18,578.73,772.49Zm-13.8-.19c-.11,3.82,2,6.75,5.09,6.84s5.38-2.69,5.49-6.64c.08-2.94-1.3-6.71-5.06-6.81S565,769,564.93,772.3Z" transform="translate(-9.35)"/><path d="M592.14,781.74l-.22-2.21h-.09a6.5,6.5,0,0,1-5.4,2.44,5,5,0,0,1-5.17-5.14c.12-4.21,3.92-6.43,10.64-6.19v-.37c0-1.41-.29-4-3.85-4.12a8.42,8.42,0,0,0-4.57,1.17l-.66-2.13a10.86,10.86,0,0,1,5.78-1.36c5.32.15,6.52,3.82,6.42,7.3l-.18,6.51a27.79,27.79,0,0,0,.14,4.18Zm-.24-8.9c-3.43-.17-7.36.33-7.46,3.7a2.78,2.78,0,0,0,2.87,3.11,4.36,4.36,0,0,0,4.32-2.79,3.36,3.36,0,0,0,.18-1Zm-7.34-11.74c0-2.35,1-3.72,2.56-3.68a4.69,4.69,0,0,1,2.21.86,3.8,3.8,0,0,0,1.5.66c.56,0,.92-.3,1-1.5l1.69,0c0,2.39-.87,3.62-2.56,3.57a4.66,4.66,0,0,1-2.18-.81,3.51,3.51,0,0,0-1.53-.68c-.57,0-.89.59-1,1.59Z" transform="translate(-9.35)"/><path d="M615.84,773.53c-.18,6.44-4.73,9.13-8.92,9-4.72-.14-8.27-3.68-8.11-9.2.16-5.83,4.09-9.12,8.9-9C612.71,764.5,616,768.23,615.84,773.53ZM602,773.34c-.1,3.82,2,6.75,5.09,6.84s5.38-2.69,5.49-6.64c.08-2.94-1.29-6.7-5.06-6.81S602.12,770,602,773.34Z" transform="translate(-9.35)"/><path d="M643,757.59l-.59,21.06c0,1.55,0,3.29,0,4.5l-2.81-.08-.08-3h-.08a6.37,6.37,0,0,1-6,3.24c-4.22-.12-7.37-3.77-7.22-9,.14-5.82,3.84-9.25,8.08-9.13a5.83,5.83,0,0,1,5.18,2.78h.07l.29-10.39Zm-3.58,15.14a6.81,6.81,0,0,0-.09-1.35,4.68,4.68,0,0,0-4.48-3.77c-3.28-.1-5.32,2.72-5.43,6.55-.1,3.53,1.58,6.51,5,6.61a4.76,4.76,0,0,0,4.73-3.67,5.17,5.17,0,0,0,.2-1.35Z" transform="translate(-9.35)"/><path d="M649.52,775.21c-.06,4.28,2.6,6.12,5.78,6.21a11.66,11.66,0,0,0,4.85-.76l.49,2.27a14.13,14.13,0,0,1-5.84.94c-5.35-.15-8.46-3.8-8.31-9s3.36-9.31,8.45-9.16c5.67.16,7,5.18,6.93,8.38a7.74,7.74,0,0,1-.15,1.48Zm9.32-2c.09-2-.67-5.14-4.22-5.24-3.23-.09-4.69,2.79-5,5Z" transform="translate(-9.35)"/><path d="M674,759.76l3.15.09-.61,21.61,10.37.29-.08,2.64L673.27,784Z" transform="translate(-9.35)"/><path d="M690.16,784.49l.49-17.4,3.15.08-.49,17.41Zm4.16-22.22a1.9,1.9,0,0,1-2.07,1.9,1.88,1.88,0,0,1-1.85-2,1.93,1.93,0,0,1,2-1.92A1.9,1.9,0,0,1,694.32,762.27Z" transform="translate(-9.35)"/><path d="M698.94,772c0-1.81,0-3.26,0-4.7l2.75.08.09,2.8h.09a6,6,0,0,1,5.58-3,5.13,5.13,0,0,1,4.81,3.63h.07a7.07,7.07,0,0,1,2-2.21,6,6,0,0,1,3.86-1.12c2.33.07,5.71,1.66,5.54,7.71l-.29,10.25-3.09-.09.27-9.84c.1-3.37-1.09-5.4-3.62-5.47a4.15,4.15,0,0,0-3.85,2.74,5.54,5.54,0,0,0-.3,1.58l-.3,10.78-3.09-.09.29-10.44c.08-2.78-1.09-4.8-3.48-4.87a4.37,4.37,0,0,0-4,3,5.14,5.14,0,0,0-.29,1.55l-.29,10.49-3.09-.09Z" transform="translate(-9.35)"/><path d="M738.24,785.84l-.22-2.21h-.09a6.5,6.5,0,0,1-5.4,2.44,5,5,0,0,1-5.17-5.14c.12-4.22,3.92-6.43,10.64-6.19v-.37c0-1.41-.29-4-3.85-4.12a8.42,8.42,0,0,0-4.57,1.17l-.66-2.13a10.86,10.86,0,0,1,5.78-1.36c5.32.15,6.52,3.82,6.42,7.3l-.18,6.51a27.79,27.79,0,0,0,.14,4.18Zm-.24-8.9c-3.43-.17-7.36.33-7.46,3.7a2.78,2.78,0,0,0,2.87,3.11,4.36,4.36,0,0,0,4.32-2.79,3.36,3.36,0,0,0,.18-1Z" transform="translate(-9.35)"/></g><g class="cls-2"><path d="M890.26,765.84a32.8,32.8,0,0,1,6-.45c3.33,0,5.51.7,7,2.08a6.1,6.1,0,0,1,1.85,4.63,6.41,6.41,0,0,1-4.65,6.13v.09c1.84.67,2.94,2.43,3.5,4.95a40.85,40.85,0,0,0,1.79,6.68l-3.25,0a32.26,32.26,0,0,1-1.53-5.82c-.68-3.33-2-4.64-4.81-4.76l-3,0-.12,10.51-3.13,0Zm3,11.08,3.2,0c3.36,0,5.5-1.76,5.53-4.54,0-3.16-2.22-4.55-5.52-4.59a13,13,0,0,0-3.1.24Z" transform="translate(-9.35)"/><path d="M923.83,785.4c0,1.82,0,3.39.09,4.76l-2.8,0-.13-2.85h-.09a6.52,6.52,0,0,1-5.8,3.18c-2.73,0-6-1.6-5.91-7.7l.12-10.18,3.15,0-.11,9.62c0,3.31,1,5.58,3.82,5.62a4.47,4.47,0,0,0,4.53-4.48l.13-10.66,3.15,0Z" transform="translate(-9.35)"/><path d="M938.71,790.34l-.26-2.2h-.09a6.51,6.51,0,0,1-5.36,2.54,5,5,0,0,1-5.26-5.06c0-4.22,3.82-6.49,10.54-6.36v-.37c0-1.42-.35-4-3.91-4.06a8.46,8.46,0,0,0-4.55,1.24l-.7-2.11a10.88,10.88,0,0,1,5.77-1.46c5.32.06,6.57,3.71,6.53,7.2l-.07,6.51a27.08,27.08,0,0,0,.21,4.17Zm-.39-8.9c-3.43-.11-7.36.46-7.4,3.83a2.79,2.79,0,0,0,2.92,3.06,4.36,4.36,0,0,0,4.28-2.86,3.36,3.36,0,0,0,.16-1Z" transform="translate(-9.35)"/><path d="M959.37,766.32l3.15,0-.19,16.22c-.07,6.46-3.26,8.4-7.43,8.35a10.34,10.34,0,0,1-3.35-.6l.49-2.56a7.64,7.64,0,0,0,2.64.5c2.8,0,4.45-1.22,4.51-6Z" transform="translate(-9.35)"/><path d="M983.29,782c-.08,6.44-4.58,9.21-8.77,9.16-4.72-.06-8.33-3.54-8.26-9.06.07-5.83,3.94-9.19,8.75-9.13C980,773,983.35,776.68,983.29,782Zm-13.81,0c0,3.81,2.11,6.72,5.2,6.75s5.34-2.77,5.38-6.72c0-2.95-1.4-6.69-5.17-6.73S969.52,778.73,969.48,782Z" transform="translate(-9.35)"/><path d="M996.84,791l-.25-2.21h-.1a6.45,6.45,0,0,1-5.35,2.53,5,5,0,0,1-5.26-5.05c0-4.22,3.81-6.49,10.54-6.36v-.37c0-1.42-.35-4-3.92-4.07a8.55,8.55,0,0,0-4.55,1.25l-.69-2.12a10.93,10.93,0,0,1,5.76-1.45c5.32.06,6.58,3.71,6.54,7.2l-.08,6.51a25.81,25.81,0,0,0,.22,4.17Zm-7.92-20.51c0-2.35,1-3.74,2.5-3.73a4.73,4.73,0,0,1,2.23.83,3.59,3.59,0,0,0,1.51.63c.56,0,.91-.31,1-1.52l1.68,0c0,2.39-.81,3.63-2.5,3.61a4.54,4.54,0,0,1-2.19-.78,3.69,3.69,0,0,0-1.54-.65c-.57,0-.88.61-1,1.61Zm7.53,11.61c-3.42-.11-7.35.46-7.39,3.82A2.79,2.79,0,0,0,992,789a4.34,4.34,0,0,0,4.27-2.87,3.27,3.27,0,0,0,.17-1Z" transform="translate(-9.35)"/><path d="M1020.4,782.42c-.08,6.45-4.58,9.21-8.77,9.16-4.72-.05-8.32-3.53-8.26-9.06.07-5.83,3.94-9.19,8.75-9.13C1017.13,773.45,1020.46,777.12,1020.4,782.42Zm-13.81,0c0,3.82,2.11,6.72,5.2,6.75s5.34-2.77,5.38-6.72c0-3-1.4-6.69-5.16-6.73S1006.63,779.16,1006.59,782.46Z" transform="translate(-9.35)"/><path d="M1047.25,766.05l-.24,21.06c0,1.55,0,3.29.09,4.49l-2.81,0-.13-3h-.08a6.39,6.39,0,0,1-5.95,3.33c-4.22,0-7.43-3.65-7.37-8.93,0-5.82,3.7-9.31,7.93-9.26a5.82,5.82,0,0,1,5.23,2.7h.07l.12-10.39Zm-3.32,15.19a6.85,6.85,0,0,0-.12-1.35,4.67,4.67,0,0,0-4.54-3.7c-3.28,0-5.27,2.81-5.32,6.64,0,3.53,1.69,6.49,5.1,6.53a5.06,5.06,0,0,0,4.84-5.1Z" transform="translate(-9.35)"/><path d="M1054.1,783.55c0,4.28,2.71,6.08,5.89,6.12a11.86,11.86,0,0,0,4.83-.84l.53,2.25a13.94,13.94,0,0,1-5.82,1c-5.35-.07-8.53-3.67-8.46-8.89s3.21-9.36,8.3-9.3c5.67.07,7.1,5.07,7.06,8.27a7.63,7.63,0,0,1-.12,1.49Zm9.29-2.17c.06-2-.75-5.13-4.3-5.17-3.23,0-4.64,2.86-4.92,5.07Z" transform="translate(-9.35)"/><path d="M1078.28,767.7l3.15,0-.26,21.62,10.37.12,0,2.64L1078,792Z" transform="translate(-9.35)"/><path d="M1098.69,769.88a1.91,1.91,0,0,1-2,1.94,1.89,1.89,0,0,1-1.89-2,1.93,1.93,0,0,1,2-2A1.9,1.9,0,0,1,1098.69,769.88Zm-3.8,22.28.2-17.41,3.15,0-.2,17.41Z" transform="translate(-9.35)"/><path d="M1103.46,779.55c0-1.81,0-3.26-.09-4.7l2.75,0,.14,2.81h.09a6,6,0,0,1,5.53-3.14,5.14,5.14,0,0,1,4.87,3.55h.07a7,7,0,0,1,2-2.24,5.91,5.91,0,0,1,3.84-1.18c2.33,0,5.73,1.57,5.66,7.62l-.12,10.25-3.09,0,.11-9.84c0-3.37-1.17-5.38-3.71-5.41a4.14,4.14,0,0,0-3.8,2.8,5.23,5.23,0,0,0-.28,1.59l-.12,10.77-3.09,0,.12-10.45c0-2.77-1.17-4.78-3.56-4.81a4.37,4.37,0,0,0-4,3.12,4.58,4.58,0,0,0-.26,1.55l-.12,10.49-3.1,0Z" transform="translate(-9.35)"/><path d="M1143,792.72l-.26-2.2h-.09a6.46,6.46,0,0,1-5.36,2.53,5,5,0,0,1-5.25-5c0-4.22,3.81-6.49,10.53-6.37v-.37c0-1.41-.35-4-3.92-4.06a8.46,8.46,0,0,0-4.55,1.25l-.69-2.12a11,11,0,0,1,5.76-1.46c5.32.07,6.58,3.72,6.53,7.21l-.07,6.51a27.08,27.08,0,0,0,.21,4.17Zm-.39-8.89c-3.43-.11-7.36.46-7.39,3.82a2.78,2.78,0,0,0,2.91,3.07,4.36,4.36,0,0,0,4.28-2.87,3.24,3.24,0,0,0,.16-1Z" transform="translate(-9.35)"/></g></g></g></svg>