<svg xmlns="http://www.w3.org/2000/svg" viewBox="0 0 1209.25 755.64"><defs><style>.cls-1{fill:#cfdcfa;stroke:#000;stroke-miterlimit:10;stroke-width:4px;}</style></defs><g id="Layer_2" data-name="Layer 2"><g id="Novo_Mapa" data-name="Novo Mapa"><path class="cls-1" d="M822.81,300.31a24,24,0,0,1-25.44,23L559.94,309s-118-8-233-8h-.45a9.29,9.29,0,0,0-8.89,12l34.8,151.82A11.5,11.5,0,0,0,363.08,473L843.4,487.13A24.42,24.42,0,0,1,867,509.05h0a24.42,24.42,0,0,1-25,26.88L377.53,522.11a9,9,0,0,0-9.07,11.08L389,621.29c11.1,47.59,63.77,83.47,121.77,86.47l682.78,29.4a10.06,10.06,0,0,0,10.25-12.3l-60-260.1c-12-48-15-82.5-15-82.5-3-34.5-14-89.5-14-89.5L1081.14,82.18a10.43,10.43,0,0,0-9.86-8.78L36.53,30.29A9.48,9.48,0,0,0,27,42.11L64.59,188.67A84.37,84.37,0,0,0,145.93,252l168.86.72c115,0,245,8,245,8l240.47,14.57a24,24,0,0,1,22.55,25Z" transform="translate(-9.4 -6.01)"/><path d="M415.67,267a34.49,34.49,0,0,1,6-.29c3.07.1,5.32.89,6.73,2.24a6.6,6.6,0,0,1,2,5.15,7.12,7.12,0,0,1-2.06,5.12c-1.73,1.72-4.43,2.52-7.49,2.42a10.42,10.42,0,0,1-2.53-.31l-.32,9.73-3.13-.1Zm2.74,11.78a9.67,9.67,0,0,0,2.59.36c3.8.12,6.15-1.67,6.26-5s-2.13-4.85-5.57-5a15.62,15.62,0,0,0-3,.15Z" transform="translate(-9.4 -6.01)"/><path d="M433.74,279.58c.08-2.06.09-3.81.05-5.43l2.78.1v3.42h.12a5.26,5.26,0,0,1,5-3.64,3.46,3.46,0,0,1,.88.12l-.11,3a4.67,4.67,0,0,0-1.07-.13c-2.23-.08-3.87,1.54-4.38,3.89a7.49,7.49,0,0,0-.18,1.48l-.34,9.29-3.14-.11Z" transform="translate(-9.4 -6.01)"/><path d="M454.55,292.35l-.19-2.21h-.1a6.48,6.48,0,0,1-5.42,2.39,5,5,0,0,1-5.12-5.2c.16-4.22,4-6.39,10.7-6.08l0-.37c.05-1.41-.24-4.05-3.81-4.17a8.54,8.54,0,0,0-4.58,1.12l-.64-2.13a11,11,0,0,1,5.8-1.3c5.32.2,6.48,3.89,6.35,7.38l-.26,6.51a28,28,0,0,0,.11,4.17Zm-.15-8.9c-3.42-.21-7.36.25-7.49,3.62a2.78,2.78,0,0,0,2.83,3.14,4.36,4.36,0,0,0,4.36-2.75,3.67,3.67,0,0,0,.19-1Z" transform="translate(-9.4 -6.01)"/><path d="M474.64,292.54a12,12,0,0,1-5,.8c-5.25-.22-8.54-3.93-8.31-9.25s4-9.12,9.73-8.88a10.06,10.06,0,0,1,4.35,1.11l-.8,2.4a7.6,7.6,0,0,0-3.66-1c-4-.17-6.27,2.72-6.41,6.33-.17,4,2.32,6.61,5.78,6.76a9.23,9.23,0,0,0,3.91-.68Zm-4.29.37-1.26,1.84a2.65,2.65,0,0,1,2.41,2.58c-.08,2.12-1.86,2.84-3.87,2.76a5,5,0,0,1-2.42-.73l.6-1.51a3.9,3.9,0,0,0,1.93.6c.79,0,1.57-.22,1.58-1.07s-1-1.41-2.74-1.62l1.82-2.93Z" transform="translate(-9.4 -6.01)"/><path d="M488,293.77l-.18-2.21h-.09a6.5,6.5,0,0,1-5.44,2.35,5,5,0,0,1-5.09-5.23c.19-4.21,4-6.36,10.75-6v-.37c.07-1.41-.21-4.05-3.78-4.19a8.46,8.46,0,0,0-4.58,1.09l-.63-2.13a10.89,10.89,0,0,1,5.81-1.27c5.32.24,6.45,3.93,6.29,7.42l-.29,6.5a28.35,28.35,0,0,0,.08,4.18Zm-.09-8.9c-3.42-.23-7.36.21-7.52,3.57a2.79,2.79,0,0,0,2.82,3.16,4.35,4.35,0,0,0,4.37-2.72,3.35,3.35,0,0,0,.2-1Z" transform="translate(-9.4 -6.01)"/><path d="M520.34,294.55a15.59,15.59,0,0,1-6.46.83c-6.83-.33-11.73-4.91-11.34-12.86.38-7.61,5.76-12.46,13.28-12.09a13,13,0,0,1,5.7,1.36l-.9,2.51a11.51,11.51,0,0,0-4.82-1.24c-5.69-.29-9.63,3.16-9.95,9.52-.29,5.93,2.93,9.89,8.8,10.18a12.69,12.69,0,0,0,5.18-.74Z" transform="translate(-9.4 -6.01)"/><path d="M533.5,296l-.16-2.21h-.09a6.48,6.48,0,0,1-5.46,2.3,5,5,0,0,1-5-5.27c.22-4.21,4.08-6.32,10.79-5.92l0-.37c.08-1.41-.18-4.05-3.74-4.22a8.51,8.51,0,0,0-4.6,1.06l-.61-2.15a11,11,0,0,1,5.82-1.21c5.32.28,6.42,4,6.23,7.47l-.35,6.5a28.71,28.71,0,0,0,0,4.18Zm0-8.9c-3.42-.26-7.37.15-7.55,3.51a2.79,2.79,0,0,0,2.79,3.19,4.36,4.36,0,0,0,4.39-2.69,3,3,0,0,0,.2-1Z" transform="translate(-9.4 -6.01)"/><path d="M541.83,284.49c.12-2.05.17-3.8.17-5.42l2.77.16-.08,3.42h.11a5.29,5.29,0,0,1,5.06-3.52,3.45,3.45,0,0,1,.88.14l-.17,3a5.15,5.15,0,0,0-1.07-.16c-2.23-.12-3.9,1.47-4.47,3.81a9,9,0,0,0-.21,1.46l-.53,9.29-3.15-.18Z" transform="translate(-9.4 -6.01)"/><path d="M554.56,271.64l3.14.19-1.53,25.51-3.14-.19Z" transform="translate(-9.4 -6.01)"/><path d="M577.79,289.75c-.39,6.43-5,9-9.2,8.73-4.71-.28-8.15-3.93-7.82-9.45.35-5.82,4.38-9,9.18-8.7C575,280.63,578.1,284.46,577.79,289.75Zm-13.8-.62c-.22,3.81,1.79,6.81,4.87,7s5.47-2.51,5.7-6.46c.18-2.94-1.08-6.74-4.84-7S564.19,285.83,564,289.13Z" transform="translate(-9.4 -6.01)"/><path d="M581,295.6a8.57,8.57,0,0,0,4.11,1.49c2.31.14,3.45-.93,3.53-2.38s-.78-2.38-3-3.38c-3.07-1.32-4.45-3.12-4.32-5.2.17-2.8,2.58-5,6.32-4.74a8.53,8.53,0,0,1,4.19,1.32l-.92,2.25a6.86,6.86,0,0,0-3.51-1.23c-1.86-.11-2.94.9-3,2.21s.9,2.14,3.13,3.16c2.92,1.3,4.39,2.9,4.24,5.5-.18,3.08-2.71,5.09-6.81,4.84a9.91,9.91,0,0,1-4.81-1.5Z" transform="translate(-9.4 -6.01)"/><path d="M620.17,300.4a15.53,15.53,0,0,1-6.47.77c-6.82-.41-11.68-5-11.2-13,.45-7.6,5.88-12.4,13.4-11.95a13.15,13.15,0,0,1,5.68,1.41l-.92,2.5a11.52,11.52,0,0,0-4.81-1.29c-5.69-.34-9.67,3.07-10.05,9.43-.35,5.92,2.84,9.91,8.7,10.27a12.8,12.8,0,0,0,5.19-.69Z" transform="translate(-9.4 -6.01)"/><path d="M625.4,275.89l3.15.19-.65,10.85H628a6.45,6.45,0,0,1,5.69-2.77c2.35.14,6,1.79,5.62,7.78l-.62,10.35-3.15-.19.6-10c.17-2.81-.75-5.22-3.71-5.4a4.6,4.6,0,0,0-4.45,2.9,4.15,4.15,0,0,0-.3,1.49l-.63,10.5-3.15-.18Z" transform="translate(-9.4 -6.01)"/><path d="M653.44,303.18l-.15-2.21h-.09a6.46,6.46,0,0,1-5.47,2.27,5,5,0,0,1-5-5.3c.25-4.21,4.12-6.3,10.83-5.85l0-.37c.09-1.41-.15-4-3.71-4.24a8.46,8.46,0,0,0-4.61,1l-.59-2.14a10.8,10.8,0,0,1,5.83-1.18c5.31.31,6.39,4,6.18,7.5l-.39,6.51a27.48,27.48,0,0,0,0,4.17Zm0-8.9c-3.41-.28-7.37.1-7.57,3.46a2.79,2.79,0,0,0,2.77,3.2,4.35,4.35,0,0,0,4.41-2.65,3.38,3.38,0,0,0,.21-1Z" transform="translate(-9.4 -6.01)"/><path d="M677.18,287.16c-.17,1.23-.31,2.63-.44,4.75l-.6,10.09c-.24,4-1.21,6.39-3,7.81a9.37,9.37,0,0,1-6.45,1.71,11.32,11.32,0,0,1-5.72-1.78l.94-2.39a9.71,9.71,0,0,0,5,1.7c3.23.19,5.7-1.35,6-5.75l.12-1.94H673a6.19,6.19,0,0,1-5.7,2.59c-4.33-.26-7.19-4.13-6.9-8.94.35-5.89,4.38-9,8.4-8.75a5.79,5.79,0,0,1,5.24,3.33h.07l.29-2.59Zm-3.7,6.64a5,5,0,0,0-.09-1.42,4.57,4.57,0,0,0-4.24-3.63c-3-.18-5.33,2.24-5.57,6.28-.2,3.4,1.38,6.36,4.77,6.57a4.65,4.65,0,0,0,4.59-3,5.46,5.46,0,0,0,.35-1.67Z" transform="translate(-9.4 -6.01)"/><path d="M690.86,305.43l-.15-2.22h-.1a6.46,6.46,0,0,1-5.47,2.27,5,5,0,0,1-5-5.3c.25-4.21,4.12-6.3,10.83-5.85l0-.37c.08-1.41-.16-4-3.72-4.25a8.55,8.55,0,0,0-4.61,1l-.59-2.15a11,11,0,0,1,5.83-1.18c5.31.32,6.39,4,6.18,7.51l-.39,6.5a26.29,26.29,0,0,0,0,4.18Zm0-8.91c-3.41-.27-7.36.11-7.56,3.47a2.78,2.78,0,0,0,2.76,3.2,4.35,4.35,0,0,0,4.41-2.66,3,3,0,0,0,.21-1Z" transform="translate(-9.4 -6.01)"/><path d="M698.31,302.65a8.72,8.72,0,0,0,4.11,1.49c2.31.13,3.45-.94,3.54-2.39s-.78-2.37-3-3.38c-3.07-1.32-4.46-3.12-4.33-5.2.17-2.8,2.58-5,6.32-4.74a8.43,8.43,0,0,1,4.19,1.33l-.92,2.25a6.84,6.84,0,0,0-3.5-1.24c-1.87-.11-2.95.9-3,2.21s.89,2.15,3.12,3.17c2.93,1.29,4.39,2.89,4.24,5.49-.18,3.08-2.7,5.09-6.81,4.85A9.91,9.91,0,0,1,697.4,305Z" transform="translate(-9.4 -6.01)"/><path d="M469.37,489.26a32.81,32.81,0,0,1,6-.34c3.32.1,5.49.79,7,2.2a6.09,6.09,0,0,1,1.77,4.67,6.41,6.41,0,0,1-4.76,6v.09c1.83.7,2.9,2.48,3.41,5a40.6,40.6,0,0,0,1.67,6.71l-3.25-.1a31.89,31.89,0,0,1-1.42-5.85c-.62-3.34-1.89-4.67-4.73-4.85l-3-.09-.31,10.51-3.13-.09Zm2.8,11.13,3.2.1c3.35.1,5.53-1.67,5.61-4.45.09-3.15-2.14-4.58-5.44-4.68a13.56,13.56,0,0,0-3.11.18Z" transform="translate(-9.4 -6.01)"/><path d="M502.59,509.42c0,1.83,0,3.39,0,4.77l-2.79-.09-.09-2.85h-.08a6.51,6.51,0,0,1-5.86,3.07c-2.72-.08-5.95-1.7-5.77-7.8l.3-10.17,3.15.09-.28,9.62c-.1,3.31.87,5.6,3.72,5.68a4.61,4.61,0,0,0,4.28-2.78,5.1,5.1,0,0,0,.33-1.61l.32-10.66,3.15.09Z" transform="translate(-9.4 -6.01)"/><path d="M517.39,514.63l-.22-2.21h-.09a6.46,6.46,0,0,1-5.4,2.43,5,5,0,0,1-5.17-5.15c.13-4.21,3.93-6.42,10.65-6.17v-.37c0-1.41-.28-4-3.84-4.13a8.5,8.5,0,0,0-4.57,1.16l-.66-2.12a11,11,0,0,1,5.79-1.36c5.32.16,6.51,3.83,6.4,7.32l-.19,6.51a27.65,27.65,0,0,0,.14,4.17Zm-.23-8.9c-3.42-.18-7.36.32-7.46,3.69a2.77,2.77,0,0,0,2.86,3.11,4.36,4.36,0,0,0,4.33-2.78,3.36,3.36,0,0,0,.18-1Z" transform="translate(-9.4 -6.01)"/><path d="M538.47,491l3.15.1-.48,16.21c-.19,6.45-3.41,8.34-7.58,8.22a10.39,10.39,0,0,1-3.34-.67l.53-2.54a7.56,7.56,0,0,0,2.64.54c2.79.08,4.47-1.14,4.61-5.9Z" transform="translate(-9.4 -6.01)"/><path d="M562.09,507.08c-.19,6.45-4.75,9.13-8.93,9-4.72-.14-8.26-3.69-8.1-9.21.17-5.83,4.1-9.12,8.92-9C559,498.05,562.25,501.78,562.09,507.08Zm-13.8-.2c-.12,3.81,2,6.75,5.07,6.84s5.39-2.68,5.51-6.62c.08-3-1.29-6.71-5-6.83S548.38,503.58,548.29,506.88Z" transform="translate(-9.4 -6.01)"/><path d="M575.49,516.36l-.21-2.21h-.1a6.46,6.46,0,0,1-5.4,2.43,5,5,0,0,1-5.17-5.15c.13-4.21,3.93-6.42,10.65-6.17v-.37c.05-1.41-.27-4-3.84-4.13a8.5,8.5,0,0,0-4.57,1.16l-.66-2.12a11,11,0,0,1,5.79-1.36c5.32.16,6.51,3.83,6.41,7.32l-.2,6.51a27.65,27.65,0,0,0,.14,4.17Zm-.23-8.9c-3.42-.18-7.36.32-7.46,3.69a2.78,2.78,0,0,0,2.86,3.11,4.36,4.36,0,0,0,4.33-2.78,3.36,3.36,0,0,0,.18-1Zm-7.32-11.75c0-2.35,1-3.72,2.57-3.68a4.86,4.86,0,0,1,2.21.87,3.8,3.8,0,0,0,1.5.66c.56,0,.91-.3,1-1.5l1.69.05c0,2.38-.88,3.61-2.57,3.56a4.58,4.58,0,0,1-2.18-.82,3.46,3.46,0,0,0-1.53-.68c-.57,0-.89.59-1,1.59Z" transform="translate(-9.4 -6.01)"/><path d="M599.2,508.19c-.19,6.44-4.75,9.13-8.93,9-4.72-.14-8.26-3.68-8.1-9.21.18-5.82,4.11-9.11,8.92-9C596.09,499.16,599.36,502.89,599.2,508.19ZM585.4,508c-.12,3.82,2,6.75,5.07,6.85s5.39-2.68,5.51-6.63c.08-2.94-1.29-6.71-5.05-6.82S585.49,504.68,585.4,508Z" transform="translate(-9.4 -6.01)"/><path d="M611.38,493.15l13.06.39-.08,2.61-9.91-.29-.24,8.07,9.16.27-.08,2.6-9.16-.28-.32,11-3.15-.1Z" transform="translate(-9.4 -6.01)"/><path d="M629,509.81c-.06,4.28,2.6,6.13,5.78,6.22a11.72,11.72,0,0,0,4.85-.75l.48,2.27a13.94,13.94,0,0,1-5.83.93c-5.35-.15-8.46-3.81-8.31-9s3.39-9.3,8.47-9.15c5.68.17,7,5.19,6.92,8.4a7.94,7.94,0,0,1-.15,1.48Zm9.33-2c.1-2-.66-5.14-4.21-5.25-3.23-.1-4.69,2.78-5,5Z" transform="translate(-9.4 -6.01)"/><path d="M645.37,506.45c.06-2.06.06-3.81,0-5.43l2.78.09,0,3.41h.11a5.29,5.29,0,0,1,5-3.67,3.32,3.32,0,0,1,.87.12l-.08,3a5.38,5.38,0,0,0-1.08-.12c-2.23-.07-3.85,1.57-4.35,3.92a7.52,7.52,0,0,0-.17,1.48l-.28,9.29-3.15-.09Z" transform="translate(-9.4 -6.01)"/><path d="M657.3,506.08c.05-1.81,0-3.26,0-4.7l2.8.08.09,2.87h.09a6.42,6.42,0,0,1,5.85-3.09c2.39.07,6.09,1.62,5.91,7.6l-.31,10.38-3.15-.09.3-10c.08-2.82-.91-5.2-3.87-5.29a4.54,4.54,0,0,0-4.36,3.12,4.82,4.82,0,0,0-.26,1.46l-.31,10.49-3.15-.1Z" transform="translate(-9.4 -6.01)"/><path d="M686.54,519.66l-.21-2.2h-.1a6.47,6.47,0,0,1-5.4,2.44,5,5,0,0,1-5.16-5.15c.12-4.22,3.93-6.42,10.65-6.17v-.37c0-1.42-.28-4.05-3.84-4.13a8.47,8.47,0,0,0-4.58,1.16l-.65-2.13a11,11,0,0,1,5.79-1.35c5.32.15,6.5,3.83,6.4,7.32l-.19,6.51a26.44,26.44,0,0,0,.14,4.17Zm-.23-8.9c-3.42-.17-7.36.33-7.46,3.69a2.79,2.79,0,0,0,2.87,3.12,4.34,4.34,0,0,0,4.32-2.79,3.3,3.3,0,0,0,.18-1Z" transform="translate(-9.4 -6.01)"/><path d="M694.62,507.19c.06-1.81,0-3.26,0-4.7l2.79.08.09,2.87h.09a6.45,6.45,0,0,1,5.85-3.09c2.39.07,6.09,1.62,5.91,7.6L709,520.33l-3.14-.09.29-10c.09-2.82-.9-5.2-3.86-5.29A4.53,4.53,0,0,0,698,508a4.81,4.81,0,0,0-.27,1.46L697.39,520l-3.15-.1Z" transform="translate(-9.4 -6.01)"/><path d="M730,495.39l-.62,21.05c-.05,1.55,0,3.29,0,4.5l-2.81-.09-.07-3h-.09a6.38,6.38,0,0,1-6,3.23c-4.22-.13-7.37-3.79-7.21-9.07.15-5.81,3.86-9.24,8.1-9.11a5.79,5.79,0,0,1,5.17,2.79h.07l.31-10.39Zm-3.59,15.13a6.28,6.28,0,0,0-.1-1.36,4.67,4.67,0,0,0-4.47-3.77c-3.28-.1-5.32,2.71-5.44,6.54-.1,3.53,1.57,6.52,5,6.62a4.78,4.78,0,0,0,4.74-3.66,5.24,5.24,0,0,0,.2-1.36Z" transform="translate(-9.4 -6.01)"/><path d="M736.52,513c-.06,4.28,2.6,6.13,5.78,6.22a11.64,11.64,0,0,0,4.84-.75l.49,2.27a14.09,14.09,0,0,1-5.84.94c-5.34-.16-8.45-3.82-8.3-9s3.39-9.3,8.47-9.15c5.67.17,7,5.19,6.92,8.4a7.78,7.78,0,0,1-.16,1.48Zm9.33-2c.09-2-.66-5.14-4.21-5.25-3.23-.1-4.69,2.78-5,5Z" transform="translate(-9.4 -6.01)"/><path d="M752.19,518.39a8.61,8.61,0,0,0,4.16,1.37c2.31.06,3.41-1,3.46-2.49s-.85-2.35-3.14-3.29c-3.11-1.23-4.55-3-4.48-5.07.08-2.8,2.43-5,6.17-4.92a8.4,8.4,0,0,1,4.23,1.2l-.85,2.27a6.89,6.89,0,0,0-3.54-1.13c-1.87-.05-2.92,1-3,2.31s1,2.11,3.22,3.06c3,1.21,4.48,2.77,4.41,5.36-.09,3.09-2.55,5.18-6.66,5.05a10,10,0,0,1-4.86-1.35Z" transform="translate(-9.4 -6.01)"/><path d="M272.51,6.31A33.49,33.49,0,0,1,278.56,6c3.32.14,5.48.86,6.94,2.29A6.08,6.08,0,0,1,287.21,13a6.41,6.41,0,0,1-4.83,6v.09c1.82.73,2.86,2.52,3.35,5.06a40.31,40.31,0,0,0,1.59,6.73l-3.25-.14a32.5,32.5,0,0,1-1.35-5.87c-.58-3.35-1.84-4.69-4.67-4.9l-3-.12-.43,10.5-3.13-.13Zm2.67,11.17,3.2.13c3.35.14,5.55-1.6,5.67-4.38.13-3.14-2.09-4.61-5.39-4.75a13.51,13.51,0,0,0-3.11.15Z" transform="translate(-9.4 -6.01)"/><path d="M305.47,26.86c-.07,1.83-.08,3.39-.05,4.77l-2.8-.11-.05-2.86h-.08a6.5,6.5,0,0,1-5.9,3c-2.72-.11-5.92-1.77-5.67-7.87l.42-10.17,3.15.13-.4,9.61c-.14,3.32.8,5.62,3.66,5.73a4.59,4.59,0,0,0,4.3-2.72,4.83,4.83,0,0,0,.36-1.62l.44-10.65,3.15.13Z" transform="translate(-9.4 -6.01)"/><path d="M320.21,32.25,320,30h-.1a6.49,6.49,0,0,1-5.43,2.37,5,5,0,0,1-5.1-5.22c.17-4.21,4-6.37,10.72-6l0-.37c.06-1.41-.23-4.05-3.8-4.18a8.56,8.56,0,0,0-4.58,1.11l-.63-2.13a11,11,0,0,1,5.8-1.29c5.32.22,6.46,3.91,6.32,7.4l-.27,6.5a27,27,0,0,0,.09,4.18Zm-.13-8.9c-3.42-.22-7.36.23-7.5,3.6a2.79,2.79,0,0,0,2.83,3.15,4.37,4.37,0,0,0,4.36-2.74,3.67,3.67,0,0,0,.19-1Z" transform="translate(-9.4 -6.01)"/><path d="M356.85,21.39c-.35,8.32-5.6,12.55-11.78,12.29-6.43-.27-10.69-5.43-10.38-12.76C335,13.24,340,8.39,346.44,8.66,353.06,8.94,357.15,14.19,356.85,21.39ZM338,21c-.21,5.19,2.41,10,7.35,10.15s7.95-4.24,8.18-9.75c.2-4.83-2.1-10-7.31-10.19S338.22,15.69,338,21Z" transform="translate(-9.4 -6.01)"/><path d="M360.89,21.23c.08-1.82.08-3.26.06-4.71l2.79.12.06,2.87h.08a6.44,6.44,0,0,1,5.89-3c2.39.1,6.07,1.7,5.82,7.67l-.43,10.38L372,34.41l.42-10c.12-2.81-.84-5.21-3.81-5.34a4.57,4.57,0,0,0-4.39,3.07,4.8,4.8,0,0,0-.28,1.46l-.44,10.48-3.14-.13Z" transform="translate(-9.4 -6.01)"/><path d="M396.43,9.84l-.88,21.05c-.06,1.55-.08,3.29,0,4.5l-2.81-.12,0-3h-.08a6.39,6.39,0,0,1-6.05,3.16c-4.21-.18-7.31-3.88-7.09-9.15.21-5.81,4-9.2,8.2-9a5.81,5.81,0,0,1,5.14,2.86h.07l.43-10.39Zm-3.78,15.09a6.25,6.25,0,0,0-.08-1.36,4.69,4.69,0,0,0-4.43-3.83c-3.27-.13-5.35,2.66-5.51,6.48-.15,3.53,1.49,6.54,4.9,6.68a4.77,4.77,0,0,0,4.78-3.6,5.16,5.16,0,0,0,.21-1.35Z" transform="translate(-9.4 -6.01)"/><path d="M400.63,35.6l.72-17.39,3.15.13-.72,17.39Zm4.46-22.16A1.91,1.91,0,0,1,403,15.32a1.89,1.89,0,0,1-1.83-2.05,1.92,1.92,0,0,1,2.05-1.88A1.89,1.89,0,0,1,405.09,13.44Z" transform="translate(-9.4 -6.01)"/><path d="M409.57,23.26c.08-1.82.08-3.26.06-4.71l2.79.12.06,2.87h.08a6.44,6.44,0,0,1,5.89-3c2.39.1,6.07,1.69,5.82,7.67l-.43,10.38-3.15-.13.42-10c.12-2.81-.84-5.21-3.8-5.34a4.56,4.56,0,0,0-4.4,3.07,4.8,4.8,0,0,0-.28,1.46l-.44,10.48L409.05,36Z" transform="translate(-9.4 -6.01)"/><path d="M438.66,37.18l-.19-2.2h-.09A6.47,6.47,0,0,1,433,37.34a5,5,0,0,1-5.11-5.21c.18-4.21,4-6.37,10.72-6l0-.37c.06-1.42-.23-4-3.79-4.18a8.41,8.41,0,0,0-4.59,1.11l-.63-2.14a11,11,0,0,1,5.81-1.28c5.31.22,6.46,3.91,6.31,7.39l-.27,6.51a28.12,28.12,0,0,0,.09,4.17Zm-.12-8.9c-3.42-.21-7.37.24-7.51,3.6A2.78,2.78,0,0,0,433.86,35a4.35,4.35,0,0,0,4.36-2.73,3.38,3.38,0,0,0,.19-1Z" transform="translate(-9.4 -6.01)"/><path d="M661,22.5a32.49,32.49,0,0,1,6-.27c3.32.13,5.49.86,6.94,2.28a6.08,6.08,0,0,1,1.71,4.69,6.41,6.41,0,0,1-4.83,6v.09c1.82.72,2.87,2.51,3.35,5a40.31,40.31,0,0,0,1.59,6.73l-3.25-.13a32.73,32.73,0,0,1-1.35-5.87c-.58-3.35-1.84-4.69-4.67-4.91l-3-.12-.44,10.51L660,46.41Zm2.66,11.16,3.2.13c3.35.14,5.55-1.59,5.67-4.37.13-3.15-2.08-4.61-5.39-4.75a13.69,13.69,0,0,0-3.11.14Z" transform="translate(-9.4 -6.01)"/><path d="M693.92,43.05c-.07,1.82-.08,3.39,0,4.77l-2.8-.12L691,44.85h-.08a6.53,6.53,0,0,1-5.9,3c-2.72-.12-5.92-1.78-5.67-7.88l.42-10.16,3.15.13-.4,9.61c-.14,3.31.8,5.61,3.66,5.73a4.59,4.59,0,0,0,4.3-2.73,4.83,4.83,0,0,0,.36-1.61l.44-10.65,3.15.13Z" transform="translate(-9.4 -6.01)"/><path d="M708.65,48.43l-.19-2.21h-.1a6.44,6.44,0,0,1-5.43,2.37,5,5,0,0,1-5.1-5.21c.17-4.21,4-6.37,10.72-6.05l0-.36c.06-1.42-.23-4-3.8-4.18a8.38,8.38,0,0,0-4.58,1.11l-.63-2.14a11,11,0,0,1,5.8-1.28c5.32.22,6.46,3.91,6.32,7.39l-.27,6.51a26.82,26.82,0,0,0,.09,4.17Zm-.13-8.9c-3.42-.21-7.36.24-7.5,3.6a2.78,2.78,0,0,0,2.83,3.15,4.35,4.35,0,0,0,4.36-2.73,3.75,3.75,0,0,0,.19-1Z" transform="translate(-9.4 -6.01)"/><path d="M745.32,37.58c-.34,8.31-5.6,12.54-11.78,12.29-6.42-.27-10.68-5.43-10.38-12.76.32-7.68,5.28-12.53,11.75-12.26C741.53,25.12,745.62,30.37,745.32,37.58Zm-18.85-.4c-.21,5.18,2.41,9.94,7.35,10.15s8-4.25,8.18-9.75c.21-4.83-2.1-10-7.31-10.19S726.7,31.87,726.47,37.18Z" transform="translate(-9.4 -6.01)"/><path d="M749.35,37.41c.08-1.81.08-3.26,0-4.7l2.8.11,0,2.87h.09a6.43,6.43,0,0,1,5.89-3c2.39.1,6.07,1.69,5.82,7.67l-.43,10.37-3.15-.13.42-10c.11-2.81-.85-5.21-3.81-5.33a4.57,4.57,0,0,0-4.4,3.07,5.13,5.13,0,0,0-.27,1.46L752,50.24l-3.15-.13Z" transform="translate(-9.4 -6.01)"/><path d="M784.88,26l-.87,21c-.07,1.54-.08,3.29,0,4.49l-2.81-.12,0-3H781a6.37,6.37,0,0,1-6,3.15c-4.22-.17-7.32-3.87-7.1-9.14.22-5.82,4-9.2,8.21-9a5.8,5.8,0,0,1,5.13,2.86h.07l.44-10.38ZM781.1,41.12a6.93,6.93,0,0,0-.07-1.36,4.68,4.68,0,0,0-4.43-3.83c-3.28-.14-5.36,2.65-5.52,6.48-.14,3.53,1.5,6.54,4.91,6.68a4.79,4.79,0,0,0,4.78-3.61,5.09,5.09,0,0,0,.21-1.35Z" transform="translate(-9.4 -6.01)"/><path d="M789.08,51.78l.72-17.39,3.15.13-.73,17.4Zm4.46-22.16a1.9,1.9,0,0,1-2.09,1.88,1.88,1.88,0,0,1-1.83-2,1.92,1.92,0,0,1,2-1.89A1.9,1.9,0,0,1,793.54,29.62Z" transform="translate(-9.4 -6.01)"/><path d="M798,39.44c.08-1.82.08-3.26,0-4.7l2.8.11.06,2.87H801a6.45,6.45,0,0,1,5.89-3c2.39.1,6.07,1.69,5.82,7.66l-.43,10.38-3.15-.13.42-10c.12-2.81-.84-5.21-3.81-5.33a4.55,4.55,0,0,0-4.39,3.07,4.73,4.73,0,0,0-.28,1.45l-.44,10.49-3.14-.13Z" transform="translate(-9.4 -6.01)"/><path d="M827.12,53.37l-.19-2.21h-.09a6.49,6.49,0,0,1-5.43,2.37,5,5,0,0,1-5.11-5.21c.18-4.22,4-6.38,10.72-6l0-.37c.06-1.41-.23-4-3.79-4.17a8.47,8.47,0,0,0-4.59,1.1L818,36.7a11,11,0,0,1,5.8-1.29c5.32.22,6.47,3.91,6.32,7.4l-.27,6.5a28.22,28.22,0,0,0,.09,4.18Zm-.12-8.9c-3.42-.22-7.37.23-7.51,3.6a2.79,2.79,0,0,0,2.83,3.15,4.37,4.37,0,0,0,4.36-2.74,3.32,3.32,0,0,0,.19-1Z" transform="translate(-9.4 -6.01)"/><path d="M32.58,101.7a33.19,33.19,0,0,1,2,5.7c.83,3.23.76,5.51-.18,7.31a6.06,6.06,0,0,1-4,3,6.39,6.39,0,0,1-7.12-2.89l-.09,0c-.17,2-1.58,3.48-3.87,4.67a40.35,40.35,0,0,0-6,3.47l-.8-3.15a31.57,31.57,0,0,1,5.22-3c3-1.53,4-3.12,3.35-5.89l-.74-2.87-10.18,2.61-.78-3Zm-9.92,5.78.8,3.1c.83,3.25,3.13,4.85,5.82,4.16,3-.78,3.81-3.33,3-6.53a14.4,14.4,0,0,0-1-2.94Z" transform="translate(-9.4 -6.01)"/><path d="M22.42,139.2c-1.77.46-3.26.9-4.58,1.33l-.69-2.71,2.71-.87,0-.09a6.48,6.48,0,0,1-4.57-4.77c-.68-2.64,0-6.19,5.89-7.71L31,121.85l.78,3.05-9.31,2.39c-3.22.83-5.15,2.39-4.43,5.16a4.59,4.59,0,0,0,3.85,3.33,4.77,4.77,0,0,0,1.65-.12L33.89,133l.78,3.05Z" transform="translate(-9.4 -6.01)"/><path d="M21.51,154.83l2.06-.82,0-.09a6.49,6.49,0,0,1-3.84-4.52A5,5,0,0,1,23.23,143c4.08-1,7.25,2,8.88,8.52l.36-.09c1.37-.35,3.81-1.39,2.9-4.84A8.46,8.46,0,0,0,33,142.53l1.86-1.22a11,11,0,0,1,2.91,5.19c1.32,5.15-1.88,7.31-5.26,8.18l-6.31,1.62a28.08,28.08,0,0,0-4,1.29ZM30,152.14c-.78-3.34-2.35-7-5.61-6.15a2.78,2.78,0,0,0-2.2,3.62A4.34,4.34,0,0,0,26.06,153a3,3,0,0,0,1-.1Z" transform="translate(-9.4 -6.01)"/><path d="M33.72,171.69l-8-.53L24.9,168l25.55,2,.94,3.65L30,187.68l-.83-3.25L35.86,180Zm4.35,7.11,6.17-4.07c1.4-.9,2.71-1.62,4-2.31l0-.08c-1.46,0-3,0-4.54-.08l-7.4-.56Z" transform="translate(-9.4 -6.01)"/><path d="M55.54,184.58l.78,3L31.57,194l-.79-3.05Z" transform="translate(-9.4 -6.01)"/><path d="M33,199.47l14.53-3.73-.6-2.35,2.32-.6.61,2.35.81-.21c2.38-.61,4.67-.61,6.41.45a6,6,0,0,1,2.61,3.7,6.76,6.76,0,0,1,.18,2.74l-2.46.2a4.78,4.78,0,0,0-.12-2.07c-.67-2.59-3.14-2.67-5.74-2l-.91.24,1,4.07-2.32.6-1-4.06-14.54,3.74Z" transform="translate(-9.4 -6.01)"/><path d="M47.12,206.36c2-.51,3.68-1,5.22-1.49l.69,2.69-3.28,1,0,.11a5.27,5.27,0,0,1,4.89,3.74,3.65,3.65,0,0,1,.14.88l-2.89.74a4.6,4.6,0,0,0-.18-1.06c-.55-2.17-2.57-3.27-5-3.1a8.17,8.17,0,0,0-1.47.24l-9,2.32-.78-3.05Z" transform="translate(-9.4 -6.01)"/><path d="M47.4,221.35c-3.83,1.9-4.26,5.11-2.89,8a11.75,11.75,0,0,0,2.87,4l-1.79,1.47a14.16,14.16,0,0,1-3.5-4.77c-2.29-4.83-.46-9.27,4.26-11.51s9.82-1.24,12,3.35c2.44,5.13-1.42,8.62-4.31,10a7.13,7.13,0,0,1-1.39.54Zm6,7.39c1.82-.83,4.28-2.94,2.75-6.15-1.39-2.92-4.62-2.9-6.71-2.18Z" transform="translate(-9.4 -6.01)"/><path d="M79.32,236.67,64,251.09c-1.13,1-2.36,2.29-3.18,3.17l-1.92-2L60.93,250l0-.06a6.38,6.38,0,0,1-6.53-2c-2.89-3.07-2.51-7.89,1.34-11.5,4.23-4,9.28-3.79,12.18-.69a5.79,5.79,0,0,1,1.66,5.63l0,.06,7.59-7.11ZM66.05,244.8a6.39,6.39,0,0,0,.9-1,4.67,4.67,0,0,0-.48-5.83c-2.24-2.39-5.68-1.86-8.47.76-2.58,2.42-3.52,5.71-1.18,8.2a4.79,4.79,0,0,0,5.94.78,5.37,5.37,0,0,0,1.09-.82Z" transform="translate(-9.4 -6.01)"/><path d="M85.9,260.85c-3.47,5.44-8.76,5.41-12.29,3.16-4-2.54-5.2-7.41-2.23-12.07,3.14-4.91,8.2-5.72,12.26-3.13C87.86,251.5,88.75,256.38,85.9,260.85ZM74.15,253.6c-2.05,3.22-1.75,6.82.85,8.48s6,.46,8.12-2.87c1.59-2.48,2.34-6.42-.83-8.45S75.93,250.81,74.15,253.6Z" transform="translate(-9.4 -6.01)"/><path d="M103.09,252.2a32.87,32.87,0,0,1,5.83,1.61c3.12,1.16,5,2.52,5.9,4.32a6.1,6.1,0,0,1,.18,5,6.4,6.4,0,0,1-6.45,4.2l0,.09c1.51,1.25,2,3.28,1.63,5.84a39.09,39.09,0,0,0-.57,6.9l-3-1.14a32.05,32.05,0,0,1,.53-6c.48-3.36-.3-5-2.93-6.11l-2.78-1-3.66,9.86-2.94-1.09Zm-.91,11.45,3,1.11c3.14,1.17,5.77.2,6.74-2.41,1.1-3-.55-5-3.65-6.19a13.85,13.85,0,0,0-3-.82Z" transform="translate(-9.4 -6.01)"/><path d="M118.28,274.14c-1,4.15,1.11,6.56,4.18,7.38a11.6,11.6,0,0,0,4.89.39l0,2.32a14,14,0,0,1-5.89-.44c-5.17-1.39-7.35-5.66-6-10.71s5.44-8.26,10.35-6.94c5.48,1.47,5.62,6.67,4.79,9.77a7.2,7.2,0,0,1-.49,1.4Zm9.54.21c.55-1.92.54-5.16-2.88-6.09-3.13-.84-5.21,1.63-6,3.69Z" transform="translate(-9.4 -6.01)"/><path d="M151.17,267.45c-.1,1.23-.16,2.65-.17,4.77l0,10.11c0,4-.85,6.44-2.52,8a9.37,9.37,0,0,1-6.35,2.06,11.22,11.22,0,0,1-5.81-1.46l.8-2.43a9.83,9.83,0,0,0,5.12,1.41c3.24,0,5.62-1.66,5.64-6.07v-1.94h-.07a6.18,6.18,0,0,1-5.54,2.91c-4.34,0-7.41-3.73-7.39-8.55,0-5.9,3.88-9.21,7.9-9.2a5.81,5.81,0,0,1,5.42,3h.07l.14-2.61Zm-3.33,6.84a4.65,4.65,0,0,0-4.6-4.81c-3,0-5.19,2.54-5.21,6.58,0,3.41,1.73,6.28,5.13,6.29a4.62,4.62,0,0,0,4.41-3.24,5.57,5.57,0,0,0,.26-1.68Z" transform="translate(-9.4 -6.01)"/><path d="M156,272.18c0-1.82,0-3.26-.12-4.7h2.79l.17,2.86H159a6.43,6.43,0,0,1,5.77-3.23c2.39,0,6.13,1.46,6.11,7.44L170.79,285l-3.15,0,.05-10c0-2.82-1-5.18-4-5.19a4.57,4.57,0,0,0-4.28,3.23,5,5,0,0,0-.22,1.47l0,10.49-3.15,0Z" transform="translate(-9.4 -6.01)"/><path d="M177.77,276.84c0,4.28,2.75,6.06,5.93,6.07a11.7,11.7,0,0,0,4.82-.87l.55,2.25a14.08,14.08,0,0,1-5.81,1.09c-5.35,0-8.55-3.6-8.53-8.82s3.15-9.39,8.23-9.36c5.68,0,7.14,5,7.13,8.21a6.91,6.91,0,0,1-.12,1.49Zm9.27-2.23c0-2-.79-5.13-4.34-5.15-3.23,0-4.62,2.91-4.88,5.11Z" transform="translate(-9.4 -6.01)"/><path d="M194,273.06c0-2.06,0-3.81-.12-5.42h2.77l.11,3.41h.11a5.3,5.3,0,0,1,4.86-3.79,3.94,3.94,0,0,1,.88.1v3a4.84,4.84,0,0,0-1.08-.1c-2.23,0-3.81,1.66-4.25,4a8.58,8.58,0,0,0-.13,1.48l0,9.3H194Z" transform="translate(-9.4 -6.01)"/><path d="M303.52,310.7a33.59,33.59,0,0,1,1.88,5.76c.75,3.24.63,5.51-.35,7.3a6.05,6.05,0,0,1-4.06,2.9,6.41,6.41,0,0,1-7.06-3.05l-.09,0c-.21,1.95-1.66,3.44-4,4.58a41.39,41.39,0,0,0-6.06,3.33l-.74-3.16a31.63,31.63,0,0,1,5.3-2.88c3.07-1.45,4-3,3.47-5.81l-.67-2.89-10.24,2.39-.71-3.05Zm-10,5.56.73,3.12c.76,3.27,3,4.92,5.73,4.29,3.07-.71,3.89-3.24,3.14-6.46a13.77,13.77,0,0,0-1-3Z" transform="translate(-9.4 -6.01)"/><path d="M292.53,348c-1.78.41-3.29.83-4.61,1.22l-.63-2.72,2.73-.81,0-.09a6.5,6.5,0,0,1-4.47-4.88c-.62-2.65.13-6.18,6.07-7.57l9.91-2.31.72,3.07-9.37,2.18c-3.23.75-5.2,2.27-4.55,5.06a4.64,4.64,0,0,0,3.79,3.42,4.9,4.9,0,0,0,1.64-.09L304.13,342l.72,3.07Z" transform="translate(-9.4 -6.01)"/><path d="M291.29,363.62l2.07-.77,0-.09a6.5,6.5,0,0,1-3.74-4.6,5,5,0,0,1,3.66-6.32c4.11-.95,7.22,2.16,8.7,8.72l.36-.08c1.38-.32,3.84-1.31,3-4.78a8.55,8.55,0,0,0-2.3-4.12l1.89-1.18a10.93,10.93,0,0,1,2.79,5.25c1.21,5.19-2,7.28-5.43,8.07l-6.35,1.48a27.68,27.68,0,0,0-4,1.2Zm8.54-2.5c-.7-3.35-2.2-7-5.48-6.27a2.79,2.79,0,0,0-2.28,3.57,4.37,4.37,0,0,0,3.81,3.47,3.23,3.23,0,0,0,1-.08Z" transform="translate(-9.4 -6.01)"/><path d="M303.11,380.74l-8-.71-.73-3.17,25.5,2.53.86,3.67L299,396.64l-.76-3.26,6.84-4.27Zm4.2,7.2,6.25-3.92c1.43-.88,2.76-1.56,4-2.23l0-.08c-1.46,0-3,0-4.54-.18l-7.39-.73Z" transform="translate(-9.4 -6.01)"/><path d="M312.13,397c1.77-.41,3.16-.79,4.54-1.2l.64,2.72-2.75.82,0,.09a6.4,6.4,0,0,1,4.48,4.86c.55,2.33,0,6.31-5.83,7.67l-10.12,2.36-.71-3.07,9.78-2.28c2.74-.64,4.79-2.21,4.12-5.1a4.54,4.54,0,0,0-4.14-3.41,4.89,4.89,0,0,0-1.48.12L300.47,403l-.72-3.07Z" transform="translate(-9.4 -6.01)"/><path d="M327,417.82,322.08,419l1,4.44-2.33.54-1-4.43-9.14,2.13c-2.11.49-3.16,1.38-2.76,3.1a6.49,6.49,0,0,0,.64,1.74l-2.31.69a8.06,8.06,0,0,1-1.07-2.66,4.45,4.45,0,0,1,.53-3.63c.74-1.07,2.15-1.77,4.15-2.23l9.26-2.16-.62-2.63,2.34-.54.61,2.62,4.09-.95Z" transform="translate(-9.4 -6.01)"/><path d="M319.14,444c-6.28,1.47-10-2.25-11-6.32-1.08-4.6,1.45-8.94,6.83-10.19,5.68-1.33,9.86,1.63,11,6.32C327.08,438.64,324.31,442.75,319.14,444Zm-3.33-13.4c-3.72.87-6,3.66-5.32,6.66s4,4.53,7.81,3.63c2.87-.67,6.16-3,5.31-6.63S319,429.8,315.81,430.55ZM333.12,433l-4.24,4.53-.55-2.36,2.84-2.81v-.07l-3.79-1.25-.54-2.3,5.79,2.12Z" transform="translate(-9.4 -6.01)"/><path d="M323.79,447c1.77-.41,3.16-.8,4.55-1.21l.63,2.73-2.75.82,0,.08a6.43,6.43,0,0,1,4.48,4.87c.55,2.33,0,6.3-5.83,7.66l-10.12,2.36-.71-3.07,9.78-2.28c2.74-.64,4.79-2.21,4.12-5.09a4.55,4.55,0,0,0-4.13-3.42,4.84,4.84,0,0,0-1.48.12l-10.22,2.39-.72-3.07Z" transform="translate(-9.4 -6.01)"/><path d="M315.94,469.3l17-4,.72,3.07-17,4Zm22.56-1.63a2,2,0,1,1-.89-3.82,1.93,1.93,0,0,1,2.37,1.47A1.9,1.9,0,0,1,338.5,467.67Z" transform="translate(-9.4 -6.01)"/><path d="M330.08,490.85c-6.28,1.46-10-2.25-11-6.33-1.07-4.6,1.45-8.93,6.83-10.19,5.68-1.32,9.87,1.64,11,6.33C338,485.53,335.25,489.65,330.08,490.85Zm-3.33-13.4c-3.72.87-6,3.65-5.32,6.66s4,4.52,7.82,3.63c2.86-.67,6.16-3,5.3-6.63S330,476.7,326.75,477.45Z" transform="translate(-9.4 -6.01)"/><path d="M347.42,498.85a33.46,33.46,0,0,1,1.88,5.75c.75,3.24.63,5.52-.35,7.3a6.05,6.05,0,0,1-4.06,2.9,6.39,6.39,0,0,1-7.06-3l-.09,0c-.21,2-1.66,3.44-4,4.59a39.5,39.5,0,0,0-6.06,3.33l-.74-3.17a32.69,32.69,0,0,1,5.3-2.87c3.07-1.46,4-3,3.48-5.81l-.68-2.89-10.24,2.39-.71-3Zm-10.05,5.56.73,3.12c.76,3.26,3,4.92,5.73,4.29,3.07-.72,3.89-3.24,3.14-6.47a13.43,13.43,0,0,0-1-3Z" transform="translate(-9.4 -6.01)"/><path d="M340.75,536.54c-6.28,1.47-10.05-2.25-11-6.32-1.07-4.6,1.45-8.94,6.84-10.19,5.67-1.33,9.86,1.63,11,6.32C348.68,531.23,345.91,535.34,340.75,536.54Zm-3.34-13.4c-3.72.87-6,3.66-5.32,6.66s4,4.53,7.82,3.63c2.87-.67,6.16-3,5.3-6.63S340.63,522.39,337.41,523.14Z" transform="translate(-9.4 -6.01)"/><path d="M361.33,551.32l-20.52,4.78c-1.51.35-3.19.81-4.34,1.16l-.64-2.74,2.89-.84v-.08a6.36,6.36,0,0,1-4.66-5c-1-4.11,1.77-8.09,6.91-9.29,5.67-1.35,9.93,1.37,10.89,5.5a5.79,5.79,0,0,1-1.38,5.71l0,.07,10.13-2.36Zm-15.55.39a6.34,6.34,0,0,0,1.29-.44,4.68,4.68,0,0,0,2.5-5.29c-.74-3.19-4-4.45-7.71-3.58-3.45.8-5.91,3.18-5.13,6.51a4.78,4.78,0,0,0,4.75,3.64,5.06,5.06,0,0,0,1.36-.15Z" transform="translate(-9.4 -6.01)"/><path d="M349.31,559.54c2-.47,3.7-.92,5.25-1.37l.63,2.7-3.3.89,0,.11a5.28,5.28,0,0,1,4.81,3.86,3.48,3.48,0,0,1,.11.88l-2.9.67a4.56,4.56,0,0,0-.15-1.07c-.51-2.17-2.5-3.32-4.91-3.21a9,9,0,0,0-1.47.22l-9.06,2.11-.71-3.07Z" transform="translate(-9.4 -6.01)"/><path d="M340.34,573.86l17-4L358,573l-17,3.95Zm22.56-1.62a1.92,1.92,0,0,1-2.38-1.52,1.89,1.89,0,0,1,1.49-2.31,2,2,0,0,1,.89,3.83Z" transform="translate(-9.4 -6.01)"/><path d="M362.63,592.74c-1.22.2-2.61.46-4.68.94l-9.84,2.3c-3.93.91-6.47.66-8.33-.61a9.37,9.37,0,0,1-3.48-5.71,11.15,11.15,0,0,1,.08-6l2.55.22a9.77,9.77,0,0,0-.19,5.31c.73,3.14,2.92,5.07,7.21,4.07l1.89-.44v-.07a6.17,6.17,0,0,1-4.12-4.72c-1-4.23,1.91-8.07,6.61-9.17,5.75-1.34,9.86,1.65,10.78,5.56a5.8,5.8,0,0,1-1.69,6v.07L362,590Zm-7.42-1.65a5.17,5.17,0,0,0,1.34-.49,4.59,4.59,0,0,0,2.27-5.1c-.69-2.94-3.67-4.47-7.61-3.55-3.32.77-5.71,3.14-4.94,6.44a4.64,4.64,0,0,0,4.19,3.55,5.4,5.4,0,0,0,1.69-.14Z" transform="translate(-9.4 -6.01)"/><path d="M354.78,614.75c-1.78.41-3.29.83-4.61,1.22l-.64-2.72,2.74-.81,0-.09a6.5,6.5,0,0,1-4.47-4.88c-.62-2.65.12-6.18,6.07-7.57l9.91-2.31.72,3.07-9.37,2.18c-3.23.76-5.2,2.28-4.55,5.06a4.61,4.61,0,0,0,3.78,3.42,4.72,4.72,0,0,0,1.65-.09l10.39-2.42.71,3.07Z" transform="translate(-9.4 -6.01)"/><path d="M359.67,620.88c-4.16,1-5.26,4.08-4.54,7.17a11.78,11.78,0,0,0,2,4.5L355,633.6a14.09,14.09,0,0,1-2.4-5.41c-1.21-5.21,1.53-9.15,6.61-10.34s9.86.9,11,5.85c1.29,5.53-3.23,8.11-6.35,8.84a7.84,7.84,0,0,1-1.47.23Zm4.32,8.51c1.95-.43,4.81-2,4-5.42-.73-3.15-3.89-3.83-6.1-3.57Z" transform="translate(-9.4 -6.01)"/><path d="M358.47,637.38a8.67,8.67,0,0,0-.25,4.37c.53,2.25,1.88,3,3.29,2.71s2.05-1.43,2.37-3.88c.4-3.32,1.73-5.16,3.76-5.63,2.73-.63,5.49,1.07,6.34,4.71a8.54,8.54,0,0,1-.07,4.4l-2.42-.25a6.9,6.9,0,0,0,.18-3.71c-.42-1.82-1.7-2.56-3-2.26s-1.8,1.47-2.14,3.89c-.41,3.18-1.53,5-4.06,5.64-3,.7-5.65-1.14-6.59-5.15a10,10,0,0,1,.07-5Z" transform="translate(-9.4 -6.01)"/><path d="M687.08,726.14a33.45,33.45,0,0,1,6-.26c3.33.14,5.49.87,6.94,2.3a6.07,6.07,0,0,1,1.7,4.69,6.42,6.42,0,0,1-4.83,6v.09c1.82.72,2.87,2.52,3.35,5.06a41,41,0,0,0,1.57,6.73l-3.25-.14a33.07,33.07,0,0,1-1.34-5.87c-.57-3.35-1.83-4.7-4.66-4.91l-3-.13-.46,10.5-3.13-.13Zm2.65,11.17,3.2.14c3.35.14,5.55-1.59,5.67-4.37.14-3.15-2.07-4.61-5.38-4.76a13.73,13.73,0,0,0-3.11.14Z" transform="translate(-9.4 -6.01)"/><path d="M720,746.75c-.08,1.82-.09,3.38-.06,4.76l-2.8-.12,0-2.85H717a6.52,6.52,0,0,1-5.9,3c-2.72-.12-5.92-1.79-5.66-7.88l.44-10.17,3.15.14-.42,9.61c-.14,3.31.79,5.61,3.65,5.73a4.6,4.6,0,0,0,4.31-2.72,5.09,5.09,0,0,0,.36-1.61l.46-10.65,3.14.13Z" transform="translate(-9.4 -6.01)"/><path d="M734.73,752.15l-.18-2.21h-.1A6.5,6.5,0,0,1,729,752.3a5,5,0,0,1-5.1-5.22c.19-4.22,4-6.37,10.74-6v-.37c.06-1.41-.22-4-3.78-4.18a8.47,8.47,0,0,0-4.59,1.1l-.63-2.14a11,11,0,0,1,5.81-1.27c5.32.23,6.46,3.92,6.3,7.4l-.28,6.51a26.82,26.82,0,0,0,.09,4.17Zm-.11-8.91c-3.41-.22-7.36.23-7.51,3.59a2.79,2.79,0,0,0,2.83,3.16,4.35,4.35,0,0,0,4.36-2.73,3.32,3.32,0,0,0,.19-1Z" transform="translate(-9.4 -6.01)"/><path d="M751.2,728.9a33.45,33.45,0,0,1,6-.26c3.33.14,5.49.87,6.94,2.3a6.07,6.07,0,0,1,1.7,4.69,6.42,6.42,0,0,1-4.84,6v.09c1.82.73,2.86,2.52,3.34,5.06a40.66,40.66,0,0,0,1.58,6.73l-3.25-.14a31.92,31.92,0,0,1-1.34-5.87c-.57-3.35-1.83-4.69-4.66-4.91l-3-.13-.46,10.5-3.13-.13Zm2.65,11.17,3.2.14c3.35.14,5.55-1.59,5.67-4.37.14-3.15-2.08-4.61-5.38-4.76a14.32,14.32,0,0,0-3.11.14Z" transform="translate(-9.4 -6.01)"/><path d="M785.68,745.46c-.28,6.44-4.87,9.07-9,8.89-4.72-.21-8.22-3.8-8-9.32.25-5.82,4.23-9.06,9-8.85C782.69,736.39,785.91,740.17,785.68,745.46Zm-13.8-.39c-.17,3.81,1.89,6.78,5,6.91s5.42-2.6,5.59-6.55c.13-2.94-1.19-6.73-5-6.89S772,741.77,771.88,745.07Z" transform="translate(-9.4 -6.01)"/><path d="M789.87,741.8c.07-1.81.08-3.26,0-4.7l2.75.12.05,2.8h.09a6,6,0,0,1,5.63-3,5.12,5.12,0,0,1,4.75,3.7h.07a7.12,7.12,0,0,1,2.06-2.18,6,6,0,0,1,3.88-1.06c2.32.11,5.68,1.75,5.42,7.8l-.45,10.24-3.09-.13.43-9.84c.15-3.37-1-5.42-3.54-5.53a4.14,4.14,0,0,0-3.89,2.69,5.4,5.4,0,0,0-.33,1.57l-.46,10.77L800.2,755l.45-10.44c.12-2.77-1-4.82-3.41-4.92a4.38,4.38,0,0,0-4.08,3,5,5,0,0,0-.3,1.55l-.46,10.48-3.08-.13Z" transform="translate(-9.4 -6.01)"/><path d="M829,756.21l-.18-2.21h-.09a6.51,6.51,0,0,1-5.44,2.37,5,5,0,0,1-5.09-5.22c.18-4.22,4-6.37,10.73-6l0-.37c.06-1.42-.23-4-3.79-4.19a8.5,8.5,0,0,0-4.59,1.1l-.63-2.13a11,11,0,0,1,5.81-1.28c5.32.23,6.46,3.92,6.31,7.41l-.29,6.51a26.82,26.82,0,0,0,.09,4.17Zm-.1-8.91c-3.42-.22-7.37.23-7.51,3.59a2.79,2.79,0,0,0,2.82,3.16,4.35,4.35,0,0,0,4.36-2.73,3.35,3.35,0,0,0,.2-1Zm-7.16-11.84c0-2.35,1.07-3.71,2.61-3.65a4.86,4.86,0,0,1,2.2.9,3.71,3.71,0,0,0,1.49.68c.56,0,.92-.29,1.06-1.49l1.68.08c-.06,2.38-.92,3.6-2.61,3.52a4.64,4.64,0,0,1-2.17-.84,3.48,3.48,0,0,0-1.52-.7c-.57,0-.9.57-1,1.58Z" transform="translate(-9.4 -6.01)"/><path d="M852.78,748.35c-.28,6.44-4.87,9.07-9,8.89-4.71-.21-8.21-3.8-8-9.32.25-5.82,4.23-9.06,9-8.85C849.8,739.28,853,743.06,852.78,748.35ZM839,748c-.16,3.81,1.9,6.78,5,6.91s5.42-2.6,5.59-6.55c.13-2.94-1.19-6.73-4.95-6.89S839.13,744.66,839,748Z" transform="translate(-9.4 -6.01)"/><path d="M864.12,757.72l1-24.24,3.45.15,7.23,12.58a68.76,68.76,0,0,1,4,8.08l.09,0c-.15-3.25-.08-6.21.08-10l.44-10.16,2.95.13-1,24.24-3.18-.14L872,745.75a81.53,81.53,0,0,1-4.16-8.31l-.11,0c.06,3.08,0,6-.2,10l-.45,10.37Z" transform="translate(-9.4 -6.01)"/><path d="M897.33,759.15l-.19-2.21h-.09a6.47,6.47,0,0,1-5.43,2.36,5,5,0,0,1-5.1-5.22c.18-4.21,4-6.37,10.73-6l0-.37c.06-1.41-.22-4-3.79-4.18a8.44,8.44,0,0,0-4.58,1.1l-.63-2.14a11,11,0,0,1,5.81-1.27c5.31.23,6.45,3.92,6.3,7.4l-.28,6.51a26.87,26.87,0,0,0,.08,4.17Zm-.11-8.9c-3.42-.22-7.36.22-7.51,3.59a2.78,2.78,0,0,0,2.82,3.15,4.37,4.37,0,0,0,4.37-2.73,3.32,3.32,0,0,0,.19-1Z" transform="translate(-9.4 -6.01)"/><path d="M904.87,759.47c.14-1.19.28-2.93.34-4.48l.91-21,3.15.14L908.79,745h.08a6.43,6.43,0,0,1,6.06-2.93c4.33.18,7.21,3.91,7,9.17-.27,6.24-4.35,9.16-8.23,9a6.29,6.29,0,0,1-5.69-3.51h-.08l-.29,2.85Zm3.59-6.83a5.56,5.56,0,0,0,.09,1.16,4.87,4.87,0,0,0,4.58,3.9c3.33.15,5.4-2.46,5.57-6.45.15-3.5-1.52-6.57-4.91-6.72a5,5,0,0,0-4.95,3.68,4.93,4.93,0,0,0-.24,1.31Z" transform="translate(-9.4 -6.01)"/><path d="M935.15,760.78l-.18-2.21h-.1a6.47,6.47,0,0,1-5.43,2.36,5,5,0,0,1-5.1-5.22c.19-4.22,4-6.37,10.74-6v-.37c.06-1.41-.22-4-3.78-4.18a8.47,8.47,0,0,0-4.59,1.1l-.63-2.14a11,11,0,0,1,5.81-1.27c5.32.23,6.46,3.92,6.3,7.4l-.28,6.51a26.82,26.82,0,0,0,.09,4.17Zm-.11-8.9c-3.42-.23-7.36.22-7.51,3.58a2.79,2.79,0,0,0,2.83,3.16,4.35,4.35,0,0,0,4.36-2.73,3.32,3.32,0,0,0,.19-1Z" transform="translate(-9.4 -6.01)"/><path d="M942.52,757.87a8.71,8.71,0,0,0,4.14,1.42c2.31.1,3.43-1,3.49-2.45s-.82-2.35-3.1-3.32c-3.09-1.27-4.5-3-4.4-5.13.12-2.8,2.49-5,6.23-4.84a8.41,8.41,0,0,1,4.22,1.25l-.89,2.27a6.82,6.82,0,0,0-3.52-1.18c-1.87-.08-2.93,1-3,2.26s.94,2.13,3.18,3.11c3,1.25,4.44,2.83,4.33,5.43-.13,3.08-2.62,5.13-6.73,4.95a9.91,9.91,0,0,1-4.83-1.42Z" transform="translate(-9.4 -6.01)"/><path d="M1131.32,159.31a32.8,32.8,0,0,1,1.47,5.87c.52,3.28.24,5.55-.87,7.25a6,6,0,0,1-4.25,2.61,6.41,6.41,0,0,1-6.83-3.54h-.08c-.35,1.93-1.9,3.31-4.3,4.29a41.27,41.27,0,0,0-6.28,2.89l-.51-3.21a33,33,0,0,1,5.49-2.49c3.16-1.23,4.23-2.73,3.87-5.55l-.46-2.93-10.39,1.66-.49-3.09Zm-10.41,4.83.5,3.16c.53,3.31,2.67,5.12,5.42,4.69,3.11-.5,4.1-3,3.59-6.23a13.81,13.81,0,0,0-.76-3Z" transform="translate(-9.4 -6.01)"/><path d="M1117.73,195.73c-1.8.28-3.34.59-4.68.89l-.44-2.76,2.78-.62v-.09a6.48,6.48,0,0,1-4.11-5.18c-.43-2.69.56-6.16,6.59-7.12l10.05-1.61.49,3.12-9.5,1.51c-3.27.53-5.34,1.9-4.89,4.72a4.59,4.59,0,0,0,3.53,3.68,4.75,4.75,0,0,0,1.65,0l10.53-1.68.5,3.11Z" transform="translate(-9.4 -6.01)"/><path d="M1115.38,211.21l2.13-.62,0-.1a6.48,6.48,0,0,1-3.4-4.85,5,5,0,0,1,4.09-6c4.17-.66,7,2.66,8.06,9.31l.37,0c1.39-.23,3.92-1,3.34-4.55a8.52,8.52,0,0,0-2-4.28l2-1a11.06,11.06,0,0,1,2.41,5.44c.84,5.25-2.55,7.11-6,7.66l-6.44,1a28,28,0,0,0-4.07.92Zm8.7-1.89c-.47-3.39-1.69-7.17-5-6.64a2.79,2.79,0,0,0-2.53,3.4,4.38,4.38,0,0,0,3.55,3.73,3.4,3.4,0,0,0,1,0Z" transform="translate(-9.4 -6.01)"/><path d="M1131,237.05l-1.48-9.29-8.66,1.38,1.66,10.39-2.58.41-2.15-13.5,24-3.82,2.07,12.95-2.58.41-1.57-9.84-7.59,1.21,1.48,9.29Z" transform="translate(-9.4 -6.01)"/><path d="M1132.44,242c2-.32,3.75-.65,5.33-1l.44,2.74-3.36.65,0,.12a5.29,5.29,0,0,1,4.53,4.18,3.92,3.92,0,0,1,0,.89l-2.94.47a5.38,5.38,0,0,0-.08-1.08c-.35-2.21-2.26-3.5-4.67-3.55a8.61,8.61,0,0,0-1.48.11l-9.19,1.46-.49-3.11Z" transform="translate(-9.4 -6.01)"/><path d="M1135,253.59c1.8-.29,3.21-.57,4.62-.88l.45,2.76-2.8.62v.09a6.44,6.44,0,0,1,4.13,5.17c.37,2.36-.46,6.29-6.36,7.23l-10.26,1.64-.5-3.11,9.92-1.58c2.77-.45,4.94-1.87,4.47-4.79a4.57,4.57,0,0,0-3.88-3.71,5.35,5.35,0,0,0-1.49,0L1123,258.71l-.5-3.12Z" transform="translate(-9.4 -6.01)"/><path d="M1133.94,275.79c-4.22.74-5.53,3.7-5,6.84a11.8,11.8,0,0,0,1.64,4.62l-2.13.9a13.84,13.84,0,0,1-2-5.56c-.85-5.28,2.16-9,7.32-9.84s9.77,1.58,10.57,6.6c.9,5.61-3.79,7.87-7,8.37a7.77,7.77,0,0,1-1.48.13Zm3.71,8.79c2-.28,4.93-1.61,4.37-5.12-.51-3.19-3.61-4.09-5.82-4Z" transform="translate(-9.4 -6.01)"/><path d="M1131.57,292.28a8.72,8.72,0,0,0-.54,4.34c.38,2.28,1.68,3.15,3.12,2.91s2.13-1.28,2.61-3.71c.61-3.29,2-5,4.11-5.37,2.77-.46,5.41,1.41,6,5.1a8.41,8.41,0,0,1-.36,4.39l-2.39-.4a6.87,6.87,0,0,0,.42-3.69c-.3-1.85-1.53-2.67-2.83-2.46s-1.88,1.35-2.38,3.75c-.62,3.14-1.85,4.93-4.42,5.36-3,.5-5.56-1.51-6.24-5.56a10,10,0,0,1,.4-5Z" transform="translate(-9.4 -6.01)"/><path d="M1153.73,307.22l-4.92.94.85,4.47-2.36.45-.85-4.47-9.22,1.75c-2.13.4-3.22,1.24-2.89,3a6.55,6.55,0,0,0,.57,1.76l-2.34.59a8.18,8.18,0,0,1-1-2.7,4.4,4.4,0,0,1,.68-3.6c.78-1,2.22-1.68,4.23-2.06l9.34-1.77-.5-2.65,2.36-.45.5,2.65,4.12-.78Z" transform="translate(-9.4 -6.01)"/><path d="M1133.18,319.34l17.13-3.13.57,3.1-17.13,3.13Zm22.61-.53a1.92,1.92,0,0,1-2.3-1.63,1.88,1.88,0,0,1,1.59-2.23,1.91,1.91,0,0,1,2.29,1.58A1.9,1.9,0,0,1,1155.79,318.81Z" transform="translate(-9.4 -6.01)"/><path d="M1147.21,325.43c1.79-.31,3.21-.62,4.61-.95l.48,2.76-2.79.66V328a6.41,6.41,0,0,1,4.19,5.12c.41,2.35-.37,6.29-6.27,7.3l-10.23,1.77-.54-3.11,9.89-1.7c2.78-.48,4.92-1.93,4.42-4.85a4.58,4.58,0,0,0-3.93-3.65,5.06,5.06,0,0,0-1.49,0l-10.33,1.78-.54-3.1Z" transform="translate(-9.4 -6.01)"/><path d="M1139.52,356.7l2.13-.61,0-.1a6.47,6.47,0,0,1-3.39-4.86,5,5,0,0,1,4.12-6c4.16-.66,7,2.68,8,9.33l.37-.06c1.4-.22,3.92-1,3.35-4.53a8.52,8.52,0,0,0-2-4.29l2-1a11,11,0,0,1,2.4,5.44c.82,5.26-2.57,7.1-6,7.64l-6.44,1a26.79,26.79,0,0,0-4.07.91Zm8.7-1.86c-.45-3.39-1.67-7.17-5-6.65a2.78,2.78,0,0,0-2.53,3.39,4.35,4.35,0,0,0,3.53,3.74,3.4,3.4,0,0,0,1,0Z" transform="translate(-9.4 -6.01)"/><path d="M1181.21,464.35a33.63,33.63,0,0,1,1.87,5.76c.75,3.24.62,5.52-.37,7.3a6,6,0,0,1-4.06,2.89,6.42,6.42,0,0,1-7.06-3.06l-.08,0c-.22,1.95-1.67,3.43-4,4.57a40,40,0,0,0-6.07,3.32l-.73-3.17a32.14,32.14,0,0,1,5.3-2.86c3.08-1.45,4-3,3.49-5.81l-.67-2.89-10.24,2.37-.71-3.05Zm-10.06,5.54.72,3.12c.76,3.27,3,4.93,5.73,4.3,3.07-.71,3.89-3.23,3.15-6.45a13,13,0,0,0-1-3Z" transform="translate(-9.4 -6.01)"/><path d="M1170.13,501.58c-1.78.41-3.28.82-4.61,1.21l-.63-2.72,2.74-.81,0-.08a6.51,6.51,0,0,1-4.46-4.89c-.61-2.65.14-6.19,6.09-7.56l9.91-2.29.71,3.07-9.37,2.16c-3.23.75-5.2,2.27-4.56,5.05a4.61,4.61,0,0,0,3.78,3.43,4.72,4.72,0,0,0,1.65-.09l10.39-2.4.71,3.07Z" transform="translate(-9.4 -6.01)"/><path d="M1168.85,517.2l2.08-.76,0-.1a6.45,6.45,0,0,1-3.73-4.6,5,5,0,0,1,3.67-6.31c4.11-.95,7.21,2.17,8.67,8.74l.36-.09c1.38-.31,3.85-1.29,3-4.76a8.53,8.53,0,0,0-2.29-4.13l1.89-1.17a10.87,10.87,0,0,1,2.78,5.25c1.2,5.19-2,7.27-5.45,8.06l-6.35,1.46a29.06,29.06,0,0,0-4,1.19Zm8.55-2.48c-.7-3.35-2.18-7-5.47-6.28a2.78,2.78,0,0,0-2.28,3.56,4.34,4.34,0,0,0,3.79,3.48,3.32,3.32,0,0,0,1-.08Z" transform="translate(-9.4 -6.01)"/><path d="M1186.22,541.92l-2.11-9.17-8.54,2,2.36,10.25-2.54.59-3.08-13.32,23.65-5.46,3,12.78-2.54.59-2.25-9.71-7.49,1.73,2.12,9.16Z" transform="translate(-9.4 -6.01)"/><path d="M1188,546.7c2-.46,3.7-.9,5.25-1.36l.62,2.71-3.3.88,0,.11a5.28,5.28,0,0,1,4.8,3.87,3.48,3.48,0,0,1,.11.88l-2.9.67a5.07,5.07,0,0,0-.15-1.07c-.5-2.18-2.5-3.33-4.9-3.22a8,8,0,0,0-1.47.21l-9.07,2.09-.71-3.07Z" transform="translate(-9.4 -6.01)"/><path d="M1191.34,558.17c1.77-.41,3.16-.79,4.55-1.2l.63,2.73-2.75.81,0,.09a6.41,6.41,0,0,1,4.47,4.88c.54,2.33,0,6.3-5.85,7.64l-10.12,2.34-.71-3.07,9.78-2.26c2.75-.63,4.81-2.19,4.14-5.08a4.55,4.55,0,0,0-4.13-3.43,4.87,4.87,0,0,0-1.48.12l-10.22,2.36L1179,561Z" transform="translate(-9.4 -6.01)"/><path d="M1191.78,580.4c-4.16,1-5.27,4.07-4.55,7.17a11.8,11.8,0,0,0,2,4.5l-2.06,1a13.81,13.81,0,0,1-2.39-5.41c-1.21-5.21,1.54-9.15,6.63-10.32s9.86.91,11,5.87c1.28,5.53-3.24,8.1-6.36,8.82a7.84,7.84,0,0,1-1.47.23Zm4.3,8.52c2-.42,4.81-1.95,4-5.41-.72-3.15-3.88-3.83-6.08-3.58Z" transform="translate(-9.4 -6.01)"/><path d="M1190.54,596.9a8.65,8.65,0,0,0-.26,4.37c.52,2.25,1.87,3,3.29,2.72s2-1.42,2.37-3.87c.41-3.32,1.74-5.16,3.78-5.62,2.73-.63,5.48,1.07,6.32,4.72a8.42,8.42,0,0,1-.08,4.4l-2.42-.25a6.8,6.8,0,0,0,.19-3.71c-.42-1.82-1.69-2.57-3-2.28s-1.8,1.47-2.15,3.89c-.42,3.18-1.54,5-4.07,5.63-3,.69-5.65-1.16-6.58-5.17a10,10,0,0,1,.08-5Z" transform="translate(-9.4 -6.01)"/><path d="M1213.41,610.61l-4.88,1.13,1,4.43-2.33.54-1-4.43-9.14,2.11c-2.11.49-3.17,1.38-2.77,3.1a6.49,6.49,0,0,0,.64,1.74l-2.31.68a8.06,8.06,0,0,1-1.07-2.66,4.45,4.45,0,0,1,.54-3.63c.74-1.07,2.16-1.76,4.15-2.22l9.27-2.14-.61-2.63,2.34-.54.6,2.63,4.09-1Z" transform="translate(-9.4 -6.01)"/><path d="M1193.39,623.57l17-3.92.7,3.07-17,3.92ZM1216,622a1.91,1.91,0,0,1-2.37-1.52,1.89,1.89,0,0,1,1.48-2.31,1.94,1.94,0,0,1,2.37,1.48A1.91,1.91,0,0,1,1216,622Z" transform="translate(-9.4 -6.01)"/><path d="M1207.67,628.92c1.77-.4,3.16-.79,4.55-1.19l.63,2.72-2.75.82,0,.08a6.46,6.46,0,0,1,4.47,4.88c.54,2.33,0,6.3-5.85,7.65l-10.12,2.34-.71-3.07,9.78-2.26c2.74-.64,4.8-2.2,4.14-5.09a4.59,4.59,0,0,0-4.13-3.43,5.21,5.21,0,0,0-1.48.12L1196,634.85l-.71-3.07Z" transform="translate(-9.4 -6.01)"/><path d="M1202,660.67l2.08-.77,0-.09a6.48,6.48,0,0,1-3.72-4.61,5,5,0,0,1,3.67-6.3c4.11-.95,7.2,2.17,8.67,8.73l.36-.08c1.38-.32,3.84-1.3,3-4.77a8.43,8.43,0,0,0-2.28-4.13l1.89-1.17a11,11,0,0,1,2.78,5.25c1.2,5.19-2.06,7.27-5.46,8.06l-6.34,1.47a26.52,26.52,0,0,0-4,1.19Zm8.56-2.48c-.7-3.36-2.19-7-5.47-6.29a2.8,2.8,0,0,0-2.29,3.57,4.36,4.36,0,0,0,3.8,3.47,3,3,0,0,0,1-.07Z" transform="translate(-9.4 -6.01)"/></g></g></svg>