<svg xmlns="http://www.w3.org/2000/svg" viewBox="0 0 1767.1 677.3"><defs><style>.cls-1{fill:#cfdcfa;stroke:#000;stroke-miterlimit:10;stroke-width:4px;}</style></defs><g id="Layer_2" data-name="Layer 2"><g id="Novo_Mapa" data-name="Novo Mapa"><path class="cls-1" d="M4.71,617.61l89.67-135a16.06,16.06,0,0,1,13.38-7.19l1545.16-1.29a16.09,16.09,0,0,1,14.52,9.15l68.43,127.14a16.08,16.08,0,0,1-14.42,23L18.2,642.59A16.09,16.09,0,0,1,4.71,617.61Z" transform="translate(0 -5.15)"/><path class="cls-1" d="M1629.43,402.7,1568,281.22a28.79,28.79,0,0,0-25.85-15.41L247.25,267.58a31.69,31.69,0,0,0-26,14.15L148.52,402.18A14.89,14.89,0,0,0,161,425.3l1455.32-.79A14.89,14.89,0,0,0,1629.43,402.7Z" transform="translate(0 -5.15)"/><path class="cls-1" d="M955.23,220.58l-670.48-2c-11.1,0-17.58-12.05-11.23-20.8l92-126.65a30.76,30.76,0,0,1,24.9-12.49H763.14a38.41,38.41,0,0,1,22.76,7.42L963.62,196.85C974.08,204.55,968.39,220.62,955.23,220.58Z" transform="translate(0 -5.15)"/><path d="M417.91,19.92a36.3,36.3,0,0,1,6.6-.57c3.64,0,6,.69,7.7,2.18a6.68,6.68,0,0,1,2.08,5,7,7,0,0,1-5,6.77v.1c2,.71,3.25,2.62,3.9,5.38a44.33,44.33,0,0,0,2,7.29h-3.56a36.54,36.54,0,0,1-1.74-6.36c-.79-3.64-2.23-5-5.33-5.15h-3.25V46.12h-3.43ZM421.34,32h3.5c3.68,0,6-2,6-5,0-3.45-2.49-4.95-6.11-5a15,15,0,0,0-3.39.3Z" transform="translate(0 -5.15)"/><path d="M454.92,40.9c0,2,.06,3.71.15,5.22H452L451.83,43h-.1a7.1,7.1,0,0,1-6.31,3.55c-3,0-6.56-1.67-6.56-8.35V27.06h3.44V37.59c0,3.63,1.14,6.1,4.26,6.1a5,5,0,0,0,4.59-3.18,5.33,5.33,0,0,0,.32-1.78V27.06h3.45Z" transform="translate(0 -5.15)"/><path d="M471.26,46.12l-.3-2.41h-.1A7.11,7.11,0,0,1,465,46.55a5.43,5.43,0,0,1-5.82-5.47c0-4.61,4.09-7.15,11.46-7.1v-.4c0-1.55-.44-4.42-4.34-4.4a9.3,9.3,0,0,0-5,1.42l-.79-2.3a12,12,0,0,1,6.3-1.68c5.82,0,7.24,4,7.24,7.81v7.13a30.24,30.24,0,0,0,.29,4.56Zm-.53-9.73c-3.76-.08-8.05.59-8.05,4.28A3,3,0,0,0,465.92,44a4.76,4.76,0,0,0,4.64-3.19,3.62,3.62,0,0,0,.17-1.09Z" transform="translate(0 -5.15)"/><path d="M491.6,19.55V30.68h12.84V19.55h3.45V46.12h-3.45V33.66H491.6V46.12h-3.45V19.55Z" transform="translate(0 -5.15)"/><path d="M515.61,37.21c.07,4.69,3,6.62,6.53,6.62a12.9,12.9,0,0,0,5.28-1l.6,2.46a15.44,15.44,0,0,1-6.36,1.21c-5.85,0-9.38-3.9-9.38-9.62s3.41-10.29,9-10.29c6.22,0,7.85,5.46,7.85,9a8.07,8.07,0,0,1-.12,1.62Zm10.15-2.49c0-2.18-.9-5.61-4.78-5.61-3.54,0-5.05,3.2-5.33,5.61Z" transform="translate(0 -5.15)"/><path d="M533.42,32.21c0-2-.06-3.57-.16-5.15h3.07l.19,3.13h.09a7.05,7.05,0,0,1,6.31-3.57c2.62,0,6.71,1.58,6.71,8.13V46.12h-3.44v-11c0-3.08-1.17-5.66-4.41-5.66A5,5,0,0,0,537.11,33a5.24,5.24,0,0,0-.24,1.61V46.12h-3.45Z" transform="translate(0 -5.15)"/><path d="M555.29,33c0-2.25-.06-4.16-.16-5.93h3l.13,3.74h.13a5.79,5.79,0,0,1,5.3-4.18,4.19,4.19,0,0,1,1,.1V30a5.77,5.77,0,0,0-1.18-.1c-2.44,0-4.17,1.84-4.64,4.44a9.05,9.05,0,0,0-.14,1.62V46.12h-3.45Z" transform="translate(0 -5.15)"/><path d="M572.22,21.67A2.09,2.09,0,0,1,570,23.82a2.07,2.07,0,0,1-2.09-2.15,2.11,2.11,0,0,1,2.16-2.16A2.08,2.08,0,0,1,572.22,21.67Zm-3.88,24.45V27.06h3.45V46.12Z" transform="translate(0 -5.15)"/><path d="M590.58,43.18h-.1a6.79,6.79,0,0,1-6.22,3.37c-4.46,0-8.08-3.84-8.08-9.65,0-7.15,4.6-10.28,8.64-10.28a6.24,6.24,0,0,1,5.86,3.3h.08l.13-2.87h3.28c-.08,1.59-.15,3.25-.15,5.23V53.92h-3.44Zm0-8.42a6.17,6.17,0,0,0-.16-1.44,5.12,5.12,0,0,0-5-3.95c-3.59,0-5.77,3.05-5.77,7.32,0,3.81,1.83,7.1,5.65,7.1a5.18,5.18,0,0,0,5-3.77,5.23,5.23,0,0,0,.29-1.67Z" transform="translate(0 -5.15)"/><path d="M615.7,40.9c0,2,.06,3.71.16,5.22h-3.07L612.61,43h-.1a7.1,7.1,0,0,1-6.31,3.55c-3,0-6.56-1.67-6.56-8.35V27.06h3.45V37.59c0,3.63,1.13,6.1,4.26,6.1a5,5,0,0,0,4.58-3.18,5.33,5.33,0,0,0,.32-1.78V27.06h3.45Z" transform="translate(0 -5.15)"/><path d="M623.42,37.21c.07,4.69,3,6.62,6.52,6.62a12.86,12.86,0,0,0,5.28-1l.61,2.46a15.44,15.44,0,0,1-6.36,1.21c-5.86,0-9.38-3.9-9.38-9.62s3.4-10.29,9-10.29c6.22,0,7.84,5.46,7.84,9a9.1,9.1,0,0,1-.11,1.62Zm10.14-2.49c0-2.18-.89-5.61-4.78-5.61-3.54,0-5,3.2-5.32,5.61Z" transform="translate(0 -5.15)"/><path d="M672.1,34.45c-.2-3.69-.45-8.17-.42-11.45h-.11q-1.37,4.62-3.34,10.07L663.54,46H661L656.62,33.3c-1.27-3.75-2.3-7.16-3-10.3h-.1c-.09,3.31-.26,7.73-.52,11.72l-.71,11.4H649l1.84-26.57h4.39l4.52,12.86c1.1,3.25,2,6.18,2.68,9h.1c.7-2.69,1.63-5.62,2.81-9l4.74-12.86h4.39l1.64,26.57h-3.37Z" transform="translate(0 -5.15)"/><path d="M698.76,36.4c0,7.06-4.89,10.15-9.47,10.15-5.17,0-9.17-3.77-9.17-9.82,0-6.38,4.2-10.11,9.47-10.11C695.07,26.62,698.76,30.6,698.76,36.4Zm-15.11.23c0,4.18,2.4,7.33,5.78,7.33s5.81-3.11,5.81-7.44c0-3.22-1.63-7.3-5.75-7.3S683.65,33,683.65,36.63Z" transform="translate(0 -5.15)"/><path d="M703.15,32.21c0-2-.06-3.57-.16-5.15h3.07l.19,3.13h.09a7.05,7.05,0,0,1,6.31-3.57c2.62,0,6.71,1.58,6.71,8.13V46.12h-3.44v-11c0-3.08-1.17-5.66-4.41-5.66A5,5,0,0,0,706.84,33a5.24,5.24,0,0,0-.24,1.61V46.12h-3.45Z" transform="translate(0 -5.15)"/><path d="M729,21.57v5.49h5v2.62h-5V40c0,2.37.68,3.71,2.62,3.71a6.89,6.89,0,0,0,2-.25l.16,2.64a9,9,0,0,1-3.1.47A4.83,4.83,0,0,1,727,45.06c-1-1.05-1.34-2.73-1.34-5V29.68h-3V27.06h3V22.47Z" transform="translate(0 -5.15)"/><path d="M739.62,37.21c.07,4.69,3,6.62,6.52,6.62a12.86,12.86,0,0,0,5.28-1l.61,2.46a15.44,15.44,0,0,1-6.36,1.21c-5.86,0-9.38-3.9-9.38-9.62s3.4-10.29,9-10.29c6.22,0,7.85,5.46,7.85,9a8.9,8.9,0,0,1-.12,1.62Zm10.15-2.49c0-2.18-.9-5.61-4.79-5.61-3.53,0-5,3.2-5.32,5.61Z" transform="translate(0 -5.15)"/><path d="M756.94,42.59A9.46,9.46,0,0,0,761.53,44c2.53,0,3.71-1.25,3.71-2.84s-1-2.54-3.55-3.49c-3.44-1.25-5.07-3.12-5.06-5.41,0-3.07,2.49-5.59,6.59-5.59a9.2,9.2,0,0,1,4.67,1.18L767,30.32a7.47,7.47,0,0,0-3.91-1.13c-2,0-3.16,1.18-3.16,2.62s1.12,2.28,3.62,3.25c3.29,1.23,5,2.88,5,5.73,0,3.38-2.62,5.74-7.13,5.74a10.84,10.84,0,0,1-5.35-1.33Z" transform="translate(0 -5.15)"/><path d="M711.75,230.82a36.3,36.3,0,0,1,6.6-.57c3.64,0,6,.69,7.7,2.19a6.65,6.65,0,0,1,2.08,5.05,7,7,0,0,1-5,6.77v.09c2,.71,3.25,2.63,3.9,5.38a44.33,44.33,0,0,0,2,7.29H725.5a34.46,34.46,0,0,1-1.74-6.36c-.79-3.63-2.23-5-5.34-5.15h-3.24V257h-3.43Zm3.43,12.09h3.5c3.68,0,6-2,6-5,0-3.45-2.49-5-6.11-5a15,15,0,0,0-3.39.3Z" transform="translate(0 -5.15)"/><path d="M748.75,251.81c0,2,.07,3.71.16,5.21h-3.06l-.18-3.11h-.1a7.12,7.12,0,0,1-6.31,3.55c-3,0-6.57-1.68-6.57-8.36V238h3.45v10.53c0,3.63,1.13,6.11,4.26,6.11a5,5,0,0,0,4.59-3.18,5.33,5.33,0,0,0,.32-1.78V238h3.44Z" transform="translate(0 -5.15)"/><path d="M765.1,257l-.3-2.4h-.11a7.1,7.1,0,0,1-5.83,2.84A5.44,5.44,0,0,1,753,252c0-4.62,4.09-7.16,11.46-7.1v-.41c0-1.55-.44-4.42-4.34-4.4a9.22,9.22,0,0,0-5,1.43l-.79-2.31a12,12,0,0,1,6.3-1.67c5.82,0,7.24,4,7.24,7.8v7.13a30.24,30.24,0,0,0,.29,4.56Zm-.53-9.73c-3.76-.08-8.05.59-8.05,4.28a3.06,3.06,0,0,0,3.23,3.32,4.77,4.77,0,0,0,4.65-3.19,3.62,3.62,0,0,0,.17-1.09Z" transform="translate(0 -5.15)"/><path d="M785.44,230.46v11.12h12.84V230.46h3.45V257h-3.45V244.56H785.44V257H782V230.46Z" transform="translate(0 -5.15)"/><path d="M809.45,248.12c.07,4.68,3,6.62,6.53,6.62a12.78,12.78,0,0,0,5.27-1l.61,2.46a15.24,15.24,0,0,1-6.36,1.22c-5.85,0-9.38-3.9-9.38-9.62s3.41-10.29,9-10.29c6.22,0,7.85,5.45,7.85,9a8.25,8.25,0,0,1-.12,1.63Zm10.15-2.5c0-2.18-.9-5.61-4.78-5.61-3.54,0-5.05,3.2-5.33,5.61Z" transform="translate(0 -5.15)"/><path d="M827.26,243.11c0-2-.06-3.57-.16-5.15h3.07l.19,3.14h.09a7.05,7.05,0,0,1,6.31-3.57c2.61,0,6.71,1.57,6.71,8.12V257H840V246c0-3.08-1.16-5.66-4.4-5.66a5,5,0,0,0-4.67,3.56,5.2,5.2,0,0,0-.24,1.61V257h-3.45Z" transform="translate(0 -5.15)"/><path d="M849.13,243.9c0-2.25-.06-4.17-.16-5.94h3l.13,3.74h.13a5.78,5.78,0,0,1,5.3-4.17,3.71,3.71,0,0,1,1,.1v3.26a5.19,5.19,0,0,0-1.18-.1c-2.44,0-4.17,1.84-4.64,4.43a9.22,9.22,0,0,0-.14,1.62V257h-3.45Z" transform="translate(0 -5.15)"/><path d="M866.06,232.57a2.1,2.1,0,0,1-2.21,2.16,2.07,2.07,0,0,1-2.09-2.16,2.11,2.11,0,0,1,2.16-2.15A2.07,2.07,0,0,1,866.06,232.57ZM862.18,257V238h3.45V257Z" transform="translate(0 -5.15)"/><path d="M884.42,254.08h-.1a6.79,6.79,0,0,1-6.22,3.38c-4.46,0-8.08-3.85-8.08-9.65,0-7.16,4.6-10.28,8.63-10.28a6.24,6.24,0,0,1,5.87,3.3h.08l.13-2.87H888c-.08,1.59-.15,3.25-.15,5.24v21.63h-3.44Zm0-8.42a6.17,6.17,0,0,0-.16-1.44,5.14,5.14,0,0,0-5-3.95c-3.58,0-5.76,3-5.76,7.32,0,3.82,1.82,7.11,5.65,7.11a5.19,5.19,0,0,0,5-3.77,5.33,5.33,0,0,0,.29-1.67Z" transform="translate(0 -5.15)"/><path d="M909.54,251.81c0,2,.06,3.71.16,5.21h-3.07l-.18-3.11h-.1a7.12,7.12,0,0,1-6.31,3.55c-3,0-6.56-1.68-6.56-8.36V238h3.45v10.53c0,3.63,1.13,6.11,4.26,6.11a5,5,0,0,0,4.58-3.18,5.33,5.33,0,0,0,.32-1.78V238h3.45Z" transform="translate(0 -5.15)"/><path d="M917.26,248.12c.07,4.68,3,6.62,6.52,6.62a12.84,12.84,0,0,0,5.28-1l.61,2.46a15.24,15.24,0,0,1-6.36,1.22c-5.86,0-9.38-3.9-9.38-9.62s3.4-10.29,9-10.29c6.22,0,7.84,5.45,7.84,9a8.25,8.25,0,0,1-.12,1.63Zm10.14-2.5c0-2.18-.89-5.61-4.78-5.61-3.54,0-5,3.2-5.32,5.61Z" transform="translate(0 -5.15)"/><path d="M965.94,245.36c-.21-3.69-.45-8.18-.42-11.46h-.11c-.92,3.08-2,6.43-3.34,10.07l-4.69,12.89h-2.6l-4.32-12.65c-1.27-3.76-2.3-7.16-3-10.31h-.1c-.09,3.31-.26,7.73-.52,11.72l-.71,11.4h-3.26l1.85-26.56h4.39l4.52,12.86c1.1,3.25,2,6.17,2.68,9h.1c.7-2.69,1.63-5.62,2.81-9l4.74-12.86h4.39L970,257h-3.37Z" transform="translate(0 -5.15)"/><path d="M992.6,247.31c0,7.06-4.89,10.15-9.48,10.15-5.17,0-9.16-3.77-9.16-9.82,0-6.38,4.19-10.11,9.47-10.11C988.91,237.53,992.6,241.5,992.6,247.31Zm-15.11.22c0,4.18,2.4,7.33,5.78,7.33s5.81-3.11,5.81-7.43c0-3.23-1.63-7.3-5.75-7.3S977.49,243.92,977.49,247.53Z" transform="translate(0 -5.15)"/><path d="M997,243.11c0-2-.06-3.57-.16-5.15h3.07l.19,3.14h.09a7.05,7.05,0,0,1,6.31-3.57c2.62,0,6.71,1.57,6.71,8.12V257h-3.44V246c0-3.08-1.17-5.66-4.41-5.66a5,5,0,0,0-4.67,3.56,5.2,5.2,0,0,0-.24,1.61V257H997Z" transform="translate(0 -5.15)"/><path d="M1022.87,232.48V238h5v2.63h-5v10.27c0,2.38.68,3.72,2.62,3.72a6.94,6.94,0,0,0,2-.25l.16,2.63a8.72,8.72,0,0,1-3.1.48,4.87,4.87,0,0,1-3.74-1.47c-1-1.05-1.34-2.73-1.34-5V240.59h-3V238h3v-4.59Z" transform="translate(0 -5.15)"/><path d="M1033.46,248.12c.07,4.68,3,6.62,6.52,6.62a12.84,12.84,0,0,0,5.28-1l.61,2.46a15.24,15.24,0,0,1-6.36,1.22c-5.86,0-9.38-3.9-9.38-9.62s3.4-10.29,9-10.29c6.22,0,7.84,5.45,7.84,9a9.3,9.3,0,0,1-.11,1.63Zm10.15-2.5c0-2.18-.9-5.61-4.79-5.61-3.53,0-5,3.2-5.32,5.61Z" transform="translate(0 -5.15)"/><path d="M1050.78,253.49a9.36,9.36,0,0,0,4.59,1.36c2.53,0,3.71-1.24,3.71-2.84s-1-2.54-3.55-3.49c-3.44-1.24-5.07-3.12-5.06-5.4,0-3.07,2.49-5.59,6.59-5.59a9.2,9.2,0,0,1,4.67,1.17l-.86,2.52a7.48,7.48,0,0,0-3.91-1.12c-2,0-3.16,1.18-3.16,2.62s1.12,2.28,3.62,3.25c3.29,1.22,5,2.88,5,5.72,0,3.38-2.62,5.75-7.13,5.75a10.84,10.84,0,0,1-5.35-1.33Z" transform="translate(0 -5.15)"/><path d="M723.54,435.3a36.18,36.18,0,0,1,6.59-.57c3.65,0,6,.69,7.7,2.18a6.65,6.65,0,0,1,2.09,5,7,7,0,0,1-5,6.77v.1c2,.71,3.25,2.62,3.89,5.38a45.06,45.06,0,0,0,2.05,7.29h-3.56a35.29,35.29,0,0,1-1.75-6.36c-.79-3.64-2.22-5.05-5.33-5.15H727V461.5h-3.42ZM727,447.39h3.51c3.67,0,6-2,6-5,0-3.45-2.49-5-6.11-5a15.15,15.15,0,0,0-3.4.3Z" transform="translate(0 -5.15)"/><path d="M760.54,456.28c0,2,.07,3.71.16,5.22h-3.06l-.19-3.12h-.1a7.11,7.11,0,0,1-6.31,3.55c-3,0-6.56-1.67-6.56-8.35V442.44h3.45V453c0,3.63,1.13,6.1,4.26,6.1a5,5,0,0,0,4.59-3.18,5.34,5.34,0,0,0,.31-1.78V442.44h3.45Z" transform="translate(0 -5.15)"/><path d="M776.89,461.5l-.31-2.41h-.1a7.08,7.08,0,0,1-5.83,2.84,5.43,5.43,0,0,1-5.82-5.47c0-4.61,4.09-7.15,11.45-7.1V449c0-1.55-.43-4.42-4.34-4.4a9.26,9.26,0,0,0-5,1.42l-.79-2.31a12.08,12.08,0,0,1,6.29-1.67c5.83,0,7.25,4,7.25,7.81v7.13a29.07,29.07,0,0,0,.29,4.56Zm-.54-9.74c-3.75-.07-8.05.6-8.05,4.28a3.05,3.05,0,0,0,3.24,3.32,4.79,4.79,0,0,0,4.65-3.19,3.6,3.6,0,0,0,.16-1.09Z" transform="translate(0 -5.15)"/><path d="M814,460.3a24.15,24.15,0,0,1-8.17,1.46c-4,0-7.35-1-9.94-3.51a13.52,13.52,0,0,1-3.69-9.86c0-7.92,5.46-13.72,14.36-13.72a16.67,16.67,0,0,1,6.65,1.22l-.86,2.79a13.64,13.64,0,0,0-5.87-1.13c-6.44,0-10.67,4-10.67,10.66s4,10.72,10.26,10.72a10.94,10.94,0,0,0,4.55-.72V450.3h-5.37v-2.74H814Z" transform="translate(0 -5.15)"/><path d="M835.16,456.28c0,2,.06,3.71.16,5.22h-3.07l-.18-3.12H832a7.12,7.12,0,0,1-6.31,3.55c-3,0-6.56-1.67-6.56-8.35V442.44h3.45V453c0,3.63,1.13,6.1,4.26,6.1a5,5,0,0,0,4.58-3.18,5.33,5.33,0,0,0,.32-1.78V442.44h3.45Z" transform="translate(0 -5.15)"/><path d="M842.88,452.59c.07,4.69,3,6.62,6.52,6.62a12.67,12.67,0,0,0,5.28-1l.61,2.47a15.44,15.44,0,0,1-6.36,1.21c-5.86,0-9.38-3.9-9.38-9.62s3.4-10.29,9-10.29c6.22,0,7.84,5.46,7.84,9a8.07,8.07,0,0,1-.12,1.62ZM853,450.1c0-2.18-.89-5.61-4.78-5.61-3.54,0-5,3.2-5.32,5.61Z" transform="translate(0 -5.15)"/><path d="M877.14,433.51v23.07c0,1.7.06,3.6.15,4.92h-3.08l-.17-3.3h-.1a7,7,0,0,1-6.46,3.73c-4.62,0-8.18-3.9-8.18-9.68,0-6.37,3.92-10.25,8.56-10.25a6.34,6.34,0,0,1,5.75,2.9h.08V433.51Zm-3.45,16.68a7.42,7.42,0,0,0-.14-1.48,5.12,5.12,0,0,0-5-4c-3.59,0-5.74,3.15-5.74,7.34,0,3.87,1.93,7.08,5.67,7.08a5.22,5.22,0,0,0,5.06-4.16,5.73,5.73,0,0,0,.17-1.48Z" transform="translate(0 -5.15)"/><path d="M884.86,452.59c.07,4.69,3,6.62,6.52,6.62a12.67,12.67,0,0,0,5.28-1l.61,2.47a15.44,15.44,0,0,1-6.36,1.21c-5.86,0-9.38-3.9-9.38-9.62s3.4-10.29,9-10.29c6.22,0,7.84,5.46,7.84,9a8.07,8.07,0,0,1-.12,1.62ZM895,450.1c0-2.18-.89-5.61-4.78-5.61-3.54,0-5,3.2-5.32,5.61Z" transform="translate(0 -5.15)"/><path d="M902.18,458a9.43,9.43,0,0,0,4.59,1.36c2.53,0,3.7-1.25,3.7-2.84s-1-2.54-3.54-3.49c-3.44-1.25-5.07-3.12-5.06-5.41,0-3.07,2.49-5.59,6.59-5.59a9.2,9.2,0,0,1,4.67,1.18l-.86,2.52a7.51,7.51,0,0,0-3.91-1.13c-2.05,0-3.16,1.18-3.16,2.62s1.12,2.28,3.62,3.25c3.29,1.22,5,2.88,5,5.73,0,3.38-2.63,5.74-7.13,5.74a10.88,10.88,0,0,1-5.36-1.33Z" transform="translate(0 -5.15)"/><path d="M943.08,433.51v23.07c0,1.7.07,3.6.16,4.92h-3.08l-.18-3.3h-.09a7,7,0,0,1-6.47,3.73c-4.61,0-8.18-3.9-8.18-9.68,0-6.37,3.93-10.25,8.57-10.25a6.36,6.36,0,0,1,5.75,2.9h.08V433.51Zm-3.44,16.68a6.76,6.76,0,0,0-.15-1.48,5.12,5.12,0,0,0-5-4c-3.59,0-5.73,3.15-5.73,7.34,0,3.87,1.92,7.08,5.66,7.08a5.23,5.23,0,0,0,5.07-4.16,5.73,5.73,0,0,0,.17-1.48Z" transform="translate(0 -5.15)"/><path d="M950.8,452.59c.07,4.69,3.05,6.62,6.53,6.62a12.71,12.71,0,0,0,5.28-1l.6,2.47a15.44,15.44,0,0,1-6.36,1.21c-5.85,0-9.38-3.9-9.38-9.62s3.41-10.29,9-10.29c6.22,0,7.85,5.46,7.85,9a8.07,8.07,0,0,1-.12,1.62ZM961,450.1c0-2.18-.9-5.61-4.78-5.61-3.54,0-5,3.2-5.32,5.61Z" transform="translate(0 -5.15)"/><path d="M977.07,435.3a32.07,32.07,0,0,1,6.26-.57c3.45,0,5.65.58,7.3,1.92a5.67,5.67,0,0,1,2.22,4.71,6.27,6.27,0,0,1-4.49,5.82v.1a6.81,6.81,0,0,1,5.48,6.67,7,7,0,0,1-2.27,5.29c-1.83,1.71-4.82,2.49-9.17,2.49a46.92,46.92,0,0,1-5.33-.29Zm3.43,10.88h3.14c3.59,0,5.72-1.91,5.72-4.49,0-3.08-2.34-4.32-5.81-4.32a14,14,0,0,0-3,.24Zm0,12.71a16,16,0,0,0,2.89.17c3.56,0,6.83-1.3,6.83-5.17,0-3.61-3.12-5.12-6.87-5.13H980.5Z" transform="translate(0 -5.15)"/><path d="M998.36,448.37c0-2.25-.05-4.17-.15-5.93h3l.14,3.74h.12a5.79,5.79,0,0,1,5.31-4.18,4.16,4.16,0,0,1,1,.1v3.26a5.77,5.77,0,0,0-1.18-.1c-2.44,0-4.17,1.84-4.64,4.44a9,9,0,0,0-.14,1.61V461.5h-3.45Z" transform="translate(0 -5.15)"/><path d="M1015.29,437.05a2.15,2.15,0,1,1-4.3,0,2.11,2.11,0,0,1,2.16-2.16A2.08,2.08,0,0,1,1015.29,437.05Zm-3.87,24.45V442.44h3.45V461.5Z" transform="translate(0 -5.15)"/><path d="M1024.8,437v5.49h5v2.62h-5v10.28c0,2.37.69,3.71,2.62,3.71a6.89,6.89,0,0,0,2-.25l.16,2.63a8.72,8.72,0,0,1-3.1.48,4.83,4.83,0,0,1-3.74-1.47c-1-1.05-1.34-2.73-1.34-5V445.06h-3v-2.62h3v-4.59Z" transform="translate(0 -5.15)"/><path d="M1050.71,451.78c0,7.06-4.9,10.15-9.48,10.15-5.17,0-9.17-3.77-9.17-9.82,0-6.38,4.2-10.11,9.47-10.11C1047,442,1050.71,446,1050.71,451.78Zm-15.12.23c0,4.18,2.4,7.32,5.78,7.32s5.81-3.1,5.81-7.43c0-3.22-1.63-7.3-5.75-7.3S1035.59,448.39,1035.59,452Z" transform="translate(0 -5.15)"/><path d="M38.39,496.14a35.76,35.76,0,0,1,3-5.9c1.92-3.1,3.78-4.77,5.92-5.38a6.64,6.64,0,0,1,5.39.9,7,7,0,0,1,3.1,7.83l.08.05c1.68-1.35,3.95-1.37,6.63-.46a45.46,45.46,0,0,0,7.27,2.12l-1.88,3a35.91,35.91,0,0,1-6.33-1.88c-3.5-1.26-5.46-.78-7.19,1.8L52.67,501l9.77,6.09L60.63,510Zm12.07,3.48,1.86-3c1.94-3.12,1.47-6.15-1.12-7.76-2.92-1.83-5.51-.51-7.43,2.56a14.74,14.74,0,0,0-1.54,3.05Z" transform="translate(0 -5.15)"/><path d="M75.76,475.82c1.7,1.06,3.18,1.91,4.51,2.62L78.65,481l-2.74-1.49,0,.08a7.14,7.14,0,0,1-.32,7.24C74,489.4,70.65,491.56,65,488l-9.46-5.89,1.82-2.92,8.94,5.56c3.08,1.92,5.78,2.27,7.43-.39a5,5,0,0,0-.27-5.57,5.3,5.3,0,0,0-1.34-1.21l-9.91-6.17L64,468.5Z" transform="translate(0 -5.15)"/><path d="M88.83,464.7l-2.2-1-.06.08a7.11,7.11,0,0,1-.67,6.46,5.44,5.44,0,0,1-7.72,2c-3.92-2.44-3.91-7.26,0-13.48l-.35-.21c-1.31-.82-4-2-6,1.35a9.3,9.3,0,0,0-1.42,5l-2.37-.55a12,12,0,0,1,1.9-6.22c3.08-4.95,7.22-4.05,10.46-2l6,3.77a31.13,31.13,0,0,0,4,2.17ZM80.28,460c-2,3.14-3.74,7.15-.62,9.09a3,3,0,0,0,4.53-1,4.78,4.78,0,0,0-.25-5.63,3.65,3.65,0,0,0-.84-.71Z" transform="translate(0 -5.15)"/><path d="M75.21,436.32l7.56-12.14,2.43,1.51-5.74,9.21L87,439.58l5.3-8.52,2.41,1.51-5.3,8.51,10.2,6.36-1.82,2.92Z" transform="translate(0 -5.15)"/><path d="M96.17,428.09c-1.91-1.19-3.57-2.15-5.12-3l1.6-2.58,3.25,1.86.06-.1a5.79,5.79,0,0,1-.74-6.71,4,4,0,0,1,.6-.77l2.77,1.73a5.1,5.1,0,0,0-.71.94c-1.3,2.08-.65,4.51,1.31,6.29a9.16,9.16,0,0,0,1.3,1l8.64,5.38L107.31,435Z" transform="translate(0 -5.15)"/><path d="M119.61,415.28l-2.21-1-.05.08a7.11,7.11,0,0,1-.67,6.46,5.45,5.45,0,0,1-7.72,2.05c-3.92-2.44-3.91-7.26,0-13.48l-.35-.21c-1.31-.82-4-2-6,1.35a9.35,9.35,0,0,0-1.41,5l-2.38-.55a12,12,0,0,1,1.91-6.22c3.08-5,7.21-4.05,10.45-2l6.06,3.77a31.13,31.13,0,0,0,4,2.17Zm-8.55-4.69c-2,3.14-3.75,7.15-.62,9.09a3,3,0,0,0,4.53-1,4.78,4.78,0,0,0-.25-5.63,3.7,3.7,0,0,0-.84-.72Z" transform="translate(0 -5.15)"/><path d="M112.26,400.77c-1.69-1-3.07-1.83-4.46-2.59l1.62-2.6,2.76,1.5.06-.09a7,7,0,0,1,.3-7.23c1.38-2.23,4.89-4.87,10.44-1.41l9.66,6-1.83,2.93-9.33-5.81c-2.61-1.63-5.42-2-7.13.75a5,5,0,0,0,.55,5.84,5.08,5.08,0,0,0,1.24,1.05l9.75,6.07-1.82,2.93Z" transform="translate(0 -5.15)"/><path d="M142.23,377.65a13.2,13.2,0,0,1-1.95,5.23c-3,4.88-8.35,6-13.3,2.92s-6.51-8.77-3.21-14.06a11.12,11.12,0,0,1,3.41-3.56l1.85,2.07a8.41,8.41,0,0,0-2.92,2.95c-2.3,3.69-.79,7.44,2.57,9.53,3.75,2.33,7.56,1.36,9.56-1.87a10.07,10.07,0,0,0,1.47-4.09Z" transform="translate(0 -5.15)"/><path d="M126.26,358.35a2.09,2.09,0,0,1,.66,3A2.06,2.06,0,0,1,124,362a2.11,2.11,0,0,1-.69-3A2.07,2.07,0,0,1,126.26,358.35ZM145,374.56l-16.18-10.07,1.82-2.93,16.18,10.08Z" transform="translate(0 -5.15)"/><path d="M146.59,365.28a9.48,9.48,0,0,0,3.58-3.18c1.34-2.15.9-3.8-.45-4.64s-2.69-.49-4.84,1.16c-2.88,2.26-5.33,2.66-7.26,1.44-2.61-1.62-3.43-5.07-1.26-8.55a9.08,9.08,0,0,1,3.46-3.34l1.68,2.06a7.56,7.56,0,0,0-3,2.73c-1.08,1.73-.66,3.3.56,4.06s2.53.25,4.67-1.35c2.77-2.15,5.08-2.72,7.51-1.22,2.86,1.78,3.48,5.26,1.1,9.09a10.81,10.81,0,0,1-4,3.84Z" transform="translate(0 -5.15)"/><path d="M164.69,341.58a13.2,13.2,0,0,1-1.95,5.23c-3,4.88-8.35,6-13.3,2.92s-6.5-8.77-3.21-14.06a11.12,11.12,0,0,1,3.41-3.56l1.85,2.07a8.41,8.41,0,0,0-2.92,2.95c-2.3,3.69-.79,7.44,2.57,9.53,3.75,2.33,7.56,1.36,9.57-1.87a10,10,0,0,0,1.46-4.09Z" transform="translate(0 -5.15)"/><path d="M168.18,318.91c6,3.74,6,9.53,3.6,13.41-2.73,4.39-8,5.79-13.18,2.59-5.41-3.37-6.36-8.9-3.57-13.38C157.92,316.88,163.25,315.85,168.18,318.91Zm-7.8,12.95c3.55,2.21,7.48,1.84,9.27-1s.44-6.57-3.24-8.86c-2.73-1.7-7-2.48-9.23,1S157.31,330,160.38,331.86Z" transform="translate(0 -5.15)"/><path d="M192.9,295.33a24.11,24.11,0,0,1-3.07,7.7c-2.13,3.42-4.75,5.7-8.24,6.58a13.54,13.54,0,0,1-10.32-2.08c-6.72-4.2-8.76-11.89-4.06-19.45a16.77,16.77,0,0,1,4.55-5l1.92,2.21a13.57,13.57,0,0,0-4.07,4.38c-3.4,5.47-2.23,11.17,3.42,14.69s11.23,2.24,14.51-3a10.94,10.94,0,0,0,1.81-4.25l-6.72-4.18-2.84,4.56L177.46,296l4.62-7.42Z" transform="translate(0 -5.15)"/><path d="M178,275.34a2.09,2.09,0,0,1,.66,3,2.06,2.06,0,0,1-2.93.63,2.14,2.14,0,1,1,2.27-3.64Zm18.7,16.21-16.18-10.08,1.83-2.92,16.18,10.07Z" transform="translate(0 -5.15)"/><path d="M177.79,268.93l1.82-2.93,23.75,14.79-1.82,2.93Z" transform="translate(0 -5.15)"/><path d="M195.82,240l19.58,12.2c1.44.89,3.09,1.85,4.26,2.46L218,257.25l-2.89-1.59,0,.07a7,7,0,0,1-.26,7.46c-2.44,3.93-7.64,4.88-12.54,1.83-5.43-3.34-6.62-8.75-4.17-12.69a6.37,6.37,0,0,1,5.49-3.35l0-.07-9.66-6Zm12.33,11.75a6.87,6.87,0,0,0-1.33-.66,5.12,5.12,0,0,0-6,2.15c-1.9,3-.36,6.53,3.2,8.75,3.28,2,7,2.11,9-1.07a5.22,5.22,0,0,0-.85-6.5,5.91,5.91,0,0,0-1.17-.93Z" transform="translate(0 -5.15)"/><path d="M216.09,243.51c4,2.42,7.23.91,9.07-2a12.76,12.76,0,0,0,2-5l2.41.79a15.38,15.38,0,0,1-2.33,6c-3.09,5-8.27,5.89-13.12,2.87s-6.94-8.32-4-13c3.28-5.28,8.77-3.77,11.75-1.92a8.43,8.43,0,0,1,1.32,1Zm3.25-9.93c-1.83-1.19-5.24-2.21-7.29,1.09-1.87,3,0,6,1.95,7.48Z" transform="translate(0 -5.15)"/><path d="M232.73,217.84l5.64,6.75-1.88,3L218.71,205.9l2.18-3.51,27.35,6.35-1.94,3.11-8.59-2Zm2.33-8.82-7.87-1.81c-1.79-.43-3.34-.92-4.84-1.4l0,.08c1.12,1.15,2.27,2.36,3.38,3.66l5.14,6.28Z" transform="translate(0 -5.15)"/><path d="M239,198.69c-1.91-1.19-3.57-2.15-5.12-3l1.6-2.58,3.25,1.87.06-.11a5.77,5.77,0,0,1-.73-6.71,4,4,0,0,1,.59-.77l2.77,1.73a5.47,5.47,0,0,0-.71.94c-1.29,2.08-.64,4.52,1.31,6.29a9.77,9.77,0,0,0,1.3,1L252,202.7l-1.82,2.93Z" transform="translate(0 -5.15)"/><path d="M262.47,185.88l-2.2-1-.06.09a7.09,7.09,0,0,1-.67,6.45,5.44,5.44,0,0,1-7.72,2.05c-3.92-2.44-3.91-7.26,0-13.48l-.34-.21c-1.32-.82-4-2-6,1.36a9.24,9.24,0,0,0-1.42,5l-2.37-.55a12,12,0,0,1,1.9-6.22c3.08-4.95,7.22-4,10.46-2l6.05,3.77a30,30,0,0,0,4,2.17Zm-8.55-4.69c-2,3.15-3.74,7.15-.62,9.1a3.05,3.05,0,0,0,4.53-1,4.78,4.78,0,0,0-.25-5.63,3.65,3.65,0,0,0-.84-.71Z" transform="translate(0 -5.15)"/><path d="M250.91,152.75l2.25,7.07-1.3,2.08-3-5.91Zm20,9.69c1.69,1.05,3.18,1.9,4.51,2.62l-1.62,2.6-2.75-1.49-.05.08a7.1,7.1,0,0,1-.32,7.23c-1.57,2.54-4.89,4.69-10.56,1.16l-9.46-5.89,1.83-2.93,8.94,5.57c3.08,1.92,5.78,2.27,7.43-.39a5,5,0,0,0-.28-5.57,5.3,5.3,0,0,0-1.34-1.21l-9.91-6.17,1.82-2.93Z" transform="translate(0 -5.15)"/><path d="M259.93,143.71a2.14,2.14,0,1,1-2.27,3.64,2.1,2.1,0,0,1-.67-3A2.05,2.05,0,0,1,259.93,143.71Zm20.69,23.46a5.5,5.5,0,0,0,.75-4c-.41-1.37-1.49-2.49-5.37-4.91l-13.54-8.43,1.83-2.93L279,156c3.15,2,4.88,3.73,5.47,6.09a8.82,8.82,0,0,1-1.29,6.16Z" transform="translate(0 -5.15)"/><path d="M284.35,132.38c6,3.73,6,9.52,3.6,13.41-2.73,4.39-8,5.78-13.18,2.59-5.41-3.38-6.36-8.91-3.57-13.38C274.09,130.34,279.42,129.31,284.35,132.38Zm-7.8,12.94c3.55,2.21,7.48,1.84,9.27-1s.44-6.57-3.24-8.86c-2.73-1.7-7.05-2.48-9.23,1S273.48,143.41,276.55,145.32Z" transform="translate(0 -5.15)"/><path d="M648.4,648a36.38,36.38,0,0,1,6.6-.57c3.65,0,6,.69,7.7,2.19a6.65,6.65,0,0,1,2.08,5.05,7,7,0,0,1-5,6.76v.1c2,.71,3.25,2.63,3.89,5.38a45.06,45.06,0,0,0,2.05,7.29h-3.56a35,35,0,0,1-1.75-6.36c-.79-3.64-2.22-5.05-5.33-5.15h-3.25v11.51H648.4Zm3.43,12.09h3.51c3.67,0,6-2,6-5,0-3.45-2.49-5-6.11-5a14.9,14.9,0,0,0-3.4.31Z" transform="translate(0 -5.15)"/><path d="M685.41,669c0,2,.06,3.71.16,5.22H682.5l-.18-3.12h-.1a7.1,7.1,0,0,1-6.31,3.55c-3,0-6.56-1.67-6.56-8.35V655.16h3.45v10.53c0,3.63,1.13,6.1,4.26,6.1a5.06,5.06,0,0,0,4.59-3.18,5.6,5.6,0,0,0,.31-1.78V655.16h3.45Z" transform="translate(0 -5.15)"/><path d="M701.76,674.22l-.31-2.41h-.1a7.08,7.08,0,0,1-5.83,2.84,5.43,5.43,0,0,1-5.82-5.47c0-4.61,4.09-7.15,11.45-7.1v-.4c0-1.55-.43-4.42-4.34-4.4a9.26,9.26,0,0,0-5,1.42l-.79-2.3a12,12,0,0,1,6.29-1.67c5.83,0,7.25,4,7.25,7.8v7.13a29,29,0,0,0,.29,4.56Zm-.54-9.73c-3.75-.08-8.05.59-8.05,4.28a3.06,3.06,0,0,0,3.24,3.32,4.78,4.78,0,0,0,4.65-3.2,3.56,3.56,0,0,0,.16-1.09Z" transform="translate(0 -5.15)"/><path d="M718.65,647.66H733v2.85H722.1v8.85h10v2.84h-10v12h-3.45Z" transform="translate(0 -5.15)"/><path d="M736.71,661.1c0-2.25-.06-4.17-.16-5.94h3l.13,3.74h.13a5.78,5.78,0,0,1,5.3-4.17,4.21,4.21,0,0,1,1,.09v3.26a5.77,5.77,0,0,0-1.18-.1c-2.44,0-4.17,1.84-4.64,4.44a9.05,9.05,0,0,0-.14,1.62v10.18h-3.45Z" transform="translate(0 -5.15)"/><path d="M760,674.22l-.31-2.41h-.1a7.08,7.08,0,0,1-5.83,2.84,5.43,5.43,0,0,1-5.82-5.47c0-4.61,4.09-7.15,11.45-7.1v-.4c0-1.55-.43-4.42-4.34-4.4a9.26,9.26,0,0,0-5,1.42l-.79-2.3a12,12,0,0,1,6.29-1.67c5.83,0,7.25,4,7.25,7.8v7.13a29,29,0,0,0,.29,4.56Zm-.54-9.73c-3.75-.08-8.05.59-8.05,4.28a3.06,3.06,0,0,0,3.24,3.32,4.78,4.78,0,0,0,4.65-3.2,3.56,3.56,0,0,0,.16-1.09Z" transform="translate(0 -5.15)"/><path d="M768.41,660.31c0-2-.06-3.57-.16-5.15h3.07l.19,3.13h.09a7,7,0,0,1,6.31-3.56c2.61,0,6.71,1.57,6.71,8.12v11.37h-3.45v-11c0-3.08-1.16-5.66-4.4-5.66a5,5,0,0,0-4.67,3.56,5.13,5.13,0,0,0-.24,1.6v11.49h-3.45Z" transform="translate(0 -5.15)"/><path d="M803.88,673.53a13.12,13.12,0,0,1-5.47,1.1c-5.75,0-9.51-3.91-9.51-9.73s4-10.17,10.24-10.17a11.18,11.18,0,0,1,4.82,1l-.77,2.66a8.47,8.47,0,0,0-4.06-.92c-4.35,0-6.73,3.26-6.72,7.22,0,4.42,2.84,7.13,6.64,7.13a10.14,10.14,0,0,0,4.24-.91Z" transform="translate(0 -5.15)"/><path d="M811.82,649.77a2.1,2.1,0,0,1-2.21,2.16,2.07,2.07,0,0,1-2.09-2.16,2.11,2.11,0,0,1,2.16-2.16A2.08,2.08,0,0,1,811.82,649.77ZM808,674.22V655.16h3.44v19.06Z" transform="translate(0 -5.15)"/><path d="M816.68,670.69a9.46,9.46,0,0,0,4.59,1.36c2.53,0,3.71-1.25,3.71-2.84s-1-2.54-3.54-3.49c-3.45-1.25-5.08-3.12-5.07-5.41,0-3.07,2.49-5.58,6.59-5.58a9.2,9.2,0,0,1,4.67,1.17l-.86,2.52a7.48,7.48,0,0,0-3.91-1.12c-2,0-3.16,1.18-3.16,2.61,0,1.58,1.12,2.28,3.62,3.25,3.29,1.23,5,2.88,5,5.73,0,3.38-2.62,5.74-7.13,5.74a11,11,0,0,1-5.35-1.32Z" transform="translate(0 -5.15)"/><path d="M846.37,673.53a13.08,13.08,0,0,1-5.47,1.1c-5.75,0-9.51-3.91-9.51-9.73s4-10.17,10.24-10.17a11.18,11.18,0,0,1,4.82,1l-.77,2.66a8.47,8.47,0,0,0-4.06-.92c-4.34,0-6.73,3.26-6.72,7.22,0,4.42,2.84,7.13,6.64,7.13a10.14,10.14,0,0,0,4.24-.91Z" transform="translate(0 -5.15)"/><path d="M867.46,664.51c0,7.06-4.9,10.14-9.48,10.14-5.17,0-9.17-3.76-9.17-9.82,0-6.37,4.2-10.1,9.47-10.1C863.76,654.73,867.46,658.7,867.46,664.51Zm-15.12.22c0,4.18,2.4,7.33,5.78,7.33s5.81-3.11,5.81-7.44c0-3.22-1.63-7.3-5.75-7.3S852.34,661.11,852.34,664.73Z" transform="translate(0 -5.15)"/><path d="M896.65,646.24V669.3c0,1.7.06,3.6.16,4.92h-3.09l-.17-3.3h-.09a7,7,0,0,1-6.47,3.73c-4.62,0-8.18-3.9-8.18-9.68,0-6.37,3.92-10.24,8.56-10.24a6.35,6.35,0,0,1,5.75,2.89h.08V646.24Zm-3.45,16.67a7.49,7.49,0,0,0-.14-1.48,5.14,5.14,0,0,0-5-4c-3.59,0-5.74,3.15-5.74,7.34,0,3.87,1.93,7.09,5.67,7.09A5.23,5.23,0,0,0,893,667.7a5.32,5.32,0,0,0,.17-1.48Z" transform="translate(0 -5.15)"/><path d="M904.37,665.32c.07,4.68,3,6.61,6.52,6.61a12.86,12.86,0,0,0,5.28-1l.61,2.46a15.44,15.44,0,0,1-6.36,1.21c-5.86,0-9.38-3.9-9.38-9.62s3.4-10.28,9-10.28c6.22,0,7.84,5.45,7.84,9a9.3,9.3,0,0,1-.11,1.63Zm10.15-2.5c0-2.18-.9-5.61-4.79-5.61-3.54,0-5,3.2-5.32,5.61Z" transform="translate(0 -5.15)"/><path d="M950.88,673a24.13,24.13,0,0,1-8.16,1.46c-4,0-7.35-1-9.94-3.51a13.55,13.55,0,0,1-3.69-9.87c0-7.92,5.46-13.72,14.36-13.72a16.57,16.57,0,0,1,6.64,1.22l-.85,2.8a13.48,13.48,0,0,0-5.87-1.14c-6.45,0-10.67,4-10.67,10.66s4,10.72,10.25,10.72a11,11,0,0,0,4.56-.71V663h-5.37v-2.74h8.74Z" transform="translate(0 -5.15)"/><path d="M973.45,664.51c0,7.06-4.9,10.14-9.48,10.14-5.17,0-9.16-3.76-9.16-9.82,0-6.37,4.19-10.1,9.46-10.1C969.75,654.73,973.45,658.7,973.45,664.51Zm-15.12.22c0,4.18,2.4,7.33,5.78,7.33s5.81-3.11,5.81-7.44c0-3.22-1.63-7.3-5.75-7.3S958.33,661.11,958.33,664.73Zm11-17.84-4.81,5.65H962l3.45-5.65Z" transform="translate(0 -5.15)"/><path d="M979.81,665.32c.07,4.68,3.05,6.61,6.53,6.61a12.9,12.9,0,0,0,5.28-1l.6,2.46a15.44,15.44,0,0,1-6.36,1.21c-5.85,0-9.38-3.9-9.38-9.62s3.41-10.28,9-10.28c6.22,0,7.85,5.45,7.85,9a8.25,8.25,0,0,1-.12,1.63Zm10.15-2.5c0-2.18-.89-5.61-4.78-5.61-3.54,0-5,3.2-5.32,5.61Z" transform="translate(0 -5.15)"/><path d="M997.13,670.69a9.5,9.5,0,0,0,4.6,1.36c2.53,0,3.7-1.25,3.7-2.84s-1-2.54-3.54-3.49c-3.45-1.25-5.08-3.12-5.07-5.41,0-3.07,2.5-5.58,6.6-5.58a9.2,9.2,0,0,1,4.67,1.17l-.87,2.52a7.48,7.48,0,0,0-3.91-1.12c-2,0-3.15,1.18-3.15,2.61,0,1.58,1.12,2.28,3.61,3.25,3.29,1.23,5,2.88,5,5.73,0,3.38-2.63,5.74-7.13,5.74a11,11,0,0,1-5.36-1.32Z" transform="translate(0 -5.15)"/><path d="M1026,665.87l-2.75,8.35h-3.55l9-26.56h4.13l9.07,26.56h-3.67l-2.84-8.35Zm8.72-2.68-2.63-7.65c-.57-1.73-1-3.32-1.37-4.84h-.09c-.38,1.55-.79,3.17-1.32,4.8l-2.61,7.69Z" transform="translate(0 -5.15)"/><path d="M1045.59,661.1c0-2.25-.06-4.17-.16-5.94h3l.13,3.74h.12a5.78,5.78,0,0,1,5.31-4.17,4.07,4.07,0,0,1,1,.09v3.26a5.73,5.73,0,0,0-1.17-.1c-2.45,0-4.17,1.84-4.65,4.44A10.08,10.08,0,0,0,1049,664v10.18h-3.44Z" transform="translate(0 -5.15)"/><path d="M1068.85,674.22l-.3-2.41h-.1a7.11,7.11,0,0,1-5.84,2.84,5.43,5.43,0,0,1-5.82-5.47c0-4.61,4.09-7.15,11.46-7.1v-.4c0-1.55-.44-4.42-4.34-4.4a9.3,9.3,0,0,0-5,1.42l-.79-2.3a12,12,0,0,1,6.3-1.67c5.82,0,7.24,4,7.24,7.8v7.13a30.24,30.24,0,0,0,.29,4.56Zm-.53-9.73c-3.76-.08-8,.59-8,4.28a3.06,3.06,0,0,0,3.24,3.32,4.76,4.76,0,0,0,4.64-3.2,3.58,3.58,0,0,0,.17-1.09Z" transform="translate(0 -5.15)"/><path d="M1093.22,669c0,2,.07,3.71.16,5.22h-3.06l-.19-3.12H1090a7.12,7.12,0,0,1-6.31,3.55c-3,0-6.57-1.67-6.57-8.35V655.16h3.45v10.53c0,3.63,1.13,6.1,4.26,6.1a5,5,0,0,0,4.59-3.18,5.34,5.34,0,0,0,.31-1.78V655.16h3.45Zm-2.36-22.11-4.81,5.65h-2.45l3.45-5.65Z" transform="translate(0 -5.15)"/><path d="M1094.33,679.73a5.43,5.43,0,0,0,3.78-1.47c1-1.07,1.33-2.58,1.33-7.15v-16h3.45v17.28c0,3.71-.58,6.11-2.27,7.86a8.92,8.92,0,0,1-5.92,2.16Zm9-30a2.08,2.08,0,0,1-2.2,2.16,2.06,2.06,0,0,1-2.09-2.16,2.11,2.11,0,0,1,2.18-2.16A2.07,2.07,0,0,1,1103.31,649.77Z" transform="translate(0 -5.15)"/><path d="M1125.84,664.51c0,7.06-4.9,10.14-9.48,10.14-5.17,0-9.17-3.76-9.17-9.82,0-6.37,4.2-10.1,9.47-10.1C1122.14,654.73,1125.84,658.7,1125.84,664.51Zm-15.12.22c0,4.18,2.4,7.33,5.78,7.33s5.81-3.11,5.81-7.44c0-3.22-1.63-7.3-5.75-7.3S1110.72,661.11,1110.72,664.73Z" transform="translate(0 -5.15)"/><path d="M855.43,12.31,849,7.48l1.73-2.33,15.77,11.76-1.74,2.33-6.51-4.86-14.15,19-2.77-2.07Z" transform="translate(0 -5.15)"/><path d="M864,24.48l-3.39,10.8c-.54,1.8-1.09,3.36-1.69,4.88l.08.07c1.3-1,2.68-2,4.22-3l9.38-6.33,2.91,2.16-17.41,10.8-2.65-2,5.58-19.62Z" transform="translate(0 -5.15)"/><path d="M866.1,47.25a2.35,2.35,0,0,1,3.38-.6,2.49,2.49,0,1,1-3.38.6Z" transform="translate(0 -5.15)"/><path d="M881,55.7a11.92,11.92,0,0,0,3.88,5c2.81,2.1,5.56,1.86,7.17-.29,1.47-2,1.19-4-.88-7.22-2.56-3.82-3.35-7.26-1.13-10.24,2.47-3.31,7.06-3.72,11.21-.63a12.21,12.21,0,0,1,3.93,4.54l-2.45,1.68a10.13,10.13,0,0,0-3.26-4c-2.93-2.18-5.33-1.27-6.41.18-1.47,2-.91,3.92,1.19,7.24,2.55,4.12,3.08,7.21.75,10.33s-7,4.34-12,.58a13.67,13.67,0,0,1-4.41-5.45Z" transform="translate(0 -5.15)"/><path d="M902.93,77.26l1.19-2.11-.08-.06a7.13,7.13,0,0,1-6.38-1.21A5.44,5.44,0,0,1,896.27,66c2.76-3.7,7.55-3.28,13.42,1.16l.25-.32c.92-1.25,2.29-3.81-.85-6.12a9.28,9.28,0,0,0-4.83-1.83l.74-2.32a12,12,0,0,1,6,2.42c4.67,3.48,3.42,7.53,1.14,10.59l-4.26,5.71a29.17,29.17,0,0,0-2.5,3.83Zm5.38-8.12c-3-2.31-6.8-4.34-9-1.38a3,3,0,0,0,.61,4.59,4.79,4.79,0,0,0,5.64.22,3.6,3.6,0,0,0,.78-.78ZM909.13,54c1.48-2.11,3.26-2.7,4.61-1.69a5.09,5.09,0,0,1,1.44,2.16,4.1,4.1,0,0,0,.93,1.54c.49.36,1,.3,1.87-.7l1.48,1.11c-1.53,2.11-3.06,2.68-4.54,1.58a5.12,5.12,0,0,1-1.44-2.11,3.9,3.9,0,0,0-.94-1.57c-.5-.37-1.17,0-1.89.81Z" transform="translate(0 -5.15)"/><path d="M929.32,84.83c-4.22,5.66-10,5.21-13.67,2.47-4.14-3.09-5.09-8.5-1.47-13.35,3.81-5.11,9.41-5.6,13.63-2.45C932.21,74.78,932.79,80.18,929.32,84.83ZM917.07,76c-2.5,3.35-2.46,7.31.25,9.33s6.52,1,9.1-2.48c1.93-2.59,3.06-6.83-.24-9.29S919.23,73.08,917.07,76Z" transform="translate(0 -5.15)"/><path d="M954.05,82.25l2.76,2.06L946.19,98.55c-4.22,5.66-8.3,5.34-12,2.6a11.11,11.11,0,0,1-2.58-2.69l2.08-1.95a8.44,8.44,0,0,0,2,2.15c2.45,1.82,4.72,1.78,7.83-2.4Z" transform="translate(0 -5.15)"/><path d="M965.05,111.5c-4.22,5.66-10,5.2-13.67,2.44-4.14-3.08-5.07-8.5-1.46-13.33,3.81-5.12,9.4-5.62,13.64-2.46C968,101.42,968.54,106.83,965.05,111.5Zm-12.25-8.89c-2.5,3.35-2.46,7.32.26,9.34s6.51,1,9.08-2.47c1.93-2.59,3.08-6.85-.2-9.3S955,99.7,952.8,102.61Z" transform="translate(0 -5.15)"/><path d="M971.23,128.21l1.21-2.1-.09-.07a7.07,7.07,0,0,1-6.37-1.21,5.43,5.43,0,0,1-1.4-7.88c2.75-3.7,7.55-3.27,13.43,1.17l.24-.31c.94-1.27,2.29-3.8-.84-6.13a9.47,9.47,0,0,0-4.83-1.84l.74-2.3a11.79,11.79,0,0,1,6,2.39c4.68,3.49,3.44,7.52,1.15,10.59l-4.27,5.72a27.7,27.7,0,0,0-2.48,3.85Zm5.41-8.11c-3-2.33-6.83-4.36-9-1.39a3.07,3.07,0,0,0,.64,4.61,4.77,4.77,0,0,0,5.61.2,3.78,3.78,0,0,0,.82-.77Zm.81-15.13c1.47-2.1,3.24-2.7,4.6-1.69a4.92,4.92,0,0,1,1.44,2.16,4,4,0,0,0,.92,1.53c.51.37,1,.3,1.9-.7l1.46,1.08c-1.52,2.17-3,2.7-4.53,1.59a5.23,5.23,0,0,1-1.46-2.07,3.49,3.49,0,0,0-.93-1.58c-.51-.38-1.16,0-1.88.81Z" transform="translate(0 -5.15)"/><path d="M997.63,135.8c-4.22,5.66-10,5.2-13.68,2.44-4.13-3.09-5.06-8.5-1.46-13.33,3.82-5.12,9.41-5.63,13.64-2.47C1000.52,125.72,1001.11,131.12,997.63,135.8Zm-12.25-8.89c-2.5,3.35-2.46,7.31.26,9.34s6.5,1,9.07-2.48c1.93-2.59,3.09-6.84-.2-9.29S987.54,124,985.38,126.91Z" transform="translate(0 -5.15)"/><path d="M847.49,55.64,833.7,74.12c-1,1.36-2.13,2.93-2.82,4l-2.49-1.86,1.85-2.75-.06,0a7.06,7.06,0,0,1-7.45-.89c-3.7-2.75-4.21-8-.75-12.65,3.76-5.11,9.26-5.88,13-3.1a6.38,6.38,0,0,1,2.86,5.78l.07.05,6.81-9.13ZM834.74,66.93a5.87,5.87,0,0,0,.74-1.26,5.11,5.11,0,0,0-1.6-6.22c-2.88-2.14-6.47-.89-9,2.49-2.31,3.1-2.7,6.79.3,9a5.21,5.21,0,0,0,6.55-.28,6,6,0,0,0,1-1.1Z" transform="translate(0 -5.15)"/><path d="M842.24,75.53c-2.74,3.81-1.49,7.14,1.29,9.22a12.7,12.7,0,0,0,4.82,2.37l-1,2.34a15.38,15.38,0,0,1-5.79-2.85c-4.71-3.51-5.21-8.7-1.77-13.31s8.87-6.22,13.32-2.9c5,3.72,3,9.1.95,11.92A15.9,15.9,0,0,1,853,83.54Zm9.64,4.09c1.35-1.75,2.64-5.06-.48-7.39-2.82-2.1-6-.43-7.64,1.33Z" transform="translate(0 -5.15)"/><path d="M876.63,79.14l-15.89,21.3-2.75-2,15.89-21.3Z" transform="translate(0 -5.15)"/><path d="M873.61,93.66c1.35-1.8,2.47-3.37,3.44-4.86l2.43,1.81-2.15,3.08.13.09a5.73,5.73,0,0,1,6.73-.19,3.65,3.65,0,0,1,.72.68L883,96.9a5.44,5.44,0,0,0-.88-.81c-2-1.46-4.46-1-6.39.79a10,10,0,0,0-1.09,1.2l-6.08,8.16-2.75-2Z" transform="translate(0 -5.15)"/><path d="M884.41,118.09l1.22-2.09-.1-.07a7.11,7.11,0,0,1-6.37-1.22,5.42,5.42,0,0,1-1.4-7.87c2.75-3.7,7.55-3.27,13.43,1.17l.24-.32c.94-1.26,2.29-3.8-.84-6.13a9.42,9.42,0,0,0-4.83-1.83l.74-2.31a11.79,11.79,0,0,1,6,2.39c4.68,3.49,3.44,7.53,1.15,10.59l-4.26,5.72a26,26,0,0,0-2.48,3.86Zm5.41-8.11c-3-2.33-6.83-4.36-9.05-1.39a3.07,3.07,0,0,0,.65,4.61,4.72,4.72,0,0,0,5.6.2,3.35,3.35,0,0,0,.82-.77Z" transform="translate(0 -5.15)"/><path d="M902.49,130.69a12.64,12.64,0,0,1-5-2.39c-4.61-3.44-5.28-8.8-1.79-13.48s9.28-5.72,14.27-2a11.7,11.7,0,0,1,3.27,3.66L911,118.17a8,8,0,0,0-2.68-3.13c-3.51-2.62-7.33-1.44-9.71,1.75-2.64,3.54-2,7.42,1,9.68a10,10,0,0,0,4,1.79Z" transform="translate(0 -5.15)"/><path d="M912,127.56c-2.74,3.81-1.49,7.15,1.29,9.22a12.4,12.4,0,0,0,4.82,2.37l-1,2.35a15.64,15.64,0,0,1-5.8-2.85c-4.7-3.51-5.2-8.7-1.76-13.32s8.86-6.22,13.32-2.89c5,3.72,3,9.1.94,11.91a11.65,11.65,0,0,1-1.06,1.23Zm9.64,4.09c1.35-1.74,2.64-5.06-.49-7.39-2.81-2.1-6-.42-7.63,1.34Z" transform="translate(0 -5.15)"/><path d="M929.29,134.2c1.17-1.58,2.11-2.89,3-4.23l2.43,1.82L933,134.35l.09.07a6.56,6.56,0,0,1,6.9.77,5.62,5.62,0,0,1,2,6.29l.07.05a7.79,7.79,0,0,1,3.19-.72,6.53,6.53,0,0,1,4.18,1.44c2,1.51,4,5.08.07,10.39l-6.71,9-2.72-2,6.46-8.65c2.19-2.94,2.43-5.51.19-7.18a4.49,4.49,0,0,0-5.17.07,5.81,5.81,0,0,0-1.26,1.23l-7,9.44-2.72-2,6.83-9.16c1.82-2.44,2.06-5,0-6.59a5.18,5.18,0,0,0-6.75,1.41l-6.89,9.22-2.71-2Z" transform="translate(0 -5.15)"/><path d="M955.79,171.33l1.21-2.1-.09-.07a7.09,7.09,0,0,1-6.38-1.21,5.44,5.44,0,0,1-1.4-7.88c2.76-3.69,7.56-3.26,13.44,1.17l.24-.31c.94-1.27,2.29-3.8-.84-6.13a9.56,9.56,0,0,0-4.83-1.84l.73-2.3a11.82,11.82,0,0,1,6,2.39c4.68,3.49,3.43,7.53,1.15,10.59l-4.27,5.72a27.37,27.37,0,0,0-2.48,3.85Zm5.41-8.11c-3-2.33-6.84-4.36-9.05-1.39a3.07,3.07,0,0,0,.64,4.61,4.75,4.75,0,0,0,5.61.2,4,4,0,0,0,.82-.77Z" transform="translate(0 -5.15)"/><path d="M1603.57,255.11a37,37,0,0,1,3.49,5.63c1.64,3.26,2.1,5.71,1.51,7.86a6.63,6.63,0,0,1-3.56,4.14,7,7,0,0,1-8.3-1.42l-.09,0c.28,2.13-.88,4.09-3,5.9a44.53,44.53,0,0,0-5.58,5.11l-1.61-3.17a35.35,35.35,0,0,1,4.89-4.43c2.9-2.34,3.51-4.26,2.2-7.08l-1.46-2.9L1581.73,270l-1.54-3.06Zm-9.25,8.51,1.58,3.13c1.66,3.28,4.49,4.46,7.21,3.08,3.08-1.55,3.3-4.45,1.67-7.68a14.67,14.67,0,0,0-1.8-2.9Z" transform="translate(0 -5.15)"/><path d="M1601.52,297.6c-1.78.91-3.28,1.73-4.59,2.5l-1.38-2.74,2.7-1.57,0-.08a7.13,7.13,0,0,1-6-4c-1.35-2.66-1.47-6.61,4.49-9.62l10-5,1.55,3.08-9.4,4.74c-3.24,1.64-4.93,3.76-3.52,6.56a5,5,0,0,0,4.9,2.66,5.65,5.65,0,0,0,1.73-.52l10.42-5.26,1.56,3.08Z" transform="translate(0 -5.15)"/><path d="M1604.23,314.55l2-1.36,0-.09a7.09,7.09,0,0,1-5.17-3.93,5.44,5.44,0,0,1,2.26-7.66c4.12-2.08,8.23.43,11.5,7l.36-.19c1.39-.69,3.75-2.38,2-5.85a9.26,9.26,0,0,0-3.5-3.79l1.7-1.74a12,12,0,0,1,4.33,4.86c2.62,5.2-.29,8.26-3.7,10l-6.37,3.22a29.52,29.52,0,0,0-3.94,2.31Zm8.45-4.87c-1.62-3.38-4.16-6.91-7.45-5.25a3,3,0,0,0-1.5,4.38,4.77,4.77,0,0,0,4.94,2.71,4,4,0,0,0,1-.34Z" transform="translate(0 -5.15)"/><path d="M1622,347.16a24.11,24.11,0,0,1-5-6.63c-1.82-3.6-2.4-7-1.34-10.45a13.47,13.47,0,0,1,7.14-7.74c7.07-3.57,14.71-1.31,18.72,6.63a16.84,16.84,0,0,1,1.91,6.48l-2.89.5a13.44,13.44,0,0,0-1.63-5.75c-2.9-5.76-8.39-7.72-14.33-4.72s-7.74,8.43-4.94,14a11.13,11.13,0,0,0,2.69,3.75l7.06-3.57-2.42-4.8,2.45-1.23,3.94,7.81Z" transform="translate(0 -5.15)"/><path d="M1639.81,363.46c-6.3,3.19-11.27.21-13.33-3.88-2.33-4.62-.77-9.88,4.63-12.61,5.7-2.87,10.92-.81,13.29,3.9C1646.87,355.76,1645,360.85,1639.81,363.46Zm-7-13.39c-3.73,1.89-5.46,5.44-3.94,8.46s5.39,3.79,9.25,1.84c2.88-1.45,5.79-4.74,3.93-8.42S1636,348.44,1632.8,350.07Z" transform="translate(0 -5.15)"/><path d="M1645.53,365.49c1.78-.9,3.16-1.67,4.53-2.46l1.38,2.73-2.71,1.59,0,.08a7,7,0,0,1,6,4c1.18,2.34,1.62,6.71-4.23,9.66l-10.15,5.12-1.55-3.08,9.81-4.95c2.75-1.39,4.53-3.59,3.07-6.49a5,5,0,0,0-5.28-2.56,5.2,5.2,0,0,0-1.55.51l-10.25,5.18-1.55-3.08Z" transform="translate(0 -5.15)"/><path d="M1647.08,399.2l-2.43-.22a2.92,2.92,0,0,1-1.19,3.69c-2.07,1.05-3.71-.27-4.7-2.24a5.52,5.52,0,0,1-.6-2.69l1.77-.24a4.53,4.53,0,0,0,.45,2.17c.39.77,1,1.38,1.87.94s.79-1.75.09-3.48l3.78.17Zm2.64,3.91a13.11,13.11,0,0,1-3.45-4.38c-2.59-5.14-.8-10.26,4.4-12.89s10.88-1,13.69,4.57a11.25,11.25,0,0,1,1.27,4.76l-2.73.51a8.43,8.43,0,0,0-1-4c-2-3.89-5.94-4.55-9.47-2.75-3.94,2-5.09,5.75-3.38,9.14a10.1,10.1,0,0,0,2.73,3.37Z" transform="translate(0 -5.15)"/><path d="M1655.71,416.52l2-1.36,0-.09a7.1,7.1,0,0,1-5.17-3.92,5.45,5.45,0,0,1,2.26-7.67c4.13-2.08,8.23.43,11.5,7l.37-.18c1.38-.7,3.74-2.38,2-5.86a9.28,9.28,0,0,0-3.51-3.79l1.7-1.74a11.94,11.94,0,0,1,4.33,4.86c2.63,5.2-.29,8.26-3.7,10l-6.36,3.22a29.67,29.67,0,0,0-4,2.31Zm8.45-4.87c-1.62-3.38-4.16-6.91-7.45-5.25a3,3,0,0,0-1.5,4.38,4.76,4.76,0,0,0,4.94,2.71,3.7,3.7,0,0,0,1-.34Z" transform="translate(0 -5.15)"/><path d="M1684.49,411.44l1.56,3.07-25,12.62-1.56-3.08Z" transform="translate(0 -5.15)"/><path d="M1681.32,425l-7.85,8.15c-1.29,1.38-2.47,2.52-3.69,3.62l0,.09c1.61-.33,3.28-.55,5.12-.79l11.22-1.49,1.63,3.23-20.39,1.9-1.49-3,13.74-15.07Z" transform="translate(0 -5.15)"/><path d="M1680.9,446.64c-4.16,2.17-4.54,5.7-3,8.81a13,13,0,0,0,3.25,4.27l-1.92,1.65a15.23,15.23,0,0,1-4-5.13c-2.64-5.23-.75-10.13,4.36-12.71s10.71-1.59,13.22,3.37c2.8,5.56-1.33,9.46-4.46,11.05a9.28,9.28,0,0,1-1.51.62Zm6.79,7.93c2-.95,4.61-3.32,2.86-6.79-1.6-3.16-5.13-3.07-7.41-2.22Z" transform="translate(0 -5.15)"/><path d="M1683.9,464.52a9.46,9.46,0,0,0,.86,4.72c1.14,2.26,2.78,2.74,4.21,2s1.81-2,1.51-4.73c-.44-3.64.5-5.94,2.55-7,2.74-1.38,6.11-.29,8,3.37a9.28,9.28,0,0,1,1.06,4.7l-2.64.36a7.48,7.48,0,0,0-.76-4c-.92-1.83-2.48-2.29-3.76-1.64s-1.53,2-1.27,4.69c.39,3.49-.32,5.76-2.86,7.05-3,1.52-6.31.24-8.34-3.78a10.87,10.87,0,0,1-1.23-5.38Z" transform="translate(0 -5.15)"/><path d="M1701,504.23a17.07,17.07,0,0,1-4.3-5.7c-3.37-6.68-1.67-13.82,6.12-17.75,7.44-3.76,15-1.27,18.69,6.09a14.41,14.41,0,0,1,1.79,6.16l-2.87.5a12.63,12.63,0,0,0-1.43-5.26c-2.81-5.57-8.23-7.45-14.46-4.31-5.8,2.93-7.82,8.14-4.92,13.89a13.94,13.94,0,0,0,3.51,4.53Z" transform="translate(0 -5.15)"/><path d="M1706.72,517.54l2-1.35,0-.1a7.08,7.08,0,0,1-5.16-3.92,5.44,5.44,0,0,1,2.26-7.67c4.12-2.08,8.23.43,11.5,7l.36-.18c1.38-.7,3.75-2.38,2-5.86a9.28,9.28,0,0,0-3.51-3.79l1.71-1.74a12,12,0,0,1,4.32,4.86c2.63,5.2-.29,8.27-3.7,10l-6.36,3.21a30.64,30.64,0,0,0-3.94,2.31Zm8.44-4.87c-1.62-3.38-4.15-6.91-7.44-5.25a3.06,3.06,0,0,0-1.51,4.39,4.76,4.76,0,0,0,4.94,2.7,3.24,3.24,0,0,0,1-.34Z" transform="translate(0 -5.15)"/><path d="M1713.45,523a9.32,9.32,0,0,0,.86,4.71c1.14,2.26,2.78,2.75,4.2,2s1.81-2,1.52-4.73c-.44-3.64.5-5.94,2.54-7,2.74-1.39,6.11-.29,8,3.37a9.25,9.25,0,0,1,1.06,4.69l-2.64.37a7.53,7.53,0,0,0-.76-4c-.92-1.82-2.48-2.29-3.76-1.64s-1.53,2-1.27,4.7c.39,3.48-.32,5.75-2.86,7-3,1.53-6.31.25-8.34-3.77a10.89,10.89,0,0,1-1.23-5.38Z" transform="translate(0 -5.15)"/><path d="M1741.34,531.65l-4.9,2.48,2.25,4.44-2.35,1.19-2.24-4.45-9.17,4.63c-2.12,1.07-3,2.29-2.14,4a6.83,6.83,0,0,0,1.13,1.68l-2.28,1.33a8.78,8.78,0,0,1-1.82-2.55,4.87,4.87,0,0,1-.38-4c.51-1.32,1.84-2.43,3.84-3.44l9.29-4.69-1.33-2.64,2.34-1.18,1.33,2.64L1739,529Z" transform="translate(0 -5.15)"/><path d="M1732.15,548.16c-4.15,2.17-4.54,5.7-3,8.8a12.75,12.75,0,0,0,3.25,4.27l-1.92,1.66a15.44,15.44,0,0,1-4-5.13c-2.64-5.23-.75-10.13,4.36-12.71s10.72-1.6,13.22,3.37c2.81,5.55-1.33,9.46-4.46,11a8.35,8.35,0,0,1-1.51.63Zm6.8,7.93c2-1,4.6-3.33,2.85-6.8-1.59-3.16-5.13-3.06-7.41-2.22Z" transform="translate(0 -5.15)"/><path d="M1757.21,555.46l1.55,3.07-25,12.62-1.55-3.08Z" transform="translate(0 -5.15)"/><path d="M1741.18,585.81l2-1.36,0-.09a7.11,7.11,0,0,1-5.17-3.93,5.44,5.44,0,0,1,2.26-7.66c4.12-2.08,8.23.43,11.5,7l.36-.18c1.39-.7,3.75-2.38,2-5.85a9.29,9.29,0,0,0-3.5-3.8l1.7-1.74a12,12,0,0,1,4.33,4.87c2.62,5.2-.29,8.26-3.7,10l-6.37,3.21a30.63,30.63,0,0,0-3.94,2.32Zm8.45-4.87c-1.62-3.39-4.16-6.92-7.45-5.25a3,3,0,0,0-1.5,4.38,4.77,4.77,0,0,0,4.94,2.71,3.71,3.71,0,0,0,1.05-.35Zm7.48-13.18c2.26-1.22,4.12-1,4.88.55a5.4,5.4,0,0,1,.33,2.58,3.91,3.91,0,0,0,.14,1.78c.28.55.77.73,2,.22l.83,1.64c-2.31,1.22-3.93,1.05-4.76-.6a5,5,0,0,1-.35-2.53,3.83,3.83,0,0,0-.15-1.83c-.28-.55-1-.54-2-.12Z" transform="translate(0 -5.15)"/><path d="M1761.43,604.36c-6.3,3.18-11.27.2-13.33-3.89-2.33-4.62-.77-9.88,4.63-12.61,5.7-2.87,10.92-.81,13.29,3.9C1768.49,596.65,1766.61,601.74,1761.43,604.36Zm-7-13.4c-3.73,1.89-5.46,5.44-3.94,8.46s5.39,3.79,9.25,1.84c2.88-1.45,5.79-4.74,3.93-8.42S1757.65,589.34,1754.42,591Z" transform="translate(0 -5.15)"/></g></g></svg>