<svg xmlns="http://www.w3.org/2000/svg" viewBox="0 0 1817.84 779.95"><defs><style>.cls-1{fill:#cfdcfa;stroke:#000;stroke-miterlimit:10;stroke-width:4px;}</style></defs><g id="Layer_2" data-name="Layer 2"><g id="Novo_Mapa" data-name="Novo Mapa"><path class="cls-1" d="M26.13,117,121,396a24.18,24.18,0,0,0,26.33,16.15L285.28,392.3A129.3,129.3,0,0,1,301.72,391l461.47-6.63A9.86,9.86,0,0,0,772,370.3l-37.31-78.64C700.26,227.62,658.76,166,658.76,166,631.48,128,592.34,87.68,433.43,93.61c-130.21,4.86-343,9.3-398.15,10.41A9.85,9.85,0,0,0,26.13,117Z"/><path class="cls-1" d="M274.06,744.25a47.45,47.45,0,0,1-45.49-32.06L169,538.33c-16.6-41.51,54.55-94.87,192.12-97.25s277.51-5.92,277.51-5.92l259.07-6.69a97.21,97.21,0,0,1,91.56,58.18l98.12,224.06a16.85,16.85,0,0,1-15.23,23.61Z"/><path class="cls-1" d="M1815.84,594s-49.43,2.45-113.47,15.5-179.08,36.76-179.08,36.76-79.45,13-109.1,43.88l-32.35,28.54a29.76,29.76,0,0,1-18.6,7.43l-189,7.08a32.45,32.45,0,0,1-31-19.55L1036.65,467a46.05,46.05,0,0,1,29.87-62.62l94-26.28c47.39-13.67,155.7-39.25,203.32-50.36A22.19,22.19,0,0,0,1380,299.55h0a22.19,22.19,0,0,0-26.24-15.08c-45.89,10.7-157.94,37.1-206.36,51.07L1015.72,372.3s-22.53,5.93-45.07,5.93l-58.41,1.32a120.6,120.6,0,0,1-112.13-69.84L779.76,265.8c-38.23-71.19-84.37-139.74-84.37-139.74-30.32-42.19-73.83-87-250.48-80.42C300.15,51,63.57,56,2.31,57.21L2,20.85A18.69,18.69,0,0,1,20.69,2h1774a21.13,21.13,0,0,1,21.13,21.13Z"/><path class="cls-1" d="M1806.93,658.2a9.23,9.23,0,0,0-10.35-9.56c-17.26,2.12-38.07,5.27-61,9.94-64,13-179.07,36.76-179.07,36.76a380.73,380.73,0,0,0-38.22,8.85c-10.16,2.9-8,17.89,2.57,17.81l274.7-2.16a9.22,9.22,0,0,0,9.16-8.85Z"/><path d="M437.77,61a33.32,33.32,0,0,1,6-.72c3.32-.1,5.53.46,7.09,1.78a6.06,6.06,0,0,1,2.05,4.54A6.42,6.42,0,0,1,448.54,73v.09c1.87.59,3,2.3,3.71,4.8a39.21,39.21,0,0,0,2.08,6.59l-3.25.1a31,31,0,0,1-1.78-5.75c-.83-3.3-2.18-4.54-5-4.55l-3,.1.33,10.5-3.13.1ZM441.25,72l3.2-.11c3.36-.1,5.42-2,5.33-4.78-.1-3.15-2.41-4.44-5.72-4.34a14.11,14.11,0,0,0-3.09.37Z"/><path d="M472.12,79.47c0,1.83.1,3.39.19,4.77l-2.79,0-.2-2.84h-.09a6.5,6.5,0,0,1-5.73,3.3c-2.72,0-6-1.47-6.07-7.57L457.33,67l3.15,0,.1,9.62c0,3.32,1.08,5.56,3.94,5.54a4.6,4.6,0,0,0,4.16-2.95,5,5,0,0,0,.28-1.63l-.11-10.66,3.15,0Z"/><path d="M487,84.43l-.25-2.21h-.09a6.47,6.47,0,0,1-5.37,2.51A5,5,0,0,1,476,79.65c.06-4.22,3.84-6.47,10.56-6.32V73c0-1.41-.33-4-3.9-4.08a8.45,8.45,0,0,0-4.55,1.23L477.45,68a10.9,10.9,0,0,1,5.77-1.43c5.32.09,6.56,3.74,6.5,7.23l-.1,6.51a27.18,27.18,0,0,0,.19,4.17Zm-.35-8.9c-3.42-.13-7.36.42-7.41,3.79a2.78,2.78,0,0,0,2.9,3.08,4.34,4.34,0,0,0,4.29-2.85,3.27,3.27,0,0,0,.17-1Z"/><path d="M508.42,61l3.15.17-.89,16.2c-.36,6.44-3.62,8.25-7.79,8a10.23,10.23,0,0,1-3.33-.75l.6-2.53a7.55,7.55,0,0,0,2.63.61c2.79.15,4.49-1,4.75-5.78Z"/><path d="M531.69,78.27c-.58,6.42-5.28,8.83-9.45,8.46-4.7-.42-8-4.18-7.54-9.68.52-5.8,4.64-8.86,9.43-8.43C529.12,69.07,532.16,73,531.69,78.27Zm-13.77-1c-.34,3.8,1.58,6.86,4.66,7.14s5.54-2.36,5.89-6.29c.26-2.94-.89-6.78-4.63-7.11S518.21,74,517.92,77.24Z"/><path d="M534.59,84.33a8.65,8.65,0,0,0,4,1.77c2.3.3,3.51-.69,3.69-2.13s-.61-2.42-2.79-3.58c-3-1.54-4.23-3.43-4-5.49.36-2.78,2.92-4.77,6.63-4.29a8.42,8.42,0,0,1,4.09,1.62l-1.08,2.18a6.75,6.75,0,0,0-3.41-1.48c-1.85-.24-3,.69-3.16,2s.74,2.19,2.89,3.37c2.83,1.49,4.18,3.19,3.85,5.77-.4,3.06-3.05,4.89-7.13,4.36a9.94,9.94,0,0,1-4.7-1.83Z"/><path d="M551.65,81.76c-.68,4.22,1.68,6.43,4.81,7a11.75,11.75,0,0,0,4.91,0l.15,2.31a14,14,0,0,1-5.91.07c-5.27-.93-7.82-5-6.9-10.15s4.7-8.71,9.71-7.82c5.59,1,6.18,6.16,5.62,9.32a7.84,7.84,0,0,1-.37,1.44Zm9.53-.63c.38-1.95.09-5.18-3.41-5.81-3.18-.56-5,2.07-5.68,4.2Zm3.27-14.19-5.23,4.3L557,70.85l4-4.52Z"/><path d="M579.65,71.32a28.72,28.72,0,0,1,5.65,1c3,.85,4.82,1.9,5.94,3.49a5.17,5.17,0,0,1,.8,4.68,5.75,5.75,0,0,1-5.39,4l0,.09a6.22,6.22,0,0,1,3.18,7.21,6.37,6.37,0,0,1-3.3,4.1c-2,1.06-4.85,1-8.68-.07a42.05,42.05,0,0,1-4.62-1.57Zm-2.79,21.59a14.52,14.52,0,0,0,2.5.87c3.13.87,6.33.53,7.28-2.87.89-3.17-1.49-5.27-4.78-6.2L579.35,84ZM580,81.74l2.76.77c3.16.88,5.5-.27,6.14-2.54.75-2.71-1-4.38-4-5.23a12.06,12.06,0,0,0-2.74-.54Z"/><path d="M595.47,88.5c.7-1.94,1.24-3.6,1.71-5.15l2.61.94-1,3.25.11,0a5.27,5.27,0,0,1,5.85-1.94,4,4,0,0,1,.8.38l-1,2.8a5.66,5.66,0,0,0-1-.45c-2.1-.75-4.16.29-5.36,2.38a8.76,8.76,0,0,0-.63,1.34l-3.15,8.75-3-1.07Z"/><path d="M606.68,96.85c-1.72,3.92,0,6.65,2.92,8a11.6,11.6,0,0,0,4.76,1.18l-.43,2.28a14.11,14.11,0,0,1-5.74-1.39c-4.87-2.22-6.33-6.79-4.17-11.55s6.72-7.27,11.35-5.16c5.17,2.35,4.46,7.5,3.13,10.41a6.92,6.92,0,0,1-.71,1.31Zm9.38,1.76c.85-1.8,1.37-5-1.86-6.47-2.94-1.34-5.4.75-6.55,2.65Z"/><path d="M627.41,96.65l-2.11,10.12c-.33,1.69-.68,3.15-1.09,4.59l.08,0c1.08-1,2.26-2,3.56-3.1l7.95-6.61,2.84,1.7L623.8,114.79l-2.59-1.55L624.5,94.9Z"/><path d="M637.58,114.19c-2.6,3.4-1.56,6.47.94,8.43a11.73,11.73,0,0,0,4.34,2.29l-1,2.11a14,14,0,0,1-5.25-2.73c-4.2-3.31-4.52-8.1-1.29-12.2s8.26-5.46,12.25-2.31c4.46,3.52,2.54,8.35.56,10.87a8.56,8.56,0,0,1-1,1.1Zm8.68,4c1.26-1.55,2.54-4.54-.25-6.73-2.54-2-5.43-.56-7,1Z"/><path d="M667.81,119.84a28.76,28.76,0,0,1,4.16,4C674,126.17,675,128,675,130a5.17,5.17,0,0,1-1.9,4.36,5.75,5.75,0,0,1-6.7.41l-.07.06a6.22,6.22,0,0,1-1.29,7.78,6.39,6.39,0,0,1-5,1.62c-2.28-.23-4.62-1.82-7.23-4.81a41.31,41.31,0,0,1-3-3.84Zm-14.16,16.53a14.83,14.83,0,0,0,1.62,2.1c2.14,2.45,5,3.91,7.66,1.59,2.49-2.17,1.65-5.23-.6-7.81l-1.72-2Zm8.74-7.63,1.89,2.16c2.16,2.47,4.75,2.78,6.52,1.23,2.12-1.85,1.57-4.2-.52-6.59a12.05,12.05,0,0,0-2-2Z"/><path d="M671.6,143c1.65-1.23,3-2.32,4.27-3.36l1.66,2.23L674.86,144l.07.09a5.26,5.26,0,0,1,6,1.61,3.16,3.16,0,0,1,.45.76L679,148.22a5.15,5.15,0,0,0-.57-.92c-1.34-1.79-3.63-2.05-5.78-1a8.37,8.37,0,0,0-1.27.78l-7.46,5.56L662,150.13Z"/><path d="M676.26,156.11c-3.55,2.41-3.53,5.65-1.78,8.3a11.72,11.72,0,0,0,3.39,3.55l-1.57,1.69a14,14,0,0,1-4.12-4.24c-2.94-4.47-1.73-9.12,2.64-12s9.56-2.56,12.35,1.69c3.12,4.74-.23,8.72-2.91,10.48a7.14,7.14,0,0,1-1.3.73Zm7,6.5c1.69-1.07,3.84-3.5,1.89-6.47-1.78-2.7-5-2.24-7-1.24Z"/><path d="M699.23,165.2,695,167.92l2.46,3.82-2,1.3L693,169.21l-7.89,5.08c-1.82,1.18-2.52,2.37-1.56,3.85a6,6,0,0,0,1.19,1.42l-2,1.43a8.3,8.3,0,0,1-1.9-2.15,4.48,4.48,0,0,1-.72-3.6c.34-1.25,1.44-2.38,3.16-3.49l8-5.14-1.46-2.27,2-1.3,1.46,2.27,3.52-2.27Z"/><path d="M689.89,192.27l1.71-1.41-.06-.08a6.47,6.47,0,0,1-5-3.11,5,5,0,0,1,1.38-7.17c3.57-2.25,7.52-.33,11.08,5.38l.31-.2c1.2-.75,3.2-2.49,1.28-5.49a8.45,8.45,0,0,0-3.52-3.14l1.39-1.74a10.93,10.93,0,0,1,4.36,4c2.85,4.5.47,7.54-2.48,9.41l-5.51,3.48a26.91,26.91,0,0,0-3.38,2.45Zm7.25-5.16c-1.77-2.94-4.39-5.92-7.24-4.13a2.79,2.79,0,0,0-1,4.12,4.36,4.36,0,0,0,4.73,2,3.16,3.16,0,0,0,.93-.41Z"/><path d="M696.46,196.68a8.59,8.59,0,0,0,1.16,4.22c1.22,2,2.75,2.27,4,1.5s1.49-2,1-4.43c-.69-3.27,0-5.44,1.76-6.53,2.38-1.48,5.54-.76,7.51,2.42a8.53,8.53,0,0,1,1.34,4.19l-2.37.55a7,7,0,0,0-1-3.58c-1-1.58-2.44-1.88-3.55-1.19s-1.23,2-.78,4.38c.63,3.14.17,5.26-2,6.63-2.62,1.63-5.72.73-7.89-2.76a10.06,10.06,0,0,1-1.55-4.8Z"/><path d="M435.35,404.11a33,33,0,0,1,6-.64c3.33-.07,5.53.52,7.07,1.85a6.09,6.09,0,0,1,2,4.57,6.42,6.42,0,0,1-4.45,6.28v.09c1.87.61,3,2.33,3.66,4.84a41.5,41.5,0,0,0,2,6.62l-3.25.06a33,33,0,0,1-1.71-5.77c-.79-3.31-2.13-4.57-5-4.61l-3,.06L439,428l-3.13.06Zm3.35,11,3.2-.06c3.36-.07,5.44-1.94,5.39-4.72-.07-3.15-2.37-4.48-5.67-4.41a13.54,13.54,0,0,0-3.1.34Z"/><path d="M469.52,422.58c0,1.83.13,3.39.24,4.76l-2.79.06-.23-2.84h-.09a6.47,6.47,0,0,1-5.69,3.36c-2.73.06-6-1.4-6.16-7.5l-.21-10.18,3.15-.06.2,9.61c.07,3.32,1.15,5.56,4,5.5a4.62,4.62,0,0,0,4.13-3,5,5,0,0,0,.25-1.63L466.11,410l3.15-.06Z"/><path d="M484.53,427l-.33-2.19h-.09a6.5,6.5,0,0,1-5.27,2.71,5,5,0,0,1-5.43-4.89c-.08-4.21,3.6-6.61,10.33-6.7v-.37c0-1.42-.48-4-4.05-3.94a8.55,8.55,0,0,0-4.51,1.4l-.76-2.09a11,11,0,0,1,5.72-1.65c5.32-.11,6.69,3.5,6.77,7l.13,6.52a27.17,27.17,0,0,0,.35,4.16Zm-.68-8.88c-3.43,0-7.34.7-7.27,4.06a2.79,2.79,0,0,0,3,3,4.36,4.36,0,0,0,4.18-3,3,3,0,0,0,.13-1Z"/><path d="M499.43,402.76a29,29,0,0,1,5.71-.64c3.14-.07,5.17.41,6.7,1.61A5.17,5.17,0,0,1,514,408a5.72,5.72,0,0,1-4,5.4v.1a6.22,6.22,0,0,1,5.14,6,6.36,6.36,0,0,1-2,4.88c-1.63,1.6-4.35,2.37-8.32,2.46a40.88,40.88,0,0,1-4.88-.17Zm3.35,9.87,2.87-.06c3.28-.07,5.18-1.86,5.13-4.21-.06-2.81-2.22-3.91-5.39-3.84a12.37,12.37,0,0,0-2.78.29Zm.25,11.61a15.53,15.53,0,0,0,2.65.1c3.25-.07,6.21-1.33,6.14-4.86-.08-3.3-3-4.62-6.38-4.55l-2.61.06Z"/><path d="M535.06,417c.14,6.44-4.27,9.36-8.45,9.46-4.72.1-8.45-3.26-8.57-8.78-.13-5.83,3.62-9.32,8.44-9.43C531.48,408.18,534.94,411.73,535.06,417Zm-13.8.51c.09,3.82,2.34,6.64,5.43,6.57s5.24-2.95,5.15-6.9c-.07-3-1.63-6.64-5.4-6.55S521.19,414.25,521.26,417.55Z"/><path d="M539,413.83c0-2.06-.14-3.81-.27-5.42l2.78-.06.2,3.41h.11a5.26,5.26,0,0,1,4.76-3.92,3.55,3.55,0,0,1,.88.06l.07,3a5,5,0,0,0-1.08-.07c-2.23.06-3.77,1.77-4.14,4.15a7.83,7.83,0,0,0-.1,1.48l.22,9.3-3.15.07Z"/><path d="M551,425.55c.05-1.2.07-2.95,0-4.5l-.5-21.06,3.15-.08.26,10.95h.07a6.42,6.42,0,0,1,5.86-3.32c4.32-.1,7.45,3.42,7.55,8.69.15,6.24-3.73,9.43-7.62,9.52a6.26,6.26,0,0,1-5.9-3.12h-.09l-.09,2.86Zm3.12-7.06a5.4,5.4,0,0,0,.16,1.15,4.89,4.89,0,0,0,4.84,3.59c3.33-.08,5.22-2.82,5.13-6.81-.08-3.5-2-6.46-5.35-6.38a5.05,5.05,0,0,0-4.7,4,5.16,5.16,0,0,0-.15,1.32Z"/><path d="M581.3,424.84l-.33-2.19h-.09a6.49,6.49,0,0,1-5.27,2.72,5,5,0,0,1-5.43-4.87c-.1-4.22,3.58-6.62,10.31-6.73v-.37c0-1.42-.5-4-4.06-3.93a8.53,8.53,0,0,0-4.51,1.41l-.77-2.09a11,11,0,0,1,5.71-1.66c5.33-.13,6.71,3.48,6.79,7l.16,6.51a25.79,25.79,0,0,0,.36,4.16Zm-.7-8.88c-3.43,0-7.34.72-7.26,4.08a2.79,2.79,0,0,0,3,3,4.34,4.34,0,0,0,4.17-3,3,3,0,0,0,.13-1Z"/><path d="M603.6,406.89c-.06,1.23-.08,2.64,0,4.76l.24,10.11c.1,4-.66,6.47-2.29,8a9.35,9.35,0,0,1-6.29,2.24,11.23,11.23,0,0,1-5.85-1.29l.74-2.45a9.85,9.85,0,0,0,5.15,1.27c3.24-.08,5.57-1.83,5.46-6.24l0-1.94h-.08a6.17,6.17,0,0,1-5.46,3.07c-4.34.1-7.51-3.51-7.63-8.34-.14-5.9,3.62-9.32,7.64-9.42a5.79,5.79,0,0,1,5.5,2.87h.08l.07-2.61Zm-3.13,6.92a4.75,4.75,0,0,0-.21-1.41,4.57,4.57,0,0,0-4.53-3.26c-3,.07-5.12,2.68-5,6.72.08,3.41,1.91,6.23,5.3,6.15a4.64,4.64,0,0,0,4.33-3.37,5.94,5.94,0,0,0,.21-1.69Z"/><path d="M618.76,423.93l-.33-2.19h-.1a6.45,6.45,0,0,1-5.26,2.73,5,5,0,0,1-5.44-4.87c-.1-4.21,3.58-6.62,10.3-6.74v-.37c0-1.41-.49-4-4.06-3.92a8.5,8.5,0,0,0-4.5,1.41l-.77-2.08a10.87,10.87,0,0,1,5.71-1.67c5.32-.13,6.7,3.47,6.79,7l.16,6.51a26.91,26.91,0,0,0,.37,4.16Zm-.71-8.87c-3.43,0-7.34.72-7.25,4.09a2.78,2.78,0,0,0,3,3,4.35,4.35,0,0,0,4.17-3,3.18,3.18,0,0,0,.12-1Z"/><path d="M629.54,401.22l.13,5,4.55-.11.06,2.39-4.55.12L630,418c.06,2.17.72,3.38,2.49,3.34a6.13,6.13,0,0,0,1.82-.28l.21,2.4a8,8,0,0,1-2.82.51,4.43,4.43,0,0,1-3.45-1.25c-.9-.94-1.29-2.47-1.34-4.51l-.25-9.51-2.7.07-.06-2.4,2.7-.07-.11-4.19Z"/><path d="M653.54,414.16c.16,6.45-4.24,9.38-8.42,9.49-4.72.12-8.46-3.22-8.6-8.75-.15-5.83,3.59-9.33,8.4-9.46C649.93,405.31,653.4,408.86,653.54,414.16Zm-13.8.56c.1,3.82,2.36,6.64,5.45,6.56s5.23-3,5.13-6.93c-.08-2.94-1.66-6.63-5.42-6.53S639.65,411.42,639.74,414.72Z"/><path d="M1077.8,363.56a32.73,32.73,0,0,1,5.66-2.13c3.21-.89,5.49-.87,7.31,0a6.06,6.06,0,0,1,3.07,3.93,6.41,6.41,0,0,1-2.74,7.19l0,.08c1.95.13,3.5,1.51,4.75,3.78a40.53,40.53,0,0,0,3.59,5.91l-3.13.87a31.3,31.3,0,0,1-3.1-5.16c-1.59-3-3.2-3.9-6-3.22l-2.85.79,2.83,10.13-3,.84Zm6,9.79,3.08-.86c3.23-.9,4.78-3.23,4-5.91-.85-3-3.41-3.74-6.59-2.86a14.11,14.11,0,0,0-2.92,1.1Z"/><path d="M1115.53,372.91c.49,1.75,1,3.24,1.42,4.55l-2.69.75-.93-2.7-.09,0a6.49,6.49,0,0,1-4.67,4.67c-2.63.73-6.19.14-7.83-5.73l-2.74-9.8,3-.85,2.59,9.26c.9,3.2,2.5,5.09,5.25,4.32a4.61,4.61,0,0,0,3.25-3.92,4.55,4.55,0,0,0-.16-1.64l-2.87-10.27,3-.85Z"/><path d="M1131.19,373.48l-.86-2.05-.1,0a6.47,6.47,0,0,1-4.43,3.93,5,5,0,0,1-6.46-3.38c-1.14-4.06,1.84-7.3,8.33-9.06l-.1-.36c-.38-1.36-1.47-3.78-4.9-2.8a8.55,8.55,0,0,0-4,2.47l-1.26-1.83a10.9,10.9,0,0,1,5.13-3c5.12-1.43,7.35,1.72,8.29,5.08l1.75,6.28a27.26,27.26,0,0,0,1.38,3.94Zm-2.87-8.43c-3.32.85-6.93,2.5-6,5.74a2.79,2.79,0,0,0,3.67,2.12,4.35,4.35,0,0,0,3.3-4,3.19,3.19,0,0,0-.13-1Z"/><path d="M1139.6,346.27a29.4,29.4,0,0,1,5.38-2c3-.85,5.1-.88,6.88-.1a5.15,5.15,0,0,1,3.11,3.59,5.75,5.75,0,0,1-2.52,6.23l0,.09a6.21,6.21,0,0,1,6.46,4.51,6.33,6.33,0,0,1-.7,5.21c-1.18,2-3.62,3.38-7.45,4.45a41.36,41.36,0,0,1-4.76,1.05Zm5.7,8.73,2.76-.77c3.16-.88,4.56-3.09,3.93-5.35-.76-2.71-3.12-3.24-6.17-2.38a12.71,12.71,0,0,0-2.63,1Zm3.12,11.18a14.21,14.21,0,0,0,2.58-.56c3.14-.87,5.7-2.83,4.75-6.23-.89-3.17-4-3.73-7.31-2.82l-2.51.7Z"/><path d="M1177.76,351.34c1.68,6.23-1.91,10.12-6,11.21-4.56,1.23-9-1.14-10.42-6.48-1.51-5.63,1.3-9.91,5.95-11.17C1172.17,343.6,1176.37,346.22,1177.76,351.34Zm-13.28,3.8c1,3.68,3.86,5.89,6.84,5.08s4.38-4.12,3.35-7.93c-.76-2.85-3.17-6.06-6.8-5.07S1163.62,352,1164.48,355.14Z"/><path d="M1180.88,347.32c-.52-2-1-3.67-1.51-5.21l2.68-.7,1,3.27.11,0a5.29,5.29,0,0,1,3.73-4.91,3.53,3.53,0,0,1,.87-.13l.76,2.88a4.68,4.68,0,0,0-1.07.18c-2.16.56-3.26,2.59-3.08,5a8.93,8.93,0,0,0,.25,1.46l2.35,9-3,.8Z"/><path d="M1195.27,356c-.21-1.18-.59-2.89-1-4.39l-5.2-20.41,3.05-.78,2.7,10.6.07,0a6.42,6.42,0,0,1,5-4.55c4.19-1.07,8,1.66,9.31,6.77,1.55,6.05-1.52,10-5.28,11a6.29,6.29,0,0,1-6.46-1.71l-.08,0,.55,2.81Zm1.47-7.58a4.82,4.82,0,0,0,.41,1.08,4.87,4.87,0,0,0,5.51,2.42c3.23-.82,4.46-3.92,3.47-7.79-.86-3.4-3.35-5.85-6.64-5a5.06,5.06,0,0,0-3.68,4.95,5.34,5.34,0,0,0,.15,1.32Z"/><path d="M1224.61,348.54l-.81-2.06-.09,0a6.47,6.47,0,0,1-4.54,3.81,5,5,0,0,1-6.37-3.56c-1-4.09,2-7.24,8.58-8.83l-.09-.36c-.34-1.37-1.36-3.81-4.82-2.93a8.38,8.38,0,0,0-4.08,2.36l-1.21-1.87a11,11,0,0,1,5.2-2.88c5.17-1.29,7.31,1.93,8.15,5.31l1.58,6.32a26.7,26.7,0,0,0,1.27,4ZM1222,340c-3.34.76-7,2.31-6.18,5.57a2.8,2.8,0,0,0,3.61,2.23,4.36,4.36,0,0,0,3.4-3.86,3.22,3.22,0,0,0-.09-1Z"/><path d="M1242.45,326.19c.21,1.21.49,2.6,1,4.66l2.42,9.82c1,3.91.75,6.45-.5,8.33a9.42,9.42,0,0,1-5.66,3.55,11.24,11.24,0,0,1-6,0l.19-2.55a9.88,9.88,0,0,0,5.31.12c3.14-.77,5-3,4-7.27l-.46-1.88-.07,0a6.18,6.18,0,0,1-4.67,4.17c-4.22,1-8.09-1.81-9.25-6.49-1.41-5.73,1.52-9.88,5.42-10.85a5.8,5.8,0,0,1,6,1.62l.07,0-.5-2.56Zm-1.55,7.44a5.42,5.42,0,0,0-.51-1.34,4.58,4.58,0,0,0-5.13-2.2c-2.93.72-4.42,3.72-3.45,7.65.81,3.31,3.21,5.67,6.5,4.85a4.64,4.64,0,0,0,3.5-4.22,5.68,5.68,0,0,0-.16-1.69Z"/><path d="M1261,339.6l-.79-2.07-.09,0a6.5,6.5,0,0,1-4.56,3.78,5,5,0,0,1-6.35-3.6c-1-4.1,2.09-7.23,8.63-8.77l-.09-.36c-.33-1.38-1.34-3.83-4.8-3a8.57,8.57,0,0,0-4.1,2.33l-1.19-1.87a10.87,10.87,0,0,1,5.22-2.84c5.17-1.26,7.29,2,8.11,5.35l1.54,6.33a28.63,28.63,0,0,0,1.24,4Zm-2.58-8.52c-3.35.74-7,2.27-6.22,5.54a2.79,2.79,0,0,0,3.59,2.24,4.36,4.36,0,0,0,3.44-3.83,3.55,3.55,0,0,0-.09-1Z"/><path d="M1266.71,315.14l1.18,4.87,4.42-1.07.57,2.34-4.43,1.06,2.21,9.12c.51,2.11,1.4,3.15,3.12,2.74a6.22,6.22,0,0,0,1.73-.65l.71,2.3a8.07,8.07,0,0,1-2.65,1.09,4.45,4.45,0,0,1-3.64-.5c-1.07-.73-1.78-2.14-2.26-4.13l-2.23-9.24-2.62.63-.56-2.33,2.62-.63-1-4.08Z"/><path d="M1292.9,322.78c1.51,6.27-2.19,10.05-6.25,11-4.6,1.1-9-1.39-10.23-6.77-1.36-5.66,1.57-9.87,6.25-11C1287.54,314.88,1291.67,317.62,1292.9,322.78Zm-13.37,3.42c.89,3.71,3.68,6,6.69,5.27s4.5-4,3.57-7.83c-.68-2.87-3-6.14-6.65-5.27S1278.76,323,1279.53,326.2Z"/><path d="M1011.8,451.38a33.22,33.22,0,0,1,3.75,4.74c1.84,2.78,2.51,5,2.21,7a6.1,6.1,0,0,1-2.8,4.13,6.43,6.43,0,0,1-7.68-.41l-.08,0c.48,1.91-.36,3.8-2.14,5.68a40.81,40.81,0,0,0-4.53,5.22L998.74,475a32.86,32.86,0,0,1,4-4.53c2.38-2.43,2.73-4.23,1.25-6.65l-1.63-2.48-8.78,5.79-1.72-2.61Zm-7.49,8.7,1.76,2.67c1.85,2.8,4.54,3.56,6.86,2,2.63-1.73,2.52-4.38.71-7.14a14.23,14.23,0,0,0-1.94-2.44Z"/><path d="M1011.64,491.47c-1.67.74-3.08,1.42-4.31,2l-1.12-2.56,2.54-1.3,0-.08a6.52,6.52,0,0,1-5.28-4c-1.09-2.5-1-6.1,4.59-8.55l9.32-4.08,1.26,2.88-8.81,3.86c-3,1.33-4.69,3.18-3.55,5.8a4.62,4.62,0,0,0,4.35,2.67,4.81,4.81,0,0,0,1.6-.38l9.77-4.28,1.26,2.88Z"/><path d="M1013.26,507l1.9-1.14,0-.08a6.48,6.48,0,0,1-4.51-3.84,5,5,0,0,1,2.44-6.88c3.86-1.69,7.48.81,10.14,7l.33-.15c1.3-.57,3.54-2,2.09-5.24a8.53,8.53,0,0,0-3-3.64l1.64-1.5a11,11,0,0,1,3.7,4.65c2.13,4.88-.68,7.53-3.87,8.92l-6,2.62a26.62,26.62,0,0,0-3.71,1.91Zm7.94-4c-1.31-3.17-3.44-6.52-6.53-5.17a2.78,2.78,0,0,0-1.59,3.92,4.36,4.36,0,0,0,4.37,2.72,3.2,3.2,0,0,0,1-.26Z"/><path d="M1037.41,535.65c3-1.53,6.68-3.37,9.43-4.55l0-.09c-2.91.36-6.11.66-9.65.89l-12.5.79-.94-2.16,9-8.26c2.68-2.43,5.15-4.54,7.51-6.32l0-.08c-2.8,1.14-6.57,2.61-10,3.86l-9.8,3.59-1.19-2.73,22.9-8.18,1.61,3.66-9.1,8.5c-2.32,2.1-4.44,3.92-6.51,5.51l0,.09c2.5-.4,5.29-.7,8.51-.93l12.5-.74,1.6,3.67-21.62,11.11-1.23-2.83Z"/><path d="M1035,556.65l1.9-1.14,0-.08a6.49,6.49,0,0,1-4.52-3.84,5,5,0,0,1,2.45-6.87c3.86-1.7,7.48.8,10.13,7l.34-.15c1.3-.57,3.54-2,2.09-5.24a8.39,8.39,0,0,0-3-3.63l1.64-1.51a11.05,11.05,0,0,1,3.71,4.65c2.13,4.88-.68,7.53-3.88,8.92l-6,2.62a25.54,25.54,0,0,0-3.71,1.91Zm8-4c-1.31-3.17-3.45-6.52-6.53-5.17a2.78,2.78,0,0,0-1.59,3.92,4.36,4.36,0,0,0,4.37,2.72,3.14,3.14,0,0,0,1-.26Z"/><path d="M1049.05,558.89c1.88-.82,3.47-1.57,4.91-2.3l1.11,2.54-3.08,1.48,0,.1a5.3,5.3,0,0,1,5.44,2.91,3.34,3.34,0,0,1,.27.85l-2.73,1.19a4.86,4.86,0,0,0-.34-1c-.9-2-3.07-2.82-5.41-2.26a8.63,8.63,0,0,0-1.41.47l-8.52,3.73-1.26-2.88Z"/><path d="M1046,581.58l-2.2-.32a2.66,2.66,0,0,1-1.27,3.3c-1.94.85-3.37-.43-4.18-2.27a5.11,5.11,0,0,1-.4-2.49l1.62-.13a4.08,4.08,0,0,0,.3,2c.32.73.89,1.31,1.66,1s.81-1.56.26-3.17l3.43.35Zm2.21,3.69a12,12,0,0,1-2.92-4.17c-2.11-4.8-.21-9.39,4.66-11.52s10-.37,12.25,4.85a10.22,10.22,0,0,1,.92,4.4l-2.51.33a7.67,7.67,0,0,0-.72-3.73c-1.59-3.64-5.19-4.44-8.5-3-3.69,1.62-4.93,5-3.54,8.17a9.21,9.21,0,0,0,2.33,3.21Z"/><path d="M1053,597.8l1.9-1.14,0-.09a6.45,6.45,0,0,1-4.51-3.84,5,5,0,0,1,2.44-6.87c3.87-1.69,7.49.8,10.14,7l.34-.14c1.29-.57,3.54-2,2.09-5.25a8.45,8.45,0,0,0-3-3.63l1.64-1.5a11,11,0,0,1,3.7,4.65c2.14,4.87-.67,7.52-3.87,8.92l-6,2.61a27.75,27.75,0,0,0-3.71,1.91Zm7.94-4c-1.3-3.17-3.44-6.51-6.52-5.16a2.78,2.78,0,0,0-1.59,3.92,4.35,4.35,0,0,0,4.37,2.72,3.54,3.54,0,0,0,1-.26Z"/><path d="M1079.5,594.61l1.27,2.88-23.42,10.25-1.26-2.88Z"/><path d="M1071,636.22a22.06,22.06,0,0,1-4.21-6.3c-1.47-3.37-1.84-6.52-.7-9.59a12.39,12.39,0,0,1,6.9-6.71c6.63-2.89,13.48-.45,16.74,7a15.28,15.28,0,0,1,1.41,6l-2.65.31a12.42,12.42,0,0,0-1.2-5.33c-2.36-5.39-7.26-7.46-12.83-5s-7.49,7.3-5.21,12.5a9.85,9.85,0,0,0,2.27,3.55l6.62-2.89-2-4.5,2.3-1,3.2,7.32Z"/><path d="M1075.89,650.06l1.9-1.13,0-.09a6.48,6.48,0,0,1-4.51-3.84,5,5,0,0,1,2.44-6.87c3.86-1.7,7.49.8,10.14,7l.34-.15c1.29-.57,3.53-2,2.09-5.24a8.46,8.46,0,0,0-3-3.63l1.64-1.51a11,11,0,0,1,3.7,4.65c2.14,4.88-.68,7.53-3.87,8.92l-6,2.62a26.62,26.62,0,0,0-3.71,1.91Zm7.94-4c-1.31-3.17-3.44-6.52-6.52-5.17a2.79,2.79,0,0,0-1.6,3.92,4.36,4.36,0,0,0,4.38,2.72,3.22,3.22,0,0,0,1-.26Z"/><path d="M1090,652.3c1.88-.83,3.47-1.58,4.91-2.31l1.11,2.54-3.08,1.48,0,.11a5.26,5.26,0,0,1,5.43,2.91,3.76,3.76,0,0,1,.28.84l-2.73,1.19a5.63,5.63,0,0,0-.35-1c-.89-2-3.07-2.81-5.41-2.26a8.61,8.61,0,0,0-1.4.48l-8.53,3.73L1079,657.1Z"/><path d="M1089.11,678.69a11.94,11.94,0,0,1-2.93-4.17c-2.1-4.81-.21-9.39,4.67-11.52s10-.37,12.25,4.84a10.27,10.27,0,0,1,.92,4.4l-2.51.33a7.75,7.75,0,0,0-.72-3.72c-1.59-3.64-5.19-4.44-8.5-3-3.7,1.62-4.93,5-3.54,8.17a9.26,9.26,0,0,0,2.32,3.22Z"/><path d="M1090,682.32l15.94-7,1.27,2.89-16,7Zm21.87-5.71a2,2,0,0,1-1.58-3.6,1.94,1.94,0,0,1,2.6,1A1.9,1.9,0,0,1,1111.89,676.61Z"/><path d="M1097.27,698.9l1.91-1.13,0-.09a6.45,6.45,0,0,1-4.51-3.84,5,5,0,0,1,2.44-6.87c3.86-1.69,7.48.8,10.14,7l.33-.15c1.3-.57,3.54-2,2.09-5.24a8.5,8.5,0,0,0-3-3.63l1.64-1.51a10.93,10.93,0,0,1,3.7,4.66c2.13,4.87-.68,7.52-3.87,8.92l-6,2.61a26.62,26.62,0,0,0-3.71,1.91Zm8-4c-1.31-3.17-3.44-6.52-6.53-5.17a2.79,2.79,0,0,0-1.59,3.93,4.35,4.35,0,0,0,4.37,2.71,3.28,3.28,0,0,0,1-.26Z"/><path d="M467.22,755.85a32.69,32.69,0,0,1,6-.58c3.33,0,5.52.59,7.05,1.94a6,6,0,0,1,1.94,4.59,6.39,6.39,0,0,1-4.52,6.22v.09c1.86.64,3,2.38,3.6,4.88a41,41,0,0,0,1.93,6.65l-3.25,0a32.3,32.3,0,0,1-1.65-5.79c-.74-3.32-2.07-4.59-4.91-4.66l-3,0,.09,10.52-3.13,0Zm3.23,11,3.2,0c3.35,0,5.46-1.88,5.44-4.66,0-3.15-2.32-4.5-5.62-4.48a14.08,14.08,0,0,0-3.1.31Z"/><path d="M501.18,774.71c0,1.83.09,3.39.19,4.77l-2.8,0-.19-2.84h-.09a6.51,6.51,0,0,1-5.73,3.29c-2.73,0-6-1.47-6.07-7.58l-.08-10.17,3.14,0,.09,9.62c0,3.31,1.08,5.56,3.94,5.54a4.61,4.61,0,0,0,4.16-2.94,5,5,0,0,0,.28-1.63l-.1-10.66,3.15,0Z"/><path d="M516.16,779.35l-.3-2.2h-.1a6.45,6.45,0,0,1-5.3,2.64,5,5,0,0,1-5.36-4.94c0-4.22,3.68-6.57,10.4-6.58v-.37c0-1.42-.43-4-4-4a8.37,8.37,0,0,0-4.52,1.34l-.74-2.1a10.89,10.89,0,0,1,5.73-1.58c5.32-.05,6.65,3.58,6.68,7.07l.06,6.51a26.2,26.2,0,0,0,.3,4.16Zm-.57-8.89c-3.43,0-7.35.61-7.32,4a2.79,2.79,0,0,0,3,3,4.35,4.35,0,0,0,4.22-3,3.3,3.3,0,0,0,.14-1Z"/><path d="M552.22,766.66c.07,8.32-5,12.81-11.15,12.86-6.43.06-10.94-4.88-11-12.21-.07-7.69,4.65-12.78,11.12-12.84C547.81,754.41,552.15,759.45,552.22,766.66Zm-18.85.55c0,5.19,2.91,9.81,7.85,9.76s7.73-4.63,7.69-10.15c0-4.83-2.61-9.85-7.82-9.8S533.33,761.9,533.37,767.21Z"/><path d="M556.25,766.29c0-1.82-.09-3.26-.19-4.7l2.8,0,.2,2.86h.09a6.44,6.44,0,0,1,5.73-3.31c2.39,0,6.14,1.39,6.2,7.37l.09,10.38-3.15,0-.09-10c0-2.81-1.11-5.16-4.07-5.13a4.57,4.57,0,0,0-4.24,3.29,5.28,5.28,0,0,0-.2,1.47l.09,10.49-3.15,0Z"/><path d="M591.14,753.13l.19,21.07c0,1.54.08,3.28.18,4.48l-2.82,0-.18-3h-.09a6.37,6.37,0,0,1-5.87,3.46c-4.22,0-7.51-3.5-7.55-8.78-.08-5.82,3.5-9.39,7.74-9.42a5.79,5.79,0,0,1,5.27,2.59h.07L588,753.16Zm-3,15.26A6.89,6.89,0,0,0,588,767a4.67,4.67,0,0,0-4.61-3.6c-3.28,0-5.22,2.92-5.18,6.74,0,3.54,1.81,6.46,5.23,6.43a4.78,4.78,0,0,0,4.59-3.84,4.94,4.94,0,0,0,.14-1.36Z"/><path d="M600,756.28a2,2,0,1,1-2-1.95A1.9,1.9,0,0,1,600,756.28Zm-3.34,22.36-.15-17.41,3.15,0,.15,17.41Z"/><path d="M605,765.86c0-1.82-.09-3.26-.19-4.7l2.8,0,.2,2.87h.09a6.39,6.39,0,0,1,5.72-3.31c2.39,0,6.15,1.38,6.2,7.36l.09,10.38-3.15,0-.08-10c0-2.82-1.11-5.17-4.07-5.14a4.56,4.56,0,0,0-4.24,3.29,5,5,0,0,0-.21,1.47l.1,10.49-3.15,0Z"/><path d="M634.7,778.3l-.3-2.19h-.1a6.45,6.45,0,0,1-5.3,2.64,5,5,0,0,1-5.36-5c0-4.21,3.68-6.56,10.41-6.57v-.37c0-1.42-.43-4-4-4a8.45,8.45,0,0,0-4.52,1.33l-.74-2.1a11,11,0,0,1,5.73-1.57c5.33,0,6.66,3.58,6.69,7.06l0,6.52a28.9,28.9,0,0,0,.3,4.16Zm-.57-8.88c-3.43,0-7.35.61-7.32,4a2.8,2.8,0,0,0,3,3,4.36,4.36,0,0,0,4.21-2.95,3,3,0,0,0,.14-1Z"/><path d="M1183.3,743a33.08,33.08,0,0,1,6-.74c3.32-.12,5.53.43,7.09,1.74a6.08,6.08,0,0,1,2.07,4.54,6.4,6.4,0,0,1-4.35,6.35V755c1.87.59,3,2.3,3.73,4.79a40.35,40.35,0,0,0,2.1,6.58l-3.25.12a32.38,32.38,0,0,1-1.8-5.75c-.84-3.29-2.19-4.53-5-4.52l-3,.1.38,10.51-3.13.11Zm3.53,10.92,3.2-.11c3.35-.12,5.41-2,5.31-4.8-.12-3.15-2.44-4.44-5.74-4.33a14.38,14.38,0,0,0-3.09.39Z"/><path d="M1217.76,760.94c.07,1.82.18,3.38.32,4.76l-2.8.1L1215,763h-.09a6.51,6.51,0,0,1-5.64,3.45c-2.72.09-6-1.32-6.26-7.41l-.37-10.17,3.15-.11.35,9.61c.11,3.31,1.23,5.53,4.08,5.43a4.62,4.62,0,0,0,4.09-3.06,5.09,5.09,0,0,0,.23-1.63l-.39-10.65,3.15-.12Z"/><path d="M1232.86,765.17l-.36-2.19h-.1a6.43,6.43,0,0,1-5.23,2.78,5,5,0,0,1-5.49-4.79c-.15-4.22,3.5-6.67,10.23-6.86l0-.37c-.05-1.41-.54-4-4.1-3.87a8.48,8.48,0,0,0-4.49,1.46l-.79-2.08a11,11,0,0,1,5.69-1.73c5.31-.19,6.74,3.4,6.86,6.88l.24,6.51a26.5,26.5,0,0,0,.41,4.15Zm-.81-8.87c-3.43.05-7.33.81-7.21,4.17a2.79,2.79,0,0,0,3.06,2.92,4.35,4.35,0,0,0,4.14-3.06,3,3,0,0,0,.11-1Z"/><path d="M1268.56,751.51c.3,8.31-4.61,12.94-10.79,13.16-6.43.23-11.08-4.59-11.34-11.91-.27-7.69,4.3-12.91,10.77-13.14S1268.3,744.3,1268.56,751.51Zm-18.82,1c.19,5.19,3.17,9.73,8.11,9.56s7.6-4.85,7.41-10.36c-.18-4.83-2.88-9.78-8.09-9.59S1249.55,747.26,1249.74,752.56Z"/><path d="M1272.58,751c-.06-1.82-.17-3.26-.31-4.7l2.8-.1.27,2.86h.09a6.44,6.44,0,0,1,5.64-3.47c2.39-.08,6.18,1.22,6.39,7.2l.38,10.38-3.15.11-.36-10c-.1-2.81-1.25-5.13-4.21-5a4.56,4.56,0,0,0-4.14,3.4,4.82,4.82,0,0,0-.17,1.48l.38,10.48-3.15.12Z"/><path d="M1307.1,736.93l.76,21.05c.05,1.55.18,3.29.3,4.49l-2.81.1-.27-3H1305a6.37,6.37,0,0,1-5.78,3.61c-4.22.15-7.6-3.29-7.78-8.57-.24-5.81,3.24-9.48,7.48-9.63a5.84,5.84,0,0,1,5.34,2.45h.07l-.37-10.38Zm-2.6,15.34a6.17,6.17,0,0,0-.18-1.35,4.68,4.68,0,0,0-4.71-3.48c-3.28.12-5.13,3.06-5,6.89.12,3.53,2,6.4,5.4,6.28a4.79,4.79,0,0,0,4.49-4,5.38,5.38,0,0,0,.1-1.36Z"/><path d="M1316,739.84a2,2,0,1,1-3.92.14,1.93,1.93,0,0,1,1.9-2A1.9,1.9,0,0,1,1316,739.84Zm-2.73,22.44-.63-17.39,3.15-.12.62,17.4Z"/><path d="M1321.26,749.28c-.07-1.81-.18-3.25-.31-4.69l2.79-.1.28,2.85h.09a6.41,6.41,0,0,1,5.63-3.46c2.39-.09,6.19,1.22,6.4,7.19l.37,10.38-3.15.11-.36-10c-.1-2.81-1.24-5.13-4.2-5a4.55,4.55,0,0,0-4.15,3.4,4.77,4.77,0,0,0-.16,1.47l.37,10.49-3.15.11Z"/><path d="M1351.33,760.92l-.36-2.19h-.1a6.45,6.45,0,0,1-5.22,2.78,5,5,0,0,1-5.5-4.8c-.15-4.21,3.5-6.66,10.23-6.86l0-.37c0-1.41-.54-4-4.1-3.87a8.48,8.48,0,0,0-4.49,1.46L1341,745a11,11,0,0,1,5.69-1.73c5.31-.19,6.74,3.4,6.86,6.89l.24,6.5a26.63,26.63,0,0,0,.41,4.16Zm-.81-8.87c-3.43.05-7.33.81-7.21,4.17a2.8,2.8,0,0,0,3.06,2.93,4.37,4.37,0,0,0,4.14-3.07,3,3,0,0,0,.11-1Z"/><path d="M1555.92,651.63a32.7,32.7,0,0,1,5.82-1.67c3.26-.63,5.53-.43,7.28.62a6.05,6.05,0,0,1,2.75,4.16,6.39,6.39,0,0,1-3.31,6.94l0,.09c1.94.28,3.37,1.78,4.43,4.14a39.88,39.88,0,0,0,3.11,6.18l-3.19.62a31.71,31.71,0,0,1-2.68-5.4c-1.34-3.12-2.88-4.13-5.68-3.68l-2.91.56,2,10.32-3.07.6Zm5.19,10.24,3.14-.62c3.29-.64,5-2.84,4.49-5.57-.6-3.09-3.09-4-6.34-3.37a14.17,14.17,0,0,0-3,.86Z"/><path d="M1592.76,664c.35,1.79.71,3.32,1,4.65l-2.74.54-.71-2.77-.09,0a6.5,6.5,0,0,1-5,4.29c-2.67.52-6.17-.36-7.34-6.35l-2-10,3.1-.6,1.84,9.44c.63,3.25,2.08,5.27,4.88,4.72a4.61,4.61,0,0,0,3.56-3.65,5.12,5.12,0,0,0,0-1.65l-2-10.46,3.09-.61Z"/><path d="M1608.33,665.79l-.7-2.1-.09,0a6.48,6.48,0,0,1-4.73,3.56,5,5,0,0,1-6.18-3.88c-.8-4.14,2.42-7.13,9-8.37l-.07-.36c-.27-1.39-1.16-3.89-4.66-3.19a8.47,8.47,0,0,0-4.2,2.14l-1.11-1.92a10.94,10.94,0,0,1,5.35-2.6c5.22-1,7.19,2.3,7.86,5.73l1.24,6.39a28.07,28.07,0,0,0,1.06,4Zm-2.19-8.63c-3.37.59-7.11,1.94-6.46,5.25a2.78,2.78,0,0,0,3.48,2.4,4.36,4.36,0,0,0,3.61-3.67,3.35,3.35,0,0,0,0-1Z"/><path d="M1641.46,646.73c1.6,8.17-2.53,13.5-8.6,14.69-6.32,1.23-11.66-2.81-13.06-10-1.47-7.55,2.23-13.42,8.59-14.66S1640.09,639.66,1641.46,646.73Zm-18.42,4c1,5.1,4.65,9.12,9.5,8.17s6.75-6,5.7-11.38c-.93-4.74-4.36-9.21-9.48-8.21S1622,645.5,1623,650.71Z"/><path d="M1645.36,645.63c-.35-1.78-.68-3.18-1-4.58l2.75-.54.72,2.78.08,0a6.44,6.44,0,0,1,5-4.3c2.35-.46,6.3.24,7.44,6.11l2,10.19-3.1.61-1.92-9.86c-.53-2.76-2-4.87-4.93-4.3a4.56,4.56,0,0,0-3.57,4,5.14,5.14,0,0,0,.07,1.49l2,10.29-3.09.61Z"/><path d="M1677.26,626.33l4,20.67c.3,1.52.69,3.22,1,4.38l-2.76.54-.73-2.92h-.09a6.38,6.38,0,0,1-5.14,4.48c-4.14.8-8-2.07-9-7.26-1.14-5.7,1.73-9.86,5.89-10.67a5.82,5.82,0,0,1,5.66,1.58h.07l-2-10.2Zm-.17,15.55a6.69,6.69,0,0,0-.39-1.3,4.68,4.68,0,0,0-5.2-2.7c-3.22.63-4.59,3.82-3.86,7.58.68,3.47,3,6,6.32,5.36a4.78,4.78,0,0,0,3.81-4.62,5,5,0,0,0-.11-1.36Z"/><path d="M1686.53,627.81a2,2,0,1,1-3.85.75,1.92,1.92,0,0,1,1.56-2.31A1.88,1.88,0,0,1,1686.53,627.81Zm.8,22.59L1684,633.32l3.09-.61,3.33,17.09Z"/><path d="M1693.17,636.32c-.35-1.78-.68-3.19-1-4.59l2.75-.53.71,2.77h.09a6.44,6.44,0,0,1,5-4.3c2.34-.46,6.29.24,7.44,6.11l2,10.19-3.09.6-1.92-9.85c-.54-2.76-2-4.87-4.94-4.31a4.57,4.57,0,0,0-3.56,4,4.75,4.75,0,0,0,.07,1.48l2,10.3-3.09.6Z"/><path d="M1724.69,643.13,1724,641l-.09,0a6.48,6.48,0,0,1-4.73,3.56,5,5,0,0,1-6.18-3.88c-.8-4.14,2.42-7.13,9-8.37L1722,632c-.27-1.39-1.16-3.89-4.66-3.19a8.41,8.41,0,0,0-4.2,2.15L1712,629a10.94,10.94,0,0,1,5.35-2.6c5.22-1,7.19,2.3,7.86,5.73l1.24,6.39a28.07,28.07,0,0,0,1.06,4Zm-2.19-8.64c-3.37.59-7.11,1.94-6.46,5.25a2.78,2.78,0,0,0,3.48,2.4,4.34,4.34,0,0,0,3.6-3.67,3,3,0,0,0,0-1Z"/><path d="M86.71,334.83a32.39,32.39,0,0,1,2.42,5.54c1.07,3.15,1.17,5.43.36,7.3A6.11,6.11,0,0,1,85.73,351a6.39,6.39,0,0,1-7.32-2.36l-.09,0c0,2-1.32,3.58-3.52,4.94a40.55,40.55,0,0,0-5.71,3.89l-1-3.08a33.06,33.06,0,0,1,5-3.36c2.91-1.75,3.72-3.4,2.9-6.12l-1-2.81-10,3.36-1-3Zm-9.46,6.49,1,3c1.07,3.18,3.48,4.61,6.12,3.72,3-1,3.55-3.6,2.5-6.73a13.54,13.54,0,0,0-1.25-2.86Z"/><path d="M79.35,373c-1.73.58-3.19,1.13-4.47,1.65L74,372l2.64-1.07,0-.08a6.51,6.51,0,0,1-4.91-4.42c-.87-2.58-.47-6.17,5.31-8.12L86.65,355l1,3-9.11,3.07c-3.14,1.06-5,2.76-4,5.47a4.61,4.61,0,0,0,4.09,3,4.92,4.92,0,0,0,1.63-.24L90.32,366l1,3Z"/><path d="M79.6,388.65l2-1,0-.09a6.49,6.49,0,0,1-4.16-4.22,5,5,0,0,1,3-6.63c4-1.35,7.39,1.45,9.49,7.84l.35-.12c1.34-.45,3.7-1.66,2.54-5a8.54,8.54,0,0,0-2.68-3.88l1.77-1.35a10.93,10.93,0,0,1,3.28,4.95c1.7,5.05-1.33,7.44-4.64,8.55l-6.17,2.08a28.55,28.55,0,0,0-3.86,1.58Zm8.27-3.31c-1-3.27-2.86-6.79-6.05-5.71a2.78,2.78,0,0,0-1.93,3.76A4.34,4.34,0,0,0,84,386.48a3.42,3.42,0,0,0,1-.17Z"/><path d="M93,404.56l-8,.06-1-3.08,25.63.07,1.2,3.57-20.34,15.6-1.07-3.17,6.39-4.9Zm4.87,6.77,5.85-4.51c1.34-1,2.59-1.81,3.79-2.6l0-.08c-1.46.12-3,.24-4.54.26l-7.42,0Z"/><path d="M115.72,415.79l1,3-24.22,8.17-1-3Z"/><path d="M94.32,432.29l14.22-4.79-.78-2.3,2.28-.77.77,2.3.8-.26c2.32-.79,4.61-1,6.42,0a6.09,6.09,0,0,1,2.88,3.5,6.86,6.86,0,0,1,.38,2.73l-2.44.38a4.91,4.91,0,0,0-.27-2.06c-.86-2.53-3.33-2.44-5.87-1.58l-.9.3,1.35,4-2.27.76-1.34-4-14.23,4.8Z"/><path d="M108.93,438.13c1.95-.66,3.59-1.27,5.09-1.87l.89,2.63-3.2,1.2,0,.11a5.28,5.28,0,0,1,5.16,3.38,3.55,3.55,0,0,1,.2.86l-2.83.95a4.92,4.92,0,0,0-.25-1.05c-.72-2.11-2.81-3.07-5.19-2.72a8.45,8.45,0,0,0-1.45.35l-8.81,3-1-3Z"/><path d="M109.49,451.86c-4,1.42-4.84,4.56-3.82,7.57a11.77,11.77,0,0,0,2.38,4.29l-2,1.24a14.21,14.21,0,0,1-2.91-5.15c-1.7-5.07.64-9.25,5.59-10.92s9.9-.06,11.52,4.76c1.82,5.38-2.43,8.38-5.47,9.4a7.78,7.78,0,0,1-1.44.38Zm5.12,8.05c1.9-.61,4.6-2.41,3.46-5.77-1-3.07-4.24-3.44-6.41-3Z"/><path d="M136,475.94l-20,6.73c-1.47.49-3.1,1.11-4.21,1.57l-.9-2.67,2.8-1.11,0-.08a6.38,6.38,0,0,1-5.11-4.51c-1.35-4,1-8.22,6-9.9,5.51-1.89,10,.4,11.37,4.42a5.81,5.81,0,0,1-.83,5.82l0,.07L135,473Zm-15.44,1.88a6.51,6.51,0,0,0,1.24-.55,4.68,4.68,0,0,0,2-5.51c-1.05-3.11-4.4-4.05-8-2.83-3.36,1.13-5.58,3.74-4.48,7a5.07,5.07,0,0,0,6.41,2.89Z"/><path d="M126.91,501.21c-6.11,2.05-10.21-1.28-11.55-5.25-1.51-4.47.59-9,5.83-10.79,5.52-1.86,10,.68,11.51,5.24C134.29,495.15,131.93,499.51,126.91,501.21Zm-4.6-13c-3.62,1.22-5.65,4.21-4.66,7.14s4.38,4.12,8.13,2.86c2.79-.94,5.84-3.54,4.64-7.11S125.44,487.13,122.31,488.19Z"/><path d="M144.92,507.51a33.56,33.56,0,0,1,2.42,5.54c1.07,3.16,1.17,5.44.36,7.31a6.09,6.09,0,0,1-3.77,3.27,6.4,6.4,0,0,1-7.32-2.36l-.08,0c0,2-1.32,3.58-3.52,4.94a40.31,40.31,0,0,0-5.71,3.9l-1-3.08a31.53,31.53,0,0,1,5-3.37c2.91-1.74,3.72-3.4,2.9-6.12l-.95-2.81-10,3.36-1-3Zm-9.46,6.5,1,3c1.07,3.18,3.48,4.61,6.12,3.72,3-1,3.55-3.6,2.5-6.73a13.39,13.39,0,0,0-1.25-2.85Z"/><path d="M136.72,532.64c-4,1.42-4.84,4.56-3.82,7.57a11.77,11.77,0,0,0,2.38,4.29l-1.95,1.24a14.21,14.21,0,0,1-2.91-5.15c-1.7-5.07.64-9.25,5.59-10.92s9.9-.06,11.52,4.76c1.82,5.38-2.43,8.38-5.47,9.4a7.78,7.78,0,0,1-1.44.38Zm5.12,8.05c1.9-.61,4.6-2.41,3.46-5.77-1-3.07-4.24-3.44-6.41-3Z"/><path d="M155.51,559.32c-1.2.31-2.56.71-4.56,1.39l-9.58,3.22c-3.82,1.29-6.37,1.28-8.35.2a9.38,9.38,0,0,1-4-5.35,11.14,11.14,0,0,1-.5-6l2.56,0a9.71,9.71,0,0,0,.32,5.3c1,3.07,3.39,4.78,7.57,3.37l1.84-.62,0-.07a6.16,6.16,0,0,1-4.54-4.31c-1.39-4.11,1.12-8.21,5.69-9.75,5.6-1.89,10,.69,11.26,4.5a5.8,5.8,0,0,1-1.11,6.11l0,.06,2.52-.7Zm-7.54-.93a4.92,4.92,0,0,0,1.28-.62,4.57,4.57,0,0,0,1.77-5.29c-1-2.86-4.07-4.1-7.91-2.8-3.22,1.08-5.38,3.66-4.29,6.88a4.63,4.63,0,0,0,4.5,3.13,5.34,5.34,0,0,0,1.67-.3Z"/><path d="M152.61,565.46c1.72-.59,3.07-1.1,4.41-1.64l.9,2.65-2.66,1.08,0,.08a6.43,6.43,0,0,1,4.92,4.42c.77,2.26.6,6.27-5.07,8.18l-9.84,3.32-1-3,9.51-3.21c2.66-.89,4.56-2.65,3.61-5.46a4.57,4.57,0,0,0-4.44-3,4.83,4.83,0,0,0-1.46.27l-9.94,3.35-1-3Z"/><path d="M155.23,587.53c-4,1.42-4.84,4.56-3.83,7.57a11.77,11.77,0,0,0,2.39,4.29l-2,1.24a14.08,14.08,0,0,1-2.9-5.15c-1.71-5.07.64-9.25,5.59-10.92s9.89-.06,11.52,4.76c1.81,5.38-2.44,8.38-5.47,9.4a6.94,6.94,0,0,1-1.45.37Zm5.11,8.05c1.9-.61,4.6-2.41,3.47-5.78-1-3.06-4.24-3.43-6.41-3Z"/><path d="M164.07,601.7c2-.65,3.59-1.26,5.09-1.87l.89,2.63-3.2,1.21,0,.11a5.29,5.29,0,0,1,5.16,3.37,3.27,3.27,0,0,1,.19.86l-2.82,1a4.92,4.92,0,0,0-.25-1.05c-.72-2.12-2.81-3.08-5.2-2.73a8.66,8.66,0,0,0-1.44.36l-8.81,3-1-3Z"/></g></g></svg>