<svg xmlns="http://www.w3.org/2000/svg" viewBox="0 0 1551.46 694.59"><defs><style>.cls-1{fill:#cfdcfa;stroke:#000;stroke-miterlimit:10;stroke-width:4px;}.cls-1,.cls-2{opacity:0.98;}</style></defs><g id="Layer_2" data-name="Layer 2"><g id="Novo_Mapa" data-name="Novo Mapa"><rect class="cls-1" x="44.46" y="43.47" width="449" height="614" rx="28.96"/><rect class="cls-1" x="553.28" y="46" width="449" height="614" rx="28.96"/><rect class="cls-1" x="1061.69" y="47.26" width="449" height="614" rx="28.96"/><g class="cls-2"><path d="M132.42,6.2a33.12,33.12,0,0,1,6-.52c3.32,0,5.51.63,7,2a6.09,6.09,0,0,1,1.9,4.61,6.4,6.4,0,0,1-4.57,6.18v.09c1.85.65,3,2.4,3.55,4.91a41.17,41.17,0,0,0,1.87,6.66H145a31.94,31.94,0,0,1-1.59-5.81c-.72-3.32-2-4.61-4.87-4.7h-3V30.13h-3.13Zm3.13,11.05h3.2c3.36,0,5.48-1.83,5.48-4.61,0-3.15-2.27-4.52-5.58-4.52a13.58,13.58,0,0,0-3.1.27Z" transform="translate(-4.58 -5.68)"/><path d="M166.22,25.37c0,1.82.06,3.39.14,4.76h-2.8l-.17-2.84h-.08a6.53,6.53,0,0,1-5.77,3.24c-2.72,0-6-1.53-6-7.63V12.72h3.15v9.62c0,3.32,1,5.58,3.89,5.58A4.62,4.62,0,0,0,162.78,25a5,5,0,0,0,.29-1.62V12.72h3.15Z" transform="translate(-4.58 -5.68)"/><path d="M181.15,30.13l-.28-2.2h-.1a6.46,6.46,0,0,1-5.32,2.6,5,5,0,0,1-5.32-5c0-4.21,3.74-6.53,10.46-6.48v-.37c0-1.42-.39-4-4-4a8.55,8.55,0,0,0-4.54,1.3l-.71-2.11a10.94,10.94,0,0,1,5.74-1.52c5.32,0,6.62,3.64,6.62,7.12V26a27.85,27.85,0,0,0,.26,4.16Zm-.49-8.89c-3.43-.07-7.35.55-7.35,3.91a2.78,2.78,0,0,0,2.95,3,4.36,4.36,0,0,0,4.25-2.91,3.68,3.68,0,0,0,.15-1Z" transform="translate(-4.58 -5.68)"/><path d="M199.73,8.52h-7.39V5.87h18V8.52h-7.42V30.13h-3.15Z" transform="translate(-4.58 -5.68)"/><path d="M211.27,18.15c0-2.06-.05-3.81-.14-5.43h2.77l.12,3.42h.11A5.29,5.29,0,0,1,219,12.33a3.5,3.5,0,0,1,.88.09v3a4.84,4.84,0,0,0-1.08-.1c-2.23,0-3.8,1.69-4.23,4.05a8.67,8.67,0,0,0-.13,1.48v9.3h-3.15Z" transform="translate(-4.58 -5.68)"/><path d="M232.52,30.13l-.28-2.2h-.09a6.49,6.49,0,0,1-5.33,2.6,5,5,0,0,1-5.32-5c0-4.21,3.74-6.53,10.47-6.48v-.37c0-1.42-.4-4-4-4a8.49,8.49,0,0,0-4.53,1.3l-.72-2.11a10.94,10.94,0,0,1,5.74-1.52c5.32,0,6.62,3.64,6.62,7.12V26a26.5,26.5,0,0,0,.27,4.16ZM232,21.24c-3.43-.07-7.35.55-7.35,3.91a2.78,2.78,0,0,0,2.95,3,4.36,4.36,0,0,0,4.25-2.91,3.33,3.33,0,0,0,.15-1Z" transform="translate(-4.58 -5.68)"/><path d="M241.15,12.72l3.41,9.76c.59,1.62,1,3.05,1.43,4.5h.09c.4-1.45.9-2.89,1.46-4.5L251,12.72h3.31l-6.85,17.41h-3l-6.63-17.41Z" transform="translate(-4.58 -5.68)"/><path d="M258.66,22c.06,4.28,2.78,6,6,6a11.65,11.65,0,0,0,4.82-.89L270,29.4a13.92,13.92,0,0,1-5.8,1.11c-5.35,0-8.57-3.56-8.57-8.79s3.11-9.39,8.19-9.39c5.68,0,7.16,5,7.16,8.19a7.84,7.84,0,0,1-.1,1.48Zm9.26-2.28c0-2-.81-5.12-4.36-5.12-3.23,0-4.61,2.92-4.86,5.12Z" transform="translate(-4.58 -5.68)"/><path d="M274.48,26.91a8.64,8.64,0,0,0,4.19,1.24c2.31,0,3.38-1.14,3.38-2.59s-.92-2.32-3.23-3.19c-3.15-1.14-4.64-2.85-4.63-4.94,0-2.8,2.28-5.1,6-5.1a8.44,8.44,0,0,1,4.27,1.07l-.79,2.3a6.83,6.83,0,0,0-3.57-1c-1.87,0-2.88,1.07-2.88,2.39s1,2.08,3.3,3c3,1.12,4.56,2.64,4.57,5.24,0,3.08-2.4,5.24-6.51,5.24a9.89,9.89,0,0,1-4.89-1.21Z" transform="translate(-4.58 -5.68)"/><path d="M288.73,26.91a8.68,8.68,0,0,0,4.2,1.24c2.31,0,3.38-1.14,3.38-2.59s-.92-2.32-3.24-3.19c-3.14-1.14-4.63-2.85-4.62-4.94,0-2.8,2.28-5.1,6-5.1a8.4,8.4,0,0,1,4.26,1.07L298,15.7a6.86,6.86,0,0,0-3.57-1c-1.87,0-2.89,1.07-2.89,2.39s1,2.08,3.31,3c3,1.12,4.56,2.64,4.57,5.24,0,3.08-2.4,5.24-6.52,5.24A10,10,0,0,1,288,29.3Z" transform="translate(-4.58 -5.68)"/><path d="M313.09,30.13l-.28-2.2h-.1a6.46,6.46,0,0,1-5.32,2.6,5,5,0,0,1-5.32-5c0-4.21,3.74-6.53,10.46-6.48v-.37c0-1.42-.4-4-4-4A8.53,8.53,0,0,0,304,16l-.72-2.11a11,11,0,0,1,5.75-1.52c5.32,0,6.62,3.64,6.62,7.12V26a27.85,27.85,0,0,0,.26,4.16Zm-.5-8.89c-3.42-.07-7.34.55-7.34,3.91a2.78,2.78,0,0,0,2.95,3,4.35,4.35,0,0,0,4.24-2.91,3.33,3.33,0,0,0,.15-1Z" transform="translate(-4.58 -5.68)"/><path d="M328.51,6.2a42.33,42.33,0,0,1,6.67-.52c4.49,0,7.7,1.07,9.83,3.05s3.43,4.77,3.43,8.68A12.9,12.9,0,0,1,345,26.85c-2.29,2.26-6,3.5-10.74,3.5a51.1,51.1,0,0,1-5.7-.27Zm3.15,21.47a22.2,22.2,0,0,0,3.15.14c6.71,0,10.33-3.72,10.33-10.28,0-5.73-3.2-9.35-9.81-9.35a18.59,18.59,0,0,0-3.67.32Z" transform="translate(-4.58 -5.68)"/><path d="M368.29,21.26c0,6.45-4.47,9.27-8.65,9.27-4.72,0-8.37-3.44-8.37-9,0-5.83,3.83-9.23,8.64-9.23C364.92,12.33,368.29,16,368.29,21.26Zm-13.8.2c0,3.82,2.19,6.7,5.28,6.7s5.3-2.84,5.3-6.79c0-2.95-1.48-6.67-5.24-6.67S354.49,18.16,354.49,21.46Z" transform="translate(-4.58 -5.68)"/><path d="M375.84,7.8a2,2,0,1,1-3.93,0,1.93,1.93,0,0,1,2-2A1.9,1.9,0,0,1,375.84,7.8ZM372.3,30.13V12.72h3.15V30.13Z" transform="translate(-4.58 -5.68)"/><path d="M380.28,26.91a8.68,8.68,0,0,0,4.19,1.24c2.31,0,3.39-1.14,3.39-2.59s-.92-2.32-3.24-3.19c-3.14-1.14-4.63-2.85-4.62-4.94,0-2.8,2.27-5.1,6-5.1a8.43,8.43,0,0,1,4.26,1.07l-.79,2.3a6.83,6.83,0,0,0-3.57-1c-1.86,0-2.88,1.07-2.88,2.39s1,2.08,3.3,3c3,1.12,4.56,2.64,4.57,5.24,0,3.08-2.4,5.24-6.51,5.24a9.92,9.92,0,0,1-4.89-1.21Z" transform="translate(-4.58 -5.68)"/></g><g class="cls-2"><path d="M653.23,6.7a33.12,33.12,0,0,1,6-.52c3.32,0,5.52.63,7,2a6.05,6.05,0,0,1,1.9,4.61A6.4,6.4,0,0,1,663.62,19v.09c1.85.65,3,2.4,3.56,4.91A40.45,40.45,0,0,0,669,30.63h-3.25a31.94,31.94,0,0,1-1.59-5.81c-.72-3.32-2-4.61-4.87-4.7h-3V30.63h-3.13Zm3.13,11h3.2c3.36,0,5.48-1.82,5.48-4.6,0-3.15-2.27-4.52-5.58-4.53a13.4,13.4,0,0,0-3.1.28Z" transform="translate(-4.58 -5.68)"/><path d="M687,25.86c0,1.83.06,3.39.14,4.77h-2.8l-.16-2.85h-.09A6.49,6.49,0,0,1,678.36,31c-2.73,0-6-1.52-6-7.62V13.22h3.15v9.62c0,3.31,1,5.57,3.89,5.57a4.61,4.61,0,0,0,4.19-2.9,5,5,0,0,0,.29-1.63V13.22H687Z" transform="translate(-4.58 -5.68)"/><path d="M702,30.63l-.28-2.2h-.09A6.49,6.49,0,0,1,696.26,31a5,5,0,0,1-5.32-5c0-4.22,3.74-6.53,10.46-6.48v-.37c0-1.42-.39-4-4-4a8.4,8.4,0,0,0-4.53,1.3l-.72-2.11a10.94,10.94,0,0,1,5.74-1.52c5.32,0,6.62,3.63,6.62,7.12v6.51a28,28,0,0,0,.26,4.17Zm-.49-8.89c-3.43-.07-7.35.54-7.35,3.91a2.78,2.78,0,0,0,3,3,4.36,4.36,0,0,0,4.25-2.91,3.33,3.33,0,0,0,.15-1Z" transform="translate(-4.58 -5.68)"/><path d="M720.54,9h-7.39V6.37h18V9h-7.42V30.63h-3.15Z" transform="translate(-4.58 -5.68)"/><path d="M732.08,18.64c0-2.05-.05-3.8-.14-5.42h2.77l.12,3.42H735a5.27,5.27,0,0,1,4.84-3.81,4,4,0,0,1,.88.08v3a4.86,4.86,0,0,0-1.07-.09c-2.24,0-3.81,1.68-4.24,4.05a8.58,8.58,0,0,0-.13,1.48v9.3h-3.15Z" transform="translate(-4.58 -5.68)"/><path d="M753.33,30.63l-.28-2.2H753A6.49,6.49,0,0,1,747.63,31a5,5,0,0,1-5.32-5c0-4.22,3.74-6.53,10.47-6.48v-.37c0-1.42-.4-4-4-4a8.4,8.4,0,0,0-4.53,1.3l-.72-2.11a11,11,0,0,1,5.75-1.52c5.32,0,6.61,3.63,6.61,7.12v6.51a26.64,26.64,0,0,0,.27,4.17Zm-.49-8.89c-3.43-.07-7.35.54-7.35,3.91a2.79,2.79,0,0,0,3,3,4.36,4.36,0,0,0,4.24-2.91,3.33,3.33,0,0,0,.15-1Z" transform="translate(-4.58 -5.68)"/><path d="M762,13.22,765.38,23c.58,1.62,1,3.05,1.42,4.5h.1c.39-1.45.89-2.9,1.45-4.5l3.41-9.76h3.31l-6.85,17.41h-3l-6.63-17.41Z" transform="translate(-4.58 -5.68)"/><path d="M779.47,22.5c.06,4.28,2.78,6,6,6a11.81,11.81,0,0,0,4.82-.89l.55,2.25A14.08,14.08,0,0,1,785,31c-5.35,0-8.57-3.57-8.57-8.79s3.11-9.39,8.19-9.39c5.68,0,7.17,5,7.17,8.18a7.79,7.79,0,0,1-.11,1.49Zm9.27-2.28c0-2-.82-5.13-4.37-5.13-3.23,0-4.61,2.93-4.86,5.13Z" transform="translate(-4.58 -5.68)"/><path d="M795.29,27.41a8.68,8.68,0,0,0,4.19,1.24c2.31,0,3.39-1.14,3.39-2.6s-.93-2.32-3.24-3.18C796.49,21.73,795,20,795,17.93c0-2.8,2.28-5.1,6-5.1a8.43,8.43,0,0,1,4.26,1.07l-.79,2.3a6.82,6.82,0,0,0-3.57-1c-1.87,0-2.88,1.08-2.88,2.39s1,2.09,3.3,3c3,1.12,4.56,2.63,4.57,5.23,0,3.09-2.4,5.25-6.51,5.25a9.89,9.89,0,0,1-4.89-1.22Z" transform="translate(-4.58 -5.68)"/><path d="M809.54,27.41a8.72,8.72,0,0,0,4.2,1.24c2.31,0,3.38-1.14,3.38-2.6s-.92-2.32-3.23-3.18c-3.15-1.14-4.64-2.85-4.63-4.94,0-2.8,2.28-5.1,6-5.1a8.47,8.47,0,0,1,4.27,1.07l-.79,2.3a6.85,6.85,0,0,0-3.57-1c-1.87,0-2.89,1.08-2.89,2.39s1,2.09,3.31,3c3,1.12,4.56,2.63,4.57,5.23,0,3.09-2.4,5.25-6.51,5.25a10,10,0,0,1-4.9-1.22Z" transform="translate(-4.58 -5.68)"/><path d="M833.9,30.63l-.28-2.2h-.1A6.45,6.45,0,0,1,828.2,31a5,5,0,0,1-5.32-5c0-4.22,3.74-6.53,10.46-6.48v-.37c0-1.42-.39-4-4-4a8.46,8.46,0,0,0-4.54,1.3l-.71-2.11a10.94,10.94,0,0,1,5.74-1.52c5.32,0,6.62,3.63,6.62,7.12v6.51a28,28,0,0,0,.26,4.17Zm-.49-8.89c-3.43-.07-7.35.54-7.35,3.91a2.78,2.78,0,0,0,3,3,4.36,4.36,0,0,0,4.25-2.91,3.33,3.33,0,0,0,.15-1Z" transform="translate(-4.58 -5.68)"/><path d="M849.32,6.7A42.33,42.33,0,0,1,856,6.18c4.49,0,7.71,1.06,9.83,3.05s3.43,4.77,3.43,8.68a12.92,12.92,0,0,1-3.49,9.44c-2.29,2.25-6,3.49-10.74,3.49a49,49,0,0,1-5.7-.27Zm3.15,21.46a22,22,0,0,0,3.15.15C862.34,28.33,866,24.59,866,18c0-5.73-3.2-9.35-9.81-9.35a18.59,18.59,0,0,0-3.67.32Z" transform="translate(-4.58 -5.68)"/><path d="M889.11,21.76c0,6.44-4.48,9.26-8.66,9.26-4.72,0-8.37-3.44-8.37-9,0-5.83,3.83-9.23,8.65-9.23C885.73,12.83,889.11,16.46,889.11,21.76ZM875.3,22c0,3.82,2.19,6.69,5.28,6.69s5.3-2.83,5.3-6.78c0-2.95-1.48-6.67-5.24-6.67S875.3,18.66,875.3,22Z" transform="translate(-4.58 -5.68)"/><path d="M896.65,8.3a1.91,1.91,0,0,1-2,2,1.88,1.88,0,0,1-1.91-2,2,2,0,1,1,3.92,0Zm-3.54,22.33V13.22h3.15V30.63Z" transform="translate(-4.58 -5.68)"/><path d="M901.09,27.41a8.68,8.68,0,0,0,4.19,1.24c2.32,0,3.39-1.14,3.39-2.6s-.92-2.32-3.24-3.18c-3.14-1.14-4.63-2.85-4.62-4.94,0-2.8,2.27-5.1,6-5.1a8.43,8.43,0,0,1,4.26,1.07l-.78,2.3a6.86,6.86,0,0,0-3.58-1c-1.86,0-2.88,1.08-2.88,2.39s1,2.09,3.31,3c3,1.12,4.55,2.63,4.56,5.23,0,3.09-2.39,5.25-6.51,5.25a10,10,0,0,1-4.89-1.22Z" transform="translate(-4.58 -5.68)"/></g><g class="cls-2"><path d="M1158.23,6.7a33.12,33.12,0,0,1,6-.52c3.32,0,5.52.63,7,2a6.05,6.05,0,0,1,1.9,4.61,6.4,6.4,0,0,1-4.57,6.18v.09c1.85.65,3,2.4,3.56,4.91a40.45,40.45,0,0,0,1.86,6.66h-3.25a31.94,31.94,0,0,1-1.59-5.81c-.72-3.32-2-4.61-4.87-4.7h-3V30.63h-3.13Zm3.13,11h3.2c3.36,0,5.48-1.82,5.48-4.6,0-3.15-2.27-4.52-5.58-4.53a13.4,13.4,0,0,0-3.1.28Z" transform="translate(-4.58 -5.68)"/><path d="M1192,25.86c0,1.83.06,3.39.14,4.77h-2.8l-.16-2.85h-.09a6.49,6.49,0,0,1-5.76,3.24c-2.73,0-6-1.52-6-7.62V13.22h3.15v9.62c0,3.31,1,5.57,3.89,5.57a4.61,4.61,0,0,0,4.19-2.9,5,5,0,0,0,.29-1.63V13.22H1192Z" transform="translate(-4.58 -5.68)"/><path d="M1207,30.63l-.28-2.2h-.09a6.49,6.49,0,0,1-5.33,2.59,5,5,0,0,1-5.32-5c0-4.22,3.74-6.53,10.46-6.48v-.37c0-1.42-.39-4-4-4a8.4,8.4,0,0,0-4.53,1.3l-.72-2.11a10.94,10.94,0,0,1,5.74-1.52c5.32,0,6.62,3.63,6.62,7.12v6.51a28,28,0,0,0,.26,4.17Zm-.49-8.89c-3.43-.07-7.35.54-7.35,3.91a2.78,2.78,0,0,0,3,3,4.36,4.36,0,0,0,4.25-2.91,3.33,3.33,0,0,0,.15-1Z" transform="translate(-4.58 -5.68)"/><path d="M1225.54,9h-7.39V6.37h18V9h-7.42V30.63h-3.15Z" transform="translate(-4.58 -5.68)"/><path d="M1237.08,18.64c0-2.05,0-3.8-.14-5.42h2.77l.12,3.42h.12a5.27,5.27,0,0,1,4.84-3.81,4,4,0,0,1,.88.08v3a4.86,4.86,0,0,0-1.07-.09c-2.24,0-3.81,1.68-4.24,4.05a8.58,8.58,0,0,0-.13,1.48v9.3h-3.15Z" transform="translate(-4.58 -5.68)"/><path d="M1258.33,30.63l-.28-2.2H1258a6.49,6.49,0,0,1-5.33,2.59,5,5,0,0,1-5.32-5c0-4.22,3.74-6.53,10.47-6.48v-.37c0-1.42-.4-4-4-4a8.4,8.4,0,0,0-4.53,1.3l-.72-2.11a10.94,10.94,0,0,1,5.74-1.52c5.33,0,6.62,3.63,6.62,7.12v6.51a26.64,26.64,0,0,0,.27,4.17Zm-.49-8.89c-3.43-.07-7.35.54-7.35,3.91a2.79,2.79,0,0,0,3,3,4.36,4.36,0,0,0,4.24-2.91,3.33,3.33,0,0,0,.15-1Z" transform="translate(-4.58 -5.68)"/><path d="M1267,13.22l3.42,9.76c.58,1.62,1,3.05,1.42,4.5h.1c.39-1.45.89-2.9,1.45-4.5l3.41-9.76h3.31l-6.85,17.41h-3l-6.63-17.41Z" transform="translate(-4.58 -5.68)"/><path d="M1284.47,22.5c.06,4.28,2.78,6,6,6a11.81,11.81,0,0,0,4.82-.89l.55,2.25A14.08,14.08,0,0,1,1290,31c-5.35,0-8.57-3.57-8.57-8.79s3.11-9.39,8.19-9.39c5.68,0,7.17,5,7.17,8.18a7.79,7.79,0,0,1-.11,1.49Zm9.27-2.28c0-2-.82-5.13-4.37-5.13-3.23,0-4.61,2.93-4.86,5.13Z" transform="translate(-4.58 -5.68)"/><path d="M1300.29,27.41a8.68,8.68,0,0,0,4.19,1.24c2.31,0,3.39-1.14,3.39-2.6s-.93-2.32-3.24-3.18c-3.14-1.14-4.63-2.85-4.63-4.94,0-2.8,2.28-5.1,6-5.1a8.43,8.43,0,0,1,4.26,1.07l-.79,2.3a6.82,6.82,0,0,0-3.57-1c-1.87,0-2.88,1.08-2.88,2.39s1,2.09,3.3,3c3,1.12,4.56,2.63,4.57,5.23,0,3.09-2.4,5.25-6.51,5.25a9.89,9.89,0,0,1-4.89-1.22Z" transform="translate(-4.58 -5.68)"/><path d="M1314.54,27.41a8.72,8.72,0,0,0,4.2,1.24c2.31,0,3.38-1.14,3.38-2.6s-.92-2.32-3.23-3.18c-3.15-1.14-4.64-2.85-4.63-4.94,0-2.8,2.28-5.1,6-5.1a8.47,8.47,0,0,1,4.27,1.07l-.79,2.3a6.85,6.85,0,0,0-3.57-1c-1.87,0-2.89,1.08-2.89,2.39s1,2.09,3.31,3c3,1.12,4.56,2.63,4.57,5.23,0,3.09-2.4,5.25-6.51,5.25a10,10,0,0,1-4.9-1.22Z" transform="translate(-4.58 -5.68)"/><path d="M1338.9,30.63l-.28-2.2h-.1A6.45,6.45,0,0,1,1333.2,31a5,5,0,0,1-5.32-5c0-4.22,3.74-6.53,10.46-6.48v-.37c0-1.42-.39-4-4-4a8.46,8.46,0,0,0-4.54,1.3l-.71-2.11a10.94,10.94,0,0,1,5.74-1.52c5.32,0,6.62,3.63,6.62,7.12v6.51a28,28,0,0,0,.26,4.17Zm-.49-8.89c-3.43-.07-7.35.54-7.35,3.91a2.78,2.78,0,0,0,3,3,4.36,4.36,0,0,0,4.25-2.91,3.33,3.33,0,0,0,.15-1Z" transform="translate(-4.58 -5.68)"/><path d="M1354.32,6.7a42.33,42.33,0,0,1,6.67-.52c4.49,0,7.71,1.06,9.83,3.05s3.43,4.77,3.43,8.68a12.92,12.92,0,0,1-3.49,9.44c-2.29,2.25-6,3.49-10.74,3.49a49,49,0,0,1-5.7-.27Zm3.15,21.46a22,22,0,0,0,3.15.15c6.72,0,10.33-3.72,10.33-10.28,0-5.73-3.2-9.35-9.81-9.35a18.59,18.59,0,0,0-3.67.32Z" transform="translate(-4.58 -5.68)"/><path d="M1394.11,21.76c0,6.44-4.48,9.26-8.66,9.26-4.72,0-8.37-3.44-8.37-9,0-5.83,3.83-9.23,8.65-9.23C1390.73,12.83,1394.11,16.46,1394.11,21.76Zm-13.81.2c0,3.82,2.19,6.69,5.28,6.69s5.3-2.83,5.3-6.78c0-2.95-1.48-6.67-5.24-6.67S1380.3,18.66,1380.3,22Z" transform="translate(-4.58 -5.68)"/><path d="M1401.65,8.3a1.91,1.91,0,0,1-2,2,1.88,1.88,0,0,1-1.91-2,2,2,0,1,1,3.92,0Zm-3.54,22.33V13.22h3.15V30.63Z" transform="translate(-4.58 -5.68)"/><path d="M1406.09,27.41a8.68,8.68,0,0,0,4.19,1.24c2.32,0,3.39-1.14,3.39-2.6s-.92-2.32-3.24-3.18c-3.14-1.14-4.63-2.85-4.62-4.94,0-2.8,2.27-5.1,6-5.1a8.43,8.43,0,0,1,4.26,1.07l-.78,2.3a6.86,6.86,0,0,0-3.58-1c-1.86,0-2.88,1.08-2.88,2.39s1,2.09,3.31,3c3,1.12,4.55,2.63,4.56,5.23,0,3.09-2.39,5.25-6.51,5.25a10,10,0,0,1-4.89-1.22Z" transform="translate(-4.58 -5.68)"/></g><g class="cls-2"><path d="M6.2,572.92a33.09,33.09,0,0,1-.52-6c0-3.33.64-5.52,2-7A6.06,6.06,0,0,1,12.29,558a6.4,6.4,0,0,1,6.18,4.58h.09c.65-1.85,2.4-3,4.91-3.56a39.8,39.8,0,0,0,6.66-1.87v3.25a32.52,32.52,0,0,1-5.81,1.6c-3.32.72-4.61,2-4.7,4.87v3H30.13v3.13Zm11.05-3.13v-3.2c0-3.35-1.83-5.48-4.61-5.48-3.15,0-4.52,2.27-4.52,5.58a13.58,13.58,0,0,0,.27,3.1Z" transform="translate(-4.58 -5.68)"/><path d="M25.37,539.12c1.82,0,3.39,0,4.76-.14v2.8l-2.84.17V542a6.49,6.49,0,0,1,3.24,5.76c0,2.72-1.53,6-7.63,6H12.72v-3.15h9.62c3.32,0,5.58-1,5.58-3.89A4.62,4.62,0,0,0,25,542.56a5,5,0,0,0-1.62-.28H12.72v-3.16Z" transform="translate(-4.58 -5.68)"/><path d="M30.13,524.19l-2.2.28v.1a6.46,6.46,0,0,1,2.6,5.32,5,5,0,0,1-5,5.32c-4.21,0-6.53-3.74-6.48-10.46h-.37c-1.42,0-4,.4-4,4a8.53,8.53,0,0,0,1.3,4.54l-2.1.72a10.88,10.88,0,0,1-1.53-5.75c0-5.32,3.64-6.62,7.12-6.62H26a27.85,27.85,0,0,0,4.16-.26Zm-8.89.5c-.07,3.42.55,7.35,3.91,7.35a2.79,2.79,0,0,0,3-3,4.35,4.35,0,0,0-2.91-4.24,3.33,3.33,0,0,0-1-.15Z" transform="translate(-4.58 -5.68)"/><path d="M5.87,508.77V495.7H8.48v9.92h8.08v-9.16h2.59v9.16h11v3.15Z" transform="translate(-4.58 -5.68)"/><path d="M18.15,492.27c-2.06,0-3.81.05-5.43.15v-2.78l3.42-.12v-.11a5.27,5.27,0,0,1-3.81-4.85,3.5,3.5,0,0,1,.09-.88h3a4.84,4.84,0,0,0-.1,1.08c0,2.23,1.69,3.8,4.05,4.23a7.77,7.77,0,0,0,1.48.13h9.3v3.15Z" transform="translate(-4.58 -5.68)"/><path d="M30.13,471l-2.2.28v.09a6.49,6.49,0,0,1,2.6,5.33,5,5,0,0,1-5,5.32c-4.21,0-6.53-3.74-6.48-10.46h-.37c-1.42,0-4,.39-4,4a8.55,8.55,0,0,0,1.3,4.54l-2.1.71a10.85,10.85,0,0,1-1.53-5.74c0-5.32,3.64-6.62,7.12-6.62H26a27.85,27.85,0,0,0,4.16-.26Zm-8.89.49c-.07,3.43.55,7.35,3.91,7.35a2.78,2.78,0,0,0,3-2.95,4.36,4.36,0,0,0-2.91-4.25,3.33,3.33,0,0,0-1-.15Z" transform="translate(-4.58 -5.68)"/><path d="M17.43,463.32c-1.82,0-3.26.06-4.71.15v-2.8l2.87-.18v-.08a6.42,6.42,0,0,1-3.26-5.76c0-2.39,1.44-6.14,7.42-6.14H30.13v3.15h-10c-2.82,0-5.18,1.06-5.18,4A4.54,4.54,0,0,0,18.17,460a4.69,4.69,0,0,0,1.47.22H30.13v3.15Z" transform="translate(-4.58 -5.68)"/><path d="M29.5,430.93a11.94,11.94,0,0,1,1,5c0,5.25-3.57,8.69-8.89,8.69s-9.29-3.66-9.29-9.35a10.24,10.24,0,0,1,.93-4.4l2.43.7a7.76,7.76,0,0,0-.83,3.7c0,4,3,6.15,6.59,6.14,4,0,6.51-2.59,6.51-6.06a9.39,9.39,0,0,0-.83-3.88Z" transform="translate(-4.58 -5.68)"/><path d="M7.8,423.68a2,2,0,1,1,0,3.92,1.93,1.93,0,0,1-2-2A1.9,1.9,0,0,1,7.8,423.68Zm22.33,3.53H12.72v-3.15H30.13Z" transform="translate(-4.58 -5.68)"/><path d="M26.91,419.24a8.68,8.68,0,0,0,1.24-4.2c0-2.31-1.14-3.38-2.59-3.38s-2.32.92-3.19,3.23c-1.14,3.15-2.85,4.64-4.94,4.63-2.8,0-5.1-2.28-5.1-6a8.47,8.47,0,0,1,1.07-4.27l2.3.79a6.86,6.86,0,0,0-1,3.57c0,1.87,1.07,2.89,2.39,2.89s2.08-1,3-3.31c1.11-3,2.63-4.56,5.23-4.57,3.08,0,5.24,2.4,5.24,6.52A10,10,0,0,1,29.3,420Z" transform="translate(-4.58 -5.68)"/><path d="M29.5,392.12a12,12,0,0,1,1,5c0,5.25-3.57,8.68-8.89,8.68s-9.29-3.66-9.29-9.35a10.24,10.24,0,0,1,.93-4.4l2.43.7a7.77,7.77,0,0,0-.83,3.71c0,4,3,6.15,6.59,6.14,4,0,6.51-2.6,6.51-6.07a9.29,9.29,0,0,0-.83-3.87Z" transform="translate(-4.58 -5.68)"/><path d="M21.26,372.87c6.45,0,9.27,4.47,9.27,8.65,0,4.72-3.44,8.37-9,8.37-5.82,0-9.23-3.83-9.23-8.64C12.33,376.24,16,372.87,21.26,372.87Zm.2,13.8c3.82,0,6.7-2.19,6.7-5.28s-2.84-5.3-6.79-5.3c-2.95,0-6.67,1.48-6.67,5.24S18.16,386.67,21.46,386.67Z" transform="translate(-4.58 -5.68)"/><path d="M4.58,346.2H25.64c1.55,0,3.29-.06,4.49-.14v2.81l-3,.16v.09a6.37,6.37,0,0,1,3.41,5.9c0,4.22-3.57,7.48-8.85,7.48-5.81,0-9.35-3.59-9.35-7.83A5.81,5.81,0,0,1,15,349.42v-.07H4.58Zm15.23,3.15a6.86,6.86,0,0,0-1.35.13,4.68,4.68,0,0,0-3.65,4.59c0,3.28,2.88,5.24,6.7,5.24,3.54,0,6.47-1.76,6.47-5.18a4.77,4.77,0,0,0-3.8-4.62,4.81,4.81,0,0,0-1.35-.16Z" transform="translate(-4.58 -5.68)"/><path d="M22,339.15c4.28-.06,6-2.78,6-6a11.65,11.65,0,0,0-.89-4.82l2.25-.55a14,14,0,0,1,1.11,5.81c0,5.34-3.56,8.56-8.79,8.56s-9.39-3.11-9.39-8.19c0-5.68,5-7.16,8.19-7.16A7.67,7.67,0,0,1,22,327Zm-2.28-9.26c-2,0-5.12.81-5.12,4.36,0,3.23,2.92,4.61,5.12,4.86Z" transform="translate(-4.58 -5.68)"/><path d="M26.31,315.57a10.9,10.9,0,0,0,1.58-5.6c0-3.2-1.68-5.09-4.13-5.09-2.25,0-3.58,1.32-4.8,4.59-1.41,4-3.49,6.42-6.89,6.42-3.77,0-6.58-3.14-6.58-7.87a11.13,11.13,0,0,1,1.18-5.35l2.57.87a9.22,9.22,0,0,0-1.16,4.58c0,3.34,2,4.6,3.63,4.6,2.25,0,3.37-1.48,4.66-4.83,1.61-4.11,3.59-6.19,7.14-6.19,3.73,0,7,2.75,7,8.49a12.45,12.45,0,0,1-1.58,6.2Z" transform="translate(-4.58 -5.68)"/><path d="M21.26,281.54c6.45,0,9.27,4.47,9.27,8.65,0,4.72-3.44,8.37-9,8.37-5.82,0-9.23-3.83-9.23-8.64C12.33,284.91,16,281.54,21.26,281.54Zm.2,13.8c3.82,0,6.7-2.19,6.7-5.28s-2.84-5.3-6.79-5.3c-2.95,0-6.67,1.48-6.67,5.24S18.16,295.34,21.46,295.34Z" transform="translate(-4.58 -5.68)"/><path d="M25.37,263c1.82,0,3.39-.06,4.76-.14v2.8l-2.84.16v.09a6.49,6.49,0,0,1,3.24,5.76c0,2.73-1.53,6-7.63,6H12.72v-3.15h9.62c3.32,0,5.58-1,5.58-3.89A4.62,4.62,0,0,0,25,266.41a5,5,0,0,0-1.62-.29H12.72V263Z" transform="translate(-4.58 -5.68)"/><path d="M7.71,253.89h5v-4.55h2.4v4.55H24.5c2.17,0,3.4-.62,3.4-2.39a6.3,6.3,0,0,0-.23-1.84l2.41-.14a8.14,8.14,0,0,1,.43,2.83,4.45,4.45,0,0,1-1.34,3.42c-1,.87-2.5,1.22-4.54,1.22H15.12v2.7h-2.4V257H8.53Z" transform="translate(-4.58 -5.68)"/><path d="M21.26,230.24c6.45,0,9.27,4.47,9.27,8.65,0,4.72-3.44,8.37-9,8.37-5.82,0-9.23-3.83-9.23-8.64C12.33,233.61,16,230.24,21.26,230.24Zm.2,13.8c3.82,0,6.7-2.19,6.7-5.28s-2.84-5.3-6.79-5.3c-2.95,0-6.67,1.48-6.67,5.24S18.16,244,21.46,244Z" transform="translate(-4.58 -5.68)"/><path d="M17.43,226.23c-1.82,0-3.26.06-4.71.14v-2.75l2.81-.17v-.08a6,6,0,0,1-3.2-5.5A5.13,5.13,0,0,1,15.82,213v-.07a7.16,7.16,0,0,1-2.27-2,6,6,0,0,1-1.22-3.83c0-2.33,1.5-5.75,7.55-5.75H30.13v3.09H20.29c-3.37,0-5.37,1.24-5.37,3.78A4.14,4.14,0,0,0,17.77,212a5.25,5.25,0,0,0,1.59.25H30.13v3.09H19.69c-2.78,0-4.77,1.23-4.77,3.62a4.38,4.38,0,0,0,3.16,4,5.2,5.2,0,0,0,1.56.24H30.13v3.09Z" transform="translate(-4.58 -5.68)"/><path d="M30.13,186.55l-2.2.28v.1a6.46,6.46,0,0,1,2.6,5.32,5,5,0,0,1-5,5.32c-4.21,0-6.53-3.74-6.48-10.46h-.37c-1.42,0-4,.4-4,4a8.53,8.53,0,0,0,1.3,4.54l-2.1.71a10.82,10.82,0,0,1-1.53-5.74c0-5.32,3.64-6.62,7.12-6.62H26a27.85,27.85,0,0,0,4.16-.26Zm-8.89.5c-.07,3.42.55,7.34,3.91,7.34a2.78,2.78,0,0,0,3-2.95,4.35,4.35,0,0,0-2.91-4.24,3.33,3.33,0,0,0-1-.15Z" transform="translate(-4.58 -5.68)"/><path d="M7.8,175.32a2,2,0,1,1,0,3.92,1.93,1.93,0,0,1-2-2A1.89,1.89,0,0,1,7.8,175.32Zm22.33,3.53H12.72V175.7H30.13Z" transform="translate(-4.58 -5.68)"/><path d="M21.26,154.67c6.45,0,9.27,4.48,9.27,8.66,0,4.72-3.44,8.37-9,8.37-5.82,0-9.23-3.83-9.23-8.65C12.33,158.05,16,154.67,21.26,154.67Zm.2,13.81c3.82,0,6.7-2.19,6.7-5.28s-2.84-5.31-6.79-5.31c-2.95,0-6.67,1.49-6.67,5.25S18.16,168.48,21.46,168.48Z" transform="translate(-4.58 -5.68)"/><path d="M18.15,150.67c-2.06,0-3.81.05-5.43.15V148l3.42-.12v-.11A5.29,5.29,0,0,1,12.33,143a3.5,3.5,0,0,1,.09-.88h3a4.84,4.84,0,0,0-.1,1.08c0,2.23,1.69,3.8,4.05,4.23a7.77,7.77,0,0,0,1.48.13h9.3v3.15Z" transform="translate(-4.58 -5.68)"/></g><g class="cls-2"><path d="M515.72,486.27a33.12,33.12,0,0,1-.52-6c0-3.32.63-5.52,2-7a6.1,6.1,0,0,1,4.61-1.9,6.42,6.42,0,0,1,6.19,4.57h.08c.65-1.85,2.4-3,4.92-3.55a41.17,41.17,0,0,0,6.66-1.87v3.25a32.21,32.21,0,0,1-5.81,1.59c-3.32.72-4.61,2-4.71,4.87v3h10.52v3.13Zm11-3.13v-3.2c0-3.36-1.82-5.48-4.61-5.48-3.15,0-4.52,2.27-4.52,5.58a13.4,13.4,0,0,0,.28,3.1Z" transform="translate(-4.58 -5.68)"/><path d="M534.88,452.47c1.83,0,3.39-.06,4.77-.14v2.8l-2.85.16v.09a6.53,6.53,0,0,1,3.24,5.77c0,2.72-1.53,6-7.63,6H522.24V464h9.62c3.31,0,5.57-1,5.57-3.89a4.62,4.62,0,0,0-2.91-4.19,4.93,4.93,0,0,0-1.62-.29H522.24v-3.15Z" transform="translate(-4.58 -5.68)"/><path d="M539.65,437.54l-2.2.28v.1a6.45,6.45,0,0,1,2.59,5.32,5,5,0,0,1-5,5.32c-4.22,0-6.54-3.74-6.49-10.46h-.37c-1.41,0-4,.39-4,4a8.54,8.54,0,0,0,1.29,4.54l-2.1.71a10.94,10.94,0,0,1-1.53-5.74c0-5.32,3.64-6.62,7.13-6.62h6.51a28,28,0,0,0,4.17-.26Zm-8.89.49c-.08,3.43.54,7.35,3.91,7.35a2.79,2.79,0,0,0,3-2.95,4.37,4.37,0,0,0-2.92-4.25,3.24,3.24,0,0,0-1-.15Z" transform="translate(-4.58 -5.68)"/><path d="M515.39,417.16V414H531.6c6.46,0,8.44,3.16,8.44,7.33a10.47,10.47,0,0,1-.56,3.36l-2.56-.46a7.56,7.56,0,0,0,.46-2.65c0-2.8-1.27-4.43-6-4.43Z" transform="translate(-4.58 -5.68)"/><path d="M530.77,393.06c6.45,0,9.27,4.47,9.27,8.66,0,4.72-3.44,8.37-9,8.37-5.82,0-9.23-3.83-9.23-8.65C521.84,396.44,525.47,393.06,530.77,393.06Zm.21,13.81c3.82,0,6.69-2.19,6.69-5.28s-2.84-5.31-6.79-5.31c-2.94,0-6.67,1.49-6.67,5.25S527.68,406.87,531,406.87Z" transform="translate(-4.58 -5.68)"/><path d="M519.24,387.56c-2.36.06-3.76-.92-3.76-2.45a4.69,4.69,0,0,1,.8-2.24,3.74,3.74,0,0,0,.61-1.52c0-.56-.32-.91-1.53-1v-1.68c2.39,0,3.64.76,3.64,2.45a4.74,4.74,0,0,1-.75,2.21,3.52,3.52,0,0,0-.64,1.54c0,.57.62.87,1.63.95Zm20.41-8.16-2.2.28v.1A6.45,6.45,0,0,1,540,385.1a5,5,0,0,1-5,5.32c-4.22,0-6.54-3.74-6.49-10.46h-.37c-1.41,0-4,.4-4,4a8.54,8.54,0,0,0,1.29,4.54l-2.1.71a10.94,10.94,0,0,1-1.53-5.74c0-5.32,3.64-6.62,7.13-6.62h6.51a28,28,0,0,0,4.17-.26Zm-8.89.49c-.08,3.43.54,7.35,3.91,7.35a2.79,2.79,0,0,0,3-2.95,4.38,4.38,0,0,0-2.92-4.25,3.57,3.57,0,0,0-1-.15Z" transform="translate(-4.58 -5.68)"/><path d="M530.77,356c6.45,0,9.27,4.47,9.27,8.65,0,4.72-3.44,8.37-9,8.37-5.82,0-9.23-3.83-9.23-8.64C521.84,359.32,525.47,356,530.77,356Zm.21,13.8c3.82,0,6.69-2.19,6.69-5.28s-2.84-5.3-6.79-5.3c-2.94,0-6.67,1.48-6.67,5.24S527.68,369.75,531,369.75Z" transform="translate(-4.58 -5.68)"/><path d="M514.09,329.28h21.07c1.54,0,3.28-.06,4.49-.14V332l-3,.16v.09a6.38,6.38,0,0,1,3.4,5.9c0,4.22-3.56,7.48-8.84,7.48-5.82,0-9.36-3.59-9.36-7.83a5.83,5.83,0,0,1,2.64-5.25v-.07H514.09Zm15.23,3.15a6.86,6.86,0,0,0-1.35.13,4.68,4.68,0,0,0-3.64,4.59c0,3.28,2.87,5.24,6.7,5.24,3.53,0,6.47-1.76,6.47-5.18a4.77,4.77,0,0,0-3.8-4.62,4.93,4.93,0,0,0-1.36-.16Z" transform="translate(-4.58 -5.68)"/><path d="M531.51,322.23c4.28-.06,6-2.78,6-6a11.81,11.81,0,0,0-.89-4.82l2.24-.55a14,14,0,0,1,1.11,5.81c0,5.34-3.56,8.56-8.78,8.56s-9.4-3.11-9.4-8.19c0-5.68,5-7.16,8.19-7.16a7.67,7.67,0,0,1,1.48.11ZM529.24,313c-2,0-5.13.81-5.13,4.36,0,3.23,2.92,4.61,5.13,4.86Z" transform="translate(-4.58 -5.68)"/><path d="M515.39,298.24v-3.15H537V284.72h2.65v13.52Z" transform="translate(-4.58 -5.68)"/><path d="M517.32,277.81a2,2,0,1,1,0,3.92,1.92,1.92,0,0,1-2-2A1.88,1.88,0,0,1,517.32,277.81Zm22.33,3.53H522.24v-3.15h17.41Z" transform="translate(-4.58 -5.68)"/><path d="M526.94,272.92c-1.82,0-3.26.06-4.7.14v-2.75l2.8-.16v-.09a6,6,0,0,1-3.2-5.5,5.11,5.11,0,0,1,3.49-4.9v-.08a6.89,6.89,0,0,1-2.26-2,5.88,5.88,0,0,1-1.23-3.83c0-2.32,1.5-5.75,7.56-5.75h10.25v3.09H529.8c-3.37,0-5.37,1.25-5.37,3.78a4.13,4.13,0,0,0,2.85,3.77,5.29,5.29,0,0,0,1.59.26h10.78V262H529.2c-2.77,0-4.77,1.22-4.77,3.61a4.39,4.39,0,0,0,3.16,3.95,5,5,0,0,0,1.56.24h10.5v3.09Z" transform="translate(-4.58 -5.68)"/><path d="M539.65,233.24l-2.2.28v.1a6.45,6.45,0,0,1,2.59,5.32,5,5,0,0,1-5,5.32c-4.22,0-6.54-3.74-6.49-10.46h-.37c-1.41,0-4,.4-4,4a8.52,8.52,0,0,0,1.29,4.54l-2.1.72a11,11,0,0,1-1.53-5.75c0-5.32,3.64-6.62,7.13-6.62h6.51a28,28,0,0,0,4.17-.26Zm-8.89.5c-.08,3.42.54,7.35,3.91,7.35a2.79,2.79,0,0,0,3-3,4.36,4.36,0,0,0-2.92-4.24,3.24,3.24,0,0,0-1-.15Z" transform="translate(-4.58 -5.68)"/></g><g class="cls-2"><path d="M1024.72,585.68a33.09,33.09,0,0,1-.52-6c0-3.33.63-5.52,2-7a6.08,6.08,0,0,1,4.61-1.91,6.42,6.42,0,0,1,6.19,4.58h.08c.65-1.85,2.4-3,4.92-3.56a40.11,40.11,0,0,0,6.66-1.87v3.25a32.8,32.8,0,0,1-5.81,1.6c-3.33.72-4.61,2-4.71,4.87v3h10.52v3.13Zm11-3.13v-3.2c0-3.35-1.83-5.48-4.61-5.48-3.15,0-4.52,2.27-4.52,5.58a13.4,13.4,0,0,0,.28,3.1Z" transform="translate(-4.58 -5.68)"/><path d="M1043.88,551.89c1.83,0,3.39-.06,4.77-.15v2.8l-2.85.17v.09a6.49,6.49,0,0,1,3.24,5.76c0,2.72-1.53,6-7.63,6h-10.17V563.4h9.62c3.31,0,5.57-1,5.57-3.89a4.62,4.62,0,0,0-2.91-4.19,4.94,4.94,0,0,0-1.62-.28h-10.66v-3.15Z" transform="translate(-4.58 -5.68)"/><path d="M1048.65,537l-2.2.27v.1a6.45,6.45,0,0,1,2.59,5.32,5,5,0,0,1-5,5.32c-4.22,0-6.54-3.74-6.49-10.46h-.37c-1.41,0-4,.4-4,4a8.52,8.52,0,0,0,1.29,4.54l-2.1.72a11,11,0,0,1-1.53-5.75c0-5.32,3.64-6.62,7.13-6.62h6.51a28,28,0,0,0,4.17-.26Zm-8.89.49c-.08,3.42.54,7.34,3.91,7.34a2.79,2.79,0,0,0,3-2.95,4.36,4.36,0,0,0-2.92-4.24,3.24,3.24,0,0,0-1-.15Z" transform="translate(-4.58 -5.68)"/><path d="M1027,518.38v7.39h-2.65v-18H1027v7.43h21.62v3.15Z" transform="translate(-4.58 -5.68)"/><path d="M1031.24,505.43,1041,502c1.61-.58,3-1,4.49-1.42v-.1c-1.44-.39-2.89-.89-4.49-1.45l-9.76-3.41v-3.31l17.41,6.85v3l-17.41,6.63Z" transform="translate(-4.58 -5.68)"/><path d="M1046.78,491.49a2.14,2.14,0,0,1-2.28-2.15,2.27,2.27,0,1,1,2.28,2.15Z" transform="translate(-4.58 -5.68)"/><path d="M1048.65,471.5l-24.27,7.95V476l12-3.76c3.27-1,6.22-1.95,9.05-2.6v-.08c-2.81-.68-5.86-1.68-9-2.77l-12-4.1v-3.35l24.27,8.67Z" transform="translate(-4.58 -5.68)"/><path d="M1026.32,453.9a1.9,1.9,0,0,1,2,2,1.88,1.88,0,0,1-2,1.91,1.92,1.92,0,0,1-2-2A1.89,1.89,0,0,1,1026.32,453.9Zm22.33,3.54h-17.41v-3.15h17.41Z" transform="translate(-4.58 -5.68)"/><path d="M1035.94,449c-1.82,0-3.26.06-4.7.15v-2.8l2.86-.18v-.09a6.42,6.42,0,0,1-3.26-5.75c0-2.39,1.44-6.14,7.42-6.14h10.39v3.15h-10c-2.82,0-5.17,1.06-5.17,4a4.53,4.53,0,0,0,3.25,4.26,4.6,4.6,0,0,0,1.47.22h10.49V449Z" transform="translate(-4.58 -5.68)"/><path d="M1026.23,425.38h5v-4.55h2.4v4.55H1043c2.17,0,3.39-.63,3.39-2.4a6.17,6.17,0,0,0-.23-1.83l2.41-.15a8.19,8.19,0,0,1,.43,2.83,4.44,4.44,0,0,1-1.34,3.42c-1,.87-2.49,1.23-4.54,1.23h-9.5v2.69h-2.4v-2.69H1027Z" transform="translate(-4.58 -5.68)"/><path d="M1040.51,415.7c4.28-.06,6-2.77,6-5.95a11.78,11.78,0,0,0-.89-4.82l2.24-.56a14,14,0,0,1,1.11,5.81c0,5.35-3.56,8.56-8.78,8.56s-9.4-3.1-9.4-8.19c0-5.68,5-7.16,8.19-7.16a7.67,7.67,0,0,1,1.48.11Zm-2.27-9.26c-2,0-5.13.81-5.13,4.36,0,3.24,2.92,4.61,5.13,4.87Z" transform="translate(-4.58 -5.68)"/><path d="M1040.51,390c4.28-.07,6-2.78,6-6a11.78,11.78,0,0,0-.89-4.82l2.24-.56a14,14,0,0,1,1.11,5.81c0,5.35-3.56,8.57-8.78,8.57s-9.4-3.11-9.4-8.19c0-5.68,5-7.17,8.19-7.17a7.67,7.67,0,0,1,1.48.11Zm-2.27-9.27c-2,0-5.13.82-5.13,4.37,0,3.23,2.92,4.61,5.13,4.86Z" transform="translate(-4.58 -5.68)"/><path d="M1048.65,366.05h-24.27V362.6l12.27-7.77a70.16,70.16,0,0,1,7.9-4.33l0-.08c-3.24.29-6.2.34-10,.34h-10.17v-2.95h24.27V351l-12.3,7.71a80.25,80.25,0,0,1-8.12,4.51l0,.11c3.08-.19,6-.23,10-.23h10.38Z" transform="translate(-4.58 -5.68)"/><path d="M1039.77,326.77c6.45,0,9.27,4.47,9.27,8.65,0,4.73-3.44,8.37-9,8.37-5.82,0-9.23-3.83-9.23-8.64C1030.84,330.14,1034.47,326.77,1039.77,326.77Zm.21,13.8c3.81,0,6.69-2.19,6.69-5.28s-2.84-5.3-6.79-5.3c-2.94,0-6.67,1.48-6.67,5.25S1036.68,340.57,1040,340.57Z" transform="translate(-4.58 -5.68)"/><path d="M1031.24,321.79l9.76-3.41c1.61-.59,3-1,4.49-1.43v-.09c-1.44-.4-2.89-.9-4.49-1.46l-9.76-3.4v-3.31l17.41,6.85v3l-17.41,6.62Z" transform="translate(-4.58 -5.68)"/><path d="M1040.51,304.29c4.28-.07,6-2.78,6-6a11.78,11.78,0,0,0-.89-4.82l2.24-.56a14,14,0,0,1,1.11,5.81c0,5.35-3.56,8.57-8.78,8.57s-9.4-3.11-9.4-8.2c0-5.67,5-7.16,8.19-7.16a7.67,7.67,0,0,1,1.48.11Zm-2.27-9.27c-2,0-5.13.82-5.13,4.37,0,3.23,2.92,4.6,5.13,4.86Z" transform="translate(-4.58 -5.68)"/><path d="M1023.09,265.37h21.07c1.54,0,3.28-.06,4.49-.15V268l-3,.16v.08a6.37,6.37,0,0,1,3.41,5.91c0,4.21-3.56,7.47-8.84,7.47-5.82,0-9.36-3.59-9.36-7.82a5.82,5.82,0,0,1,2.64-5.26v-.07h-10.39Zm15.23,3.14a6.19,6.19,0,0,0-1.35.14,4.67,4.67,0,0,0-3.64,4.58c0,3.28,2.87,5.24,6.7,5.24,3.53,0,6.47-1.76,6.47-5.18a4.78,4.78,0,0,0-3.8-4.62,5.34,5.34,0,0,0-1.36-.16Z" transform="translate(-4.58 -5.68)"/><path d="M1040.51,258.31c4.28-.06,6-2.77,6-5.95a11.78,11.78,0,0,0-.89-4.82l2.24-.56a14,14,0,0,1,1.11,5.81c0,5.35-3.56,8.56-8.78,8.56s-9.4-3.1-9.4-8.19c0-5.68,5-7.16,8.19-7.16a7.67,7.67,0,0,1,1.48.11Zm-2.27-9.26c-2,0-5.13.82-5.13,4.37,0,3.23,2.92,4.6,5.13,4.86Z" transform="translate(-4.58 -5.68)"/><path d="M1024.38,229.36v-3.15h16.22c6.46,0,8.44,3.17,8.44,7.34a10.47,10.47,0,0,1-.56,3.36l-2.56-.46a7.56,7.56,0,0,0,.46-2.65c0-2.8-1.27-4.44-6-4.44Z" transform="translate(-4.58 -5.68)"/><path d="M1048.65,211.45l-2.2.28v.09a6.47,6.47,0,0,1,2.59,5.33,5,5,0,0,1-5,5.31c-4.22,0-6.54-3.73-6.49-10.46h-.37c-1.41,0-4,.4-4,4a8.48,8.48,0,0,0,1.29,4.53l-2.1.72a11,11,0,0,1-1.53-5.75c0-5.32,3.64-6.62,7.13-6.62h6.51a26.71,26.71,0,0,0,4.17-.26Zm-8.89.49c-.08,3.43.54,7.35,3.91,7.35a2.79,2.79,0,0,0,3-3,4.36,4.36,0,0,0-2.92-4.24,3.24,3.24,0,0,0-1-.15Z" transform="translate(-4.58 -5.68)"/><path d="M1035.94,203.75c-1.82,0-3.26.06-4.7.14v-2.8l2.86-.17v-.09a6.44,6.44,0,0,1-3.26-5.76c0-2.39,1.44-6.13,7.42-6.13h10.39v3.15h-10c-2.82,0-5.17,1.06-5.17,4a4.55,4.55,0,0,0,3.25,4.27,4.89,4.89,0,0,0,1.47.22h10.49v3.15Z" transform="translate(-4.58 -5.68)"/><path d="M1040.51,182c4.28-.07,6-2.78,6-6a11.78,11.78,0,0,0-.89-4.82l2.24-.56a14,14,0,0,1,1.11,5.81c0,5.35-3.56,8.57-8.78,8.57s-9.4-3.11-9.4-8.2c0-5.67,5-7.16,8.19-7.16a7.67,7.67,0,0,1,1.48.11Zm-2.27-9.27c-2,0-5.13.82-5.13,4.37,0,3.23,2.92,4.6,5.13,4.86Z" transform="translate(-4.58 -5.68)"/><path d="M1026.32,162.19a1.91,1.91,0,0,1,2,2,1.89,1.89,0,0,1-2,1.91,1.92,1.92,0,0,1-2-2A1.9,1.9,0,0,1,1026.32,162.19Zm22.33,3.54h-17.41v-3.15h17.41Z" transform="translate(-4.58 -5.68)"/><path d="M1036.66,157.31c-2.06,0-3.81.06-5.42.15v-2.78l3.41-.12v-.11a5.29,5.29,0,0,1-3.81-4.85,3.5,3.5,0,0,1,.09-.88h3a4.9,4.9,0,0,0-.09,1.08c0,2.23,1.68,3.81,4,4.24a8.49,8.49,0,0,0,1.47.12h9.31v3.15Z" transform="translate(-4.58 -5.68)"/><path d="M1039.77,130.14c6.45,0,9.27,4.47,9.27,8.66,0,4.72-3.44,8.36-9,8.36-5.82,0-9.23-3.83-9.23-8.64C1030.84,133.51,1034.47,130.14,1039.77,130.14Zm.21,13.8c3.81,0,6.69-2.19,6.69-5.27s-2.84-5.31-6.79-5.31c-2.94,0-6.67,1.48-6.67,5.25S1036.68,143.94,1040,143.94Z" transform="translate(-4.58 -5.68)"/></g><g class="cls-2"><path d="M139.41,675.45a33.09,33.09,0,0,1,6-.52c3.33,0,5.52.63,7,2a6.06,6.06,0,0,1,1.91,4.61,6.4,6.4,0,0,1-4.58,6.18v.09c1.85.65,3,2.4,3.56,4.91a40.11,40.11,0,0,0,1.87,6.66H152a32.52,32.52,0,0,1-1.6-5.81c-.72-3.32-2-4.61-4.87-4.7h-3v10.51h-3.13Zm3.13,11h3.2c3.35,0,5.48-1.83,5.48-4.61,0-3.15-2.28-4.52-5.58-4.53a13.4,13.4,0,0,0-3.1.28Z" transform="translate(-4.58 -5.68)"/><path d="M173.2,694.62c0,1.82.06,3.38.15,4.76h-2.8l-.17-2.85h-.09a6.5,6.5,0,0,1-5.76,3.25c-2.72,0-6-1.53-6-7.63V682h3.15v9.62c0,3.32,1,5.58,3.89,5.58a4.62,4.62,0,0,0,4.19-2.91,5,5,0,0,0,.28-1.62V682h3.15Z" transform="translate(-4.58 -5.68)"/><path d="M188.14,699.38l-.28-2.2h-.1a6.46,6.46,0,0,1-5.32,2.6,5,5,0,0,1-5.32-5c0-4.21,3.74-6.53,10.46-6.48v-.37c0-1.42-.4-4-4-4a8.44,8.44,0,0,0-4.54,1.3l-.72-2.11a11,11,0,0,1,5.75-1.52c5.32,0,6.62,3.63,6.62,7.12v6.51a26.63,26.63,0,0,0,.26,4.17Zm-.5-8.89c-3.42-.07-7.35.55-7.35,3.91a2.79,2.79,0,0,0,3,3,4.35,4.35,0,0,0,4.24-2.91,3.33,3.33,0,0,0,.15-1Z" transform="translate(-4.58 -5.68)"/><path d="M206.71,677.77h-7.39v-2.65h18v2.65h-7.43v21.61h-3.15Z" transform="translate(-4.58 -5.68)"/><path d="M218.26,687.39c0-2,0-3.8-.15-5.42h2.78l.12,3.42h.11a5.27,5.27,0,0,1,4.85-3.81,3.5,3.5,0,0,1,.88.09v3a5.59,5.59,0,0,0-1.08-.09c-2.23,0-3.81,1.68-4.24,4.05a8.7,8.7,0,0,0-.12,1.48v9.3h-3.15Z" transform="translate(-4.58 -5.68)"/><path d="M239.51,699.38l-.28-2.2h-.1a6.46,6.46,0,0,1-5.32,2.6,5,5,0,0,1-5.32-5c0-4.21,3.74-6.53,10.46-6.48v-.37c0-1.42-.4-4-4-4a8.44,8.44,0,0,0-4.54,1.3l-.71-2.11a10.91,10.91,0,0,1,5.74-1.52c5.32,0,6.62,3.63,6.62,7.12v6.51a27.9,27.9,0,0,0,.26,4.17Zm-.5-8.89c-3.42-.07-7.34.55-7.34,3.91a2.78,2.78,0,0,0,3,3,4.35,4.35,0,0,0,4.24-2.91,3.33,3.33,0,0,0,.15-1Z" transform="translate(-4.58 -5.68)"/><path d="M248.14,682l3.41,9.76c.59,1.62,1,3,1.43,4.5h.09c.4-1.45.9-2.9,1.46-4.5l3.41-9.76h3.31l-6.85,17.41h-3L244.75,682Z" transform="translate(-4.58 -5.68)"/><path d="M265.65,691.25c.06,4.28,2.77,6,6,6a11.7,11.7,0,0,0,4.83-.89l.55,2.25a14,14,0,0,1-5.81,1.11c-5.35,0-8.56-3.56-8.56-8.79s3.1-9.39,8.19-9.39c5.68,0,7.16,5,7.16,8.18a7.79,7.79,0,0,1-.11,1.49Zm9.26-2.28c0-2-.81-5.12-4.36-5.12-3.24,0-4.61,2.92-4.86,5.12Z" transform="translate(-4.58 -5.68)"/><path d="M281.46,696.16a8.72,8.72,0,0,0,4.2,1.24c2.31,0,3.38-1.14,3.38-2.59s-.92-2.32-3.23-3.19c-3.15-1.14-4.64-2.85-4.63-4.94,0-2.8,2.28-5.1,6-5.1a8.47,8.47,0,0,1,4.27,1.07l-.79,2.3a6.85,6.85,0,0,0-3.57-1c-1.87,0-2.89,1.08-2.89,2.39s1,2.09,3.31,3c3,1.12,4.56,2.63,4.57,5.23,0,3.09-2.4,5.25-6.51,5.25a10,10,0,0,1-4.9-1.21Z" transform="translate(-4.58 -5.68)"/><path d="M295.72,696.16a8.68,8.68,0,0,0,4.19,1.24c2.32,0,3.39-1.14,3.39-2.59s-.92-2.32-3.24-3.19c-3.14-1.14-4.63-2.85-4.62-4.94,0-2.8,2.27-5.1,6-5.1a8.43,8.43,0,0,1,4.26,1.07l-.78,2.3a6.86,6.86,0,0,0-3.58-1c-1.86,0-2.88,1.08-2.88,2.39s1,2.09,3.31,3c3,1.12,4.55,2.63,4.56,5.23,0,3.09-2.39,5.25-6.51,5.25a10,10,0,0,1-4.89-1.21Z" transform="translate(-4.58 -5.68)"/><path d="M320.07,699.38l-.28-2.2h-.09a6.48,6.48,0,0,1-5.33,2.6,5,5,0,0,1-5.31-5c0-4.21,3.73-6.53,10.46-6.48v-.37c0-1.42-.4-4-4-4a8.44,8.44,0,0,0-4.54,1.3l-.72-2.11a11,11,0,0,1,5.75-1.52c5.32,0,6.62,3.63,6.62,7.12v6.51a26.63,26.63,0,0,0,.26,4.17Zm-.49-8.89c-3.42-.07-7.35.55-7.35,3.91a2.79,2.79,0,0,0,3,3,4.35,4.35,0,0,0,4.24-2.91,3.33,3.33,0,0,0,.15-1Z" transform="translate(-4.58 -5.68)"/><path d="M338.63,675.12V689.5c0,5.41,2.41,7.71,5.68,7.71,3.57,0,5.9-2.38,5.9-7.71V675.12h3.15v14.16c0,7.45-3.92,10.5-9.18,10.5-5,0-8.7-2.83-8.7-10.37V675.12Z" transform="translate(-4.58 -5.68)"/><path d="M358.66,686.67c0-1.81-.06-3.25-.14-4.7h2.75l.17,2.81h.08a6,6,0,0,1,5.5-3.2,5.12,5.12,0,0,1,4.91,3.49H372a7.05,7.05,0,0,1,2-2.27,6,6,0,0,1,3.83-1.22c2.33,0,5.75,1.5,5.75,7.55v10.25h-3.09v-9.84c0-3.38-1.24-5.37-3.78-5.37A4.14,4.14,0,0,0,372.9,687a5.18,5.18,0,0,0-.25,1.58v10.78h-3.09V688.93c0-2.77-1.23-4.76-3.62-4.76a4.37,4.37,0,0,0-3.95,3.16,5.15,5.15,0,0,0-.24,1.56v10.49h-3.09Z" transform="translate(-4.58 -5.68)"/></g><g class="cls-2"><path d="M660.22,676a33.09,33.09,0,0,1,6-.52c3.33,0,5.52.63,7,2a6.1,6.1,0,0,1,1.91,4.62,6.42,6.42,0,0,1-4.58,6.18v.09c1.85.65,3,2.4,3.56,4.91a41.17,41.17,0,0,0,1.87,6.66h-3.25a32.52,32.52,0,0,1-1.6-5.81c-.72-3.32-2-4.61-4.87-4.71h-3v10.52h-3.13Zm3.13,11h3.2c3.35,0,5.48-1.82,5.48-4.6,0-3.15-2.27-4.52-5.58-4.53a13.4,13.4,0,0,0-3.1.28Z" transform="translate(-4.58 -5.68)"/><path d="M694,695.11c0,1.83.06,3.39.15,4.77h-2.8l-.17-2.85h-.09a6.49,6.49,0,0,1-5.76,3.24c-2.72,0-6-1.52-6-7.63V682.47h3.15v9.62c0,3.31,1,5.57,3.89,5.57a4.61,4.61,0,0,0,4.19-2.9,5,5,0,0,0,.28-1.63V682.47H694Z" transform="translate(-4.58 -5.68)"/><path d="M709,699.88l-.28-2.2h-.1a6.45,6.45,0,0,1-5.32,2.59,5,5,0,0,1-5.32-5c0-4.22,3.74-6.53,10.46-6.49v-.37c0-1.41-.4-4-4-4a8.44,8.44,0,0,0-4.54,1.3l-.72-2.11a11,11,0,0,1,5.75-1.53c5.32,0,6.62,3.64,6.62,7.13v6.51a28,28,0,0,0,.26,4.17Zm-.5-8.89c-3.42-.07-7.34.54-7.34,3.91a2.78,2.78,0,0,0,2.95,3A4.35,4.35,0,0,0,708.3,695a3.22,3.22,0,0,0,.15-1Z" transform="translate(-4.58 -5.68)"/><path d="M727.52,678.26h-7.39v-2.64h18v2.64h-7.43v21.62h-3.15Z" transform="translate(-4.58 -5.68)"/><path d="M739.07,687.89c0-2-.05-3.81-.15-5.42h2.78l.12,3.41h.11a5.29,5.29,0,0,1,4.85-3.81,4,4,0,0,1,.88.09v3a4.9,4.9,0,0,0-1.08-.09c-2.23,0-3.8,1.68-4.23,4.05a7.62,7.62,0,0,0-.13,1.48v9.3h-3.15Z" transform="translate(-4.58 -5.68)"/><path d="M760.32,699.88l-.28-2.2h-.1a6.45,6.45,0,0,1-5.32,2.59,5,5,0,0,1-5.32-5c0-4.22,3.74-6.53,10.46-6.49v-.37c0-1.41-.39-4-4-4a8.46,8.46,0,0,0-4.54,1.3l-.71-2.11a10.94,10.94,0,0,1,5.74-1.53c5.32,0,6.62,3.64,6.62,7.13v6.51a28,28,0,0,0,.26,4.17Zm-.49-8.89c-3.43-.07-7.35.54-7.35,3.91a2.78,2.78,0,0,0,2.95,3,4.36,4.36,0,0,0,4.25-2.92,3.22,3.22,0,0,0,.15-1Z" transform="translate(-4.58 -5.68)"/><path d="M769,682.47l3.41,9.76c.59,1.61,1,3,1.43,4.5h.09c.4-1.45.9-2.9,1.46-4.5l3.41-9.76h3.31l-6.85,17.41h-3l-6.63-17.41Z" transform="translate(-4.58 -5.68)"/><path d="M786.46,691.75c.06,4.27,2.78,6,6,6a11.81,11.81,0,0,0,4.82-.89l.55,2.25a14.14,14.14,0,0,1-5.81,1.11c-5.35,0-8.56-3.57-8.56-8.79s3.11-9.4,8.19-9.4c5.68,0,7.16,5,7.16,8.19a8,8,0,0,1-.1,1.49Zm9.26-2.28c0-2-.81-5.13-4.36-5.13-3.24,0-4.61,2.92-4.86,5.13Z" transform="translate(-4.58 -5.68)"/><path d="M802.27,696.65a8.61,8.61,0,0,0,4.2,1.24c2.31,0,3.38-1.13,3.38-2.59s-.92-2.32-3.23-3.18c-3.15-1.14-4.64-2.86-4.63-4.94,0-2.8,2.28-5.11,6-5.11a8.34,8.34,0,0,1,4.27,1.08l-.79,2.3a6.82,6.82,0,0,0-3.57-1c-1.87,0-2.88,1.08-2.88,2.39s1,2.08,3.3,3c3,1.12,4.56,2.63,4.57,5.23,0,3.09-2.4,5.25-6.51,5.25a9.89,9.89,0,0,1-4.89-1.22Z" transform="translate(-4.58 -5.68)"/><path d="M816.53,696.65a8.58,8.58,0,0,0,4.2,1.24c2.31,0,3.38-1.13,3.38-2.59s-.92-2.32-3.24-3.18c-3.14-1.14-4.63-2.86-4.62-4.94,0-2.8,2.28-5.11,6-5.11a8.3,8.3,0,0,1,4.26,1.08l-.78,2.3a6.85,6.85,0,0,0-3.57-1c-1.87,0-2.89,1.08-2.89,2.39s1,2.08,3.31,3c3,1.12,4.56,2.63,4.56,5.23,0,3.09-2.39,5.25-6.51,5.25a10,10,0,0,1-4.89-1.22Z" transform="translate(-4.58 -5.68)"/><path d="M840.89,699.88l-.28-2.2h-.1a6.45,6.45,0,0,1-5.32,2.59,5,5,0,0,1-5.32-5c0-4.22,3.74-6.53,10.46-6.49v-.37c0-1.41-.4-4-4-4a8.44,8.44,0,0,0-4.54,1.3l-.72-2.11a11,11,0,0,1,5.75-1.53c5.32,0,6.62,3.64,6.62,7.13v6.51a28,28,0,0,0,.26,4.17Zm-.5-8.89c-3.42-.07-7.35.54-7.35,3.91a2.79,2.79,0,0,0,3,3,4.35,4.35,0,0,0,4.24-2.92,3.22,3.22,0,0,0,.15-1Z" transform="translate(-4.58 -5.68)"/><path d="M859.45,675.62V690c0,5.41,2.4,7.7,5.67,7.7,3.57,0,5.9-2.37,5.9-7.7V675.62h3.15v14.15c0,7.46-3.92,10.5-9.18,10.5-5,0-8.7-2.82-8.7-10.36V675.62Z" transform="translate(-4.58 -5.68)"/><path d="M879.47,687.17c0-1.81-.06-3.26-.14-4.7h2.75l.17,2.8h.08a6,6,0,0,1,5.5-3.2,5.13,5.13,0,0,1,4.91,3.49h.07a7,7,0,0,1,2-2.26,6,6,0,0,1,3.83-1.23c2.33,0,5.75,1.5,5.75,7.56v10.25h-3.09V690c0-3.37-1.24-5.36-3.78-5.36a4.11,4.11,0,0,0-3.76,2.84,5,5,0,0,0-.26,1.59v10.78h-3.09V689.43c0-2.77-1.23-4.76-3.62-4.76a4.39,4.39,0,0,0-4,3.15,5.25,5.25,0,0,0-.24,1.56v10.5h-3.09Z" transform="translate(-4.58 -5.68)"/></g><g class="cls-2"><path d="M1165.22,676a33.09,33.09,0,0,1,6-.52c3.33,0,5.52.63,7,2a6.13,6.13,0,0,1,1.9,4.62,6.42,6.42,0,0,1-4.57,6.18v.09c1.85.65,3,2.4,3.55,4.91a41.17,41.17,0,0,0,1.87,6.66h-3.25a32.52,32.52,0,0,1-1.6-5.81c-.72-3.32-2-4.61-4.86-4.71h-3v10.52h-3.13Zm3.13,11h3.2c3.36,0,5.48-1.82,5.48-4.6,0-3.15-2.27-4.52-5.58-4.53a13.4,13.4,0,0,0-3.1.28Z" transform="translate(-4.58 -5.68)"/><path d="M1199,695.11c0,1.83.06,3.39.15,4.77h-2.8l-.17-2.85h-.09a6.49,6.49,0,0,1-5.76,3.24c-2.72,0-6-1.52-6-7.63V682.47h3.15v9.62c0,3.31,1,5.57,3.89,5.57a4.61,4.61,0,0,0,4.19-2.9,5,5,0,0,0,.29-1.63V682.47H1199Z" transform="translate(-4.58 -5.68)"/><path d="M1214,699.88l-.28-2.2h-.1a6.45,6.45,0,0,1-5.32,2.59,5,5,0,0,1-5.32-5c0-4.22,3.74-6.53,10.46-6.49v-.37c0-1.41-.4-4-4-4a8.44,8.44,0,0,0-4.54,1.3l-.72-2.11a11,11,0,0,1,5.75-1.53c5.32,0,6.62,3.64,6.62,7.13v6.51a28,28,0,0,0,.26,4.17Zm-.5-8.89c-3.42-.07-7.34.54-7.34,3.91a2.78,2.78,0,0,0,3,3,4.35,4.35,0,0,0,4.24-2.92,3.22,3.22,0,0,0,.15-1Z" transform="translate(-4.58 -5.68)"/><path d="M1232.53,678.26h-7.4v-2.64h18v2.64h-7.43v21.62h-3.14Z" transform="translate(-4.58 -5.68)"/><path d="M1244.07,687.89c0-2,0-3.81-.15-5.42h2.78l.12,3.41h.11a5.31,5.31,0,0,1,4.85-3.81,4,4,0,0,1,.88.09v3a4.9,4.9,0,0,0-1.08-.09c-2.23,0-3.8,1.68-4.23,4.05a7.62,7.62,0,0,0-.13,1.48v9.3h-3.15Z" transform="translate(-4.58 -5.68)"/><path d="M1265.32,699.88l-.28-2.2H1265a6.49,6.49,0,0,1-5.33,2.59,5,5,0,0,1-5.32-5c0-4.22,3.74-6.53,10.46-6.49v-.37c0-1.41-.39-4-4-4a8.46,8.46,0,0,0-4.54,1.3l-.71-2.11a10.94,10.94,0,0,1,5.74-1.53c5.32,0,6.62,3.64,6.62,7.13v6.51a28,28,0,0,0,.26,4.17Zm-.49-8.89c-3.43-.07-7.35.54-7.35,3.91a2.78,2.78,0,0,0,3,3,4.36,4.36,0,0,0,4.25-2.92,3.22,3.22,0,0,0,.15-1Z" transform="translate(-4.58 -5.68)"/><path d="M1274,682.47l3.41,9.76c.59,1.61,1,3,1.43,4.5h.09c.4-1.45.9-2.9,1.46-4.5l3.41-9.76h3.31l-6.85,17.41h-3l-6.63-17.41Z" transform="translate(-4.58 -5.68)"/><path d="M1291.46,691.75c.06,4.27,2.78,6,6,6a11.81,11.81,0,0,0,4.82-.89l.55,2.25a14.14,14.14,0,0,1-5.81,1.11c-5.35,0-8.56-3.57-8.56-8.79s3.11-9.4,8.19-9.4c5.68,0,7.16,5,7.16,8.19a8,8,0,0,1-.1,1.49Zm9.26-2.28c0-2-.81-5.13-4.36-5.13-3.24,0-4.61,2.92-4.86,5.13Z" transform="translate(-4.58 -5.68)"/><path d="M1307.27,696.65a8.61,8.61,0,0,0,4.2,1.24c2.31,0,3.38-1.13,3.38-2.59s-.92-2.32-3.23-3.18c-3.15-1.14-4.64-2.86-4.63-4.94,0-2.8,2.28-5.11,6-5.11a8.34,8.34,0,0,1,4.27,1.08l-.79,2.3a6.82,6.82,0,0,0-3.57-1c-1.87,0-2.88,1.08-2.88,2.39s1,2.08,3.3,3c3,1.12,4.56,2.63,4.57,5.23,0,3.09-2.4,5.25-6.51,5.25a9.89,9.89,0,0,1-4.89-1.22Z" transform="translate(-4.58 -5.68)"/><path d="M1321.53,696.65a8.58,8.58,0,0,0,4.2,1.24c2.31,0,3.38-1.13,3.38-2.59s-.92-2.32-3.24-3.18c-3.14-1.14-4.63-2.86-4.62-4.94,0-2.8,2.28-5.11,6-5.11a8.3,8.3,0,0,1,4.26,1.08l-.78,2.3a6.85,6.85,0,0,0-3.57-1c-1.87,0-2.89,1.08-2.89,2.39s1,2.08,3.31,3c3,1.12,4.56,2.63,4.56,5.23,0,3.09-2.39,5.25-6.51,5.25a10,10,0,0,1-4.89-1.22Z" transform="translate(-4.58 -5.68)"/><path d="M1345.89,699.88l-.28-2.2h-.1a6.45,6.45,0,0,1-5.32,2.59,5,5,0,0,1-5.32-5c0-4.22,3.74-6.53,10.46-6.49v-.37c0-1.41-.4-4-4-4a8.44,8.44,0,0,0-4.54,1.3l-.72-2.11a11,11,0,0,1,5.75-1.53c5.32,0,6.62,3.64,6.62,7.13v6.51a28,28,0,0,0,.26,4.17Zm-.5-8.89c-3.42-.07-7.35.54-7.35,3.91a2.79,2.79,0,0,0,3,3,4.35,4.35,0,0,0,4.24-2.92,3.22,3.22,0,0,0,.15-1Z" transform="translate(-4.58 -5.68)"/><path d="M1364.45,675.62V690c0,5.41,2.4,7.7,5.67,7.7,3.57,0,5.9-2.37,5.9-7.7V675.62h3.15v14.15c0,7.46-3.92,10.5-9.18,10.5-5,0-8.7-2.82-8.7-10.36V675.62Z" transform="translate(-4.58 -5.68)"/><path d="M1384.47,687.17c0-1.81-.06-3.26-.14-4.7h2.75l.17,2.8h.08a6,6,0,0,1,5.5-3.2,5.13,5.13,0,0,1,4.91,3.49h.07a7,7,0,0,1,2-2.26,6,6,0,0,1,3.83-1.23c2.33,0,5.75,1.5,5.75,7.56v10.25h-3.09V690c0-3.37-1.24-5.36-3.78-5.36a4.11,4.11,0,0,0-3.76,2.84,5,5,0,0,0-.26,1.59v10.78h-3.09V689.43c0-2.77-1.23-4.76-3.62-4.76a4.39,4.39,0,0,0-4,3.15,5.25,5.25,0,0,0-.24,1.56v10.5h-3.09Z" transform="translate(-4.58 -5.68)"/></g><g class="cls-2"><path d="M1531.72,527.33a33.29,33.29,0,0,1-.52-6c0-3.33.63-5.52,2-7a6.07,6.07,0,0,1,4.61-1.9,6.41,6.41,0,0,1,6.19,4.57h.08c.65-1.85,2.4-3,4.92-3.56a41.53,41.53,0,0,0,6.66-1.86v3.25a32.21,32.21,0,0,1-5.81,1.59c-3.33.72-4.61,2-4.71,4.87v3h10.52v3.14Zm11-3.14V521c0-3.35-1.83-5.48-4.61-5.48-3.15,0-4.52,2.28-4.52,5.58a13.4,13.4,0,0,0,.28,3.1Z" transform="translate(-4.58 -5.68)"/><path d="M1550.88,493.53c1.83,0,3.39-.06,4.77-.15v2.8l-2.85.17v.09a6.49,6.49,0,0,1,3.24,5.76c0,2.72-1.53,6-7.63,6h-10.17v-3.15h9.62c3.31,0,5.57-1,5.57-3.89a4.61,4.61,0,0,0-2.91-4.19,4.68,4.68,0,0,0-1.62-.29h-10.66v-3.15Z" transform="translate(-4.58 -5.68)"/><path d="M1555.65,478.6l-2.2.28V479a6.47,6.47,0,0,1,2.59,5.33,5,5,0,0,1-5,5.31c-4.22,0-6.54-3.73-6.49-10.46h-.37c-1.41,0-4,.4-4,4a8.48,8.48,0,0,0,1.29,4.53l-2.1.72a11,11,0,0,1-1.53-5.75c0-5.32,3.64-6.62,7.13-6.62h6.51a26.71,26.71,0,0,0,4.17-.26Zm-8.89.49c-.08,3.43.54,7.35,3.91,7.35a2.79,2.79,0,0,0,3-3,4.36,4.36,0,0,0-2.92-4.24,3.24,3.24,0,0,0-1-.15Z" transform="translate(-4.58 -5.68)"/><path d="M1531.38,460h14.38c5.41,0,7.71-2.4,7.71-5.68,0-3.57-2.38-5.9-7.71-5.9h-14.38v-3.15h14.16c7.46,0,10.5,3.92,10.5,9.19,0,4.95-2.83,8.69-10.36,8.69h-14.3Z" transform="translate(-4.58 -5.68)"/><path d="M1530.09,440v-3.15h25.56V440Z" transform="translate(-4.58 -5.68)"/><path d="M1533.32,427.94a1.91,1.91,0,0,1,2,2,1.89,1.89,0,0,1-2,1.91,1.92,1.92,0,0,1-2-2A1.9,1.9,0,0,1,1533.32,427.94Zm22.33,3.54h-17.41v-3.15h17.41Z" transform="translate(-4.58 -5.68)"/><path d="M1552.42,423.5a8.57,8.57,0,0,0,1.24-4.19c0-2.31-1.13-3.39-2.59-3.39s-2.32.93-3.19,3.24c-1.14,3.14-2.85,4.63-4.93,4.63-2.81,0-5.11-2.28-5.11-6a8.43,8.43,0,0,1,1.07-4.26l2.3.79a6.83,6.83,0,0,0-1,3.57c0,1.86,1.08,2.88,2.39,2.88s2.08-1,3-3.3c1.12-3,2.63-4.56,5.23-4.57,3.08,0,5.24,2.4,5.24,6.51a9.89,9.89,0,0,1-1.21,4.89Z" transform="translate(-4.58 -5.68)"/><path d="M1552.42,409.25a8.61,8.61,0,0,0,1.24-4.2c0-2.31-1.13-3.38-2.59-3.38s-2.32.92-3.19,3.23c-1.14,3.15-2.85,4.64-4.93,4.63-2.81,0-5.11-2.28-5.11-6a8.47,8.47,0,0,1,1.07-4.27l2.3.79a6.86,6.86,0,0,0-1,3.57c0,1.87,1.08,2.88,2.39,2.88s2.08-1,3-3.3c1.12-3,2.63-4.56,5.23-4.57,3.08,0,5.24,2.4,5.24,6.51a10,10,0,0,1-1.21,4.9Z" transform="translate(-4.58 -5.68)"/><path d="M1547.51,392.77c4.28-.06,6-2.78,6-6a11.81,11.81,0,0,0-.89-4.82l2.24-.55a13.94,13.94,0,0,1,1.11,5.81c0,5.34-3.56,8.56-8.78,8.56s-9.4-3.11-9.4-8.19c0-5.68,5-7.16,8.19-7.16a7.84,7.84,0,0,1,1.48.1Zm-2.27-9.26c-2,0-5.13.81-5.13,4.36,0,3.23,2.92,4.61,5.13,4.86Z" transform="translate(-4.58 -5.68)"/><path d="M1552.42,377a8.61,8.61,0,0,0,1.24-4.2c0-2.31-1.13-3.38-2.59-3.38s-2.32.92-3.19,3.23c-1.14,3.15-2.85,4.64-4.93,4.63-2.81,0-5.11-2.28-5.11-6a8.44,8.44,0,0,1,1.07-4.27l2.3.79a6.83,6.83,0,0,0-1,3.57c0,1.87,1.08,2.88,2.39,2.88s2.08-1,3-3.3c1.12-3,2.63-4.56,5.23-4.57,3.08,0,5.24,2.4,5.24,6.51a9.89,9.89,0,0,1-1.21,4.89Z" transform="translate(-4.58 -5.68)"/><path d="M1554.56,336a22,22,0,0,1,1.33,7.46c0,3.67-.93,6.71-3.21,9.07a12.35,12.35,0,0,1-9,3.37c-7.23,0-12.53-5-12.53-13.12a15.36,15.36,0,0,1,1.11-6.06l2.56.78a12.33,12.33,0,0,0-1,5.36c0,5.88,3.67,9.74,9.74,9.74s9.79-3.68,9.79-9.36a10.12,10.12,0,0,0-.65-4.16h-7.23V344h-2.51v-8Z" transform="translate(-4.58 -5.68)"/><path d="M1550.88,316.74c1.83,0,3.39-.06,4.77-.15v2.8l-2.85.17v.09a6.49,6.49,0,0,1,3.24,5.76c0,2.72-1.53,6-7.63,6h-10.17v-3.15h9.62c3.31,0,5.57-1,5.57-3.89a4.62,4.62,0,0,0-2.91-4.19,4.94,4.94,0,0,0-1.62-.28h-10.66v-3.15Z" transform="translate(-4.58 -5.68)"/><path d="M1533.32,307.92a1.9,1.9,0,0,1,2,2,1.88,1.88,0,0,1-2,1.91,2,2,0,1,1,0-3.92Zm22.33,3.54h-17.41v-3.15h17.41Z" transform="translate(-4.58 -5.68)"/><path d="M1542.94,303c-1.82,0-3.26.06-4.7.15v-2.76l2.8-.16v-.09a6,6,0,0,1-3.2-5.5,5.12,5.12,0,0,1,3.49-4.9v-.07a7,7,0,0,1-2.26-2,5.88,5.88,0,0,1-1.23-3.83c0-2.32,1.5-5.75,7.55-5.75h10.26v3.1h-9.85c-3.37,0-5.37,1.24-5.37,3.77a4.13,4.13,0,0,0,2.85,3.77,5.29,5.29,0,0,0,1.59.26h10.78v3.09H1545.2c-2.77,0-4.77,1.23-4.77,3.62a4.37,4.37,0,0,0,3.16,3.94,5,5,0,0,0,1.56.24h10.5V303Z" transform="translate(-4.58 -5.68)"/><path d="M1555.65,263.36l-2.2.28v.09a6.47,6.47,0,0,1,2.59,5.33,5,5,0,0,1-5,5.31c-4.22,0-6.54-3.73-6.49-10.46h-.37c-1.41,0-4,.4-4,4a8.48,8.48,0,0,0,1.29,4.53l-2.1.72a11,11,0,0,1-1.53-5.75c0-5.32,3.64-6.62,7.13-6.62h6.51a26.71,26.71,0,0,0,4.17-.26Zm-8.89.49c-.08,3.42.54,7.35,3.91,7.35a2.79,2.79,0,0,0,3-3,4.36,4.36,0,0,0-2.92-4.24,3.24,3.24,0,0,0-1-.15Z" transform="translate(-4.58 -5.68)"/><path d="M1543.66,255.66c-2.06,0-3.81.05-5.42.15V253l3.41-.12v-.11a5.29,5.29,0,0,1-3.81-4.85,3.5,3.5,0,0,1,.09-.88h3a4.9,4.9,0,0,0-.09,1.08c0,2.23,1.68,3.81,4,4.23a7.59,7.59,0,0,0,1.47.13h9.31v3.15Z" transform="translate(-4.58 -5.68)"/><path d="M1535.24,242.57c-2.36.06-3.76-.92-3.76-2.46a4.66,4.66,0,0,1,.8-2.23,3.74,3.74,0,0,0,.61-1.52c0-.56-.32-.91-1.53-1v-1.68c2.39,0,3.64.76,3.64,2.45a4.74,4.74,0,0,1-.75,2.21,3.52,3.52,0,0,0-.64,1.54c0,.57.62.87,1.63,1Zm20.41-8.16-2.2.28v.1a6.45,6.45,0,0,1,2.59,5.32,5,5,0,0,1-5,5.32c-4.22,0-6.54-3.74-6.49-10.46h-.37c-1.41,0-4,.39-4,4a8.54,8.54,0,0,0,1.29,4.54l-2.1.71a10.94,10.94,0,0,1-1.53-5.74c0-5.32,3.64-6.62,7.13-6.62h6.51a28,28,0,0,0,4.17-.26Zm-8.89.49c-.08,3.43.54,7.35,3.91,7.35a2.79,2.79,0,0,0,3-2.95,4.37,4.37,0,0,0-2.92-4.25,3.57,3.57,0,0,0-1-.15Z" transform="translate(-4.58 -5.68)"/><path d="M1547.51,224.94c4.28-.06,6-2.78,6-6a11.81,11.81,0,0,0-.89-4.82l2.24-.55a13.94,13.94,0,0,1,1.11,5.81c0,5.34-3.56,8.56-8.78,8.56s-9.4-3.11-9.4-8.19c0-5.68,5-7.16,8.19-7.16a7.84,7.84,0,0,1,1.48.1Zm-2.27-9.26c-2,0-5.13.81-5.13,4.36,0,3.23,2.92,4.61,5.13,4.86Z" transform="translate(-4.58 -5.68)"/><path d="M1552.42,209.12a8.54,8.54,0,0,0,1.24-4.19c0-2.31-1.13-3.38-2.59-3.38s-2.32.92-3.19,3.23c-1.14,3.15-2.85,4.64-4.93,4.63-2.81,0-5.11-2.28-5.11-6a8.44,8.44,0,0,1,1.07-4.27l2.3.79a6.83,6.83,0,0,0-1,3.57c0,1.87,1.08,2.88,2.39,2.88s2.08-1,3-3.3c1.12-3,2.63-4.56,5.23-4.57,3.08,0,5.24,2.4,5.24,6.51a9.89,9.89,0,0,1-1.21,4.89Z" transform="translate(-4.58 -5.68)"/></g></g></g></svg>