<svg xmlns="http://www.w3.org/2000/svg" viewBox="0 0 1389.38 754.05"><defs><style>.cls-1{fill:#cfdcfa;stroke-width:4px;}.cls-1,.cls-2,.cls-3{stroke:#000;stroke-miterlimit:10;}.cls-2{fill:#2aff3c;}.cls-2,.cls-3{stroke-width:2px;}.cls-3{fill:#e90000;}</style></defs><g id="Layer_2" data-name="Layer 2"><g id="Novo_Mapa" data-name="Novo Mapa"><path class="cls-1" d="M862.8,262.63l-242,3.7a8.53,8.53,0,0,0-8,6.12C591.79,343.08,588.28,398.92,588,404.19a6.13,6.13,0,0,1-.09.85l-17.14,109.1a23.45,23.45,0,0,1-27.37,19.43h0a23.45,23.45,0,0,1-19-26.75l17.5-110.15a6.42,6.42,0,0,0,.09-.87c.27-5,3.31-53.55,21.38-118.37a8.53,8.53,0,0,0-8.47-10.81l-219.41,6.82a8.52,8.52,0,0,0-8,6.49L286.15,448.24a23.89,23.89,0,0,1-25.79,18.05h0a23.89,23.89,0,0,1-20.63-29.44l37-151a8.53,8.53,0,0,0-8.34-10.55L96.37,276.34a8.53,8.53,0,0,0-8.32,6.9L29.76,583.84c-7.65,41-4.08,56.51-4.08,56.51a322.48,322.48,0,0,0,11.63,45.3,8.49,8.49,0,0,0,7.5,5.75l379.68,25.34c84.48,6.75,191.45,13.33,191.45,13.33,61.55,4.49,123.61,5.2,143.36,5.31a8.53,8.53,0,0,0,8.24-6.18l10.69-37.29C823,540.2,862.61,322,871.33,272.63A8.52,8.52,0,0,0,862.8,262.63Z" transform="translate(-6.28 -5.03)"/><path class="cls-1" d="M102.44,212.72A14.51,14.51,0,0,0,116.81,230l172.34-1.6,53.08-1.29,231.88-7.72,60.33-.62,235.84-2.05A14.53,14.53,0,0,0,884.55,204c7.33-55.77,36-68.66,36-68.66,18.88-12.08,93.81-10.55,93.81-10.55l92.83,1.72c96.81,2.52,169.58-7.21,273.06-14.71a14.51,14.51,0,0,0,13.46-14.59l-.36-43.85A14.5,14.5,0,0,0,1378.6,39L144.51,55.68a14.5,14.5,0,0,0-14,11.75Z" transform="translate(-6.28 -5.03)"/><path d="M310.12,239.21a32.88,32.88,0,0,1,6-.67c3.32-.08,5.53.5,7.07,1.82a6.09,6.09,0,0,1,2,4.57,6.4,6.4,0,0,1-4.42,6.29v.09c1.86.6,3,2.33,3.67,4.83a40.25,40.25,0,0,0,2,6.61l-3.25.08a31.46,31.46,0,0,1-1.73-5.77c-.8-3.31-2.15-4.56-5-4.59l-3,.07.25,10.52-3.13.07Zm3.4,11,3.2-.07c3.36-.09,5.44-2,5.37-4.74-.08-3.16-2.38-4.47-5.69-4.39a13.18,13.18,0,0,0-3.09.35Z" transform="translate(-6.28 -5.03)"/><path d="M344.28,257.43c.06,1.83.17,3.39.3,4.76l-2.79.1-.27-2.84h-.08a6.51,6.51,0,0,1-5.66,3.43c-2.72.09-6-1.32-6.24-7.42l-.34-10.17,3.14-.11.33,9.62c.11,3.31,1.22,5.53,4.07,5.44a4.62,4.62,0,0,0,4.09-3.05,4.82,4.82,0,0,0,.24-1.63l-.36-10.66,3.15-.1Z" transform="translate(-6.28 -5.03)"/><path d="M359.35,261.7l-.35-2.19h-.1a6.48,6.48,0,0,1-5.23,2.77,5,5,0,0,1-5.48-4.82c-.15-4.21,3.51-6.65,10.24-6.83l0-.37c0-1.41-.53-4-4.09-3.88a8.38,8.38,0,0,0-4.49,1.45l-.79-2.08a10.91,10.91,0,0,1,5.69-1.72c5.32-.18,6.74,3.41,6.86,6.9l.21,6.51a26.63,26.63,0,0,0,.41,4.16Zm-.79-8.87c-3.43,0-7.33.79-7.21,4.16a2.79,2.79,0,0,0,3,2.93,4.38,4.38,0,0,0,4.15-3.06,3.23,3.23,0,0,0,.11-1Z" transform="translate(-6.28 -5.03)"/><path d="M378.46,253.44l-2.25,7.7-3.25.11,7.44-24.53,3.76-.12,9.1,24-3.35.11-2.86-7.53Zm7.88-2.72-2.64-6.9c-.57-1.57-1-3-1.39-4.38h-.09c-.3,1.43-.63,2.93-1.05,4.42L379,251Z" transform="translate(-6.28 -5.03)"/><path d="M396.19,247.76c-.06-1.82-.16-3.25-.3-4.69l2.8-.1.27,2.86h.09a6.4,6.4,0,0,1,5.64-3.45c2.39-.09,6.18,1.23,6.38,7.21l.35,10.38-3.15.1-.33-10c-.1-2.81-1.24-5.13-4.2-5a4.54,4.54,0,0,0-4.15,3.4,4.75,4.75,0,0,0-.17,1.47l.35,10.49-3.15.1Z" transform="translate(-6.28 -5.03)"/><path d="M419.48,237.26l.17,5,4.54-.15.08,2.4-4.54.15.31,9.38c.08,2.17.74,3.37,2.51,3.31a6.56,6.56,0,0,0,1.83-.29l.22,2.4a8.11,8.11,0,0,1-2.81.53,4.4,4.4,0,0,1-3.46-1.23c-.91-.93-1.31-2.45-1.38-4.49l-.32-9.51-2.7.1-.08-2.4,2.7-.09-.14-4.19Z" transform="translate(-6.28 -5.03)"/><path d="M443.58,250c.21,6.44-4.16,9.41-8.35,9.55-4.71.16-8.48-3.16-8.66-8.68-.19-5.83,3.52-9.36,8.33-9.52C439.9,241.2,443.4,244.72,443.58,250Zm-13.79.66c.13,3.82,2.41,6.62,5.5,6.51s5.2-3,5.07-7c-.1-2.94-1.71-6.61-5.47-6.49S429.68,247.38,429.79,250.68Zm5.8-16.5,3.62,5-2.42.08-2.2-3.33h-.07l-2,3.48-2.36.08,3.21-5.27Z" transform="translate(-6.28 -5.03)"/><path d="M447.46,246.05c-.06-1.81-.17-3.25-.3-4.69l2.79-.09.27,2.85h.09a6.42,6.42,0,0,1,5.65-3.45c2.39-.08,6.18,1.23,6.38,7.21l.34,10.38-3.14.1-.34-10c-.1-2.81-1.23-5.13-4.2-5a4.56,4.56,0,0,0-4.15,3.39,4.75,4.75,0,0,0-.17,1.47l.35,10.49-3.15.1Z" transform="translate(-6.28 -5.03)"/><path d="M470.64,235.65a1.92,1.92,0,0,1-1.95,2,1.89,1.89,0,0,1-2-1.91,1.92,1.92,0,0,1,1.9-2A1.89,1.89,0,0,1,470.64,235.65Zm-2.79,22.44-.58-17.4,3.15-.11L471,258Z" transform="translate(-6.28 -5.03)"/><path d="M491.72,248.41c.22,6.45-4.16,9.42-8.34,9.56-4.72.15-8.48-3.16-8.67-8.69-.19-5.82,3.52-9.35,8.34-9.51C488.05,239.6,491.54,243.11,491.72,248.41Zm-13.79.67c.13,3.82,2.41,6.61,5.5,6.51s5.21-3,5.07-7c-.09-2.94-1.7-6.62-5.46-6.49S477.82,245.78,477.93,249.08Z" transform="translate(-6.28 -5.03)"/><path d="M503,233a32.28,32.28,0,0,1,6-.73c3.32-.11,5.53.45,7.09,1.76a6.11,6.11,0,0,1,2.06,4.55,6.42,6.42,0,0,1-4.37,6.33V245c1.87.59,3,2.3,3.72,4.79a41.26,41.26,0,0,0,2.08,6.59l-3.24.11a31.26,31.26,0,0,1-1.79-5.75c-.83-3.3-2.19-4.54-5-4.54l-3,.1.35,10.51-3.13.1Zm3.5,10.93,3.2-.11c3.35-.11,5.41-2,5.32-4.79-.1-3.15-2.42-4.44-5.73-4.33a13.41,13.41,0,0,0-3.09.38Z" transform="translate(-6.28 -5.03)"/><path d="M538.62,246.85c.22,6.45-4.16,9.41-8.34,9.55-4.72.16-8.48-3.15-8.66-8.68-.2-5.82,3.51-9.36,8.33-9.52C535,238,538.45,241.55,538.62,246.85Zm-13.79.67c.13,3.81,2.41,6.61,5.5,6.51s5.21-3,5.08-7c-.1-2.95-1.71-6.62-5.47-6.49S524.72,244.22,524.83,247.52Z" transform="translate(-6.28 -5.03)"/><path d="M557.11,229.54l.71,21.06c0,1.54.17,3.28.29,4.48l-2.81.09-.26-3H555a6.4,6.4,0,0,1-5.79,3.61c-4.22.14-7.59-3.32-7.77-8.59-.22-5.82,3.27-9.48,7.51-9.62a5.78,5.78,0,0,1,5.33,2.47h.08L554,229.64Zm-2.63,15.33a7,7,0,0,0-.18-1.35,4.68,4.68,0,0,0-4.7-3.49c-3.28.11-5.14,3.05-5,6.88.12,3.53,2,6.41,5.39,6.29a4.77,4.77,0,0,0,4.5-3.95,5,5,0,0,0,.11-1.36Z" transform="translate(-6.28 -5.03)"/><path d="M562.94,242.94c0-2.05-.12-3.8-.24-5.41l2.77-.05.18,3.41h.12a5.29,5.29,0,0,1,4.78-3.9,3.51,3.51,0,0,1,.88.08l.05,3a5,5,0,0,0-1.08-.07c-2.23,0-3.78,1.75-4.16,4.13a7.68,7.68,0,0,0-.11,1.48l.17,9.3-3.15.05Z" transform="translate(-6.28 -5.03)"/><path d="M578.34,232.42a1.91,1.91,0,0,1-2,2,1.89,1.89,0,0,1-1.93-1.95,1.92,1.92,0,0,1,2-2A1.9,1.9,0,0,1,578.34,232.42ZM575,254.78l-.18-17.4,3.15,0,.18,17.41Z" transform="translate(-6.28 -5.03)"/><path d="M598.3,237.14c-.08,1.23-.12,2.64-.1,4.76l.1,10.11c0,4-.76,6.45-2.4,8a9.39,9.39,0,0,1-6.32,2.15,11.31,11.31,0,0,1-5.83-1.37l.77-2.45a9.66,9.66,0,0,0,5.14,1.34c3.23,0,5.59-1.74,5.54-6.15l0-1.94h-.07a6.18,6.18,0,0,1-5.5,3c-4.34,0-7.46-3.62-7.51-8.44-.06-5.91,3.74-9.27,7.77-9.31a5.77,5.77,0,0,1,5.46,2.95h.07l.1-2.6ZM595.07,244a4.64,4.64,0,0,0-4.67-4.74c-3,0-5.16,2.61-5.12,6.65,0,3.41,1.83,6.26,5.22,6.22a4.62,4.62,0,0,0,4.37-3.31,5.25,5.25,0,0,0,.23-1.68Z" transform="translate(-6.28 -5.03)"/><path d="M618.09,249.58c0,1.82.1,3.38.2,4.76l-2.8,0-.2-2.85h-.09a6.53,6.53,0,0,1-5.73,3.31c-2.72,0-6-1.47-6.07-7.57l-.1-10.18,3.15,0,.09,9.62c0,3.31,1.09,5.56,4,5.53a4.6,4.6,0,0,0,4.16-2.95,4.7,4.7,0,0,0,.27-1.62L614.81,237l3.15,0Z" transform="translate(-6.28 -5.03)"/><path d="M625.11,246.14c.09,4.28,2.83,6,6,6a11.85,11.85,0,0,0,4.82-.93l.57,2.24a13.88,13.88,0,0,1-5.8,1.16c-5.35.05-8.59-3.49-8.64-8.71s3-9.43,8.12-9.47c5.67,0,7.2,4.92,7.23,8.13a7.84,7.84,0,0,1-.1,1.48Zm9.24-2.36c0-2-.86-5.12-4.41-5.09-3.23,0-4.58,3-4.81,5.17Z" transform="translate(-6.28 -5.03)"/><path d="M641,250.91a8.53,8.53,0,0,0,4.2,1.2c2.31,0,3.38-1.16,3.36-2.62s-.94-2.31-3.26-3.16c-3.15-1.11-4.66-2.81-4.67-4.89,0-2.81,2.24-5.13,6-5.16a8.46,8.46,0,0,1,4.28,1l-.77,2.31a6.84,6.84,0,0,0-3.58-1c-1.87,0-2.88,1.1-2.86,2.41s1,2.08,3.33,2.94c3,1.09,4.58,2.59,4.61,5.19,0,3.09-2.36,5.27-6.47,5.31a10,10,0,0,1-4.9-1.18Z" transform="translate(-6.28 -5.03)"/><path d="M502.81,13.26a33.37,33.37,0,0,1,6-.61c3.33,0,5.53.56,7.06,1.91a6,6,0,0,1,2,4.58,6.4,6.4,0,0,1-4.48,6.25v.08c1.86.63,3,2.36,3.62,4.87A39.58,39.58,0,0,0,519,37L515.7,37A32.54,32.54,0,0,1,514,31.23c-.76-3.31-2.09-4.58-4.93-4.64l-3,0,.15,10.51-3.13,0Zm3.28,11,3.2,0c3.36,0,5.46-1.9,5.42-4.69,0-3.15-2.33-4.48-5.64-4.45a14.54,14.54,0,0,0-3.1.32Z" transform="translate(-6.28 -5.03)"/><path d="M536.87,32c0,1.83.11,3.39.21,4.77l-2.8,0-.21-2.84H534a6.51,6.51,0,0,1-5.72,3.32c-2.73,0-6-1.44-6.1-7.55L522,19.52l3.15,0,.13,9.62c.05,3.31,1.11,5.56,4,5.52a4.62,4.62,0,0,0,4.15-3,5,5,0,0,0,.26-1.62l-.14-10.67,3.15,0Z" transform="translate(-6.28 -5.03)"/><path d="M551.88,36.53l-.31-2.2h-.1A6.45,6.45,0,0,1,546.18,37a5,5,0,0,1-5.38-4.92c-.06-4.22,3.64-6.59,10.37-6.63v-.37c0-1.41-.46-4-4-4a8.47,8.47,0,0,0-4.52,1.36l-.75-2.1a11,11,0,0,1,5.73-1.6c5.32-.07,6.67,3.55,6.71,7l.09,6.52a27.39,27.39,0,0,0,.32,4.16Zm-.62-8.88c-3.43,0-7.34.64-7.29,4a2.79,2.79,0,0,0,3,3,4.38,4.38,0,0,0,4.21-3,3.24,3.24,0,0,0,.13-1Z" transform="translate(-6.28 -5.03)"/><path d="M587.88,23.66C588,32,583,36.5,576.8,36.59c-6.43.08-11-4.84-11.07-12.17-.11-7.69,4.58-12.8,11.06-12.89S587.79,16.46,587.88,23.66ZM569,24.3c.07,5.2,3,9.8,7.9,9.74s7.71-4.68,7.63-10.19c-.06-4.83-2.65-9.84-7.87-9.77S569,19,569,24.3Z" transform="translate(-6.28 -5.03)"/><path d="M606.82,10.22l.29,21.07c0,1.55.1,3.29.2,4.49l-2.81,0-.2-3h-.09a6.34,6.34,0,0,1-5.85,3.48c-4.22.06-7.52-3.46-7.6-8.74-.1-5.82,3.46-9.4,7.7-9.46a5.81,5.81,0,0,1,5.29,2.57h.07l-.14-10.39ZM603.88,25.5a6.21,6.21,0,0,0-.15-1.35,4.67,4.67,0,0,0-4.63-3.58c-3.28,0-5.2,2.94-5.15,6.77,0,3.53,1.85,6.44,5.26,6.4a4.79,4.79,0,0,0,4.58-3.87,5.28,5.28,0,0,0,.13-1.36Z" transform="translate(-6.28 -5.03)"/><path d="M628.1,26.62c.08,6.45-4.35,9.33-8.53,9.39-4.73.06-8.42-3.33-8.49-8.86-.08-5.82,3.7-9.28,8.52-9.34C624.6,17.74,628,21.32,628.1,26.62ZM614.3,27c.05,3.82,2.28,6.67,5.36,6.63s5.27-2.91,5.22-6.86c0-3-1.58-6.65-5.34-6.6S614.25,23.71,614.3,27Z" transform="translate(-6.28 -5.03)"/><path d="M632.05,23.46c0-2.06-.11-3.81-.22-5.42l2.77,0,.17,3.41h.11a5.3,5.3,0,0,1,4.8-3.88,4.06,4.06,0,0,1,.88.08l0,3a5.67,5.67,0,0,0-1.08-.08c-2.23,0-3.78,1.73-4.18,4.11a9.69,9.69,0,0,0-.11,1.48l.13,9.3-3.15,0Z" transform="translate(-6.28 -5.03)"/><path d="M647.36,12.9a2,2,0,1,1-2-1.94A1.89,1.89,0,0,1,647.36,12.9Zm-3.23,22.38-.24-17.41,3.15,0,.24,17.41Z" transform="translate(-6.28 -5.03)"/><path d="M665,34.37a12,12,0,0,1-5,1.07c-5.25.08-8.74-3.45-8.81-8.77s3.53-9.33,9.23-9.41a10,10,0,0,1,4.41.87l-.67,2.44a7.75,7.75,0,0,0-3.71-.79c-4,0-6.11,3.06-6.06,6.68.06,4,2.68,6.48,6.16,6.43A9.28,9.28,0,0,0,664.4,32Z" transform="translate(-6.28 -5.03)"/><path d="M684.11,25.87c.09,6.44-4.35,9.32-8.53,9.38-4.72.07-8.42-3.33-8.49-8.85-.08-5.83,3.7-9.29,8.52-9.35C680.61,17,684,20.56,684.11,25.87Zm-13.8.39c.05,3.82,2.28,6.66,5.37,6.62S680.94,30,680.89,26c0-2.95-1.58-6.65-5.34-6.6S670.26,23,670.31,26.26Z" transform="translate(-6.28 -5.03)"/><path d="M695.63,10.65a29.43,29.43,0,0,1,5.72-.6c3.14,0,5.16.47,6.68,1.67A5.18,5.18,0,0,1,710.12,16a5.74,5.74,0,0,1-4,5.37v.1a6.22,6.22,0,0,1,5.09,6,6.36,6.36,0,0,1-2,4.86c-1.65,1.59-4.37,2.33-8.34,2.39a40.79,40.79,0,0,1-4.87-.21Zm3.27,9.9,2.87,0c3.28,0,5.2-1.82,5.17-4.17,0-2.81-2.19-3.92-5.36-3.88a12.26,12.26,0,0,0-2.79.27Zm.15,11.6a15,15,0,0,0,2.65.13c3.25-.05,6.22-1.28,6.18-4.81,0-3.3-2.92-4.64-6.34-4.6l-2.61,0Z" transform="translate(-6.28 -5.03)"/><path d="M729.9,29.36c0,1.82.1,3.38.21,4.76l-2.8,0-.21-2.85H727a6.49,6.49,0,0,1-5.72,3.32c-2.73,0-6-1.44-6.1-7.54l-.14-10.18,3.15,0,.13,9.62c0,3.31,1.11,5.56,4,5.52a4.63,4.63,0,0,0,4.15-3,5.06,5.06,0,0,0,.26-1.63l-.14-10.66,3.15-.05Z" transform="translate(-6.28 -5.03)"/><path d="M736.9,25.89c.12,4.28,2.86,6,6,6a11.68,11.68,0,0,0,4.81-1l.59,2.24a14.15,14.15,0,0,1-5.8,1.19c-5.35.07-8.61-3.45-8.68-8.67s3-9.44,8.06-9.51c5.68-.07,7.23,4.89,7.28,8.09a8.14,8.14,0,0,1-.09,1.49Zm9.24-2.4c0-2-.89-5.11-4.44-5.06-3.23,0-4.57,3-4.79,5.19Z" transform="translate(-6.28 -5.03)"/><path d="M753.1,21.1c0-1.82-.1-3.26-.2-4.7l2.79,0,.22,2.86H756a6.43,6.43,0,0,1,5.72-3.33c2.39,0,6.15,1.35,6.23,7.33l.14,10.39-3.15,0-.13-10c0-2.81-1.13-5.16-4.1-5.11a4.53,4.53,0,0,0-4.22,3.3,5,5,0,0,0-.2,1.47l.15,10.49-3.16.05Z" transform="translate(-6.28 -5.03)"/><path d="M788.9,24.45c.08,6.45-4.35,9.33-8.54,9.39-4.72.06-8.41-3.33-8.48-8.86-.08-5.82,3.7-9.28,8.51-9.35C785.4,15.56,788.82,19.15,788.9,24.45Zm-13.8.39c0,3.82,2.27,6.66,5.36,6.62s5.27-2.91,5.22-6.86c0-2.94-1.58-6.64-5.34-6.59S775.05,21.54,775.1,24.84Z" transform="translate(-6.28 -5.03)"/><path d="M815.33,7.41l.29,21.06c0,1.55.1,3.29.2,4.49L813,33l-.2-3h-.09a6.38,6.38,0,0,1-5.86,3.49c-4.22.06-7.52-3.47-7.59-8.75-.11-5.81,3.46-9.4,7.7-9.46a5.83,5.83,0,0,1,5.28,2.57h.07l-.14-10.39Zm-2.94,15.27a6.89,6.89,0,0,0-.15-1.35,4.69,4.69,0,0,0-4.64-3.58c-3.27,0-5.19,2.94-5.14,6.77,0,3.54,1.85,6.45,5.26,6.4a4.77,4.77,0,0,0,4.57-3.86,4.94,4.94,0,0,0,.14-1.36Z" transform="translate(-6.28 -5.03)"/><path d="M822.63,24.74c.12,4.27,2.86,6,6,6a11.76,11.76,0,0,0,4.81-1l.58,2.24a14.1,14.1,0,0,1-5.79,1.19c-5.35.07-8.62-3.45-8.69-8.67s3-9.44,8.07-9.51c5.68-.07,7.23,4.89,7.27,8.09a8.33,8.33,0,0,1-.08,1.49Zm9.23-2.41c0-2-.88-5.11-4.43-5.06-3.24,0-4.57,3-4.79,5.19Z" transform="translate(-6.28 -5.03)"/><path d="M846.4,8.62a32.49,32.49,0,0,1,6-.61c3.33,0,5.53.56,7.06,1.9a6.07,6.07,0,0,1,2,4.59A6.39,6.39,0,0,1,857,20.74v.09c1.85.63,3,2.36,3.62,4.87a39.58,39.58,0,0,0,2,6.63l-3.25,0a32,32,0,0,1-1.68-5.78c-.76-3.32-2.09-4.59-4.93-4.64l-3,0,.14,10.51-3.13,0Zm3.28,11,3.2-.05c3.36,0,5.46-1.9,5.42-4.68,0-3.15-2.33-4.49-5.64-4.45a13.89,13.89,0,0,0-3.1.32Z" transform="translate(-6.28 -5.03)"/><path d="M869.61,9.9a1.91,1.91,0,0,1-2,2,1.89,1.89,0,0,1-1.93-2,1.92,1.92,0,0,1,1.94-2A1.89,1.89,0,0,1,869.61,9.9Zm-3.23,22.38-.24-17.41,3.15,0,.24,17.4Z" transform="translate(-6.28 -5.03)"/><path d="M875.77,14.74l3.55,9.71c.61,1.61,1.08,3,1.49,4.48h.09c.38-1.45.86-2.91,1.4-4.52l3.27-9.8,3.31,0-6.61,17.5-3,0-6.87-17.31Z" transform="translate(-6.28 -5.03)"/><path d="M893.4,23.78c.12,4.28,2.86,6,6,6a11.56,11.56,0,0,0,4.81-1l.58,2.25A13.92,13.92,0,0,1,899,32.21c-5.35.08-8.61-3.44-8.68-8.67s3-9.43,8.06-9.5c5.68-.08,7.23,4.88,7.28,8.09a9,9,0,0,1-.09,1.48Zm9.24-2.4c0-2-.89-5.12-4.44-5.07-3.23,0-4.57,3-4.79,5.19Z" transform="translate(-6.28 -5.03)"/><path d="M913,9.31a2,2,0,1,1-3.93.06,1.94,1.94,0,0,1,1.95-2A1.89,1.89,0,0,1,913,9.31ZM909.8,31.69l-.24-17.41,3.15,0L913,31.65Z" transform="translate(-6.28 -5.03)"/><path d="M918,19.59c0-2.05-.1-3.81-.21-5.42l2.77,0,.17,3.42h.11a5.28,5.28,0,0,1,4.8-3.88,3.1,3.1,0,0,1,.88.08l0,3a5,5,0,0,0-1.08-.07c-2.23,0-3.78,1.73-4.18,4.1a7.81,7.81,0,0,0-.11,1.48l.13,9.3-3.15,0Z" transform="translate(-6.28 -5.03)"/><path d="M939.46,31.29l-.31-2.19h-.09a6.47,6.47,0,0,1-5.29,2.66,5,5,0,0,1-5.39-4.92c-.06-4.22,3.65-6.58,10.37-6.63v-.37c0-1.41-.45-4-4-4a8.47,8.47,0,0,0-4.52,1.36l-.74-2.09a10.92,10.92,0,0,1,5.72-1.61c5.32-.07,6.67,3.55,6.72,7l.09,6.51a27.36,27.36,0,0,0,.31,4.16Zm-.61-8.88c-3.43,0-7.34.64-7.3,4a2.79,2.79,0,0,0,3,3,4.36,4.36,0,0,0,4.2-3,3.3,3.3,0,0,0,.14-1Z" transform="translate(-6.28 -5.03)"/><path d="M954.53,6.82l13.07-.18,0,2.61-9.91.14.11,8.08,9.16-.13,0,2.6-9.16.12L958,31l-3.15,0Z" transform="translate(-6.28 -5.03)"/><path d="M974.62,8.48a1.92,1.92,0,0,1-2,2,1.89,1.89,0,0,1-1.94-1.94,2,2,0,1,1,3.93-.06Zm-3.24,22.38-.23-17.41,3.15,0,.23,17.41Z" transform="translate(-6.28 -5.03)"/><path d="M979.44,5.19l3.15,0,.35,25.55-3.15.05Z" transform="translate(-6.28 -5.03)"/><path d="M988,5.07l3.15,0,.15,10.87h.07a6.19,6.19,0,0,1,2.25-2.27,6.29,6.29,0,0,1,3.23-.92c2.34,0,6.08,1.35,6.17,7.35l.14,10.37-3.15,0-.14-10c0-2.81-1.13-5.15-4.09-5.11a4.59,4.59,0,0,0-4.23,3.22,4.14,4.14,0,0,0-.19,1.51l.14,10.52-3.15,0Z" transform="translate(-6.28 -5.03)"/><path d="M1023.92,21.28c.09,6.44-4.34,9.32-8.53,9.38-4.72.06-8.41-3.33-8.49-8.85-.08-5.83,3.71-9.29,8.52-9.35C1020.43,12.39,1023.85,16,1023.92,21.28Zm-13.8.39c.06,3.81,2.28,6.66,5.37,6.62s5.27-2.91,5.21-6.86c0-2.95-1.57-6.65-5.33-6.6S1010.08,18.36,1010.12,21.67Z" transform="translate(-6.28 -5.03)"/><path d="M814.34,621.5a33.28,33.28,0,0,1,1-6c.82-3.22,2-5.19,3.68-6.31a6.07,6.07,0,0,1,4.94-.7,6.4,6.4,0,0,1,4.85,6l.09,0c1.08-1.63,3.06-2.28,5.64-2.22a40.9,40.9,0,0,0,6.91-.15l-.8,3.15a32.3,32.3,0,0,1-6,.09c-3.39-.13-5,.83-5.77,3.55l-.74,2.87,10.19,2.62-.78,3Zm11.48-.29.79-3.1c.84-3.25-.4-5.76-3.09-6.45-3.06-.78-4.95,1.08-5.78,4.28a14.08,14.08,0,0,0-.5,3.07Z" transform="translate(-6.28 -5.03)"/><path d="M841.18,593.57c1.77.45,3.3.77,4.65,1l-.67,2.71-2.81-.53,0,.09a6.49,6.49,0,0,1,1.75,6.38c-.65,2.64-2.93,5.45-8.85,4l-9.87-2.46.76-3.06,9.33,2.33c3.22.8,5.66.34,6.35-2.43a4.61,4.61,0,0,0-1.8-4.77,4.89,4.89,0,0,0-1.51-.67l-10.34-2.58.76-3.06Z" transform="translate(-6.28 -5.03)"/><path d="M849.32,580.26l-2.2-.25,0,.09a6.49,6.49,0,0,1,1.26,5.79,5,5,0,0,1-6.11,4c-4.1-1-5.47-5.18-3.83-11.7l-.36-.09c-1.37-.33-4-.57-4.84,2.91a8.51,8.51,0,0,0,.19,4.71l-2.22.2a11,11,0,0,1-.12-5.94c1.25-5.18,5.1-5.58,8.49-4.75l6.33,1.53a26.9,26.9,0,0,0,4.11.73Zm-8.75-1.62c-.88,3.31-1.21,7.27,2.06,8.06a2.79,2.79,0,0,0,3.65-2.16,4.36,4.36,0,0,0-1.84-4.81,3.44,3.44,0,0,0-.93-.38Z" transform="translate(-6.28 -5.03)"/><path d="M829.61,559.83a33.25,33.25,0,0,1,.87-6c.76-3.24,1.88-5.23,3.55-6.39a6.07,6.07,0,0,1,4.93-.79,6.4,6.4,0,0,1,5,5.86l.09,0c1.05-1.66,3-2.35,5.6-2.34a40.68,40.68,0,0,0,6.91-.3l-.75,3.17a32.16,32.16,0,0,1-6,.22c-3.4-.06-5,.92-5.69,3.67l-.68,2.88,10.24,2.41-.72,3Zm11.47-.52.73-3.12c.77-3.26-.52-5.75-3.23-6.39-3.07-.72-4.92,1.18-5.68,4.4a13,13,0,0,0-.44,3.08Z" transform="translate(-6.28 -5.03)"/><path d="M852.22,529.08c6.28,1.44,8,6.43,7.09,10.51-1,4.6-5.22,7.39-10.61,6.15-5.68-1.3-8.14-5.8-7.06-10.49C842.76,530.37,847.05,527.89,852.22,529.08Zm-2.89,13.5c3.72.85,7-.64,7.7-3.65s-1.58-5.8-5.43-6.69c-2.87-.66-6.83,0-7.67,3.62S846.11,541.84,849.33,542.58Z" transform="translate(-6.28 -5.03)"/><path d="M849.36,524.4c-1.77-.39-3.2-.65-4.62-.88l.6-2.69,2.77.45,0-.08a6,6,0,0,1-1.92-6.07,5.11,5.11,0,0,1,4.48-4V511a7,7,0,0,1-1.78-2.41,6,6,0,0,1-.36-4c.51-2.27,2.72-5.28,8.63-4l10,2.24-.68,3-9.6-2.15c-3.29-.74-5.51,0-6.07,2.51a4.15,4.15,0,0,0,2,4.3,5,5,0,0,0,1.49.6l10.52,2.35-.67,3-10.2-2.28c-2.7-.61-4.92.15-5.44,2.49a4.38,4.38,0,0,0,2.22,4.54,5.17,5.17,0,0,0,1.47.57l10.24,2.29-.67,3Z" transform="translate(-6.28 -5.03)"/><path d="M848.64,492.1c-2.31-.44-3.47-1.7-3.14-3.2a4.78,4.78,0,0,1,1.25-2,3.57,3.57,0,0,0,.93-1.35c.12-.55-.13-.95-1.28-1.29l.36-1.65c2.33.47,3.38,1.53,3,3.18a4.62,4.62,0,0,1-1.2,2c-.54.62-.86.95-1,1.38s.42,1,1.38,1.27Zm21.69-3.62-2.21-.2,0,.1a6.48,6.48,0,0,1,1.4,5.75,5,5,0,0,1-6,4.14c-4.12-.9-5.58-5-4.1-11.61l-.36-.08c-1.39-.3-4-.47-4.77,3a8.4,8.4,0,0,0,.3,4.71l-2.21.25a10.94,10.94,0,0,1-.27-5.94c1.14-5.2,5-5.69,8.37-4.95l6.37,1.39a26.32,26.32,0,0,0,4.13.63Zm-8.79-1.41c-.81,3.33-1,7.29,2.25,8a2.79,2.79,0,0,0,3.59-2.24,4.36,4.36,0,0,0-1.94-4.77,3.48,3.48,0,0,0-1-.36Z" transform="translate(-6.28 -5.03)"/><path d="M866.58,463.7c6.31,1.35,8.13,6.31,7.25,10.4-1,4.62-5.12,7.47-10.52,6.31-5.7-1.22-8.23-5.68-7.22-10.39C857.14,465.13,861.4,462.59,866.58,463.7Zm-2.69,13.54c3.73.8,7-.74,7.65-3.76s-1.66-5.78-5.53-6.61c-2.88-.61-6.83.06-7.62,3.74S860.66,476.55,863.89,477.24Z" transform="translate(-6.28 -5.03)"/><path d="M877.68,454.12l-23.76-4.95.7-3.37,13.59-5.11a69.51,69.51,0,0,1,8.62-2.63l0-.08c-3.23-.39-6.14-.93-9.82-1.7l-10-2.07.61-2.89,23.75,4.94-.65,3.12-13.61,5a78,78,0,0,1-8.87,2.77v.11c3.05.44,5.92,1,9.85,1.82l10.16,2.11Z" transform="translate(-6.28 -5.03)"/><path d="M884.41,421.57l-2.21-.17,0,.09a6.48,6.48,0,0,1,1.48,5.74,5,5,0,0,1-6,4.21c-4.13-.85-5.65-5-4.26-11.55l-.36-.08c-1.39-.28-4-.42-4.73,3.08a8.44,8.44,0,0,0,.36,4.7l-2.2.29a10.89,10.89,0,0,1-.35-5.94c1.07-5.21,4.89-5.75,8.31-5.05l6.38,1.3a27.21,27.21,0,0,0,4.13.58Zm-8.81-1.3c-.75,3.34-.94,7.3,2.36,8a2.78,2.78,0,0,0,3.56-2.29,4.36,4.36,0,0,0-2-4.74,3.44,3.44,0,0,0-.95-.35Z" transform="translate(-6.28 -5.03)"/><path d="M885.91,414.2c-1.15-.32-2.86-.72-4.37-1L860.88,409l.62-3.08,10.73,2.16,0-.07a6.46,6.46,0,0,1-2-6.45c.86-4.24,5-6.51,10.15-5.46,6.12,1.24,8.37,5.73,7.6,9.53a6.28,6.28,0,0,1-4.35,5.08v.08l2.77.72Zm-6.19-4.6a5,5,0,0,0,1.15.09,4.87,4.87,0,0,0,4.57-3.92c.66-3.26-1.6-5.71-5.52-6.5-3.43-.7-6.72.49-7.39,3.81a5,5,0,0,0,2.87,5.46,5.36,5.36,0,0,0,1.25.44Z" transform="translate(-6.28 -5.03)"/><path d="M891.84,384.53l-2.21-.16,0,.1a6.44,6.44,0,0,1,1.51,5.72,5,5,0,0,1-5.93,4.25c-4.13-.82-5.68-4.93-4.33-11.52l-.36-.07c-1.39-.28-4-.4-4.71,3.1a8.52,8.52,0,0,0,.39,4.7l-2.2.3a10.93,10.93,0,0,1-.38-5.93c1-5.22,4.85-5.79,8.27-5.11l6.39,1.26a28.44,28.44,0,0,0,4.14.56ZM883,383.28c-.74,3.35-.9,7.32,2.4,8a2.79,2.79,0,0,0,3.55-2.31,4.36,4.36,0,0,0-2-4.73,3.52,3.52,0,0,0-1-.34Z" transform="translate(-6.28 -5.03)"/><path d="M890.08,376.8a8.65,8.65,0,0,0,2-3.88c.44-2.27-.47-3.54-1.9-3.82s-2.45.46-3.75,2.57c-1.72,2.87-3.68,4-5.73,3.59-2.75-.53-4.57-3.21-3.86-6.89a8.45,8.45,0,0,1,1.87-4l2.11,1.22a6.79,6.79,0,0,0-1.69,3.31c-.36,1.83.5,3,1.79,3.29s2.24-.61,3.55-2.68c1.67-2.73,3.46-4,6-3.48,3,.59,4.69,3.36,3.9,7.39a9.87,9.87,0,0,1-2.13,4.58Z" transform="translate(-6.28 -5.03)"/><path d="M978.23,135.58a32.4,32.4,0,0,1,6-.81c3.33-.16,5.55.37,7.12,1.67a6.05,6.05,0,0,1,2.12,4.51,6.41,6.41,0,0,1-4.28,6.4v.08c1.88.56,3.08,2.26,3.79,4.74a40.6,40.6,0,0,0,2.18,6.57l-3.25.15a32.43,32.43,0,0,1-1.87-5.73c-.87-3.28-2.24-4.51-5.08-4.47l-3,.14.5,10.51-3.13.14Zm3.64,10.88,3.2-.15c3.35-.16,5.39-2.08,5.26-4.86-.15-3.15-2.48-4.41-5.79-4.26a13.61,13.61,0,0,0-3.08.42Z" transform="translate(-6.28 -5.03)"/><path d="M1012.85,154c0,1.83,0,3.39.13,4.77h-2.8l-.16-2.85h-.08a6.51,6.51,0,0,1-5.78,3.22c-2.72,0-6-1.56-6-7.66l0-10.17h3.15l0,9.62c0,3.32,1,5.58,3.87,5.59a4.6,4.6,0,0,0,4.2-2.89,4.93,4.93,0,0,0,.29-1.62l0-10.66h3.15Z" transform="translate(-6.28 -5.03)"/><path d="M1027.48,159.4l-.18-2.21h-.09a6.47,6.47,0,0,1-5.44,2.34,5,5,0,0,1-5.08-5.24c.2-4.21,4-6.35,10.76-6v-.37c.07-1.41-.2-4.05-3.77-4.2a8.49,8.49,0,0,0-4.59,1.09l-.62-2.14a11,11,0,0,1,5.81-1.26c5.32.26,6.44,4,6.28,7.44l-.31,6.5a27.11,27.11,0,0,0,.07,4.18Zm-.08-8.9c-3.42-.24-7.36.19-7.52,3.56a2.79,2.79,0,0,0,2.81,3.17,4.36,4.36,0,0,0,4.37-2.72,3,3,0,0,0,.2-1Z" transform="translate(-6.28 -5.03)"/><path d="M1047.53,152.31l-2.65,7.58-3.25-.06,8.7-24.11,3.76.07,7.85,24.41-3.35-.06-2.46-7.67Zm8-2.3-2.28-7c-.49-1.59-.83-3-1.17-4.44H1052c-.37,1.42-.78,2.89-1.28,4.37l-2.52,7Z" transform="translate(-6.28 -5.03)"/><path d="M1065.51,147.56c0-1.82,0-3.26-.06-4.7l2.79,0,.13,2.86h.08a6.47,6.47,0,0,1,5.82-3.15c2.39,0,6.11,1.55,6,7.53l-.19,10.39-3.15-.06.18-10c.05-2.81-1-5.19-3.93-5.24a4.56,4.56,0,0,0-4.32,3.17,4.83,4.83,0,0,0-.25,1.46l-.19,10.49-3.15,0Z" transform="translate(-6.28 -5.03)"/><path d="M1089.32,138.28l-.09,5,4.55.09,0,2.39-4.55-.08-.17,9.38c0,2.17.56,3.41,2.33,3.44a6.15,6.15,0,0,0,1.84-.2l.1,2.41a8.16,8.16,0,0,1-2.84.39,4.43,4.43,0,0,1-3.39-1.41c-.85-1-1.18-2.51-1.15-4.56l.18-9.51-2.7,0,0-2.39,2.7.05.08-4.2Z" transform="translate(-6.28 -5.03)"/><path d="M1113,152.28c-.12,6.44-4.63,9.17-8.85,9.09-4.71-.08-8.28-3.6-8.18-9.11.1-5.83,4-9.18,8.8-9.09C1109.74,143.26,1113.06,147,1113,152.28Zm-13.83-.07c-.07,3.81,2.08,6.73,5.17,6.79s5.35-2.75,5.42-6.67c0-3-1.36-6.72-5.1-6.79S1099.19,148.9,1099.13,152.21Zm6.67-16.15,3.36,5.21-2.45-.05-2-3.46h-.07l-2.15,3.38-2.34,0,3.47-5.08Z" transform="translate(-6.28 -5.03)"/><path d="M1117,148.5c0-1.8,0-3.27-.06-4.71l2.81.05.13,2.88h.07a6.42,6.42,0,0,1,5.82-3.17c2.41,0,6.13,1.55,6,7.53l-.19,10.4-3.17-.06.19-10c0-2.81-1-5.17-3.94-5.22a4.5,4.5,0,0,0-4.31,3.16,4.62,4.62,0,0,0-.24,1.47l-.19,10.48-3.17-.06Z" transform="translate(-6.28 -5.03)"/><path d="M1140.58,139.27a2,2,0,0,1-3.92,0,1.94,1.94,0,0,1,2-2A1.87,1.87,0,0,1,1140.58,139.27Zm-3.64,22.3.09-17.42h3.17l-.09,17.43Z" transform="translate(-6.28 -5.03)"/><path d="M1160.91,152.53c.09,6.44-4.33,9.31-8.54,9.37-4.72.06-8.4-3.34-8.48-8.85-.08-5.83,3.69-9.3,8.51-9.37C1157.4,143.61,1160.84,147.2,1160.91,152.53Zm-13.82.37c.06,3.81,2.29,6.66,5.39,6.62s5.25-2.92,5.2-6.84c0-3-1.57-6.68-5.32-6.62S1147.05,149.59,1147.09,152.9Z" transform="translate(-6.28 -5.03)"/><path d="M1171.91,137.14a33.07,33.07,0,0,1,6-.69c3.34-.11,5.52.43,7.08,1.75a6,6,0,0,1,2,4.54,6.36,6.36,0,0,1-4.37,6.34v.11c1.89.58,3.06,2.28,3.72,4.78a39.21,39.21,0,0,0,2.08,6.59l-3.24.11a32.16,32.16,0,0,1-1.8-5.74c-.83-3.33-2.16-4.55-5-4.56l-3,.09.34,10.51-3.13.1Zm3.48,11,3.21-.1c3.34-.11,5.4-2,5.32-4.79-.11-3.13-2.42-4.42-5.73-4.35a12.89,12.89,0,0,0-3.08.39Z" transform="translate(-6.28 -5.03)"/><path d="M1207.42,150.94c.27,6.44-4.08,9.42-8.29,9.6-4.71.19-8.48-3.12-8.71-8.62-.23-5.83,3.44-9.4,8.26-9.59C1203.68,142.12,1207.21,145.62,1207.42,150.94Zm-13.8.74c.15,3.81,2.47,6.6,5.56,6.48s5.17-3.06,5-7c-.12-3-1.75-6.63-5.49-6.48S1193.48,148.37,1193.62,151.68Z" transform="translate(-6.28 -5.03)"/><path d="M1225.19,133.15l1.22,21c.09,1.55.23,3.31.4,4.48l-2.83.17-.32-3h-.08a6.42,6.42,0,0,1-5.73,3.76c-4.2.25-7.64-3.12-7.95-8.4-.37-5.79,3-9.55,7.26-9.8a5.84,5.84,0,0,1,5.4,2.35h.07l-.61-10.39Zm-2.28,15.38a5.52,5.52,0,0,0-.22-1.32,4.67,4.67,0,0,0-4.78-3.4c-3.27.19-5,3.18-4.82,7,.21,3.52,2.1,6.33,5.51,6.13a4.77,4.77,0,0,0,4.42-4,5.65,5.65,0,0,0,.06-1.38Z" transform="translate(-6.28 -5.03)"/><path d="M1231.14,146.41c-.13-2-.28-3.81-.49-5.41l2.76-.18.33,3.4h.14a5.22,5.22,0,0,1,4.57-4.11,2.9,2.9,0,0,1,.9.05l.2,3a4.74,4.74,0,0,0-1.09,0c-2.23.14-3.7,1.93-4,4.33a10,10,0,0,0,0,1.48l.6,9.27-3.13.2Z" transform="translate(-6.28 -5.03)"/><path d="M1245.73,135a2,2,0,0,1-3.91.28,1.93,1.93,0,0,1,1.84-2.12A1.88,1.88,0,0,1,1245.73,135Zm-2,22.52-1.22-17.39,3.17-.22,1.21,17.39Z" transform="translate(-6.28 -5.03)"/><path d="M1265.79,138.48c0,1.26.06,2.67.22,4.79l.75,10.09c.3,4-.31,6.48-1.88,8.12a9.26,9.26,0,0,1-6.17,2.55,11.21,11.21,0,0,1-5.89-1l.62-2.47a9.74,9.74,0,0,0,5.2,1c3.23-.25,5.47-2.11,5.14-6.49l-.14-1.94h-.08a6.21,6.21,0,0,1-5.31,3.32c-4.31.32-7.67-3.11-8-7.92-.44-5.89,3.16-9.52,7.14-9.81a5.79,5.79,0,0,1,5.65,2.61h.07l0-2.63Zm-2.75,7.1a4.42,4.42,0,0,0-.29-1.42,4.57,4.57,0,0,0-4.67-3c-3,.23-5,2.94-4.67,7,.25,3.41,2.19,6.12,5.6,5.86a4.63,4.63,0,0,0,4.14-3.56,5.76,5.76,0,0,0,.12-1.7Z" transform="translate(-6.28 -5.03)"/><path d="M1286.31,149.54c.15,1.8.31,3.37.53,4.73l-2.8.23-.41-2.83h-.07a6.55,6.55,0,0,1-5.48,3.69c-2.73.22-6.12-1-6.61-7.12l-.82-10.16,3.16-.25.77,9.62c.27,3.3,1.45,5.44,4.32,5.21a4.44,4.44,0,0,0,4.09-4.85l-.86-10.65,3.16-.26Z" transform="translate(-6.28 -5.03)"/><path d="M1293,145.61c.42,4.26,3.3,5.79,6.45,5.53a11.57,11.57,0,0,0,4.74-1.3l.72,2.22a14,14,0,0,1-5.69,1.55c-5.34.45-8.82-2.8-9.26-8s2.31-9.62,7.37-10c5.67-.47,7.59,4.39,7.85,7.58,0,.65,0,1.16,0,1.48Zm9.07-3c-.13-2-1.25-5.06-4.81-4.77-3.19.27-4.34,3.32-4.41,5.53Z" transform="translate(-6.28 -5.03)"/><path d="M1309.18,149.16a8.34,8.34,0,0,0,4.27.91c2.29-.19,3.27-1.43,3.15-2.87s-1.09-2.25-3.49-2.92c-3.22-.85-4.83-2.45-5-4.53-.23-2.8,1.84-5.28,5.57-5.6a8.81,8.81,0,0,1,4.36.72l-.6,2.36a6.79,6.79,0,0,0-3.64-.7c-1.86.15-2.81,1.32-2.7,2.61s1.21,2,3.54,2.66c3.11.9,4.78,2.28,5,4.86.25,3.05-1.93,5.4-6.06,5.75a10,10,0,0,1-5-.78Z" transform="translate(-6.28 -5.03)"/><path d="M21.32,499.24l-1.79,9.23,8.6,1.67,2-10.33,2.56.5-2.6,13.42L6.28,509.11l2.5-12.87,2.56.49-1.9,9.79L17,508l1.79-9.23Z" transform="translate(-6.28 -5.03)"/><path d="M30.22,496.19a8.65,8.65,0,0,0,2-3.88c.44-2.27-.47-3.54-1.9-3.81s-2.45.46-3.75,2.56c-1.71,2.88-3.68,4-5.72,3.61-2.75-.54-4.58-3.21-3.87-6.89a8.4,8.4,0,0,1,1.87-4L21,485a6.89,6.89,0,0,0-1.69,3.31c-.36,1.84.51,3,1.8,3.29s2.24-.61,3.54-2.68c1.67-2.74,3.45-4,6-3.49,3,.59,4.69,3.35,3.91,7.39a10,10,0,0,1-2.13,4.57Z" transform="translate(-6.28 -5.03)"/><path d="M14.89,474.37l4.92.95.87-4.46,2.35.45-.86,4.47,9.21,1.79c2.13.41,3.45,0,3.79-1.71a6.34,6.34,0,0,0,.12-1.84l2.39.31a8.2,8.2,0,0,1-.11,2.86,4.42,4.42,0,0,1-2,3.1c-1.11.68-2.68.73-4.69.34l-9.33-1.81-.52,2.65L18.71,481l.51-2.65-4.12-.8Z" transform="translate(-6.28 -5.03)"/><path d="M26.68,468.38c-2-.39-3.75-.67-5.35-.89l.53-2.72,3.38.53,0-.11a5.29,5.29,0,0,1-2.82-5.49,3.44,3.44,0,0,1,.25-.84l2.93.56a5,5,0,0,0-.3,1c-.42,2.19.93,4.06,3.17,4.93a8,8,0,0,0,1.43.41l9.13,1.77-.6,3.09Z" transform="translate(-6.28 -5.03)"/><path d="M42.5,449.8l-2.22-.15v.1a6.48,6.48,0,0,1,1.53,5.72,5,5,0,0,1-5.92,4.27c-4.14-.8-5.7-4.91-4.37-11.51l-.36-.07c-1.39-.27-4-.38-4.7,3.13a8.43,8.43,0,0,0,.41,4.7l-2.2.3a10.9,10.9,0,0,1-.41-5.93c1-5.22,4.83-5.8,8.26-5.14l6.39,1.24A26.83,26.83,0,0,0,43,447Zm-8.82-1.21c-.73,3.35-.87,7.32,2.43,8a2.79,2.79,0,0,0,3.54-2.33,4.35,4.35,0,0,0-2-4.72,3.17,3.17,0,0,0-1-.33Z" transform="translate(-6.28 -5.03)"/><path d="M21.73,422.62l20.69,4c1.51.29,3.24.56,4.43.71l-.54,2.76-3-.41,0,.08a6.38,6.38,0,0,1,2.22,6.45c-.8,4.14-4.92,6.65-10.1,5.65-5.72-1.08-8.5-5.3-7.7-9.46a5.8,5.8,0,0,1,3.59-4.65l0-.07-10.21-2Zm14.36,6a6.15,6.15,0,0,0-1.36-.13,4.69,4.69,0,0,0-4.45,3.81c-.62,3.22,1.83,5.69,5.59,6.41,3.47.68,6.68-.49,7.33-3.84a4.78,4.78,0,0,0-2.85-5.27,4.84,4.84,0,0,0-1.3-.41Z" transform="translate(-6.28 -5.03)"/><path d="M49.66,412.83l-2.21-.14v.09A6.5,6.5,0,0,1,49,418.5a5,5,0,0,1-5.92,4.27c-4.14-.8-5.7-4.91-4.37-11.5l-.37-.07c-1.39-.27-4-.38-4.69,3.12A8.43,8.43,0,0,0,34,419l-2.21.31a11,11,0,0,1-.4-5.93c1-5.23,4.83-5.81,8.25-5.15l6.4,1.24a26.93,26.93,0,0,0,4.14.54Zm-8.82-1.21c-.72,3.35-.86,7.32,2.44,8a2.78,2.78,0,0,0,3.54-2.32,4.35,4.35,0,0,0-2-4.72,3.52,3.52,0,0,0-1-.34Z" transform="translate(-6.28 -5.03)"/><path d="M30.35,378.18l20.68,4c1.52.3,3.24.57,4.44.71l-.54,2.77-3-.42,0,.09a6.38,6.38,0,0,1,2.22,6.44c-.8,4.14-4.92,6.66-10.11,5.65-5.71-1.08-8.5-5.3-7.69-9.46a5.81,5.81,0,0,1,3.59-4.65l0-.07-10.21-2Zm14.35,6a6.65,6.65,0,0,0-1.35-.13,4.7,4.7,0,0,0-4.45,3.81c-.62,3.22,1.83,5.69,5.58,6.42,3.47.67,6.69-.5,7.34-3.85A4.77,4.77,0,0,0,49,385.16a5.51,5.51,0,0,0-1.3-.42Z" transform="translate(-6.28 -5.03)"/><path d="M50.74,360.7c6.33,1.23,8.24,6.15,7.45,10.26-.9,4.64-5,7.56-10.4,6.51-5.72-1.11-8.33-5.52-7.42-10.24C41.32,362.31,45.53,359.69,50.74,360.7Zm-2.43,13.59c3.75.73,7-.87,7.57-3.91s-1.77-5.74-5.65-6.5c-2.89-.56-6.83.19-7.55,3.89S45.07,373.66,48.31,374.29Z" transform="translate(-6.28 -5.03)"/><path d="M38.19,346.29a29.86,29.86,0,0,1,.58-5.71c.6-3.09,1.5-5,3-6.21a5.16,5.16,0,0,1,4.6-1.17,5.74,5.74,0,0,1,4.44,5l.09,0a6.22,6.22,0,0,1,6.93-3.76,6.39,6.39,0,0,1,4.35,2.95c1.22,1.94,1.4,4.76.64,8.66a41.44,41.44,0,0,1-1.19,4.73Zm10.36-1.18.54-2.82c.63-3.22-.72-5.46-3-5.9-2.76-.54-4.28,1.34-4.88,4.45a12.43,12.43,0,0,0-.31,2.78Zm11.39,2.21a14.65,14.65,0,0,0,.66-2.56c.62-3.2,0-6.36-3.45-7-3.24-.63-5.14,1.91-5.79,5.27l-.5,2.56Z" transform="translate(-6.28 -5.03)"/><path d="M67.23,322.25,65,322.1l0,.09a6.51,6.51,0,0,1,1.54,5.73,5,5,0,0,1-5.92,4.27c-4.14-.81-5.7-4.92-4.38-11.51l-.36-.07c-1.39-.27-4-.38-4.7,3.13a8.62,8.62,0,0,0,.41,4.7l-2.2.3a10.91,10.91,0,0,1-.4-5.93c1-5.22,4.83-5.8,8.25-5.14l6.4,1.24a26.68,26.68,0,0,0,4.14.53ZM58.41,321c-.72,3.35-.86,7.32,2.44,8a2.79,2.79,0,0,0,3.54-2.33A4.37,4.37,0,0,0,62.33,322a3.4,3.4,0,0,0-.95-.34Z" transform="translate(-6.28 -5.03)"/><path d="M56.22,312.27c-1.78-.35-3.21-.56-4.64-.76l.53-2.74,2.85.37v-.09a6.41,6.41,0,0,1-2.1-6.27c.45-2.34,2.58-5.75,8.45-4.61l10.2,2-.6,3.09-9.86-1.91c-2.76-.54-5.28.06-5.84,3a4.54,4.54,0,0,0,2.38,4.8,4.69,4.69,0,0,0,1.4.5l10.3,2-.6,3.1Z" transform="translate(-6.28 -5.03)"/><path d="M50.27,275.45l20.69,4c1.51.29,3.24.57,4.43.71l-.54,2.77-3-.42,0,.08a6.38,6.38,0,0,1,2.22,6.45c-.8,4.14-4.92,6.66-10.1,5.65-5.72-1.08-8.5-5.3-7.7-9.46a5.81,5.81,0,0,1,3.59-4.65l0-.07-10.21-2Zm14.36,6a6.82,6.82,0,0,0-1.36-.13,4.69,4.69,0,0,0-4.45,3.81c-.62,3.22,1.83,5.69,5.59,6.42,3.47.67,6.68-.5,7.33-3.85a4.78,4.78,0,0,0-2.85-5.27,5.22,5.22,0,0,0-1.3-.41Z" transform="translate(-6.28 -5.03)"/><path d="M68.72,271.83c4.22.75,6.47-1.58,7.07-4.7a11.6,11.6,0,0,0,0-4.9l2.32-.12a14.13,14.13,0,0,1,0,5.92c-1,5.25-5.13,7.73-10.25,6.73s-8.64-4.84-7.67-9.83c1.08-5.57,6.26-6.08,9.4-5.47a7.06,7.06,0,0,1,1.44.39Zm-.47-9.53c-2-.41-5.18-.17-5.86,3.31-.62,3.17,2,5.08,4.11,5.75Z" transform="translate(-6.28 -5.03)"/><path d="M58.55,249.7a2,2,0,1,1-.74,3.85,1.92,1.92,0,0,1-1.56-2.31A1.89,1.89,0,0,1,58.55,249.7Zm21.25,7.72-17.09-3.31.6-3.09,17.09,3.31Z" transform="translate(-6.28 -5.03)"/><path d="M69.64,246.88c-2-.39-3.75-.67-5.35-.89l.52-2.72,3.38.53,0-.11a5.29,5.29,0,0,1-2.82-5.49,3.94,3.94,0,0,1,.26-.84l2.92.56a5,5,0,0,0-.29,1c-.43,2.19.92,4.06,3.17,4.93a8.15,8.15,0,0,0,1.42.41L82,246.07l-.6,3.09Z" transform="translate(-6.28 -5.03)"/><path d="M85.45,228.3l-2.21-.14,0,.09A6.47,6.47,0,0,1,84.75,234a5,5,0,0,1-5.91,4.27c-4.14-.8-5.7-4.91-4.38-11.5l-.36-.07c-1.39-.27-4-.38-4.7,3.12a8.51,8.51,0,0,0,.41,4.7l-2.2.31a11,11,0,0,1-.41-5.93c1-5.23,4.84-5.81,8.26-5.14L81.85,225a26.93,26.93,0,0,0,4.14.54Zm-8.82-1.21c-.72,3.35-.87,7.32,2.44,8a2.79,2.79,0,0,0,3.54-2.32A4.36,4.36,0,0,0,80.55,228a3.4,3.4,0,0,0-1-.34Z" transform="translate(-6.28 -5.03)"/><path d="M74.45,218.31c-1.79-.35-3.22-.56-4.65-.76l.53-2.74,2.85.37v-.09a6.41,6.41,0,0,1-2.1-6.27c.46-2.34,2.58-5.75,8.45-4.61l10.2,2-.6,3.09-9.86-1.91c-2.76-.54-5.27.06-5.84,3a4.56,4.56,0,0,0,2.38,4.8,4.69,4.69,0,0,0,1.4.5l10.3,2-.6,3.1Z" transform="translate(-6.28 -5.03)"/><path d="M69.41,193.25l4.92.95.87-4.46,2.35.45-.87,4.47,9.22,1.78c2.12.42,3.45,0,3.78-1.7a6.43,6.43,0,0,0,.13-1.84l2.39.31a8.2,8.2,0,0,1-.11,2.86,4.42,4.42,0,0,1-2,3.1c-1.11.67-2.68.73-4.69.34l-9.34-1.81-.51,2.65-2.35-.46.51-2.64-4.12-.8Z" transform="translate(-6.28 -5.03)"/><path d="M85.28,186.47c4.21.75,6.46-1.58,7.07-4.7a11.77,11.77,0,0,0,0-4.9l2.31-.12a14,14,0,0,1,0,5.91c-1,5.26-5.13,7.74-10.26,6.74s-8.63-4.84-7.67-9.83c1.08-5.57,6.26-6.08,9.41-5.47a7.55,7.55,0,0,1,1.43.38Zm-.47-9.53c-2-.41-5.19-.17-5.87,3.31-.61,3.17,2,5.08,4.11,5.75Z" transform="translate(-6.28 -5.03)"/><path d="M303.89,721.37a33.76,33.76,0,0,1,6.05-.12c3.32.23,5.47,1,6.88,2.46a6.09,6.09,0,0,1,1.6,4.73,6.43,6.43,0,0,1-5,5.87v.09c1.8.77,2.8,2.59,3.22,5.13a40.4,40.4,0,0,0,1.42,6.77l-3.25-.21a32.75,32.75,0,0,1-1.2-5.9c-.5-3.37-1.72-4.74-4.55-5l-2.95-.2-.7,10.49-3.13-.21Zm2.39,11.23,3.2.21c3.34.23,5.59-1.45,5.77-4.23.21-3.14-2-4.66-5.26-4.88a13.28,13.28,0,0,0-3.12.07Z" transform="translate(-6.28 -5.03)"/><path d="M336.33,742.75c-.12,1.82-.17,3.38-.17,4.76l-2.79-.19,0-2.85h-.09a6.51,6.51,0,0,1-6,2.85c-2.71-.18-5.88-1.92-5.47-8l.68-10.16,3.14.21L325,739c-.22,3.31.66,5.63,3.51,5.82a4.59,4.59,0,0,0,4.37-2.62,4.7,4.7,0,0,0,.4-1.6l.71-10.64,3.14.21Z" transform="translate(-6.28 -5.03)"/><path d="M350.91,748.49l-.14-2.21h-.09a6.48,6.48,0,0,1-5.49,2.23,5,5,0,0,1-5-5.34c.28-4.21,4.16-6.27,10.87-5.77l0-.37c.1-1.41-.12-4-3.68-4.27a8.5,8.5,0,0,0-4.62,1l-.57-2.15a10.92,10.92,0,0,1,5.83-1.14c5.31.35,6.36,4.07,6.13,7.55l-.43,6.5a27.88,27.88,0,0,0,0,4.18Zm.1-8.9c-3.42-.3-7.37,0-7.6,3.41a2.79,2.79,0,0,0,2.75,3.23,4.37,4.37,0,0,0,4.43-2.63,3.32,3.32,0,0,0,.21-1Z" transform="translate(-6.28 -5.03)"/><path d="M379.6,739l-9.39-.63-.58,8.75,10.5.7-.18,2.6-13.64-.91,1.62-24.21,13.08.88-.17,2.6-9.94-.66-.52,7.67,9.39.62Z" transform="translate(-6.28 -5.03)"/><path d="M384.68,738.73c.13-2.05.2-3.8.21-5.42l2.77.19-.1,3.42h.11a5.29,5.29,0,0,1,5.09-3.48,3.75,3.75,0,0,1,.87.15l-.2,3a4.94,4.94,0,0,0-1.06-.16c-2.23-.15-3.92,1.42-4.5,3.76a9.1,9.1,0,0,0-.23,1.46l-.62,9.29-3.14-.21Z" transform="translate(-6.28 -5.03)"/><path d="M396.63,738.81c.12-1.81.16-3.25.17-4.7l2.79.19v2.86h.09a6.43,6.43,0,0,1,6-2.87c2.38.16,6,1.85,5.62,7.81l-.69,10.37-3.14-.21.67-10c.19-2.81-.72-5.23-3.67-5.43a4.57,4.57,0,0,0-4.48,3,5,5,0,0,0-.31,1.45l-.7,10.47-3.14-.21Z" transform="translate(-6.28 -5.03)"/><path d="M418,744.82c-.23,4.28,2.37,6.22,5.54,6.43a11.66,11.66,0,0,0,4.87-.57l.4,2.28a13.78,13.78,0,0,1-5.87.72c-5.33-.35-8.31-4.12-8-9.33s3.73-9.17,8.8-8.83c5.67.37,6.82,5.45,6.6,8.64a7.74,7.74,0,0,1-.2,1.48Zm9.39-1.65c.17-2-.47-5.17-4-5.41-3.23-.21-4.79,2.61-5.19,4.79Z" transform="translate(-6.28 -5.03)"/><path d="M433.42,750.89a8.58,8.58,0,0,0,4.09,1.56c2.3.18,3.46-.87,3.57-2.32s-.74-2.39-3-3.43c-3.05-1.38-4.4-3.2-4.23-5.28.21-2.8,2.66-4.91,6.4-4.63a8.53,8.53,0,0,1,4.17,1.4l-1,2.24a6.69,6.69,0,0,0-3.48-1.3c-1.86-.15-3,.85-3.06,2.16s.86,2.15,3.07,3.21c2.9,1.35,4.34,3,4.15,5.57-.24,3.08-2.8,5-6.9,4.73a10,10,0,0,1-4.78-1.59Z" transform="translate(-6.28 -5.03)"/><path d="M453.3,733.16l-.38,5,4.54.35-.18,2.39-4.54-.34L452,749.9c-.16,2.17.37,3.44,2.14,3.57a6.21,6.21,0,0,0,1.84-.09l0,2.41a8.09,8.09,0,0,1-2.86.22,4.46,4.46,0,0,1-3.31-1.59c-.79-1-1-2.59-.88-4.63l.72-9.48-2.69-.2.18-2.39,2.69.2.32-4.18Z" transform="translate(-6.28 -5.03)"/><path d="M459.72,756.13,461,738.76l3.14.24-1.29,17.36Zm5.18-22a2,2,0,1,1-1.8-2.11A1.88,1.88,0,0,1,464.9,734.12Z" transform="translate(-6.28 -5.03)"/><path d="M469,744.08c.13-1.82.17-3.26.19-4.7l2.79.2,0,2.87h.09a6.42,6.42,0,0,1,6-2.83c2.38.17,6,1.88,5.58,7.85l-.75,10.35-3.15-.22.73-10c.21-2.8-.68-5.23-3.64-5.45a4.57,4.57,0,0,0-4.49,2.94,4.86,4.86,0,0,0-.32,1.44L471.24,757l-3.14-.23Z" transform="translate(-6.28 -5.03)"/><path d="M497.63,758.88l-.12-2.21h-.09a6.46,6.46,0,0,1-5.5,2.21,5,5,0,0,1-4.95-5.36c.3-4.2,4.19-6.25,10.9-5.73l0-.37c.1-1.41-.11-4-3.67-4.28a8.46,8.46,0,0,0-4.61,1L489,742a11,11,0,0,1,5.84-1.12c5.31.38,6.34,4.1,6.1,7.58l-.47,6.5a27.83,27.83,0,0,0,0,4.17Zm.14-8.9c-3.41-.32-7.37,0-7.6,3.38a2.78,2.78,0,0,0,2.73,3.23,4.37,4.37,0,0,0,4.44-2.61,3.35,3.35,0,0,0,.22-1Z" transform="translate(-6.28 -5.03)"/><path class="cls-2" d="M272.79,356.47q-12,9.73-21.45,13.51T234,371.82a24.91,24.91,0,0,1-9.87-4.7,24.31,24.31,0,0,1-6.18-7.35,23.79,23.79,0,0,1-2.71-8.71,23.69,23.69,0,0,1,4.11-16.62,24,24,0,0,1,6.45-6.44,24.47,24.47,0,0,1,8.89-3.62,25.05,25.05,0,0,1,11,.46q7.77,1.92,14.41,9.69T272.79,356.47Zm-26.34-6.59a6.85,6.85,0,0,0-.9-5.52,7.28,7.28,0,0,0-4.57-3.31,7.09,7.09,0,0,0-5.55.85,7,7,0,0,0-3.31,4.43,7.21,7.21,0,0,0,.83,5.6,7,7,0,0,0,4.51,3.37,7.49,7.49,0,0,0,9-5.42Zm34.61,33.57-7.69-1.9,11.61-47,7.7,1.91Z" transform="translate(-6.28 -5.03)"/><path class="cls-3" d="M556.5,390.79q-10.86,10.93-19.9,15.7t-17.06,3.66a24.74,24.74,0,0,1-10.31-3.63,24.23,24.23,0,0,1-6.92-6.66,23.83,23.83,0,0,1-3.62-8.37,23.71,23.71,0,0,1,2.33-17,23.93,23.93,0,0,1,5.74-7.08,24.24,24.24,0,0,1,8.46-4.54,24.92,24.92,0,0,1,11-.71q7.93,1.1,15.36,8.11T556.5,390.79ZM529.61,387a6.84,6.84,0,0,0-1.47-5.4,7.32,7.32,0,0,0-4.89-2.8A7.34,7.34,0,0,0,515,385a7.23,7.23,0,0,0,1.42,5.47,7,7,0,0,0,4.84,2.88,7.48,7.48,0,0,0,8.36-6.34Zm38,29.73-7.85-1.08,6.58-48,7.86,1.08Z" transform="translate(-6.28 -5.03)"/></g></g></svg>