<?xml version="1.0" encoding="utf-8"?>
<!-- Generator: Adobe Illustrator 25.0.0, SVG Export Plug-In . SVG Version: 6.00 Build 0)  -->
<svg version="1.1" id="Layer_1" xmlns="http://www.w3.org/2000/svg" xmlns:xlink="http://www.w3.org/1999/xlink" x="0px" y="0px"
	 viewBox="0 0 48 48" style="enable-background:new 0 0 48 48;" xml:space="preserve">
<style type="text/css">
	.st0{fill:#9E0000;}
</style>
<path class="st0" d="M13.1,43c-0.9,0-1.6-0.3-2.2-1c-0.5-0.6-0.8-1.3-0.8-2.1l0-28.4H9.2C8.5,11.5,8,11,8,10.3V8.7
	C8,8,8.5,7.5,9.2,7.5h8.2V6h13.2v1.5h8.2C39.5,7.5,40,8,40,8.7v1.6c0,0.7-0.5,1.2-1.2,1.2H38V40c0,0.8-0.3,1.5-0.9,2.1
	C36.4,42.7,35.8,43,35,43H13.1z M33.7,11.5H14.3c-0.7,0-1.2,0.5-1.2,1.2v26.1c0,0.7,0.5,1.2,1.2,1.2h19.5c0.7,0,1.2-0.5,1.2-1.2
	V12.7C35,12,34.4,11.5,33.7,11.5z M19.3,35.7h1.1c0.5,0,1-0.4,1-1v-18c0-0.5-0.4-1-1-1h-1.1c-0.5,0-1,0.4-1,1v18
	C18.4,35.3,18.8,35.7,19.3,35.7z M27.6,35.7h1.1c0.5,0,1-0.4,1-1v-18c0-0.5-0.4-1-1-1h-1.1c-0.5,0-1,0.4-1,1v18
	C26.7,35.3,27.1,35.7,27.6,35.7z M13.1,11.5V40V11.5z"/>
</svg>
