<svg xmlns="http://www.w3.org/2000/svg" viewBox="0 0 1736.95 715.82"><defs><style>.cls-1{fill:#cfdcfa;}.cls-1,.cls-2{stroke:#000;stroke-miterlimit:10;stroke-width:4px;}.cls-2{fill:none;}</style></defs><g id="Layer_2" data-name="Layer 2"><g id="Novo_Mapa" data-name="Novo Mapa"><path class="cls-1" d="M138.75,46.33h1572.6a11.61,11.61,0,0,1,8.5,19.51L1599.16,195.69a95.89,95.89,0,0,1-70.24,30.61H355.19A149.11,149.11,0,0,1,256,188.55l-128-114C116.94,64.66,123.92,46.33,138.75,46.33Z" transform="translate(-7.87 -4.58)"/><path class="cls-1" d="M311.07,284.21H1491.86a14,14,0,0,1,10.29,23.47L1377.35,443.2a45,45,0,0,1-33.07,14.5H70.07c-14,0-19.33-18.34-7.47-25.83l221.93-140A49.69,49.69,0,0,1,311.07,284.21Z" transform="translate(-7.87 -4.58)"/><path class="cls-1" d="M1325.23,510.43l-158.84,170.9H241.63a29.19,29.19,0,0,1-18.44-6.56L69.13,549.14c-15.9-13-6.73-38.71,13.78-38.71Z" transform="translate(-7.87 -4.58)"/><polyline class="cls-2" points="1158.11 676.76 1222.74 676.34 1381.59 505.44 1317.11 505.76"/><path d="M1256.09,623.72l-4.28,4.61,5.48,5.1,4.84-5.2,3.41,3.17-8.5,9.14-20.24-18.81,8.18-8.8,3.42,3.17-4.52,4.86,4.66,4.33,4.28-4.61Z" transform="translate(-7.87 -4.58)"/><path d="M1264,625.93a7.64,7.64,0,0,0,3.24-1.94c.94-1,1-2,.17-2.81s-1.64-.71-3.58-.13c-3.58,1.14-5.66.3-7-.95-2.64-2.45-2.89-6.22-.15-9.16a9.08,9.08,0,0,1,3.45-2.34l2.24,3.36a5.6,5.6,0,0,0-2.5,1.49,1.75,1.75,0,0,0-.12,2.64c.65.6,1.35.61,3.45,0,3.24-1,5.51-.39,7.17,1.15,3,2.81,2.64,6.46-.2,9.51a8.7,8.7,0,0,1-3.94,2.56Z" transform="translate(-7.87 -4.58)"/><path d="M1284.06,611a9,9,0,0,1-1.89,2.91c-3.46,3.73-8.3,3.76-13.11-.7-4.54-4.23-5.2-9.82-1.42-13.89a7.8,7.8,0,0,1,2.39-1.79l2.61,3.38a6.12,6.12,0,0,0-1.63,1.22c-1.76,1.89-1,4.68,1.56,7.06s5.36,2.87,7.06,1a4.63,4.63,0,0,0,1.06-1.75Z" transform="translate(-7.87 -4.58)"/><path d="M1292.3,602.61l-1.65-1.13-.06.07a5.23,5.23,0,0,1-1.33,4.81c-2.06,2.22-5.45,2.15-8.06-.27-3.86-3.59-2.28-8.45.78-11.8l-.33-.3a2.56,2.56,0,0,0-3.93.2,7.56,7.56,0,0,0-1.92,3.78l-3.31-1.74a13.07,13.07,0,0,1,3.12-5.61c4.14-4.47,8-2.29,10.94.48l5.46,5.08a29,29,0,0,0,3.56,2.91Zm-7.68-6.08c-1.19,1.32-2.43,3.55-.38,5.45,1.45,1.35,2.74,1,3.31.42a2.27,2.27,0,0,0,.23-2.78,3.13,3.13,0,0,0-.59-.71Z" transform="translate(-7.87 -4.58)"/><path d="M1287.1,566.54l16.44,15.28c1.38,1.29,3,2.72,4.45,3.91l-3.15,3.39-1.86-1.33-.07.07a4.8,4.8,0,0,1-.94,4.82c-2.91,3.14-7.71,1.35-11.79-2.45-5.12-4.75-5.54-9.33-3.24-11.8a3.46,3.46,0,0,1,3.78-1.1l.06-.06-7.33-6.81Zm8.08,14.82a6.7,6.7,0,0,0-.9-.74c-1-.69-2.28-1-3-.19-1.28,1.38.25,3.76,2.63,6,2.79,2.6,5,3.18,6,2.1.47-.51.72-1.31,0-2.55a3.78,3.78,0,0,0-.79-1Z" transform="translate(-7.87 -4.58)"/><path d="M1294.89,566.25c-1.93-1.78-2.89-3.94-1.53-5.4a4.92,4.92,0,0,1,2.13-1.22A3.23,3.23,0,0,0,1297,559c.35-.39.43-.77-.51-1.67l1.61-1.74c2.39,2.22,2.65,4,1.46,5.28a5.4,5.4,0,0,1-2,1.15c-.69.27-1.21.28-1.59.69s-.21,1.07.53,1.8Zm21.68,10.25-1.65-1.13-.06.06a5.24,5.24,0,0,1-1.33,4.82c-2.07,2.22-5.45,2.15-8.06-.28-3.86-3.59-2.28-8.44.78-11.79l-.33-.3a2.56,2.56,0,0,0-3.93.2,7.48,7.48,0,0,0-1.92,3.78l-3.31-1.74a13.14,13.14,0,0,1,3.12-5.62c4.14-4.46,7.95-2.28,10.93.49l5.47,5.08a30,30,0,0,0,3.56,2.91Zm-7.68-6.09c-1.19,1.33-2.43,3.55-.38,5.45,1.45,1.35,2.74,1,3.31.43a2.28,2.28,0,0,0,.23-2.78,3,3,0,0,0-.6-.71Z" transform="translate(-7.87 -4.58)"/><path d="M1324.77,552.84c6.12,5.69,4.49,10.49,2.42,12.71-3.26,3.51-8,3-12.76-1.39-5.27-4.89-5.06-9.87-2.35-12.78C1315.29,547.91,1320.14,548.54,1324.77,552.84Zm-6.78,7.35c2.51,2.33,5,3.89,6.3,2.49s-1-3.9-3.13-5.9-4.89-3.93-6.13-2.59S1316,558.29,1318,560.19Z" transform="translate(-7.87 -4.58)"/><path d="M506.92,471.3a33.12,33.12,0,0,1,6-.52c3.32,0,5.51.63,7,2a6.1,6.1,0,0,1,1.9,4.61,6.42,6.42,0,0,1-4.57,6.19v.08c1.85.65,3,2.4,3.55,4.92a41.17,41.17,0,0,0,1.87,6.66h-3.25a32.21,32.21,0,0,1-1.59-5.81c-.72-3.33-2-4.61-4.87-4.71h-3v10.52h-3.13Zm3.13,11h3.2c3.36,0,5.48-1.83,5.48-4.61,0-3.15-2.27-4.52-5.58-4.52a13.4,13.4,0,0,0-3.1.28Z" transform="translate(-7.87 -4.58)"/><path d="M540.72,490.46c0,1.83.06,3.39.14,4.77h-2.8l-.17-2.85h-.08a6.53,6.53,0,0,1-5.77,3.24c-2.72,0-6-1.53-6-7.63V477.82h3.15v9.62c0,3.31,1,5.57,3.89,5.57a4.62,4.62,0,0,0,4.19-2.91,4.93,4.93,0,0,0,.29-1.62V477.82h3.15Z" transform="translate(-7.87 -4.58)"/><path d="M555.65,495.23l-.28-2.2h-.1a6.45,6.45,0,0,1-5.32,2.59,5,5,0,0,1-5.32-5c0-4.22,3.74-6.54,10.46-6.49v-.37c0-1.41-.4-4-4-4a8.52,8.52,0,0,0-4.54,1.29l-.71-2.1a10.91,10.91,0,0,1,5.74-1.53c5.32,0,6.62,3.64,6.62,7.13v6.51a28,28,0,0,0,.26,4.17Zm-.5-8.89c-3.42-.08-7.34.54-7.34,3.91a2.79,2.79,0,0,0,3,3,4.36,4.36,0,0,0,4.24-2.92,3.24,3.24,0,0,0,.15-1Z" transform="translate(-7.87 -4.58)"/><path d="M571.07,471h13.07v2.62h-9.92v8.07h9.16v2.6h-9.16v11h-3.15Z" transform="translate(-7.87 -4.58)"/><path d="M587.57,483.24c0-2.06-.05-3.81-.14-5.42h2.77l.12,3.41h.11a5.31,5.31,0,0,1,4.85-3.81,3.5,3.5,0,0,1,.88.09v3a4.9,4.9,0,0,0-1.08-.09c-2.23,0-3.8,1.68-4.23,4.05a8.46,8.46,0,0,0-.13,1.47v9.31h-3.15Z" transform="translate(-7.87 -4.58)"/><path d="M600.76,487.09c.06,4.28,2.78,6.05,6,6.05a11.81,11.81,0,0,0,4.82-.89l.55,2.24a13.94,13.94,0,0,1-5.81,1.11c-5.34,0-8.56-3.56-8.56-8.78s3.11-9.4,8.19-9.4c5.68,0,7.16,5,7.16,8.19a7.84,7.84,0,0,1-.1,1.48Zm9.26-2.27c0-2-.81-5.13-4.36-5.13-3.23,0-4.61,2.92-4.86,5.13Z" transform="translate(-7.87 -4.58)"/><path d="M620.56,472.9a1.9,1.9,0,0,1-2,2,1.88,1.88,0,0,1-1.91-2,2,2,0,1,1,3.92,0ZM617,495.23V477.82h3.15v17.41Z" transform="translate(-7.87 -4.58)"/><path d="M651.66,494.14a22,22,0,0,1-7.46,1.33c-3.68,0-6.71-.93-9.07-3.21a12.35,12.35,0,0,1-3.37-9c0-7.23,5-12.53,13.11-12.53a15.38,15.38,0,0,1,6.07,1.11l-.78,2.56a12.33,12.33,0,0,0-5.36-1c-5.89,0-9.74,3.66-9.74,9.74s3.68,9.79,9.36,9.79a10.12,10.12,0,0,0,4.16-.65V485h-4.91v-2.51h8Z" transform="translate(-7.87 -4.58)"/><path d="M656.4,483.24c0-2.06,0-3.81-.14-5.42H659l.12,3.41h.11a5.31,5.31,0,0,1,4.85-3.81,3.5,3.5,0,0,1,.88.09v3a4.86,4.86,0,0,0-1.07-.09c-2.24,0-3.81,1.68-4.24,4.05a8.46,8.46,0,0,0-.13,1.47v9.31H656.4Z" transform="translate(-7.87 -4.58)"/><path d="M669.59,487.09c.06,4.28,2.78,6.05,6,6.05a11.81,11.81,0,0,0,4.82-.89l.55,2.24a13.92,13.92,0,0,1-5.8,1.11c-5.35,0-8.57-3.56-8.57-8.78s3.11-9.4,8.19-9.4c5.68,0,7.17,5,7.17,8.19a7.67,7.67,0,0,1-.11,1.48Zm9.27-2.27c0-2-.82-5.13-4.37-5.13-3.23,0-4.61,2.92-4.86,5.13Z" transform="translate(-7.87 -4.58)"/><path d="M700.88,477.82c-.09,1.23-.15,2.64-.15,4.76v10.11c0,4-.82,6.44-2.49,8a9.34,9.34,0,0,1-6.34,2.09,11.24,11.24,0,0,1-5.81-1.43l.79-2.44a9.82,9.82,0,0,0,5.13,1.39c3.23,0,5.61-1.69,5.61-6.1v-1.94h-.08a6.17,6.17,0,0,1-5.53,2.94c-4.34,0-7.42-3.7-7.42-8.52,0-5.9,3.84-9.23,7.86-9.23a5.8,5.8,0,0,1,5.43,3H698l.13-2.6Zm-3.3,6.85a4.85,4.85,0,0,0-.17-1.42,4.59,4.59,0,0,0-4.45-3.37c-3,0-5.18,2.55-5.18,6.6,0,3.41,1.75,6.27,5.15,6.27a4.63,4.63,0,0,0,4.4-3.26,5.58,5.58,0,0,0,.25-1.69Z" transform="translate(-7.87 -4.58)"/><path d="M721.73,486.35c0,6.45-4.47,9.27-8.65,9.27-4.72,0-8.37-3.44-8.37-9,0-5.82,3.83-9.23,8.64-9.23C718.36,477.42,721.73,481.05,721.73,486.35Zm-13.8.21c0,3.82,2.19,6.69,5.28,6.69s5.3-2.84,5.3-6.79c0-2.94-1.48-6.67-5.24-6.67S707.93,483.26,707.93,486.56Zm10-16.3-4.4,5.16h-2.24l3.16-5.16Z" transform="translate(-7.87 -4.58)"/><path d="M725.74,483.24c0-2.06-.06-3.81-.15-5.42h2.78l.12,3.41h.11a5.29,5.29,0,0,1,4.85-3.81,3.5,3.5,0,0,1,.88.09v3a5,5,0,0,0-1.08-.09c-2.23,0-3.81,1.68-4.24,4.05a8.49,8.49,0,0,0-.12,1.47v9.31h-3.15Z" transform="translate(-7.87 -4.58)"/><path d="M741.19,472.9a2,2,0,1,1-3.92,0,1.92,1.92,0,0,1,2-2A1.88,1.88,0,0,1,741.19,472.9Zm-3.53,22.33V477.82h3.15v17.41Z" transform="translate(-7.87 -4.58)"/><path d="M761.84,486.35c0,6.45-4.47,9.27-8.66,9.27-4.72,0-8.37-3.44-8.37-9,0-5.82,3.83-9.23,8.65-9.23C758.46,477.42,761.84,481.05,761.84,486.35Zm-13.81.21c0,3.82,2.19,6.69,5.28,6.69s5.31-2.84,5.31-6.79c0-2.94-1.49-6.67-5.25-6.67S748,483.26,748,486.56Z" transform="translate(-7.87 -4.58)"/><path d="M788.5,469.67v21.07c0,1.54.06,3.28.15,4.49h-2.82l-.16-3h-.08a6.38,6.38,0,0,1-5.91,3.41c-4.22,0-7.47-3.56-7.47-8.84,0-5.82,3.58-9.36,7.82-9.36a5.81,5.81,0,0,1,5.25,2.64h.07V469.67Zm-3.15,15.23a6.18,6.18,0,0,0-.13-1.35,4.67,4.67,0,0,0-4.58-3.64c-3.28,0-5.24,2.87-5.24,6.7,0,3.53,1.76,6.47,5.17,6.47a4.79,4.79,0,0,0,4.63-3.8,5.35,5.35,0,0,0,.15-1.36Z" transform="translate(-7.87 -4.58)"/><path d="M795.55,487.09c.06,4.28,2.78,6.05,6,6.05a11.81,11.81,0,0,0,4.82-.89l.56,2.24a14,14,0,0,1-5.81,1.11c-5.35,0-8.57-3.56-8.57-8.78s3.11-9.4,8.19-9.4c5.68,0,7.17,5,7.17,8.19a7.67,7.67,0,0,1-.11,1.48Zm9.27-2.27c0-2-.82-5.13-4.37-5.13-3.23,0-4.61,2.92-4.86,5.13Z" transform="translate(-7.87 -4.58)"/><path d="M840,484.57c-.18-3.37-.41-7.46-.38-10.46h-.1c-.84,2.81-1.84,5.87-3,9.2l-4.29,11.76h-2.37l-4-11.55c-1.15-3.43-2.1-6.54-2.78-9.41H823c-.08,3-.24,7.06-.48,10.7l-.64,10.42h-3L820.6,471h4l4.13,11.75c1,3,1.82,5.64,2.45,8.17h.09c.64-2.46,1.49-5.13,2.57-8.17L838.17,471h4l1.51,24.27H840.6Z" transform="translate(-7.87 -4.58)"/><path d="M858.26,495.23,858,493h-.09a6.49,6.49,0,0,1-5.33,2.59,5,5,0,0,1-5.32-5c0-4.22,3.74-6.54,10.46-6.49v-.37c0-1.41-.39-4-4-4a8.48,8.48,0,0,0-4.53,1.29l-.72-2.1a10.94,10.94,0,0,1,5.74-1.53c5.32,0,6.62,3.64,6.62,7.13v6.51a28,28,0,0,0,.26,4.17Zm-.49-8.89c-3.43-.08-7.35.54-7.35,3.91a2.79,2.79,0,0,0,3,3,4.37,4.37,0,0,0,4.25-2.92,3.24,3.24,0,0,0,.15-1Z" transform="translate(-7.87 -4.58)"/><path d="M881,477.82c-.09,1.23-.15,2.64-.15,4.76v10.11c0,4-.82,6.44-2.48,8a9.36,9.36,0,0,1-6.34,2.09,11.28,11.28,0,0,1-5.82-1.43l.8-2.44a9.75,9.75,0,0,0,5.12,1.39c3.23,0,5.61-1.69,5.61-6.1v-1.94h-.07a6.17,6.17,0,0,1-5.53,2.94c-4.35,0-7.43-3.7-7.43-8.52,0-5.9,3.84-9.23,7.86-9.23a5.79,5.79,0,0,1,5.43,3h.08l.13-2.6Zm-3.29,6.85a4.84,4.84,0,0,0-.18-1.42,4.58,4.58,0,0,0-4.45-3.37c-3,0-5.18,2.55-5.18,6.6,0,3.41,1.76,6.27,5.15,6.27a4.64,4.64,0,0,0,4.41-3.26,5.58,5.58,0,0,0,.25-1.69Z" transform="translate(-7.87 -4.58)"/><path d="M895.73,495.23l-.27-2.2h-.1a6.47,6.47,0,0,1-5.32,2.59,5,5,0,0,1-5.32-5c0-4.22,3.74-6.54,10.46-6.49v-.37c0-1.41-.4-4-4-4a8.52,8.52,0,0,0-4.54,1.29L886,479a11,11,0,0,1,5.75-1.53c5.32,0,6.62,3.64,6.62,7.13v6.51a28,28,0,0,0,.26,4.17Zm-.49-8.89c-3.42-.08-7.35.54-7.35,3.91a2.79,2.79,0,0,0,3,3,4.36,4.36,0,0,0,4.24-2.92,3.24,3.24,0,0,0,.15-1Z" transform="translate(-7.87 -4.58)"/><path d="M903.43,469.67h3.15v25.56h-3.15Z" transform="translate(-7.87 -4.58)"/><path d="M911.93,469.67h3.15v10.87h.07a6.48,6.48,0,0,1,5.52-3.12c2.35,0,6.07,1.43,6.07,7.44v10.37h-3.15v-10c0-2.82-1.06-5.17-4-5.17a4.6,4.6,0,0,0-4.27,3.16,4.32,4.32,0,0,0-.21,1.5v10.53h-3.15Z" transform="translate(-7.87 -4.58)"/><path d="M941.56,495.23l-.28-2.2h-.09a6.49,6.49,0,0,1-5.33,2.59,5,5,0,0,1-5.31-5c0-4.22,3.73-6.54,10.46-6.49v-.37c0-1.41-.4-4-4-4a8.48,8.48,0,0,0-4.53,1.29l-.72-2.1a11,11,0,0,1,5.75-1.53c5.32,0,6.61,3.64,6.61,7.13v6.51a26.64,26.64,0,0,0,.27,4.17Zm-8.15-20.42c-.07-2.35.91-3.75,2.45-3.75a4.73,4.73,0,0,1,2.24.8,3.7,3.7,0,0,0,1.51.61c.57,0,.91-.32,1-1.53h1.69c0,2.39-.77,3.64-2.46,3.64a4.67,4.67,0,0,1-2.2-.75,3.5,3.5,0,0,0-1.55-.64c-.57,0-.87.62-.94,1.62Zm7.66,11.53c-3.43-.08-7.35.54-7.35,3.91a2.79,2.79,0,0,0,3,3,4.37,4.37,0,0,0,4.24-2.92,3.24,3.24,0,0,0,.15-1Z" transform="translate(-7.87 -4.58)"/><path d="M951,487.09c.07,4.28,2.78,6.05,6,6.05a11.78,11.78,0,0,0,4.82-.89l.56,2.24a14,14,0,0,1-5.81,1.11c-5.35,0-8.57-3.56-8.57-8.78s3.11-9.4,8.19-9.4c5.68,0,7.17,5,7.17,8.19a7.67,7.67,0,0,1-.11,1.48Zm9.27-2.27c0-2-.82-5.13-4.37-5.13-3.23,0-4.61,2.92-4.86,5.13Z" transform="translate(-7.87 -4.58)"/><path d="M966.85,492a8.58,8.58,0,0,0,4.2,1.24c2.31,0,3.38-1.13,3.38-2.59s-.92-2.32-3.24-3.19c-3.14-1.14-4.63-2.85-4.62-4.93,0-2.81,2.28-5.11,6-5.11a8.4,8.4,0,0,1,4.26,1.07l-.78,2.3a6.86,6.86,0,0,0-3.57-1c-1.87,0-2.89,1.08-2.89,2.39s1,2.08,3.31,3c3,1.12,4.56,2.63,4.56,5.23,0,3.08-2.39,5.24-6.51,5.24a10,10,0,0,1-4.89-1.21Z" transform="translate(-7.87 -4.58)"/><path d="M560.81,689.27a33.09,33.09,0,0,1,6-.52c3.33,0,5.52.63,7,2a6.08,6.08,0,0,1,1.91,4.61,6.42,6.42,0,0,1-4.58,6.19v.08c1.85.65,3,2.4,3.56,4.92a40.11,40.11,0,0,0,1.87,6.66h-3.25a32.8,32.8,0,0,1-1.6-5.81c-.72-3.32-2-4.61-4.87-4.71h-3V713.2h-3.13Zm3.13,11h3.2c3.35,0,5.48-1.82,5.48-4.6,0-3.16-2.28-4.52-5.58-4.53a13.4,13.4,0,0,0-3.1.28Z" transform="translate(-7.87 -4.58)"/><path d="M594.6,708.43c0,1.83.06,3.39.15,4.77H592l-.17-2.85h-.09a6.49,6.49,0,0,1-5.76,3.24c-2.72,0-6-1.53-6-7.63V695.79h3.15v9.62c0,3.31,1,5.57,3.89,5.57a4.61,4.61,0,0,0,4.19-2.91,4.94,4.94,0,0,0,.28-1.62V695.79h3.15Z" transform="translate(-7.87 -4.58)"/><path d="M609.53,713.2l-.27-2.2h-.1a6.46,6.46,0,0,1-5.33,2.59,5,5,0,0,1-5.31-5c0-4.22,3.73-6.54,10.46-6.49v-.37c0-1.41-.4-4-4-4a8.52,8.52,0,0,0-4.54,1.29l-.72-2.1a11,11,0,0,1,5.75-1.53c5.32,0,6.62,3.64,6.62,7.13V709a26.71,26.71,0,0,0,.26,4.17Zm-.49-8.89c-3.42-.08-7.35.54-7.35,3.91a2.79,2.79,0,0,0,3,3,4.36,4.36,0,0,0,4.24-2.92,3.24,3.24,0,0,0,.15-1Z" transform="translate(-7.87 -4.58)"/><path d="M643.45,712.11a22.07,22.07,0,0,1-7.46,1.33c-3.68,0-6.71-.93-9.07-3.21a12.39,12.39,0,0,1-3.38-9c0-7.24,5-12.54,13.12-12.54a15.42,15.42,0,0,1,6.07,1.11l-.78,2.56a12.36,12.36,0,0,0-5.36-1c-5.89,0-9.75,3.67-9.75,9.74s3.69,9.79,9.37,9.79a10.12,10.12,0,0,0,4.16-.65V703h-4.91v-2.51h8Z" transform="translate(-7.87 -4.58)"/><path d="M664.06,704.33c0,6.44-4.47,9.26-8.66,9.26-4.72,0-8.37-3.44-8.37-9,0-5.82,3.83-9.23,8.65-9.23C660.68,695.39,664.06,699,664.06,704.33Zm-13.8.2c0,3.82,2.18,6.69,5.27,6.69s5.31-2.84,5.31-6.79c0-2.94-1.49-6.67-5.25-6.67S650.26,701.23,650.26,704.53Z" transform="translate(-7.87 -4.58)"/><path d="M668.07,700.49c0-1.82-.06-3.26-.15-4.7h2.8l.17,2.86H671a6.44,6.44,0,0,1,5.76-3.26c2.39,0,6.13,1.44,6.13,7.42V713.2h-3.15v-10c0-2.81-1.06-5.17-4-5.17a4.55,4.55,0,0,0-4.27,3.25,4.91,4.91,0,0,0-.21,1.47V713.2h-3.15Z" transform="translate(-7.87 -4.58)"/><path d="M700.46,712.57a12.15,12.15,0,0,1-5,1c-5.25,0-8.68-3.57-8.68-8.89s3.66-9.28,9.35-9.28a10.1,10.1,0,0,1,4.4.93l-.7,2.43a7.64,7.64,0,0,0-3.71-.84c-4,0-6.15,3-6.14,6.59,0,4,2.6,6.52,6.07,6.52a9.12,9.12,0,0,0,3.87-.84Zm-4.27.54L695,715a2.67,2.67,0,0,1,2.52,2.49c0,2.11-1.75,2.91-3.76,2.91a5,5,0,0,1-2.45-.63l.54-1.53a4,4,0,0,0,1.95.52c.79,0,1.56-.29,1.54-1.14s-1.11-1.36-2.81-1.5l1.7-3Z" transform="translate(-7.87 -4.58)"/><path d="M713.86,713.2l-.28-2.2h-.09a6.49,6.49,0,0,1-5.33,2.59,5,5,0,0,1-5.32-5c0-4.22,3.74-6.54,10.47-6.49v-.37c0-1.41-.4-4-4-4a8.48,8.48,0,0,0-4.53,1.29l-.72-2.1a10.94,10.94,0,0,1,5.74-1.53c5.33,0,6.62,3.64,6.62,7.13V709a26.64,26.64,0,0,0,.27,4.17Zm-.49-8.89c-3.43-.08-7.35.54-7.35,3.91a2.79,2.79,0,0,0,3,3,4.37,4.37,0,0,0,4.24-2.92,3.24,3.24,0,0,0,.15-1Z" transform="translate(-7.87 -4.58)"/><path d="M721.56,687.64h3.15V713.2h-3.15Z" transform="translate(-7.87 -4.58)"/><path d="M731.27,695.79l3.42,9.76c.59,1.61,1,3.05,1.42,4.49h.1c.4-1.44.9-2.89,1.46-4.49l3.4-9.76h3.31l-6.85,17.41h-3l-6.62-17.41Z" transform="translate(-7.87 -4.58)"/><path d="M748.78,705.06c.07,4.28,2.78,6.05,6,6.05a11.78,11.78,0,0,0,4.82-.89l.56,2.24a14,14,0,0,1-5.81,1.11c-5.35,0-8.57-3.56-8.57-8.78s3.11-9.4,8.2-9.4c5.67,0,7.16,5,7.16,8.19a7.67,7.67,0,0,1-.11,1.48Zm9.27-2.27c0-2-.82-5.13-4.37-5.13-3.23,0-4.6,2.92-4.86,5.13Z" transform="translate(-7.87 -4.58)"/><path d="M764.6,710a8.58,8.58,0,0,0,4.2,1.24c2.31,0,3.38-1.13,3.38-2.59s-.92-2.32-3.24-3.19c-3.14-1.14-4.63-2.85-4.62-4.93,0-2.81,2.28-5.11,6-5.11a8.4,8.4,0,0,1,4.26,1.07l-.78,2.3a6.86,6.86,0,0,0-3.57-1c-1.87,0-2.89,1.08-2.89,2.39s1,2.08,3.31,3c3,1.12,4.56,2.63,4.56,5.23,0,3.08-2.39,5.24-6.51,5.24a10,10,0,0,1-4.89-1.21Z" transform="translate(-7.87 -4.58)"/><path d="M804,712.42a15.65,15.65,0,0,1-6.42,1.15c-6.83,0-12-4.32-12-12.28,0-7.62,5.14-12.73,12.67-12.73a13.22,13.22,0,0,1,5.76,1.06l-.78,2.55a11.55,11.55,0,0,0-4.88-1c-5.69,0-9.46,3.64-9.46,10,0,5.93,3.42,9.73,9.3,9.73a12.75,12.75,0,0,0,5.14-1Z" transform="translate(-7.87 -4.58)"/><path d="M817.22,713.2l-.28-2.2h-.1a6.45,6.45,0,0,1-5.32,2.59,5,5,0,0,1-5.32-5c0-4.22,3.74-6.54,10.46-6.49v-.37c0-1.41-.4-4-4-4a8.52,8.52,0,0,0-4.54,1.29l-.72-2.1a11,11,0,0,1,5.75-1.53c5.32,0,6.62,3.64,6.62,7.13V709a28,28,0,0,0,.26,4.17Zm-.5-8.89c-3.42-.08-7.35.54-7.35,3.91a2.79,2.79,0,0,0,3,3,4.36,4.36,0,0,0,4.24-2.92,3.24,3.24,0,0,0,.15-1Z" transform="translate(-7.87 -4.58)"/><path d="M824.47,710a8.57,8.57,0,0,0,4.19,1.24c2.31,0,3.39-1.13,3.39-2.59s-.93-2.32-3.24-3.19c-3.14-1.14-4.63-2.85-4.63-4.93,0-2.81,2.28-5.11,6-5.11a8.43,8.43,0,0,1,4.26,1.07l-.79,2.3a6.83,6.83,0,0,0-3.57-1c-1.87,0-2.88,1.08-2.88,2.39s1,2.08,3.3,3c3,1.12,4.56,2.63,4.57,5.23,0,3.08-2.4,5.24-6.51,5.24a9.92,9.92,0,0,1-4.89-1.21Z" transform="translate(-7.87 -4.58)"/><path d="M843,690.78v5h4.55v2.4H843v9.38c0,2.17.63,3.39,2.39,3.39a6.25,6.25,0,0,0,1.84-.23l.14,2.41a8.08,8.08,0,0,1-2.82.43,4.42,4.42,0,0,1-3.42-1.34c-.87-1-1.23-2.49-1.23-4.54v-9.5h-2.7v-2.4h2.7v-4.2Z" transform="translate(-7.87 -4.58)"/><path d="M852.64,705.06c.06,4.28,2.78,6.05,6,6.05a11.81,11.81,0,0,0,4.82-.89l.56,2.24a14,14,0,0,1-5.81,1.11c-5.35,0-8.57-3.56-8.57-8.78s3.11-9.4,8.19-9.4c5.68,0,7.17,5,7.17,8.19a7.67,7.67,0,0,1-.11,1.48Zm9.27-2.27c0-2-.82-5.13-4.37-5.13-3.23,0-4.61,2.92-4.86,5.13Z" transform="translate(-7.87 -4.58)"/><path d="M868.91,687.64h3.15V713.2h-3.15Z" transform="translate(-7.87 -4.58)"/><path d="M887.05,713.2l-.28-2.2h-.09a6.46,6.46,0,0,1-5.33,2.59,5,5,0,0,1-5.31-5c0-4.22,3.73-6.54,10.46-6.49v-.37c0-1.41-.4-4-4-4A8.52,8.52,0,0,0,878,699l-.72-2.1a11,11,0,0,1,5.75-1.53c5.32,0,6.62,3.64,6.62,7.13V709a26.71,26.71,0,0,0,.26,4.17Zm-8.15-20.41c-.07-2.36.91-3.76,2.45-3.76a4.73,4.73,0,0,1,2.24.8,3.76,3.76,0,0,0,1.51.61c.57,0,.91-.32,1-1.52h1.68c0,2.38-.77,3.63-2.46,3.63a4.71,4.71,0,0,1-2.2-.75,3.5,3.5,0,0,0-1.55-.64c-.57,0-.87.62-.94,1.63Zm7.66,11.52c-3.42-.08-7.35.54-7.35,3.91a2.79,2.79,0,0,0,3,3,4.36,4.36,0,0,0,4.24-2.92,3.24,3.24,0,0,0,.15-1Z" transform="translate(-7.87 -4.58)"/><path d="M910.51,704.33c0,6.44-4.47,9.26-8.66,9.26-4.72,0-8.36-3.44-8.36-9,0-5.82,3.82-9.23,8.64-9.23C907.14,695.39,910.51,699,910.51,704.33Zm-13.8.2c0,3.82,2.19,6.69,5.27,6.69s5.31-2.84,5.31-6.79c0-2.94-1.48-6.67-5.25-6.67S896.71,701.23,896.71,704.53Z" transform="translate(-7.87 -4.58)"/><path d="M663.28,6.2a33.12,33.12,0,0,1,6-.52c3.32,0,5.52.63,7,2a6.05,6.05,0,0,1,1.9,4.61,6.39,6.39,0,0,1-4.57,6.18v.09c1.85.65,3,2.4,3.56,4.91a40.45,40.45,0,0,0,1.86,6.66h-3.25a31.94,31.94,0,0,1-1.59-5.81c-.72-3.32-2-4.61-4.87-4.7h-3V30.13h-3.13Zm3.13,11.05h3.2c3.36,0,5.48-1.83,5.48-4.61,0-3.15-2.27-4.52-5.58-4.52a13.65,13.65,0,0,0-3.1.27Z" transform="translate(-7.87 -4.58)"/><path d="M697.08,25.37c0,1.82.06,3.38.14,4.76h-2.8l-.16-2.84h-.09a6.49,6.49,0,0,1-5.76,3.24c-2.73,0-6-1.53-6-7.63V12.72h3.15v9.62c0,3.32,1,5.58,3.89,5.58A4.61,4.61,0,0,0,693.64,25a5,5,0,0,0,.29-1.62V12.72h3.15Z" transform="translate(-7.87 -4.58)"/><path d="M712,30.13l-.28-2.2h-.09a6.49,6.49,0,0,1-5.33,2.6,5,5,0,0,1-5.32-5c0-4.21,3.74-6.53,10.47-6.48v-.37c0-1.42-.4-4-4-4A8.49,8.49,0,0,0,703,16l-.72-2.11A10.94,10.94,0,0,1,708,12.33c5.32,0,6.62,3.64,6.62,7.12V26a27.85,27.85,0,0,0,.26,4.16Zm-.49-8.89c-3.43-.07-7.35.55-7.35,3.91a2.78,2.78,0,0,0,3,3,4.36,4.36,0,0,0,4.25-2.91,3.33,3.33,0,0,0,.15-1Z" transform="translate(-7.87 -4.58)"/><path d="M727.43,5.87H740.5V8.48h-9.92v8.08h9.17v2.59h-9.17v11h-3.15Z" transform="translate(-7.87 -4.58)"/><path d="M743.93,18.15c0-2.06,0-3.81-.14-5.43h2.77l.12,3.42h.12a5.27,5.27,0,0,1,4.84-3.81,3.45,3.45,0,0,1,.88.09v3a5.55,5.55,0,0,0-1.07-.09c-2.23,0-3.81,1.68-4.24,4.05a8.67,8.67,0,0,0-.13,1.48v9.3h-3.15Z" transform="translate(-7.87 -4.58)"/><path d="M765.18,30.13l-.28-2.2h-.09a6.48,6.48,0,0,1-5.33,2.6,5,5,0,0,1-5.31-5c0-4.21,3.73-6.53,10.46-6.48v-.37c0-1.42-.4-4-4-4a8.49,8.49,0,0,0-4.53,1.3l-.72-2.11a11,11,0,0,1,5.75-1.52c5.32,0,6.61,3.64,6.61,7.12V26a26.5,26.5,0,0,0,.27,4.16Zm-.49-8.89c-3.43-.07-7.35.55-7.35,3.91a2.79,2.79,0,0,0,3,3,4.36,4.36,0,0,0,4.24-2.91,3.33,3.33,0,0,0,.15-1Z" transform="translate(-7.87 -4.58)"/><path d="M772.88,17.43c0-1.82-.06-3.26-.14-4.71h2.8l.17,2.87h.09a6.41,6.41,0,0,1,5.75-3.26c2.4,0,6.14,1.44,6.14,7.42V30.13h-3.15v-10c0-2.81-1.06-5.17-4-5.17a4.57,4.57,0,0,0-4.27,3.25,5,5,0,0,0-.22,1.47V30.13h-3.15Z" transform="translate(-7.87 -4.58)"/><path d="M805.27,29.5a11.94,11.94,0,0,1-5,1c-5.25,0-8.69-3.57-8.69-8.89s3.66-9.29,9.36-9.29a10.32,10.32,0,0,1,4.4.93l-.71,2.43a7.72,7.72,0,0,0-3.7-.83c-4,0-6.15,3-6.14,6.59,0,4,2.59,6.51,6.06,6.51a9.35,9.35,0,0,0,3.88-.83Z" transform="translate(-7.87 -4.58)"/><path d="M812.53,7.8a1.91,1.91,0,0,1-2,2,1.89,1.89,0,0,1-1.91-2,1.93,1.93,0,0,1,2-2A1.9,1.9,0,0,1,812.53,7.8ZM809,30.13V12.72h3.15V30.13Z" transform="translate(-7.87 -4.58)"/><path d="M817,26.91a8.72,8.72,0,0,0,4.2,1.24c2.31,0,3.38-1.14,3.38-2.59s-.92-2.32-3.23-3.19c-3.15-1.14-4.64-2.85-4.63-4.94,0-2.8,2.28-5.1,6-5.1A8.44,8.44,0,0,1,827,13.4l-.79,2.3a6.83,6.83,0,0,0-3.57-1c-1.87,0-2.88,1.07-2.88,2.39s1,2.08,3.3,3c3,1.12,4.56,2.64,4.57,5.23,0,3.09-2.4,5.25-6.51,5.25a9.89,9.89,0,0,1-4.89-1.21Z" transform="translate(-7.87 -4.58)"/><path d="M844.08,29.5a11.94,11.94,0,0,1-5,1c-5.25,0-8.69-3.57-8.69-8.89s3.66-9.29,9.35-9.29a10.24,10.24,0,0,1,4.4.93l-.7,2.43a7.76,7.76,0,0,0-3.7-.83c-4,0-6.15,3-6.14,6.59,0,4,2.59,6.51,6.06,6.51a9.39,9.39,0,0,0,3.88-.83Z" transform="translate(-7.87 -4.58)"/><path d="M863.34,21.26c0,6.45-4.47,9.27-8.66,9.27-4.72,0-8.37-3.44-8.37-9,0-5.83,3.83-9.23,8.65-9.23C860,12.33,863.34,16,863.34,21.26Zm-13.81.2c0,3.82,2.19,6.7,5.28,6.7s5.31-2.84,5.31-6.79c0-2.95-1.49-6.67-5.25-6.67S849.53,18.16,849.53,21.46Z" transform="translate(-7.87 -4.58)"/><path d="M893.56,29a22,22,0,0,1-7.46,1.34c-3.68,0-6.71-.93-9.07-3.21a12.4,12.4,0,0,1-3.38-9c0-7.24,5-12.53,13.12-12.53a15.24,15.24,0,0,1,6.07,1.11l-.78,2.56a12.36,12.36,0,0,0-5.36-1c-5.89,0-9.75,3.66-9.75,9.74s3.69,9.79,9.37,9.79a9.91,9.91,0,0,0,4.16-.66V19.9h-4.91V17.4h8Z" transform="translate(-7.87 -4.58)"/><path d="M901.84,7.8a1.91,1.91,0,0,1-2,2,1.88,1.88,0,0,1-1.91-2,1.92,1.92,0,0,1,2-2A1.9,1.9,0,0,1,901.84,7.8ZM898.3,30.13V12.72h3.15V30.13Z" transform="translate(-7.87 -4.58)"/><path d="M906.73,4.58h3.15V30.13h-3.15Z" transform="translate(-7.87 -4.58)"/><path d="M937.88,4.58V25.64c0,1.55.06,3.29.14,4.49h-2.81l-.16-3H935a6.36,6.36,0,0,1-5.9,3.41c-4.22,0-7.47-3.57-7.47-8.85,0-5.82,3.58-9.35,7.82-9.35A5.81,5.81,0,0,1,934.66,15h.07V4.58Zm-3.15,15.23a7,7,0,0,0-.13-1.36A4.68,4.68,0,0,0,930,14.81c-3.28,0-5.24,2.88-5.24,6.7,0,3.54,1.76,6.47,5.17,6.47a4.79,4.79,0,0,0,4.63-3.8,5.3,5.3,0,0,0,.15-1.36Z" transform="translate(-7.87 -4.58)"/><path d="M944.93,22c.06,4.28,2.78,6,6,6a11.65,11.65,0,0,0,4.82-.89l.55,2.25a13.92,13.92,0,0,1-5.8,1.11c-5.35,0-8.57-3.56-8.57-8.79s3.11-9.39,8.19-9.39c5.68,0,7.17,5,7.17,8.19a7.67,7.67,0,0,1-.11,1.48Zm9.27-2.28c0-2-.82-5.12-4.37-5.12-3.23,0-4.61,2.92-4.86,5.12Z" transform="translate(-7.87 -4.58)"/><path d="M972.86,22.51l-2.51,7.62H967.1l8.25-24.26h3.77l8.29,24.26h-3.35l-2.6-7.62Zm8-2.45-2.4-7c-.52-1.59-.89-3-1.25-4.43h-.08c-.35,1.42-.73,2.9-1.21,4.38l-2.39,7Z" transform="translate(-7.87 -4.58)"/><path d="M990.74,18.15c0-2.06,0-3.81-.14-5.43h2.78l.12,3.42h.11a5.27,5.27,0,0,1,4.85-3.81,3.5,3.5,0,0,1,.88.09v3a5.74,5.74,0,0,0-1.08-.09c-2.23,0-3.81,1.68-4.24,4.05a8.67,8.67,0,0,0-.13,1.48v9.3h-3.15Z" transform="translate(-7.87 -4.58)"/><path d="M1012,30.13l-.28-2.2h-.1a6.46,6.46,0,0,1-5.32,2.6,5,5,0,0,1-5.32-5c0-4.21,3.74-6.53,10.46-6.48v-.37c0-1.42-.4-4-4-4a8.53,8.53,0,0,0-4.54,1.3l-.72-2.11a11,11,0,0,1,5.75-1.52c5.32,0,6.62,3.64,6.62,7.12V26a27.85,27.85,0,0,0,.26,4.16Zm-.5-8.89c-3.42-.07-7.35.55-7.35,3.91a2.79,2.79,0,0,0,3,3,4.35,4.35,0,0,0,4.24-2.91,3.33,3.33,0,0,0,.15-1Z" transform="translate(-7.87 -4.58)"/><path d="M1034.25,25.37c0,1.82.06,3.38.15,4.76h-2.8l-.17-2.84h-.09a6.49,6.49,0,0,1-5.76,3.24c-2.72,0-6-1.53-6-7.63V12.72h3.15v9.62c0,3.32,1,5.58,3.89,5.58a4.6,4.6,0,0,0,4.19-2.91,4.73,4.73,0,0,0,.29-1.62V12.72h3.15Zm-2.16-20.2-4.39,5.16h-2.24l3.15-5.16Z" transform="translate(-7.87 -4.58)"/><path d="M1035.26,35.16a5,5,0,0,0,3.46-1.34c.86-1,1.21-2.35,1.21-6.53V12.72h3.15V28.5c0,3.39-.53,5.59-2.08,7.18a8.12,8.12,0,0,1-5.4,2Zm8.21-27.36a2,2,0,1,1-3.93,0,1.93,1.93,0,0,1,2-2A1.9,1.9,0,0,1,1043.47,7.8Z" transform="translate(-7.87 -4.58)"/><path d="M1064,21.26c0,6.45-4.48,9.27-8.66,9.27-4.72,0-8.37-3.44-8.37-9,0-5.83,3.83-9.23,8.65-9.23C1060.66,12.33,1064,16,1064,21.26Zm-13.81.2c0,3.82,2.19,6.7,5.28,6.7s5.3-2.84,5.3-6.79c0-2.95-1.48-6.67-5.24-6.67S1050.23,18.16,1050.23,21.46Z" transform="translate(-7.87 -4.58)"/><path d="M928,244.84a33.12,33.12,0,0,1,6-.52c3.32,0,5.51.63,7,2a6.09,6.09,0,0,1,1.9,4.61,6.4,6.4,0,0,1-4.57,6.18v.09c1.85.65,3,2.4,3.56,4.91a40.45,40.45,0,0,0,1.86,6.66h-3.25A31.94,31.94,0,0,1,939,263c-.72-3.32-2-4.61-4.87-4.7h-3v10.51H928Zm3.13,11h3.2c3.36,0,5.48-1.83,5.48-4.61,0-3.15-2.27-4.52-5.58-4.53a13.4,13.4,0,0,0-3.1.28Z" transform="translate(-7.87 -4.58)"/><path d="M961.83,264c0,1.82.06,3.38.14,4.76h-2.8l-.16-2.85h-.09a6.53,6.53,0,0,1-5.77,3.25c-2.72,0-6-1.53-6-7.63V251.36h3.15V261c0,3.32,1,5.57,3.89,5.57a4.61,4.61,0,0,0,4.19-2.9,5,5,0,0,0,.29-1.62V251.36h3.15Z" transform="translate(-7.87 -4.58)"/><path d="M976.76,268.77l-.28-2.2h-.09a6.49,6.49,0,0,1-5.33,2.6,5,5,0,0,1-5.32-5c0-4.21,3.74-6.53,10.46-6.48v-.37c0-1.42-.39-4-4-4a8.46,8.46,0,0,0-4.54,1.3l-.71-2.11a10.94,10.94,0,0,1,5.74-1.52c5.32,0,6.62,3.63,6.62,7.12v6.51a27.9,27.9,0,0,0,.26,4.17Zm-.49-8.89c-3.43-.07-7.35.54-7.35,3.91a2.78,2.78,0,0,0,3,3,4.36,4.36,0,0,0,4.25-2.91,3.33,3.33,0,0,0,.15-1Z" transform="translate(-7.87 -4.58)"/><path d="M995.33,244.51v10.16h11.73V244.51h3.15v24.26h-3.15V257.39H995.33v11.38h-3.15V244.51Z" transform="translate(-7.87 -4.58)"/><path d="M1017.26,260.64c.06,4.28,2.78,6,6,6a11.65,11.65,0,0,0,4.82-.89l.56,2.25a14.18,14.18,0,0,1-5.81,1.11c-5.35,0-8.57-3.57-8.57-8.79s3.11-9.39,8.19-9.39c5.68,0,7.17,5,7.17,8.18a7.79,7.79,0,0,1-.11,1.49Zm9.27-2.28c0-2-.82-5.12-4.37-5.12-3.23,0-4.61,2.92-4.86,5.12Z" transform="translate(-7.87 -4.58)"/><path d="M1033.53,256.06c0-1.81-.06-3.25-.15-4.7h2.8l.17,2.87h.09a6.42,6.42,0,0,1,5.76-3.26c2.39,0,6.13,1.44,6.13,7.42v10.38h-3.15v-10c0-2.81-1.06-5.17-4-5.17a4.57,4.57,0,0,0-4.27,3.25,5,5,0,0,0-.21,1.47v10.49h-3.15Z" transform="translate(-7.87 -4.58)"/><path d="M1053.5,256.78c0-2,0-3.8-.15-5.42h2.78l.12,3.42h.11a5.29,5.29,0,0,1,4.85-3.81,3.5,3.5,0,0,1,.88.09v3a5.59,5.59,0,0,0-1.08-.09c-2.23,0-3.8,1.68-4.23,4.05a7.77,7.77,0,0,0-.13,1.48v9.3h-3.15Z" transform="translate(-7.87 -4.58)"/><path d="M1069,246.44a1.91,1.91,0,0,1-2,2,1.89,1.89,0,0,1-1.91-2,1.92,1.92,0,0,1,2-2A1.9,1.9,0,0,1,1069,246.44Zm-3.54,22.33V251.36h3.15v17.41Z" transform="translate(-7.87 -4.58)"/><path d="M1085.72,266.09h-.08a6.21,6.21,0,0,1-5.68,3.08c-4.07,0-7.38-3.51-7.38-8.82,0-6.53,4.2-9.38,7.88-9.38a5.69,5.69,0,0,1,5.36,3h.07l.12-2.63h3c-.08,1.45-.14,3-.14,4.78V275.9h-3.15Zm0-7.69a5.68,5.68,0,0,0-.14-1.32,4.68,4.68,0,0,0-4.55-3.61c-3.28,0-5.26,2.79-5.26,6.69,0,3.48,1.66,6.49,5.16,6.49a4.75,4.75,0,0,0,4.54-3.45,5.2,5.2,0,0,0,.25-1.52Z" transform="translate(-7.87 -4.58)"/><path d="M1108.67,264c0,1.82.06,3.38.14,4.76H1106l-.17-2.85h-.09a6.5,6.5,0,0,1-5.76,3.25c-2.73,0-6-1.53-6-7.63V251.36h3.15V261c0,3.32,1,5.57,3.89,5.57a4.6,4.6,0,0,0,4.19-2.9,4.73,4.73,0,0,0,.29-1.62V251.36h3.15Z" transform="translate(-7.87 -4.58)"/><path d="M1115.72,260.64c.06,4.28,2.78,6,6,6a11.65,11.65,0,0,0,4.82-.89l.55,2.25a14.08,14.08,0,0,1-5.8,1.11c-5.35,0-8.57-3.57-8.57-8.79s3.11-9.39,8.19-9.39c5.68,0,7.16,5,7.16,8.18a8,8,0,0,1-.1,1.49Zm9.27-2.28c0-2-.82-5.12-4.37-5.12-3.23,0-4.61,2.92-4.86,5.12Z" transform="translate(-7.87 -4.58)"/><path d="M1160.18,258.12c-.19-3.37-.41-7.47-.39-10.47h-.1q-1.25,4.23-3,9.2l-4.28,11.77H1150l-4-11.55c-1.16-3.43-2.1-6.54-2.78-9.42h-.08c-.09,3-.24,7.07-.48,10.71l-.64,10.41h-3l1.69-24.26h4l4.13,11.74c1,3,1.81,5.64,2.44,8.18h.1c.64-2.46,1.48-5.14,2.57-8.18l4.32-11.74h4l1.5,24.26h-3.08Z" transform="translate(-7.87 -4.58)"/><path d="M1184.53,259.9c0,6.45-4.47,9.27-8.66,9.27-4.72,0-8.36-3.44-8.36-9,0-5.83,3.83-9.23,8.64-9.23C1181.16,251,1184.53,254.6,1184.53,259.9Zm-13.8.2c0,3.82,2.19,6.69,5.27,6.69s5.31-2.83,5.31-6.78c0-2.95-1.48-6.67-5.25-6.67S1170.73,256.8,1170.73,260.1Z" transform="translate(-7.87 -4.58)"/><path d="M1188.54,256.06c0-1.81-.06-3.25-.14-4.7h2.79l.18,2.87h.09a6.41,6.41,0,0,1,5.75-3.26c2.39,0,6.14,1.44,6.14,7.42v10.38h-3.15v-10c0-2.81-1.06-5.17-4-5.17a4.54,4.54,0,0,0-4.26,3.25,4.69,4.69,0,0,0-.22,1.47v10.49h-3.15Z" transform="translate(-7.87 -4.58)"/><path d="M1212.17,246.35v5h4.55v2.4h-4.55v9.38c0,2.17.63,3.4,2.4,3.4a6.17,6.17,0,0,0,1.83-.23l.15,2.4a7.92,7.92,0,0,1-2.83.44,4.42,4.42,0,0,1-3.42-1.34c-.87-1-1.23-2.5-1.23-4.54v-9.51h-2.69v-2.4h2.69v-4.19Z" transform="translate(-7.87 -4.58)"/><path d="M1221.85,260.64c.06,4.28,2.77,6,6,6a11.61,11.61,0,0,0,4.82-.89l.56,2.25a14.14,14.14,0,0,1-5.81,1.11c-5.35,0-8.56-3.57-8.56-8.79s3.1-9.39,8.19-9.39c5.68,0,7.16,5,7.16,8.18a7.79,7.79,0,0,1-.11,1.49Zm9.26-2.28c0-2-.82-5.12-4.37-5.12-3.23,0-4.6,2.92-4.86,5.12Z" transform="translate(-7.87 -4.58)"/><path d="M1237.66,265.55a8.72,8.72,0,0,0,4.2,1.24c2.31,0,3.38-1.14,3.38-2.59s-.92-2.32-3.23-3.19c-3.15-1.14-4.64-2.85-4.63-4.94,0-2.8,2.28-5.1,6-5.1a8.47,8.47,0,0,1,4.27,1.07l-.79,2.3a6.85,6.85,0,0,0-3.57-1c-1.87,0-2.89,1.08-2.89,2.39s1,2.09,3.31,3c3,1.12,4.56,2.63,4.57,5.23,0,3.09-2.4,5.25-6.51,5.25a10,10,0,0,1-4.9-1.21Z" transform="translate(-7.87 -4.58)"/><path d="M197.88,157.14a33.49,33.49,0,0,1,4.84,3.62c2.49,2.21,3.7,4.14,3.93,6.17a6.12,6.12,0,0,1-1.65,4.71,6.4,6.4,0,0,1-7.53,1.57l-.06.07c1,1.71.63,3.76-.61,6a40.83,40.83,0,0,0-3,6.21l-2.43-2.16A32.13,32.13,0,0,1,194,178c1.68-3,1.55-4.8-.5-6.75l-2.22-2-7,7.86L182,175Zm-5,10.33,2.39,2.13c2.51,2.23,5.31,2.28,7.16.2,2.09-2.35,1.3-4.88-1.16-7.09a13.63,13.63,0,0,0-2.5-1.85Z" transform="translate(-7.87 -4.58)"/><path d="M210.37,193.93c-1.21,1.37-2.21,2.57-3.06,3.66l-2.09-1.86,1.77-2.24-.07-.06a6.5,6.5,0,0,1-6.46-1.41c-2-1.81-3.46-5.13.6-9.69l6.76-7.6,2.36,2.1-6.4,7.18c-2.21,2.48-2.94,4.85-.8,6.76a4.61,4.61,0,0,0,5.06.61,4.74,4.74,0,0,0,1.29-1l7.1-8,2.35,2.09Z" transform="translate(-7.87 -4.58)"/><path d="M218.35,207.42l1.25-1.83-.07-.06a6.48,6.48,0,0,1-5.7-1.6,5,5,0,0,1-.65-7.27c2.8-3.15,7.13-2.39,12.13,2.11l.24-.27c.94-1.06,2.39-3.28-.29-5.64a8.48,8.48,0,0,0-4.25-2.05l.87-2.05a10.94,10.94,0,0,1,5.3,2.69c4,3.53,2.53,7.11.21,9.72L223.06,206a28.27,28.27,0,0,0-2.58,3.29Zm5.54-7c-2.51-2.33-5.85-4.48-8.09-2a2.79,2.79,0,0,0,.2,4.23,4.36,4.36,0,0,0,5.1.64,3.38,3.38,0,0,0,.78-.64Z" transform="translate(-7.87 -4.58)"/><path d="M248.36,201.66l-6.76,7.59,8.76,7.8,6.76-7.59,2.35,2.09-16.13,18.13-2.36-2.1,7.57-8.5-8.76-7.8-7.57,8.5-2.35-2.09L246,199.56Z" transform="translate(-7.87 -4.58)"/><path d="M254.69,228.58c-2.46,3.5-1.3,6.53,1.27,8.4a11.74,11.74,0,0,0,4.43,2.11l-.88,2.15a14.32,14.32,0,0,1-5.35-2.52c-4.33-3.15-4.84-7.92-1.77-12.15s8-5.77,12.16-2.79c4.59,3.34,2.87,8.25,1,10.84a7.72,7.72,0,0,1-1,1.14Zm8.84,3.61c1.2-1.6,2.35-4.63-.52-6.72-2.62-1.9-5.45-.34-6.95,1.29Z" transform="translate(-7.87 -4.58)"/><path d="M271,234.39c.85-1.61,1.47-2.91,2.07-4.23l2.47,1.31-1.18,2.61.08,0a6.44,6.44,0,0,1,6.61-.19c2.11,1.12,4.75,4.14,2,9.43l-4.85,9.18-2.79-1.47,4.69-8.88c1.32-2.49,1.48-5.07-1.14-6.45a4.56,4.56,0,0,0-5.29.88,4.78,4.78,0,0,0-.88,1.2l-4.9,9.27-2.79-1.47Z" transform="translate(-7.87 -4.58)"/><path d="M289,244c.73-1.92,1.32-3.57,1.81-5.11l2.59,1-1.11,3.23.1,0a5.3,5.3,0,0,1,5.9-1.81,3.44,3.44,0,0,1,.79.4L298,244.54a4.39,4.39,0,0,0-1-.47c-2.08-.81-4.16.2-5.41,2.25a8.78,8.78,0,0,0-.65,1.34l-3.34,8.68-2.94-1.13Z" transform="translate(-7.87 -4.58)"/><path d="M297,259.61l5-16.68,3,.91-5,16.68Zm9.8-20.38a1.91,1.91,0,0,1-2.5,1.31,1.89,1.89,0,0,1-1.27-2.43,1.93,1.93,0,0,1,2.46-1.32A1.89,1.89,0,0,1,306.77,239.23Z" transform="translate(-7.87 -4.58)"/><path d="M318.82,262h-.08a6.23,6.23,0,0,1-6.16,2c-4-.75-6.61-4.8-5.64-10,1.19-6.43,5.85-8.47,9.47-7.8a5.73,5.73,0,0,1,4.72,3.94l.07,0,.59-2.55,2.95.54c-.34,1.42-.68,2.9-1,4.68l-3.61,19.43-3.09-.58Zm1.4-7.56a5.94,5.94,0,0,0,.11-1.32,4.71,4.71,0,0,0-3.82-4.38c-3.23-.6-5.69,1.78-6.4,5.61-.64,3.43.45,6.69,3.89,7.33a4.73,4.73,0,0,0,5.09-2.56,4.68,4.68,0,0,0,.53-1.45Z" transform="translate(-7.87 -4.58)"/><path d="M343.63,261.73c-.06,1.83-.05,3.39,0,4.77l-2.79-.1-.07-2.85h-.09a6.5,6.5,0,0,1-5.87,3c-2.72-.09-5.94-1.72-5.74-7.82l.35-10.17,3.15.1-.33,9.62c-.11,3.31.85,5.6,3.7,5.7a4.62,4.62,0,0,0,4.29-2.76,4.84,4.84,0,0,0,.34-1.62l.36-10.65,3.15.1Z" transform="translate(-7.87 -4.58)"/><path d="M351,258.2c.06,4.28,2.78,6,6,6a11.65,11.65,0,0,0,4.82-.89l.55,2.25a13.92,13.92,0,0,1-5.8,1.11c-5.35,0-8.57-3.56-8.57-8.79s3.11-9.39,8.19-9.39c5.68,0,7.17,5,7.17,8.19a7.67,7.67,0,0,1-.11,1.48Zm9.27-2.28c0-2-.82-5.12-4.37-5.12-3.23,0-4.61,2.92-4.86,5.12Z" transform="translate(-7.87 -4.58)"/><path d="M395.5,255.68c-.19-3.37-.41-7.47-.39-10.47H395q-1.25,4.23-3.05,9.2l-4.29,11.77h-2.36l-4-11.55c-1.15-3.43-2.09-6.54-2.77-9.42h-.09c-.08,3-.24,7.07-.47,10.71l-.65,10.41h-3l1.69-24.26h4l4.13,11.74c1,3,1.81,5.65,2.44,8.18h.09c.64-2.46,1.49-5.13,2.57-8.17l4.33-11.75h4l1.5,24.26h-3.08Z" transform="translate(-7.87 -4.58)"/><path d="M419.86,257.46c0,6.45-4.47,9.27-8.66,9.27-4.72,0-8.37-3.44-8.37-9,0-5.83,3.83-9.23,8.65-9.23C416.48,248.53,419.86,252.16,419.86,257.46Zm-13.8.2c0,3.82,2.18,6.7,5.27,6.7s5.31-2.84,5.31-6.79c0-2.95-1.49-6.67-5.25-6.67S406.06,254.36,406.06,257.66Z" transform="translate(-7.87 -4.58)"/><path d="M423.87,253.63c0-1.82-.06-3.26-.15-4.71h2.8l.17,2.87h.09a6.42,6.42,0,0,1,5.76-3.26c2.39,0,6.13,1.44,6.13,7.42v10.38h-3.15v-10c0-2.81-1.06-5.17-4-5.17a4.57,4.57,0,0,0-4.27,3.25,5,5,0,0,0-.21,1.47v10.49h-3.15Z" transform="translate(-7.87 -4.58)"/><path d="M447.5,243.91v5h4.55v2.4H447.5v9.38c0,2.17.63,3.4,2.4,3.4a6.17,6.17,0,0,0,1.83-.23l.15,2.4a7.92,7.92,0,0,1-2.83.44,4.44,4.44,0,0,1-3.42-1.34c-.87-1-1.23-2.5-1.23-4.54v-9.51h-2.69v-2.4h2.69v-4.19Z" transform="translate(-7.87 -4.58)"/><path d="M457.18,258.2c.06,4.28,2.78,6,6,6a11.65,11.65,0,0,0,4.82-.89l.55,2.25a14,14,0,0,1-5.81,1.11c-5.35,0-8.56-3.56-8.56-8.79s3.11-9.39,8.19-9.39c5.68,0,7.16,5,7.16,8.19a6.94,6.94,0,0,1-.11,1.48Zm9.26-2.28c0-2-.81-5.12-4.36-5.12-3.23,0-4.61,2.92-4.86,5.12Z" transform="translate(-7.87 -4.58)"/><path d="M473,263.11a8.57,8.57,0,0,0,4.19,1.24c2.31,0,3.39-1.14,3.39-2.59s-.93-2.32-3.24-3.19c-3.14-1.14-4.63-2.85-4.63-4.94,0-2.8,2.28-5.1,6-5.1A8.43,8.43,0,0,1,483,249.6l-.79,2.3a6.83,6.83,0,0,0-3.57-1c-1.87,0-2.88,1.07-2.88,2.39s1,2.08,3.3,3c3,1.12,4.56,2.64,4.57,5.23,0,3.09-2.4,5.25-6.51,5.25a9.89,9.89,0,0,1-4.89-1.21Z" transform="translate(-7.87 -4.58)"/><path d="M1413.54,424.89a33.81,33.81,0,0,1,3.65-4.82c2.23-2.47,4.17-3.67,6.2-3.88a6.12,6.12,0,0,1,4.7,1.68,6.42,6.42,0,0,1,1.52,7.54l.06.06c1.72-.94,3.77-.59,6,.65a41.38,41.38,0,0,0,6.19,3.09l-2.17,2.41a32,32,0,0,1-5.38-2.72c-2.95-1.69-4.79-1.58-6.76.46l-2,2.2,7.8,7.05-2.1,2.33Zm10.29,5.08,2.15-2.37c2.25-2.49,2.32-5.29.25-7.15-2.33-2.12-4.87-1.35-7.09,1.1a13.94,13.94,0,0,0-1.88,2.49Z" transform="translate(-7.87 -4.58)"/><path d="M1450.42,412.66c1.35,1.23,2.55,2.23,3.63,3.09l-1.88,2.08L1450,416l-.06.07a6.52,6.52,0,0,1-1.46,6.45c-1.82,2-5.15,3.42-9.68-.67l-7.55-6.82,2.11-2.34,7.14,6.45c2.46,2.23,4.83,3,6.74.85a4.59,4.59,0,0,0,.66-5,5.13,5.13,0,0,0-1-1.31l-7.92-7.14,2.12-2.34Z" transform="translate(-7.87 -4.58)"/><path d="M1464,404.78l-1.82-1.27-.06.07a6.46,6.46,0,0,1-1.64,5.69,5,5,0,0,1-7.28.6c-3.12-2.83-2.34-7.15,2.21-12.11l-.28-.25c-1-.95-3.26-2.41-5.64.25a8.45,8.45,0,0,0-2.07,4.24l-2.05-.88a11,11,0,0,1,2.72-5.29c3.57-3.95,7.14-2.47,9.73-.13l4.83,4.36a25.93,25.93,0,0,0,3.27,2.6Zm-6.92-5.59c-2.35,2.49-4.53,5.81-2,8.07a2.79,2.79,0,0,0,4.23-.16,4.34,4.34,0,0,0,.68-5.1,2.94,2.94,0,0,0-.64-.78Z" transform="translate(-7.87 -4.58)"/><path d="M1456.3,377.07l8.76-9.69,1.94,1.75-6.65,7.35,6,5.42,6.15-6.8,1.92,1.74-6.14,6.8,8.14,7.36-2.11,2.34Z" transform="translate(-7.87 -4.58)"/><path d="M1476.47,373.06c-1.53-1.38-2.86-2.52-4.12-3.53l1.86-2.06,2.62,2.2.07-.08a5.27,5.27,0,0,1,.42-6.15,3.62,3.62,0,0,1,.66-.6l2.21,2a4.4,4.4,0,0,0-.79.74c-1.5,1.65-1.31,3.95.16,5.86a9.13,9.13,0,0,0,1,1.08l6.91,6.24-2.12,2.33Z" transform="translate(-7.87 -4.58)"/><path d="M1488.17,365.86c3.22,2.82,6.35,2,8.48-.37a11.57,11.57,0,0,0,2.57-4.18l2,1.1a13.83,13.83,0,0,1-3.07,5c-3.59,4-8.39,4-12.26.47s-4.89-8.61-1.48-12.38c3.81-4.21,8.5-2,10.88.17a8.5,8.5,0,0,1,1,1.08Zm4.52-8.4c-1.46-1.37-4.35-2.84-6.73-.2-2.16,2.4-.92,5.38.55,7Z" transform="translate(-7.87 -4.58)"/><path d="M1490.91,341.65a2,2,0,1,1-2.63,2.91,1.92,1.92,0,0,1-.14-2.78A1.89,1.89,0,0,1,1490.91,341.65Zm14.2,17.59-12.92-11.67,2.12-2.34,12.91,11.67Z" transform="translate(-7.87 -4.58)"/><path d="M1527.52,332.81a21.89,21.89,0,0,1-4,6.43c-2.46,2.73-5.19,4.35-8.46,4.58a12.35,12.35,0,0,1-8.94-3.54c-5.37-4.86-6-12.1-.51-18.13a15.37,15.37,0,0,1,4.89-3.76l1.38,2.3a12.21,12.21,0,0,0-4.37,3.28c-3.94,4.36-3.81,9.68.7,13.76s9.73,3.82,13.54-.39a10,10,0,0,0,2.3-3.53l-5.36-4.84-3.29,3.64-1.86-1.68,5.36-5.93Z" transform="translate(-7.87 -4.58)"/><path d="M1522.62,322c-1.53-1.38-2.86-2.52-4.12-3.53l1.86-2.06,2.61,2.2.08-.08a5.27,5.27,0,0,1,.42-6.15,3.32,3.32,0,0,1,.66-.6l2.2,2a5.19,5.19,0,0,0-.79.74c-1.49,1.65-1.3,3.95.17,5.86a8.37,8.37,0,0,0,1,1.08l6.9,6.24-2.11,2.33Z" transform="translate(-7.87 -4.58)"/><path d="M1534.32,314.79c3.21,2.82,6.34,2,8.48-.37a11.87,11.87,0,0,0,2.57-4.18l2,1.1a14.13,14.13,0,0,1-3.07,5.05c-3.59,4-8.39,4-12.27.47s-4.88-8.61-1.48-12.38c3.81-4.21,8.51-2,10.88.17a7.3,7.3,0,0,1,1,1.08Zm4.52-8.41c-1.46-1.36-4.35-2.83-6.73-.19-2.17,2.4-.92,5.37.54,7Z" transform="translate(-7.87 -4.58)"/><path d="M1548.41,285.35c.86.89,1.86,1.88,3.44,3.31l7.5,6.77c3,2.7,4.23,4.93,4.24,7.19a9.32,9.32,0,0,1-2.7,6.11,11.24,11.24,0,0,1-5,3.35l-1.27-2.22a9.87,9.87,0,0,0,4.47-2.87c2.16-2.4,2.5-5.3-.77-8.25l-1.44-1.3-.05.05a6.16,6.16,0,0,1-1.53,6.07c-2.91,3.22-7.72,3-11.29-.2-4.38-4-4.28-9-1.58-12a5.8,5.8,0,0,1,5.87-2l0-.05-1.84-1.84Zm2.87,7a4.61,4.61,0,0,0-1.17-.82,4.55,4.55,0,0,0-5.47,1c-2,2.24-1.59,5.56,1.42,8.27,2.52,2.28,5.83,2.9,8.1.38a4.63,4.63,0,0,0,.53-5.46,5.59,5.59,0,0,0-1.08-1.31Z" transform="translate(-7.87 -4.58)"/><path d="M1554.25,267.62l.88,6.72-1.5,1.66-1.71-5.8Zm14.48,8c4.78,4.32,3.88,9.53,1.07,12.63-3.16,3.51-8.16,3.91-12.26.2-4.33-3.9-4.29-9-1.06-12.6S1564.79,272,1568.73,275.6ZM1559.62,286c2.84,2.56,6.44,2.86,8.51.57s1.45-5.84-1.48-8.49c-2.19-2-5.94-3.37-8.47-.57S1557.18,283.76,1559.62,286Z" transform="translate(-7.87 -4.58)"/><path d="M1569.1,270.54c-1.53-1.38-2.86-2.51-4.12-3.53l1.86-2.05,2.62,2.19.07-.08a5.29,5.29,0,0,1,.42-6.15,4,4,0,0,1,.66-.59l2.21,2a5.27,5.27,0,0,0-.79.74c-1.5,1.65-1.31,3.95.16,5.86a9.19,9.19,0,0,0,1,1.09l6.9,6.23-2.11,2.34Z" transform="translate(-7.87 -4.58)"/><path d="M1571.79,252.14a2,2,0,1,1-2.77.13A1.89,1.89,0,0,1,1571.79,252.14ZM1586,269.73l-12.91-11.67,2.11-2.34,12.92,11.67Z" transform="translate(-7.87 -4.58)"/><path d="M1595.61,245.84c4.79,4.33,3.88,9.53,1.08,12.64-3.17,3.5-8.17,3.9-12.27.2-4.32-3.91-4.28-9-1.05-12.61S1591.68,242.29,1595.61,245.84Zm-9.1,10.38c2.83,2.56,6.43,2.86,8.5.57s1.46-5.83-1.48-8.48c-2.18-2-5.94-3.37-8.46-.58S1584.06,254,1586.51,256.22Z" transform="translate(-7.87 -4.58)"/><path d="M1601.11,214.87,1616.74,229c1.15,1,2.48,2.16,3.43,2.9l-1.89,2.09-2.34-1.9-.06.06a6.36,6.36,0,0,1-1.43,6.67c-2.83,3.13-7.65,3.15-11.57-.39-4.33-3.88-4.54-8.93-1.7-12.07a5.81,5.81,0,0,1,5.48-2.13l0,0-7.71-7Zm9.19,12.55a6.7,6.7,0,0,0-1.09-.81,4.69,4.69,0,0,0-5.78,1c-2.2,2.43-1.38,5.82,1.46,8.38,2.62,2.37,6,3,8.27.5a4.78,4.78,0,0,0,.28-6,5,5,0,0,0-.9-1Z" transform="translate(-7.87 -4.58)"/><path d="M1618.77,221.32c3.21,2.83,6.34,2,8.47-.36a11.74,11.74,0,0,0,2.57-4.18l2,1.1a13.83,13.83,0,0,1-3.07,5.05c-3.58,4-8.38,4-12.26.46s-4.89-8.6-1.48-12.37c3.81-4.22,8.5-2,10.88.17a7.88,7.88,0,0,1,1,1.08Zm4.52-8.4c-1.46-1.36-4.35-2.83-6.73-.19-2.17,2.39-.92,5.37.54,7Z" transform="translate(-7.87 -4.58)"/><path d="M1646.7,186.64c-2.62-2.12-5.81-4.7-8-6.72l-.07.07c1.53,2.51,3.13,5.3,4.78,8.43l5.86,11.07-1.59,1.75-11.22-4.81c-3.32-1.44-6.26-2.83-8.84-4.25l-.06.07c2.19,2.08,5.08,4.91,7.62,7.52l7.3,7.46-2,2.21-16.87-17.51,2.68-3,11.49,4.8c2.87,1.25,5.4,2.44,7.7,3.67l.06-.07c-1.39-2.12-2.81-4.54-4.34-7.38l-5.81-11.09,2.68-3,19,15.15-2.06,2.28Z" transform="translate(-7.87 -4.58)"/><path d="M1666.84,180.25,1665,179l-.06.07a6.5,6.5,0,0,1-1.65,5.69,5,5,0,0,1-7.27.6c-3.13-2.83-2.34-7.15,2.2-12.11L1658,173c-1-.95-3.26-2.41-5.64.25a8.56,8.56,0,0,0-2.08,4.23l-2-.87a11,11,0,0,1,2.72-5.29c3.57-4,7.14-2.47,9.72-.13l4.84,4.36a27.61,27.61,0,0,0,3.26,2.6Zm-6.93-5.6c-2.35,2.5-4.52,5.82-2,8.08a2.8,2.8,0,0,0,4.23-.16,4.38,4.38,0,0,0,.68-5.11,3.56,3.56,0,0,0-.64-.78Z" transform="translate(-7.87 -4.58)"/><path d="M1669.16,151.72c.85.89,1.86,1.88,3.43,3.3l7.5,6.78c3,2.7,4.23,4.93,4.25,7.19a9.34,9.34,0,0,1-2.7,6.1,11.29,11.29,0,0,1-5,3.35l-1.28-2.22a9.65,9.65,0,0,0,4.47-2.87c2.17-2.39,2.51-5.29-.76-8.25l-1.44-1.3-.05.06a6.19,6.19,0,0,1-1.54,6.07c-2.91,3.22-7.71,3-11.29-.2-4.38-4-4.27-9-1.58-12a5.77,5.77,0,0,1,5.87-2l.05-.05-1.85-1.85Zm2.87,7a5.31,5.31,0,0,0-1.17-.82,4.57,4.57,0,0,0-5.48,1c-2,2.24-1.58,5.55,1.42,8.27,2.53,2.28,5.83,2.9,8.11.38a4.63,4.63,0,0,0,.53-5.46,5.63,5.63,0,0,0-1.08-1.31Z" transform="translate(-7.87 -4.58)"/><path d="M1692,152.44l-1.81-1.26-.07.07a6.46,6.46,0,0,1-1.64,5.69,5,5,0,0,1-7.27.59c-3.13-2.82-2.35-7.15,2.2-12.11l-.28-.25c-1-.94-3.26-2.4-5.63.25a8.46,8.46,0,0,0-2.08,4.24l-2.05-.88a11,11,0,0,1,2.72-5.29c3.57-4,7.14-2.47,9.73-.13l4.83,4.37a26.72,26.72,0,0,0,3.27,2.59Zm-6.92-5.59c-2.35,2.49-4.53,5.81-2,8.07a2.79,2.79,0,0,0,4.23-.16,4.34,4.34,0,0,0,.68-5.1,3.12,3.12,0,0,0-.63-.78Z" transform="translate(-7.87 -4.58)"/><path d="M1678.16,129.6l2.11-2.34,19,17.13-2.11,2.34Z" transform="translate(-7.87 -4.58)"/><path d="M1683.86,123.29,1686,121l8.06,7.29,0-.05A6.24,6.24,0,0,1,1694,125a6.41,6.41,0,0,1,1.52-3c1.58-1.74,5.13-3.54,9.59.49l7.69,7-2.11,2.34-7.44-6.72c-2.08-1.89-4.55-2.68-6.53-.48a4.61,4.61,0,0,0-.52,5.29,4.27,4.27,0,0,0,1,1.16l7.8,7.06-2.11,2.34Z" transform="translate(-7.87 -4.58)"/><path d="M1702.07,110.81c-1.79-1.53-2.17-3.2-1.14-4.34a4.85,4.85,0,0,1,2.1-1.13,3.6,3.6,0,0,0,1.47-.71c.38-.42.37-.89-.47-1.76l1.13-1.25c1.79,1.57,2.18,3,1,4.26a4.62,4.62,0,0,1-2,1.13,3.5,3.5,0,0,0-1.51.73c-.38.42-.12,1.06.57,1.78Zm20.62,7.63-1.82-1.27-.06.07a6.5,6.5,0,0,1-1.65,5.69,5,5,0,0,1-7.27.6c-3.13-2.83-2.34-7.15,2.2-12.11l-.27-.25c-1-1-3.26-2.41-5.64.25a8.46,8.46,0,0,0-2.08,4.24l-2-.88a10.9,10.9,0,0,1,2.72-5.29c3.57-3.95,7.13-2.47,9.72-.13l4.83,4.36a27.66,27.66,0,0,0,3.27,2.6Zm-6.93-5.59c-2.35,2.49-4.52,5.81-2,8.07a2.8,2.8,0,0,0,4.24-.16,4.38,4.38,0,0,0,.68-5.11,3.87,3.87,0,0,0-.64-.78Z" transform="translate(-7.87 -4.58)"/><path d="M1723,106c3.22,2.82,6.35,2,8.48-.37a11.63,11.63,0,0,0,2.57-4.17l2,1.09a13.83,13.83,0,0,1-3.07,5c-3.58,4-8.38,4-12.26.47s-4.89-8.6-1.48-12.38c3.81-4.21,8.5-2,10.88.18a7.92,7.92,0,0,1,1,1.07Zm4.53-8.4c-1.46-1.36-4.36-2.83-6.73-.2-2.17,2.4-.93,5.38.54,7Z" transform="translate(-7.87 -4.58)"/><path d="M1737.25,97.52a8.63,8.63,0,0,0,3.73-2.29c1.55-1.71,1.43-3.27.35-4.24s-2.34-.88-4.54.26c-3,1.57-5.22,1.53-6.76.12-2.08-1.88-2.26-5.11.25-7.89a8.42,8.42,0,0,1,3.65-2.44l1.18,2.12a6.92,6.92,0,0,0-3.15,2c-1.25,1.39-1.14,2.87-.16,3.75s2.23.63,4.42-.47c2.84-1.47,5-1.61,6.94.12,2.29,2.07,2.28,5.3-.47,8.35a10.06,10.06,0,0,1-4.18,2.82Z" transform="translate(-7.87 -4.58)"/><path d="M59.33,352.75l-6.19,4-1.45-2.22,15-9.81L68.19,347,62,351l11.8,18.1-2.63,1.73Z" transform="translate(-7.87 -4.58)"/><path d="M72.47,349.2l8.19,6.31c1.38,1,2.54,2,3.65,3l.08-.05c-.45-1.43-.83-2.92-1.23-4.56l-2.48-10L83.45,342l3.77,18.33L84.69,362l-15.06-11Z" transform="translate(-7.87 -4.58)"/><path d="M92.64,354.61a2.15,2.15,0,0,1,.55-3.09,2.28,2.28,0,1,1-.55,3.09Z" transform="translate(-7.87 -4.58)"/><path d="M104.58,344.49a10.84,10.84,0,0,0,5.54-1.74c2.69-1.75,3.35-4.18,2-6.24-1.23-1.88-3-2.27-6.47-1.51-4.08,1-7.27.58-9.13-2.26-2.06-3.17-1-7.23,3-9.81a11,11,0,0,1,5.12-1.94l.67,2.63a9.24,9.24,0,0,0-4.47,1.53c-2.79,1.82-2.76,4.17-1.86,5.55,1.23,1.89,3.07,2,6.58,1.27,4.33-.9,7.15-.38,9.09,2.6s1.53,7.36-3.29,10.5a12.39,12.39,0,0,1-6.06,2.06Z" transform="translate(-7.87 -4.58)"/><path d="M112,319.85c-1.33-1.93-1.28-3.64,0-4.48a4.75,4.75,0,0,1,2.31-.56,3.52,3.52,0,0,0,1.6-.31c.48-.31.59-.77,0-1.82l1.41-.92c1.34,2,1.34,3.46-.07,4.39a4.76,4.76,0,0,1-2.26.57,3.5,3.5,0,0,0-1.64.31c-.48.31-.39,1,.09,1.88Zm18,12.65-1.44-1.69-.08.05a6.46,6.46,0,0,1-3,5.08,5,5,0,0,1-7.18-1.28c-2.31-3.53-.44-7.51,5.22-11.15l-.21-.31c-.77-1.18-2.53-3.16-5.51-1.2a8.5,8.5,0,0,0-3.09,3.57l-1.75-1.37a10.94,10.94,0,0,1,4-4.42c4.46-2.9,7.53-.57,9.44,2.35l3.55,5.46a26.77,26.77,0,0,0,2.5,3.35Zm-5.27-7.18c-2.91,1.81-5.86,4.47-4,7.29a2.78,2.78,0,0,0,4.13.92,4.36,4.36,0,0,0,2-4.76,3.23,3.23,0,0,0-.42-.92Z" transform="translate(-7.87 -4.58)"/><path d="M144.77,312.25c3.52,5.4,1.31,10.21-2.19,12.49-4,2.58-8.89,1.69-11.91-2.94-3.18-4.88-1.83-9.82,2.2-12.45C137.06,306.61,141.87,307.81,144.77,312.25ZM133.32,320c2.08,3.2,5.49,4.41,8.07,2.73s2.9-5.28.74-8.59c-1.61-2.46-4.89-4.77-8-2.72S131.51,317.2,133.32,320Z" transform="translate(-7.87 -4.58)"/><path d="M150.35,290.24l2.63-1.72,8.86,13.59c3.53,5.41,2,8.79-1.53,11.07a10.28,10.28,0,0,1-3.12,1.36l-1-2.39a7.73,7.73,0,0,0,2.48-1.06c2.34-1.53,3-3.49.42-7.47Z" transform="translate(-7.87 -4.58)"/><path d="M178.94,290c3.52,5.4,1.31,10.21-2.2,12.49-4,2.58-8.88,1.69-11.9-2.94-3.19-4.88-1.84-9.82,2.2-12.45C171.23,284.33,176,285.53,178.94,290Zm-11.46,7.71c2.09,3.2,5.49,4.41,8.08,2.73s2.89-5.28.74-8.59c-1.61-2.46-4.89-4.77-8-2.72S165.68,294.92,167.48,297.68Z" transform="translate(-7.87 -4.58)"/><path d="M177.24,277.3c-1.34-1.93-1.28-3.64,0-4.48a4.82,4.82,0,0,1,2.32-.56,3.69,3.69,0,0,0,1.6-.31c.47-.31.58-.77,0-1.82l1.41-.92c1.33,2,1.34,3.46-.07,4.39a4.79,4.79,0,0,1-2.26.57,3.47,3.47,0,0,0-1.64.31c-.48.31-.4,1,.09,1.88Zm18,12.65-1.43-1.69-.08.05a6.48,6.48,0,0,1-3.05,5.08,5,5,0,0,1-7.18-1.28c-2.3-3.53-.44-7.51,5.22-11.15l-.2-.31c-.77-1.18-2.54-3.16-5.51-1.2A8.5,8.5,0,0,0,179.9,283l-1.75-1.37a10.94,10.94,0,0,1,4-4.42c4.45-2.91,7.53-.57,9.43,2.35l3.56,5.46a26.85,26.85,0,0,0,2.49,3.34ZM190,282.77c-2.91,1.81-5.85,4.47-4,7.28a2.78,2.78,0,0,0,4.13.93,4.37,4.37,0,0,0,2-4.76,3.89,3.89,0,0,0-.42-.92Z" transform="translate(-7.87 -4.58)"/><path d="M210,269.7c3.52,5.4,1.31,10.21-2.19,12.49-4,2.58-8.89,1.69-11.91-2.94-3.18-4.88-1.84-9.82,2.2-12.45C202.32,264.06,207.13,265.26,210,269.7Zm-11.46,7.71c2.09,3.2,5.49,4.41,8.08,2.72s2.89-5.27.74-8.58c-1.61-2.46-4.89-4.77-8-2.72S196.77,274.65,198.57,277.41Z" transform="translate(-7.87 -4.58)"/><path d="M90.16,367.33,101.67,385c.84,1.3,1.85,2.73,2.57,3.68l-2.36,1.54-1.77-2.43-.07,0A6.38,6.38,0,0,1,97,393.89c-3.54,2.31-8.21,1.1-11.09-3.33-3.2-4.85-2.11-9.79,1.44-12.1a5.8,5.8,0,0,1,5.84-.66l.06,0-5.67-8.71Zm5.69,14.48a7.74,7.74,0,0,0-.85-1.06,4.68,4.68,0,0,0-5.83-.54c-2.75,1.79-2.82,5.26-.73,8.47,1.93,3,5,4.46,7.87,2.59a4.77,4.77,0,0,0,1.79-5.71,5.15,5.15,0,0,0-.61-1.22Z" transform="translate(-7.87 -4.58)"/><path d="M105.59,378.08c2.39,3.55,5.62,3.54,8.29,1.81a12,12,0,0,0,3.55-3.38l1.69,1.58a14,14,0,0,1-4.26,4.1c-4.48,2.92-9.12,1.69-12-2.68s-2.53-9.57,1.73-12.34c4.76-3.11,8.72.25,10.47,2.94a8.46,8.46,0,0,1,.72,1.3Zm6.51-7c-1.06-1.69-3.48-3.85-6.45-1.91-2.71,1.77-2.27,5-1.28,6.95Z" transform="translate(-7.87 -4.58)"/><path d="M119.51,349.75l13.25,20.32-2.64,1.72-13.25-20.32Z" transform="translate(-7.87 -4.58)"/><path d="M131,356.91c-1.12-1.73-2.12-3.17-3.08-4.47l2.32-1.51,2,2.79.09-.06a5.3,5.3,0,0,1,2-5.84,3.46,3.46,0,0,1,.79-.4l1.63,2.49a5,5,0,0,0-1,.51c-1.87,1.22-2.27,3.49-1.33,5.71a8,8,0,0,0,.7,1.31l5.08,7.79L137.55,367Z" transform="translate(-7.87 -4.58)"/><path d="M155.35,355.34l-1.44-1.69-.08.05a6.47,6.47,0,0,1-3,5.09,5,5,0,0,1-7.18-1.29c-2.3-3.53-.44-7.51,5.22-11.14l-.2-.31c-.77-1.19-2.54-3.16-5.52-1.2a8.49,8.49,0,0,0-3.09,3.56L138.27,347a11,11,0,0,1,4-4.41c4.46-2.91,7.53-.57,9.44,2.35l3.55,5.45a27,27,0,0,0,2.5,3.35Zm-5.27-7.18c-2.91,1.81-5.86,4.47-4,7.29a2.79,2.79,0,0,0,4.13.93,4.37,4.37,0,0,0,2-4.76,3.11,3.11,0,0,0-.42-.92Z" transform="translate(-7.87 -4.58)"/><path d="M171.85,343.83a12,12,0,0,1-3.63,3.57c-4.4,2.87-9.23,1.75-12.14-2.71s-2-9.77,2.77-12.88a10.27,10.27,0,0,1,4.19-1.63l.74,2.42a7.65,7.65,0,0,0-3.56,1.33c-3.32,2.16-3.52,5.85-1.54,8.87,2.2,3.38,5.73,4,8.63,2.15a9.28,9.28,0,0,0,2.8-2.82Z" transform="translate(-7.87 -4.58)"/><path d="M172.17,334.66c2.39,3.55,5.63,3.55,8.29,1.81a11.59,11.59,0,0,0,3.55-3.38l1.7,1.58a14.21,14.21,0,0,1-4.26,4.1c-4.48,2.93-9.13,1.7-12-2.68s-2.53-9.56,1.73-12.34c4.76-3.1,8.72.26,10.47,2.94a7.5,7.5,0,0,1,.73,1.31Zm6.52-7c-1.07-1.69-3.49-3.85-6.46-1.91-2.71,1.76-2.26,5-1.27,6.95Z" transform="translate(-7.87 -4.58)"/><path d="M183.3,322c-1-1.52-1.83-2.7-2.69-3.86l2.3-1.5,1.67,2.25.07,0a6,6,0,0,1,2.86-5.68,5.13,5.13,0,0,1,6,.25l.06,0a6.89,6.89,0,0,1,.41-3,5.92,5.92,0,0,1,2.54-3.12c1.94-1.27,5.63-1.88,8.94,3.19l5.59,8.58-2.59,1.69-5.37-8.24c-1.84-2.83-4-3.82-6.1-2.44a4.15,4.15,0,0,0-1.6,4.45,5.38,5.38,0,0,0,.65,1.47l5.89,9-2.59,1.69-5.71-8.75c-1.51-2.32-3.63-3.32-5.63-2a4.4,4.4,0,0,0-1.58,4.81,5.07,5.07,0,0,0,.65,1.43l5.73,8.79-2.59,1.69Z" transform="translate(-7.87 -4.58)"/><path d="M223.47,310.92,222,309.23l-.08,0a6.51,6.51,0,0,1-3.05,5.09,5,5,0,0,1-7.18-1.28c-2.3-3.54-.44-7.52,5.22-11.15l-.2-.31c-.77-1.18-2.54-3.16-5.52-1.2a8.48,8.48,0,0,0-3.08,3.57l-1.76-1.38a11,11,0,0,1,4-4.41c4.46-2.91,7.53-.57,9.44,2.35l3.56,5.46a27.62,27.62,0,0,0,2.49,3.34Zm-5.27-7.18c-2.91,1.81-5.86,4.47-4,7.29a2.79,2.79,0,0,0,4.13.93,4.34,4.34,0,0,0,2-4.76,3.38,3.38,0,0,0-.41-.92Z" transform="translate(-7.87 -4.58)"/><path d="M23.26,527.08a33.07,33.07,0,0,1,4.95,3.47c2.54,2.14,3.82,4,4.1,6.05a6.11,6.11,0,0,1-1.51,4.76,6.41,6.41,0,0,1-7.48,1.79l-.05.07c1,1.69.73,3.74-.44,6a42.51,42.51,0,0,0-2.85,6.3l-2.49-2.09A32,32,0,0,1,20,548c1.58-3,1.4-4.84-.71-6.74L17,539.36l-6.76,8.06-2.4-2Zm-4.71,10.47L21,539.61c2.57,2.15,5.37,2.12,7.15,0,2-2.41,1.17-4.92-1.36-7.05a13.2,13.2,0,0,0-2.55-1.78Z" transform="translate(-7.87 -4.58)"/><path d="M36.82,563.48c-1.17,1.4-2.13,2.64-3,3.74l-2.14-1.79,1.7-2.29-.07-.06a6.49,6.49,0,0,1-6.5-1.22c-2.08-1.75-3.61-5,.32-9.7l6.54-7.79,2.41,2L30,553.76c-2.14,2.54-2.8,4.93-.61,6.77a4.61,4.61,0,0,0,5.08.47,4.87,4.87,0,0,0,1.26-1.06l6.86-8.17,2.41,2Z" transform="translate(-7.87 -4.58)"/><path d="M45.2,576.73l1.2-1.86-.08-.06a6.49,6.49,0,0,1-5.74-1.44,5,5,0,0,1-.86-7.24c2.71-3.23,7.06-2.61,12.18,1.75l.24-.28c.9-1.08,2.28-3.35-.46-5.62a8.47,8.47,0,0,0-4.31-1.92l.81-2.08a10.91,10.91,0,0,1,5.38,2.52c4.07,3.43,2.73,7,.49,9.72l-4.19,5a27.39,27.39,0,0,0-2.48,3.36Zm5.33-7.12c-2.57-2.26-6-4.31-8.14-1.73a2.79,2.79,0,0,0,.32,4.22,4.36,4.36,0,0,0,5.12.49,3.1,3.1,0,0,0,.76-.67Z" transform="translate(-7.87 -4.58)"/><path d="M76.41,571.25l2.41,2L68.4,585.7c-4.15,4.95-7.85,4.43-11.05,1.75a10.57,10.57,0,0,1-2.21-2.59l2-1.67a7.49,7.49,0,0,0,1.74,2.06c2.13,1.8,4.21,1.87,7.27-1.77Z" transform="translate(-7.87 -4.58)"/><path d="M85,598.53c-4.14,4.94-9.38,4.22-12.59,1.53-3.61-3-4.19-8-.64-12.24,3.74-4.47,8.87-4.61,12.55-1.52C88.13,589.52,88.38,594.47,85,598.53Zm-10.7-8.72c-2.46,2.93-2.63,6.53-.26,8.52s5.88,1.24,8.42-1.79c1.9-2.25,3.15-6.06.27-8.48S76.39,587.28,74.27,589.81Z" transform="translate(-7.87 -4.58)"/><path d="M89.73,614.11l1.2-1.87-.07-.06a6.47,6.47,0,0,1-5.75-1.43,5,5,0,0,1-.86-7.25c2.71-3.23,7.06-2.6,12.18,1.76l.24-.28c.91-1.09,2.29-3.35-.46-5.63a8.44,8.44,0,0,0-4.3-1.92l.8-2.07a10.91,10.91,0,0,1,5.38,2.52c4.08,3.42,2.73,7,.49,9.71l-4.18,5a27.11,27.11,0,0,0-2.48,3.36ZM95.07,607c-2.58-2.26-6-4.31-8.14-1.73a2.79,2.79,0,0,0,.31,4.22,4.36,4.36,0,0,0,5.13.5,3.28,3.28,0,0,0,.75-.67Zm1.53-13.75c1.47-1.85,3.12-2.29,4.3-1.3a4.77,4.77,0,0,1,1.2,2.05,3.64,3.64,0,0,0,.76,1.44c.44.37.91.34,1.75-.53L105.9,596c-1.5,1.86-2.93,2.3-4.22,1.21a4.64,4.64,0,0,1-1.21-2,3.37,3.37,0,0,0-.78-1.47c-.43-.37-1.06-.09-1.76.63Z" transform="translate(-7.87 -4.58)"/><path d="M113.4,622.39c-4.14,4.94-9.38,4.22-12.59,1.53-3.61-3-4.19-8-.64-12.24,3.74-4.47,8.87-4.61,12.55-1.52C116.56,613.38,116.81,618.33,113.4,622.39Zm-10.7-8.72c-2.46,2.93-2.63,6.54-.26,8.52s5.88,1.24,8.42-1.79c1.9-2.25,3.15-6.06.27-8.48S104.82,611.14,102.7,613.67Z" transform="translate(-7.87 -4.58)"/><path d="M132.28,618.14l10,8.4-1.68,2L133,622.17l-5.2,6.18,7,5.9-1.67,2-7-5.89-7.06,8.41-2.42-2Z" transform="translate(-7.87 -4.58)"/><path d="M146,628l2.42,2L132,649.57l-2.42-2Z" transform="translate(-7.87 -4.58)"/><path d="M153.85,656.34c-4.14,4.94-9.38,4.22-12.58,1.53-3.62-3-4.2-8-.65-12.24,3.75-4.47,8.87-4.62,12.56-1.52S157.26,652.28,153.85,656.34Zm-10.7-8.72c-2.45,2.93-2.63,6.54-.26,8.52s5.89,1.24,8.43-1.79c1.89-2.25,3.15-6.06.26-8.48S145.27,645.09,143.15,647.62Z" transform="translate(-7.87 -4.58)"/><path d="M158.92,656.53c1.32-1.58,2.41-2.95,3.38-4.25l2.12,1.79-2.1,2.69.08.07a5.29,5.29,0,0,1,6.17.2,3.27,3.27,0,0,1,.61.63l-1.91,2.28a4.94,4.94,0,0,0-.76-.76c-1.71-1.43-4-1.16-5.86.38a8.62,8.62,0,0,0-1,1.05l-6,7.12-2.41-2Z" transform="translate(-7.87 -4.58)"/><path d="M160.35,673.37,171.54,660l2.41,2L162.76,675.4Zm17.06-14.83a2,2,0,1,1-.23-2.76A1.91,1.91,0,0,1,177.41,658.54Z" transform="translate(-7.87 -4.58)"/><path d="M174.19,685l1.2-1.86-.07-.06a6.51,6.51,0,0,1-5.75-1.44,5,5,0,0,1-.86-7.24c2.71-3.23,7.06-2.6,12.18,1.76l.24-.29c.91-1.08,2.29-3.34-.45-5.62a8.47,8.47,0,0,0-4.31-1.92l.8-2.08a10.93,10.93,0,0,1,5.38,2.53c4.08,3.42,2.74,7,.49,9.71l-4.18,5a27.11,27.11,0,0,0-2.48,3.36Zm5.34-7.12c-2.58-2.26-6-4.31-8.14-1.73a2.79,2.79,0,0,0,.31,4.22,4.36,4.36,0,0,0,5.13.49,3,3,0,0,0,.75-.66Zm1.54-13.76c1.46-1.84,3.11-2.28,4.29-1.3a4.77,4.77,0,0,1,1.2,2.06,3.59,3.59,0,0,0,.77,1.44c.43.36.9.34,1.74-.53l1.29,1.08c-1.5,1.85-2.93,2.29-4.22,1.21a4.64,4.64,0,0,1-1.21-2,3.47,3.47,0,0,0-.77-1.48c-.44-.36-1.07-.09-1.77.64Z" transform="translate(-7.87 -4.58)"/><path d="M197.86,693.28c-4.14,4.93-9.38,4.22-12.59,1.53-3.61-3-4.19-8-.64-12.25,3.75-4.46,8.87-4.61,12.56-1.51S201.27,689.21,197.86,693.28Zm-10.7-8.72c-2.45,2.92-2.63,6.53-.26,8.52s5.89,1.23,8.43-1.79c1.89-2.26,3.15-6.06.26-8.48S189.28,682,187.16,684.56Z" transform="translate(-7.87 -4.58)"/></g></g></svg>