<svg xmlns="http://www.w3.org/2000/svg" viewBox="0 0 1664.38 805.79"><defs><style>.cls-1{fill:#cfdcfa;}.cls-1,.cls-2,.cls-3{stroke:#000;stroke-miterlimit:10;stroke-width:4px;}.cls-3{fill:none;}</style></defs><g id="Layer_2" data-name="Layer 2"><g id="Novo_Mapa" data-name="Novo Mapa"><path class="cls-1" d="M88,40.72s6.4,9.07,8.19,11.72L395.32,494.67c33.94,54.35,59.74,77.35,66.53,93S472.71,618,470,640s1.36,36.58,4.08,42.86,5.43,11.49,14.93,14.63,74.68,15.68,108.62,16.72c14.24.44,23.46.88,29.37,1.24,5.45.33,10.17-2.9,10.36-7.11L641,627.4a6.3,6.3,0,0,1,1.57-3.8l25.34-29.73a6.19,6.19,0,0,0,1.57-4.37l-3.94-72.88c0-12.54-4.08-21.95-8.15-33.45s-37.53-104.52-37.53-104.52L584,289.8l-20.36-54.35C556.41,215.87,522.14,104.8,514.82,81c-.85-2.74-3.64-4.87-7.21-5.49L453.7,66.12c-15.2-2.93-20.94-4-31.56-11a11.44,11.44,0,0,0-5.63-1.76C384.68,51.9,88,40.72,88,40.72Z"/><path class="cls-1" d="M613.81,239.28l20.37,54.35L670,382.48s33.45,93,37.53,104.52,8.14,20.91,8.14,33.45l3.83,70.65a12,12,0,0,1-3,8.46l-23.83,28a5.93,5.93,0,0,0-1.48,3.6l-3.55,78.64c-.19,4.13,4.1,7.56,9.47,7.58l297.28,1c5.67,0,10.1-3.75,9.51-8.09L981.85,548c-2.71-29.27-10.86-85.71-23.08-131.7a766.27,766.27,0,0,0-38-110.31c-13.58-31.85-32.59-84.11-39.38-108.15s-17.65-53.31-23.08-66.9c-4.21-10.54-15-36.17-19.57-47.14-1.28-3-5-5.1-9.15-5.07l-255.24,2c-6.14,0-10.62,4.48-9.16,9.07C575.09,120.79,607.65,222.67,613.81,239.28Z"/><path class="cls-1" d="M903.53,80.17c-7.47-.23-13,5.32-10.71,10.81,5.1,12.34,12.9,31.3,15.65,38.18,5.43,13.58,16.29,42.85,23.08,66.89s25.8,76.31,39.38,108.15a767.13,767.13,0,0,1,38,110.31c12.22,46,20.37,102.43,23.08,131.7l22.23,164.88c.56,4.14,5,7.33,10.44,7.44,39.1.85,56,.64,95-2.27,30.45-2.26,67.29-6.17,85.34-8.16,6.07-.67,10.18-5.09,9.07-9.73-4.23-17.65-15-60.68-30.59-108.58-20.37-62.72-35.31-110.8-35.31-110.8C1171.93,434,1138,344.15,1138,344.15c-14.94-42.85-24.44-70-39.37-125.43-12.42-46-30.46-108-36.2-127.57-1.07-3.67-5.21-6.32-10.09-6.47Z"/><path class="cls-1" d="M1121.5,83c-5.67.46-9.54,4.62-8.27,8.9,6.66,22.44,25.63,86.62,35.75,124.15,14.94,55.4,24.44,82.57,39.38,125.43,0,0,33.94,89.89,50.23,134.84,0,0,14.94,48.08,35.3,110.79,12.44,38.31,24.87,87.9,29.35,106.23,1,4,6,6.61,11.15,5.83,26.08-3.92,54.35-8.58,76.13-13.24,21.3-4.55,199.37-46.43,244.76-57.11,5.54-1.3,8.28-6.08,5.81-10.12L1306.51,72.91c-1.72-2.82-5.57-4.48-9.59-4.16Z"/><path class="cls-1" d="M1663.91,803.79H21.11A19.12,19.12,0,0,1,2,784.68V47.48l27-3.76L345.29,510c33.94,54.35,59.74,77.35,66.53,93s10.86,30.32,8.14,52.27,1.36,36.58,4.08,42.85c0,0,6,37.57,65.11,49.21C515,752.72,563.82,763,597.76,764.09c14.24.43,23.46.87,29.37,1.23l70.17,3.4,297.28,1,72.76-.67c39.11.85,56,.64,95-2.27,30.44-2.27,67.28-6.18,85.33-8.17l68.67-9.54c26.08-3.92,54.35-8.58,76.14-13.24,21.3-4.56,271.4-64.07,271.4-64.07"/><path d="M159.88,169.74a33.43,33.43,0,0,1,3.81,4.7c1.86,2.75,2.57,4.92,2.29,6.94a6.08,6.08,0,0,1-2.76,4.16,6.4,6.4,0,0,1-7.68-.32l-.07.05c.49,1.89-.33,3.8-2.08,5.7a40.72,40.72,0,0,0-4.47,5.28l-1.82-2.7A31.84,31.84,0,0,1,151,189c2.35-2.46,2.68-4.27,1.17-6.67l-1.67-2.46-8.71,5.89-1.75-2.59Zm-7.39,8.78,1.79,2.65c1.88,2.78,4.58,3.52,6.89,2,2.61-1.77,2.47-4.42.62-7.16a13.77,13.77,0,0,0-2-2.41Z"/><path d="M162.93,208.46c-1.51,1-2.77,1.94-3.86,2.78l-1.57-2.31,2.26-1.74,0-.07a6.49,6.49,0,0,1-5.91-3c-1.53-2.25-2.1-5.82,3-9.24l8.42-5.7,1.77,2.61-8,5.39c-2.74,1.86-4,4-2.43,6.35a4.61,4.61,0,0,0,4.75,1.84,5.08,5.08,0,0,0,1.51-.67l8.83-6,1.76,2.61Z"/><path d="M167.36,223.5,169,222,169,222a6.48,6.48,0,0,1-5.14-3,5,5,0,0,1,1.16-7.2c3.49-2.37,7.51-.57,11.24,5l.3-.21c1.17-.79,3.12-2.59,1.11-5.53a8.47,8.47,0,0,0-3.62-3l1.34-1.78a11,11,0,0,1,4.49,3.91c3,4.41.69,7.52-2.2,9.47l-5.39,3.65a27.08,27.08,0,0,0-3.3,2.56Zm7.08-5.39c-1.86-2.88-4.57-5.78-7.35-3.89a2.78,2.78,0,0,0-.86,4.14,4.35,4.35,0,0,0,4.79,1.88,3.33,3.33,0,0,0,.91-.43Z"/><path d="M187.26,251a21.93,21.93,0,0,1-5.28-5.43c-2.06-3.05-3-6.08-2.43-9.31a12.35,12.35,0,0,1,5.57-7.84c6-4.05,13.18-2.9,17.73,3.84a15.25,15.25,0,0,1,2.48,5.65l-2.56.78a12.29,12.29,0,0,0-2.14-5c-3.3-4.87-8.49-6-13.53-2.61s-6,8.54-2.86,13.24a9.94,9.94,0,0,0,2.88,3.08l6-4.05-2.75-4.07,2.08-1.4,4.48,6.62Z"/><path d="M205.26,263.71c-5.34,3.61-10.18,1.48-12.53-2-2.64-3.91-1.84-8.86,2.74-12,4.83-3.26,9.8-2,12.49,2C210.77,255.9,209.65,260.73,205.26,263.71Zm-7.9-11.32c-3.16,2.14-4.32,5.56-2.59,8.12s5.32,2.8,8.6.59c2.44-1.65,4.69-5,2.58-8.09S200.09,250.54,197.36,252.39Z"/><path d="M210.68,264.87c1.5-1,2.66-1.88,3.81-2.76l1.57,2.32-2.28,1.75.05.07a6.42,6.42,0,0,1,5.93,2.94c1.34,2,2.24,5.89-2.71,9.24l-8.6,5.82-1.77-2.61L215,276c2.33-1.58,3.69-3.78,2-6.23a4.56,4.56,0,0,0-5.09-1.71,4.73,4.73,0,0,0-1.33.64l-8.69,5.88L200.15,272Z"/><path d="M216,295.24l-2.22.09a2.65,2.65,0,0,1-.65,3.47c-1.75,1.19-3.39.19-4.52-1.48a5,5,0,0,1-.85-2.37l1.57-.42a4,4,0,0,0,.66,1.91c.45.66,1.11,1.13,1.81.64s.51-1.68-.33-3.17l3.44-.28Zm2.85,3.23a12,12,0,0,1-3.63-3.57c-2.95-4.34-1.91-9.19,2.49-12.18s9.74-2.17,12.93,2.55a10.1,10.1,0,0,1,1.7,4.16l-2.41.78a7.61,7.61,0,0,0-1.38-3.53c-2.22-3.29-5.91-3.43-8.9-1.39-3.34,2.26-3.94,5.79-2,8.67a9.23,9.23,0,0,0,2.87,2.74Z"/><path d="M225.81,309.92l1.66-1.47-.05-.07a6.48,6.48,0,0,1-5.13-3,5,5,0,0,1,1.15-7.2c3.5-2.37,7.51-.57,11.24,5l.3-.21c1.18-.79,3.12-2.59,1.11-5.53a8.4,8.4,0,0,0-3.62-3l1.34-1.78a10.94,10.94,0,0,1,4.49,3.91c3,4.4.69,7.52-2.19,9.47l-5.4,3.65a27.06,27.06,0,0,0-3.3,2.55Zm7.09-5.39c-1.86-2.88-4.57-5.78-7.36-3.9a2.79,2.79,0,0,0-.86,4.15,4.37,4.37,0,0,0,4.8,1.88,3.65,3.65,0,0,0,.91-.43Z"/><path d="M251.29,302l1.76,2.61L231.88,318.9l-1.76-2.61Z"/><path d="M250,314.59l-6.17,8.3c-1,1.39-1.95,2.57-2.93,3.7l.05.08c1.42-.48,2.9-.88,4.54-1.32l10-2.64,1.85,2.74-18.26,4.08-1.69-2.5,10.71-15.25Z"/><path d="M252.11,334.29c-3.51,2.45-3.45,5.69-1.66,8.32a11.71,11.71,0,0,0,3.44,3.5l-1.56,1.72a14.25,14.25,0,0,1-4.17-4.19c-3-4.43-1.85-9.09,2.48-12s9.52-2.69,12.37,1.52c3.18,4.7-.11,8.73-2.77,10.52a7.31,7.31,0,0,1-1.29.74Zm7.08,6.4c1.67-1.09,3.79-3.55,1.8-6.49-1.81-2.67-5-2.18-7-1.15Z"/><path d="M256.91,350.15a8.52,8.52,0,0,0,1.33,4.17c1.29,1.92,2.83,2.17,4,1.35s1.41-2.06.83-4.46c-.82-3.25-.24-5.44,1.49-6.6,2.33-1.57,5.51-1,7.61,2.13a8.37,8.37,0,0,1,1.5,4.13l-2.35.64a6.81,6.81,0,0,0-1.15-3.54c-1-1.54-2.51-1.78-3.6-1.05s-1.15,2-.6,4.41c.75,3.11.37,5.25-1.77,6.71-2.56,1.73-5.69.95-8-2.45a10,10,0,0,1-1.74-4.74Z"/><path d="M277,384.15a15.5,15.5,0,0,1-4.55-4.67c-3.83-5.66-3.12-12.33,3.47-16.79,6.31-4.27,13.42-2.88,17.64,3.36a13.26,13.26,0,0,1,2.35,5.36l-2.55.79a11.6,11.6,0,0,0-1.91-4.6c-3.19-4.72-8.32-5.8-13.59-2.23-4.92,3.33-6.14,8.29-2.85,13.15a12.72,12.72,0,0,0,3.7,3.7Z"/><path d="M283.72,395.54l1.67-1.46-.05-.08a6.47,6.47,0,0,1-5.14-3,5,5,0,0,1,1.16-7.2c3.49-2.37,7.5-.57,11.23,5l.31-.21c1.17-.79,3.12-2.59,1.11-5.53a8.47,8.47,0,0,0-3.62-3l1.34-1.78a11,11,0,0,1,4.48,3.91c3,4.41.7,7.52-2.19,9.47l-5.39,3.65a27.23,27.23,0,0,0-3.31,2.56Zm7.09-5.39c-1.86-2.88-4.57-5.78-7.36-3.89a2.78,2.78,0,0,0-.85,4.14,4.35,4.35,0,0,0,4.79,1.88,3.33,3.33,0,0,0,.91-.43Z"/><path d="M290.46,399.75a8.67,8.67,0,0,0,1.32,4.17c1.3,1.91,2.84,2.16,4.05,1.35s1.4-2.07.82-4.47c-.82-3.24-.23-5.44,1.5-6.6,2.32-1.57,5.51-1,7.6,2.13a8.46,8.46,0,0,1,1.51,4.13l-2.35.64a6.85,6.85,0,0,0-1.15-3.53c-1.05-1.55-2.51-1.79-3.6-1.05s-1.15,2-.61,4.4c.76,3.11.38,5.25-1.77,6.71-2.55,1.73-5.69,1-8-2.45a9.91,9.91,0,0,1-1.74-4.73Z"/><path d="M316.73,404.32l-4.15,2.81,2.55,3.77-2,1.34-2.55-3.77-7.77,5.26c-1.8,1.21-2.46,2.42-1.47,3.88a6.55,6.55,0,0,0,1.22,1.4l-1.91,1.46a7.94,7.94,0,0,1-2-2.1,4.44,4.44,0,0,1-.8-3.58c.3-1.26,1.38-2.41,3.07-3.56l7.87-5.33-1.51-2.23,2-1.34,1.51,2.23,3.47-2.35Z"/><path d="M310.32,420.34c-3.51,2.45-3.45,5.69-1.67,8.32a11.71,11.71,0,0,0,3.44,3.5l-1.55,1.72a14.14,14.14,0,0,1-4.18-4.19c-3-4.43-1.84-9.09,2.48-12s9.53-2.69,12.37,1.52c3.19,4.7-.11,8.73-2.76,10.52a7.68,7.68,0,0,1-1.29.74Zm7.08,6.4c1.67-1.09,3.78-3.55,1.79-6.49-1.81-2.68-5-2.18-7-1.15Z"/><path d="M333.86,424.05l1.77,2.6L314.46,441l-1.77-2.61Z"/><path d="M322.85,453.39l1.67-1.46,0-.08a6.47,6.47,0,0,1-5.14-3,5,5,0,0,1,1.16-7.2c3.49-2.37,7.51-.57,11.23,5l.31-.21c1.17-.79,3.12-2.59,1.11-5.53a8.47,8.47,0,0,0-3.62-3l1.34-1.78a11,11,0,0,1,4.48,3.91c3,4.41.7,7.52-2.19,9.47l-5.39,3.65a27.23,27.23,0,0,0-3.31,2.56Zm7.09-5.39c-1.86-2.88-4.57-5.78-7.36-3.9a2.79,2.79,0,0,0-.85,4.15,4.35,4.35,0,0,0,4.79,1.88,3.33,3.33,0,0,0,.91-.43Zm5.25-12.8c1.91-1.38,3.62-1.35,4.49-.08a4.86,4.86,0,0,1,.59,2.31,3.61,3.61,0,0,0,.34,1.59c.31.47.78.57,1.82,0l.94,1.39c-1.95,1.37-3.44,1.41-4.39,0a4.86,4.86,0,0,1-.61-2.25,3.4,3.4,0,0,0-.34-1.64c-.32-.47-1-.37-1.87.13Z"/><path d="M343.36,467.87c-5.34,3.61-10.18,1.49-12.53-2-2.65-3.91-1.84-8.86,2.74-12,4.82-3.26,9.79-2,12.49,2C348.87,460.07,347.75,464.9,343.36,467.87Zm-7.9-11.32c-3.17,2.14-4.32,5.56-2.59,8.12s5.32,2.8,8.59.59c2.44-1.65,4.7-5,2.59-8.08S338.19,454.7,335.46,456.55Z"/><path d="M591.08,200.62a32.76,32.76,0,0,1,2.38,5.56c1,3.16,1.13,5.44.31,7.3a6.09,6.09,0,0,1-3.79,3.25,6.39,6.39,0,0,1-7.3-2.41l-.09,0c0,2-1.35,3.57-3.55,4.92a41,41,0,0,0-5.74,3.85l-1-3.08a31.53,31.53,0,0,1,5-3.33c2.93-1.73,3.74-3.38,3-6.1l-.93-2.82-10,3.29-1-3Zm-9.51,6.43,1,3c1,3.19,3.45,4.63,6.09,3.76,3-1,3.59-3.57,2.56-6.71a13.68,13.68,0,0,0-1.24-2.86Z"/><path d="M583.55,238.57c-1.72.59-3.18,1.15-4.46,1.67l-.9-2.65,2.64-1.08,0-.08a6.5,6.5,0,0,1-4.93-4.41c-.88-2.57-.49-6.16,5.28-8.14l9.63-3.28,1,3-9.1,3.11c-3.14,1.07-4.94,2.78-4,5.48a4.61,4.61,0,0,0,4.1,3,4.93,4.93,0,0,0,1.63-.26l10.1-3.44,1,3Z"/><path d="M584.44,254.37l2-1,0-.09a6.47,6.47,0,0,1-4.3-4.07,5,5,0,0,1,2.81-6.74c4-1.48,7.43,1.21,9.74,7.52l.35-.13c1.32-.49,3.64-1.78,2.37-5.12a8.54,8.54,0,0,0-2.81-3.79l1.72-1.41a10.9,10.9,0,0,1,3.45,4.85c1.86,5-1.09,7.47-4.35,8.69l-6.1,2.29a27.37,27.37,0,0,0-3.81,1.71Zm8.15-3.58c-1.13-3.23-3.09-6.69-6.24-5.51a2.79,2.79,0,0,0-1.8,3.84,4.37,4.37,0,0,0,4.22,2.95,3.62,3.62,0,0,0,1-.21Z"/><path d="M611,267l0-.07-3.48-3,2-1.42,4.34,3.83.94,2.52L593,277.08l-1.08-2.86Z"/><path d="M617.8,286.47a4.79,4.79,0,0,1-6.21-2.82,4.59,4.59,0,0,1,2.68-6.06,4.76,4.76,0,0,1,6.24,2.78A4.59,4.59,0,0,1,617.8,286.47ZM615,279.41a2.85,2.85,0,0,0-1.79,3.67,2.89,2.89,0,0,0,3.88,1.57,2.82,2.82,0,0,0,1.85-3.72A2.93,2.93,0,0,0,615,279.41Z"/><path d="M632.66,308.53l-19.54,7.88c-1.44.58-3,1.29-4.11,1.81l-1-2.61,2.73-1.27,0-.08a6.38,6.38,0,0,1-5.37-4.2c-1.58-3.92.51-8.27,5.41-10.24,5.39-2.2,10-.17,11.6,3.76a5.78,5.78,0,0,1-.49,5.85l0,.07,9.64-3.88Zm-15.31,2.78a6.33,6.33,0,0,0,1.21-.63,4.66,4.66,0,0,0,1.66-5.61c-1.22-3-4.62-3.79-8.17-2.36-3.28,1.33-5.34,4.06-4.07,7.22a4.78,4.78,0,0,0,5.26,2.87,5.33,5.33,0,0,0,1.32-.36Z"/><path d="M619.14,321.62c-3.95,1.65-4.57,4.83-3.38,7.78a11.7,11.7,0,0,0,2.63,4.14l-1.88,1.36a14.19,14.19,0,0,1-3.2-5c-2-5,.11-9.27,5-11.23s9.88-.63,11.78,4.09c2.12,5.27-1.95,8.51-4.92,9.7a7.44,7.44,0,0,1-1.42.46Zm5.58,7.74c1.86-.72,4.44-2.67,3.12-6-1.21-3-4.44-3.18-6.57-2.59Z"/><path d="M644.91,342.42l1.18,2.92-15,6.07c-6,2.41-9,.22-10.57-3.65a10.26,10.26,0,0,1-.73-3.33l2.54-.53a7.58,7.58,0,0,0,.56,2.64c1,2.59,2.84,3.63,7.25,1.85Z"/><path d="M635.38,370.94c-1.69.68-3.12,1.32-4.36,1.91l-1-2.59,2.58-1.22,0-.09a6.49,6.49,0,0,1-5.16-4.13c-1-2.52-.82-6.13,4.84-8.41l9.43-3.81,1.18,2.93-8.92,3.59c-3.08,1.24-4.78,3-3.72,5.69a4.62,4.62,0,0,0,4.27,2.8,4.56,4.56,0,0,0,1.61-.34l9.89-4,1.18,2.92Z"/><path d="M644.85,372.92c1.7-.66,3-1.23,4.34-1.83l1,2.61-2.61,1.2,0,.08a6.44,6.44,0,0,1,5.11,4.2c.85,2.23.86,6.24-4.73,8.39l-9.69,3.73-1.13-2.94,9.37-3.6c2.62-1,4.44-2.85,3.38-5.62a4.68,4.68,0,0,0-6-2.49l-9.8,3.77L633,377.48Z"/><path d="M663.91,387.44l1.06,3-10.22,3.67,0,.07a6.15,6.15,0,0,1,2.87,1.39,6.36,6.36,0,0,1,1.93,2.75c.79,2.21.7,6.19-5,8.23l-9.75,3.5-1.07-3,9.43-3.39c2.64-.95,4.5-2.75,3.5-5.54a4.54,4.54,0,0,0-5.91-2.64l-9.9,3.56-1.06-3Z"/><path d="M660.3,426.74c-6.07,2.18-10.23-1.08-11.65-5-1.59-4.45.41-9,5.61-10.91,5.48-2,10,.48,11.61,5C667.57,420.54,665.29,424.94,660.3,426.74Zm-4.86-12.92c-3.59,1.29-5.56,4.32-4.51,7.23s4.46,4,8.18,2.69c2.77-1,5.77-3.65,4.5-7.19S658.55,412.7,655.44,413.82Z"/><path d="M931.46,234.75a32.84,32.84,0,0,1,2.56,5.48c1.14,3.13,1.3,5.4.54,7.29a6.09,6.09,0,0,1-3.68,3.37,6.41,6.41,0,0,1-7.38-2.18l-.08,0c0,2-1.24,3.62-3.4,5a40,40,0,0,0-5.61,4l-1.12-3.06a33,33,0,0,1,4.91-3.48c2.88-1.82,3.64-3.49,2.75-6.19l-1-2.79-9.88,3.61L909,243Zm-9.3,6.73,1.1,3c1.15,3.15,3.6,4.52,6.21,3.56,3-1.08,3.46-3.68,2.34-6.79a14,14,0,0,0-1.33-2.82Z"/><path d="M925.21,272.85c-1.71.65-3.15,1.26-4.4,1.83l-1-2.62,2.61-1.17,0-.08a6.48,6.48,0,0,1-5.07-4.24c-1-2.54-.71-6.14,5-8.31l9.51-3.61,1.12,2.94L924,261c-3.1,1.17-4.85,2.94-3.83,5.61a4.6,4.6,0,0,0,4.2,2.89,5,5,0,0,0,1.62-.31l10-3.79,1.12,2.95Z"/><path d="M926.21,288.38l1.94-1.07,0-.09a6.48,6.48,0,0,1-4.38-4,5,5,0,0,1,2.68-6.78c3.92-1.56,7.46,1.06,9.89,7.33l.35-.13c1.31-.52,3.6-1.86,2.27-5.17a8.49,8.49,0,0,0-2.88-3.74l1.69-1.44a11,11,0,0,1,3.54,4.78c2,4.94-.94,7.49-4.18,8.78l-6.06,2.4a27.2,27.2,0,0,0-3.77,1.78Zm8.08-3.74c-1.19-3.21-3.21-6.63-6.34-5.39a2.8,2.8,0,0,0-1.73,3.87A4.37,4.37,0,0,0,930.5,286a3.61,3.61,0,0,0,1-.23Z"/><path d="M955.62,296l-9.37,3.94,4.53,10.81,9.38-3.93,1.22,2.91L939,319.09l-1.22-2.91,10.5-4.4L943.74,301l-10.5,4.4-1.22-2.9,22.38-9.39Z"/><path d="M949.13,322.54c-4,1.62-4.61,4.8-3.44,7.76a11.64,11.64,0,0,0,2.59,4.16l-1.89,1.34a14,14,0,0,1-3.16-5c-2-5,.19-9.27,5-11.18s9.88-.54,11.74,4.19c2.08,5.29-2,8.49-5,9.66a7.29,7.29,0,0,1-1.42.44Zm5.51,7.79c1.87-.7,4.47-2.63,3.18-5.93-1.19-3-4.41-3.22-6.55-2.66Z"/><path d="M959.36,336.19c1.7-.62,3-1.17,4.37-1.74l.95,2.63-2.63,1.14,0,.08a6.44,6.44,0,0,1,5,4.3c.82,2.25.75,6.26-4.87,8.3l-9.76,3.55-1.08-3,9.43-3.43c2.65-1,4.5-2.76,3.49-5.55a4.56,4.56,0,0,0-4.51-2.9,4.94,4.94,0,0,0-1.46.3l-9.86,3.59-1.08-3Z"/><path d="M965.45,355.35c1.95-.66,3.59-1.28,5.09-1.88l.89,2.63-3.2,1.21,0,.1a5.3,5.3,0,0,1,5.17,3.37,3.66,3.66,0,0,1,.2.86l-2.82,1a5,5,0,0,0-.26-1.05c-.72-2.11-2.82-3.07-5.2-2.71a8.35,8.35,0,0,0-1.44.35l-8.81,3-1-3Z"/><path d="M957.86,370.44l16.56-5.36,1,3-16.56,5.37Zm22.33-3.52a2,2,0,1,1,1.27-2.46A1.88,1.88,0,0,1,980.19,366.92Z"/><path d="M966.45,388.91l0-.08a6.23,6.23,0,0,1-4.6-4.54c-1.18-3.9,1.22-8.08,6.29-9.62,6.25-1.9,10.2,1.29,11.27,4.81a5.7,5.7,0,0,1-1.32,6v.07l2.55-.65.87,2.87c-1.41.35-2.88.73-4.61,1.26L958,394.77l-.91-3Zm7.35-2.24a5.14,5.14,0,0,0,1.22-.51,4.69,4.69,0,0,0,2.13-5.41c-.95-3.14-4.19-4.22-7.93-3.09-3.33,1-5.72,3.48-4.7,6.82a4.72,4.72,0,0,0,4.61,3.34,4.63,4.63,0,0,0,1.53-.19Z"/><path d="M974.7,410.36c-1.76.49-3.25,1-4.55,1.42l-.75-2.7,2.7-.92,0-.09a6.47,6.47,0,0,1-4.66-4.68c-.73-2.62-.14-6.19,5.74-7.82l9.8-2.73.85,3-9.27,2.57c-3.19.89-5.09,2.49-4.33,5.25a4.61,4.61,0,0,0,3.92,3.25,4.81,4.81,0,0,0,1.65-.15L986,403.94l.84,3Z"/><path d="M979.76,416.33c-4.14,1.1-5.19,4.17-4.41,7.25a11.71,11.71,0,0,0,2,4.46l-2,1.09a14,14,0,0,1-2.48-5.37c-1.3-5.19,1.37-9.17,6.44-10.44s9.87.73,11.11,5.66c1.38,5.51-3.1,8.16-6.21,8.94a7.4,7.4,0,0,1-1.46.26Zm4.46,8.44c1.95-.45,4.78-2,3.92-5.48-.79-3.14-4-3.76-6.16-3.47Z"/><path d="M992,459.3c3.27-.86,7.24-1.89,10.18-2.47l0-.1c-2.92-.25-6.12-.63-9.62-1.15l-12.39-1.84-.48-2.32,10.53-6.19c3.13-1.82,6-3.36,8.67-4.6v-.09c-3,.52-7,1.18-10.59,1.68l-10.33,1.45-.6-2.92,24.12-3.2.8,3.92-10.69,6.4c-2.71,1.58-5.16,2.91-7.52,4l0,.1c2.54.13,5.33.43,8.52.88l12.38,1.89.8,3.93L982.27,465l-.62-3Z"/><path d="M994.57,483.69c-6.35,1.12-9.91-2.79-10.64-6.92-.82-4.64,1.93-8.84,7.37-9.8,5.74-1,9.76,2.17,10.6,6.91C1002.77,478.81,999.79,482.76,994.57,483.69ZM992,470.13c-3.76.66-6.21,3.32-5.67,6.36s3.72,4.73,7.61,4c2.9-.51,6.31-2.62,5.65-6.33S995.21,469.55,992,470.13Z"/><path d="M999,487.12c1.8-.28,3.22-.57,4.63-.87l.43,2.76-2.8.62v.08a6.46,6.46,0,0,1,4.12,5.19c.37,2.36-.47,6.28-6.38,7.21l-10.26,1.61-.49-3.11,9.92-1.56c2.78-.44,4.94-1.85,4.48-4.78a4.56,4.56,0,0,0-3.87-3.71,5,5,0,0,0-1.49,0L987,492.2l-.49-3.11Z"/><path d="M1012.18,509.22l-5,.7.63,4.51-2.37.33-.64-4.5-9.29,1.31c-2.14.3-3.27,1.09-3,2.84a6.37,6.37,0,0,0,.48,1.79l-2.36.48a8,8,0,0,1-.83-2.74,4.42,4.42,0,0,1,.85-3.57c.83-1,2.3-1.57,4.33-1.85l9.41-1.34-.38-2.66,2.38-.34.37,2.67,4.16-.59Z"/><path d="M999.35,520.84c-4.24.59-5.65,3.51-5.26,6.66a11.65,11.65,0,0,0,1.49,4.68l-2.17.83a14,14,0,0,1-1.82-5.63c-.66-5.31,2.47-8.94,7.66-9.59s9.71,1.92,10.34,7c.7,5.64-4.06,7.73-7.24,8.13a8.6,8.6,0,0,1-1.48.08Zm3.41,8.91c2-.21,5-1.44,4.54-5-.4-3.2-3.47-4.21-5.69-4.18Z"/><path d="M996.37,537.07a8.69,8.69,0,0,0-.81,4.3c.24,2.3,1.48,3.25,2.93,3.11s2.21-1.16,2.84-3.55c.81-3.24,2.37-4.9,4.44-5.1,2.79-.28,5.31,1.75,5.69,5.48a8.44,8.44,0,0,1-.63,4.35l-2.37-.55a6.9,6.9,0,0,0,.66-3.66c-.19-1.86-1.37-2.76-2.67-2.63s-2,1.23-2.62,3.59c-.81,3.1-2.16,4.81-4.74,5.08-3.07.31-5.47-1.86-5.88-6a9.87,9.87,0,0,1,.71-5Z"/><path d="M1136.55,209.61a33.17,33.17,0,0,1,2.08,5.68c.87,3.21.84,5.49-.08,7.31a6.07,6.07,0,0,1-4,3,6.4,6.4,0,0,1-7.16-2.79l-.09,0c-.14,2-1.53,3.5-3.81,4.73a40.92,40.92,0,0,0-5.94,3.54l-.85-3.14a32.62,32.62,0,0,1,5.19-3.06c3-1.56,3.92-3.17,3.27-5.93l-.78-2.86-10.15,2.75-.82-3Zm-9.84,5.92.84,3.09c.88,3.23,3.2,4.81,5.88,4.08,3-.83,3.77-3.38,2.91-6.57a13.6,13.6,0,0,0-1.08-2.92Z"/><path d="M1127,247.15c-1.75.49-3.24,1-4.55,1.42l-.75-2.69,2.7-.93,0-.09a6.46,6.46,0,0,1-4.67-4.68c-.74-2.62-.14-6.19,5.74-7.82l9.8-2.73.85,3-9.27,2.58c-3.2.89-5.09,2.5-4.33,5.25a4.61,4.61,0,0,0,3.93,3.25,4.78,4.78,0,0,0,1.64-.15l10.27-2.86.85,3Z"/><path d="M1126.5,262.72l2-.88,0-.09a6.5,6.5,0,0,1-4-4.39,5,5,0,0,1,3.31-6.5c4.05-1.18,7.32,1.76,9.15,8.23l.36-.1c1.35-.4,3.76-1.51,2.74-4.93a8.52,8.52,0,0,0-2.51-4l1.82-1.28a10.9,10.9,0,0,1,3.07,5.09c1.49,5.11-1.64,7.37-5,8.35l-6.25,1.82a26.58,26.58,0,0,0-3.93,1.41Zm8.4-3c-.89-3.31-2.57-6.91-5.81-6a2.79,2.79,0,0,0-2.08,3.69,4.37,4.37,0,0,0,4,3.26,3.14,3.14,0,0,0,1-.14Z"/><path d="M1133.48,297.53c-.19-3.37-.2-6.73-.12-9.7a4.67,4.67,0,0,0-.11-1.51c-1.52-5.57,1.06-11.52,8.51-13.86s13.61.68,15.57,6.92-1.59,11.91-8.43,14.06c-6,1.87-10.61.32-13.18-3.1l-.13,0c.14,2.47.37,5.17.65,7.25Zm14.28-7.2c4.63-1.46,8.66-5.37,7.11-10.27s-7-6-12-4.47-8.51,5.64-7,10.31S1142.49,292,1147.76,290.33Z"/><path d="M1147.47,313.24c-1.73.58-3.19,1.13-4.47,1.65l-.88-2.66,2.64-1.06,0-.08a6.49,6.49,0,0,1-4.89-4.44c-.87-2.59-.45-6.17,5.34-8.1l9.65-3.22,1,3-9.13,3c-3.14,1.05-5,2.74-4.06,5.45a4.62,4.62,0,0,0,4.09,3.06,4.92,4.92,0,0,0,1.63-.24l10.11-3.37,1,3Z"/><path d="M1147.78,328.82l2-1,0-.09a6.46,6.46,0,0,1-4.19-4.19,5,5,0,0,1,3-6.65c4-1.37,7.39,1.41,9.53,7.78l.35-.12c1.34-.46,3.69-1.69,2.51-5.05a8.37,8.37,0,0,0-2.7-3.87l1.76-1.36a10.91,10.91,0,0,1,3.31,4.93c1.73,5-1.29,7.45-4.59,8.58l-6.16,2.12a27.6,27.6,0,0,0-3.85,1.6Zm8.25-3.36c-1-3.26-2.91-6.77-6.09-5.67a2.78,2.78,0,0,0-1.9,3.78,4.36,4.36,0,0,0,4.13,3.06,3,3,0,0,0,1-.18Z"/><path d="M1172.68,332.18l-4.74,1.65,1.5,4.29-2.27.79-1.49-4.3-8.86,3.09c-2,.71-3,1.7-2.42,3.37a6.18,6.18,0,0,0,.82,1.66l-2.23.93a8.24,8.24,0,0,1-1.34-2.53,4.45,4.45,0,0,1,.15-3.67c.62-1.14,2-2,3.88-2.65l9-3.12-.89-2.55,2.27-.79.88,2.55,4-1.38Z"/><path d="M1165.4,343.26c1.92-.72,3.54-1.39,5-2.05l1,2.6-3.15,1.32,0,.1a5.29,5.29,0,0,1,5.27,3.19,3.81,3.81,0,0,1,.23.86l-2.79,1.05a5.18,5.18,0,0,0-.29-1c-.79-2.09-2.92-3-5.29-2.53a8.5,8.5,0,0,0-1.42.4l-8.7,3.28-1.12-2.94Z"/><path d="M1172.1,369.88c-6,2.27-10.25-.92-11.72-4.83-1.67-4.42.27-9.05,5.44-11,5.45-2.05,10,.34,11.69,4.84C1179.27,363.58,1177.06,368,1172.1,369.88Zm-5-12.85c-3.58,1.35-5.5,4.41-4.41,7.3s4.53,4,8.22,2.58c2.76-1,5.72-3.74,4.4-7.27S1170.14,355.87,1167.05,357Z"/><path d="M1197.1,389l-19.73,7.4c-1.45.55-3.06,1.21-4.15,1.72l-1-2.64,2.76-1.21,0-.08a6.37,6.37,0,0,1-5.26-4.33c-1.49-3.95.71-8.25,5.65-10.1,5.44-2.07,10,.06,11.51,4a5.81,5.81,0,0,1-.63,5.85l0,.06L1196,386Zm-15.37,2.41a7.26,7.26,0,0,0,1.22-.6,4.69,4.69,0,0,0,1.8-5.58c-1.15-3.07-4.53-3.89-8.12-2.55-3.31,1.24-5.44,3.92-4.24,7.12a4.79,4.79,0,0,0,5.19,3,5.21,5.21,0,0,0,1.32-.33Z"/><path d="M1183.26,401.72c-4,1.56-4.69,4.73-3.57,7.7a11.72,11.72,0,0,0,2.52,4.21l-1.91,1.31a14.13,14.13,0,0,1-3.08-5.06c-1.87-5,.34-9.27,5.23-11.1s9.89-.38,11.68,4.38c2,5.32-2.16,8.46-5.16,9.58a7.5,7.5,0,0,1-1.43.42Zm5.38,7.89c1.88-.67,4.52-2.57,3.27-5.89-1.13-3-4.35-3.29-6.5-2.76Z"/><path d="M1187.47,425.32a11,11,0,0,0,.48,5.8c1.12,3,3.34,4.19,5.65,3.33,2.11-.79,2.89-2.48,2.9-6-.07-4.2,1-7.23,4.21-8.41,3.54-1.32,7.26.65,8.91,5.07a11.19,11.19,0,0,1,.77,5.43l-2.72.08a9.22,9.22,0,0,0-.51-4.7c-1.17-3.12-3.46-3.61-5-3-2.11.79-2.63,2.56-2.68,6.15-.08,4.42-1.2,7.05-4.54,8.29-3.49,1.3-7.51-.13-9.52-5.51a12.52,12.52,0,0,1-.68-6.37Z"/><path d="M1198.51,442.61c-4,1.55-4.71,4.71-3.6,7.69a11.82,11.82,0,0,0,2.51,4.21l-1.91,1.3a14,14,0,0,1-3.06-5.06c-1.86-5,.36-9.27,5.26-11.08s9.89-.36,11.66,4.41c2,5.32-2.19,8.45-5.19,9.56a8.32,8.32,0,0,1-1.43.42Zm5.35,7.9c1.88-.67,4.52-2.55,3.29-5.88-1.12-3-4.34-3.3-6.49-2.77Z"/><path d="M1218.88,456.5l-4.7,1.74,1.57,4.27-2.25.82-1.57-4.26-8.81,3.24c-2,.75-3,1.76-2.36,3.42a6.5,6.5,0,0,0,.85,1.64l-2.2,1a8,8,0,0,1-1.39-2.5,4.47,4.47,0,0,1,.07-3.67c.6-1.15,1.92-2,3.84-2.73l8.92-3.29-.93-2.53,2.25-.83.93,2.54,3.94-1.46Z"/><path d="M1208.8,470.5c-4,1.53-4.72,4.69-3.63,7.67a11.8,11.8,0,0,0,2.5,4.23l-1.93,1.29a14.18,14.18,0,0,1-3-5.08c-1.84-5,.4-9.26,5.31-11.06s9.89-.31,11.64,4.47c1.95,5.33-2.22,8.44-5.23,9.54a7.72,7.72,0,0,1-1.43.41Zm5.33,7.92c1.88-.65,4.53-2.52,3.31-5.86-1.11-3-4.33-3.32-6.48-2.8Z"/><path d="M1218.6,484.53c1.74-.54,3.09-1,4.44-1.55l.83,2.63-2.62,1,0,.08A6,6,0,0,1,1226,491a5.12,5.12,0,0,1-1.86,5.73l0,.06a7,7,0,0,1,2.75,1.2,5.89,5.89,0,0,1,2.32,3.29c.7,2.21.29,5.93-5.49,7.74l-9.78,3.08-.92-3,9.39-2.95c3.22-1,4.75-2.8,4-5.22a4.14,4.14,0,0,0-3.85-2.74,5.41,5.41,0,0,0-1.59.23l-10.28,3.23-.93-2.95,10-3.13c2.65-.83,4.18-2.6,3.47-4.88a4.4,4.4,0,0,0-4.2-2.82,5.11,5.11,0,0,0-1.56.24l-10,3.15-.92-3Z"/><path d="M1215.45,516.84c1.16-.28,2.84-.75,4.32-1.22l20.08-6.36,1,3-10.44,3.3,0,.07a6.44,6.44,0,0,1,4.84,4.7c1.31,4.12-1.2,8.11-6.23,9.68-6,1.89-10.1-1-11.27-4.65a6.28,6.28,0,0,1,1.34-6.54l0-.08-2.78.71Zm7.64,1a4.77,4.77,0,0,0-1,.48,4.87,4.87,0,0,0-2.1,5.64c1,3.18,4.17,4.23,8,3,3.34-1.06,5.65-3.69,4.62-6.92a5.06,5.06,0,0,0-5.16-3.39,5.74,5.74,0,0,0-1.31.23Z"/><path d="M1233.1,532.85c2-.63,3.61-1.21,5.12-1.78l.85,2.64-3.22,1.15,0,.11a5.28,5.28,0,0,1,5.1,3.46,3.69,3.69,0,0,1,.19.87l-2.84.9a4.85,4.85,0,0,0-.24-1.05c-.68-2.13-2.76-3.12-5.15-2.81a8.43,8.43,0,0,0-1.44.33l-8.87,2.82-1-3Z"/><path d="M1238.39,559.66c-6.14,2-10.19-1.44-11.46-5.42-1.44-4.5.73-9,6-10.71,5.55-1.77,10,.84,11.43,5.42C1245.87,553.72,1243.44,558,1238.39,559.66Zm-4.4-13.09c-3.63,1.17-5.7,4.13-4.76,7.07s4.32,4.19,8.08,3c2.8-.9,5.9-3.44,4.75-7S1237.14,545.57,1234,546.57Z"/><path d="M1404.58,160.42a33.34,33.34,0,0,1,3.6,4.86c1.74,2.84,2.34,5,2,7a6.06,6.06,0,0,1-2.94,4,6.4,6.4,0,0,1-7.66-.67l-.07,0c.41,1.92-.49,3.78-2.33,5.6a41.12,41.12,0,0,0-4.7,5.07l-1.7-2.77a32.39,32.39,0,0,1,4.12-4.39c2.46-2.35,2.87-4.15,1.46-6.61l-1.54-2.53-9,5.49-1.63-2.67Zm-7.77,8.44,1.67,2.73c1.75,2.86,4.42,3.71,6.79,2.26,2.69-1.65,2.67-4.3.94-7.12a13.54,13.54,0,0,0-1.85-2.5Z"/><path d="M1405.91,199.24c-1.56,1-2.86,1.82-4,2.62l-1.46-2.39,2.34-1.63,0-.07a6.52,6.52,0,0,1-5.77-3.22c-1.43-2.32-1.83-5.91,3.37-9.1l8.67-5.32,1.65,2.69-8.2,5c-2.83,1.74-4.21,3.8-2.72,6.23a4.62,4.62,0,0,0,4.67,2.06,4.79,4.79,0,0,0,1.53-.61L1415,190l1.65,2.69Z"/><path d="M1409.65,214.46l1.73-1.39-.05-.08a6.47,6.47,0,0,1-5-3.18,5,5,0,0,1,1.48-7.15c3.59-2.2,7.52-.23,11,5.53l.31-.19c1.21-.74,3.23-2.45,1.35-5.48a8.47,8.47,0,0,0-3.47-3.19l1.42-1.71a11,11,0,0,1,4.3,4.1c2.78,4.54.36,7.54-2.61,9.37l-5.56,3.4a28.4,28.4,0,0,0-3.41,2.4Zm7.32-5.07c-1.73-3-4.31-6-7.18-4.22a2.79,2.79,0,0,0-1,4.1,4.36,4.36,0,0,0,4.71,2.1,3.27,3.27,0,0,0,.93-.4Z"/><path d="M1438.4,214.94l6.82,11.14-2.22,1.36-5.18-8.45-6.89,4.22,4.79,7.81-2.21,1.36-4.79-7.81-9.36,5.74-1.65-2.69Z"/><path d="M1436.56,235.43c1.75-1.07,3.22-2,4.55-3l1.45,2.37-2.85,1.89.06.09a5.3,5.3,0,0,1,5.78,2.14,3.6,3.6,0,0,1,.38.8l-2.54,1.56a4.81,4.81,0,0,0-.48-1c-1.17-1.9-3.42-2.37-5.67-1.49a7.74,7.74,0,0,0-1.32.66l-7.93,4.86-1.65-2.68Z"/><path d="M1437.45,259.81l1.72-1.39-.05-.08a6.47,6.47,0,0,1-5-3.18,5,5,0,0,1,1.48-7.15c3.59-2.2,7.52-.23,11,5.53l.32-.19c1.21-.74,3.23-2.45,1.35-5.48a8.5,8.5,0,0,0-3.48-3.19l1.42-1.71a10.94,10.94,0,0,1,4.31,4.1c2.78,4.54.36,7.54-2.62,9.37l-5.55,3.4a27.62,27.62,0,0,0-3.41,2.4Zm7.32-5.07c-1.73-3-4.31-6-7.18-4.22a2.79,2.79,0,0,0-1,4.11,4.37,4.37,0,0,0,4.71,2.09,3.36,3.36,0,0,0,.92-.39Z"/><path d="M1452.3,259.73c1.55-1,2.75-1.75,3.93-2.58l1.47,2.39-2.35,1.64,0,.08a6.41,6.41,0,0,1,5.79,3.2c1.25,2,2,6-3.12,9.11l-8.85,5.43-1.65-2.69,8.56-5.24c2.4-1.47,3.85-3.61,2.3-6.14a4.54,4.54,0,0,0-5-1.93,5,5,0,0,0-1.36.58l-8.94,5.48-1.65-2.68Z"/><path d="M1458.93,293.65a12,12,0,0,1-3.47-3.73c-2.74-4.47-1.5-9.27,3-12.05s9.83-1.74,12.8,3.12a10.17,10.17,0,0,1,1.51,4.23l-2.44.67a7.69,7.69,0,0,0-1.22-3.59c-2.08-3.38-5.75-3.69-8.83-1.79-3.44,2.11-4.2,5.62-2.38,8.58a9.18,9.18,0,0,0,2.73,2.86Z"/><path d="M1460.34,297.16l14.84-9.1,1.65,2.69-14.84,9.1Zm20.89-8.65a1.91,1.91,0,0,1-2.73-.69,1.89,1.89,0,0,1,.67-2.66,1.92,1.92,0,0,1,2.71.65A1.9,1.9,0,0,1,1481.23,288.51Z"/><path d="M1467.26,302.29a8.77,8.77,0,0,0,1.14,4.22c1.21,2,2.74,2.29,4,1.53s1.5-2,1-4.42c-.68-3.28,0-5.44,1.79-6.52,2.39-1.47,5.54-.73,7.49,2.46a8.38,8.38,0,0,1,1.32,4.2l-2.37.53a6.83,6.83,0,0,0-1-3.58c-1-1.59-2.42-1.9-3.54-1.21s-1.24,2-.8,4.37c.61,3.14.14,5.26-2.08,6.63-2.63,1.61-5.72.69-7.87-2.81a9.85,9.85,0,0,1-1.52-4.81Z"/><path d="M1479.21,326.74a12,12,0,0,1-3.47-3.73c-2.74-4.47-1.49-9.27,3-12.05s9.82-1.73,12.8,3.12a10.3,10.3,0,0,1,1.51,4.24l-2.44.67a7.84,7.84,0,0,0-1.23-3.6c-2.07-3.38-5.75-3.68-8.83-1.79-3.43,2.11-4.19,5.62-2.38,8.58A9.19,9.19,0,0,0,1481,325Z"/><path d="M1496.31,338.87c-5.49,3.37-10.23,1-12.42-2.54-2.47-4-1.44-8.93,3.27-11.82,5-3,9.87-1.56,12.39,2.55S1500.83,336.1,1496.31,338.87Zm-7.38-11.66c-3.26,2-4.57,5.36-3,8s5.19,3,8.56,1c2.51-1.54,4.91-4.75,2.94-8S1491.74,325.48,1488.93,327.21Z"/><path d="M1505.48,368.71a21.89,21.89,0,0,1-5-5.66c-1.92-3.14-2.71-6.21-2-9.41a12.34,12.34,0,0,1,5.91-7.58c6.18-3.78,13.29-2.3,17.54,4.63a15.12,15.12,0,0,1,2.22,5.75l-2.58.67a12.42,12.42,0,0,0-1.92-5.11c-3.08-5-8.22-6.4-13.4-3.22s-6.41,8.26-3.45,13.1a10.05,10.05,0,0,0,2.74,3.21l6.16-3.78-2.57-4.19,2.14-1.31,4.18,6.82Z"/><path d="M1507,373.32l14.84-9.1,1.65,2.68-14.84,9.1Zm20.89-8.66a1.9,1.9,0,0,1-2.73-.69,1.88,1.88,0,0,1,.67-2.65,1.93,1.93,0,0,1,2.71.64A1.9,1.9,0,0,1,1527.91,364.66Z"/><path d="M1533.21,367.13l1.64,2.69-21.78,13.36-1.65-2.69Z"/><path d="M1549.49,393.7l-18,11c-1.32.81-2.77,1.77-3.75,2.47l-1.47-2.4,2.48-1.71,0-.07a6.36,6.36,0,0,1-6-3.26c-2.21-3.59-.87-8.23,3.63-11,4.95-3.06,9.85-1.83,12.07,1.78a5.85,5.85,0,0,1,.49,5.86l0,.06,8.86-5.44ZM1534.86,399a6.48,6.48,0,0,0,1.09-.82,4.68,4.68,0,0,0,.7-5.81c-1.71-2.79-5.18-3-8.44-1-3,1.85-4.6,4.88-2.82,7.79a4.78,4.78,0,0,0,5.66,2,5.11,5.11,0,0,0,1.24-.58Z"/><path d="M1538.33,408.83c-3.62,2.29-3.7,5.53-2,8.24a11.55,11.55,0,0,0,3.28,3.64l-1.63,1.65a14.06,14.06,0,0,1-4-4.37c-2.79-4.56-1.44-9.17,3-11.9s9.64-2.26,12.29,2.08c3,4.84-.5,8.71-3.23,10.38a7.79,7.79,0,0,1-1.32.69Zm6.78,6.71c1.72-1,3.94-3.38,2.09-6.4-1.69-2.76-4.9-2.41-6.91-1.47Z"/><path d="M1552.48,432.89l-7.81,1.85L1543,432l25-5.65,2,3.22-16.35,19.74-1.75-2.86,5.14-6.2Zm6.26,5.51,4.69-5.69c1.08-1.28,2.12-2.35,3.12-3.38l0-.07c-1.39.44-2.85.89-4.37,1.26l-7.23,1.63Z"/><path d="M1565.56,445.88c1.75-1.08,3.22-2,4.54-3l1.45,2.37-2.84,1.88,0,.1a5.3,5.3,0,0,1,5.79,2.14,3.4,3.4,0,0,1,.38.8l-2.54,1.55a4.76,4.76,0,0,0-.48-1c-1.17-1.91-3.43-2.37-5.67-1.5a8.29,8.29,0,0,0-1.33.67l-7.92,4.86-1.65-2.69Z"/><path d="M1566.44,470.25l1.73-1.39-.05-.08a6.49,6.49,0,0,1-5-3.18,5,5,0,0,1,1.48-7.15c3.6-2.2,7.52-.23,11,5.53l.32-.19c1.2-.74,3.23-2.45,1.35-5.48a8.56,8.56,0,0,0-3.48-3.19l1.42-1.71a10.86,10.86,0,0,1,4.3,4.1c2.78,4.54.36,7.55-2.61,9.37l-5.55,3.4a27.78,27.78,0,0,0-3.42,2.4Zm7.32-5.07c-1.73-3-4.3-6-7.17-4.22a2.79,2.79,0,0,0-1,4.11,4.36,4.36,0,0,0,4.7,2.09,3.42,3.42,0,0,0,.93-.39Z"/><path d="M1582.14,486.74c-1.56,1-2.86,1.82-4,2.61l-1.46-2.38,2.34-1.63,0-.08a6.5,6.5,0,0,1-5.77-3.21c-1.43-2.33-1.83-5.91,3.37-9.1l8.67-5.32,1.65,2.68-8.2,5c-2.83,1.73-4.21,3.8-2.72,6.23a4.6,4.6,0,0,0,4.67,2.05,4.76,4.76,0,0,0,1.53-.6l9.09-5.57,1.65,2.68Zm16.09-12.39-6.69-1.05-1.18-1.92h6.05Z"/><path d="M1574.32,492.74a5,5,0,0,0,3,2.24c1.29.23,2.65-.19,6.21-2.38l12.41-7.61,1.65,2.69-13.45,8.25c-2.89,1.77-5,2.45-7.21,2a8,8,0,0,1-4.5-3.57Zm27.61-7.31a2,2,0,1,1-2-3.35,1.94,1.94,0,0,1,2.73.67A1.89,1.89,0,0,1,1601.93,485.43Z"/><path d="M1601.21,510c-5.5,3.37-10.24,1-12.43-2.54-2.47-4-1.44-8.93,3.27-11.82,5-3,9.87-1.56,12.39,2.55S1605.73,507.22,1601.21,510Zm-7.39-11.66c-3.26,2-4.56,5.36-3,8s5.19,3,8.56,1c2.51-1.54,4.91-4.75,2.94-8S1596.63,496.6,1593.82,498.33Z"/><path d="M902.07,731.69a33.42,33.42,0,0,1,6-.5c3.33,0,5.52.65,7,2a6.08,6.08,0,0,1,1.88,4.62,6.39,6.39,0,0,1-4.59,6.16v.09c1.85.66,3,2.41,3.54,4.93a41.13,41.13,0,0,0,1.84,6.66h-3.25a31.69,31.69,0,0,1-1.57-5.81c-.71-3.33-2-4.62-4.86-4.72h-3l0,10.51H902Zm3.1,11,3.2,0c3.35,0,5.48-1.81,5.49-4.59,0-3.15-2.25-4.53-5.56-4.55a13.58,13.58,0,0,0-3.1.27Z"/><path d="M935.81,751c0,1.82.05,3.38.13,4.76h-2.8l-.16-2.84h-.09a6.52,6.52,0,0,1-5.77,3.22c-2.73,0-6-1.55-6-7.65l0-10.18h3.15l0,9.62c0,3.32,1,5.58,3.87,5.59a4.6,4.6,0,0,0,4.2-2.89,4.73,4.73,0,0,0,.29-1.62l0-10.67h3.15Z"/><path d="M950.71,755.78l-.27-2.2h-.1a6.51,6.51,0,0,1-5.33,2.58,5,5,0,0,1-5.3-5c0-4.21,3.76-6.52,10.48-6.45v-.37c0-1.41-.38-4-4-4a8.54,8.54,0,0,0-4.54,1.29l-.71-2.11a10.91,10.91,0,0,1,5.75-1.51c5.32,0,6.61,3.66,6.6,7.15l0,6.51a26.86,26.86,0,0,0,.24,4.17Zm-.46-8.89c-3.43-.09-7.35.52-7.37,3.88a2.79,2.79,0,0,0,3,3,4.35,4.35,0,0,0,4.25-2.9,3.24,3.24,0,0,0,.16-1Z"/><path d="M984.65,754.8a21.86,21.86,0,0,1-7.46,1.31c-3.68,0-6.71-1-9.06-3.24a12.34,12.34,0,0,1-3.34-9c0-7.23,5-12.51,13.15-12.49A15.26,15.26,0,0,1,984,732.5l-.79,2.55a12.44,12.44,0,0,0-5.36-1.06c-5.88,0-9.76,3.63-9.78,9.71s3.66,9.8,9.34,9.82a10,10,0,0,0,4.16-.64l0-7.23H976.7v-2.51l8,0Z"/><path d="M1005.28,747.09c0,6.45-4.51,9.25-8.69,9.24-4.72,0-8.36-3.47-8.34-9,0-5.82,3.86-9.22,8.68-9.2C1001.93,738.14,1005.3,741.79,1005.28,747.09Zm-13.81.15c0,3.82,2.17,6.7,5.26,6.72s5.31-2.82,5.33-6.77c0-3-1.47-6.68-5.23-6.69S991.49,743.94,991.47,747.24Z"/><path d="M1009.32,743.17c0-1.82-.09-3.26-.19-4.7l2.8,0,.2,2.86h.09A6.42,6.42,0,0,1,1018,738c2.39,0,6.14,1.38,6.2,7.36l.1,10.38-3.15,0-.1-10c0-2.82-1.11-5.17-4.07-5.14a4.55,4.55,0,0,0-4.23,3.29,5,5,0,0,0-.21,1.47l.1,10.49-3.15,0Z"/><path d="M1041.84,754.94a11.89,11.89,0,0,1-5,1.06c-5.25,0-8.72-3.49-8.77-8.82s3.58-9.31,9.27-9.36a10.28,10.28,0,0,1,4.41.88l-.68,2.44a7.62,7.62,0,0,0-3.71-.8c-4,0-6.12,3-6.08,6.65,0,4,2.65,6.49,6.12,6.46a9.15,9.15,0,0,0,3.87-.88Zm-4.27.59-1.16,1.9a2.67,2.67,0,0,1,2.54,2.46c0,2.12-1.72,2.93-3.73,3a4.92,4.92,0,0,1-2.45-.61l.52-1.54a4,4,0,0,0,2,.51c.79,0,1.55-.3,1.53-1.15s-1.12-1.35-2.82-1.48l1.67-3Z"/><path d="M1055.23,755.45l-.3-2.19h-.09a6.5,6.5,0,0,1-5.3,2.64,5,5,0,0,1-5.37-4.95c0-4.21,3.68-6.56,10.4-6.58V744c0-1.41-.44-4-4-4a8.55,8.55,0,0,0-4.52,1.34l-.74-2.09a11,11,0,0,1,5.73-1.59c5.32,0,6.65,3.58,6.69,7.07l.06,6.51a26.2,26.2,0,0,0,.3,4.16Zm-.57-8.88c-3.43,0-7.35.61-7.32,4a2.8,2.8,0,0,0,3,3,4.35,4.35,0,0,0,4.21-3,3.22,3.22,0,0,0,.15-1Z"/><path d="M1062.69,729.83l3.15,0,.24,25.55-3.15,0Z"/><path d="M1072.82,737.84l3.22,9.83c.55,1.63,1,3.07,1.33,4.53h.1c.43-1.44,1-2.88,1.55-4.47l3.6-9.69,3.31.07-7.2,17.27-3-.06-6.28-17.55Z"/><path d="M1090,747.45c0,4.28,2.71,6.08,5.89,6.12a11.62,11.62,0,0,0,4.83-.84l.53,2.26a14.14,14.14,0,0,1-5.82,1c-5.35-.06-8.52-3.67-8.46-8.89s3.22-9.36,8.3-9.3c5.68.07,7.11,5.07,7.07,8.28a7.36,7.36,0,0,1-.13,1.48Zm9.3-2.16c0-2-.76-5.14-4.31-5.18-3.23,0-4.64,2.87-4.92,5.07Z"/><path d="M1105.61,752.51a8.65,8.65,0,0,0,4.21,1.22c2.31,0,3.37-1.16,3.37-2.61s-.94-2.32-3.26-3.17c-3.15-1.12-4.65-2.83-4.65-4.91,0-2.81,2.25-5.12,6-5.14a8.35,8.35,0,0,1,4.27,1.05l-.77,2.3a6.89,6.89,0,0,0-3.58-1c-1.86,0-2.87,1.09-2.87,2.4s1,2.08,3.32,3c3,1.1,4.58,2.61,4.6,5.21,0,3.08-2.37,5.26-6.48,5.28a9.86,9.86,0,0,1-4.9-1.19Z"/><path d="M1144.73,753.92a15.54,15.54,0,0,1-6.35,1.43c-6.83.3-12.14-3.8-12.49-11.75-.33-7.61,4.57-13,12.1-13.27a13.15,13.15,0,0,1,5.8.81l-.66,2.58a11.53,11.53,0,0,0-4.92-.78c-5.7.25-9.3,4-9,10.41.26,5.93,3.84,9.57,9.71,9.32a12.83,12.83,0,0,0,5.09-1.22Z"/><path d="M1157.86,753.83l-.43-2.18h-.09a6.47,6.47,0,0,1-5.15,2.93,5,5,0,0,1-5.63-4.64c-.27-4.2,3.31-6.76,10-7.15l0-.37c-.09-1.41-.66-4-4.22-3.75a8.56,8.56,0,0,0-4.44,1.59l-.85-2a11,11,0,0,1,5.63-1.9c5.31-.34,6.84,3.2,7.07,6.68l.42,6.5a26.55,26.55,0,0,0,.54,4.14Zm-1.07-8.84c-3.43.15-7.3,1-7.08,4.38a2.78,2.78,0,0,0,3.14,2.83,4.36,4.36,0,0,0,4.05-3.18,3.25,3.25,0,0,0,.08-1Z"/><path d="M1164.79,750.11a8.61,8.61,0,0,0,4.28.92c2.3-.17,3.28-1.39,3.18-2.84s-1.1-2.24-3.47-2.93c-3.22-.9-4.84-2.5-5-4.58-.21-2.8,1.89-5.26,5.63-5.54a8.3,8.3,0,0,1,4.33.75l-.61,2.35a6.85,6.85,0,0,0-3.64-.76c-1.86.15-2.79,1.3-2.7,2.61s1.18,2,3.52,2.71c3.08.89,4.75,2.28,5,4.87.23,3.08-2,5.41-6.1,5.72a9.82,9.82,0,0,1-5-.84Z"/><path d="M1181.55,729.53l.42,5,4.53-.39.2,2.4-4.53.38.79,9.35c.18,2.16.9,3.33,2.67,3.18a6.49,6.49,0,0,0,1.81-.38l.34,2.38a8,8,0,0,1-2.78.67,4.43,4.43,0,0,1-3.52-1c-1-.88-1.43-2.38-1.6-4.42l-.8-9.47-2.69.22-.2-2.39,2.69-.22-.35-4.18Z"/><path d="M1192.29,743c.45,4.25,3.32,5.76,6.48,5.47a11.59,11.59,0,0,0,4.72-1.32l.76,2.18a13.93,13.93,0,0,1-5.68,1.64c-5.33.49-8.86-2.77-9.33-8s2.24-9.64,7.3-10.1c5.65-.52,7.59,4.31,7.88,7.5a8.64,8.64,0,0,1,0,1.49Zm9-3.11c-.15-2-1.28-5-4.82-4.71-3.21.3-4.32,3.33-4.37,5.55Z"/><path d="M1206.75,724.1l3.13-.3,2.46,25.43-3.13.31Z"/><path d="M1227.22,747.75l-.5-2.16h-.09a6.47,6.47,0,0,1-5,3.12,5,5,0,0,1-5.79-4.44c-.42-4.19,3.06-6.87,9.76-7.5l0-.37c-.14-1.41-.8-4-4.35-3.6a8.5,8.5,0,0,0-4.38,1.75l-.92-2a10.91,10.91,0,0,1,5.56-2.1c5.29-.53,7,2.95,7.3,6.42l.65,6.48a27.87,27.87,0,0,0,.68,4.12Zm-10.16-19.49c-.3-2.33.53-3.83,2.06-4a4.74,4.74,0,0,1,2.31.57,3.82,3.82,0,0,0,1.57.46c.56-.06.87-.42.83-1.62l1.68-.17c.28,2.37-.4,3.69-2.08,3.86a4.61,4.61,0,0,1-2.27-.53,3.59,3.59,0,0,0-1.6-.47c-.57.06-.81.7-.78,1.71Zm8.78,10.7c-3.42.27-7.26,1.27-6.92,4.62a2.79,2.79,0,0,0,3.25,2.72,4.36,4.36,0,0,0,3.93-3.33,3.41,3.41,0,0,0,0-1Z"/><path d="M1249.59,736.47c.68,6.41-3.47,9.69-7.63,10.14-4.69.5-8.69-2.54-9.27-8-.62-5.79,2.83-9.58,7.62-10.09C1245.29,728,1249,731.2,1249.59,736.47Zm-13.71,1.67c.41,3.79,2.89,6.42,6,6.09s5-3.38,4.56-7.31c-.32-2.93-2.19-6.47-5.93-6.07S1235.53,734.85,1235.88,738.14Z"/><path d="M703.94,42.81a33.67,33.67,0,0,1,6-.57c3.32,0,5.52.59,7,1.94a6.06,6.06,0,0,1,1.94,4.6A6.41,6.41,0,0,1,714.42,55v.09c1.86.63,3,2.37,3.6,4.88a40.31,40.31,0,0,0,1.92,6.65l-3.25,0a32,32,0,0,1-1.64-5.79c-.75-3.32-2.07-4.6-4.91-4.67l-3,0,.08,10.51-3.13,0Zm3.22,11,3.2,0c3.35,0,5.46-1.87,5.44-4.65,0-3.16-2.3-4.51-5.61-4.49a14.27,14.27,0,0,0-3.1.3Z"/><path d="M737.9,61.71c0,1.83.09,3.39.18,4.76l-2.8,0-.19-2.85H735a6.49,6.49,0,0,1-5.73,3.29c-2.73,0-6-1.48-6.06-7.59l-.07-10.17,3.15,0,.07,9.61c0,3.32,1.08,5.57,3.93,5.55a4.61,4.61,0,0,0,4.17-2.94,5,5,0,0,0,.28-1.63l-.09-10.66,3.15,0Z"/><path d="M752.86,66.36l-.29-2.2h-.1a6.47,6.47,0,0,1-5.3,2.63,5,5,0,0,1-5.36-4.95c0-4.22,3.69-6.56,10.41-6.57v-.37c0-1.41-.43-4-4-4a8.42,8.42,0,0,0-4.53,1.33l-.73-2.1a10.86,10.86,0,0,1,5.73-1.57c5.32,0,6.65,3.59,6.67,7.07l0,6.52a27.54,27.54,0,0,0,.3,4.16Zm-.56-8.88c-3.42,0-7.34.6-7.32,4a2.79,2.79,0,0,0,3,3,4.35,4.35,0,0,0,4.22-3,3.28,3.28,0,0,0,.15-1Z"/><path d="M768.13,42l13.06-.09,0,2.61-9.91.07.05,8.08,9.17-.07,0,2.6-9.17.06.08,11-3.15,0Z"/><path d="M784.71,54.14c0-2.06-.08-3.81-.19-5.42l2.78,0,.14,3.41h.12a5.29,5.29,0,0,1,4.82-3.85,3.5,3.5,0,0,1,.88.09l0,3a5.67,5.67,0,0,0-1.08-.08c-2.23,0-3.79,1.71-4.21,4.08a7.81,7.81,0,0,0-.11,1.48l.06,9.3-3.15,0Z"/><path d="M797.94,57.9c.09,4.28,2.82,6,6,6a11.7,11.7,0,0,0,4.82-.92l.57,2.24a14.08,14.08,0,0,1-5.8,1.15c-5.35,0-8.59-3.51-8.63-8.73s3.05-9.41,8.13-9.45c5.68,0,7.2,4.93,7.22,8.14a7.07,7.07,0,0,1-.1,1.48Zm9.25-2.34c0-2-.86-5.12-4.41-5.1-3.23,0-4.58,2.95-4.82,5.16Z"/><path d="M817.64,43.57a2,2,0,1,1-3.93,0,1.94,1.94,0,0,1,2-2A1.9,1.9,0,0,1,817.64,43.57Zm-3.4,22.35-.11-17.41,3.15,0,.11,17.41Z"/><path d="M848.83,64.74a22,22,0,0,1-7.46,1.33c-3.67,0-6.71-.93-9.07-3.21a12.42,12.42,0,0,1-3.36-9c0-7.24,5-12.53,13.12-12.52a15.38,15.38,0,0,1,6.07,1.11L847.35,45A12.46,12.46,0,0,0,842,44c-5.89,0-9.75,3.66-9.75,9.74s3.68,9.79,9.35,9.79a10,10,0,0,0,4.17-.65V55.6h-4.91V53.09h8Z"/><path d="M853.66,53.91c0-2,0-3.81-.07-5.42l2.77,0,.08,3.42h.11a5.28,5.28,0,0,1,4.9-3.74,3.08,3.08,0,0,1,.88.1l0,3a4.84,4.84,0,0,0-1.08-.1c-2.23,0-3.83,1.63-4.29,4a8.55,8.55,0,0,0-.14,1.48l-.13,9.3-3.15,0Z"/><path d="M866.85,58c-.06,4.28,2.61,6.11,5.79,6.2a11.78,11.78,0,0,0,4.84-.76l.5,2.26a13.89,13.89,0,0,1-5.84.95c-5.35-.14-8.47-3.79-8.33-9s3.36-9.31,8.44-9.17c5.68.15,7,5.17,7,8.37a8,8,0,0,1-.15,1.49Zm9.32-2c.08-2-.68-5.14-4.23-5.24-3.23-.09-4.68,2.8-5,5Z"/><path d="M898.5,49.79c-.13,1.23-.25,2.64-.33,4.76l-.4,10.1c-.17,4-1.08,6.4-2.81,7.86a9.33,9.33,0,0,1-6.42,1.83,11.19,11.19,0,0,1-5.75-1.66l.89-2.4a9.9,9.9,0,0,0,5.07,1.6c3.23.12,5.67-1.47,5.84-5.88l.08-1.93h-.07A6.16,6.16,0,0,1,889,66.77c-4.34-.17-7.27-4-7.08-8.8.23-5.9,4.2-9.07,8.22-8.91a5.79,5.79,0,0,1,5.31,3.22h.07l.23-2.6Zm-3.56,6.71a5,5,0,0,0-.12-1.42,4.56,4.56,0,0,0-4.31-3.54c-3-.12-5.28,2.34-5.44,6.38-.14,3.41,1.51,6.34,4.9,6.48a4.66,4.66,0,0,0,4.53-3.09,5.82,5.82,0,0,0,.32-1.67Z"/><path d="M919,59.21c-.27,6.44-4.86,9.07-9,8.9-4.71-.2-8.22-3.79-8-9.31.25-5.82,4.21-9.07,9-8.87C916,50.14,919.21,53.91,919,59.21Zm-13.8-.37c-.16,3.81,1.91,6.77,5,6.9s5.42-2.61,5.58-6.56c.13-2.94-1.2-6.72-5-6.88S905.32,55.54,905.19,58.84ZM915.87,43l-4.6,5L909,47.85l3.37-5Z"/><path d="M923.07,56.25c.08-2,.1-3.8.07-5.42l2.78.11,0,3.42H926a5.3,5.3,0,0,1,5-3.62,3.79,3.79,0,0,1,.87.13l-.11,3a5.32,5.32,0,0,0-1.08-.13c-2.23-.09-3.87,1.53-4.39,3.88a8.3,8.3,0,0,0-.19,1.47l-.36,9.29-3.15-.12Z"/><path d="M934.49,68.69l.67-17.4,3.15.12-.67,17.4Zm4.39-22.18a1.91,1.91,0,0,1-2.09,1.89,1.89,1.89,0,0,1-1.83-2,1.93,1.93,0,0,1,2-1.9A1.9,1.9,0,0,1,938.88,46.51Z"/><path d="M959,60.72c-.24,6.44-4.81,9.1-9,9-4.72-.17-8.23-3.75-8-9.27.21-5.82,4.16-9.09,9-8.91C955.93,51.67,959.17,55.42,959,60.72Zm-13.81-.3c-.14,3.82,1.94,6.77,5,6.88s5.41-2.64,5.55-6.59c.11-2.94-1.24-6.72-5-6.86S945.29,57.12,945.17,60.42Z"/><path d="M986.12,44.92,985.44,66c-.05,1.55,0,3.29,0,4.49l-2.81-.09-.06-3h-.09a6.37,6.37,0,0,1-6,3.22c-4.22-.14-7.35-3.81-7.18-9.08.16-5.82,3.88-9.24,8.12-9.1a5.79,5.79,0,0,1,5.16,2.81h.07L983,44.82Zm-3.63,15.13a6.91,6.91,0,0,0-.09-1.36,4.7,4.7,0,0,0-4.47-3.79c-3.28-.11-5.33,2.7-5.45,6.53-.12,3.53,1.55,6.52,5,6.63a4.78,4.78,0,0,0,4.75-3.65,5.55,5.55,0,0,0,.2-1.35Z"/><path d="M992.56,62.55c-.06,4.28,2.61,6.12,5.78,6.22a11.66,11.66,0,0,0,4.85-.76l.49,2.27a14.13,14.13,0,0,1-5.84.94c-5.35-.15-8.46-3.81-8.31-9s3.38-9.3,8.46-9.15c5.68.16,7,5.18,6.93,8.39a7.78,7.78,0,0,1-.16,1.48Zm9.33-2c.09-2-.67-5.14-4.22-5.24-3.23-.1-4.69,2.78-5,5Z"/><path d="M1036.94,61.12c-.12-3.37-.26-7.47-.18-10.47h-.09c-.9,2.8-2,5.83-3.25,9.13l-4.52,11.69-2.36,0-3.72-11.64c-1.09-3.45-2-6.58-2.59-9.47h-.08c-.15,3-.39,7.06-.7,10.7l-.85,10.4-3-.06,2.18-24.23,4,.08L1025.7,59c.93,3,1.7,5.68,2.27,8.22h.1c.68-2.44,1.59-5.1,2.73-8.11l4.57-11.66,4,.08,1,24.29-3.08-.06Z"/><path d="M1054.88,72l-.27-2.2h-.09a6.48,6.48,0,0,1-5.35,2.56,5,5,0,0,1-5.28-5c0-4.22,3.78-6.51,10.5-6.42v-.37c0-1.41-.37-4-3.93-4a8.48,8.48,0,0,0-4.55,1.27l-.7-2.11a11,11,0,0,1,5.75-1.49c5.32,0,6.6,3.68,6.58,7.17l0,6.51a26.93,26.93,0,0,0,.23,4.17Zm-.44-8.89c-3.43-.1-7.35.49-7.37,3.86a2.78,2.78,0,0,0,2.93,3,4.35,4.35,0,0,0,4.26-2.89,3,3,0,0,0,.16-1Z"/><path d="M1077.36,54.43c-.08,1.23-.13,2.64-.11,4.76l.09,10.11c0,4-.76,6.45-2.41,8a9.35,9.35,0,0,1-6.33,2.15,11.2,11.2,0,0,1-5.82-1.38l.77-2.44a9.85,9.85,0,0,0,5.14,1.34c3.23,0,5.59-1.74,5.55-6.15l0-1.94h-.07a6.18,6.18,0,0,1-5.51,3c-4.34,0-7.45-3.63-7.49-8.45-.06-5.91,3.75-9.27,7.77-9.3a5.78,5.78,0,0,1,5.46,3h.07l.11-2.61Zm-3.24,6.88a4.52,4.52,0,0,0-.19-1.42,4.57,4.57,0,0,0-4.47-3.33c-3,0-5.16,2.6-5.13,6.65,0,3.4,1.82,6.25,5.21,6.22a4.64,4.64,0,0,0,4.38-3.3,5.61,5.61,0,0,0,.23-1.69Z"/><path d="M1092.16,71.47l-.34-2.19h-.09a6.5,6.5,0,0,1-5.26,2.74,5,5,0,0,1-5.45-4.84c-.12-4.22,3.55-6.64,10.28-6.78V60c0-1.41-.51-4-4.08-3.9a8.51,8.51,0,0,0-4.5,1.42l-.77-2.08a10.9,10.9,0,0,1,5.7-1.69c5.32-.15,6.72,3.45,6.81,6.94l.19,6.51a28.21,28.21,0,0,0,.37,4.16Zm-.74-8.88c-3.43,0-7.33.75-7.24,4.12a2.78,2.78,0,0,0,3,2.94,4.34,4.34,0,0,0,4.16-3,3.25,3.25,0,0,0,.12-1Z"/><path d="M1098.66,45.64l3.15-.13,1.1,25.53-3.15.14Z"/><path d="M1106.91,45.25l3.14-.15L1110.6,56h.07a6.17,6.17,0,0,1,2.17-2.35,6.36,6.36,0,0,1,3.19-1c2.34-.12,6.13,1.12,6.43,7.12L1123,70l-3.15.16-.51-10c-.14-2.8-1.32-5.11-4.27-5a4.62,4.62,0,0,0-4.11,3.37,4.31,4.31,0,0,0-.14,1.52l.53,10.51-3.14.16Z"/><path d="M1137.91,68.88l-.42-2.17h-.11a6.51,6.51,0,0,1-5.11,3,5,5,0,0,1-5.7-4.58c-.32-4.2,3.23-6.78,9.94-7.26l0-.36c-.11-1.44-.71-4-4.26-3.72a8.7,8.7,0,0,0-4.42,1.64l-.88-2a10.73,10.73,0,0,1,5.58-2c5.32-.41,6.89,3.12,7.16,6.6l.5,6.49a24.67,24.67,0,0,0,.61,4.15Zm-9.69-19.72c-.25-2.33.61-3.81,2.15-3.92a4.36,4.36,0,0,1,2.29.61,3.64,3.64,0,0,0,1.55.5c.58-.05.88-.4.89-1.63l1.65-.12c.26,2.4-.47,3.68-2.16,3.81a4.71,4.71,0,0,1-2.24-.55,3.18,3.18,0,0,0-1.6-.52c-.57,0-.81.67-.8,1.68Zm8.54,10.89c-3.46.19-7.32,1.11-7.06,4.48a2.8,2.8,0,0,0,3.21,2.78,4.34,4.34,0,0,0,4-3.23,3.54,3.54,0,0,0,.1-1Z"/><path d="M1146.7,60c.41,4.27,3.28,5.81,6.44,5.55a11.45,11.45,0,0,0,4.74-1.28l.71,2.22a14.06,14.06,0,0,1-5.69,1.54c-5.35.43-8.82-2.83-9.24-8.07s2.34-9.62,7.4-10c5.67-.46,7.57,4.41,7.83,7.61a12.31,12.31,0,0,1,0,1.48Zm9.08-3c-.13-2-1.24-5.07-4.79-4.78-3.2.25-4.36,3.31-4.44,5.52Z"/><path d="M1162.87,63.63a8.26,8.26,0,0,0,4.27.92c2.3-.19,3.28-1.42,3.16-2.86s-1.08-2.26-3.49-2.93c-3.21-.86-4.82-2.46-5-4.54-.23-2.8,1.85-5.28,5.58-5.59a8.8,8.8,0,0,1,4.36.73l-.6,2.36a6.87,6.87,0,0,0-3.64-.71c-1.87.15-2.82,1.31-2.71,2.6s1.21,2,3.54,2.68c3.11.9,4.77,2.28,5,4.87.25,3-1.95,5.39-6.07,5.73a10,10,0,0,1-5-.79Z"/><line class="cls-2" x1="669.21" y1="591.46" x2="719.47" y2="591.1"/><line class="cls-2" x1="640.33" y1="627.65" x2="692.6" y2="627.52"/><line class="cls-2" x1="655.52" y1="609.19" x2="708.93" y2="609.19"/><line class="cls-2" x1="662.66" y1="600.07" x2="715" y2="599.71"/><line class="cls-2" x1="646.66" y1="618.07" x2="701" y2="617.71"/><path class="cls-3" d="M419.61,53.66l-26-38.56L62,2.15,88,40.72"/><path d="M204.53,30.1l-7.26-.29-.15,3.73,8.12.32-.17,4.42-13.53-.53.79-20.21,13.11.51-.17,4.43-7.7-.31-.13,3.27,7.27.28Z"/><path d="M208.34,33.86a9.67,9.67,0,0,0,4,1.28c1.14,0,1.61-.19,1.63-.74s-.31-.79-1.87-1.36c-3.2-1.15-4.24-3-4.15-4.67.12-2.94,2.71-5,6.58-4.83a11.11,11.11,0,0,1,4.35,1l-1,3.64a8.28,8.28,0,0,0-3.23-.95c-.93,0-1.48.19-1.51.77s.44.81,2.17,1.45c2.87,1.06,3.92,2.61,3.86,4.74-.11,2.82-2.39,4.84-6.93,4.66a11.63,11.63,0,0,1-5-1.23Z"/><path d="M232.87,39.06a10.85,10.85,0,0,1-4.07.46c-4.91-.19-7.88-3.18-7.7-7.87.17-4.21,3.19-7.71,9-7.49a11.79,11.79,0,0,1,3.38.63l-.92,3.95a6.37,6.37,0,0,0-2.31-.46,3.28,3.28,0,0,0-3.57,3.39,3.35,3.35,0,0,0,3.43,3.7,6.51,6.51,0,0,0,2.38-.29Z"/><path d="M243.75,39.79l-.23-1.31h-.11a5.16,5.16,0,0,1-4.15,1.46,4.63,4.63,0,0,1-4.7-4.82c.16-4,3.78-5.58,8.8-5.39v-.14c0-.6-.41-1.27-2.37-1.35a9.12,9.12,0,0,0-4.2.94L236,25.72a13.16,13.16,0,0,1,6.15-1.1c5.08.2,6.72,3.09,6.57,6.77l-.19,5a20.22,20.22,0,0,0,.1,3.6ZM243.4,33c-2.2-.08-3.47.48-3.52,1.76a1.36,1.36,0,0,0,1.47,1.49,2,2,0,0,0,1.9-1.29,3,3,0,0,0,.1-.76Z"/><path d="M267.48,19.39,266.82,36c-.07,1.83-.08,3.69-.06,4.67L262,40.5l-.14-2h-.06a5,5,0,0,1-4.54,2.15c-3.44-.13-6.16-3.22-6-7.85.17-5,3.41-7.68,6.89-7.55a4.29,4.29,0,0,1,3.58,1.57h.06l.3-7.63Zm-5.92,12.7a4.11,4.11,0,0,0,0-.7,2.19,2.19,0,0,0-2.06-2c-1.81-.07-2.68,1.51-2.76,3.45-.09,2.26,1,3.48,2.47,3.54a2.14,2.14,0,0,0,2.18-1.68,4.4,4.4,0,0,0,.12-1Z"/><path d="M278.47,41.14l-.24-1.3h-.1A5.16,5.16,0,0,1,274,41.3a4.64,4.64,0,0,1-4.7-4.83c.16-3.95,3.78-5.58,8.79-5.39V31c0-.61-.41-1.28-2.37-1.36a9.16,9.16,0,0,0-4.21.94l-.81-3.46A13.41,13.41,0,0,1,276.85,26c5.08.19,6.72,3.09,6.57,6.77l-.19,5a20.18,20.18,0,0,0,.1,3.6Zm-6.14-16.87c0-2.79,1.16-4.26,2.8-4.19a3.88,3.88,0,0,1,2,.68,3.17,3.17,0,0,0,1.25.66c.5,0,.68-.25.82-1.33l2.39.09c0,3.09-1.14,4.18-2.8,4.11a4.19,4.19,0,0,1-2.14-.76c-.5-.3-.69-.49-1.06-.5s-.68.39-.77,1.34Zm5.79,10.11c-2.21-.08-3.47.48-3.53,1.77a1.36,1.36,0,0,0,1.48,1.48,2,2,0,0,0,1.9-1.29,2.9,2.9,0,0,0,.1-.75Z"/><path d="M301.76,34.52c-.21,5.36-4.14,7.7-8.27,7.54-4.41-.17-7.73-3.11-7.54-7.91s3.4-7.69,8.42-7.49C299,26.84,301.93,30.08,301.76,34.52Zm-10.23-.26c-.09,2.21.57,3.92,2.25,4,1.45.06,2.3-1.44,2.4-3.81.08-2-.51-3.91-2.11-4C292.29,30.4,291.6,32.33,291.53,34.26Z"/></g></g></svg>