<svg xmlns="http://www.w3.org/2000/svg" viewBox="0 0 1703.28 750.56"><defs><style>.cls-1{fill:#cfdcfa;}.cls-1,.cls-2,.cls-3{stroke:#000;stroke-miterlimit:10;}.cls-1,.cls-3{stroke-width:4px;}.cls-2{fill:#2aff3c;stroke-width:2px;}.cls-3{fill:#e6e6e6;}</style></defs><g id="Layer_2" data-name="Layer 2"><g id="Novo_Mapa" data-name="Novo Mapa"><path class="cls-1" d="M39.66,87.91a12.5,12.5,0,0,0-11.52,18L98.62,250.46c36.83,72,63.71,163.08,71.72,192,27.14,98,29.07,126,95,181,13.41,11.2,68.81,61,103.7,74s70.75,20,166.7,21c79.21.83,147.19-1.07,168.5-1.76a8.05,8.05,0,0,0,7.74-7.1l58.41-484a23,23,0,0,1,25.86-20.06h0A23,23,0,0,1,816.08,231l-55.37,473.9a8.08,8.08,0,0,0,8.57,9c65.07-4.47,148.06-20.36,171.75-25.09a9.57,9.57,0,0,0,7.6-7.94L1004,320.61a4.7,4.7,0,0,0-4.4-5.42l-9.17-.47a22,22,0,0,1-20.54-25.38h0a22,22,0,0,1,22.4-18.46l13,.44a5,5,0,0,0,5.12-4.13l1.41-7.77a23.25,23.25,0,0,1,23.89-19.07h0a23.25,23.25,0,0,1,22,26.21h0a4.52,4.52,0,0,0,4.31,5.09l463.17,17.81c39.62,0,113.2,6,131.06,8.21a8.76,8.76,0,0,0,9-4.92l58.1-205.21a8.79,8.79,0,0,0-7.6-12.58c-100.76-3.79-720.83-27.82-835-31.5C769.26,39.87,540.36,33,495.12,31.7a8.55,8.55,0,0,0-8.67,6.78C481.31,63.75,453.23,82,440.38,89.13A10.48,10.48,0,0,0,435,99.33c1.52,14.82.27,37.72-1,54.35a22.56,22.56,0,0,1-22.49,20.78h0A22.54,22.54,0,0,1,389,149.8a250,250,0,0,0,.5-44.92,10.51,10.51,0,0,0-10.24-9.62Z" transform="translate(-24.86 -5.94)"/><path class="cls-1" d="M1361.17,520a5.49,5.49,0,0,1,6-4.62c26.24,2.74,58.45,5.72,86.35,7.13,0,0,42.64,2,70.75,12,0,0,26.17,10,11.63,32l-49.43,68s-28.1,43-72.69,80c0,0-34.89,30-108.54,30,0,0-25.2,1-89.17-22l-89.16-30s-45.55-19-85.29-17l-36.9,2.39a7.65,7.65,0,0,1-8.05-8.81l54-348.37a4.83,4.83,0,0,1,4.91-4.08l189.13,6.6a8.67,8.67,0,0,1,8.39,9.4c-1.65,19.43-5.47,63.74-7,83.87,0,0-10.66,71,69.78,93,0,0,6.49.83,17.14,2.08a5.5,5.5,0,0,1,4.8,6.35l-10.6,64.8a12,12,0,0,0,10.81,13.85h0a12,12,0,0,0,12.81-10.09Z" transform="translate(-24.86 -5.94)"/><path class="cls-1" d="M1311.11,326.84a7.79,7.79,0,0,0-8.16,7.31l-5.34,79.31c-2.91,43,32.83,50,32.83,50,18.41,5,54.27,9,54.27,9,110.44,6,127,11,127,11,81.48,15,78.48,67,78.48,67v6L1647.68,354a7.5,7.5,0,0,0-5.89-10.11c-55.43-8.25-221.22-14.46-221.22-14.46Z" transform="translate(-24.86 -5.94)"/><path d="M737.22,600.44a32.55,32.55,0,0,1,.18-6.05c.38-3.3,1.27-5.4,2.8-6.75a6.08,6.08,0,0,1,4.8-1.35,6.42,6.42,0,0,1,5.61,5.26h.09c.85-1.76,2.72-2.67,5.29-3a40,40,0,0,0,6.83-1.07l-.38,3.22a32.11,32.11,0,0,1-6,.91c-3.39.33-4.82,1.48-5.24,4.29l-.35,2.95,10.45,1.22-.37,3.11Zm11.33-1.83.37-3.18c.39-3.33-1.18-5.65-3.94-6-3.13-.37-4.75,1.73-5.14,5a13.79,13.79,0,0,0-.09,3.11Z" transform="translate(-24.86 -5.94)"/><path d="M760.17,569.09c1.82.21,3.38.33,4.75.41l-.32,2.78-2.85-.16v.08a6.51,6.51,0,0,1,2.55,6.1c-.31,2.71-2.21,5.78-8.27,5.07l-10.11-1.18.37-3.13,9.55,1.12c3.29.38,5.66-.38,6-3.22a4.62,4.62,0,0,0-2.4-4.5,5,5,0,0,0-1.58-.47l-10.59-1.24.37-3.13Z" transform="translate(-24.86 -5.94)"/><path d="M766.64,554.83l-2.22,0v.1a6.46,6.46,0,0,1,2,5.59,5,5,0,0,1-5.58,4.7c-4.19-.49-6.06-4.47-5.23-11.15l-.36,0c-1.41-.16-4.06-.07-4.45,3.47a8.45,8.45,0,0,0,.76,4.66l-2.18.46a11,11,0,0,1-.84-5.88c.61-5.28,4.38-6.15,7.84-5.75l6.47.76A27,27,0,0,0,767,552Zm-8.89-.54c-.47,3.39-.31,7.36,3,7.75a2.79,2.79,0,0,0,3.35-2.58,4.37,4.37,0,0,0-2.4-4.56,3.05,3.05,0,0,0-1-.26Z" transform="translate(-24.86 -5.94)"/><path d="M764.59,539.44a11,11,0,0,0,2.21-5.38c.37-3.18-1.07-5.24-3.51-5.53-2.24-.26-3.71.89-5.3,4-1.86,3.77-4.21,6-7.58,5.57-3.75-.43-6.17-3.88-5.62-8.57a11,11,0,0,1,1.78-5.18l2.45,1.17a9.18,9.18,0,0,0-1.67,4.41c-.39,3.31,1.42,4.79,3.07,5,2.23.26,3.51-1.07,5.18-4.25,2.08-3.9,4.29-5.73,7.82-5.31,3.69.43,6.63,3.53,6,9.24a12.36,12.36,0,0,1-2.29,6Z" transform="translate(-24.86 -5.94)"/><path d="M771.61,512.26l-2.22,0v.1a6.47,6.47,0,0,1,2,5.59,5,5,0,0,1-5.58,4.7c-4.19-.49-6-4.47-5.22-11.14l-.37,0c-1.41-.16-4-.07-4.45,3.47a8.54,8.54,0,0,0,.76,4.66l-2.17.47a10.87,10.87,0,0,1-.85-5.89c.62-5.28,4.38-6.15,7.84-5.74l6.47.75a27,27,0,0,0,4.17.23Zm-8.89-.54c-.47,3.39-.31,7.36,3,7.75a2.79,2.79,0,0,0,3.36-2.58,4.35,4.35,0,0,0-2.41-4.55,3.37,3.37,0,0,0-1-.27Z" transform="translate(-24.86 -5.94)"/><path d="M759.88,503.14c-1.8-.21-3.24-.32-4.68-.4l.32-2.78,2.86.16V500a6.41,6.41,0,0,1-2.56-6.09c.27-2.38,2.14-5.93,8.08-5.23l10.31,1.2-.36,3.13-10-1.17c-2.8-.32-5.26.46-5.61,3.4a4.56,4.56,0,0,0,2.74,4.61,4.65,4.65,0,0,0,1.43.39l10.42,1.22-.37,3.13Z" transform="translate(-24.86 -5.94)"/><path d="M753,478.53l5,.58.53-4.52,2.38.28-.53,4.52,9.32,1.09c2.15.25,3.44-.23,3.65-2a6.42,6.42,0,0,0,0-1.85l2.41.13a8.15,8.15,0,0,1,.1,2.86,4.4,4.4,0,0,1-1.73,3.24c-1.05.75-2.62.93-4.65.69l-9.44-1.1-.31,2.68-2.39-.28.32-2.68-4.17-.49Z" transform="translate(-24.86 -5.94)"/><path d="M769.18,456.6c6.41.75,8.69,5.52,8.2,9.67-.55,4.69-4.39,7.92-9.88,7.27-5.78-.67-8.72-4.87-8.16-9.65C759.92,458.92,763.92,456,769.18,456.6Zm-1.4,13.73c3.79.45,6.9-1.39,7.26-4.46s-2.2-5.6-6.12-6.06c-2.93-.34-6.8.7-7.24,4.44S764.5,470,767.78,470.33Z" transform="translate(-24.86 -5.94)"/><path d="M772.24,441.18l7.28,3.37-.38,3.23-23.14-11,.44-3.74,25.06-5.41-.39,3.33-7.87,1.69Zm-1.51-8.2-7.21,1.57c-1.64.34-3.12.54-4.54.73v.08c1.36.51,2.79,1.06,4.21,1.71l6.7,3.19Z" transform="translate(-24.86 -5.94)"/><path d="M769.27,422.83c-1.81-.21-3.25-.32-4.69-.41l.32-2.77,2.87.15v-.08a6.43,6.43,0,0,1-2.57-6.1c.28-2.37,2.14-5.92,8.08-5.23l10.32,1.21-.37,3.12-10-1.16c-2.79-.33-5.26.45-5.6,3.4a4.55,4.55,0,0,0,2.73,4.61,5,5,0,0,0,1.43.39l10.42,1.21-.36,3.13Z" transform="translate(-24.86 -5.94)"/><path d="M762.36,398.2l5,.58.53-4.51,2.38.27-.53,4.52,9.32,1.09c2.16.25,3.45-.22,3.65-2a6.14,6.14,0,0,0,0-1.85l2.4.14a8.07,8.07,0,0,1,.11,2.86,4.42,4.42,0,0,1-1.73,3.23c-1.06.76-2.62.93-4.66.7l-9.44-1.11-.31,2.68-2.38-.28.31-2.68-4.16-.48Z" transform="translate(-24.86 -5.94)"/><path d="M761.72,381.83l5.52-2.83-.28,2.41-3.62,1.67v.08l3.14,2.46-.28,2.35-4.73-4Zm16.85-5.54c6.4.75,8.68,5.52,8.19,9.68-.54,4.69-4.39,7.91-9.87,7.27-5.79-.68-8.73-4.88-8.17-9.66C769.3,378.61,773.3,375.68,778.57,376.29ZM777.16,390c3.8.44,6.9-1.4,7.26-4.47s-2.2-5.59-6.12-6.05c-2.93-.34-6.8.7-7.23,4.43S773.88,389.64,777.16,390Z" transform="translate(-24.86 -5.94)"/><path d="M775.22,371.86c-1.8-.21-3.24-.32-4.69-.4l.33-2.78,2.86.16v-.09a6.44,6.44,0,0,1-2.57-6.09c.28-2.38,2.15-5.93,8.09-5.23l10.31,1.2-.37,3.13-10-1.17c-2.79-.32-5.25.46-5.6,3.4a4.56,4.56,0,0,0,2.73,4.61,4.8,4.8,0,0,0,1.44.39l10.42,1.22-.37,3.13Z" transform="translate(-24.86 -5.94)"/><path d="M768.39,347.38a1.91,1.91,0,0,1,1.72,2.23,1.88,1.88,0,0,1-2.17,1.67,1.92,1.92,0,0,1-1.73-2.18A1.89,1.89,0,0,1,768.39,347.38Zm21.77,6.11-17.29-2,.37-3.13,17.29,2Z" transform="translate(-24.86 -5.94)"/><path d="M784.15,328.45c6.41.75,8.69,5.52,8.2,9.67-.54,4.69-4.39,7.92-9.87,7.27-5.79-.67-8.73-4.87-8.17-9.66C774.89,330.76,778.89,327.83,784.15,328.45Zm-1.4,13.73c3.8.44,6.9-1.39,7.26-4.46s-2.2-5.6-6.12-6.06c-2.93-.34-6.8.7-7.23,4.44S779.47,341.8,782.75,342.18Z" transform="translate(-24.86 -5.94)"/><path d="M1067.1,281.69a33.23,33.23,0,0,1,6-.29c3.33.13,5.5.85,6.95,2.27a6.08,6.08,0,0,1,1.73,4.68,6.41,6.41,0,0,1-4.81,6v.08c1.82.72,2.87,2.52,3.36,5.05a40.68,40.68,0,0,0,1.61,6.73l-3.25-.13a32.56,32.56,0,0,1-1.37-5.86c-.59-3.35-1.85-4.69-4.68-4.9l-3-.11-.4,10.51-3.13-.12Zm2.7,11.16,3.21.12c3.35.13,5.54-1.61,5.65-4.39.12-3.15-2.1-4.6-5.4-4.74a13.28,13.28,0,0,0-3.11.16Z" transform="translate(-24.86 -5.94)"/><path d="M1100.13,302.15c-.07,1.82-.07,3.39,0,4.77l-2.79-.11-.06-2.85h-.09a6.52,6.52,0,0,1-5.89,3c-2.72-.1-5.93-1.76-5.69-7.86l.39-10.17,3.15.12-.37,9.62c-.13,3.31.81,5.61,3.67,5.72a4.62,4.62,0,0,0,4.3-2.74,4.84,4.84,0,0,0,.35-1.62l.41-10.65,3.15.12Z" transform="translate(-24.86 -5.94)"/><path d="M1114.86,307.48l-.2-2.21h-.09a6.5,6.5,0,0,1-5.42,2.39,5,5,0,0,1-5.13-5.2c.17-4.21,4-6.39,10.71-6.08l0-.37c0-1.41-.25-4.05-3.81-4.17a8.46,8.46,0,0,0-4.58,1.13l-.64-2.14a11,11,0,0,1,5.8-1.3c5.32.21,6.48,3.89,6.34,7.38l-.25,6.51a26.74,26.74,0,0,0,.1,4.17Zm-.15-8.9c-3.42-.21-7.37.26-7.5,3.62a2.78,2.78,0,0,0,2.84,3.14,4.34,4.34,0,0,0,4.35-2.75,3,3,0,0,0,.19-1Z" transform="translate(-24.86 -5.94)"/><path d="M1143.27,297.19l-9.4-.36-.34,8.75L1144,306l-.1,2.61-13.66-.53.93-24.25,13.11.51-.1,2.61-10-.39-.29,7.68,9.4.37Z" transform="translate(-24.86 -5.94)"/><path d="M1163.74,283.78l-.81,21.06c-.06,1.54-.07,3.28,0,4.49l-2.81-.11,0-3H1160a6.37,6.37,0,0,1-6,3.18c-4.22-.16-7.34-3.85-7.13-9.13.2-5.82,3.94-9.21,8.18-9.05a5.83,5.83,0,0,1,5.15,2.84h.07l.4-10.39Zm-3.73,15.1a6.25,6.25,0,0,0-.08-1.36,4.68,4.68,0,0,0-4.44-3.81c-3.28-.13-5.35,2.67-5.5,6.49-.13,3.54,1.51,6.54,4.92,6.67a4.79,4.79,0,0,0,4.78-3.62,5.62,5.62,0,0,0,.2-1.35Z" transform="translate(-24.86 -5.94)"/><path d="M1168.53,296.82c.07-1.81.07-3.26,0-4.7l2.75.1.06,2.81h.08a6,6,0,0,1,5.62-3,5.13,5.13,0,0,1,4.77,3.68h.07a7.14,7.14,0,0,1,2-2.19,5.92,5.92,0,0,1,3.88-1.07c2.32.09,5.69,1.72,5.45,7.77l-.39,10.24-3.09-.11.38-9.85c.13-3.37-1-5.41-3.57-5.51a4.14,4.14,0,0,0-3.88,2.7,5.9,5.9,0,0,0-.32,1.58l-.41,10.77-3.09-.12.4-10.44c.11-2.77-1-4.81-3.43-4.9a4.38,4.38,0,0,0-4.07,3,5.14,5.14,0,0,0-.3,1.55l-.4,10.49-3.09-.12Z" transform="translate(-24.86 -5.94)"/><path d="M1212.79,306.48c-.07,1.82-.07,3.39,0,4.77l-2.8-.11-.06-2.85h-.08a6.52,6.52,0,0,1-5.89,3c-2.72-.1-5.93-1.76-5.7-7.86l.4-10.17,3.14.13-.37,9.61c-.13,3.31.82,5.61,3.68,5.72a4.61,4.61,0,0,0,4.3-2.74,5.09,5.09,0,0,0,.35-1.61l.41-10.66,3.15.12Z" transform="translate(-24.86 -5.94)"/><path d="M1218.37,298.74c.07-1.81.07-3.26,0-4.7l2.8.1.06,2.87h.09a6.43,6.43,0,0,1,5.88-3c2.39.09,6.08,1.68,5.85,7.65l-.41,10.38-3.14-.12.38-10c.11-2.81-.86-5.21-3.82-5.32a4.56,4.56,0,0,0-4.39,3.08,4.81,4.81,0,0,0-.27,1.46l-.41,10.48-3.15-.12Z" transform="translate(-24.86 -5.94)"/><path d="M1253.85,287.24,1253,308.3c-.06,1.55-.07,3.29,0,4.49l-2.81-.1,0-3h-.08a6.39,6.39,0,0,1-6,3.17c-4.21-.16-7.33-3.85-7.12-9.13.19-5.81,3.94-9.21,8.18-9a5.78,5.78,0,0,1,5.14,2.84h.07l.41-10.39Zm-3.73,15.11A6.9,6.9,0,0,0,1250,301a4.68,4.68,0,0,0-4.44-3.82c-3.28-.13-5.35,2.67-5.5,6.5-.13,3.53,1.51,6.53,4.92,6.66a4.76,4.76,0,0,0,4.77-3.62,5.09,5.09,0,0,0,.21-1.35Z" transform="translate(-24.86 -5.94)"/><path d="M1274.22,304.73c-.25,6.44-4.83,9.09-9,8.93-4.72-.18-8.23-3.76-8-9.29.22-5.82,4.18-9.08,9-8.89C1271.19,295.67,1274.42,299.43,1274.22,304.73Zm-13.81-.33c-.14,3.82,1.93,6.77,5,6.89s5.41-2.63,5.56-6.58c.12-2.94-1.22-6.72-5-6.87S1260.54,301.1,1260.41,304.4Z" transform="translate(-24.86 -5.94)"/><path d="M1304.13,313.67a21.88,21.88,0,0,1-7.51,1c-3.68-.14-6.67-1.18-8.95-3.55a12.38,12.38,0,0,1-3-9.13c.29-7.24,5.47-12.34,13.59-12a15.28,15.28,0,0,1,6,1.35l-.89,2.52a12.39,12.39,0,0,0-5.31-1.24c-5.89-.23-9.88,3.29-10.12,9.36s3.31,9.93,9,10.14a10,10,0,0,0,4.18-.49l.28-7.22-4.91-.19.1-2.51,8,.31Z" transform="translate(-24.86 -5.94)"/><path d="M1311,306.88c-.1,4.28,2.55,6.15,5.73,6.27a11.68,11.68,0,0,0,4.85-.7l.47,2.27a14.09,14.09,0,0,1-5.85.88c-5.35-.2-8.42-3.89-8.22-9.11s3.47-9.27,8.55-9.08c5.67.22,7,5.26,6.84,8.46a7.58,7.58,0,0,1-.16,1.48Zm9.35-1.92c.11-2-.61-5.15-4.16-5.29-3.23-.12-4.72,2.75-5.06,4.94Z" transform="translate(-24.86 -5.94)"/><path d="M1327.41,303.65c.08-2,.1-3.8.07-5.42l2.77.11v3.41h.11a5.29,5.29,0,0,1,5-3.62,3.4,3.4,0,0,1,.88.12l-.11,3a5.26,5.26,0,0,0-1.08-.14c-2.23-.08-3.87,1.54-4.39,3.89a8.32,8.32,0,0,0-.18,1.47l-.36,9.3-3.15-.12Z" transform="translate(-24.86 -5.94)"/><path d="M1339.35,303.39c.07-1.81.07-3.26,0-4.7l2.75.1.06,2.81h.09a6,6,0,0,1,5.61-3,5.12,5.12,0,0,1,4.77,3.68h.08a7,7,0,0,1,2-2.19,5.88,5.88,0,0,1,3.87-1.07c2.33.08,5.69,1.71,5.46,7.77l-.4,10.24-3.09-.12.38-9.84c.13-3.37-1-5.41-3.57-5.51a4.13,4.13,0,0,0-3.87,2.7,5.22,5.22,0,0,0-.32,1.58l-.42,10.77-3.09-.12.4-10.44c.11-2.77-1-4.81-3.43-4.9a4.36,4.36,0,0,0-4.06,3,4.85,4.85,0,0,0-.3,1.55l-.41,10.49-3.09-.12Z" transform="translate(-24.86 -5.94)"/><path d="M1378.52,317.62l-.19-2.21h-.1a6.46,6.46,0,0,1-5.42,2.38,5,5,0,0,1-5.12-5.19c.16-4.22,4-6.39,10.7-6.08l0-.37c0-1.41-.24-4-3.81-4.17a8.54,8.54,0,0,0-4.58,1.12l-.64-2.13a11,11,0,0,1,5.8-1.3c5.32.2,6.48,3.89,6.34,7.38l-.25,6.51a28,28,0,0,0,.1,4.17Zm-.15-8.91c-3.42-.2-7.36.26-7.49,3.63a2.78,2.78,0,0,0,2.83,3.14,4.38,4.38,0,0,0,4.36-2.75,3.3,3.3,0,0,0,.18-1Z" transform="translate(-24.86 -5.94)"/><path d="M1386.69,305.21c.07-1.81.06-3.26,0-4.7l2.79.11.07,2.87h.08a6.44,6.44,0,0,1,5.88-3c2.39.1,6.08,1.68,5.85,7.66l-.4,10.38-3.15-.13.39-10c.11-2.81-.86-5.21-3.83-5.32a4.55,4.55,0,0,0-4.38,3.08,4.8,4.8,0,0,0-.28,1.46l-.4,10.49-3.15-.12Z" transform="translate(-24.86 -5.94)"/><path d="M1422.29,310.42c-.25,6.45-4.83,9.09-9,8.93-4.72-.18-8.23-3.76-8-9.28.22-5.83,4.18-9.08,9-8.9C1419.26,301.36,1422.49,305.12,1422.29,310.42Zm-13.81-.33c-.14,3.82,1.93,6.78,5,6.9s5.41-2.63,5.56-6.58c.12-3-1.22-6.73-5-6.87S1408.61,306.79,1408.48,310.09Z" transform="translate(-24.86 -5.94)"/><path d="M1437.72,295.61l-.39,10.16,11.72.45.39-10.16,3.15.12-.94,24.25-3.14-.12.44-11.37-11.73-.46-.44,11.38-3.15-.12.94-24.25Z" transform="translate(-24.86 -5.94)"/><path d="M1459,312.57c-.1,4.28,2.55,6.15,5.73,6.27a11.68,11.68,0,0,0,4.85-.7l.47,2.27a14.09,14.09,0,0,1-5.85.88c-5.35-.2-8.42-3.89-8.22-9.11s3.47-9.27,8.55-9.08c5.67.22,7,5.26,6.84,8.46a7.58,7.58,0,0,1-.16,1.48Zm9.35-1.92c.11-2-.61-5.15-4.16-5.29-3.23-.12-4.72,2.75-5.06,4.94Z" transform="translate(-24.86 -5.94)"/><path d="M1476.79,304l3.41,10.43c.36,1.17.74,2.55,1,3.6h.09c.35-1,.79-2.33,1.25-3.58l3.84-10.08,3.36.13-5.25,12.21c-2.48,5.9-4.15,8.88-6.38,10.68a8.69,8.69,0,0,1-4,1.89l-.68-2.68a8.14,8.14,0,0,0,2.83-1.44,10.09,10.09,0,0,0,2.79-3.42,2,2,0,0,0,.27-.75,2.14,2.14,0,0,0-.19-.83l-5.8-16.29Z" transform="translate(-24.86 -5.94)"/><path d="M1492.55,309.14c.09-1.81.1-3.26.08-4.7l2.75.13,0,2.81h.09a6,6,0,0,1,5.64-2.93,5.12,5.12,0,0,1,4.74,3.72h.07A7.21,7.21,0,0,1,1508,306a5.94,5.94,0,0,1,3.89-1c2.32.11,5.67,1.77,5.38,7.82L1516.8,323l-3.08-.15.46-9.83c.16-3.37-1-5.43-3.51-5.55a4.14,4.14,0,0,0-3.9,2.67,5.09,5.09,0,0,0-.34,1.57l-.51,10.77-3.09-.14.5-10.44c.13-2.77-1-4.82-3.39-4.94a4.38,4.38,0,0,0-4.09,3,5.15,5.15,0,0,0-.32,1.55L1495,322l-3.09-.14Z" transform="translate(-24.86 -5.94)"/><path d="M1524.14,315.43c-.26,4.28,2.32,6.24,5.49,6.48a11.77,11.77,0,0,0,4.87-.53l.39,2.28a14,14,0,0,1-5.88.67c-5.33-.39-8.27-4.19-7.88-9.4s3.8-9.14,8.87-8.76c5.66.42,6.77,5.51,6.53,8.7a7.2,7.2,0,0,1-.22,1.47Zm9.41-1.58c.18-2-.43-5.17-4-5.43-3.23-.25-4.82,2.57-5.23,4.75Z" transform="translate(-24.86 -5.94)"/><path d="M1540.74,312.88c.19-2.05.29-3.8.35-5.41l2.76.25-.19,3.41h.12a5.29,5.29,0,0,1,5.17-3.36,3.73,3.73,0,0,1,.87.17l-.27,3a4.91,4.91,0,0,0-1.07-.19c-2.22-.2-3.94,1.33-4.58,3.65a7.91,7.91,0,0,0-.26,1.46l-.84,9.26-3.14-.28Z" transform="translate(-24.86 -5.94)"/><path d="M962.64,653a34.45,34.45,0,0,1,.43-6c.53-3.29,1.5-5.35,3.08-6.63A6.09,6.09,0,0,1,971,639.2a6.41,6.41,0,0,1,5.39,5.49h.09c.93-1.72,2.83-2.55,5.41-2.74a39.9,39.9,0,0,0,6.87-.8l-.51,3.21a31.72,31.72,0,0,1-6,.67c-3.39.19-4.87,1.28-5.41,4.07l-.47,2.93,10.39,1.65-.49,3.09Zm11.4-1.36.51-3.16c.52-3.31-.95-5.7-3.69-6.13-3.12-.5-4.82,1.53-5.35,4.8a13,13,0,0,0-.21,3.1Z" transform="translate(-24.86 -5.94)"/><path d="M986.88,622.65c1.8.29,3.35.48,4.72.61l-.44,2.76-2.83-.28,0,.09a6.5,6.5,0,0,1,2.3,6.2c-.43,2.69-2.45,5.68-8.48,4.72l-10-1.6.49-3.11,9.5,1.51c3.27.52,5.67-.14,6.12-3A4.62,4.62,0,0,0,986,626a5,5,0,0,0-1.56-.54l-10.53-1.67.5-3.11Z" transform="translate(-24.86 -5.94)"/><path d="M993.92,608.65l-2.21-.07,0,.1a6.44,6.44,0,0,1,1.73,5.66,5,5,0,0,1-5.77,4.47c-4.16-.66-5.86-4.71-4.76-11.35l-.37-.06c-1.39-.22-4-.24-4.58,3.29a8.34,8.34,0,0,0,.57,4.68l-2.2.38a10.92,10.92,0,0,1-.6-5.91c.84-5.26,4.63-6,8.07-5.42l6.44,1a27,27,0,0,0,4.15.39Zm-8.85-.9c-.61,3.37-.62,7.34,2.7,7.87a2.79,2.79,0,0,0,3.46-2.45,4.35,4.35,0,0,0-2.21-4.64,3.07,3.07,0,0,0-1-.31Z" transform="translate(-24.86 -5.94)"/><path d="M972.88,586.5l10,1.6,1.84-11.58-10-1.6.5-3.11,24,3.81-.5,3.11-11.24-1.79-1.84,11.58,11.24,1.79-.49,3.11-24-3.81Z" transform="translate(-24.86 -5.94)"/><path d="M997.59,555.24c1.8.29,3.35.48,4.73.61l-.44,2.76-2.84-.28v.09a6.51,6.51,0,0,1,2.29,6.2c-.42,2.69-2.45,5.68-8.47,4.72l-10.05-1.59.49-3.12,9.5,1.51c3.28.53,5.67-.14,6.12-3a4.62,4.62,0,0,0-2.21-4.6,5.21,5.21,0,0,0-1.56-.54l-10.53-1.67.49-3.11Z" transform="translate(-24.86 -5.94)"/><path d="M990.57,548.78c-1.79-.28-3.22-.45-4.66-.59l.43-2.72,2.79.28,0-.09a6,6,0,0,1-2.3-5.93,5.13,5.13,0,0,1,4.22-4.3v-.07a7,7,0,0,1-1.93-2.3,5.94,5.94,0,0,1-.61-4c.37-2.3,2.38-5.44,8.36-4.49l10.13,1.61-.49,3-9.72-1.55c-3.33-.52-5.5.39-5.9,2.89a4.13,4.13,0,0,0,2.23,4.17,5.2,5.2,0,0,0,1.53.51l10.64,1.69-.49,3-10.32-1.64c-2.73-.44-4.9.46-5.27,2.82a4.39,4.39,0,0,0,2.5,4.4,5.49,5.49,0,0,0,1.5.48l10.37,1.65-.49,3Z" transform="translate(-24.86 -5.94)"/><path d="M1007.81,521.27c-1.17-.27-2.88-.6-4.41-.84l-20.81-3.31.5-3.11,10.8,1.72,0-.07a6.44,6.44,0,0,1-2.22-6.36c.68-4.28,4.7-6.71,9.91-5.87,6.16,1,8.59,5.37,8,9.21a6.29,6.29,0,0,1-4.14,5.25V518l2.8.61Zm-6.37-4.34a5,5,0,0,0,1.15.05,4.88,4.88,0,0,0,4.41-4.11c.52-3.29-1.84-5.64-5.78-6.27-3.46-.55-6.7.77-7.23,4.11a5.29,5.29,0,0,0,4.36,5.73Z" transform="translate(-24.86 -5.94)"/><path d="M1003.3,497.83c4.24.62,6.41-1.79,6.91-4.93a11.7,11.7,0,0,0-.13-4.9l2.31-.2a13.9,13.9,0,0,1,.18,5.91c-.84,5.29-4.86,7.9-10,7.08s-8.79-4.54-8-9.56c.89-5.61,6-6.29,9.21-5.79a7.62,7.62,0,0,1,1.45.34Zm-.79-9.5c-2-.35-5.19,0-5.75,3.5-.51,3.2,2.16,5,4.3,5.61Z" transform="translate(-24.86 -5.94)"/><path d="M1002.05,481.17c-2-.32-3.77-.54-5.38-.71l.44-2.74,3.39.42,0-.11a5.3,5.3,0,0,1-3-5.39,4,4,0,0,1,.23-.85l2.94.47a5,5,0,0,0-.26,1.05c-.35,2.2,1.06,4,3.34,4.82a8.31,8.31,0,0,0,1.43.35l9.19,1.46-.49,3.11Z" transform="translate(-24.86 -5.94)"/><path d="M994.33,463.3l4.94.78.72-4.49,2.37.38-.72,4.49,9.27,1.47c2.14.34,3.45-.08,3.72-1.83a6.38,6.38,0,0,0,.07-1.85l2.4.24a8,8,0,0,1,0,2.86,4.39,4.39,0,0,1-1.86,3.16c-1.08.72-2.66.83-4.67.51l-9.39-1.5-.43,2.67-2.37-.38.43-2.66-4.14-.66Z" transform="translate(-24.86 -5.94)"/><path d="M1011.42,442.06c6.36,1,8.45,5.87,7.79,10-.74,4.66-4.71,7.72-10.17,6.85-5.75-.91-8.51-5.23-7.76-10C1002.07,444,1006.18,441.23,1011.42,442.06Zm-2,13.67c3.77.6,7-1.11,7.44-4.16s-2-5.69-5.87-6.31c-2.91-.46-6.82.42-7.41,4.14S1006.19,455.21,1009.45,455.73Z" transform="translate(-24.86 -5.94)"/><path d="M1020,433.21l-17.34-16.38-.11,0L1000.57,429l-2.59-.41,2.57-16.18,1.9.3L1019.71,429l.11,0L1022,415.6l2.59.41-2.78,17.49Z" transform="translate(-24.86 -5.94)"/><path d="M1026.65,402.77l-2.22-.07v.09a6.49,6.49,0,0,1,1.72,5.67,5,5,0,0,1-5.76,4.46c-4.17-.66-5.87-4.71-4.77-11.34l-.36-.06c-1.4-.23-4-.24-4.59,3.28a8.43,8.43,0,0,0,.57,4.68l-2.19.38a10.9,10.9,0,0,1-.61-5.91c.84-5.26,4.63-6,8.08-5.42l6.43,1a27.05,27.05,0,0,0,4.15.4Zm-8.86-.91c-.61,3.37-.62,7.34,2.71,7.87a2.79,2.79,0,0,0,3.45-2.44,4.35,4.35,0,0,0-2.21-4.65,3.35,3.35,0,0,0-1-.31Z" transform="translate(-24.86 -5.94)"/><path d="M1015.31,393.17c-1.8-.29-3.23-.46-4.67-.6l.44-2.76,2.85.28,0-.09a6.44,6.44,0,0,1-2.32-6.2c.38-2.36,2.39-5.83,8.29-4.89l10.26,1.63-.5,3.11-9.91-1.58c-2.78-.44-5.27.24-5.74,3.17a4.57,4.57,0,0,0,2.54,4.72,4.84,4.84,0,0,0,1.42.44l10.36,1.65-.5,3.11Z" transform="translate(-24.86 -5.94)"/><path d="M1023.24,372.41c4.23.6,6.4-1.8,6.9-4.94a11.73,11.73,0,0,0-.12-4.9l2.31-.2a14.24,14.24,0,0,1,.18,5.91c-.84,5.29-4.86,7.9-10,7.08s-8.79-4.54-8-9.56c.9-5.61,6-6.29,9.22-5.79a7.68,7.68,0,0,1,1.44.34Zm-.8-9.51c-2-.35-5.19,0-5.74,3.51-.51,3.19,2.16,5,4.29,5.6Z" transform="translate(-24.86 -5.94)"/><path d="M1012.28,350.35l5,.78.71-4.49,2.37.38-.72,4.49,9.27,1.47c2.14.34,3.45-.08,3.73-1.83a6.31,6.31,0,0,0,.06-1.85l2.4.24a8,8,0,0,1,0,2.86,4.39,4.39,0,0,1-1.86,3.16c-1.08.71-2.65.83-4.67.5l-9.39-1.49-.43,2.67-2.36-.38.42-2.66-4.14-.66Z" transform="translate(-24.86 -5.94)"/><path d="M1014.15,338.58l5,.79.71-4.5,2.37.38-.72,4.49,9.27,1.47c2.14.34,3.45-.08,3.73-1.83a6.31,6.31,0,0,0,.06-1.85l2.4.24a8,8,0,0,1,0,2.86,4.4,4.4,0,0,1-1.86,3.17c-1.08.71-2.65.82-4.67.5l-9.39-1.5-.43,2.67-2.36-.38.42-2.66-4.14-.66Z" transform="translate(-24.86 -5.94)"/><path d="M1016.06,327.08a1.91,1.91,0,0,1,1.63,2.3,1.89,1.89,0,0,1-2.24,1.58,1.93,1.93,0,0,1-1.64-2.25A1.9,1.9,0,0,1,1016.06,327.08Zm21.5,7-17.19-2.73.49-3.11,17.2,2.73Z" transform="translate(-24.86 -5.94)"/><path d="M1287.58,359.46l.62-7.36,2.63.22-1.49,17.9-2.64-.22.62-7.4-21.54-1.8.26-3.13Z" transform="translate(-24.86 -5.94)"/><path d="M1282.32,372l-10,2.6c-1.66.45-3.13.79-4.6,1.06v.09c1.4.51,2.81,1.13,4.36,1.82l9.44,4.19-.27,3.3-16.78-8.25.24-3,17.89-5.18Z" transform="translate(-24.86 -5.94)"/><path d="M1265.69,384.62a2.14,2.14,0,0,1,2.1,2.33,2.27,2.27,0,1,1-2.1-2.33Z" transform="translate(-24.86 -5.94)"/><path d="M1262.29,404.26l24.88-5.7-.31,3.39-12.25,2.67c-3.35.74-6.38,1.36-9.25,1.76v.08c2.73.93,5.68,2.2,8.72,3.57l11.58,5.18-.31,3.34L1262,407.71Z" transform="translate(-24.86 -5.94)"/><path d="M1261,419.88l17.4-.19,0,3.15L1261,423Zm22.37,3.29a2,2,0,1,1,1.94-2A1.88,1.88,0,0,1,1283.38,423.17Z" transform="translate(-24.86 -5.94)"/><path d="M1273.35,428.63c2-.29,3.76-.59,5.34-.91l.4,2.75-3.37.6,0,.11a5.29,5.29,0,0,1,4.46,4.26,3.83,3.83,0,0,1,0,.88l-3,.43a5.23,5.23,0,0,0-.06-1.08c-.32-2.21-2.21-3.53-4.61-3.62a8.46,8.46,0,0,0-1.48.08l-9.21,1.32-.45-3.12Z" transform="translate(-24.86 -5.94)"/><path d="M1285.83,452.82c-1.18.37-2.51.84-4.48,1.62l-9.4,3.73c-3.75,1.49-6.3,1.62-8.33.63a9.34,9.34,0,0,1-4.28-5.12,11.14,11.14,0,0,1-.81-5.93l2.55-.17a9.89,9.89,0,0,0,.6,5.28c1.19,3,3.64,4.59,7.74,3l1.8-.71,0-.07a6.17,6.17,0,0,1-4.77-4.06c-1.6-4,.69-8.26,5.17-10,5.49-2.18,10,.16,11.49,3.9a5.79,5.79,0,0,1-.79,6.15l0,.07,2.47-.84Zm-7.58-.54a5.11,5.11,0,0,0,1.25-.68,4.58,4.58,0,0,0,1.49-5.38c-1.12-2.81-4.29-3.88-8-2.38-3.17,1.25-5.18,4-3.93,7.1a4.63,4.63,0,0,0,4.66,2.89,5.36,5.36,0,0,0,1.66-.39Z" transform="translate(-24.86 -5.94)"/><path d="M1274.51,466.59l14.08-10.22,1.86,2.55-14.09,10.22Zm24-9.47-6.75-.53-1.32-1.81,6-.48Z" transform="translate(-24.86 -5.94)"/><path d="M1290.24,466.54c1.15-1.41,2-2.56,2.87-3.73l2.17,1.78-1.69,2.32.07.06a6.44,6.44,0,0,1,6.52,1.13c1.85,1.52,3.83,5,0,9.63l-6.59,8-2.43-2,6.37-7.75c1.78-2.18,2.46-4.67.17-6.55a4.56,4.56,0,0,0-5.36-.2,5,5,0,0,0-1.1,1l-6.66,8.11-2.43-2Z" transform="translate(-24.86 -5.94)"/><path d="M1301.14,489.85l7.92-15.5,2.8,1.43-7.91,15.5Zm13.31-18.28a1.91,1.91,0,0,1-2.69.84,1.89,1.89,0,0,1-.81-2.62,1.92,1.92,0,0,1,2.65-.86A1.9,1.9,0,0,1,1314.45,471.57Z" transform="translate(-24.86 -5.94)"/><path d="M1320,497.54l.43-2.18-.09,0a6.5,6.5,0,0,1-5.88.79,5,5,0,0,1-3.47-6.42c1.33-4,5.61-5,12-2.86l.11-.35c.45-1.34.9-3.95-2.49-5.06a8.45,8.45,0,0,0-4.71-.2l0-2.22a10.93,10.93,0,0,1,5.93.36c5,1.68,5.14,5.54,4,8.85l-2.06,6.18a26.71,26.71,0,0,0-1.06,4Zm2.33-8.59c-3.22-1.15-7.14-1.81-8.2,1.39a2.78,2.78,0,0,0,1.85,3.81,4.35,4.35,0,0,0,4.94-1.43,3.49,3.49,0,0,0,.46-.9Z" transform="translate(-24.86 -5.94)"/><path d="M1338,501.18l2.84-24.1,3.42.41,6.29,13.09a68.55,68.55,0,0,1,3.37,8.35l.09,0c.09-3.25.38-6.19.82-9.93l1.19-10.1,2.93.35-2.84,24.09-3.16-.37-6.22-13.11a81.42,81.42,0,0,1-3.53-8.6l-.11,0c-.17,3.08-.47,6-.94,10L1341,501.53Z" transform="translate(-24.86 -5.94)"/><path d="M1361.78,503.94l1.93-17.3,3.13.35-1.93,17.3Zm6-21.8a2,2,0,1,1-3.9-.44,1.93,1.93,0,0,1,2.18-1.74A1.9,1.9,0,0,1,1367.77,482.14Z" transform="translate(-24.86 -5.94)"/><path d="M1372.92,479.47l3.13.34-2.76,25.4-3.13-.34Z" transform="translate(-24.86 -5.94)"/><path d="M1381.16,497.88c-.38,4.26,2.14,6.3,5.3,6.63a11.8,11.8,0,0,0,4.89-.39l.32,2.3a14.12,14.12,0,0,1-5.89.5c-5.32-.55-8.15-4.43-7.61-9.63s4.06-9,9.12-8.5c5.65.59,6.61,5.7,6.28,8.89a8.19,8.19,0,0,1-.26,1.46Zm9.46-1.31c.23-2-.29-5.18-3.82-5.55-3.21-.33-4.88,2.43-5.36,4.6Z" transform="translate(-24.86 -5.94)"/><path d="M1396.33,504.38a8.72,8.72,0,0,0,4.05,1.64c2.3.22,3.48-.81,3.62-2.26s-.69-2.39-2.91-3.48c-3-1.44-4.33-3.29-4.12-5.36.27-2.8,2.76-4.86,6.49-4.5a8.46,8.46,0,0,1,4.14,1.48l-1,2.21a6.93,6.93,0,0,0-3.46-1.36c-1.85-.18-3,.79-3.1,2.1s.82,2.17,3,3.27c2.88,1.41,4.29,3.06,4,5.65-.3,3.07-2.89,5-7,4.59a10.06,10.06,0,0,1-4.75-1.68Z" transform="translate(-24.86 -5.94)"/><path d="M1435.32,485.49l-1.79,21c-.13,1.54-.22,3.28-.23,4.48l-2.81-.24.1-3h-.09a6.37,6.37,0,0,1-6.17,2.9c-4.2-.36-7.15-4.19-6.7-9.45.47-5.8,4.37-9,8.59-8.66a5.83,5.83,0,0,1,5,3.08h.07l.88-10.36Zm-4.43,14.91a6.2,6.2,0,0,0,0-1.36,4.67,4.67,0,0,0-4.26-4c-3.26-.28-5.46,2.42-5.78,6.23-.3,3.52,1.2,6.6,4.6,6.89a4.79,4.79,0,0,0,4.94-3.4,5.89,5.89,0,0,0,.27-1.34Z" transform="translate(-24.86 -5.94)"/><path d="M1448,512.08l-.12-2.21h-.09a6.49,6.49,0,0,1-5.51,2.2,5,5,0,0,1-4.93-5.37c.31-4.21,4.2-6.25,10.91-5.7l0-.37c.11-1.41-.1-4.06-3.65-4.3a8.47,8.47,0,0,0-4.62,1l-.57-2.15a11,11,0,0,1,5.85-1.1c5.31.39,6.33,4.11,6.08,7.59l-.48,6.5a26.64,26.64,0,0,0,0,4.17Zm.16-8.9c-3.41-.32-7.37,0-7.62,3.36a2.79,2.79,0,0,0,2.73,3.24,4.35,4.35,0,0,0,4.44-2.6,3.31,3.31,0,0,0,.23-1Z" transform="translate(-24.86 -5.94)"/><path d="M1463.06,509.2a10.85,10.85,0,0,0,5.5,1.89c3.2.19,5.18-1.38,5.32-3.83.13-2.24-1.11-3.64-4.31-5.05-3.87-1.64-6.2-3.86-6-7.25.22-3.77,3.52-6.38,8.24-6.11a11.07,11.07,0,0,1,5.27,1.48l-1,2.51a9.22,9.22,0,0,0-4.51-1.41c-3.32-.19-4.69,1.71-4.79,3.36-.13,2.24,1.28,3.44,4.55,4.92,4,1.85,6,3.94,5.76,7.49-.21,3.72-3.14,6.83-8.88,6.5a12.42,12.42,0,0,1-6.09-1.94Z" transform="translate(-24.86 -5.94)"/><path d="M1480.62,514.2l1.6-17.34,3.13.29-1.6,17.34Zm5.57-21.91a2,2,0,0,1-3.91-.36,1.92,1.92,0,0,1,2.15-1.78A1.89,1.89,0,0,1,1486.19,492.29Z" transform="translate(-24.86 -5.94)"/><path d="M1491.77,489.62l3.13.36L1492,515.37l-3.13-.36Z" transform="translate(-24.86 -5.94)"/><path d="M1500.88,498.91l1.94,10.16c.35,1.68.58,3.17.75,4.65l.1,0c.6-1.37,1.31-2.73,2.1-4.24l4.8-9.15,3.28.48-9.34,16.22-3-.44-4-18.2Z" transform="translate(-24.86 -5.94)"/><path d="M1523.17,520.53l.18-2.21-.09,0a6.45,6.45,0,0,1-5.75,1.44,5,5,0,0,1-4.17-6c.87-4.13,5-5.62,11.57-4.19l.08-.36c.29-1.38.44-4-3-4.75a8.45,8.45,0,0,0-4.7.34l-.27-2.21a11,11,0,0,1,5.94-.31c5.2,1.1,5.72,4.93,5,8.34l-1.34,6.37a27.53,27.53,0,0,0-.61,4.13Zm1.35-8.8c-3.33-.78-7.3-1-8,2.31a2.79,2.79,0,0,0,2.26,3.58,4.35,4.35,0,0,0,4.75-2,3.23,3.23,0,0,0,.36-.94Z" transform="translate(-24.86 -5.94)"/><path class="cls-2" d="M1333.6,551.36q-11.08,10.71-20.22,15.28t-17.14,3.3a24.85,24.85,0,0,1-10.23-3.85,24.33,24.33,0,0,1-6.78-6.79,24,24,0,0,1-3.44-8.45,23.65,23.65,0,0,1,2.69-16.91,23.82,23.82,0,0,1,5.88-7,24.19,24.19,0,0,1,8.55-4.36,25.06,25.06,0,0,1,11-.48q7.9,1.26,15.18,8.43T1333.6,551.36ZM1306.8,547a6.85,6.85,0,0,0-1.36-5.42,7.3,7.3,0,0,0-4.83-2.91,7.07,7.07,0,0,0-5.46,1.32,7,7,0,0,0-2.93,4.7,7.18,7.18,0,0,0,1.31,5.5,7,7,0,0,0,4.77,3,7.5,7.5,0,0,0,8.5-6.17Zm37.34,30.52-7.83-1.24,7.59-47.81,7.83,1.24Z" transform="translate(-24.86 -5.94)"/><path d="M859.16,6.28a34.75,34.75,0,0,1,6-.33c3.32.11,5.49.81,7,2.22a6.1,6.1,0,0,1,1.76,4.67,6.43,6.43,0,0,1-4.77,6V19c1.82.7,2.89,2.49,3.4,5a41.53,41.53,0,0,0,1.65,6.72L871,30.6a32.21,32.21,0,0,1-1.41-5.85c-.61-3.35-1.88-4.68-4.72-4.86l-3-.1-.33,10.51-3.13-.1Zm2.77,11.14,3.21.1c3.35.11,5.53-1.65,5.62-4.43.1-3.15-2.13-4.59-5.43-4.7a13.51,13.51,0,0,0-3.11.18Z" transform="translate(-24.86 -5.94)"/><path d="M892.34,26.53c-.06,1.83-.06,3.39,0,4.77l-2.79-.09-.08-2.85h-.08a6.48,6.48,0,0,1-5.87,3c-2.72-.09-5.94-1.72-5.74-7.82l.33-10.17,3.15.1-.32,9.62c-.1,3.31.85,5.6,3.71,5.7a4.61,4.61,0,0,0,4.28-2.77,5.09,5.09,0,0,0,.35-1.61l.35-10.66,3.15.11Z" transform="translate(-24.86 -5.94)"/><path d="M907.09,31.8l-.2-2.2h-.09A6.48,6.48,0,0,1,901.38,32a5,5,0,0,1-5.14-5.17c.14-4.22,4-6.4,10.68-6.13v-.36c.05-1.42-.26-4.05-3.82-4.15a8.37,8.37,0,0,0-4.58,1.14l-.65-2.13a10.93,10.93,0,0,1,5.8-1.33c5.32.18,6.49,3.86,6.37,7.35l-.22,6.51A26.59,26.59,0,0,0,910,31.9Zm-.18-8.9c-3.43-.19-7.37.29-7.48,3.66a2.79,2.79,0,0,0,2.85,3.13,4.37,4.37,0,0,0,4.34-2.77,3.3,3.3,0,0,0,.18-1Z" transform="translate(-24.86 -5.94)"/><path d="M943.68,20.7c-.3,8.32-5.52,12.59-11.71,12.37-6.43-.23-10.72-5.37-10.46-12.69.27-7.69,5.2-12.57,11.68-12.34S943.93,13.49,943.68,20.7Zm-18.86-.28c-.18,5.19,2.48,9.93,7.41,10.11s7.94-4.3,8.13-9.81c.17-4.83-2.17-10-7.38-10.14S925,15.12,924.82,20.42Z" transform="translate(-24.86 -5.94)"/><path d="M963.29,8.21l-.76,21.05c0,1.55,0,3.29,0,4.5l-2.81-.1-.06-3h-.08a6.37,6.37,0,0,1-6,3.19c-4.21-.15-7.34-3.83-7.15-9.1.18-5.82,3.91-9.23,8.15-9.08a5.85,5.85,0,0,1,5.16,2.83h.07l.37-10.39ZM959.6,23.32a7,7,0,0,0-.09-1.36,4.68,4.68,0,0,0-4.45-3.8c-3.28-.12-5.34,2.69-5.48,6.51-.12,3.53,1.53,6.53,4.95,6.65a4.78,4.78,0,0,0,4.76-3.63,5.7,5.7,0,0,0,.2-1.35Z" transform="translate(-24.86 -5.94)"/><path d="M983.71,25.64c-.23,6.45-4.8,9.1-9,9-4.72-.17-8.24-3.74-8-9.26.21-5.83,4.16-9.09,9-8.92C980.66,16.59,983.9,20.34,983.71,25.64Zm-13.8-.29c-.14,3.81,1.94,6.77,5,6.88s5.4-2.65,5.55-6.6c.1-2.94-1.25-6.72-5-6.85S970,22.05,969.91,25.35Z" transform="translate(-24.86 -5.94)"/><path d="M987.82,22.67c.08-2.05.09-3.81,0-5.42l2.78.1v3.41h.12a5.29,5.29,0,0,1,5-3.64,4.67,4.67,0,0,1,.88.12l-.11,3a5.3,5.3,0,0,0-1.07-.13c-2.23-.08-3.87,1.54-4.39,3.9a9.23,9.23,0,0,0-.18,1.47l-.33,9.3-3.15-.12Z" transform="translate(-24.86 -5.94)"/><path d="M999.31,35.08l.63-17.4,3.15.12-.63,17.4Zm4.34-22.19a2,2,0,1,1-3.92-.14,1.93,1.93,0,0,1,2-1.9A1.89,1.89,0,0,1,1003.65,12.89Z" transform="translate(-24.86 -5.94)"/><path d="M1020.17,35.21a12.06,12.06,0,0,1-5,.83c-5.25-.2-8.56-3.89-8.36-9.21s4-9.15,9.69-8.94a10.18,10.18,0,0,1,4.36,1.09l-.79,2.4a7.79,7.79,0,0,0-3.67-1c-4-.14-6.26,2.75-6.38,6.37-.15,4,2.35,6.6,5.82,6.73a9.21,9.21,0,0,0,3.91-.69Z" transform="translate(-24.86 -5.94)"/><path d="M1039.69,27.67c-.23,6.45-4.81,9.1-9,8.95-4.72-.17-8.24-3.75-8-9.27.22-5.82,4.17-9.09,9-8.91C1036.64,18.62,1039.89,22.37,1039.69,27.67Zm-13.8-.3c-.14,3.82,1.94,6.77,5,6.88s5.4-2.64,5.55-6.59c.11-2.94-1.24-6.72-5-6.85S1026,24.07,1025.89,27.37Z" transform="translate(-24.86 -5.94)"/><path d="M1052,13.05a30.18,30.18,0,0,1,5.74-.32c3.15.12,5.13.72,6.6,2a5.18,5.18,0,0,1,1.87,4.36,5.75,5.75,0,0,1-4.3,5.17v.09a6.2,6.2,0,0,1,4.78,6.27,6.32,6.32,0,0,1-2.25,4.75c-1.72,1.51-4.48,2.12-8.45,2a42.19,42.19,0,0,1-4.86-.45Zm2.35,21.65A14.58,14.58,0,0,0,1057,35c3.25.12,6.28-1,6.41-4.49.12-3.3-2.68-4.78-6.1-4.91l-2.61-.1Zm.42-11.6,2.87.1c3.28.12,5.28-1.55,5.37-3.9.1-2.82-2-4-5.16-4.15a12.79,12.79,0,0,0-2.8.13Z" transform="translate(-24.86 -5.94)"/><path d="M1085.26,33.44c-.07,1.83-.06,3.39,0,4.77l-2.8-.1-.06-2.85h-.09a6.52,6.52,0,0,1-5.88,3c-2.72-.1-5.93-1.75-5.71-7.85l.37-10.17,3.15.12-.35,9.61c-.12,3.31.83,5.61,3.68,5.71a4.62,4.62,0,0,0,4.3-2.75,4.84,4.84,0,0,0,.34-1.61l.39-10.66,3.15.12Z" transform="translate(-24.86 -5.94)"/><path d="M1092.45,30.34c-.1,4.28,2.55,6.14,5.73,6.26a11.76,11.76,0,0,0,4.85-.71l.48,2.26a14,14,0,0,1-5.85.9c-5.35-.2-8.43-3.88-8.24-9.1s3.45-9.28,8.53-9.09c5.68.21,7,5.25,6.86,8.45a7.68,7.68,0,0,1-.16,1.48Zm9.35-1.94c.1-2-.63-5.15-4.18-5.28-3.23-.12-4.71,2.75-5,4.94Z" transform="translate(-24.86 -5.94)"/><path d="M1108.87,26.36c.06-1.81.06-3.26,0-4.7l2.8.1.07,2.87h.09a6.41,6.41,0,0,1,5.87-3c2.39.09,6.08,1.66,5.86,7.64l-.38,10.38-3.15-.12.37-10c.1-2.81-.87-5.21-3.83-5.32a4.58,4.58,0,0,0-4.39,3.09,5.2,5.2,0,0,0-.27,1.46l-.38,10.49-3.15-.12Z" transform="translate(-24.86 -5.94)"/><path d="M1144.44,31.51c-.24,6.45-4.81,9.1-9,9-4.72-.18-8.24-3.75-8-9.28.22-5.82,4.17-9.08,9-8.91C1141.4,22.46,1144.64,26.21,1144.44,31.51Zm-13.8-.3c-.14,3.81,1.94,6.77,5,6.88s5.4-2.64,5.55-6.59c.11-2.94-1.24-6.72-5-6.86S1130.76,27.91,1130.64,31.21Z" transform="translate(-24.86 -5.94)"/><path d="M1171.72,15.81l-.78,21.06c-.06,1.55-.06,3.29,0,4.5l-2.82-.11,0-3H1168a6.37,6.37,0,0,1-6,3.19c-4.22-.15-7.34-3.84-7.14-9.12.19-5.81,3.93-9.21,8.16-9.06a5.8,5.8,0,0,1,5.15,2.84h.08l.38-10.39ZM1168,30.92a6.8,6.8,0,0,0-.08-1.35,4.67,4.67,0,0,0-4.45-3.81c-3.28-.12-5.35,2.68-5.49,6.5-.13,3.53,1.52,6.53,4.94,6.66a4.77,4.77,0,0,0,4.76-3.63,5.09,5.09,0,0,0,.21-1.35Z" transform="translate(-24.86 -5.94)"/><path d="M1178.1,33.49c-.1,4.28,2.55,6.14,5.73,6.26a11.66,11.66,0,0,0,4.85-.71l.47,2.27a14.14,14.14,0,0,1-5.84.89c-5.35-.2-8.43-3.88-8.24-9.1s3.45-9.27,8.53-9.09c5.68.21,7,5.25,6.86,8.45a7.58,7.58,0,0,1-.16,1.48Zm9.34-1.93c.11-2-.63-5.16-4.17-5.29-3.23-.12-4.72,2.75-5,4.95Z" transform="translate(-24.86 -5.94)"/><path d="M1202.67,18.59a33.22,33.22,0,0,1,6-.3c3.32.12,5.49.83,7,2.25a6.08,6.08,0,0,1,1.73,4.68,6.43,6.43,0,0,1-4.8,6v.08c1.83.72,2.88,2.51,3.37,5a42.64,42.64,0,0,0,1.62,6.72l-3.25-.12A32.76,32.76,0,0,1,1213,37.1c-.6-3.34-1.87-4.68-4.7-4.88l-3-.11-.39,10.51-3.13-.11Zm2.73,11.15,3.2.12c3.35.12,5.54-1.62,5.64-4.4.12-3.15-2.1-4.6-5.41-4.73a13.33,13.33,0,0,0-3.11.16Z" transform="translate(-24.86 -5.94)"/><path d="M1221.39,43.23l.64-17.4,3.15.12-.64,17.4ZM1225.75,21a1.92,1.92,0,0,1-2.09,1.9,1.89,1.89,0,0,1-1.83-2,1.92,1.92,0,0,1,2-1.9A1.9,1.9,0,0,1,1225.75,21Z" transform="translate(-24.86 -5.94)"/><path d="M1231.69,26.19l3,9.88c.53,1.64.93,3.09,1.26,4.55h.1c.45-1.43,1-2.86,1.62-4.44l3.76-9.63,3.31.12-7.49,17.15-3-.11-6-17.65Z" transform="translate(-24.86 -5.94)"/><path d="M1248.84,36.11c-.1,4.28,2.55,6.14,5.73,6.26a11.82,11.82,0,0,0,4.85-.71l.47,2.26a13.93,13.93,0,0,1-5.84.9c-5.35-.2-8.43-3.88-8.24-9.1s3.45-9.28,8.53-9.09c5.68.21,7,5.25,6.86,8.45a7.68,7.68,0,0,1-.16,1.48Zm9.34-1.94c.11-2-.62-5.15-4.17-5.28-3.23-.12-4.72,2.75-5,4.94Z" transform="translate(-24.86 -5.94)"/><path d="M1264.78,44.84l.65-17.4,3.14.12-.64,17.4Zm4.36-22.19a2,2,0,1,1-3.92-.14,1.93,1.93,0,0,1,2-1.9A1.89,1.89,0,0,1,1269.14,22.65Z" transform="translate(-24.86 -5.94)"/><path d="M1273.64,33.17c.08-2.05.09-3.81.06-5.42l2.77.1v3.42h.11a5.3,5.3,0,0,1,5-3.63,3.79,3.79,0,0,1,.87.13l-.11,3a5.3,5.3,0,0,0-1.07-.13c-2.23-.08-3.87,1.54-4.39,3.89a8.32,8.32,0,0,0-.18,1.47l-.35,9.3-3.15-.12Z" transform="translate(-24.86 -5.94)"/><path d="M1294.43,45.94l-.19-2.2h-.1a6.47,6.47,0,0,1-5.42,2.4,5,5,0,0,1-5.13-5.19c.16-4.22,4-6.39,10.7-6.1v-.37c.06-1.41-.24-4-3.81-4.16a8.46,8.46,0,0,0-4.58,1.13l-.64-2.13a11,11,0,0,1,5.8-1.31c5.32.2,6.48,3.88,6.35,7.37l-.24,6.51a26.67,26.67,0,0,0,.11,4.17Zm-.16-8.9c-3.42-.2-7.36.27-7.49,3.63a2.78,2.78,0,0,0,2.84,3.14,4.36,4.36,0,0,0,4.35-2.75,3.32,3.32,0,0,0,.19-1Z" transform="translate(-24.86 -5.94)"/><path d="M1310.78,22.27l13.06.48-.1,2.61-9.91-.37-.3,8.08,9.15.34-.09,2.59-9.16-.34-.41,11-3.15-.11Z" transform="translate(-24.86 -5.94)"/><path d="M1326.35,47.13l.65-17.4,3.15.12-.65,17.4Zm4.37-22.19a1.91,1.91,0,0,1-2.09,1.89,1.89,1.89,0,0,1-1.83-2,1.93,1.93,0,0,1,2-1.89A1.9,1.9,0,0,1,1330.72,24.94Z" transform="translate(-24.86 -5.94)"/><path d="M1335.73,21.9l3.15.11-1,25.55-3.15-.12Z" transform="translate(-24.86 -5.94)"/><path d="M1344.22,22.21l3.14.12-.4,10.86h.07a6.49,6.49,0,0,1,5.63-2.91c2.35.09,6,1.65,5.79,7.66l-.39,10.36-3.15-.12.38-10c.1-2.81-.87-5.21-3.83-5.32a4.61,4.61,0,0,0-4.39,3,4.46,4.46,0,0,0-.27,1.5l-.39,10.52-3.15-.12Z" transform="translate(-24.86 -5.94)"/><path d="M1379.33,40.22c-.25,6.45-4.82,9.1-9,8.94-4.72-.17-8.24-3.75-8-9.27.21-5.83,4.17-9.09,9-8.91C1376.28,31.17,1379.52,34.92,1379.33,40.22Zm-13.81-.31c-.14,3.82,1.94,6.77,5,6.89s5.4-2.64,5.55-6.59c.11-2.94-1.23-6.72-5-6.86S1365.64,36.61,1365.52,39.91Z" transform="translate(-24.86 -5.94)"/><path d="M76,48.42a32.72,32.72,0,0,1,6-.36c3.33.09,5.5.78,7,2.18a6.06,6.06,0,0,1,1.78,4.66A6.42,6.42,0,0,1,86.09,61v.09c1.83.7,2.9,2.47,3.43,5a39.65,39.65,0,0,0,1.69,6.71L88,72.67a31,31,0,0,1-1.44-5.85c-.64-3.34-1.91-4.66-4.75-4.83l-3-.08-.28,10.51-3.13-.08Zm2.84,11.12,3.2.09c3.35.09,5.53-1.68,5.6-4.46.08-3.15-2.15-4.58-5.46-4.67a14,14,0,0,0-3.11.19Z" transform="translate(-24.86 -5.94)"/><path d="M109.31,68.47c0,1.83,0,3.39,0,4.77l-2.8-.08-.09-2.85h-.09a6.51,6.51,0,0,1-5.84,3.09c-2.73-.07-6-1.68-5.8-7.78L95,55.44l3.15.09-.25,9.61c-.09,3.32.88,5.6,3.74,5.68a4.49,4.49,0,0,0,4.59-4.41l.29-10.66,3.14.08Z" transform="translate(-24.86 -5.94)"/><path d="M124.11,73.63l-.22-2.21h-.09a6.49,6.49,0,0,1-5.4,2.45,5,5,0,0,1-5.18-5.13c.11-4.22,3.91-6.43,10.63-6.21v-.37c0-1.41-.29-4-3.86-4.12a8.48,8.48,0,0,0-4.56,1.18l-.67-2.12a11.06,11.06,0,0,1,5.79-1.38c5.32.14,6.52,3.81,6.43,7.3l-.18,6.51A26.24,26.24,0,0,0,127,73.7Zm-.26-8.9c-3.42-.17-7.36.35-7.44,3.71a2.78,2.78,0,0,0,2.87,3.11,4.37,4.37,0,0,0,4.32-2.8,3,3,0,0,0,.17-1Z" transform="translate(-24.86 -5.94)"/><path d="M143.67,66.52,141,74.07,137.71,74l8.89-24,3.77.1L158,74.52l-3.35-.09-2.4-7.69Zm8-2.24-2.22-7.05c-.49-1.6-.81-3-1.13-4.45h-.09c-.38,1.41-.8,2.88-1.32,4.36l-2.57,6.95Z" transform="translate(-24.86 -5.94)"/><path d="M162,49.06l3.15.09-.68,25.54-3.15-.08Z" transform="translate(-24.86 -5.94)"/><path d="M170.15,74.84l.4-15-2.43-.07.07-2.39,2.42.06,0-.84c.06-2.45.68-4.66,2.18-6a6.09,6.09,0,0,1,4.27-1.5,6.93,6.93,0,0,1,2.69.59l-.48,2.41a5,5,0,0,0-2-.45c-2.67-.07-3.44,2.29-3.51,5l0,.94,4.2.12L177.89,60l-4.19-.11-.4,15Z" transform="translate(-24.86 -5.94)"/><path d="M180.67,63.13c.05-2.05,0-3.81,0-5.42l2.78.07,0,3.42h.11a5.29,5.29,0,0,1,4.95-3.68,4,4,0,0,1,.88.11l-.08,3a4.74,4.74,0,0,0-1.08-.12c-2.23-.06-3.85,1.58-4.34,3.93a9.55,9.55,0,0,0-.17,1.48l-.24,9.29-3.15-.08Z" transform="translate(-24.86 -5.94)"/><path d="M193.75,67.33c-.05,4.28,2.62,6.12,5.79,6.2a11.83,11.83,0,0,0,4.85-.76l.49,2.26a14,14,0,0,1-5.83,1c-5.35-.14-8.47-3.78-8.33-9s3.35-9.32,8.43-9.18c5.68.15,7,5.17,6.95,8.37a7.74,7.74,0,0,1-.15,1.48Zm9.32-2c.09-2-.68-5.15-4.23-5.24-3.23-.08-4.68,2.8-5,5Z" transform="translate(-24.86 -5.94)"/><path d="M225.49,50.74l-.56,21.06c0,1.54,0,3.29,0,4.49l-2.82-.07-.08-3H222a6.4,6.4,0,0,1-6,3.25c-4.21-.11-7.37-3.76-7.23-9,.12-5.82,3.83-9.26,8.06-9.14A5.81,5.81,0,0,1,222,61h.08l.27-10.4Zm-3.55,15.14a6.14,6.14,0,0,0-.1-1.35,4.69,4.69,0,0,0-4.49-3.77c-3.27-.08-5.31,2.74-5.41,6.56-.09,3.54,1.59,6.52,5,6.61a4.8,4.8,0,0,0,4.73-3.68,5.18,5.18,0,0,0,.19-1.35Z" transform="translate(-24.86 -5.94)"/><path d="M246.08,68c-.18,6.45-4.72,9.15-8.9,9-4.72-.13-8.28-3.66-8.13-9.19.15-5.82,4.07-9.13,8.88-9C242.94,59,246.22,62.67,246.08,68Zm-13.81-.16c-.1,3.82,2,6.75,5.1,6.83S242.75,72,242.85,68c.08-3-1.31-6.71-5.07-6.81S232.36,64.51,232.27,67.81Z" transform="translate(-24.86 -5.94)"/><path d="M258.2,53.23a32.67,32.67,0,0,1,6-.36c3.32.09,5.5.78,7,2.18A6.06,6.06,0,0,1,273,59.71a6.4,6.4,0,0,1-4.73,6.06v.09c1.83.7,2.9,2.47,3.42,5a40.69,40.69,0,0,0,1.69,6.71l-3.25-.09a32.81,32.81,0,0,1-1.44-5.85c-.63-3.34-1.91-4.66-4.74-4.83l-3-.08-.27,10.51-3.13-.08ZM261,64.35l3.2.09c3.35.09,5.52-1.68,5.6-4.46.08-3.15-2.16-4.58-5.46-4.67a14,14,0,0,0-3.11.19Z" transform="translate(-24.86 -5.94)"/><path d="M279,69.58c-.05,4.28,2.61,6.12,5.79,6.2A11.74,11.74,0,0,0,289.6,75l.5,2.26a14,14,0,0,1-5.83,1c-5.35-.14-8.47-3.79-8.34-9s3.36-9.31,8.44-9.17c5.68.15,7,5.17,6.95,8.37a7.74,7.74,0,0,1-.15,1.48Zm9.32-2c.08-2-.68-5.15-4.23-5.24-3.23-.08-4.68,2.8-5,5Z" transform="translate(-24.86 -5.94)"/><path d="M310.49,61.13c-.12,1.23-.22,2.64-.28,4.76L310,76c-.11,4-1,6.42-2.7,7.9a9.36,9.36,0,0,1-6.39,1.92,11.21,11.21,0,0,1-5.77-1.59l.85-2.41A9.81,9.81,0,0,0,301,83.35c3.23.08,5.65-1.54,5.76-5.95l.06-1.94h-.08a6.16,6.16,0,0,1-5.6,2.78c-4.34-.11-7.33-3.88-7.2-8.71.16-5.9,4.08-9.12,8.1-9a5.79,5.79,0,0,1,5.35,3.14h.07l.2-2.6ZM307,67.89a4.64,4.64,0,0,0-4.49-4.9c-3-.08-5.25,2.41-5.36,6.46-.09,3.4,1.59,6.31,5,6.4a4.64,4.64,0,0,0,4.49-3.15,5.47,5.47,0,0,0,.29-1.67Z" transform="translate(-24.86 -5.94)"/><path d="M315.25,66c0-1.81,0-3.26,0-4.7l2.79.07.1,2.87h.09a6.42,6.42,0,0,1,5.84-3.1c2.39.06,6.09,1.6,5.94,7.57l-.28,10.39L326.56,79l.27-10c.07-2.81-.93-5.2-3.89-5.28a4.58,4.58,0,0,0-4.35,3.14,4.83,4.83,0,0,0-.25,1.46l-.28,10.49-3.15-.09Z" transform="translate(-24.86 -5.94)"/><path d="M336.87,71.11c-.05,4.28,2.62,6.11,5.79,6.2a11.64,11.64,0,0,0,4.85-.77l.49,2.27a14.21,14.21,0,0,1-5.83,1c-5.35-.14-8.47-3.79-8.33-9s3.35-9.31,8.43-9.17c5.68.15,7,5.17,7,8.37a7.84,7.84,0,0,1-.15,1.48Zm9.32-2c.09-2-.68-5.15-4.23-5.24-3.23-.09-4.68,2.8-5,5Z" transform="translate(-24.86 -5.94)"/><path d="M353.22,67.69c.06-2.06,0-3.81,0-5.43l2.78.08,0,3.41h.11a5.29,5.29,0,0,1,4.94-3.68,3.34,3.34,0,0,1,.88.12l-.08,3a5.36,5.36,0,0,0-1.07-.12C358.58,65,357,66.62,356.47,69a7.5,7.5,0,0,0-.17,1.47l-.25,9.3-3.14-.08Z" transform="translate(-24.86 -5.94)"/><path d="M77.38,270.44,73.26,262l-7.88,3.84L70,275.28l-2.35,1.15-6-12.29L83.46,253.5l5.75,11.79-2.35,1.15-4.36-9-6.91,3.37,4.12,8.45Z" transform="translate(-24.86 -5.94)"/><path d="M72.15,278.4a8.55,8.55,0,0,0,.79,4.3c1,2.06,2.54,2.51,3.84,1.85s1.65-1.87,1.38-4.33c-.4-3.32.45-5.42,2.32-6.35,2.5-1.27,5.58-.27,7.27,3.07a8.42,8.42,0,0,1,1,4.29l-2.41.33a6.81,6.81,0,0,0-.7-3.65c-.84-1.66-2.26-2.08-3.43-1.49s-1.4,1.85-1.16,4.29c.36,3.18-.29,5.25-2.6,6.44-2.76,1.39-5.77.22-7.62-3.45a9.92,9.92,0,0,1-1.13-4.91Z" transform="translate(-24.86 -5.94)"/><path d="M97.66,286.63l-4.52,2.17,2,4.1-2.16,1-2-4.1-8.46,4.06c-2,.94-2.79,2-2,3.62a6.09,6.09,0,0,0,1,1.56l-2.11,1.17a8.11,8.11,0,0,1-1.61-2.36,4.42,4.42,0,0,1-.27-3.66c.48-1.2,1.71-2.19,3.56-3.08L89.64,287l-1.17-2.43,2.16-1L91.8,286l3.78-1.81Z" transform="translate(-24.86 -5.94)"/><path d="M91.76,298.55c1.86-.86,3.44-1.64,4.86-2.4l1.16,2.52-3,1.54,0,.1a5.26,5.26,0,0,1,5.48,2.82,3.3,3.3,0,0,1,.29.83l-2.71,1.25a4.65,4.65,0,0,0-.36-1c-.93-2-3.12-2.76-5.45-2.16a8.77,8.77,0,0,0-1.4.5l-8.45,3.88-1.32-2.86Z" transform="translate(-24.86 -5.94)"/><path d="M89.51,322.85l1.9-1.14,0-.08a6.48,6.48,0,0,1-4.51-3.84,5,5,0,0,1,2.45-6.88c3.86-1.69,7.48.81,10.13,7l.34-.15c1.3-.56,3.54-2,2.09-5.24a8.5,8.5,0,0,0-3-3.63l1.64-1.5a10.9,10.9,0,0,1,3.7,4.65c2.13,4.88-.68,7.52-3.88,8.92l-6,2.61a26.62,26.62,0,0,0-3.71,1.91Zm7.94-4c-1.3-3.17-3.44-6.52-6.52-5.17a2.79,2.79,0,0,0-1.6,3.92,4.36,4.36,0,0,0,4.38,2.72,3.22,3.22,0,0,0,1-.26Z" transform="translate(-24.86 -5.94)"/><path d="M121.86,334l-19.49,8c-1.43.59-3,1.31-4.1,1.85l-1.07-2.61L99.93,340l0-.08a6.36,6.36,0,0,1-5.39-4.16c-1.61-3.91.45-8.27,5.33-10.28,5.37-2.24,10-.25,11.63,3.67A5.79,5.79,0,0,1,111,335l0,.07,9.61-3.95Zm-15.29,2.88a6.25,6.25,0,0,0,1.2-.63,4.7,4.7,0,0,0,1.63-5.63c-1.25-3-4.66-3.75-8.2-2.3-3.27,1.35-5.31,4.09-4,7.25a4.77,4.77,0,0,0,5.28,2.83,5,5,0,0,0,1.31-.37Z" transform="translate(-24.86 -5.94)"/><path d="M103.63,357.51l2-1.06,0-.09a6.49,6.49,0,0,1-4.36-4,5,5,0,0,1,2.73-6.77c3.93-1.53,7.44,1.11,9.84,7.39l.34-.13c1.32-.52,3.62-1.84,2.31-5.15a8.51,8.51,0,0,0-2.86-3.76l1.7-1.43a10.92,10.92,0,0,1,3.51,4.8c1.93,5-1,7.49-4.23,8.75l-6.07,2.37a26.43,26.43,0,0,0-3.79,1.76Zm8.11-3.69c-1.18-3.22-3.18-6.65-6.31-5.43a2.79,2.79,0,0,0-1.75,3.86,4.35,4.35,0,0,0,4.25,2.89,3.34,3.34,0,0,0,1-.22Z" transform="translate(-24.86 -5.94)"/><path d="M138.17,377.08l-19.8,7.2c-1.46.53-3.07,1.18-4.17,1.67l-1-2.65,2.77-1.18,0-.08a6.36,6.36,0,0,1-5.22-4.38c-1.44-4,.8-8.24,5.76-10.05,5.46-2,10,.17,11.47,4.16a5.82,5.82,0,0,1-.69,5.84l0,.06,9.77-3.55Zm-15.39,2.25a6.52,6.52,0,0,0,1.22-.59,4.68,4.68,0,0,0,1.86-5.55c-1.12-3.09-4.49-3.94-8.09-2.64-3.32,1.21-5.48,3.87-4.31,7.07a4.75,4.75,0,0,0,5.15,3.05,4.82,4.82,0,0,0,1.33-.31Z" transform="translate(-24.86 -5.94)"/><path d="M129.4,402.7c-6.09,2.11-10.22-1.2-11.58-5.16-1.54-4.46.52-9,5.74-10.83,5.51-1.91,10,.6,11.55,5.15C136.74,396.59,134.41,401,129.4,402.7Zm-4.69-13c-3.61,1.25-5.62,4.25-4.61,7.17s4.41,4.09,8.15,2.8c2.78-1,5.82-3.58,4.59-7.14S127.83,388.64,124.71,389.72Z" transform="translate(-24.86 -5.94)"/><path d="M130.63,432.51a15.56,15.56,0,0,1-3.07-5.74c-2.09-6.51.45-12.71,8-15.16,7.24-2.33,13.69,1,16,8.15a13.1,13.1,0,0,1,.75,5.81l-2.67,0a11.38,11.38,0,0,0-.54-4.95c-1.75-5.42-6.37-7.89-12.43-5.93-5.65,1.82-8.21,6.24-6.41,11.83a12.72,12.72,0,0,0,2.53,4.59Z" transform="translate(-24.86 -5.94)"/><path d="M139.7,448.45c-1.74.54-3.22,1.05-4.51,1.54l-.82-2.68,2.67-1,0-.09a6.46,6.46,0,0,1-4.79-4.56c-.8-2.6-.3-6.17,5.53-8l9.73-3,.92,3-9.19,2.82c-3.17,1-5,2.63-4.19,5.36a4.62,4.62,0,0,0,4,3.15,5.08,5.08,0,0,0,1.63-.2l10.19-3.13.93,3Z" transform="translate(-24.86 -5.94)"/><path d="M147.91,451.54c2.13-.62,3.85-1.18,5.41-1.72l.78,2.72-2.8,1,0,.07a6.78,6.78,0,0,1,5,5c1.18,4-1.35,8.09-6.42,9.56-6,1.74-10.07-1.08-11.21-5a6.11,6.11,0,0,1,1.14-5.92l0-.07-9.1,2.64-.87-3Zm-3.59,4.32a5.59,5.59,0,0,0-1.2.49,4.85,4.85,0,0,0-2.25,5.58c.93,3.22,4.12,4.31,7.95,3.2,3.34-1,5.7-3.54,4.77-6.76a5.05,5.05,0,0,0-5.09-3.52,5.56,5.56,0,0,0-1.29.17Z" transform="translate(-24.86 -5.94)"/><path d="M142.25,474.45,159,469.78l.84,3-16.77,4.66Zm22.47-2.57a1.92,1.92,0,0,1-2.44-1.42,1.89,1.89,0,0,1,1.38-2.37,1.93,1.93,0,0,1,2.43,1.37A1.9,1.9,0,0,1,164.72,471.88Z" transform="translate(-24.86 -5.94)"/><path d="M289.68,673.27l-7.28-5.95-5.55,6.78,8.14,6.66-1.65,2-10.58-8.66,15.36-18.77,10.16,8.3-1.66,2-7.71-6.31L284,665.31l7.28,6Z" transform="translate(-24.86 -5.94)"/><path d="M288.05,682.41a8.6,8.6,0,0,0,2.53,3.56c1.82,1.43,3.37,1.2,4.26,0s.71-2.39-.57-4.5c-1.78-2.84-1.89-5.11-.6-6.74,1.73-2.21,4.95-2.61,7.89-.3a8.41,8.41,0,0,1,2.7,3.47l-2,1.33a6.81,6.81,0,0,0-2.18-3c-1.47-1.16-2.93-.94-3.74.1s-.48,2.27.76,4.37c1.68,2.73,2,4.89.37,6.94-1.9,2.42-5.12,2.64-8.36.11a10,10,0,0,1-3.1-4Z" transform="translate(-24.86 -5.94)"/><path d="M314.23,678.36l-3,4,3.64,2.73L313.42,687l-3.64-2.72-5.62,7.5c-1.3,1.74-1.54,3.1-.12,4.16a6,6,0,0,0,1.6.91l-1.32,2a8.2,8.2,0,0,1-2.53-1.35,4.44,4.44,0,0,1-1.93-3.12c-.12-1.3.51-2.74,1.74-4.38l5.7-7.6-2.16-1.62,1.44-1.92,2.16,1.62,2.52-3.36Z" transform="translate(-24.86 -5.94)"/><path d="M314.57,691.58c1.19-1.68,2.16-3.13,3-4.5l2.26,1.6L318,691.54l.1.06a5.28,5.28,0,0,1,6.15-.3,3.89,3.89,0,0,1,.67.58l-1.72,2.43a5.71,5.71,0,0,0-.83-.7c-1.82-1.29-4.08-.83-5.8.85a9.17,9.17,0,0,0-1,1.13l-5.38,7.58-2.57-1.82Z" transform="translate(-24.86 -5.94)"/><path d="M325.72,713.65l1-2-.08,0a6.51,6.51,0,0,1-5.89-.72,5,5,0,0,1-1.74-7.09c2.29-3.53,6.69-3.45,12.31.25l.2-.31c.77-1.19,1.86-3.6-1.15-5.52a8.36,8.36,0,0,0-4.51-1.38l.54-2.16a11,11,0,0,1,5.66,1.84c4.46,2.9,3.57,6.66,1.68,9.58l-3.54,5.47a27.66,27.66,0,0,0-2.05,3.64Zm4.42-7.73c-2.83-1.93-6.46-3.54-8.29-.72a2.79,2.79,0,0,0,.83,4.15,4.36,4.36,0,0,0,5.15-.14,3.58,3.58,0,0,0,.67-.75Z" transform="translate(-24.86 -5.94)"/><path d="M358.61,702.74l-9.68,18.71c-.71,1.37-1.46,2.95-1.94,4l-2.5-1.29,1.25-2.75-.08,0a6.37,6.37,0,0,1-6.81.31c-3.75-1.94-5-6.6-2.57-11.28,2.65-5.18,7.48-6.67,11.25-4.72a5.84,5.84,0,0,1,3.45,4.76l.06,0,4.78-9.23Zm-9.79,12.08a6.89,6.89,0,0,0,.5-1.26,4.69,4.69,0,0,0-2.4-5.35c-2.91-1.5-6,.15-7.73,3.55-1.62,3.14-1.41,6.55,1.62,8.12a4.77,4.77,0,0,0,5.86-1.25,5.31,5.31,0,0,0,.76-1.13Z" transform="translate(-24.86 -5.94)"/><path d="M362.61,731.22l.49-2.16-.09,0a6.48,6.48,0,0,1-5.89.61,5,5,0,0,1-3.27-6.52c1.45-4,5.75-4.85,12-2.49l.13-.35c.49-1.33,1-3.93-2.34-5.13a8.51,8.51,0,0,0-4.71-.35l0-2.22a11,11,0,0,1,5.92.54c5,1.83,5,5.7,3.77,9l-2.24,6.12a26.25,26.25,0,0,0-1.19,4Zm2.59-8.52c-3.19-1.25-7.08-2-8.24,1.14a2.78,2.78,0,0,0,1.73,3.86,4.36,4.36,0,0,0,5-1.27,3.11,3.11,0,0,0,.48-.89Z" transform="translate(-24.86 -5.94)"/><path d="M399.44,715.81,394,736.15c-.41,1.5-.8,3.19-1,4.37l-2.72-.73.63-2.95-.08,0a6.39,6.39,0,0,1-6.6,1.75c-4.07-1.1-6.28-5.39-4.9-10.49,1.49-5.62,5.89-8.1,10-7a5.79,5.79,0,0,1,4.38,3.92h.07l2.71-10Zm-7,13.89a6.05,6.05,0,0,0,.22-1.34,4.68,4.68,0,0,0-3.47-4.72c-3.17-.85-5.81,1.41-6.81,5.11-.92,3.41,0,6.7,3.31,7.59a4.76,4.76,0,0,0,5.46-2.46,5,5,0,0,0,.5-1.27Z" transform="translate(-24.86 -5.94)"/><path d="M416.31,735.94c-1.14,6.35-6,8.33-10.16,7.6-4.64-.84-7.63-4.87-6.65-10.31,1-5.73,5.4-8.41,10.13-7.56C414.56,726.55,417.24,730.72,416.31,735.94Zm-13.62-2.23c-.68,3.76,1,7,4,7.51s5.72-1.85,6.42-5.74c.52-2.9-.29-6.83-4-7.49S403.27,730.46,402.69,733.71Z" transform="translate(-24.86 -5.94)"/><path d="M444.57,747.14a15.82,15.82,0,0,1-6.5.54c-6.8-.66-11.5-5.45-10.74-13.38.73-7.58,6.33-12.19,13.83-11.47a13.21,13.21,0,0,1,5.63,1.61l-1,2.47a11.54,11.54,0,0,0-4.77-1.46c-5.67-.54-9.77,2.72-10.38,9.06-.56,5.91,2.48,10,8.33,10.58a12.91,12.91,0,0,0,5.22-.5Z" transform="translate(-24.86 -5.94)"/><path d="M463,744.27c-.11,1.82-.14,3.38-.14,4.76l-2.79-.17V746H460a6.49,6.49,0,0,1-5.95,2.88c-2.71-.16-5.89-1.88-5.52-8l.62-10.15,3.14.19-.58,9.6c-.2,3.31.69,5.63,3.55,5.8a4.59,4.59,0,0,0,4.35-2.65,4.7,4.7,0,0,0,.39-1.6l.65-10.64,3.14.19Z" transform="translate(-24.86 -5.94)"/><path d="M468.23,737.53c.08-2.22.09-4,.06-5.68l2.83.11.07,3h.07a6.8,6.8,0,0,1,6.3-3.14c4.21.16,7.26,3.82,7.06,9.1-.23,6.28-4.17,9.23-8.25,9.08a6.07,6.07,0,0,1-5.26-2.94H471l-.34,9.47-3.15-.12Zm3,4.76a5.45,5.45,0,0,0,.09,1.29,4.86,4.86,0,0,0,4.59,3.89c3.36.12,5.39-2.56,5.54-6.55.13-3.47-1.58-6.52-4.93-6.65a5,5,0,0,0-4.93,3.73,5.27,5.27,0,0,0-.25,1.28Z" transform="translate(-24.86 -5.94)"/><path d="M488.22,749.92l.4-17.4,3.15.07-.4,17.41Zm4.06-22.24a1.92,1.92,0,0,1-2.06,1.92,1.89,1.89,0,0,1-1.87-2,2,2,0,1,1,3.93.09Z" transform="translate(-24.86 -5.94)"/><path d="M776.06,739.61l-9.39.49.46,8.75,10.5-.54.14,2.6-13.65.72-1.27-24.23,13.1-.69.14,2.61-10,.52.4,7.67,9.4-.49Z" transform="translate(-24.86 -5.94)"/><path d="M781.28,747.32a8.68,8.68,0,0,0,4.28.86c2.31-.2,3.27-1.43,3.15-2.88s-1.13-2.23-3.51-2.89c-3.23-.86-4.87-2.43-5-4.51-.25-2.79,1.82-5.29,5.55-5.62a8.54,8.54,0,0,1,4.34.69l-.58,2.37a6.89,6.89,0,0,0-3.65-.71c-1.86.17-2.78,1.33-2.66,2.64s1.2,2,3.55,2.66c3.09.85,4.78,2.22,5,4.81.28,3.07-1.92,5.44-6,5.8a9.89,9.89,0,0,1-5-.78Z" transform="translate(-24.86 -5.94)"/><path d="M797.59,726.49l.52,5,4.52-.47.25,2.39-4.52.47,1,9.33c.22,2.16,1,3.31,2.73,3.13a6.1,6.1,0,0,0,1.8-.42l.39,2.38a7.93,7.93,0,0,1-2.76.73,4.43,4.43,0,0,1-3.54-1c-1-.87-1.48-2.36-1.7-4.39l-1-9.46-2.68.28-.25-2.39,2.68-.28-.43-4.17Z" transform="translate(-24.86 -5.94)"/><path d="M806.52,736c-.24-2-.49-3.78-.77-5.37l2.76-.32.51,3.38h.11a5.27,5.27,0,0,1,4.38-4.34,3.76,3.76,0,0,1,.88,0l.35,3a5,5,0,0,0-1.08,0c-2.22.26-3.59,2.11-3.75,4.51a8.37,8.37,0,0,0,0,1.49l1.07,9.24-3.13.36Z" transform="translate(-24.86 -5.94)"/><path d="M828.9,745.37l-.56-2.15h-.09a6.5,6.5,0,0,1-5,3.26,5,5,0,0,1-5.91-4.28c-.54-4.19,2.87-7,9.55-7.77l-.05-.36c-.18-1.41-.91-4-4.44-3.48a8.39,8.39,0,0,0-4.33,1.86l-1-2a11,11,0,0,1,5.5-2.24c5.28-.68,7,2.77,7.47,6.23l.83,6.46a28,28,0,0,0,.79,4.09Zm-1.62-8.76c-3.41.37-7.22,1.48-6.79,4.81a2.79,2.79,0,0,0,3.32,2.64,4.36,4.36,0,0,0,3.83-3.44,3.07,3.07,0,0,0,0-1Z" transform="translate(-24.86 -5.94)"/><path d="M847.75,717l3,20.86c.22,1.53.52,3.25.78,4.43l-2.79.39-.58-3-.09,0a6.37,6.37,0,0,1-5.37,4.2c-4.17.59-7.9-2.48-8.64-7.71-.85-5.76,2.23-9.76,6.43-10.36a5.81,5.81,0,0,1,5.57,1.87h.07l-1.46-10.29Zm-1,15.52a6.34,6.34,0,0,0-.32-1.32,4.7,4.7,0,0,0-5.05-3c-3.25.46-4.78,3.59-4.25,7.37.5,3.51,2.66,6.16,6,5.68a4.77,4.77,0,0,0,4-4.41,5.31,5.31,0,0,0,0-1.37Z" transform="translate(-24.86 -5.94)"/><path d="M866,740l-.61-2.13-.09,0a6.48,6.48,0,0,1-4.87,3.37,5,5,0,0,1-6-4.13c-.64-4.16,2.7-7,9.36-8l-.06-.36c-.21-1.4-1-3.93-4.53-3.37a8.48,8.48,0,0,0-4.28,2l-1-2a10.94,10.94,0,0,1,5.45-2.38c5.26-.81,7.1,2.59,7.63,6l1,6.44a28.32,28.32,0,0,0,.89,4.08Zm-1.84-8.71c-3.4.45-7.18,1.66-6.67,5a2.79,2.79,0,0,0,3.39,2.55,4.38,4.38,0,0,0,3.75-3.53,3.4,3.4,0,0,0,0-1Z" transform="translate(-24.86 -5.94)"/><path d="M891.65,709.91l3.51,20.77c.25,1.52.6,3.23.89,4.4l-2.78.47-.66-2.94h-.08a6.36,6.36,0,0,1-5.26,4.34c-4.16.71-8-2.27-8.84-7.47-1-5.74,2-9.82,6.16-10.53a5.81,5.81,0,0,1,5.61,1.73h.07l-1.73-10.25Zm-.57,15.54a6.07,6.07,0,0,0-.36-1.31,4.66,4.66,0,0,0-5.12-2.83c-3.24.54-4.69,3.71-4.05,7.48.59,3.48,2.81,6.09,6.18,5.52a4.79,4.79,0,0,0,3.93-4.52,5,5,0,0,0-.08-1.37Z" transform="translate(-24.86 -5.94)"/><path d="M915,722.7c1.14,6.34-2.77,9.91-6.88,10.65-4.65.83-8.85-1.91-9.82-7.35-1-5.74,2.14-9.77,6.88-10.62C910.09,714.5,914.06,717.48,915,722.7Zm-13.55,2.63c.67,3.76,3.34,6.2,6.38,5.66s4.72-3.73,4-7.62c-.52-2.9-2.64-6.3-6.34-5.64S900.86,722.08,901.44,725.33Z" transform="translate(-24.86 -5.94)"/><path d="M944.52,725.31a15.55,15.55,0,0,1-6.08,2.36c-6.7,1.29-12.56-2-14.07-9.8-1.45-7.47,2.62-13.47,10-14.9a13,13,0,0,1,5.85,0l-.27,2.65a11.52,11.52,0,0,0-5-.06c-5.6,1.08-8.6,5.37-7.39,11.63,1.12,5.82,5.2,8.9,11,7.78a12.68,12.68,0,0,0,4.86-1.95Z" transform="translate(-24.86 -5.94)"/><path d="M961.77,717.14c.39,1.79.78,3.3,1.15,4.63l-2.73.6-.77-2.75-.09,0a6.48,6.48,0,0,1-4.94,4.39c-2.66.58-6.19-.22-7.48-6.18l-2.16-10,3.08-.67,2,9.4c.7,3.24,2.19,5.23,5,4.62a4.5,4.5,0,0,0,3.41-5.37L956,705.45l3.08-.66Z" transform="translate(-24.86 -5.94)"/><path d="M966,709.33c-.27-2.2-.56-4-.84-5.6l2.8-.35.54,2.92h.07a6.81,6.81,0,0,1,5.72-4.1c4.18-.52,7.77,2.61,8.43,7.86.77,6.22-2.66,9.76-6.71,10.27a6.12,6.12,0,0,1-5.66-2.06h-.07l1.17,9.4-3.12.39Zm3.7,4.23a5.52,5.52,0,0,0,.29,1.26,4.86,4.86,0,0,0,5.16,3.1c3.33-.41,4.91-3.38,4.42-7.34-.43-3.45-2.6-6.19-5.93-5.77a5,5,0,0,0-4.27,4.46,5.75,5.75,0,0,0,0,1.31Z" transform="translate(-24.86 -5.94)"/><path d="M989.78,696.41a1.92,1.92,0,0,1-1.91,2.07,1.9,1.9,0,0,1-2-1.87,2,2,0,1,1,3.92-.2Zm-2.4,22.48-.89-17.39,3.15-.16.89,17.39Z" transform="translate(-24.86 -5.94)"/><path d="M1629.78,507.9l-2.32,9.11,8.49,2.16,2.6-10.19,2.53.64-3.38,13.25-23.51-6,3.23-12.72,2.53.65-2.45,9.66,7.44,1.89,2.32-9.11Z" transform="translate(-24.86 -5.94)"/><path d="M1638.84,505.36a8.66,8.66,0,0,0,2.23-3.76c.57-2.24-.26-3.56-1.67-3.92s-2.48.32-3.89,2.35c-1.88,2.77-3.91,3.79-5.93,3.27-2.71-.69-4.38-3.47-3.46-7.1a8.45,8.45,0,0,1,2.09-3.87l2,1.33a6.92,6.92,0,0,0-1.88,3.21c-.46,1.81.34,3.06,1.61,3.39s2.27-.48,3.69-2.47c1.82-2.64,3.68-3.78,6.2-3.14,3,.76,4.49,3.62,3.47,7.6a9.85,9.85,0,0,1-2.38,4.45Z" transform="translate(-24.86 -5.94)"/><path d="M1624.8,482.7l4.86,1.24,1.12-4.41,2.32.59-1.12,4.41,9.09,2.31c2.1.54,3.45.24,3.88-1.48a6.41,6.41,0,0,0,.23-1.83l2.37.45a8.2,8.2,0,0,1-.27,2.85,4.44,4.44,0,0,1-2.15,3c-1.14.61-2.72.57-4.7.07l-9.21-2.34-.67,2.61-2.33-.59.67-2.62-4.06-1Z" transform="translate(-24.86 -5.94)"/><path d="M1636.92,477.41c-2-.51-3.71-.89-5.3-1.2l.69-2.69,3.34.72,0-.1a5.28,5.28,0,0,1-2.5-5.64,3.5,3.5,0,0,1,.3-.83l2.89.73a5,5,0,0,0-.36,1c-.55,2.16.69,4.11,2.88,5.11a8.84,8.84,0,0,0,1.4.49l9,2.29-.78,3.05Z" transform="translate(-24.86 -5.94)"/><path d="M1653.78,459.75l-2.2-.27,0,.09a6.51,6.51,0,0,1,1.2,5.81,5,5,0,0,1-6.15,3.91c-4.09-1-5.41-5.23-3.71-11.73l-.36-.1c-1.37-.34-4-.61-4.87,2.85a8.46,8.46,0,0,0,.14,4.72l-2.22.18a11,11,0,0,1-.06-5.95c1.31-5.15,5.16-5.51,8.54-4.66l6.31,1.61a27.42,27.42,0,0,0,4.11.78ZM1645,458c-.91,3.3-1.28,7.25,2,8.08a2.79,2.79,0,0,0,3.67-2.11,4.36,4.36,0,0,0-1.78-4.83,3.53,3.53,0,0,0-.93-.4Z" transform="translate(-24.86 -5.94)"/><path d="M1634.62,431.43l20.42,5.19c1.5.39,3.2.76,4.38,1l-.69,2.73-3-.59,0,.09a6.36,6.36,0,0,1,1.85,6.56c-1,4.09-5.3,6.36-10.42,5.06-5.65-1.41-8.18-5.78-7.14-9.89a5.81,5.81,0,0,1,3.86-4.44l0-.07-10.08-2.56Zm14,6.81a5.86,5.86,0,0,0-1.34-.21,4.67,4.67,0,0,0-4.66,3.55c-.81,3.17,1.49,5.78,5.2,6.73,3.43.87,6.71-.11,7.55-3.42a4.78,4.78,0,0,0-2.54-5.42,4.87,4.87,0,0,0-1.28-.49Z" transform="translate(-24.86 -5.94)"/><path d="M1663.07,423.28l-2.2-.28,0,.09a6.48,6.48,0,0,1,1.2,5.81,5,5,0,0,1-6.15,3.92c-4.09-1-5.41-5.24-3.71-11.74l-.36-.09c-1.37-.35-4-.61-4.86,2.85a8.43,8.43,0,0,0,.13,4.71l-2.22.18a11,11,0,0,1-.06-6c1.32-5.15,5.16-5.51,8.54-4.65l6.32,1.6a27.3,27.3,0,0,0,4.1.78Zm-8.73-1.72c-.92,3.3-1.29,7.26,2,8.09a2.79,2.79,0,0,0,3.67-2.12,4.37,4.37,0,0,0-1.78-4.83,3.19,3.19,0,0,0-.93-.39Z" transform="translate(-24.86 -5.94)"/><path d="M1645.79,387.56l20.42,5.2c1.5.38,3.2.75,4.39,1l-.7,2.73-3-.58,0,.08a6.37,6.37,0,0,1,1.84,6.56c-1,4.09-5.3,6.36-10.41,5.06-5.65-1.41-8.19-5.78-7.14-9.89a5.84,5.84,0,0,1,3.85-4.44l0-.07L1645,390.61Zm14,6.81a6.68,6.68,0,0,0-1.34-.21,4.7,4.7,0,0,0-4.67,3.55c-.8,3.17,1.5,5.78,5.21,6.73,3.42.87,6.7-.11,7.54-3.42a4.77,4.77,0,0,0-2.54-5.42,4.61,4.61,0,0,0-1.28-.49Z" transform="translate(-24.86 -5.94)"/><path d="M1667.16,371.27c6.25,1.59,7.88,6.63,6.85,10.68-1.17,4.58-5.4,7.26-10.76,5.9-5.64-1.44-8-6-6.81-10.66C1657.67,372.34,1662,370,1667.16,371.27ZM1664,384.7c3.7.94,7-.47,7.78-3.46s-1.44-5.84-5.27-6.82c-2.85-.72-6.83-.2-7.75,3.44S1660.76,383.89,1664,384.7Z" transform="translate(-24.86 -5.94)"/><path d="M1655.34,356.33a29.64,29.64,0,0,1,.87-5.68c.76-3,1.76-4.87,3.31-6a5.16,5.16,0,0,1,4.66-.93,5.72,5.72,0,0,1,4.17,5.26l.09,0a6.24,6.24,0,0,1,7.12-3.39,6.35,6.35,0,0,1,4.19,3.18c1.12,2,1.15,4.82.19,8.68a42.24,42.24,0,0,1-1.43,4.66Zm10.4-.64.69-2.79c.79-3.18-.43-5.49-2.72-6-2.73-.68-4.35,1.11-5.11,4.19a13,13,0,0,0-.46,2.76Zm11.26,2.8a14.25,14.25,0,0,0,.79-2.53c.79-3.16.35-6.34-3.07-7.2-3.2-.79-5.24,1.65-6.07,5l-.62,2.53Z" transform="translate(-24.86 -5.94)"/><path d="M1685.59,333.81l-2.2-.26,0,.09a6.52,6.52,0,0,1,1.23,5.8,5,5,0,0,1-6.13,4c-4.09-1-5.44-5.21-3.77-11.72l-.36-.09c-1.37-.34-4-.59-4.85,2.88a8.43,8.43,0,0,0,.16,4.71l-2.22.19a11,11,0,0,1-.09-5.94c1.28-5.17,5.12-5.55,8.51-4.71l6.32,1.57a27.1,27.1,0,0,0,4.11.75Zm-8.75-1.66c-.89,3.3-1.24,7.26,2,8.07a2.79,2.79,0,0,0,3.65-2.14,4.36,4.36,0,0,0-1.81-4.82,3.32,3.32,0,0,0-.93-.38Z" transform="translate(-24.86 -5.94)"/><path d="M1675,323.12c-1.76-.48-3.17-.79-4.58-1.09l.73-2.7,2.81.58,0-.09a6.41,6.41,0,0,1-1.65-6.4c.63-2.31,3-5.55,8.76-4l10,2.7-.82,3-9.69-2.61c-2.72-.73-5.27-.32-6,2.54a4.56,4.56,0,0,0,2,5,4.73,4.73,0,0,0,1.36.59l10.13,2.74-.82,3Z" transform="translate(-24.86 -5.94)"/><path d="M1672.84,285.49l20.11,6.3c1.48.46,3.16.93,4.33,1.21l-.84,2.68-2.92-.74,0,.08a6.36,6.36,0,0,1,1.49,6.65c-1.26,4-5.64,6.07-10.68,4.49-5.56-1.72-7.86-6.22-6.59-10.27a5.81,5.81,0,0,1,4.09-4.22l0-.07-9.92-3.1Zm13.6,7.56a6.41,6.41,0,0,0-1.33-.28,4.69,4.69,0,0,0-4.85,3.29c-1,3.13,1.18,5.86,4.83,7,3.38,1.06,6.71.26,7.73-3a5.09,5.09,0,0,0-3.5-6.11Z" transform="translate(-24.86 -5.94)"/><path d="M1691.59,284c4.1,1.22,6.6-.84,7.55-3.88a11.71,11.71,0,0,0,.59-4.87l2.31.15a14,14,0,0,1-.68,5.87c-1.59,5.11-6,7.11-10.94,5.55s-8-5.78-6.52-10.63c1.7-5.42,6.9-5.35,10-4.39a7.94,7.94,0,0,1,1.38.55Zm.6-9.52c-1.9-.63-5.14-.76-6.2,2.63-1,3.09,1.41,5.27,3.44,6.17Z" transform="translate(-24.86 -5.94)"/><path d="M1684,260.82a2,2,0,1,1-2.47,1.28A1.9,1.9,0,0,1,1684,260.82Zm20.25,10.06-16.61-5.21.94-3,16.61,5.2Z" transform="translate(-24.86 -5.94)"/><path d="M1695.29,259.27c-2-.61-3.65-1.09-5.21-1.48l.83-2.65,3.29.91,0-.11a5.28,5.28,0,0,1-2.18-5.77,3.72,3.72,0,0,1,.34-.81l2.85.89a5.3,5.3,0,0,0-.41,1c-.67,2.13.46,4.14,2.6,5.26a8.16,8.16,0,0,0,1.37.56l8.88,2.78-1,3Z" transform="translate(-24.86 -5.94)"/><path d="M1713.1,242.56l-2.18-.39,0,.08a6.47,6.47,0,0,1,.88,5.86,5,5,0,0,1-6.36,3.59c-4-1.27-5.11-5.52-3.06-11.93l-.35-.11c-1.35-.42-4-.83-5,2.58a8.55,8.55,0,0,0-.12,4.72l-2.22.06a10.88,10.88,0,0,1,.26-5.94c1.59-5.08,5.45-5.23,8.78-4.19l6.22,2a27.56,27.56,0,0,0,4,1Zm-8.63-2.19c-1.1,3.25-1.68,7.17,1.53,8.18a2.8,2.8,0,0,0,3.78-1.91,4.38,4.38,0,0,0-1.52-4.93,3.55,3.55,0,0,0-.9-.44Z" transform="translate(-24.86 -5.94)"/><path d="M1703.27,231.42c-1.73-.54-3.13-.91-4.53-1.26l.84-2.67,2.78.69,0-.09a6.41,6.41,0,0,1-1.39-6.47c.71-2.28,3.21-5.42,8.91-3.63l9.92,3.1-.95,3-9.58-3c-2.68-.85-5.25-.54-6.14,2.29a4.56,4.56,0,0,0,1.83,5,5.07,5.07,0,0,0,1.34.65l10,3.14-.94,3Z" transform="translate(-24.86 -5.94)"/><path d="M1701.07,206l4.78,1.5,1.36-4.35,2.29.72-1.36,4.34,9,2.81c2.07.65,3.42.42,4-1.27a6,6,0,0,0,.33-1.82l2.34.58a8,8,0,0,1-.43,2.83,4.39,4.39,0,0,1-2.3,2.86c-1.18.55-2.75.43-4.7-.18l-9.07-2.85-.81,2.58-2.29-.72.81-2.57-4-1.26Z" transform="translate(-24.86 -5.94)"/><path d="M1717.6,201c4.11,1.22,6.6-.84,7.55-3.88a11.56,11.56,0,0,0,.59-4.87l2.31.14a14,14,0,0,1-.67,5.88c-1.6,5.11-6,7.11-11,5.55s-8-5.78-6.52-10.63c1.7-5.42,6.9-5.35,10-4.39a7.62,7.62,0,0,1,1.38.55Zm.6-9.53c-1.9-.62-5.14-.75-6.2,2.64-1,3.08,1.41,5.27,3.44,6.17Z" transform="translate(-24.86 -5.94)"/><path class="cls-3" d="M1587.15,567.46,1541,729.38a9.94,9.94,0,0,1-12.78,6.68l-39.36-13.53a9.93,9.93,0,0,1-4.06-16.14c16.9-18.29,52.54-59.73,97.18-127.88.21-.32.4-.65.59-1,1-1.69,7.63-13.75,7.56-28.08" transform="translate(-24.86 -5.94)"/></g></g></svg>