<svg xmlns="http://www.w3.org/2000/svg" viewBox="0 0 1723.08 661.88"><defs><style>.cls-1{opacity:0.98;}.cls-2{fill:#cfdcfa;}.cls-2,.cls-3{stroke:#000;stroke-miterlimit:10;stroke-width:4px;}.cls-3{fill:none;}</style></defs><g id="Layer_2" data-name="Layer 2"><g id="Novo_Mapa" data-name="Novo Mapa"><g class="cls-1"><path d="M1320.58,373.56a33.21,33.21,0,0,1-.82-6c-.17-3.32.35-5.54,1.64-7.12a6.08,6.08,0,0,1,4.51-2.14,6.41,6.41,0,0,1,6.4,4.26h.09c.56-1.88,2.25-3.09,4.73-3.8a41.12,41.12,0,0,0,6.56-2.2l.16,3.25a33.11,33.11,0,0,1-5.72,1.88c-3.28.88-4.51,2.26-4.46,5.1l.15,3,10.5-.53.16,3.13Zm10.87-3.68-.16-3.2c-.17-3.35-2.1-5.38-4.87-5.24-3.15.16-4.4,2.5-4.24,5.8a12.88,12.88,0,0,0,.43,3.08Z" transform="translate(-10.99 -3.66)"/><path d="M1338,338.84c1.83-.09,3.38-.22,4.75-.38l.15,2.79-2.84.32v.09a6.49,6.49,0,0,1,3.52,5.59c.14,2.72-1.22,6.06-7.32,6.37l-10.16.51L1326,351l9.6-.48c3.31-.17,5.52-1.31,5.37-4.17a4.59,4.59,0,0,0-3.11-4,4.91,4.91,0,0,0-1.64-.21l-10.65.53-.15-3.14Z" transform="translate(-10.99 -3.66)"/><path d="M1342,323.69l-2.18.39v.1a6.46,6.46,0,0,1,2.85,5.19,5,5,0,0,1-4.72,5.56c-4.21.21-6.71-3.41-7-10.13l-.37,0c-1.41.07-4,.6-3.81,4.16a8.51,8.51,0,0,0,1.52,4.47l-2.06.82a11,11,0,0,1-1.82-5.66c-.26-5.32,3.3-6.79,6.79-7l6.5-.33a26,26,0,0,0,4.15-.47Zm-8.85.94c.1,3.43.91,7.31,4.27,7.14a2.78,2.78,0,0,0,2.88-3.1,4.35,4.35,0,0,0-3.12-4.09,3.24,3.24,0,0,0-1-.1Z" transform="translate(-10.99 -3.66)"/><path d="M1319.51,306.22l.38,7.38-2.65.14-.9-17.95,2.64-.13.38,7.42,21.58-1.09.16,3.15Z" transform="translate(-10.99 -3.66)"/><path d="M1328.55,294.21c-2,.1-3.8.24-5.41.42l-.14-2.77,3.41-.3v-.11a5.29,5.29,0,0,1-4.05-4.65,3.57,3.57,0,0,1,.05-.88l3-.15a5.21,5.21,0,0,0,0,1.08c.12,2.23,1.88,3.72,4.26,4a8,8,0,0,0,1.48.05l9.29-.47.16,3.15Z" transform="translate(-10.99 -3.66)"/><path d="M1339.45,272.38l-2.18.39v.1a6.51,6.51,0,0,1,2.86,5.19,5,5,0,0,1-4.73,5.56c-4.21.21-6.71-3.41-7-10.12H1328c-1.41.07-4,.6-3.81,4.16a8.44,8.44,0,0,0,1.53,4.47l-2.07.82a11,11,0,0,1-1.81-5.66c-.27-5.31,3.3-6.79,6.78-7l6.5-.32a27.1,27.1,0,0,0,4.15-.48Zm-8.85.94c.1,3.43.91,7.31,4.27,7.15a2.79,2.79,0,0,0,2.88-3.11,4.35,4.35,0,0,0-3.12-4.09,3.54,3.54,0,0,0-1-.1Z" transform="translate(-10.99 -3.66)"/><path d="M1321.64,264.64l9.57-3.9c1.58-.67,3-1.19,4.42-1.65V259c-1.47-.33-2.94-.76-4.57-1.23l-9.92-2.92-.16-3.3,17.73,6,.15,3-17,7.5Z" transform="translate(-10.99 -3.66)"/><path d="M1330,246.69c4.27-.28,5.9-3.08,5.74-6.26a11.91,11.91,0,0,0-1.13-4.77l2.21-.66a14.05,14.05,0,0,1,1.4,5.74c.27,5.34-3.13,8.74-8.34,9s-9.54-2.64-9.8-7.71c-.28-5.67,4.62-7.41,7.82-7.57a7.37,7.37,0,0,1,1.49,0Zm-2.74-9.14c-2,.07-5.08,1.07-4.9,4.62.16,3.22,3.15,4.45,5.36,4.59Z" transform="translate(-10.99 -3.66)"/><path d="M1334.13,230.65a8.62,8.62,0,0,0,1-4.26c-.12-2.31-1.31-3.32-2.76-3.25s-2.27,1-3,3.39c-1,3.2-2.62,4.78-4.7,4.87-2.8.14-5.21-2-5.4-5.76a8.35,8.35,0,0,1,.86-4.31l2.33.67a6.94,6.94,0,0,0-.84,3.62c.09,1.87,1.22,2.83,2.53,2.76s2-1.13,2.8-3.45c1-3.05,2.4-4.68,5-4.82,3.08-.16,5.36,2.13,5.57,6.24a9.84,9.84,0,0,1-1,4.94Z" transform="translate(-10.99 -3.66)"/><path d="M1333.41,216.41a8.62,8.62,0,0,0,1-4.26c-.11-2.3-1.3-3.32-2.76-3.24s-2.27,1-3,3.39c-1,3.2-2.61,4.77-4.7,4.87-2.8.14-5.21-2-5.4-5.76a8.57,8.57,0,0,1,.86-4.32l2.34.67a6.83,6.83,0,0,0-.85,3.62c.1,1.87,1.22,2.83,2.53,2.76s2-1.12,2.8-3.45c1-3.05,2.4-4.68,5-4.82,3.08-.16,5.36,2.13,5.56,6.24a10,10,0,0,1-1,4.94Z" transform="translate(-10.99 -3.66)"/><path d="M1335.41,191.92l-2.18.39v.09a6.46,6.46,0,0,1,2.86,5.19,5,5,0,0,1-4.72,5.56c-4.21.22-6.71-3.4-7-10.12l-.37,0c-1.41.07-4,.6-3.81,4.16a8.45,8.45,0,0,0,1.52,4.46l-2.07.83a11,11,0,0,1-1.81-5.67c-.27-5.31,3.3-6.79,6.79-7l6.5-.33a27.32,27.32,0,0,0,4.15-.47Zm-8.85.94c.1,3.42.91,7.31,4.27,7.14a2.78,2.78,0,0,0,2.88-3.1,4.37,4.37,0,0,0-3.12-4.09,3,3,0,0,0-1-.1Z" transform="translate(-10.99 -3.66)"/><path d="M1310.74,177.72a42.66,42.66,0,0,1-.86-6.64c-.22-4.48.68-7.75,2.55-10s4.6-3.67,8.5-3.86a12.92,12.92,0,0,1,9.6,3c2.37,2.18,3.8,5.86,4,10.55a49.59,49.59,0,0,1,0,5.71ZM1332,173.5a25.65,25.65,0,0,0,0-3.16c-.32-6.71-4.24-10.13-10.79-9.8-5.73.25-9.18,3.67-8.85,10.27a18.6,18.6,0,0,0,.51,3.65Z" transform="translate(-10.99 -3.66)"/><path d="M1323.78,137.23c6.44-.33,9.48,4,9.69,8.18.24,4.71-3,8.53-8.54,8.81-5.81.29-9.41-3.37-9.65-8.18C1315,141.05,1318.48,137.49,1323.78,137.23Zm.9,13.77c3.81-.19,6.57-2.52,6.42-5.6s-3.1-5.16-7-5c-2.94.15-6.59,1.82-6.4,5.57S1321.38,151.17,1324.68,151Z" transform="translate(-10.99 -3.66)"/><path d="M1310,130.37a2,2,0,1,1,.2,3.92,1.93,1.93,0,0,1-2.07-1.87A1.89,1.89,0,0,1,1310,130.37Zm22.48,2.41-17.39.87-.15-3.14,17.38-.88Z" transform="translate(-10.99 -3.66)"/><path d="M1328.82,125a8.62,8.62,0,0,0,1-4.26c-.12-2.3-1.31-3.32-2.76-3.25s-2.27,1-3,3.4c-1,3.19-2.62,4.77-4.7,4.86-2.8.14-5.21-2-5.4-5.75a8.48,8.48,0,0,1,.85-4.32l2.34.67a6.94,6.94,0,0,0-.84,3.62c.09,1.87,1.22,2.83,2.53,2.76s2-1.13,2.8-3.45c1-3.05,2.4-4.68,5-4.82,3.08-.16,5.36,2.13,5.57,6.24a9.84,9.84,0,0,1-1,4.94Z" transform="translate(-10.99 -3.66)"/></g><path class="cls-2" d="M1292.76,68.67s17.83,373.76,17.8,374.63c-.67,21.5-17.8,21.43-17.8,21.43l-364.11-10c-9.85,1.23-20.47-9.52-25.59-15.56a34,34,0,0,1-4.81-7.72C816.09,254.43,483,262.63,461.57,261.52c-.63,0-27.58.76-27.58.76-14.94.46-28.22,5.65-28.22,23.42V285c0,18,13.64,22.7,28.83,22.76,80.51.34,288.56-7.91,405.73,125a32,32,0,0,1,4.25,6.25l3.94,7.48a34.28,34.28,0,0,1,2.09,4.84c5.15,15.22-1.34,15.3-7.83,16.85-6.86,1.63-176.78,66.64-244.52,78-63.49,10.7-398.74,54.34-440.47,59.76a75.75,75.75,0,0,1-8.38.56c-12.34,0-20.56-16.3-20.56-16.3L48,231.69C45.22,212.13,63,205.61,63,205.61s403-70.1,663.53-101.08,547-48.9,547-48.9C1296.87,55.63,1292.76,68.67,1292.76,68.67Z" transform="translate(-10.99 -3.66)"/><path class="cls-2" d="M1339.28,61s17.79,373.75,17.8,374.63c2.85,27.55,22.05,27.55,22.05,27.55l276.92-9.78c21.94,1.63,23.31-26.08,23.31-26.08s10.26-152.77,9.24-165.23-23.8-206.45-23.8-206.45c-1.89-13-17-14.67-17-14.67l-293.38,6.52C1339.37,49.11,1339.28,61,1339.28,61Z" transform="translate(-10.99 -3.66)"/><path class="cls-3" d="M176.58,663.54A78.61,78.61,0,0,0,185,663c41.73-5.42,377-49.06,440.47-59.76,67.73-11.41,177.66-55.43,184.51-57.06,0,0,79.43-33.62,103.74-33.62L1313.25,515l83.17,3.48,276.92-9.78" transform="translate(-10.99 -3.66)"/><g class="cls-1"><path d="M107.12,157.69a33.34,33.34,0,0,1,5.88-1.43c3.29-.5,5.55-.2,7.25.92a6.06,6.06,0,0,1,2.58,4.27,6.4,6.4,0,0,1-3.59,6.8v.09c1.93.36,3.3,1.92,4.26,4.32a40.54,40.54,0,0,0,2.85,6.3l-3.22.49a33.12,33.12,0,0,1-2.45-5.5c-1.21-3.18-2.7-4.25-5.52-3.92l-2.93.45,1.58,10.39-3.09.47Zm4.76,10.44,3.17-.48c3.31-.51,5.14-2.63,4.72-5.38-.48-3.12-2.93-4.13-6.2-3.63a12.85,12.85,0,0,0-3,.74Z" transform="translate(-10.99 -3.66)"/><path d="M143.42,171.54c.28,1.81.57,3.34.86,4.69l-2.76.42-.6-2.79-.09,0a6.5,6.5,0,0,1-5.21,4.07c-2.69.41-6.15-.61-7.07-6.64L127,161.25l3.11-.47,1.45,9.5c.5,3.28,1.86,5.36,4.68,4.93a4.62,4.62,0,0,0,3.71-3.5,5,5,0,0,0,0-1.65l-1.61-10.54,3.12-.48Z" transform="translate(-10.99 -3.66)"/><path d="M158.9,174l-.61-2.13-.09,0a6.47,6.47,0,0,1-4.87,3.36,5,5,0,0,1-6-4.13c-.64-4.17,2.71-7,9.36-8l-.05-.37c-.22-1.4-1-3.93-4.53-3.37a8.4,8.4,0,0,0-4.28,2l-1-2a11,11,0,0,1,5.45-2.37c5.26-.8,7.09,2.6,7.61,6.05l1,6.43a28.32,28.32,0,0,0,.89,4.08Zm-1.83-8.71c-3.39.44-7.18,1.64-6.67,5a2.79,2.79,0,0,0,3.38,2.55,4.36,4.36,0,0,0,3.75-3.52,3.11,3.11,0,0,0,0-1Z" transform="translate(-10.99 -3.66)"/><path d="M173.59,147.22l2.17,14.22c.81,5.35,3.53,7.26,6.77,6.76,3.53-.53,5.47-3.24,4.67-8.51L185,145.48l3.11-.47,2.13,14c1.13,7.37-2.29,11-7.49,11.76-4.9.75-9-1.48-10.16-8.93l-2.15-14.13Z" transform="translate(-10.99 -3.66)"/><path d="M193.23,142.92l3.12-.47,3.85,25.26-3.12.48Z" transform="translate(-10.99 -3.66)"/><path d="M205.62,144.3a1.91,1.91,0,0,1-1.7,2.25,1.88,1.88,0,0,1-2.18-1.66,2,2,0,1,1,3.88-.59Zm-.14,22.61-2.62-17.21,3.11-.48,2.63,17.21Z" transform="translate(-10.99 -3.66)"/><path d="M212.88,162.52a8.65,8.65,0,0,0,4.33.59c2.29-.34,3.18-1.63,3-3.07s-1.26-2.15-3.68-2.66c-3.28-.65-5-2.12-5.32-4.19-.42-2.77,1.49-5.39,5.19-5.95a8.4,8.4,0,0,1,4.38.42l-.44,2.39a6.81,6.81,0,0,0-3.68-.47c-1.85.28-2.69,1.5-2.49,2.79s1.33,1.91,3.71,2.44c3.14.65,4.91,1.91,5.31,4.48.46,3.05-1.58,5.55-5.65,6.17a10,10,0,0,1-5-.46Z" transform="translate(-10.99 -3.66)"/><path d="M227,160.37a8.69,8.69,0,0,0,4.34.6c2.28-.35,3.17-1.64,2.95-3.08s-1.26-2.15-3.68-2.66c-3.28-.65-5-2.12-5.31-4.18-.42-2.78,1.48-5.39,5.18-6a8.5,8.5,0,0,1,4.38.42l-.43,2.39a6.87,6.87,0,0,0-3.69-.47c-1.84.28-2.68,1.5-2.49,2.8s1.33,1.9,3.72,2.43c3.13.66,4.9,1.92,5.3,4.49.46,3-1.58,5.54-5.65,6.16a9.88,9.88,0,0,1-5-.46Z" transform="translate(-10.99 -3.66)"/><path d="M242.52,153c.71,4.22,3.66,5.55,6.8,5.08a11.91,11.91,0,0,0,4.63-1.61l.89,2.14a14.06,14.06,0,0,1-5.57,2c-5.29.8-9-2.23-9.79-7.4s1.65-9.75,6.68-10.52c5.61-.85,7.83,3.85,8.31,7a7.54,7.54,0,0,1,.12,1.48Zm8.82-3.65c-.27-2-1.58-4.94-5.09-4.41-3.19.49-4.11,3.58-4,5.8Z" transform="translate(-10.99 -3.66)"/><path d="M258.9,155.51a8.53,8.53,0,0,0,4.33.59c2.29-.34,3.18-1.63,3-3.07s-1.26-2.15-3.68-2.66c-3.28-.65-5-2.12-5.32-4.19-.42-2.77,1.48-5.39,5.19-6a8.34,8.34,0,0,1,4.37.42l-.43,2.39a6.83,6.83,0,0,0-3.68-.47c-1.85.28-2.69,1.5-2.49,2.79s1.32,1.91,3.71,2.44c3.14.65,4.9,1.91,5.3,4.48.47,3.05-1.58,5.55-5.64,6.17a10,10,0,0,1-5-.46Z" transform="translate(-10.99 -3.66)"/><path d="M299.67,151.46a22.1,22.1,0,0,1-7.17,2.44c-3.64.55-6.78.09-9.45-1.81a12.34,12.34,0,0,1-4.69-8.39c-1.08-7.16,3-13.14,11.07-14.37a15.19,15.19,0,0,1,6.17.19l-.39,2.64a12.42,12.42,0,0,0-5.45-.22c-5.82.89-9.08,5.09-8.17,11.1s5.12,9.12,10.73,8.26a9.91,9.91,0,0,0,4-1.27l-1.09-7.14-4.85.74-.38-2.48,7.9-1.2Z" transform="translate(-10.99 -3.66)"/><path d="M318.2,144.92c.27,1.8.57,3.34.86,4.69l-2.77.42-.59-2.79h-.09a6.48,6.48,0,0,1-5.21,4.07c-2.69.41-6.15-.6-7.07-6.63l-1.54-10.06,3.12-.48,1.45,9.51c.5,3.28,1.86,5.36,4.68,4.93a4.63,4.63,0,0,0,3.71-3.51,5,5,0,0,0,0-1.65l-1.61-10.54,3.11-.47Z" transform="translate(-10.99 -3.66)"/><path d="M324.27,126.23a2,2,0,0,1-3.88.59,1.92,1.92,0,0,1,1.65-2.25A1.89,1.89,0,0,1,324.27,126.23Zm-.13,22.6-2.63-17.21,3.12-.47,2.62,17.21Z" transform="translate(-10.99 -3.66)"/><path d="M330.55,135c-.27-1.79-.55-3.21-.85-4.62l2.72-.42.59,2.75.08,0a6,6,0,0,1,5-4,5.11,5.11,0,0,1,5.38,2.71h.07a7,7,0,0,1,1.6-2.54,6,6,0,0,1,3.6-1.79c2.3-.35,5.91.62,6.82,6.6l1.55,10.14-3.06.46-1.48-9.73c-.51-3.33-2-5.12-4.54-4.74a4.14,4.14,0,0,0-3.3,3.39,5,5,0,0,0,0,1.6l1.62,10.66-3.06.46-1.57-10.32c-.42-2.75-1.93-4.53-4.29-4.17a4.38,4.38,0,0,0-3.43,3.72,5.16,5.16,0,0,0,0,1.57l1.58,10.38-3.06.46Z" transform="translate(-10.99 -3.66)"/><path d="M371.69,141.59l-.61-2.13H371a6.48,6.48,0,0,1-4.88,3.37,5,5,0,0,1-6-4.14c-.63-4.17,2.71-7,9.37-8l-.06-.37c-.21-1.4-1-3.93-4.52-3.37a8.46,8.46,0,0,0-4.29,2l-1-2a11,11,0,0,1,5.45-2.38c5.26-.8,7.09,2.6,7.61,6l1,6.44a28.32,28.32,0,0,0,.89,4.08Zm-1.83-8.71c-3.4.44-7.18,1.64-6.67,5a2.78,2.78,0,0,0,3.37,2.55,4.37,4.37,0,0,0,3.76-3.52,3.41,3.41,0,0,0,0-1Z" transform="translate(-10.99 -3.66)"/><path d="M377.49,128.58c-.31-2-.63-3.75-1-5.34l2.74-.41.64,3.35H380a5.27,5.27,0,0,1,4.22-4.5,3.84,3.84,0,0,1,.88,0l.45,2.95a4.68,4.68,0,0,0-1.08.07c-2.21.34-3.51,2.24-3.58,4.64a8.56,8.56,0,0,0,.1,1.48l1.4,9.2-3.12.47Z" transform="translate(-10.99 -3.66)"/><path d="M400.3,137.23l-.61-2.13h-.09a6.48,6.48,0,0,1-4.87,3.37,5,5,0,0,1-6-4.14c-.64-4.17,2.71-7,9.36-8L398,126c-.21-1.4-1-3.93-4.53-3.37a8.39,8.39,0,0,0-4.28,2l-1-2a10.89,10.89,0,0,1,5.45-2.37c5.26-.8,7.09,2.6,7.62,6l1,6.44a27.09,27.09,0,0,0,.88,4.08Zm-11.14-18.95c-.41-2.32.34-3.85,1.86-4.08a4.79,4.79,0,0,1,2.34.45A3.54,3.54,0,0,0,395,115c.55-.08.85-.46.75-1.66l1.66-.25c.4,2.35-.21,3.71-1.88,4a4.58,4.58,0,0,1-2.29-.41,3.37,3.37,0,0,0-1.63-.39c-.56.08-.76.74-.68,1.74Zm9.32,10.24c-3.4.44-7.19,1.64-6.68,5a2.79,2.79,0,0,0,3.38,2.55,4.36,4.36,0,0,0,3.75-3.52,3.11,3.11,0,0,0,0-1Z" transform="translate(-10.99 -3.66)"/><path d="M408.44,127.77c.71,4.22,3.66,5.55,6.8,5.07a11.59,11.59,0,0,0,4.63-1.61l.89,2.14a14,14,0,0,1-5.58,2c-5.28.8-9-2.24-9.79-7.4s1.66-9.76,6.69-10.52c5.61-.86,7.83,3.84,8.31,7a7.68,7.68,0,0,1,.12,1.49Zm8.82-3.65c-.27-2-1.58-5-5.09-4.41-3.2.49-4.12,3.58-4,5.8Z" transform="translate(-10.99 -3.66)"/><path d="M424.81,130.24a8.69,8.69,0,0,0,4.34.59c2.28-.35,3.17-1.63,3-3.07s-1.26-2.16-3.67-2.67c-3.29-.65-5-2.12-5.32-4.18-.42-2.77,1.48-5.39,5.18-6a8.51,8.51,0,0,1,4.38.41l-.43,2.4a6.85,6.85,0,0,0-3.69-.48c-1.84.28-2.68,1.5-2.49,2.8s1.33,1.9,3.72,2.44c3.13.65,4.9,1.91,5.3,4.48.46,3-1.58,5.55-5.65,6.16a9.82,9.82,0,0,1-5-.46Z" transform="translate(-10.99 -3.66)"/></g><g class="cls-1"><path d="M634.08,78.22A32.62,32.62,0,0,1,640,77c3.3-.37,5.55,0,7.21,1.2a6,6,0,0,1,2.4,4.37,6.39,6.39,0,0,1-3.85,6.65v.09c1.91.44,3.21,2,4.08,4.49a39.5,39.5,0,0,0,2.6,6.4l-3.23.37A31.36,31.36,0,0,1,647,95c-1.09-3.22-2.54-4.35-5.37-4.13l-3,.33,1.18,10.45-3.12.35Zm4.34,10.62,3.18-.35c3.33-.38,5.24-2.43,4.93-5.19-.35-3.13-2.76-4.24-6-3.88a14.13,14.13,0,0,0-3.05.62Z" transform="translate(-10.99 -3.66)"/><path d="M669.8,93.5c.2,1.81.44,3.35.67,4.71l-2.78.32-.48-2.81h-.09a6.5,6.5,0,0,1-5.36,3.86c-2.71.3-6.13-.85-6.81-6.91l-1.14-10.11,3.13-.36L658,91.77c.37,3.3,1.64,5.43,4.48,5.11a4.51,4.51,0,0,0,4-5l-1.19-10.6,3.13-.35Z" transform="translate(-10.99 -3.66)"/><path d="M685.17,96.57l-.52-2.16h-.1a6.44,6.44,0,0,1-5,3.17,5,5,0,0,1-5.84-4.37c-.47-4.19,3-6.91,9.67-7.61l0-.37c-.16-1.4-.84-4-4.39-3.54a8.49,8.49,0,0,0-4.36,1.79l-1-2a11,11,0,0,1,5.54-2.16c5.29-.59,7,2.88,7.37,6.34l.73,6.48a27.63,27.63,0,0,0,.73,4.11Zm-1.48-8.78c-3.41.31-7.24,1.36-6.87,4.7a2.78,2.78,0,0,0,3.28,2.68A4.35,4.35,0,0,0,684,91.8a3.41,3.41,0,0,0,0-1Z" transform="translate(-10.99 -3.66)"/><path d="M700.91,70.39l1.6,14.28c.6,5.38,3.25,7.4,6.5,7,3.55-.4,5.6-3,5-8.32l-1.6-14.28,3.13-.35,1.58,14.06c.83,7.41-2.73,10.88-8,11.46-4.93.55-9-1.84-9.8-9.33l-1.59-14.2Z" transform="translate(-10.99 -3.66)"/><path d="M720.7,66.86l3.13-.35,2.85,25.4-3.13.35Z" transform="translate(-10.99 -3.66)"/><path d="M733,68.73a1.91,1.91,0,0,1-1.78,2.18,1.89,1.89,0,0,1-2.12-1.74A1.93,1.93,0,0,1,730.86,67,1.89,1.89,0,0,1,733,68.73Zm-1,22.58L730.05,74l3.13-.35L735.12,91Z" transform="translate(-10.99 -3.66)"/><path d="M739.56,87.22a8.55,8.55,0,0,0,4.31.76c2.3-.25,3.23-1.5,3.07-3s-1.17-2.2-3.57-2.81c-3.25-.78-4.92-2.31-5.15-4.39-.31-2.78,1.7-5.32,5.42-5.74a8.41,8.41,0,0,1,4.36.59l-.53,2.37a6.88,6.88,0,0,0-3.66-.62c-1.86.21-2.75,1.4-2.6,2.7s1.25,2,3.61,2.58c3.11.78,4.83,2.11,5.13,4.69.34,3.07-1.8,5.48-5.89,5.94a10,10,0,0,1-5-.66Z" transform="translate(-10.99 -3.66)"/><path d="M753.73,85.63a8.63,8.63,0,0,0,4.31.77c2.29-.26,3.23-1.51,3.07-3s-1.18-2.2-3.57-2.8c-3.25-.79-4.92-2.32-5.15-4.39-.31-2.79,1.7-5.33,5.42-5.75a8.36,8.36,0,0,1,4.35.59l-.52,2.37a6.88,6.88,0,0,0-3.66-.62c-1.86.21-2.75,1.4-2.6,2.7s1.24,2,3.61,2.58c3.11.78,4.83,2.11,5.12,4.69.35,3.07-1.79,5.48-5.88,5.94a10,10,0,0,1-5-.66Z" transform="translate(-10.99 -3.66)"/><path d="M769.55,78.92c.54,4.24,3.44,5.69,6.6,5.34a11.7,11.7,0,0,0,4.69-1.43l.8,2.18A14.15,14.15,0,0,1,776,86.76c-5.31.59-8.91-2.59-9.49-7.78s2-9.68,7.09-10.25c5.65-.63,7.68,4.15,8,7.34a7.28,7.28,0,0,1,0,1.49Zm9-3.3c-.19-2-1.39-5-4.91-4.61-3.21.36-4.26,3.42-4.26,5.64Z" transform="translate(-10.99 -3.66)"/><path d="M785.82,82a8.63,8.63,0,0,0,4.31.77c2.29-.26,3.23-1.51,3.07-3s-1.17-2.2-3.57-2.8c-3.25-.79-4.92-2.32-5.15-4.39-.31-2.79,1.7-5.33,5.42-5.75a8.36,8.36,0,0,1,4.35.59l-.52,2.38a6.69,6.69,0,0,0-3.66-.62c-1.86.2-2.75,1.39-2.6,2.69s1.25,2,3.61,2.58c3.11.78,4.83,2.11,5.12,4.69.35,3.07-1.79,5.48-5.88,5.94a10,10,0,0,1-5-.66Z" transform="translate(-10.99 -3.66)"/><path d="M826.72,79.59a22.21,22.21,0,0,1-7.26,2.16c-3.66.41-6.78-.18-9.38-2.18A12.36,12.36,0,0,1,805.73,71c-.8-7.2,3.56-13,11.63-13.92a15.29,15.29,0,0,1,6.16.43L823,60.13a12.46,12.46,0,0,0-5.45-.43c-5.85.66-9.27,4.73-8.59,10.77s4.75,9.31,10.39,8.68A10,10,0,0,0,823.45,78l-.81-7.18-4.88.55-.28-2.49,7.94-.89Z" transform="translate(-10.99 -3.66)"/><path d="M845.49,73.79c.2,1.81.44,3.36.68,4.71l-2.79.32L842.9,76h-.09a6.5,6.5,0,0,1-5.36,3.86c-2.71.3-6.13-.85-6.81-6.91l-1.13-10.11,3.13-.35,1.07,9.55c.37,3.3,1.65,5.43,4.49,5.11A4.64,4.64,0,0,0,842,73.81a4.82,4.82,0,0,0,.1-1.64L841,61.57l3.13-.35Z" transform="translate(-10.99 -3.66)"/><path d="M852.29,55.35a2,2,0,1,1-3.9.44,1.93,1.93,0,0,1,1.74-2.18A1.89,1.89,0,0,1,852.29,55.35Zm-1,22.58-1.94-17.3,3.13-.35,1.94,17.3Z" transform="translate(-10.99 -3.66)"/><path d="M858.22,64.37c-.2-1.81-.42-3.24-.66-4.66l2.73-.31.48,2.77h.09a6,6,0,0,1,5.1-3.79,5.12,5.12,0,0,1,5.27,2.92h.07a6.92,6.92,0,0,1,1.7-2.47,5.94,5.94,0,0,1,3.67-1.64c2.31-.26,5.87.85,6.55,6.86l1.14,10.19-3.07.34-1.1-9.78c-.37-3.35-1.83-5.2-4.35-4.91a4.12,4.12,0,0,0-3.42,3.25,5,5,0,0,0-.08,1.61l1.2,10.7-3.07.35L869.3,65.4c-.31-2.76-1.75-4.6-4.13-4.34a4.37,4.37,0,0,0-3.56,3.58,4.86,4.86,0,0,0-.07,1.58l1.17,10.43-3.07.34Z" transform="translate(-10.99 -3.66)"/><path d="M899.07,72.57l-.52-2.15h-.1a6.49,6.49,0,0,1-5,3.17,5,5,0,0,1-5.84-4.37c-.47-4.19,3-6.91,9.67-7.61l0-.37c-.16-1.41-.84-4-4.39-3.55a8.42,8.42,0,0,0-4.36,1.8l-1-2a11,11,0,0,1,5.54-2.15c5.29-.6,7,2.87,7.37,6.34l.73,6.47a27.17,27.17,0,0,0,.73,4.11Zm-1.48-8.78c-3.41.31-7.24,1.36-6.87,4.7A2.8,2.8,0,0,0,894,71.18a4.37,4.37,0,0,0,3.89-3.37,3.49,3.49,0,0,0,0-1Z" transform="translate(-10.99 -3.66)"/><path d="M905.38,59.8c-.23-2-.48-3.78-.75-5.37l2.76-.31.5,3.38H908a5.3,5.3,0,0,1,4.39-4.33,3.81,3.81,0,0,1,.89,0l.33,3a5,5,0,0,0-1.08,0c-2.22.25-3.6,2.09-3.76,4.5a8.28,8.28,0,0,0,0,1.48l1,9.24-3.14.35Z" transform="translate(-10.99 -3.66)"/><path d="M927.83,69.34l-.52-2.15h-.09a6.48,6.48,0,0,1-5,3.17A5,5,0,0,1,916.37,66c-.47-4.19,3-6.91,9.68-7.61l0-.37c-.16-1.4-.85-4-4.39-3.55a8.42,8.42,0,0,0-4.36,1.8l-1-2a10.88,10.88,0,0,1,5.54-2.16c5.29-.59,7,2.88,7.37,6.34l.72,6.47a27.55,27.55,0,0,0,.73,4.12ZM917.45,50c-.33-2.33.49-3.84,2-4a4.88,4.88,0,0,1,2.32.55,3.61,3.61,0,0,0,1.57.44c.56-.06.87-.43.81-1.63l1.68-.19c.3,2.37-.36,3.7-2,3.89a4.59,4.59,0,0,1-2.27-.5,3.45,3.45,0,0,0-1.61-.46c-.57.06-.8.71-.76,1.72Zm8.9,10.59c-3.41.31-7.24,1.36-6.86,4.71A2.78,2.78,0,0,0,922.76,68a4.35,4.35,0,0,0,3.89-3.37,3.49,3.49,0,0,0,0-1Z" transform="translate(-10.99 -3.66)"/><path d="M936.34,60.21c.54,4.24,3.43,5.69,6.59,5.34a11.49,11.49,0,0,0,4.69-1.43l.81,2.18a14.2,14.2,0,0,1-5.65,1.75c-5.32.59-8.91-2.59-9.49-7.78s2-9.68,7.09-10.25c5.64-.63,7.67,4.15,8,7.34a7.44,7.44,0,0,1,.06,1.49Zm8.95-3.3c-.19-2-1.38-5-4.91-4.61-3.21.36-4.25,3.42-4.26,5.64Z" transform="translate(-10.99 -3.66)"/><path d="M952.6,63.32a8.66,8.66,0,0,0,4.31.77c2.3-.26,3.24-1.51,3.07-3s-1.17-2.2-3.57-2.8c-3.25-.79-4.92-2.32-5.14-4.39-.32-2.79,1.69-5.33,5.41-5.75a8.41,8.41,0,0,1,4.36.59l-.53,2.38a6.67,6.67,0,0,0-3.66-.62c-1.86.2-2.75,1.39-2.6,2.69s1.25,2,3.62,2.58c3.1.78,4.82,2.11,5.12,4.69.34,3.07-1.8,5.48-5.89,5.94a9.91,9.91,0,0,1-5-.66Z" transform="translate(-10.99 -3.66)"/></g><g class="cls-1"><path d="M1167.25,25.92a32.73,32.73,0,0,1,6-1c3.32-.26,5.55.21,7.16,1.45a6,6,0,0,1,2.25,4.46,6.41,6.41,0,0,1-4.09,6.51v.09c1.89.5,3.14,2.16,3.92,4.62a39.72,39.72,0,0,0,2.37,6.5l-3.24.25a31.28,31.28,0,0,1-2-5.67c-1-3.26-2.38-4.44-5.22-4.32l-2.95.22.8,10.49-3.13.24Zm4,10.77,3.19-.24c3.34-.26,5.32-2.24,5.11-5-.24-3.15-2.61-4.34-5.91-4.09a13.25,13.25,0,0,0-3.07.51Z" transform="translate(-10.99 -3.66)"/><path d="M1202.41,42.45c.14,1.82.32,3.37.51,4.74l-2.79.21-.39-2.82h-.09a6.49,6.49,0,0,1-5.49,3.68c-2.72.2-6.1-1.07-6.56-7.15L1186.82,31l3.14-.24.73,9.59c.26,3.31,1.46,5.48,4.31,5.26a4.62,4.62,0,0,0,4-3.22,5.25,5.25,0,0,0,.16-1.64l-.81-10.63,3.14-.24Z" transform="translate(-10.99 -3.66)"/><path d="M1217.66,46.06l-.44-2.17h-.1a6.47,6.47,0,0,1-5.11,3,5,5,0,0,1-5.68-4.57c-.32-4.21,3.22-6.8,9.93-7.27l0-.37c-.1-1.41-.7-4-4.25-3.7a8.59,8.59,0,0,0-4.43,1.64l-.87-2a10.82,10.82,0,0,1,5.61-2c5.31-.41,6.88,3.12,7.14,6.6l.5,6.49a26.17,26.17,0,0,0,.58,4.13Zm-1.17-8.82c-3.42.18-7.28,1.1-7,4.45a2.79,2.79,0,0,0,3.18,2.8,4.34,4.34,0,0,0,4-3.23,3.15,3.15,0,0,0,.07-1Z" transform="translate(-10.99 -3.66)"/><path d="M1234.32,20.46l1.09,14.33c.42,5.4,3,7.51,6.25,7.26,3.56-.28,5.7-2.82,5.29-8.14l-1.09-14.33,3.14-.24,1.08,14.11c.57,7.44-3.11,10.77-8.36,11.17-4.93.38-8.88-2.16-9.45-9.67l-1.09-14.25Z" transform="translate(-10.99 -3.66)"/><path d="M1254.22,17.64l3.14-.24,2,25.48-3.14.24Z" transform="translate(-10.99 -3.66)"/><path d="M1266.47,19.94a1.91,1.91,0,0,1-1.86,2.11,1.89,1.89,0,0,1-2.06-1.81,1.93,1.93,0,0,1,1.82-2.12A1.9,1.9,0,0,1,1266.47,19.94Zm-1.83,22.53-1.32-17.36,3.14-.24,1.32,17.36Z" transform="translate(-10.99 -3.66)"/><path d="M1272.35,38.65a8.67,8.67,0,0,0,4.28.92c2.3-.18,3.28-1.39,3.17-2.85s-1.09-2.24-3.47-2.93c-3.22-.89-4.83-2.49-5-4.57-.22-2.79,1.88-5.26,5.61-5.55a8.41,8.41,0,0,1,4.33.75l-.6,2.35a6.87,6.87,0,0,0-3.64-.75c-1.87.14-2.8,1.3-2.7,2.6s1.18,2,3.53,2.71c3.07.89,4.74,2.28,4.95,4.87.23,3.08-2,5.41-6.09,5.73a10,10,0,0,1-5-.84Z" transform="translate(-10.99 -3.66)"/><path d="M1286.56,37.56a8.67,8.67,0,0,0,4.28.92c2.31-.18,3.29-1.39,3.18-2.84s-1.1-2.25-3.47-2.93c-3.22-.9-4.84-2.49-5-4.57-.21-2.8,1.88-5.27,5.62-5.55a8.33,8.33,0,0,1,4.33.74l-.61,2.36a6.77,6.77,0,0,0-3.64-.75c-1.86.14-2.79,1.29-2.69,2.6s1.18,2,3.52,2.71c3.08.88,4.75,2.27,5,4.86.24,3.08-2,5.42-6.09,5.73a9.93,9.93,0,0,1-5-.84Z" transform="translate(-10.99 -3.66)"/><path d="M1302.62,31.41c.39,4.26,3.23,5.82,6.4,5.57a11.73,11.73,0,0,0,4.74-1.25l.72,2.2a14,14,0,0,1-5.7,1.55c-5.34.4-8.82-2.9-9.21-8.11s2.38-9.61,7.45-10c5.66-.44,7.52,4.42,7.76,7.61a8.22,8.22,0,0,1,0,1.49Zm9.06-3c-.12-2-1.2-5.05-4.74-4.78-3.22.24-4.37,3.26-4.46,5.48Z" transform="translate(-10.99 -3.66)"/><path d="M1318.76,35.1A8.67,8.67,0,0,0,1323,36c2.3-.18,3.29-1.39,3.18-2.84s-1.1-2.25-3.47-2.94c-3.23-.89-4.84-2.48-5-4.56-.22-2.8,1.88-5.27,5.61-5.55a8.35,8.35,0,0,1,4.34.74l-.61,2.35a7,7,0,0,0-3.64-.75c-1.86.15-2.79,1.3-2.69,2.61s1.17,2,3.52,2.71c3.07.88,4.74,2.27,5,4.86.24,3.08-2,5.41-6.09,5.73a9.91,9.91,0,0,1-5-.84Z" transform="translate(-10.99 -3.66)"/></g><g class="cls-1"><path d="M1361,34.26a22.07,22.07,0,0,1-7.43,1.49c-3.68.08-6.73-.78-9.14-3a12.38,12.38,0,0,1-3.57-8.94c-.15-7.23,4.71-12.64,12.84-12.81a15.21,15.21,0,0,1,6.09,1l-.73,2.57a12.25,12.25,0,0,0-5.38-.92c-5.88.13-9.66,3.87-9.53,9.95s3.9,9.7,9.58,9.58a10.16,10.16,0,0,0,4.15-.75l-.16-7.22-4.91.11-.06-2.51,8-.18Z" transform="translate(-10.99 -3.66)"/><path d="M1380.23,30.16c0,1.82.14,3.38.25,4.76l-2.8.06-.23-2.84h-.09a6.49,6.49,0,0,1-5.68,3.37c-2.73.06-6-1.4-6.17-7.5l-.22-10.17,3.15-.07.21,9.62c.07,3.31,1.16,5.55,4,5.48a4.61,4.61,0,0,0,4.13-3,5.07,5.07,0,0,0,.25-1.63l-.23-10.66,3.14-.07Z" transform="translate(-10.99 -3.66)"/><path d="M1388.66,12.41a2,2,0,1,1-2-1.93A1.89,1.89,0,0,1,1388.66,12.41Zm-3.05,22.4-.38-17.41,3.15-.07.38,17.41Z" transform="translate(-10.99 -3.66)"/><path d="M1393.76,21.92c0-1.82-.13-3.26-.25-4.7l2.75-.06.23,2.8h.09a6,6,0,0,1,5.42-3.32,5.11,5.11,0,0,1,5,3.38h.08a7,7,0,0,1,1.91-2.31,5.93,5.93,0,0,1,3.8-1.31c2.33,0,5.78,1.37,5.91,7.43l.23,10.25-3.09.06-.22-9.84c-.07-3.37-1.36-5.34-3.89-5.28A4.12,4.12,0,0,0,1408,22a5,5,0,0,0-.23,1.59l.24,10.77-3.09.07-.23-10.44c-.06-2.77-1.33-4.74-3.72-4.69a4.39,4.39,0,0,0-3.88,3.25,5,5,0,0,0-.2,1.56l.23,10.49-3.09.07Z" transform="translate(-10.99 -3.66)"/><path d="M1433.7,33.75l-.32-2.19h-.1a6.46,6.46,0,0,1-5.27,2.71,5,5,0,0,1-5.42-4.88c-.09-4.21,3.59-6.61,10.32-6.71v-.37c0-1.41-.49-4-4.05-3.93a8.53,8.53,0,0,0-4.51,1.4l-.76-2.09a11,11,0,0,1,5.71-1.65c5.32-.12,6.69,3.49,6.77,7l.14,6.51a28.29,28.29,0,0,0,.36,4.16Zm-.68-8.87c-3.43,0-7.34.7-7.27,4.06a2.8,2.8,0,0,0,3,3,4.35,4.35,0,0,0,4.17-3,3,3,0,0,0,.13-1Z" transform="translate(-10.99 -3.66)"/><path d="M1441.13,21.6c0-2.06-.13-3.81-.26-5.42l2.77-.06.2,3.41h.11a5.3,5.3,0,0,1,4.76-3.92,4.12,4.12,0,0,1,.89.07l.06,3a5,5,0,0,0-1.08-.07c-2.23.05-3.77,1.77-4.14,4.14a7.83,7.83,0,0,0-.1,1.48l.2,9.3-3.14.07Z" transform="translate(-10.99 -3.66)"/><path d="M1462.64,33.12l-.33-2.2h-.09a6.5,6.5,0,0,1-5.27,2.71,5,5,0,0,1-5.42-4.88c-.1-4.22,3.59-6.61,10.31-6.71v-.37c0-1.42-.48-4-4-3.93a8.41,8.41,0,0,0-4.5,1.4l-.77-2.09a11,11,0,0,1,5.71-1.66c5.32-.11,6.7,3.5,6.78,7l.14,6.51a27.06,27.06,0,0,0,.35,4.16ZM1454,12.89c-.12-2.35.83-3.78,2.37-3.81a4.72,4.72,0,0,1,2.26.75,3.63,3.63,0,0,0,1.52.58c.56,0,.9-.35,1-1.55l1.68,0c.1,2.39-.68,3.66-2.37,3.69a4.59,4.59,0,0,1-2.22-.7,3.56,3.56,0,0,0-1.56-.6c-.57,0-.86.64-.91,1.64ZM1462,24.24c-3.42,0-7.33.7-7.26,4.07a2.78,2.78,0,0,0,3,3,4.35,4.35,0,0,0,4.18-3,3.62,3.62,0,0,0,.13-1Z" transform="translate(-10.99 -3.66)"/><path d="M1471.93,24.78c.16,4.27,2.91,6,6.09,5.91a11.74,11.74,0,0,0,4.8-1l.6,2.24a14,14,0,0,1-5.78,1.23c-5.35.12-8.64-3.37-8.75-8.59s2.9-9.46,8-9.57c5.68-.13,7.27,4.82,7.34,8a7.63,7.63,0,0,1-.07,1.49Zm9.21-2.48c0-2-.92-5.11-4.47-5-3.23.07-4.55,3-4.75,5.23Z" transform="translate(-10.99 -3.66)"/><path d="M1487.85,29.34a8.75,8.75,0,0,0,4.22,1.15c2.31,0,3.36-1.21,3.33-2.67s-1-2.3-3.31-3.12c-3.17-1.06-4.69-2.74-4.73-4.83-.06-2.8,2.17-5.15,5.91-5.23a8.43,8.43,0,0,1,4.29,1l-.74,2.32a7,7,0,0,0-3.59-.95c-1.87.05-2.86,1.14-2.83,2.46s1.07,2.06,3.37,2.89c3,1.05,4.61,2.53,4.68,5.13.06,3.09-2.28,5.3-6.4,5.39a9.85,9.85,0,0,1-4.91-1.11Z" transform="translate(-10.99 -3.66)"/></g><g class="cls-1"><path d="M96.42,616.73A34.75,34.75,0,0,1,94.56,611c-.75-3.25-.62-5.52.37-7.3A6,6,0,0,1,99,600.79a6.4,6.4,0,0,1,7.05,3.06l.09,0c.22-2,1.67-3.43,4-4.57a41.87,41.87,0,0,0,6.07-3.31l.73,3.16a32.14,32.14,0,0,1-5.3,2.86c-3.08,1.45-4,3-3.5,5.8l.67,2.89L119,608.3l.7,3.05Zm10.06-5.53-.72-3.12c-.75-3.27-3-4.93-5.72-4.31-3.07.71-3.89,3.24-3.15,6.46a13.93,13.93,0,0,0,1,3Z" transform="translate(-10.99 -3.66)"/><path d="M107.5,579.49c1.78-.41,3.29-.82,4.61-1.21l.63,2.73-2.74.8,0,.09a6.48,6.48,0,0,1,4.46,4.88c.61,2.66-.14,6.19-6.09,7.56l-9.91,2.28-.71-3.06,9.37-2.17c3.23-.74,5.2-2.26,4.56-5a4.61,4.61,0,0,0-3.77-3.43,4.71,4.71,0,0,0-1.65.09L95.89,585.4l-.71-3.07Z" transform="translate(-10.99 -3.66)"/><path d="M108.79,563.87l-2.08.77,0,.09a6.46,6.46,0,0,1,3.72,4.61,5,5,0,0,1-3.67,6.3c-4.11,1-7.2-2.17-8.67-8.74l-.36.09c-1.38.31-3.84,1.29-3,4.76A8.51,8.51,0,0,0,97,575.88l-1.89,1.17a11,11,0,0,1-2.78-5.26c-1.19-5.18,2.06-7.26,5.46-8l6.35-1.46a26.52,26.52,0,0,0,4-1.19Zm-8.55,2.48c.7,3.35,2.18,7,5.46,6.28a2.79,2.79,0,0,0,2.29-3.56,4.36,4.36,0,0,0-3.8-3.48,3.23,3.23,0,0,0-1,.08Z" transform="translate(-10.99 -3.66)"/><path d="M81.68,554.29l-2.94-12.73,2.55-.58,2.23,9.66,7.87-1.82-2.06-8.93,2.53-.58,2.06,8.93,10.69-2.47.71,3.07Z" transform="translate(-10.99 -3.66)"/><path d="M89.93,535.46c-2,.46-3.69.91-5.25,1.36l-.62-2.71,3.3-.88,0-.11a5.3,5.3,0,0,1-4.8-3.87,4,4,0,0,1-.11-.88l2.9-.66a5.24,5.24,0,0,0,.16,1.07C86,531,88,532.11,90.37,532a8.77,8.77,0,0,0,1.47-.2l9.07-2.09.7,3.06Z" transform="translate(-10.99 -3.66)"/><path d="M96.84,512.06l-2.08.76,0,.1a6.44,6.44,0,0,1,3.72,4.6,5,5,0,0,1-3.67,6.31c-4.11.94-7.2-2.18-8.67-8.74l-.36.08c-1.38.32-3.84,1.3-3,4.77a8.43,8.43,0,0,0,2.28,4.13l-1.89,1.17A11,11,0,0,1,80.39,520c-1.19-5.18,2.06-7.26,5.46-8.05l6.35-1.46a29.06,29.06,0,0,0,4-1.19Zm-8.55,2.48c.7,3.35,2.18,7,5.46,6.28A2.8,2.8,0,0,0,96,517.26a4.36,4.36,0,0,0-3.8-3.48,3.23,3.23,0,0,0-1,.08Z" transform="translate(-10.99 -3.66)"/><path d="M82.73,507.41c-1.77.41-3.17.79-4.55,1.2l-.63-2.73,2.75-.81,0-.09a6.41,6.41,0,0,1-4.47-4.87c-.54-2.33,0-6.3,5.85-7.65l10.12-2.33.71,3.07-9.78,2.25c-2.74.63-4.8,2.2-4.14,5.09A4.55,4.55,0,0,0,82.7,504a4.89,4.89,0,0,0,1.48-.12l10.22-2.35.71,3.07Z" transform="translate(-10.99 -3.66)"/><path d="M87.21,473.13a12,12,0,0,1,2.11,4.64c1.18,5.12-1.53,9.27-6.72,10.47s-9.86-1.48-11.14-7a10.25,10.25,0,0,1-.09-4.5l2.53.14a7.6,7.6,0,0,0,0,3.8c.89,3.87,4.28,5.32,7.8,4.5,3.93-.91,5.76-4,5-7.37A9,9,0,0,0,85,474.19Z" transform="translate(-10.99 -3.66)"/><path d="M64.44,470.94a1.91,1.91,0,0,1,2.37,1.52,1.89,1.89,0,0,1-1.49,2.31A1.93,1.93,0,0,1,63,473.29,1.89,1.89,0,0,1,64.44,470.94ZM87,469.37l-17,3.91-.71-3.07,17-3.91Z" transform="translate(-10.99 -3.66)"/><path d="M82.06,462.33a8.66,8.66,0,0,0,.26-4.37c-.52-2.25-1.86-3-3.28-2.72s-2.06,1.42-2.38,3.87c-.4,3.32-1.74,5.16-3.77,5.62-2.73.63-5.49-1.07-6.33-4.72a8.4,8.4,0,0,1,.09-4.4l2.42.25a6.79,6.79,0,0,0-.2,3.71c.42,1.82,1.7,2.57,3,2.28s1.8-1.47,2.15-3.89c.41-3.18,1.54-5,4.07-5.63,3-.69,5.65,1.16,6.57,5.17a10,10,0,0,1-.08,5Z" transform="translate(-10.99 -3.66)"/><path d="M78.49,435.32A12,12,0,0,1,80.6,440c1.18,5.11-1.53,9.27-6.72,10.46s-9.87-1.48-11.15-7a10.33,10.33,0,0,1-.08-4.49l2.53.14a7.66,7.66,0,0,0,0,3.79c.9,3.87,4.29,5.33,7.81,4.51,3.93-.91,5.76-4,5-7.38a9.25,9.25,0,0,0-1.68-3.58Z" transform="translate(-10.99 -3.66)"/><path d="M66.13,418.41c6.28-1.45,10,2.27,11,6.35,1.06,4.6-1.47,8.93-6.86,10.17-5.68,1.31-9.86-1.66-10.94-6.35C58.19,423.7,61,419.6,66.13,418.41Zm3.3,13.4c3.72-.86,6-3.63,5.34-6.64s-4-4.54-7.81-3.65c-2.87.66-6.16,3-5.32,6.61S66.22,432.55,69.43,431.81Z" transform="translate(-10.99 -3.66)"/><path d="M66.92,387.21a21.91,21.91,0,0,1,3,7c.83,3.58.6,6.75-1.09,9.56a12.36,12.36,0,0,1-8,5.31c-7,1.62-13.33-2-15.16-10a15.31,15.31,0,0,1-.28-6.17l2.67.19a12.42,12.42,0,0,0,.19,5.46c1.33,5.73,5.76,8.67,11.68,7.3s8.71-5.79,7.44-11.32a10,10,0,0,0-1.58-3.91l-7,1.62,1.1,4.79-2.44.56-1.79-7.78Z" transform="translate(-10.99 -3.66)"/><path d="M44.37,383.91a1.91,1.91,0,0,1,2.36,1.52,1.89,1.89,0,0,1-1.48,2.31,1.93,1.93,0,0,1-2.36-1.48A1.89,1.89,0,0,1,44.37,383.91Zm22.55-1.57-17,3.91-.71-3.07,17-3.91Z" transform="translate(-10.99 -3.66)"/><path d="M40.12,379.88l-.71-3.07,24.91-5.75.7,3.07Z" transform="translate(-10.99 -3.66)"/><path d="M33.12,349.52l20.53-4.73c1.51-.35,3.19-.8,4.34-1.15l.63,2.74-2.89.83,0,.09a6.35,6.35,0,0,1,4.64,5c1,4.12-1.79,8.09-6.94,9.27-5.66,1.34-9.92-1.39-10.87-5.52A5.81,5.81,0,0,1,44,350.32v-.07l-10.13,2.34Zm15.55-.35a6.3,6.3,0,0,0-1.29.43,4.69,4.69,0,0,0-2.52,5.28c.74,3.2,4,4.46,7.71,3.6,3.44-.79,5.91-3.17,5.14-6.49A4.77,4.77,0,0,0,53,348.33a5.53,5.53,0,0,0-1.36.16Z" transform="translate(-10.99 -3.66)"/><path d="M48.52,338.73c4.15-1,5.26-4.06,4.54-7.16a11.57,11.57,0,0,0-2-4.5l2.07-1a14.11,14.11,0,0,1,2.39,5.41c1.2,5.21-1.55,9.14-6.64,10.32s-9.85-.92-11-5.87c-1.27-5.53,3.25-8.1,6.37-8.82a7.84,7.84,0,0,1,1.47-.23Zm-4.31-8.51c-2,.41-4.81,1.95-4,5.4.73,3.15,3.88,3.84,6.09,3.59Z" transform="translate(-10.99 -3.66)"/><path d="M42.73,311.41l8,.73.73,3.17L26,312.72l-.85-3.67,21.78-13.53.76,3.27L40.8,303Zm-4.17-7.21-6.27,3.91c-1.43.87-2.75,1.55-4,2.21l0,.08c1.46,0,3,.06,4.54.19l7.38.75Z" transform="translate(-10.99 -3.66)"/><path d="M34.46,295c-2,.46-3.7.91-5.25,1.36l-.62-2.71,3.3-.88,0-.11a5.3,5.3,0,0,1-4.8-3.87,3.46,3.46,0,0,1-.11-.87l2.9-.67a5.93,5.93,0,0,0,.15,1.07c.51,2.17,2.5,3.33,4.9,3.21a8.91,8.91,0,0,0,1.47-.2l9.06-2.09.71,3.07Z" transform="translate(-10.99 -3.66)"/><path d="M41.37,271.56l-2.08.77,0,.09A6.44,6.44,0,0,1,43,277a5,5,0,0,1-3.67,6.31c-4.11.95-7.2-2.18-8.67-8.74l-.36.08c-1.38.32-3.84,1.3-3,4.77a8.43,8.43,0,0,0,2.28,4.13l-1.89,1.17a11,11,0,0,1-2.78-5.26c-1.19-5.18,2.06-7.26,5.46-8.05L36.72,270a27.73,27.73,0,0,0,4-1.19ZM32.82,274c.69,3.35,2.18,7,5.46,6.28a2.78,2.78,0,0,0,2.28-3.56,4.34,4.34,0,0,0-3.79-3.48,3.23,3.23,0,0,0-1,.08Z" transform="translate(-10.99 -3.66)"/><path d="M12.53,257.58l6,3.13.5,2.18L13.31,261Zm19.19-6.64c1.78-.41,3.29-.82,4.61-1.21l.63,2.73-2.74.8,0,.09a6.48,6.48,0,0,1,4.46,4.88c.61,2.66-.14,6.19-6.09,7.56l-9.91,2.29L22,265l9.37-2.16c3.23-.75,5.2-2.26,4.56-5.05a4.61,4.61,0,0,0-3.77-3.43,5,5,0,0,0-1.65.09l-10.39,2.39-.71-3.07Z" transform="translate(-10.99 -3.66)"/><path d="M12.54,245.91a2,2,0,0,1,.88,3.83,1.94,1.94,0,0,1-2.37-1.5A1.9,1.9,0,0,1,12.54,245.91ZM41,247.75A5,5,0,0,0,39,244.69c-1.15-.62-2.57-.66-6.64.28l-14.2,3.28-.7-3.07,15.37-3.55c3.31-.76,5.56-.73,7.47.41a8.07,8.07,0,0,1,3.13,4.82Z" transform="translate(-10.99 -3.66)"/><path d="M21,222.84c6.28-1.45,10,2.28,11,6.36,1.06,4.6-1.47,8.92-6.86,10.17-5.67,1.3-9.85-1.66-10.93-6.35C13.08,228.14,15.86,224,21,222.84Zm3.3,13.41c3.72-.86,6-3.64,5.33-6.65s-3.95-4.53-7.81-3.64c-2.86.66-6.16,2.94-5.31,6.61S21.11,237,24.33,236.25Z" transform="translate(-10.99 -3.66)"/></g><path d="M272.38,608.72a32.6,32.6,0,0,1,5.91-1.31c3.3-.43,5.55-.09,7.23,1.07A6.05,6.05,0,0,1,288,612.8a6.42,6.42,0,0,1-3.73,6.73v.08c1.92.41,3.26,2,4.17,4.41a41.68,41.68,0,0,0,2.72,6.36l-3.22.42a32.06,32.06,0,0,1-2.34-5.55c-1.15-3.2-2.62-4.3-5.44-4l-2.94.39L278.61,632l-3.1.41Zm4.55,10.54,3.17-.42c3.33-.44,5.19-2.52,4.83-5.28-.41-3.13-2.84-4.19-6.12-3.76a13.45,13.45,0,0,0-3,.68Z" transform="translate(-10.99 -3.66)"/><path d="M308.41,623.31c.23,1.81.5,3.35.76,4.7l-2.77.37-.54-2.8h-.09a6.49,6.49,0,0,1-5.29,4c-2.7.36-6.14-.73-6.94-6.78l-1.33-10.09,3.12-.41,1.26,9.54c.43,3.29,1.75,5.39,4.59,5A4.6,4.6,0,0,0,305,623.4a4.92,4.92,0,0,0,.07-1.65l-1.39-10.57,3.12-.41Z" transform="translate(-10.99 -3.66)"/><path d="M323.83,626.07l-.56-2.14h-.1a6.49,6.49,0,0,1-4.94,3.27A5,5,0,0,1,312.3,623c-.55-4.18,2.85-7,9.53-7.8l-.05-.36c-.19-1.41-.92-3.95-4.46-3.46a8.42,8.42,0,0,0-4.32,1.88l-1-2a10.9,10.9,0,0,1,5.5-2.26c5.27-.7,7,2.74,7.49,6.19l.85,6.46a27.8,27.8,0,0,0,.81,4.1Zm-1.65-8.75c-3.41.38-7.22,1.5-6.78,4.84a2.79,2.79,0,0,0,3.33,2.62,4.37,4.37,0,0,0,3.83-3.45,3.43,3.43,0,0,0,0-1Z" transform="translate(-10.99 -3.66)"/><path d="M339.4,602.2l-7.32,1-.35-2.63,17.81-2.36.35,2.62-7.36,1,2.84,21.43-3.13.41Z" transform="translate(-10.99 -3.66)"/><path d="M352.81,604.67l4.67,9.23c.79,1.52,1.43,2.88,2,4.27l.1,0c.2-1.48.51-3,.85-4.65l2.09-10.12,3.28-.44-4.49,18.16-3,.4-8.87-16.38Z" transform="translate(-10.99 -3.66)"/><path d="M368.65,618.25a2.15,2.15,0,0,1,1.83-2.55,2.28,2.28,0,1,1-1.83,2.55Z" transform="translate(-10.99 -3.66)"/><path d="M388.71,617.46l-11.08-23L381,594l5.32,11.36c1.47,3.11,2.75,5.92,3.77,8.64l.09,0c.3-2.86.88-6,1.54-9.3l2.49-12.44,3.32-.44L392.14,617Z" transform="translate(-10.99 -3.66)"/><path d="M403.2,593a2,2,0,1,1-2.2-1.69A1.91,1.91,0,0,1,403.2,593Zm-.54,22.6-2.31-17.25,3.12-.42,2.31,17.25Z" transform="translate(-10.99 -3.66)"/><path d="M409.3,601.89c-.24-1.81-.49-3.23-.77-4.64l2.78-.38.55,2.82.09,0a6.42,6.42,0,0,1,5.27-4c2.37-.32,6.27.61,7.07,6.53l1.38,10.3-3.12.42L421.21,603c-.37-2.79-1.74-5-4.68-4.59a4.55,4.55,0,0,0-3.79,3.79,4.84,4.84,0,0,0,0,1.48l1.39,10.4-3.12.42Z" transform="translate(-10.99 -3.66)"/><path d="M431.45,589.11l.67,5,4.5-.61.32,2.38-4.5.6,1.25,9.3c.29,2.15,1.07,3.28,2.83,3a6,6,0,0,0,1.78-.48l.47,2.37a8.31,8.31,0,0,1-2.75.81,4.44,4.44,0,0,1-3.56-.87c-1-.84-1.55-2.31-1.83-4.34l-1.27-9.42-2.67.36-.32-2.38,2.67-.36-.56-4.16Z" transform="translate(-10.99 -3.66)"/><path d="M442.93,602c.63,4.23,3.56,5.62,6.71,5.19a11.63,11.63,0,0,0,4.66-1.53l.85,2.16a14.07,14.07,0,0,1-5.61,1.87c-5.3.72-9-2.38-9.66-7.55s1.82-9.73,6.86-10.41c5.62-.77,7.76,4,8.19,7.15a7.18,7.18,0,0,1,.09,1.49Zm8.87-3.5c-.23-2-1.49-5-5-4.49-3.2.43-4.18,3.51-4.13,5.73Z" transform="translate(-10.99 -3.66)"/><path d="M468.37,598.54c.64,4.23,3.57,5.62,6.72,5.19a11.83,11.83,0,0,0,4.66-1.54l.85,2.16a14,14,0,0,1-5.61,1.88c-5.3.72-9-2.38-9.67-7.55s1.81-9.73,6.85-10.42c5.63-.77,7.77,4,8.21,7.15a7.87,7.87,0,0,1,.09,1.48Zm8.88-3.51c-.24-2-1.5-5-5-4.49-3.21.44-4.18,3.52-4.13,5.74Z" transform="translate(-10.99 -3.66)"/><path d="M493.22,603.37l-3.3-24,3.41-.47L502.7,590a69.3,69.3,0,0,1,5.36,7.24l.08-.05c-.72-3.17-1.18-6.09-1.69-9.82l-1.39-10.07,2.93-.4,3.3,24-3.16.44-9.31-11.14a79.57,79.57,0,0,1-5.58-7.43l-.1,0c.61,3,1.05,5.91,1.59,9.89L496.15,603Z" transform="translate(-10.99 -3.66)"/><path d="M530.91,589.21c.89,6.39-3.16,9.8-7.3,10.37-4.68.65-8.76-2.26-9.52-7.73-.8-5.77,2.52-9.68,7.29-10.34C526.34,580.83,530.18,584,530.91,589.21Zm-13.65,2.1c.53,3.78,3.09,6.33,6.15,5.9s4.87-3.54,4.32-7.45c-.4-2.92-2.38-6.4-6.11-5.88S516.81,588,517.26,591.31Z" transform="translate(-10.99 -3.66)"/><path d="M534.63,580.08l4.74,9.19c.8,1.51,1.45,2.87,2,4.25h.1c.19-1.49.48-3,.82-4.66l2-10.13,3.27-.46-4.37,18.19-3,.42-9-16.32Z" transform="translate(-10.99 -3.66)"/><path d="M553.22,586.83c.67,4.22,3.61,5.59,6.75,5.14a11.62,11.62,0,0,0,4.65-1.56l.87,2.15a14,14,0,0,1-5.6,1.92c-5.29.75-9-2.33-9.72-7.5s1.76-9.74,6.79-10.46c5.63-.8,7.8,3.93,8.25,7.1a8.16,8.16,0,0,1,.1,1.49Zm8.86-3.56c-.25-2-1.53-5-5.05-4.46-3.2.45-4.15,3.54-4.09,5.76Z" transform="translate(-10.99 -3.66)"/><path d="M589.14,564l3.08,20.85c.23,1.53.54,3.24.8,4.42l-2.78.41-.6-3-.08,0a6.41,6.41,0,0,1-5.35,4.23c-4.17.62-7.91-2.44-8.68-7.66-.88-5.75,2.17-9.78,6.37-10.4a5.82,5.82,0,0,1,5.58,1.85h.07L586,564.47Zm-.88,15.53a7.08,7.08,0,0,0-.33-1.32,4.68,4.68,0,0,0-5.07-2.93c-3.24.48-4.76,3.61-4.2,7.4.51,3.49,2.68,6.14,6.06,5.64a4.77,4.77,0,0,0,4-4.44,5.25,5.25,0,0,0,0-1.36Z" transform="translate(-10.99 -3.66)"/><path d="M598.53,580.21c.73,4.22,3.68,5.54,6.83,5a11.72,11.72,0,0,0,4.62-1.63l.9,2.13a13.92,13.92,0,0,1-5.57,2c-5.28.84-9-2.18-9.83-7.34s1.61-9.77,6.63-10.56c5.62-.89,7.86,3.81,8.36,7a7.63,7.63,0,0,1,.12,1.49Zm8.8-3.69c-.28-2-1.6-4.93-5.11-4.38-3.2.5-4.1,3.6-4,5.82Z" transform="translate(-10.99 -3.66)"/><path d="M623.8,559.3l3.08-.67,3.41,15.86c1.36,6.31-1.31,8.91-5.39,9.79a10.33,10.33,0,0,1-3.4.16l-.09-2.6a7.42,7.42,0,0,0,2.69-.11c2.73-.59,4.06-2.18,3.06-6.83Z" transform="translate(-10.99 -3.66)"/><path d="M646.8,578.76,646,576.7l-.09,0a6.46,6.46,0,0,1-4.54,3.8A5,5,0,0,1,635,577c-1-4.09,2-7.24,8.59-8.82l-.09-.36c-.35-1.37-1.37-3.82-4.82-2.94a8.62,8.62,0,0,0-4.09,2.36l-1.2-1.87a10.91,10.91,0,0,1,5.2-2.87c5.16-1.29,7.3,1.93,8.15,5.31l1.57,6.32a27.08,27.08,0,0,0,1.27,4Zm-2.63-8.51c-3.34.76-7,2.31-6.19,5.58a2.79,2.79,0,0,0,3.61,2.22A4.36,4.36,0,0,0,645,574.2a3.61,3.61,0,0,0-.1-1Z" transform="translate(-10.99 -3.66)"/><path d="M650.74,564.62c-.49-1.75-.93-3.12-1.4-4.49l2.69-.75.94,2.71.09,0a6.41,6.41,0,0,1,4.67-4.69c2.3-.64,6.3-.26,7.9,5.5l2.79,10-3,.85-2.69-9.67c-.76-2.72-2.41-4.7-5.27-3.91a4.56,4.56,0,0,0-3.23,4.28,4.65,4.65,0,0,0,.18,1.47L657.18,576l-3,.84Z" transform="translate(-10.99 -3.66)"/><path d="M672.61,563.17c1.29,4.08,4.4,5,7.45,4.07a11.69,11.69,0,0,0,4.36-2.24l1.18,2a14.24,14.24,0,0,1-5.24,2.74c-5.13,1.54-9.23-1-10.74-6s.27-9.89,5.14-11.36c5.43-1.63,8.29,2.71,9.22,5.78a7.66,7.66,0,0,1,.32,1.45Zm8.22-4.85c-.55-1.92-2.26-4.67-5.66-3.65-3.1.93-3.57,4.13-3.18,6.31Z" transform="translate(-10.99 -3.66)"/><path d="M687.15,543.85a1.92,1.92,0,0,1-1.33,2.49A1.9,1.9,0,0,1,683.4,545a1.93,1.93,0,0,1,1.29-2.47A1.9,1.9,0,0,1,687.15,543.85Zm3.32,22.37-5.22-16.61,3-.94,5.22,16.61Z" transform="translate(-10.99 -3.66)"/><path d="M694.75,552.29c-.63-1.95-1.22-3.6-1.8-5.11l2.64-.85,1.16,3.21.11,0a5.27,5.27,0,0,1,3.44-5.11,3.69,3.69,0,0,1,.87-.19l.91,2.84a4.85,4.85,0,0,0-1.05.24c-2.13.69-3.11,2.77-2.79,5.16a8.43,8.43,0,0,0,.33,1.44l2.86,8.85-3,1Z" transform="translate(-10.99 -3.66)"/><path d="M721.36,546.79c2,6.11-1.3,10.21-5.27,11.53-4.47,1.5-9-.6-10.78-5.84-1.85-5.53.7-10,5.27-11.5C715.32,539.39,719.68,541.76,721.36,546.79Zm-13,4.57c1.21,3.62,4.2,5.65,7.12,4.67s4.13-4.37,2.88-8.12c-.94-2.79-3.53-5.85-7.09-4.66S707.29,548.23,708.34,551.36Z" transform="translate(-10.99 -3.66)"/><path d="M1098.28,472.81a33.33,33.33,0,0,1,6-.49c3.32,0,5.51.67,7,2a6,6,0,0,1,1.88,4.62,6.42,6.42,0,0,1-4.61,6.16v.09c1.85.65,3,2.41,3.53,4.93a42.08,42.08,0,0,0,1.82,6.67l-3.25,0a32.52,32.52,0,0,1-1.55-5.82c-.7-3.32-2-4.62-4.85-4.73l-3,0-.06,10.51h-3.13Zm3.06,11.06,3.2,0c3.36,0,5.49-1.8,5.51-4.58,0-3.15-2.25-4.53-5.55-4.56a14.4,14.4,0,0,0-3.1.26Z" transform="translate(-10.99 -3.66)"/><path d="M1132,492.17c0,1.83,0,3.39.11,4.77l-2.79,0-.15-2.85H1129a6.49,6.49,0,0,1-5.78,3.21c-2.73,0-6-1.56-6-7.66l.06-10.18,3.15,0-.06,9.62c0,3.32,1,5.58,3.86,5.6a4.61,4.61,0,0,0,4.2-2.88,4.73,4.73,0,0,0,.3-1.63l.06-10.66,3.15,0Z" transform="translate(-10.99 -3.66)"/><path d="M1146.85,497l-.26-2.2h-.1a6.45,6.45,0,0,1-5.34,2.56,5,5,0,0,1-5.29-5c0-4.21,3.78-6.51,10.5-6.42v-.37c0-1.41-.38-4-3.94-4a8.57,8.57,0,0,0-4.55,1.27l-.7-2.11a11,11,0,0,1,5.75-1.49c5.32,0,6.6,3.68,6.58,7.17l0,6.51a26.86,26.86,0,0,0,.24,4.17Zm-.44-8.89c-3.42-.1-7.35.5-7.37,3.86a2.79,2.79,0,0,0,2.94,3.05,4.36,4.36,0,0,0,4.26-2.89,3.58,3.58,0,0,0,.16-1Z" transform="translate(-10.99 -3.66)"/><path d="M1165.57,475.53l-7.39,0v-2.65l18,.11,0,2.64-7.42,0-.13,21.61-3.15,0Z" transform="translate(-10.99 -3.66)"/><path d="M1178.48,479.81l3.36,9.78c.58,1.62,1,3.06,1.4,4.51h.09c.41-1.44.92-2.89,1.49-4.49l3.46-9.74,3.31,0-6.95,17.37-3,0-6.53-17.45Z" transform="translate(-10.99 -3.66)"/><path d="M1192.34,495.45a2.15,2.15,0,0,1,2.16-2.28,2.28,2.28,0,1,1-2.16,2.28Z" transform="translate(-10.99 -3.66)"/><path d="M1212.31,497.43l-7.8-24.31,3.4,0,3.7,12c1,3.28,1.9,6.24,2.54,9.07h.09c.69-2.8,1.7-5.85,2.81-9l4.18-12,3.35,0-8.82,24.21Z" transform="translate(-10.99 -3.66)"/><path d="M1230.06,475.21a2,2,0,1,1-3.93,0,1.93,1.93,0,0,1,2-2A1.9,1.9,0,0,1,1230.06,475.21Zm-3.67,22.3.1-17.4h3.15l-.1,17.41Z" transform="translate(-10.99 -3.66)"/><path d="M1234.89,484.86c0-1.82,0-3.26-.12-4.7h2.8l.16,2.87h.08a6.46,6.46,0,0,1,5.78-3.23c2.39,0,6.13,1.48,6.09,7.46l-.06,10.38-3.15,0,.06-10c0-2.82-1-5.18-4-5.2a4.57,4.57,0,0,0-4.29,3.23,5.2,5.2,0,0,0-.23,1.46l-.06,10.49h-3.15Z" transform="translate(-10.99 -3.66)"/><path d="M1258.59,475.29l0,5,4.55,0,0,2.4-4.55,0,0,9.38c0,2.17.6,3.4,2.37,3.41a6.36,6.36,0,0,0,1.84-.22l.13,2.41a8.22,8.22,0,0,1-2.83.42,4.42,4.42,0,0,1-3.41-1.37c-.87-1-1.21-2.5-1.2-4.54l0-9.51-2.69,0v-2.39h2.7l0-4.19Z" transform="translate(-10.99 -3.66)"/><path d="M1268.16,489.63c0,4.29,2.74,6.07,5.92,6.08a11.57,11.57,0,0,0,4.83-.86l.54,2.25a14.11,14.11,0,0,1-5.81,1.08c-5.35,0-8.55-3.62-8.52-8.84s3.17-9.38,8.25-9.35c5.68,0,7.14,5,7.12,8.23a8.51,8.51,0,0,1-.12,1.49Zm9.28-2.22c0-2-.78-5.13-4.34-5.15-3.23,0-4.62,2.9-4.89,5.1Z" transform="translate(-10.99 -3.66)"/><path d="M1293.79,489.79c0,4.28,2.74,6.06,5.92,6.08a11.94,11.94,0,0,0,4.83-.86l.54,2.25a14,14,0,0,1-5.82,1.07c-5.34,0-8.54-3.61-8.51-8.83s3.16-9.38,8.25-9.35c5.68,0,7.13,5,7.11,8.23a7.67,7.67,0,0,1-.11,1.48Zm9.28-2.22c0-2-.79-5.13-4.34-5.15-3.23,0-4.62,2.89-4.89,5.09Z" transform="translate(-10.99 -3.66)"/><path d="M1317.56,498.69l1-24.24,3.44.14,7.25,12.58a70.64,70.64,0,0,1,4,8.07l.08,0c-.15-3.25-.08-6.21.07-10l.43-10.16,3,.12-1,24.24-3.18-.13-7.19-12.61a80.66,80.66,0,0,1-4.17-8.31l-.11,0c.06,3.07,0,6-.19,10l-.43,10.36Z" transform="translate(-10.99 -3.66)"/><path d="M1357.16,491.47c-.27,6.44-4.85,9.07-9,8.89-4.71-.2-8.21-3.79-8-9.31.24-5.82,4.21-9.06,9-8.86C1354.17,482.4,1357.39,486.17,1357.16,491.47Zm-13.8-.38c-.16,3.81,1.91,6.78,5,6.91s5.42-2.61,5.59-6.56c.12-2.94-1.2-6.73-5-6.88S1343.5,487.79,1343.36,491.09Z" transform="translate(-10.99 -3.66)"/><path d="M1362.49,483.14l3,9.9c.52,1.63.91,3.09,1.24,4.55h.09c.46-1.42,1-2.85,1.65-4.43l3.81-9.61,3.31.14L1368,500.8l-3-.13L1359.1,483Z" transform="translate(-10.99 -3.66)"/><path d="M1380.14,493.42c.21,4.27,3,5.94,6.16,5.83a11.63,11.63,0,0,0,4.79-1.06l.64,2.23a14.22,14.22,0,0,1-5.77,1.31c-5.35.19-8.69-3.26-8.87-8.48s2.77-9.5,7.86-9.68c5.67-.2,7.33,4.73,7.45,7.93a7.8,7.8,0,0,1-.06,1.49Zm9.18-2.6c0-2-1-5.1-4.55-5-3.23.11-4.5,3.08-4.67,5.29Z" transform="translate(-10.99 -3.66)"/><path d="M1418.45,474.63l.74,21.06c0,1.54.17,3.28.3,4.48l-2.81.1-.27-3h-.09a6.36,6.36,0,0,1-5.78,3.61c-4.22.15-7.59-3.3-7.78-8.58-.23-5.81,3.26-9.47,7.49-9.62a5.79,5.79,0,0,1,5.34,2.45h.08l-.37-10.39ZM1415.84,490a6.19,6.19,0,0,0-.19-1.35,4.67,4.67,0,0,0-4.71-3.48c-3.27.11-5.13,3.06-5,6.88.13,3.53,2,6.41,5.4,6.29a4.79,4.79,0,0,0,4.49-4,4.94,4.94,0,0,0,.11-1.36Z" transform="translate(-10.99 -3.66)"/><path d="M1426.09,491.8c.21,4.27,3,5.94,6.17,5.83a11.88,11.88,0,0,0,4.79-1.06l.63,2.23a14.17,14.17,0,0,1-5.77,1.31c-5.34.19-8.68-3.26-8.87-8.48s2.78-9.5,7.86-9.68c5.68-.2,7.34,4.73,7.45,7.93a7.85,7.85,0,0,1-.06,1.49Zm9.18-2.6c0-2-1-5.1-4.54-5-3.23.11-4.51,3.08-4.68,5.29Z" transform="translate(-10.99 -3.66)"/><path d="M1454.46,474.65l3.15-.11.57,16.21c.22,6.46-2.87,8.55-7,8.7a10.23,10.23,0,0,1-3.37-.45l.36-2.57a7.76,7.76,0,0,0,2.67.36c2.79-.09,4.39-1.42,4.22-6.18Z" transform="translate(-10.99 -3.66)"/><path d="M1473.23,498.27l-.36-2.19h-.1a6.47,6.47,0,0,1-5.23,2.78,5,5,0,0,1-5.49-4.81c-.15-4.21,3.51-6.66,10.23-6.85v-.37c0-1.41-.54-4-4.11-3.87a8.43,8.43,0,0,0-4.48,1.45l-.8-2.08a10.91,10.91,0,0,1,5.69-1.72c5.32-.19,6.75,3.4,6.87,6.89l.23,6.51a26.62,26.62,0,0,0,.41,4.15Zm-.81-8.87c-3.43.05-7.33.81-7.21,4.17a2.79,2.79,0,0,0,3.06,2.93,4.36,4.36,0,0,0,4.14-3.07,3.25,3.25,0,0,0,.12-1Z" transform="translate(-10.99 -3.66)"/><path d="M1480.48,485.3c-.06-1.82-.17-3.26-.3-4.7l2.79-.1.28,2.86h.08a6.42,6.42,0,0,1,5.64-3.46c2.39-.09,6.19,1.22,6.4,7.2l.36,10.38-3.15.11-.35-10c-.1-2.82-1.24-5.14-4.2-5a4.54,4.54,0,0,0-4.15,3.4,4.75,4.75,0,0,0-.17,1.47l.37,10.49-3.15.11Z" transform="translate(-10.99 -3.66)"/><path d="M1502.38,489.1c.21,4.28,3,5.94,6.17,5.83a11.62,11.62,0,0,0,4.78-1.06l.64,2.23a13.85,13.85,0,0,1-5.77,1.31c-5.35.19-8.69-3.26-8.87-8.48s2.77-9.5,7.86-9.68c5.67-.2,7.33,4.73,7.45,7.94a7.69,7.69,0,0,1-.06,1.48Zm9.18-2.6c0-2-1-5.09-4.55-5-3.23.11-4.5,3.08-4.67,5.29Z" transform="translate(-10.99 -3.66)"/><path d="M1521.66,474.21a2,2,0,1,1-2-1.9A1.91,1.91,0,0,1,1521.66,474.21Zm-2.75,22.45-.62-17.4,3.15-.11.62,17.4Z" transform="translate(-10.99 -3.66)"/><path d="M1526.92,484.38c-.08-2.06-.19-3.81-.34-5.42l2.78-.09.24,3.41h.11a5.3,5.3,0,0,1,4.71-4,3.55,3.55,0,0,1,.88.06l.11,3a5.16,5.16,0,0,0-1.08-.06c-2.23.08-3.75,1.82-4.1,4.2a8.85,8.85,0,0,0-.07,1.48l.33,9.3-3.15.11Z" transform="translate(-10.99 -3.66)"/><path d="M1554.18,486.53c.22,6.45-4.15,9.43-8.33,9.57-4.72.17-8.49-3.14-8.68-8.67-.21-5.82,3.5-9.36,8.31-9.53C1550.49,477.72,1554,481.23,1554.18,486.53Zm-13.79.69c.13,3.82,2.42,6.61,5.51,6.51s5.2-3,5.06-7c-.11-2.95-1.72-6.62-5.48-6.49S1540.27,483.92,1540.39,487.22Z" transform="translate(-10.99 -3.66)"/><path d="M1704.67,3.66a27.17,27.17,0,0,1,1.37,5.9c.4,3.31-.12,5.58-1.62,7.28a8.65,8.65,0,0,1-5.49,2.59c-4,.48-6.82-1.23-8.22-3.61h-.11c-.58,1.93-2.61,3.31-5.65,4.27a58.5,58.5,0,0,0-8,2.86l-.4-3.23a48.24,48.24,0,0,1,7-2.46c4-1.21,5.47-2.71,5.25-5.54l-.36-2.94-13,1.58L1675,7.26Zm-13.31,4.77.38,3.18c.41,3.33,2.93,5.16,6.37,4.74,3.91-.47,5.33-2.93,4.94-6.22a10.63,10.63,0,0,0-.72-3Z" transform="translate(-10.99 -3.66)"/><path d="M1685,40.07c-2.26.28-4.19.57-5.89.86l-.33-2.77,3.51-.6,0-.09a6.45,6.45,0,0,1-4.71-5.23c-.33-2.7,1.17-6.18,8.74-7.1l12.61-1.53.38,3.13-11.92,1.44c-4.11.5-6.79,1.87-6.45,4.71.26,2.1,2.28,3.35,4.11,3.72a7.66,7.66,0,0,0,2,0L1700.27,35l.38,3.13Z" transform="translate(-10.99 -3.66)"/><path d="M1680.87,55.63l2.69-.61v-.09a6.15,6.15,0,0,1-3.85-4.9c-.43-3.49,2.45-5.65,5.55-6,5.23-.63,8.55,2.73,9.29,9.42l.46-.06c1.76-.21,5-1,4.5-4.54a7.24,7.24,0,0,0-2.15-4.3l2.53-1a9.4,9.4,0,0,1,2.58,5.47c.64,5.28-3.72,7.12-8,7.64l-8.07,1a40.39,40.39,0,0,0-5.14.89Zm11-1.82c-.32-3.41-1.55-7.22-5.73-6.71-2.57.31-3.59,1.81-3.4,3.39a4.56,4.56,0,0,0,4.12,3.77,4.83,4.83,0,0,0,1.26,0Z" transform="translate(-10.99 -3.66)"/><path d="M1709.89,70.84,1709,63.5l3.28-.39,2.15,17.83-3.28.4-.89-7.37-26.79,3.23-.38-3.12Z" transform="translate(-10.99 -3.66)"/><path d="M1706.23,84.32l-11.69,4.85c-1.93.83-3.66,1.49-5.4,2.09v.09c1.84.18,3.7.46,5.75.78l12.5,1.92.4,3.29-22.4-4.2-.36-3L1705.83,81Z" transform="translate(-10.99 -3.66)"/><path d="M1688.63,100.49c1.65-.2,2.94.54,3.09,1.79s-.92,2.24-2.58,2.45-2.9-.5-3.05-1.79S1687.05,100.66,1688.63,100.49Z" transform="translate(-10.99 -3.66)"/><path d="M1688.71,120.61l29.12-11.5.41,3.38L1703.86,118c-3.93,1.52-7.49,2.85-10.91,3.92V122c3.56.26,7.46.79,11.5,1.4l15.36,2.29.4,3.32-31.1-5Z" transform="translate(-10.99 -3.66)"/><path d="M1690.38,134.57,1712,132l.38,3.13-21.58,2.58Zm28.1.2a2.19,2.19,0,0,1-2.68-1.71c-.13-1.14.88-2,2.21-2.19a2.2,2.2,0,0,1,2.68,1.66C1720.83,133.71,1719.85,134.59,1718.48,134.77Z" transform="translate(-10.99 -3.66)"/><path d="M1707.14,141.06c2.25-.27,4-.54,5.81-.84l.33,2.78-3.53.6v.08a6.37,6.37,0,0,1,4.72,5.24c.29,2.37-1,6.3-8.46,7.19l-12.87,1.54-.38-3.13,12.44-1.49c3.49-.41,6.29-1.82,5.93-4.76-.24-2.06-2.27-3.45-4.53-3.75a7.13,7.13,0,0,0-1.85,0l-13,1.55-.37-3.12Z" transform="translate(-10.99 -3.66)"/><path d="M1722,163.1l-6.22.74.54,4.51-3,.36-.54-4.52-11.63,1.38c-2.69.32-4.14,1.12-3.93,2.88a5.11,5.11,0,0,0,.5,1.79l-3,.5a6.61,6.61,0,0,1-.88-2.75,4,4,0,0,1,1.26-3.59c1.09-1,2.95-1.59,5.48-1.89l11.79-1.4-.32-2.68,3-.35.31,2.68,5.2-.62Z" transform="translate(-10.99 -3.66)"/><path d="M1705.41,174.79c-5.3.7-7.16,3.65-6.79,6.81a9.87,9.87,0,0,0,1.67,4.66l-2.72.88a11.74,11.74,0,0,1-2.06-5.61c-.63-5.31,3.41-9,9.89-9.8s12,1.71,12.61,6.76c.67,5.64-5.33,7.85-9.31,8.32a11.51,11.51,0,0,1-1.85.11Zm3.92,8.87c2.48-.26,6.26-1.56,5.84-5.09-.38-3.21-4.17-4.15-6.93-4.07Z" transform="translate(-10.99 -3.66)"/><path d="M1708.43,200.3c-5.3.68-7.17,3.64-6.8,6.8a9.62,9.62,0,0,0,1.67,4.65l-2.73.88a11.71,11.71,0,0,1-2-5.6c-.62-5.32,3.42-9,9.9-9.79s12,1.71,12.6,6.76c.66,5.64-5.34,7.84-9.31,8.31a11.67,11.67,0,0,1-1.86.11Zm3.9,8.87c2.48-.26,6.26-1.56,5.85-5.09-.38-3.21-4.16-4.15-6.92-4.08Z" transform="translate(-10.99 -3.66)"/><path d="M1701.14,225.29l30.09-3.45.39,3.43-14.32,9.46a93.88,93.88,0,0,1-9.31,5.42l.06.08c4-.74,7.65-1.22,12.31-1.75L1733,237l.34,2.93-30.1,3.45-.36-3.16,14.38-9.41a106.85,106.85,0,0,1,9.56-5.64l-.06-.1c-3.79.62-7.42,1.08-12.39,1.65l-12.87,1.47Z" transform="translate(-10.99 -3.66)"/><path d="M1716.46,263.09c-8,.84-12-3.24-12.41-7.4-.49-4.7,3.4-8.77,10.26-9.49,7.24-.76,11.87,2.6,12.37,7.39C1727.2,258.57,1723,262.4,1716.46,263.09Zm-1.69-13.7c-4.74.5-8.08,3.05-7.76,6.12s4.08,4.91,9,4.39c3.66-.38,8.13-2.35,7.73-6.09S1718.87,249,1714.77,249.39Z" transform="translate(-10.99 -3.66)"/><path d="M1726.92,269,1714.6,272c-2,.5-3.85.88-5.66,1.19v.1c1.79.47,3.58,1,5.55,1.68l12,3.9-.13,3.3L1705,274.41l.12-3,22-5.75Z" transform="translate(-10.99 -3.66)"/><path d="M1714.54,286.09c-5.34-.24-7.69,2.35-7.87,5.53a9.72,9.72,0,0,0,.84,4.88l-2.84.39a11.76,11.76,0,0,1-1.05-5.88c.3-5.34,4.92-8.3,11.44-7.93s11.53,3.76,11.25,8.84c-.32,5.67-6.62,6.8-10.61,6.58a11.66,11.66,0,0,1-1.85-.22Zm2.32,9.42c2.48.17,6.43-.46,6.63-4,.18-3.23-3.38-4.81-6.11-5.22Z" transform="translate(-10.99 -3.66)"/><path d="M1733.87,326.34l-26.25-1.69c-1.93-.12-4.1-.2-5.6-.21l.18-2.81,3.76.08v-.09a6.32,6.32,0,0,1-3.87-6.16c.27-4.21,4.93-7.17,11.5-6.75,7.25.44,11.43,4.33,11.15,8.56a5.6,5.6,0,0,1-3.63,5v.08l13,.83ZM1715.09,322a9.67,9.67,0,0,0,1.7,0c2.52-.33,4.68-1.9,4.83-4.28.21-3.27-3.24-5.46-8-5.76-4.4-.29-8.17,1.23-8.39,4.64-.14,2.12,1.52,4.15,4.43,4.92a7.77,7.77,0,0,0,1.68.27Z" transform="translate(-10.99 -3.66)"/><path d="M1711.69,332c-5.33-.3-7.71,2.26-7.92,5.44a9.69,9.69,0,0,0,.78,4.88l-2.84.37a11.84,11.84,0,0,1-1-5.89c.36-5.34,5-8.25,11.52-7.81s11.5,3.89,11.16,9c-.38,5.67-6.69,6.73-10.68,6.46a11.13,11.13,0,0,1-1.84-.23Zm2.22,9.44c2.48.19,6.44-.39,6.68-3.93.21-3.23-3.33-4.84-6.06-5.28Z" transform="translate(-10.99 -3.66)"/><path d="M1729.8,362.29l-.22,3.14L1709.39,364c-8.05-.56-10.3-3.89-10-8a8.56,8.56,0,0,1,.94-3.3l3.16.68a6.16,6.16,0,0,0-.76,2.61c-.2,2.78,1.27,4.53,7.2,4.94Z" transform="translate(-10.99 -3.66)"/><path d="M1698.32,378.05l2.76-.09v-.09a6.18,6.18,0,0,1-2.85-5.54c.24-3.51,3.48-5.09,6.59-4.87,5.25.38,7.87,4.31,7.34,11l.46,0c1.76.13,5,0,5.28-3.6a7.28,7.28,0,0,0-1.29-4.63l2.67-.54a9.31,9.31,0,0,1,1.49,5.87c-.37,5.31-5,6.28-9.34,6l-8.11-.57a44.57,44.57,0,0,0-5.21-.11Zm11.11.29c.33-3.41-.16-7.38-4.35-7.67-2.59-.19-3.87,1.09-4,2.68a4.54,4.54,0,0,0,3.33,4.48,4.69,4.69,0,0,0,1.23.24Z" transform="translate(-10.99 -3.66)"/><path d="M1713.61,386.86c2.26.16,4.06.23,5.86.28l-.2,2.79-3.58-.09v.09a6.37,6.37,0,0,1,3.64,6c-.17,2.38-2.23,6-9.67,5.45l-12.94-.93.23-3.15,12.5.91c3.5.25,6.51-.6,6.73-3.55.15-2.08-1.58-3.82-3.74-4.55a7.64,7.64,0,0,0-1.82-.35l-13.06-.94.22-3.14Z" transform="translate(-10.99 -3.66)"/><path d="M1706.34,408.16c-5.33-.33-7.73,2.22-8,5.39a9.76,9.76,0,0,0,.76,4.89l-2.84.35a11.7,11.7,0,0,1-1-5.89c.39-5.34,5.06-8.23,11.56-7.75s11.48,4,11.11,9c-.42,5.67-6.73,6.7-10.72,6.4a12.07,12.07,0,0,1-1.84-.24Zm2.16,9.44c2.48.22,6.44-.35,6.7-3.89.23-3.22-3.3-4.86-6-5.31Z" transform="translate(-10.99 -3.66)"/><path d="M1695,423.62l21.67,1.6-.23,3.14-21.67-1.6Zm27.54,5.58c-1.34-.1-2.39-.94-2.3-2.19s1.25-1.83,2.59-1.73,2.39,1,2.31,2.14S1724,429.29,1722.57,429.2Z" transform="translate(-10.99 -3.66)"/><path d="M1709.33,433.13c2.56.19,4.75.3,6.76.36l-.2,2.77-4.26-.2v.11c2.85,1,4.54,3.08,4.39,5.19a2.92,2.92,0,0,1-.18.87l-3.71-.27a4.43,4.43,0,0,0,.2-1.07c.16-2.23-1.82-3.95-4.73-4.6a12.4,12.4,0,0,0-1.83-.26l-11.58-.86.23-3.15Z" transform="translate(-10.99 -3.66)"/><path d="M1703.44,459.93c-8-.6-11.21-5.32-10.9-9.5.36-4.71,4.91-8,11.79-7.51,7.26.55,11.21,4.68,10.85,9.49C1714.81,457.4,1710,460.43,1703.44,459.93Zm.77-13.78c-4.75-.36-8.49,1.55-8.72,4.64s3.13,5.55,8,5.92c3.67.27,8.41-.86,8.69-4.61S1708.32,446.45,1704.21,446.15Z" transform="translate(-10.99 -3.66)"/><path d="M577.67,280a33.7,33.7,0,0,1,6.05.1c3.31.34,5.43,1.2,6.79,2.71a6.07,6.07,0,0,1,1.42,4.78,6.42,6.42,0,0,1-5.18,5.69v.08c1.77.84,2.71,2.69,3,5.26a40,40,0,0,0,1.18,6.81l-3.24-.33a32.93,32.93,0,0,1-1-5.94c-.37-3.38-1.55-4.8-4.36-5.18l-3-.31-1.08,10.46-3.11-.32Zm2,11.31,3.19.33c3.34.34,5.64-1.25,5.92-4,.33-3.14-1.8-4.73-5.08-5.08a14.16,14.16,0,0,0-3.12,0Z" transform="translate(-10.99 -3.66)"/><path d="M609.23,303c-.24,1.81-.38,3.37-.47,4.74L606,307.4l.2-2.84h-.08A6.53,6.53,0,0,1,600,307c-2.7-.35-5.75-2.29-5-8.35l1.32-10.09,3.12.41-1.24,9.54c-.43,3.29.3,5.66,3.14,6a4.61,4.61,0,0,0,4.53-2.34,5,5,0,0,0,.49-1.57l1.38-10.58,3.13.41Z" transform="translate(-10.99 -3.66)"/><path d="M623.19,310l.07-2.22h-.09a6.5,6.5,0,0,1-5.67,1.73,5,5,0,0,1-4.47-5.77c.66-4.16,4.71-5.87,11.35-4.77l.06-.36c.22-1.4.23-4.05-3.29-4.59a8.52,8.52,0,0,0-4.68.57l-.38-2.19a11,11,0,0,1,5.91-.61c5.26.83,6,4.63,5.42,8.08l-1,6.43a28.26,28.26,0,0,0-.39,4.15Zm.91-8.86c-3.38-.61-7.35-.61-7.87,2.71a2.79,2.79,0,0,0,2.44,3.46,4.35,4.35,0,0,0,4.65-2.22,3.32,3.32,0,0,0,.3-1Z" transform="translate(-10.99 -3.66)"/><path d="M645.46,292.05l-7.25-1.43.52-2.6,17.62,3.49-.51,2.6-7.29-1.44-4.2,21.2-3.09-.62Z" transform="translate(-10.99 -3.66)"/><path d="M655,303.84c.44-2,.77-3.72,1-5.32l2.71.6-.62,3.36.11,0a5.27,5.27,0,0,1,5.56-2.67,3.45,3.45,0,0,1,.84.28L664,303a5,5,0,0,0-1-.32c-2.18-.48-4.08.82-5,3a9.1,9.1,0,0,0-.44,1.42l-2,9.08-3.07-.68Z" transform="translate(-10.99 -3.66)"/><path d="M673,320.4l.26-2.2-.09,0a6.46,6.46,0,0,1-5.8,1.22,5,5,0,0,1-4-6.13c1-4.1,5.22-5.44,11.73-3.76l.09-.35c.34-1.38.6-4-2.87-4.86a8.47,8.47,0,0,0-4.72.15l-.18-2.21a10.88,10.88,0,0,1,5.94-.09c5.17,1.29,5.54,5.14,4.7,8.52L676.49,317a27.1,27.1,0,0,0-.75,4.11Zm1.68-8.74c-3.31-.9-7.26-1.26-8.08,2a2.79,2.79,0,0,0,2.13,3.66,4.37,4.37,0,0,0,4.82-1.8,3.19,3.19,0,0,0,.39-.93Z" transform="translate(-10.99 -3.66)"/><path d="M685.89,305.83l.6,10.32c.12,1.71.15,3.22.13,4.71l.09,0c.78-1.28,1.66-2.54,2.64-3.92l6-8.45,3.18.91-11.37,14.85-2.91-.83-1.58-18.56Z" transform="translate(-10.99 -3.66)"/><path d="M700.2,319.72c-1.27,4.09.76,6.61,3.79,7.59a11.73,11.73,0,0,0,4.86.65l-.17,2.31a14,14,0,0,1-5.87-.75c-5.08-1.65-7-6-5.42-11s5.87-8,10.7-6.4c5.4,1.76,5.27,7,4.28,10a7.11,7.11,0,0,1-.57,1.38Zm9.51.71c.65-1.89.81-5.13-2.56-6.23-3.08-1-5.29,1.35-6.21,3.37Z" transform="translate(-10.99 -3.66)"/><path d="M713.6,329.36a8.68,8.68,0,0,0,3.52,2.61c2.17.79,3.57.09,4.07-1.27s-.07-2.5-1.94-4.11c-2.57-2.15-3.38-4.27-2.65-6.23,1-2.63,3.89-4,7.41-2.72a8.48,8.48,0,0,1,3.64,2.47L726.12,322a6.94,6.94,0,0,0-3-2.19c-1.75-.64-3.07,0-3.53,1.25s.25,2.31,2.09,3.93c2.43,2.08,3.38,4,2.49,6.48-1.06,2.9-4.06,4.11-7.92,2.69a9.91,9.91,0,0,1-4.18-2.82Z" transform="translate(-10.99 -3.66)"/><path d="M726.88,334.29a8.74,8.74,0,0,0,3.43,2.73c2.14.86,3.56.21,4.11-1.14s0-2.5-1.81-4.17c-2.49-2.23-3.23-4.38-2.44-6.31,1.05-2.6,4-3.88,7.5-2.47a8.43,8.43,0,0,1,3.55,2.59l-1.59,1.84a6.89,6.89,0,0,0-2.93-2.29c-1.73-.7-3.08-.08-3.57,1.13s.17,2.32,2,4c2.37,2.16,3.24,4.15,2.28,6.56-1.16,2.86-4.19,4-8,2.43a9.89,9.89,0,0,1-4.08-3Z" transform="translate(-10.99 -3.66)"/><path d="M747.87,346.73l.64-2.12-.08,0a6.47,6.47,0,0,1-5.92.18,5,5,0,0,1-2.8-6.74c1.73-3.85,6.09-4.42,12.2-1.62l.15-.33c.59-1.29,1.3-3.85-2-5.29a8.45,8.45,0,0,0-4.67-.68l.21-2.22a11,11,0,0,1,5.87,1c4.85,2.19,4.54,6,3.11,9.22L751.94,344a27.16,27.16,0,0,0-1.47,3.91Zm3.2-8.31c-3.1-1.47-6.93-2.52-8.31.55a2.78,2.78,0,0,0,1.45,4,4.36,4.36,0,0,0,5.07-.91,3,3,0,0,0,.54-.85Z" transform="translate(-10.99 -3.66)"/><path d="M774.27,335.65l-6.53-3.46,1.24-2.34,15.88,8.4-1.23,2.34-6.57-3.47L767,356.23l-2.78-1.47Z" transform="translate(-10.99 -3.66)"/><path d="M780.13,349.77c1-1.78,1.86-3.32,2.59-4.77l2.4,1.39-1.6,3,.1,0a5.3,5.3,0,0,1,6.1-.88,3.7,3.7,0,0,1,.72.52L789,351.68a5.14,5.14,0,0,0-.88-.62c-1.94-1.11-4.14-.44-5.7,1.4a8.89,8.89,0,0,0-.85,1.21l-4.64,8.06-2.73-1.57Z" transform="translate(-10.99 -3.66)"/><path d="M789.66,359.84c-2.24,3.65-.89,6.59,1.8,8.29A11.63,11.63,0,0,0,796,370l-.74,2.2a14.17,14.17,0,0,1-5.5-2.17c-4.52-2.87-5.33-7.6-2.53-12s7.66-6.28,12-3.56c4.8,3,3.39,8.05,1.67,10.76a7.44,7.44,0,0,1-.88,1.19Zm9.05,3c1.09-1.66,2-4.76-1-6.66-2.73-1.73-5.45,0-6.85,1.72Zm5.13-14,.16,6.2-2-1.3.06-4-.06,0-3.59,1.76-2-1.26,5.62-2.55Z" transform="translate(-10.99 -3.66)"/><path d="M800.2,372.51a8.69,8.69,0,0,0,2.71,3.43c1.9,1.33,3.43,1,4.26-.17s.59-2.43-.81-4.47c-1.91-2.74-2.14-5-.93-6.7,1.61-2.3,4.8-2.86,7.86-.71a8.41,8.41,0,0,1,2.87,3.33l-2,1.43a6.75,6.75,0,0,0-2.33-2.89c-1.53-1.08-3-.78-3.73.29s-.37,2.29,1,4.33c1.81,2.64,2.21,4.78.72,6.91-1.78,2.52-5,2.91-8.34.54a10,10,0,0,1-3.31-3.81Z" transform="translate(-10.99 -3.66)"/></g></g></svg>