<svg xmlns="http://www.w3.org/2000/svg" viewBox="0 0 1723.08 698.97"><defs><style>.cls-1{opacity:0.98;}.cls-2{fill:#cfdcfa;}.cls-2,.cls-3{stroke:#000;stroke-miterlimit:10;stroke-width:4px;}.cls-3{fill:none;}</style></defs><g id="Layer_2" data-name="Layer 2"><g id="Novo_Mapa" data-name="Novo Mapa"><g class="cls-1"><path d="M736.87,6.2a33.12,33.12,0,0,1,6-.52c3.32,0,5.51.63,7,2a6.09,6.09,0,0,1,1.9,4.61,6.4,6.4,0,0,1-4.57,6.18v.09c1.85.65,3,2.4,3.55,4.91a41.17,41.17,0,0,0,1.87,6.66h-3.25a31.94,31.94,0,0,1-1.59-5.81c-.72-3.32-2-4.61-4.87-4.7h-3V30.13h-3.13ZM740,17.25h3.2c3.36,0,5.48-1.83,5.48-4.61,0-3.15-2.27-4.52-5.58-4.52a13.58,13.58,0,0,0-3.1.27Z" transform="translate(-10.99 -5.68)"/><path d="M770.67,25.37c0,1.82.06,3.39.14,4.76H768l-.17-2.84h-.08A6.53,6.53,0,0,1,762,30.53c-2.72,0-6-1.53-6-7.63V12.72h3.15v9.62c0,3.32,1,5.58,3.89,5.58A4.62,4.62,0,0,0,767.23,25a5,5,0,0,0,.29-1.62V12.72h3.15Z" transform="translate(-10.99 -5.68)"/><path d="M785.6,30.13l-.28-2.2h-.1a6.46,6.46,0,0,1-5.32,2.6,5,5,0,0,1-5.32-5c0-4.21,3.74-6.53,10.46-6.48v-.37c0-1.42-.39-4-4-4a8.55,8.55,0,0,0-4.54,1.3l-.71-2.11a10.94,10.94,0,0,1,5.74-1.52c5.32,0,6.62,3.64,6.62,7.12V26a27.85,27.85,0,0,0,.26,4.16Zm-.5-8.89c-3.42-.07-7.34.55-7.34,3.91a2.78,2.78,0,0,0,3,3A4.37,4.37,0,0,0,785,25.27a3.65,3.65,0,0,0,.14-1Z" transform="translate(-10.99 -5.68)"/><path d="M804.18,8.52h-7.39V5.87h18V8.52h-7.42V30.13h-3.15Z" transform="translate(-10.99 -5.68)"/><path d="M815.72,18.15c0-2.06-.05-3.81-.14-5.43h2.77l.12,3.42h.11a5.29,5.29,0,0,1,4.85-3.81,3.5,3.5,0,0,1,.88.09v3a4.84,4.84,0,0,0-1.08-.1c-2.23,0-3.8,1.69-4.23,4.05a8.67,8.67,0,0,0-.13,1.48v9.3h-3.15Z" transform="translate(-10.99 -5.68)"/><path d="M837,30.13l-.28-2.2h-.09a6.49,6.49,0,0,1-5.33,2.6,5,5,0,0,1-5.32-5c0-4.21,3.74-6.53,10.47-6.48v-.37c0-1.42-.4-4-4-4a8.49,8.49,0,0,0-4.53,1.3l-.72-2.11a10.94,10.94,0,0,1,5.74-1.52c5.32,0,6.62,3.64,6.62,7.12V26a27.85,27.85,0,0,0,.26,4.16Zm-.49-8.89c-3.43-.07-7.35.55-7.35,3.91a2.78,2.78,0,0,0,3,3,4.36,4.36,0,0,0,4.25-2.91,3.33,3.33,0,0,0,.15-1Z" transform="translate(-10.99 -5.68)"/><path d="M845.6,12.72,849,22.48c.59,1.62,1,3.05,1.43,4.5h.09c.4-1.45.9-2.89,1.46-4.5l3.41-9.76h3.31l-6.85,17.41h-3l-6.63-17.41Z" transform="translate(-10.99 -5.68)"/><path d="M863.11,22c.06,4.28,2.78,6,6,6a11.65,11.65,0,0,0,4.82-.89l.55,2.25a13.94,13.94,0,0,1-5.81,1.11c-5.34,0-8.56-3.56-8.56-8.79s3.11-9.39,8.19-9.39c5.68,0,7.16,5,7.16,8.19a7.84,7.84,0,0,1-.1,1.48Zm9.26-2.28c0-2-.81-5.12-4.36-5.12-3.23,0-4.61,2.92-4.86,5.12Z" transform="translate(-10.99 -5.68)"/><path d="M878.92,26.91a8.72,8.72,0,0,0,4.2,1.24c2.31,0,3.38-1.14,3.38-2.59s-.92-2.32-3.23-3.19c-3.15-1.14-4.64-2.85-4.63-4.94,0-2.8,2.28-5.1,6-5.1a8.44,8.44,0,0,1,4.27,1.07l-.79,2.3a6.83,6.83,0,0,0-3.57-1c-1.87,0-2.88,1.07-2.88,2.39s1,2.08,3.3,3c3,1.12,4.56,2.64,4.57,5.24,0,3.08-2.4,5.24-6.51,5.24a9.89,9.89,0,0,1-4.89-1.21Z" transform="translate(-10.99 -5.68)"/><path d="M893.18,26.91a8.68,8.68,0,0,0,4.2,1.24c2.31,0,3.38-1.14,3.38-2.59s-.92-2.32-3.24-3.19c-3.14-1.14-4.63-2.85-4.62-4.94,0-2.8,2.28-5.1,6-5.1a8.4,8.4,0,0,1,4.26,1.07l-.78,2.3a6.86,6.86,0,0,0-3.57-1c-1.87,0-2.89,1.07-2.89,2.39s1,2.08,3.31,3c3,1.12,4.56,2.64,4.56,5.24,0,3.08-2.39,5.24-6.51,5.24a10,10,0,0,1-4.89-1.21Z" transform="translate(-10.99 -5.68)"/><path d="M917.54,30.13l-.28-2.2h-.1a6.46,6.46,0,0,1-5.32,2.6,5,5,0,0,1-5.32-5c0-4.21,3.74-6.53,10.46-6.48v-.37c0-1.42-.4-4-4-4a8.53,8.53,0,0,0-4.54,1.3l-.72-2.11a11,11,0,0,1,5.75-1.52c5.32,0,6.62,3.64,6.62,7.12V26a27.85,27.85,0,0,0,.26,4.16Zm-.5-8.89c-3.42-.07-7.34.55-7.34,3.91a2.78,2.78,0,0,0,2.95,3,4.35,4.35,0,0,0,4.24-2.91,3.33,3.33,0,0,0,.15-1Z" transform="translate(-10.99 -5.68)"/><path d="M933,6.2a42.33,42.33,0,0,1,6.67-.52c4.49,0,7.7,1.07,9.83,3.05s3.43,4.77,3.43,8.68a12.9,12.9,0,0,1-3.49,9.44c-2.29,2.26-6,3.5-10.74,3.5a51.1,51.1,0,0,1-5.7-.27Zm3.15,21.47a22.2,22.2,0,0,0,3.15.14c6.71,0,10.33-3.72,10.33-10.28,0-5.73-3.2-9.35-9.81-9.35a18.59,18.59,0,0,0-3.67.32Z" transform="translate(-10.99 -5.68)"/><path d="M972.74,21.26c0,6.45-4.47,9.27-8.65,9.27-4.72,0-8.37-3.44-8.37-9,0-5.83,3.83-9.23,8.64-9.23C969.37,12.33,972.74,16,972.74,21.26Zm-13.8.2c0,3.82,2.19,6.7,5.28,6.7s5.3-2.84,5.3-6.79c0-2.95-1.48-6.67-5.24-6.67S958.94,18.16,958.94,21.46Z" transform="translate(-10.99 -5.68)"/><path d="M980.29,7.8a1.91,1.91,0,0,1-2,2,1.89,1.89,0,0,1-1.91-2,1.93,1.93,0,0,1,2-2A1.9,1.9,0,0,1,980.29,7.8Zm-3.54,22.33V12.72h3.15V30.13Z" transform="translate(-10.99 -5.68)"/><path d="M984.73,26.91a8.68,8.68,0,0,0,4.19,1.24c2.31,0,3.39-1.14,3.39-2.59s-.93-2.32-3.24-3.19c-3.14-1.14-4.63-2.85-4.63-4.94,0-2.8,2.28-5.1,6-5.1a8.43,8.43,0,0,1,4.26,1.07l-.79,2.3a6.83,6.83,0,0,0-3.57-1c-1.87,0-2.88,1.07-2.88,2.39s1,2.08,3.3,3c3,1.12,4.56,2.64,4.57,5.24,0,3.08-2.4,5.24-6.51,5.24A9.89,9.89,0,0,1,984,29.3Z" transform="translate(-10.99 -5.68)"/></g><path class="cls-2" d="M1292.76,107.79s17.83,373.75,17.8,374.63c-.67,21.5-17.8,21.43-17.8,21.43l-364.11-10c-9.85,1.23-20.47-9.52-25.59-15.56a34.25,34.25,0,0,1-4.81-7.72C816.09,293.54,483,301.75,461.57,300.63c-.63,0-27.58.77-27.58.77-14.94.45-28.22,5.65-28.22,23.42v-.67c0,18.06,13.64,22.71,28.83,22.77,80.51.34,288.56-7.92,405.73,125a32.29,32.29,0,0,1,4.25,6.25l3.94,7.49a34.67,34.67,0,0,1,2.09,4.83c5.15,15.23-1.34,15.31-7.83,16.85C835.92,509,666,574,598.26,585.43c-63.49,10.7-398.74,54.34-440.47,59.76a78.25,78.25,0,0,1-8.38.55c-12.34,0-20.56-16.3-20.56-16.3L48,270.8C45.22,251.24,63,244.72,63,244.72s403-70.1,663.53-101.07,547-48.9,547-48.9C1296.87,94.75,1292.76,107.79,1292.76,107.79Z" transform="translate(-10.99 -5.68)"/><path class="cls-2" d="M1339.28,100.1s17.79,373.76,17.8,374.63c2.85,27.56,22.05,27.56,22.05,27.56l276.92-9.78c21.94,1.63,23.31-26.08,23.31-26.08s10.26-152.77,9.24-165.23-23.8-206.45-23.8-206.45c-1.89-13-17-14.68-17-14.68l-293.38,6.52C1339.37,88.23,1339.28,100.1,1339.28,100.1Z" transform="translate(-10.99 -5.68)"/><path class="cls-3" d="M176.58,702.65a78.59,78.59,0,0,0,8.38-.55c41.73-5.43,377-49.07,440.47-59.77,67.73-11.41,177.66-55.42,184.51-57.05,0,0,79.43-33.63,103.74-33.63l399.57,2.43,83.17,3.48,276.92-9.78" transform="translate(-10.99 -5.68)"/><g class="cls-1"><path d="M107.12,196.8a33.39,33.39,0,0,1,5.88-1.42c3.29-.5,5.55-.21,7.25.91a6.08,6.08,0,0,1,2.58,4.28,6.4,6.4,0,0,1-3.59,6.8v.08c1.93.37,3.3,1.93,4.26,4.32a40.82,40.82,0,0,0,2.85,6.31l-3.22.48a32.29,32.29,0,0,1-2.45-5.5c-1.21-3.17-2.7-4.25-5.52-3.91l-2.93.44L113.82,220l-3.09.48Zm4.76,10.45,3.17-.48c3.31-.51,5.14-2.64,4.72-5.38-.48-3.12-2.93-4.13-6.2-3.64a14,14,0,0,0-3,.74Z" transform="translate(-10.99 -5.68)"/><path d="M143.42,210.66c.28,1.8.57,3.34.86,4.69l-2.76.42-.6-2.79h-.09a6.48,6.48,0,0,1-5.21,4.07c-2.69.41-6.15-.6-7.07-6.64l-1.53-10,3.11-.48,1.45,9.51c.5,3.28,1.86,5.36,4.68,4.93a4.63,4.63,0,0,0,3.71-3.51,5,5,0,0,0,0-1.65l-1.61-10.54,3.12-.47Z" transform="translate(-10.99 -5.68)"/><path d="M158.9,213.12l-.61-2.13h-.09a6.48,6.48,0,0,1-4.87,3.37,5,5,0,0,1-6-4.14c-.64-4.17,2.71-7,9.36-8l-.05-.36c-.22-1.4-1-3.93-4.53-3.37a8.39,8.39,0,0,0-4.28,2l-1-2a11,11,0,0,1,5.45-2.38c5.26-.8,7.09,2.6,7.61,6l1,6.44a28.32,28.32,0,0,0,.89,4.08Zm-1.83-8.71c-3.39.44-7.18,1.64-6.67,5a2.79,2.79,0,0,0,3.38,2.55,4.37,4.37,0,0,0,3.75-3.52,3.11,3.11,0,0,0,0-1Z" transform="translate(-10.99 -5.68)"/><path d="M173.59,186.34l2.17,14.21c.81,5.35,3.53,7.26,6.77,6.77,3.53-.54,5.47-3.24,4.67-8.51L185,184.6l3.11-.48,2.13,14c1.13,7.37-2.29,11-7.49,11.76-4.9.75-9-1.48-10.16-8.94l-2.15-14.13Z" transform="translate(-10.99 -5.68)"/><path d="M193.23,182l3.12-.48,3.85,25.27-3.12.47Z" transform="translate(-10.99 -5.68)"/><path d="M205.62,183.42a1.91,1.91,0,0,1-1.7,2.24,1.88,1.88,0,0,1-2.18-1.65,1.92,1.92,0,0,1,1.65-2.25A1.9,1.9,0,0,1,205.62,183.42Zm-.14,22.6-2.62-17.21,3.11-.47,2.63,17.21Z" transform="translate(-10.99 -5.68)"/><path d="M212.88,201.64a8.65,8.65,0,0,0,4.33.59c2.29-.35,3.18-1.63,3-3.07s-1.26-2.16-3.68-2.67c-3.28-.65-5-2.12-5.32-4.18-.42-2.77,1.49-5.39,5.19-5.95a8.41,8.41,0,0,1,4.38.41l-.44,2.4a6.8,6.8,0,0,0-3.68-.48c-1.85.28-2.69,1.5-2.49,2.8s1.33,1.9,3.71,2.44c3.14.65,4.91,1.91,5.31,4.48.46,3.05-1.58,5.55-5.65,6.16a9.88,9.88,0,0,1-5-.46Z" transform="translate(-10.99 -5.68)"/><path d="M227,199.49a8.69,8.69,0,0,0,4.34.59c2.28-.35,3.17-1.63,2.95-3.07s-1.26-2.15-3.68-2.66c-3.28-.66-5-2.12-5.31-4.19-.42-2.77,1.48-5.39,5.18-5.95a8.4,8.4,0,0,1,4.38.42L234.4,187a7,7,0,0,0-3.69-.48c-1.84.29-2.68,1.5-2.49,2.8s1.33,1.91,3.72,2.44c3.13.65,4.9,1.91,5.3,4.48.46,3.05-1.58,5.55-5.65,6.17a10.1,10.1,0,0,1-5-.46Z" transform="translate(-10.99 -5.68)"/><path d="M242.52,192.16c.71,4.22,3.66,5.55,6.8,5.07a11.59,11.59,0,0,0,4.63-1.61l.89,2.14a14,14,0,0,1-5.57,2c-5.29.8-9-2.24-9.79-7.4s1.65-9.76,6.68-10.52c5.61-.86,7.83,3.84,8.31,7a7.68,7.68,0,0,1,.12,1.49Zm8.82-3.65c-.27-2-1.58-4.95-5.09-4.41-3.19.49-4.11,3.58-4,5.8Z" transform="translate(-10.99 -5.68)"/><path d="M258.9,194.63a8.63,8.63,0,0,0,4.33.59c2.29-.35,3.18-1.63,3-3.07s-1.26-2.16-3.68-2.67c-3.28-.65-5-2.12-5.32-4.18-.42-2.77,1.48-5.39,5.19-6a8.46,8.46,0,0,1,4.37.41l-.43,2.4a6.81,6.81,0,0,0-3.68-.48c-1.85.28-2.69,1.5-2.49,2.8s1.32,1.9,3.71,2.44c3.14.65,4.9,1.91,5.3,4.48.47,3-1.58,5.55-5.64,6.16a9.86,9.86,0,0,1-5-.46Z" transform="translate(-10.99 -5.68)"/><path d="M299.67,190.57A21.87,21.87,0,0,1,292.5,193c-3.64.56-6.78.1-9.45-1.8a12.34,12.34,0,0,1-4.69-8.4c-1.08-7.15,3-13.14,11.07-14.36a15.42,15.42,0,0,1,6.17.18l-.39,2.65a12.27,12.27,0,0,0-5.45-.22c-5.82.89-9.08,5.09-8.17,11.1s5.12,9.12,10.73,8.26a10.07,10.07,0,0,0,4-1.27L295.25,182l-4.85.74-.38-2.47,7.9-1.21Z" transform="translate(-10.99 -5.68)"/><path d="M318.2,184c.27,1.81.57,3.34.86,4.69l-2.77.42-.59-2.79-.09,0a6.5,6.5,0,0,1-5.21,4.07c-2.69.41-6.15-.61-7.07-6.64l-1.54-10.06,3.12-.47,1.45,9.51c.5,3.28,1.86,5.35,4.68,4.92a4.62,4.62,0,0,0,3.71-3.5,5,5,0,0,0,0-1.65L313.18,172l3.11-.47Z" transform="translate(-10.99 -5.68)"/><path d="M324.27,165.34a2,2,0,1,1-2.23-1.65A1.9,1.9,0,0,1,324.27,165.34ZM324.14,188l-2.63-17.21,3.12-.47,2.62,17.2Z" transform="translate(-10.99 -5.68)"/><path d="M330.55,174.12c-.27-1.8-.55-3.21-.85-4.63l2.72-.41.59,2.74h.08a6,6,0,0,1,5-4,5.13,5.13,0,0,1,5.38,2.71h.07a7.14,7.14,0,0,1,1.6-2.54,5.94,5.94,0,0,1,3.6-1.78c2.3-.35,5.91.61,6.82,6.6l1.55,10.13-3.06.47-1.48-9.73c-.51-3.34-2-5.12-4.54-4.74a4.13,4.13,0,0,0-3.3,3.38,5.09,5.09,0,0,0,0,1.61l1.62,10.65-3.06.47-1.57-10.33c-.42-2.74-1.93-4.53-4.29-4.17a4.39,4.39,0,0,0-3.43,3.72,5.23,5.23,0,0,0,0,1.58l1.58,10.37-3.06.47Z" transform="translate(-10.99 -5.68)"/><path d="M371.69,180.71l-.61-2.14-.09,0a6.48,6.48,0,0,1-4.88,3.37,5,5,0,0,1-6-4.14c-.63-4.17,2.71-7,9.37-8l-.06-.36c-.21-1.4-1-3.93-4.52-3.38a8.55,8.55,0,0,0-4.29,2l-1-2a10.94,10.94,0,0,1,5.45-2.37c5.26-.8,7.09,2.6,7.61,6l1,6.44a28.62,28.62,0,0,0,.89,4.08ZM369.86,172c-3.4.45-7.18,1.65-6.67,5a2.77,2.77,0,0,0,3.37,2.55,4.36,4.36,0,0,0,3.76-3.52,3.35,3.35,0,0,0,0-1Z" transform="translate(-10.99 -5.68)"/><path d="M377.49,167.7c-.31-2-.63-3.76-1-5.34l2.74-.42.64,3.36.11,0a5.26,5.26,0,0,1,4.22-4.49,3.35,3.35,0,0,1,.88,0l.45,2.94a5.38,5.38,0,0,0-1.08.08c-2.21.33-3.51,2.23-3.58,4.64a8.56,8.56,0,0,0,.1,1.48l1.4,9.19-3.12.48Z" transform="translate(-10.99 -5.68)"/><path d="M400.3,176.35l-.61-2.13h-.09a6.48,6.48,0,0,1-4.87,3.37,5,5,0,0,1-6-4.14c-.64-4.17,2.71-7,9.36-8l-.05-.36c-.21-1.4-1-3.93-4.53-3.38a8.48,8.48,0,0,0-4.28,2l-1-2a10.9,10.9,0,0,1,5.45-2.38c5.26-.8,7.09,2.6,7.62,6.05l1,6.44a27.37,27.37,0,0,0,.88,4.08ZM389.16,157.4c-.41-2.32.34-3.85,1.86-4.09a4.81,4.81,0,0,1,2.34.46,3.83,3.83,0,0,0,1.59.38c.55-.09.85-.46.75-1.66l1.66-.26c.4,2.35-.21,3.71-1.88,4a4.7,4.7,0,0,1-2.29-.42,3.62,3.62,0,0,0-1.63-.39c-.56.09-.76.74-.68,1.75Zm9.32,10.23c-3.4.45-7.19,1.65-6.68,5a2.8,2.8,0,0,0,3.38,2.56,4.35,4.35,0,0,0,3.75-3.53,3,3,0,0,0,0-1Z" transform="translate(-10.99 -5.68)"/><path d="M408.44,166.88c.71,4.22,3.66,5.56,6.8,5.08a11.59,11.59,0,0,0,4.63-1.61l.89,2.14a13.9,13.9,0,0,1-5.58,2c-5.28.81-9-2.23-9.79-7.39s1.66-9.76,6.69-10.53c5.61-.85,7.83,3.85,8.31,7a7.59,7.59,0,0,1,.12,1.48Zm8.82-3.65c-.27-2-1.58-4.94-5.09-4.4-3.2.48-4.12,3.58-4,5.79Z" transform="translate(-10.99 -5.68)"/><path d="M424.81,169.35a8.69,8.69,0,0,0,4.34.6c2.28-.35,3.17-1.64,3-3.08s-1.26-2.15-3.67-2.66c-3.29-.65-5-2.12-5.32-4.18-.42-2.78,1.48-5.39,5.18-6a8.5,8.5,0,0,1,4.38.42l-.43,2.39a6.87,6.87,0,0,0-3.69-.47c-1.84.28-2.68,1.5-2.49,2.8s1.33,1.9,3.72,2.43c3.13.65,4.9,1.92,5.3,4.49.46,3.05-1.58,5.54-5.65,6.16a9.82,9.82,0,0,1-5-.46Z" transform="translate(-10.99 -5.68)"/></g><g class="cls-1"><path d="M634.08,117.33a33.49,33.49,0,0,1,5.93-1.19c3.3-.37,5.55,0,7.21,1.2a6.09,6.09,0,0,1,2.4,4.38,6.4,6.4,0,0,1-3.85,6.65v.09c1.91.43,3.21,2,4.08,4.48a40.18,40.18,0,0,0,2.6,6.41l-3.23.36a31.13,31.13,0,0,1-2.23-5.59c-1.09-3.22-2.54-4.36-5.37-4.13l-3,.33,1.18,10.44-3.12.35ZM638.42,128l3.18-.36c3.33-.37,5.24-2.42,4.93-5.19-.35-3.13-2.76-4.23-6-3.87a13.53,13.53,0,0,0-3.05.62Z" transform="translate(-10.99 -5.68)"/><path d="M669.8,132.61c.2,1.82.44,3.36.67,4.72l-2.78.31-.48-2.81h-.09a6.5,6.5,0,0,1-5.36,3.87c-2.71.3-6.13-.85-6.81-6.92l-1.14-10.11,3.13-.35,1.08,9.56c.37,3.29,1.64,5.42,4.48,5.1a4.5,4.5,0,0,0,4-5l-1.19-10.59,3.13-.35Z" transform="translate(-10.99 -5.68)"/><path d="M685.17,135.68l-.52-2.15h-.1a6.46,6.46,0,0,1-5,3.17,5,5,0,0,1-5.84-4.37c-.47-4.19,3-6.91,9.67-7.61l0-.37c-.16-1.4-.84-4-4.39-3.55a8.42,8.42,0,0,0-4.36,1.8l-1-2a10.88,10.88,0,0,1,5.54-2.16c5.29-.6,7,2.87,7.37,6.34l.73,6.47a27.17,27.17,0,0,0,.73,4.11Zm-1.48-8.78c-3.41.31-7.24,1.36-6.87,4.71a2.79,2.79,0,0,0,3.28,2.68,4.36,4.36,0,0,0,3.89-3.37,3.49,3.49,0,0,0,0-1Z" transform="translate(-10.99 -5.68)"/><path d="M700.91,109.5l1.6,14.29c.6,5.38,3.25,7.39,6.5,7,3.55-.4,5.6-3,5-8.32l-1.6-14.29,3.13-.35,1.58,14.07c.83,7.41-2.73,10.87-8,11.46-4.93.55-9-1.84-9.8-9.33l-1.59-14.21Z" transform="translate(-10.99 -5.68)"/><path d="M720.7,106l3.13-.35L726.68,131l-3.13.36Z" transform="translate(-10.99 -5.68)"/><path d="M733,107.84a1.91,1.91,0,0,1-1.78,2.18,1.89,1.89,0,0,1-2.12-1.74,1.93,1.93,0,0,1,1.74-2.18A1.9,1.9,0,0,1,733,107.84Zm-1,22.59-1.94-17.3,3.13-.35,1.94,17.3Z" transform="translate(-10.99 -5.68)"/><path d="M739.56,126.34a8.66,8.66,0,0,0,4.31.76c2.3-.26,3.23-1.5,3.07-2.95s-1.17-2.21-3.57-2.81c-3.25-.78-4.92-2.32-5.15-4.39-.31-2.79,1.7-5.33,5.42-5.74a8.41,8.41,0,0,1,4.36.59l-.53,2.37a6.88,6.88,0,0,0-3.66-.62c-1.86.21-2.75,1.39-2.6,2.7s1.25,2,3.61,2.58c3.11.77,4.83,2.1,5.13,4.69.34,3.06-1.8,5.48-5.89,5.94a10.08,10.08,0,0,1-5-.66Z" transform="translate(-10.99 -5.68)"/><path d="M753.73,124.75a8.64,8.64,0,0,0,4.31.76c2.29-.26,3.23-1.5,3.07-3s-1.18-2.2-3.57-2.81c-3.25-.78-4.92-2.31-5.15-4.39-.31-2.78,1.7-5.32,5.42-5.74a8.36,8.36,0,0,1,4.35.59l-.52,2.37A6.88,6.88,0,0,0,758,112c-1.86.21-2.75,1.39-2.6,2.7s1.24,2,3.61,2.58c3.11.77,4.83,2.11,5.12,4.69.35,3.06-1.79,5.48-5.88,5.94a10.06,10.06,0,0,1-5-.66Z" transform="translate(-10.99 -5.68)"/><path d="M769.55,118c.54,4.25,3.44,5.7,6.6,5.34a11.72,11.72,0,0,0,4.69-1.42l.8,2.17a14,14,0,0,1-5.65,1.75c-5.31.6-8.91-2.58-9.49-7.77s2-9.69,7.09-10.25c5.65-.64,7.68,4.15,8,7.33a7.28,7.28,0,0,1,0,1.49Zm9-3.29c-.19-2-1.39-5-4.91-4.61-3.21.36-4.26,3.42-4.26,5.64Z" transform="translate(-10.99 -5.68)"/><path d="M785.82,121.15a8.64,8.64,0,0,0,4.31.76c2.29-.26,3.23-1.5,3.07-3s-1.17-2.2-3.57-2.81c-3.25-.78-4.92-2.31-5.15-4.39-.31-2.78,1.7-5.32,5.42-5.74a8.36,8.36,0,0,1,4.35.59l-.52,2.37a6.88,6.88,0,0,0-3.66-.62c-1.86.21-2.75,1.39-2.6,2.7s1.25,2,3.61,2.58c3.11.78,4.83,2.11,5.12,4.69.35,3.06-1.79,5.48-5.88,5.94a10.06,10.06,0,0,1-5-.66Z" transform="translate(-10.99 -5.68)"/><path d="M826.72,118.71a22,22,0,0,1-7.26,2.15c-3.66.41-6.78-.17-9.38-2.17a12.38,12.38,0,0,1-4.35-8.58c-.8-7.19,3.56-13,11.63-13.92a15.48,15.48,0,0,1,6.16.43L823,99.25a12.31,12.31,0,0,0-5.45-.43c-5.85.65-9.27,4.72-8.59,10.76s4.75,9.32,10.39,8.68a10,10,0,0,0,4.07-1.11l-.81-7.18-4.88.55-.28-2.5,7.94-.89Z" transform="translate(-10.99 -5.68)"/><path d="M845.49,112.9c.2,1.82.44,3.36.68,4.72l-2.79.31-.48-2.81h-.09a6.5,6.5,0,0,1-5.36,3.87c-2.71.3-6.13-.85-6.81-6.92L829.51,102l3.13-.35,1.07,9.56c.37,3.29,1.65,5.42,4.49,5.11a4.64,4.64,0,0,0,3.84-3.36,4.84,4.84,0,0,0,.1-1.64L841,100.69l3.13-.35Z" transform="translate(-10.99 -5.68)"/><path d="M852.29,94.46a2,2,0,1,1-3.9.44,1.93,1.93,0,0,1,1.74-2.18A1.9,1.9,0,0,1,852.29,94.46Zm-1,22.59-1.94-17.3,3.13-.35,1.94,17.3Z" transform="translate(-10.99 -5.68)"/><path d="M858.22,103.48c-.2-1.8-.42-3.23-.66-4.65l2.73-.31.48,2.77h.09a6,6,0,0,1,5.1-3.8,5.13,5.13,0,0,1,5.27,2.93h.07a6.92,6.92,0,0,1,1.7-2.47,6,6,0,0,1,3.67-1.65c2.31-.26,5.87.85,6.55,6.87l1.14,10.19-3.07.34-1.1-9.78c-.37-3.35-1.83-5.2-4.35-4.92a4.13,4.13,0,0,0-3.42,3.25,5,5,0,0,0-.08,1.61l1.2,10.71-3.07.35-1.17-10.39c-.31-2.75-1.75-4.6-4.13-4.33a4.37,4.37,0,0,0-3.56,3.58,4.86,4.86,0,0,0-.07,1.58l1.17,10.43-3.07.34Z" transform="translate(-10.99 -5.68)"/><path d="M899.07,111.69l-.52-2.16h-.1a6.44,6.44,0,0,1-5,3.17,5,5,0,0,1-5.84-4.37c-.47-4.19,3-6.9,9.67-7.61l0-.36c-.16-1.41-.84-4-4.39-3.55a8.49,8.49,0,0,0-4.36,1.79l-1-2a11,11,0,0,1,5.54-2.16c5.29-.59,7,2.88,7.37,6.35l.73,6.47a27.4,27.4,0,0,0,.73,4.11Zm-1.48-8.78c-3.41.31-7.24,1.36-6.87,4.7a2.78,2.78,0,0,0,3.28,2.68,4.36,4.36,0,0,0,3.89-3.37,3.41,3.41,0,0,0,0-1Z" transform="translate(-10.99 -5.68)"/><path d="M905.38,98.92c-.23-2-.48-3.78-.75-5.37l2.76-.31.5,3.38.11,0a5.27,5.27,0,0,1,4.39-4.32,3.33,3.33,0,0,1,.89,0l.33,3a5,5,0,0,0-1.08,0c-2.22.25-3.6,2.1-3.76,4.5a8.28,8.28,0,0,0,0,1.48l1,9.25-3.14.35Z" transform="translate(-10.99 -5.68)"/><path d="M927.83,108.46l-.52-2.15h-.09a6.51,6.51,0,0,1-5,3.17,5,5,0,0,1-5.84-4.37c-.47-4.19,3-6.91,9.68-7.61l0-.37c-.16-1.41-.85-4-4.39-3.55a8.42,8.42,0,0,0-4.36,1.8l-1-2a11,11,0,0,1,5.54-2.15c5.29-.6,7,2.87,7.37,6.34l.72,6.47a27.17,27.17,0,0,0,.73,4.11ZM917.45,89.09c-.33-2.34.49-3.84,2-4a4.74,4.74,0,0,1,2.32.54,3.64,3.64,0,0,0,1.57.45c.56-.07.87-.43.81-1.63l1.68-.19c.3,2.36-.36,3.7-2,3.89a4.72,4.72,0,0,1-2.27-.51,3.54,3.54,0,0,0-1.61-.45c-.57.06-.8.71-.76,1.71Zm8.9,10.59c-3.41.31-7.24,1.36-6.86,4.7a2.79,2.79,0,0,0,3.27,2.69,4.36,4.36,0,0,0,3.89-3.37,3.49,3.49,0,0,0,0-1Z" transform="translate(-10.99 -5.68)"/><path d="M936.34,99.32c.54,4.25,3.43,5.7,6.59,5.34a11.67,11.67,0,0,0,4.69-1.42l.81,2.17a14,14,0,0,1-5.65,1.75c-5.32.6-8.91-2.58-9.49-7.77s2-9.69,7.09-10.25c5.64-.64,7.67,4.15,8,7.33a7.44,7.44,0,0,1,.06,1.49ZM945.29,96c-.19-2-1.38-5-4.91-4.61-3.21.36-4.25,3.42-4.26,5.64Z" transform="translate(-10.99 -5.68)"/><path d="M952.6,102.44a8.66,8.66,0,0,0,4.31.76c2.3-.26,3.24-1.5,3.07-3s-1.17-2.2-3.57-2.81c-3.25-.78-4.92-2.31-5.14-4.39-.32-2.78,1.69-5.32,5.41-5.74a8.41,8.41,0,0,1,4.36.59l-.53,2.37a6.86,6.86,0,0,0-3.66-.62c-1.86.21-2.75,1.39-2.6,2.7s1.25,2,3.62,2.58c3.1.78,4.82,2.11,5.12,4.69.34,3.06-1.8,5.48-5.89,5.94a9.91,9.91,0,0,1-5-.66Z" transform="translate(-10.99 -5.68)"/></g><g class="cls-1"><path d="M1167.25,65a33.62,33.62,0,0,1,6-1c3.32-.25,5.55.21,7.16,1.46a6,6,0,0,1,2.25,4.45,6.41,6.41,0,0,1-4.09,6.52v.08c1.89.51,3.14,2.17,3.92,4.63a39.72,39.72,0,0,0,2.37,6.5l-3.24.25a31.82,31.82,0,0,1-2-5.68c-1-3.25-2.38-4.44-5.22-4.32l-2.95.23.8,10.48-3.13.24Zm4,10.78,3.19-.25c3.34-.25,5.32-2.24,5.11-5-.24-3.14-2.61-4.33-5.91-4.09a13.66,13.66,0,0,0-3.07.52Z" transform="translate(-10.99 -5.68)"/><path d="M1202.41,81.57c.14,1.82.32,3.37.51,4.74l-2.79.21-.39-2.83h-.09a6.48,6.48,0,0,1-5.49,3.67c-2.72.21-6.1-1.06-6.56-7.15l-.78-10.14,3.14-.24.73,9.59c.26,3.3,1.46,5.48,4.31,5.26a4.63,4.63,0,0,0,4-3.22,5.28,5.28,0,0,0,.16-1.64l-.81-10.63,3.14-.24Z" transform="translate(-10.99 -5.68)"/><path d="M1217.66,85.18l-.44-2.17h-.1a6.5,6.5,0,0,1-5.11,3,5,5,0,0,1-5.68-4.58c-.32-4.2,3.22-6.8,9.93-7.26l0-.37c-.1-1.41-.7-4-4.25-3.7a8.42,8.42,0,0,0-4.43,1.64l-.87-2a11,11,0,0,1,5.61-2c5.31-.4,6.88,3.13,7.14,6.6l.5,6.5a26.34,26.34,0,0,0,.58,4.13Zm-1.17-8.83c-3.42.19-7.28,1.1-7,4.46a2.79,2.79,0,0,0,3.18,2.8,4.37,4.37,0,0,0,4-3.23,3.23,3.23,0,0,0,.07-1Z" transform="translate(-10.99 -5.68)"/><path d="M1234.32,59.57l1.09,14.34c.42,5.4,3,7.5,6.25,7.25,3.56-.27,5.7-2.82,5.29-8.13l-1.09-14.34,3.14-.24,1.08,14.12c.57,7.43-3.11,10.76-8.36,11.17-4.93.37-8.88-2.16-9.45-9.68l-1.09-14.25Z" transform="translate(-10.99 -5.68)"/><path d="M1254.22,56.75l3.14-.24,2,25.49-3.14.23Z" transform="translate(-10.99 -5.68)"/><path d="M1266.47,59.05a1.92,1.92,0,0,1-1.86,2.12,1.89,1.89,0,0,1-2.06-1.82,1.93,1.93,0,0,1,1.82-2.11A1.89,1.89,0,0,1,1266.47,59.05Zm-1.83,22.54-1.32-17.36,3.14-.24,1.32,17.36Z" transform="translate(-10.99 -5.68)"/><path d="M1272.35,77.77a8.67,8.67,0,0,0,4.28.91c2.3-.17,3.28-1.39,3.17-2.84s-1.09-2.24-3.47-2.93c-3.22-.9-4.83-2.49-5-4.57-.22-2.8,1.88-5.26,5.61-5.55a8.52,8.52,0,0,1,4.33.74l-.6,2.36a6.77,6.77,0,0,0-3.64-.75c-1.87.14-2.8,1.29-2.7,2.6s1.18,2,3.53,2.71c3.07.88,4.74,2.27,4.95,4.87.23,3.07-2,5.41-6.09,5.72a9.91,9.91,0,0,1-5-.83Z" transform="translate(-10.99 -5.68)"/><path d="M1286.56,76.68a8.67,8.67,0,0,0,4.28.92c2.31-.18,3.29-1.39,3.18-2.85s-1.1-2.24-3.47-2.93c-3.22-.89-4.84-2.49-5-4.57-.21-2.79,1.88-5.26,5.62-5.55a8.43,8.43,0,0,1,4.33.75l-.61,2.35a6.87,6.87,0,0,0-3.64-.75c-1.86.14-2.79,1.3-2.69,2.6s1.18,2,3.52,2.71c3.08.89,4.75,2.28,5,4.87.24,3.08-2,5.41-6.09,5.73a10,10,0,0,1-5-.84Z" transform="translate(-10.99 -5.68)"/><path d="M1302.62,70.53c.39,4.26,3.23,5.81,6.4,5.57a11.55,11.55,0,0,0,4.74-1.26l.72,2.2a14,14,0,0,1-5.7,1.55c-5.34.41-8.82-2.9-9.21-8.1s2.38-9.61,7.45-10c5.66-.43,7.52,4.43,7.76,7.62a8.23,8.23,0,0,1,0,1.49Zm9.06-3c-.12-2-1.2-5-4.74-4.78-3.22.25-4.37,3.27-4.46,5.49Z" transform="translate(-10.99 -5.68)"/><path d="M1318.76,74.22a8.67,8.67,0,0,0,4.28.92c2.3-.18,3.29-1.4,3.18-2.85s-1.1-2.24-3.47-2.93c-3.23-.89-4.84-2.49-5-4.57-.22-2.79,1.88-5.26,5.61-5.55a8.45,8.45,0,0,1,4.34.75l-.61,2.35a6.87,6.87,0,0,0-3.64-.75c-1.86.14-2.79,1.29-2.69,2.6s1.17,2,3.52,2.71c3.07.89,4.74,2.28,5,4.87.24,3.07-2,5.41-6.09,5.72a9.91,9.91,0,0,1-5-.83Z" transform="translate(-10.99 -5.68)"/></g><g class="cls-1"><path d="M1361,73.37a22,22,0,0,1-7.43,1.5c-3.68.08-6.73-.78-9.14-3a12.34,12.34,0,0,1-3.57-8.93c-.15-7.23,4.71-12.64,12.84-12.82a15.4,15.4,0,0,1,6.09,1l-.73,2.57a12.39,12.39,0,0,0-5.38-.92c-5.88.13-9.66,3.88-9.53,9.95s3.9,9.71,9.58,9.58a10,10,0,0,0,4.15-.74l-.16-7.23-4.91.11-.06-2.5,8-.18Z" transform="translate(-10.99 -5.68)"/><path d="M1380.23,69.27c0,1.83.14,3.39.25,4.76l-2.8.07-.23-2.85h-.09a6.49,6.49,0,0,1-5.68,3.36c-2.73.06-6-1.39-6.17-7.49L1365.29,57l3.15-.07.21,9.61c.07,3.32,1.16,5.55,4,5.49a4.62,4.62,0,0,0,4.13-3,5,5,0,0,0,.25-1.63l-.23-10.66,3.14-.07Z" transform="translate(-10.99 -5.68)"/><path d="M1388.66,51.52a2,2,0,1,1-3.92.09,2,2,0,1,1,3.92-.09Zm-3.05,22.4-.38-17.4,3.15-.07.38,17.4Z" transform="translate(-10.99 -5.68)"/><path d="M1393.76,61c0-1.81-.13-3.25-.25-4.69l2.75-.06.23,2.79h.09a6,6,0,0,1,5.42-3.32,5.12,5.12,0,0,1,5,3.39h.08a6.89,6.89,0,0,1,1.91-2.31,5.87,5.87,0,0,1,3.8-1.31c2.33-.05,5.78,1.37,5.91,7.42l.23,10.25-3.09.07-.22-9.84c-.07-3.38-1.36-5.34-3.89-5.29a4.12,4.12,0,0,0-3.7,2.93,5,5,0,0,0-.23,1.6l.24,10.77-3.09.07-.23-10.45c-.06-2.77-1.33-4.73-3.72-4.68a4.38,4.38,0,0,0-3.88,3.24,5,5,0,0,0-.2,1.57l.23,10.49-3.09.07Z" transform="translate(-10.99 -5.68)"/><path d="M1433.7,72.87l-.32-2.19h-.1a6.49,6.49,0,0,1-5.27,2.71,5,5,0,0,1-5.42-4.88c-.09-4.22,3.59-6.61,10.32-6.71v-.37c0-1.42-.49-4-4.05-3.93a8.53,8.53,0,0,0-4.51,1.4l-.76-2.09a10.87,10.87,0,0,1,5.71-1.65c5.32-.12,6.69,3.49,6.77,7l.14,6.52a28.27,28.27,0,0,0,.36,4.15ZM1433,64c-3.43,0-7.34.71-7.27,4.07a2.8,2.8,0,0,0,3,3,4.35,4.35,0,0,0,4.17-3,3,3,0,0,0,.13-1Z" transform="translate(-10.99 -5.68)"/><path d="M1441.13,60.71c0-2.05-.13-3.8-.26-5.41l2.77-.06.2,3.41h.11a5.28,5.28,0,0,1,4.76-3.92,3.57,3.57,0,0,1,.89.07l.06,3a5,5,0,0,0-1.08-.07c-2.23,0-3.77,1.76-4.14,4.14a7.83,7.83,0,0,0-.1,1.48l.2,9.3-3.14.07Z" transform="translate(-10.99 -5.68)"/><path d="M1462.64,72.23l-.33-2.19h-.09a6.48,6.48,0,0,1-5.27,2.71,5,5,0,0,1-5.42-4.87c-.1-4.22,3.59-6.62,10.31-6.72v-.37c0-1.41-.48-4-4-3.92a8.4,8.4,0,0,0-4.5,1.39l-.77-2.09a11,11,0,0,1,5.71-1.65c5.32-.12,6.7,3.49,6.78,7l.14,6.51a27.06,27.06,0,0,0,.35,4.16ZM1454,52c-.12-2.36.83-3.78,2.37-3.81a4.81,4.81,0,0,1,2.26.74,3.53,3.53,0,0,0,1.52.59c.56,0,.9-.35,1-1.55l1.68,0c.1,2.38-.68,3.65-2.37,3.69a4.6,4.6,0,0,1-2.22-.71,3.51,3.51,0,0,0-1.56-.59c-.57,0-.86.63-.91,1.64ZM1462,63.36c-3.42,0-7.33.7-7.26,4.07a2.79,2.79,0,0,0,3,3,4.34,4.34,0,0,0,4.18-3,3.53,3.53,0,0,0,.13-1Z" transform="translate(-10.99 -5.68)"/><path d="M1471.93,63.89c.16,4.28,2.91,6,6.09,5.92a11.74,11.74,0,0,0,4.8-1l.6,2.23a14,14,0,0,1-5.78,1.24c-5.35.12-8.64-3.37-8.75-8.6s2.9-9.46,8-9.57c5.68-.12,7.27,4.83,7.34,8a7.68,7.68,0,0,1-.07,1.49Zm9.21-2.48c0-2-.92-5.1-4.47-5-3.23.07-4.55,3-4.75,5.23Z" transform="translate(-10.99 -5.68)"/><path d="M1487.85,68.45a8.54,8.54,0,0,0,4.22,1.15c2.31,0,3.36-1.21,3.33-2.66s-1-2.3-3.31-3.12c-3.17-1.07-4.69-2.75-4.73-4.83-.06-2.81,2.17-5.16,5.91-5.24a8.43,8.43,0,0,1,4.29,1l-.74,2.32a6.86,6.86,0,0,0-3.59-.95c-1.87,0-2.86,1.14-2.83,2.45s1.07,2.06,3.37,2.9c3,1,4.61,2.53,4.68,5.13.06,3.08-2.28,5.29-6.4,5.38a9.85,9.85,0,0,1-4.91-1.1Z" transform="translate(-10.99 -5.68)"/></g><g class="cls-1"><path d="M96.42,655.85a34.58,34.58,0,0,1-1.86-5.76c-.75-3.24-.62-5.52.37-7.3A6.07,6.07,0,0,1,99,639.9,6.39,6.39,0,0,1,106,643l.09,0c.22-2,1.67-3.43,4-4.57a40.59,40.59,0,0,0,6.07-3.32l.73,3.17a32.14,32.14,0,0,1-5.3,2.86c-3.08,1.45-4,3-3.5,5.8l.67,2.89L119,647.42l.7,3.05Zm10.06-5.54-.72-3.12c-.75-3.26-3-4.92-5.72-4.3-3.07.71-3.89,3.23-3.15,6.45a13.72,13.72,0,0,0,1,3Z" transform="translate(-10.99 -5.68)"/><path d="M107.5,618.61c1.78-.41,3.29-.82,4.61-1.21l.63,2.72-2.74.81,0,.08a6.51,6.51,0,0,1,4.46,4.89c.61,2.65-.14,6.18-6.09,7.55l-9.91,2.29-.71-3.07,9.37-2.16c3.23-.74,5.2-2.26,4.56-5a4.61,4.61,0,0,0-3.77-3.43,4.94,4.94,0,0,0-1.65.08l-10.39,2.4-.71-3.07Z" transform="translate(-10.99 -5.68)"/><path d="M108.79,603l-2.08.76,0,.09a6.48,6.48,0,0,1,3.72,4.61,5,5,0,0,1-3.67,6.3c-4.11,1-7.2-2.17-8.67-8.73l-.36.08c-1.38.32-3.84,1.3-3,4.77A8.44,8.44,0,0,0,97,615l-1.89,1.18a11,11,0,0,1-2.78-5.26c-1.19-5.18,2.06-7.27,5.46-8l6.35-1.46a29.06,29.06,0,0,0,4-1.19Zm-8.55,2.47c.7,3.36,2.18,7,5.46,6.29a2.8,2.8,0,0,0,2.29-3.57,4.36,4.36,0,0,0-3.8-3.47,3.24,3.24,0,0,0-1,.07Z" transform="translate(-10.99 -5.68)"/><path d="M81.68,593.41l-2.94-12.73,2.55-.59,2.23,9.66,7.87-1.81L89.33,579l2.53-.58,2.06,8.93,10.69-2.47.71,3.07Z" transform="translate(-10.99 -5.68)"/><path d="M89.93,574.58c-2,.46-3.69.9-5.25,1.35l-.62-2.7,3.3-.88,0-.11a5.3,5.3,0,0,1-4.8-3.87,4.07,4.07,0,0,1-.11-.88l2.9-.67a5.14,5.14,0,0,0,.16,1.07c.5,2.18,2.49,3.33,4.89,3.22a7.89,7.89,0,0,0,1.47-.21l9.07-2.09.7,3.07Z" transform="translate(-10.99 -5.68)"/><path d="M96.84,551.17l-2.08.77,0,.09a6.48,6.48,0,0,1,3.72,4.61,5,5,0,0,1-3.67,6.3c-4.11.95-7.2-2.17-8.67-8.73l-.36.08c-1.38.32-3.84,1.29-3,4.76a8.43,8.43,0,0,0,2.28,4.13l-1.89,1.17a11,11,0,0,1-2.78-5.25c-1.19-5.19,2.06-7.27,5.46-8.05l6.35-1.47a26.52,26.52,0,0,0,4-1.19Zm-8.55,2.48c.7,3.36,2.18,7,5.46,6.28A2.79,2.79,0,0,0,96,556.37a4.38,4.38,0,0,0-3.8-3.48,3.23,3.23,0,0,0-1,.08Z" transform="translate(-10.99 -5.68)"/><path d="M82.73,546.53c-1.77.41-3.17.79-4.55,1.19L77.55,545l2.75-.82,0-.08a6.44,6.44,0,0,1-4.47-4.88c-.54-2.33,0-6.3,5.85-7.64l10.12-2.34.71,3.07-9.78,2.26c-2.74.63-4.8,2.19-4.14,5.08a4.56,4.56,0,0,0,4.13,3.43,4.89,4.89,0,0,0,1.48-.12L94.4,540.6l.71,3.07Z" transform="translate(-10.99 -5.68)"/><path d="M87.21,512.25a12,12,0,0,1,2.11,4.64c1.18,5.11-1.53,9.27-6.72,10.46s-9.86-1.48-11.14-7a10.25,10.25,0,0,1-.09-4.5l2.53.14a7.56,7.56,0,0,0,0,3.79c.89,3.87,4.28,5.33,7.8,4.51,3.93-.91,5.76-4,5-7.38A9,9,0,0,0,85,513.31Z" transform="translate(-10.99 -5.68)"/><path d="M64.44,510.06A2,2,0,1,1,63,512.41,1.9,1.9,0,0,1,64.44,510.06ZM87,508.49,70,512.4l-.71-3.07,17-3.91Z" transform="translate(-10.99 -5.68)"/><path d="M82.06,501.44a8.64,8.64,0,0,0,.26-4.37c-.52-2.25-1.86-3-3.28-2.71s-2.06,1.42-2.38,3.87c-.4,3.32-1.74,5.15-3.77,5.62-2.73.63-5.49-1.08-6.33-4.73a8.36,8.36,0,0,1,.09-4.39l2.42.25a6.78,6.78,0,0,0-.2,3.71c.42,1.82,1.7,2.57,3,2.27s1.8-1.46,2.15-3.89c.41-3.17,1.54-5,4.07-5.62,3-.7,5.65,1.15,6.57,5.16a10,10,0,0,1-.08,5Z" transform="translate(-10.99 -5.68)"/><path d="M78.49,474.43a12,12,0,0,1,2.11,4.64c1.18,5.12-1.53,9.27-6.72,10.47s-9.87-1.48-11.15-7a10.33,10.33,0,0,1-.08-4.49l2.53.14a7.65,7.65,0,0,0,0,3.79c.9,3.87,4.29,5.32,7.81,4.5,3.93-.9,5.76-4,5-7.37a9.38,9.38,0,0,0-1.68-3.59Z" transform="translate(-10.99 -5.68)"/><path d="M66.13,457.52c6.28-1.45,10,2.28,11,6.36,1.06,4.6-1.47,8.92-6.86,10.17-5.68,1.31-9.86-1.66-10.94-6.35C58.19,462.82,61,458.71,66.13,457.52Zm3.3,13.41c3.72-.86,6-3.64,5.34-6.65s-4-4.53-7.81-3.64c-2.87.66-6.16,2.94-5.32,6.61S66.22,471.67,69.43,470.93Z" transform="translate(-10.99 -5.68)"/><path d="M66.92,426.33a21.94,21.94,0,0,1,3,7c.83,3.59.6,6.75-1.09,9.56a12.41,12.41,0,0,1-8,5.32c-7,1.61-13.33-2.05-15.16-10a15.26,15.26,0,0,1-.28-6.16l2.67.19a12.38,12.38,0,0,0,.19,5.45c1.33,5.74,5.76,8.68,11.68,7.31s8.71-5.79,7.44-11.32a10.09,10.09,0,0,0-1.58-3.92l-7,1.63,1.1,4.78-2.44.57-1.79-7.79Z" transform="translate(-10.99 -5.68)"/><path d="M44.37,423a2,2,0,0,1,.88,3.82,1.91,1.91,0,0,1-2.36-1.47A1.89,1.89,0,0,1,44.37,423Zm22.55-1.57-17,3.91-.71-3.07,17-3.91Z" transform="translate(-10.99 -5.68)"/><path d="M40.12,419l-.71-3.07,24.91-5.74.7,3.07Z" transform="translate(-10.99 -5.68)"/><path d="M33.12,388.64l20.53-4.74c1.51-.34,3.19-.79,4.34-1.15l.63,2.75-2.89.83,0,.08a6.38,6.38,0,0,1,4.64,5c1,4.11-1.79,8.08-6.94,9.27-5.66,1.33-9.92-1.39-10.87-5.52A5.81,5.81,0,0,1,44,389.44v-.07l-10.13,2.34Zm15.55-.36a7,7,0,0,0-1.29.43A4.7,4.7,0,0,0,44.86,394c.74,3.2,4,4.46,7.71,3.6,3.44-.79,5.91-3.17,5.14-6.5A4.78,4.78,0,0,0,53,387.45a5.06,5.06,0,0,0-1.36.15Z" transform="translate(-10.99 -5.68)"/><path d="M48.52,377.85c4.15-1,5.26-4.06,4.54-7.16a11.5,11.5,0,0,0-2-4.5l2.07-1.05a14.26,14.26,0,0,1,2.39,5.41c1.2,5.22-1.55,9.15-6.64,10.33s-9.85-.92-11-5.87c-1.27-5.54,3.25-8.1,6.37-8.83a8.54,8.54,0,0,1,1.47-.22Zm-4.31-8.52c-2,.42-4.81,1.95-4,5.41.73,3.15,3.88,3.84,6.09,3.59Z" transform="translate(-10.99 -5.68)"/><path d="M42.73,350.53l8,.73.73,3.16L26,351.83l-.85-3.67,21.78-13.52.76,3.26-6.85,4.25Zm-4.17-7.22-6.27,3.91c-1.43.87-2.75,1.55-4,2.22l0,.08c1.46,0,3,.06,4.54.19l7.38.75Z" transform="translate(-10.99 -5.68)"/><path d="M34.46,334.08c-2,.46-3.7.9-5.25,1.35l-.62-2.7,3.3-.88,0-.11a5.3,5.3,0,0,1-4.8-3.87A3.53,3.53,0,0,1,27,327l2.9-.67a5.82,5.82,0,0,0,.15,1.07c.51,2.18,2.5,3.33,4.9,3.22a8,8,0,0,0,1.47-.21l9.06-2.09.71,3.07Z" transform="translate(-10.99 -5.68)"/><path d="M41.37,310.67l-2.08.77,0,.09A6.48,6.48,0,0,1,43,316.14a5,5,0,0,1-3.67,6.3c-4.11.95-7.2-2.17-8.67-8.73l-.36.08c-1.38.32-3.84,1.29-3,4.76a8.43,8.43,0,0,0,2.28,4.13l-1.89,1.18a11,11,0,0,1-2.78-5.26c-1.19-5.18,2.06-7.27,5.46-8.05l6.34-1.46a27.68,27.68,0,0,0,4-1.2Zm-8.55,2.48c.69,3.36,2.18,7,5.46,6.28a2.78,2.78,0,0,0,2.28-3.56,4.36,4.36,0,0,0-3.79-3.48,3.23,3.23,0,0,0-1,.08Z" transform="translate(-10.99 -5.68)"/><path d="M12.53,296.7l6,3.12L19,302l-5.73-1.92Zm19.19-6.64c1.78-.41,3.29-.82,4.61-1.21l.63,2.72-2.74.81,0,.08a6.51,6.51,0,0,1,4.46,4.89c.61,2.65-.14,6.19-6.09,7.56l-9.91,2.28L22,304.12,31.36,302c3.23-.74,5.2-2.26,4.56-5a4.61,4.61,0,0,0-3.77-3.43,5,5,0,0,0-1.65.08L20.11,296l-.71-3.07Z" transform="translate(-10.99 -5.68)"/><path d="M12.54,285a2,2,0,1,1,.88,3.82,1.93,1.93,0,0,1-2.37-1.5A1.89,1.89,0,0,1,12.54,285ZM41,286.87A5,5,0,0,0,39,283.81c-1.15-.63-2.57-.66-6.64.28l-14.2,3.27-.7-3.07,15.37-3.54c3.31-.76,5.56-.73,7.47.41A8,8,0,0,1,43.39,286Z" transform="translate(-10.99 -5.68)"/><path d="M21,262c6.28-1.45,10,2.28,11,6.35,1.06,4.6-1.47,8.93-6.86,10.17-5.67,1.31-9.85-1.65-10.93-6.35C13.08,267.26,15.86,263.15,21,262Zm3.3,13.4c3.72-.85,6-3.63,5.33-6.64s-3.95-4.53-7.81-3.64c-2.86.66-6.16,2.94-5.31,6.61S21.11,276.11,24.33,275.36Z" transform="translate(-10.99 -5.68)"/></g><path d="M272.38,647.83a33.52,33.52,0,0,1,5.91-1.3c3.3-.43,5.55-.09,7.23,1.06a6.07,6.07,0,0,1,2.49,4.33,6.41,6.41,0,0,1-3.73,6.72v.09c1.92.4,3.26,2,4.17,4.41a42.17,42.17,0,0,0,2.72,6.36l-3.22.42a32.84,32.84,0,0,1-2.34-5.55c-1.15-3.2-2.62-4.31-5.44-4l-2.94.39,1.37,10.42-3.1.41Zm4.55,10.55,3.17-.42c3.33-.44,5.19-2.53,4.83-5.29-.41-3.12-2.84-4.18-6.12-3.75a13.61,13.61,0,0,0-3,.67Z" transform="translate(-10.99 -5.68)"/><path d="M308.41,662.42c.23,1.81.5,3.35.76,4.71l-2.77.36-.54-2.8h-.09a6.5,6.5,0,0,1-5.29,4c-2.7.36-6.14-.73-6.94-6.78l-1.33-10.09,3.12-.41,1.26,9.54c.43,3.28,1.75,5.39,4.59,5a4.61,4.61,0,0,0,3.77-3.43,4.94,4.94,0,0,0,.07-1.65l-1.39-10.57,3.12-.41Z" transform="translate(-10.99 -5.68)"/><path d="M323.83,665.19l-.56-2.15-.1,0a6.49,6.49,0,0,1-4.94,3.27,5,5,0,0,1-5.93-4.26c-.55-4.18,2.85-7,9.53-7.8l-.05-.37c-.19-1.4-.92-3.94-4.46-3.46a8.42,8.42,0,0,0-4.32,1.88l-1-2a11,11,0,0,1,5.5-2.27c5.27-.69,7,2.74,7.49,6.2l.85,6.46a27.92,27.92,0,0,0,.81,4.09Zm-1.65-8.75c-3.41.38-7.22,1.5-6.78,4.84a2.8,2.8,0,0,0,3.33,2.62,4.39,4.39,0,0,0,3.83-3.45,3.43,3.43,0,0,0,0-1Z" transform="translate(-10.99 -5.68)"/><path d="M339.4,641.32l-7.32,1-.35-2.62,17.81-2.36.35,2.62-7.36,1,2.84,21.43-3.13.41Z" transform="translate(-10.99 -5.68)"/><path d="M352.81,643.79l4.67,9.22c.79,1.52,1.43,2.89,2,4.27h.1c.2-1.49.51-3,.85-4.65l2.09-10.13,3.28-.43-4.49,18.16-3,.4-8.87-16.39Z" transform="translate(-10.99 -5.68)"/><path d="M368.65,657.37a2.14,2.14,0,0,1,1.83-2.55,2.27,2.27,0,1,1-1.83,2.55Z" transform="translate(-10.99 -5.68)"/><path d="M388.71,656.57l-11.08-23,3.37-.45,5.32,11.36c1.47,3.11,2.75,5.92,3.77,8.63h.09c.3-2.87.88-6,1.54-9.3l2.49-12.44,3.32-.44-5.39,25.2Z" transform="translate(-10.99 -5.68)"/><path d="M403.2,632.11a2,2,0,1,1-2.2-1.69A1.89,1.89,0,0,1,403.2,632.11Zm-.54,22.6-2.31-17.25,3.12-.42,2.31,17.25Z" transform="translate(-10.99 -5.68)"/><path d="M409.3,641c-.24-1.8-.49-3.22-.77-4.64l2.78-.37.55,2.81H412a6.45,6.45,0,0,1,5.27-4c2.37-.31,6.27.61,7.07,6.54l1.38,10.29-3.12.42-1.34-9.94c-.37-2.79-1.74-5-4.68-4.59a4.53,4.53,0,0,0-3.79,3.78,4.9,4.9,0,0,0,0,1.49l1.39,10.4-3.12.41Z" transform="translate(-10.99 -5.68)"/><path d="M431.45,628.23l.67,5,4.5-.6.32,2.37-4.5.61,1.25,9.3c.29,2.15,1.07,3.28,2.83,3a6.33,6.33,0,0,0,1.78-.47l.47,2.37a8.31,8.31,0,0,1-2.75.81,4.4,4.4,0,0,1-3.56-.88c-1-.83-1.55-2.31-1.83-4.33L429.36,636l-2.67.35-.32-2.37,2.67-.36-.56-4.16Z" transform="translate(-10.99 -5.68)"/><path d="M442.93,641.1c.63,4.23,3.56,5.61,6.71,5.19a11.63,11.63,0,0,0,4.66-1.53l.85,2.15a14,14,0,0,1-5.61,1.88c-5.3.72-9-2.38-9.66-7.56s1.82-9.73,6.86-10.41c5.62-.76,7.76,4,8.19,7.16a7.06,7.06,0,0,1,.09,1.48Zm8.87-3.5c-.23-2-1.49-5-5-4.5-3.2.44-4.18,3.52-4.13,5.73Z" transform="translate(-10.99 -5.68)"/><path d="M468.37,637.66c.64,4.23,3.57,5.61,6.72,5.18a11.69,11.69,0,0,0,4.66-1.53l.85,2.15a14.18,14.18,0,0,1-5.61,1.89c-5.3.72-9-2.38-9.67-7.56s1.81-9.73,6.85-10.41c5.63-.77,7.77,4,8.21,7.14a8,8,0,0,1,.09,1.49Zm8.88-3.51c-.24-2-1.5-5-5-4.49-3.21.43-4.18,3.52-4.13,5.73Z" transform="translate(-10.99 -5.68)"/><path d="M493.22,642.48l-3.3-24,3.41-.47,9.37,11.09a69.3,69.3,0,0,1,5.36,7.24l.08,0c-.72-3.17-1.18-6.1-1.69-9.82l-1.39-10.07L508,616l3.3,24-3.16.43-9.31-11.13a80.91,80.91,0,0,1-5.58-7.43l-.1,0c.61,3,1.05,5.91,1.59,9.88l1.42,10.28Z" transform="translate(-10.99 -5.68)"/><path d="M530.91,628.33c.89,6.38-3.16,9.79-7.3,10.37-4.68.65-8.76-2.26-9.52-7.74-.8-5.77,2.52-9.67,7.29-10.33C526.34,619.94,530.18,623.07,530.91,628.33Zm-13.65,2.09c.53,3.79,3.09,6.33,6.15,5.91s4.87-3.54,4.32-7.45c-.4-2.92-2.38-6.41-6.11-5.89S516.81,627.15,517.26,630.42Z" transform="translate(-10.99 -5.68)"/><path d="M534.63,619.19l4.74,9.19c.8,1.52,1.45,2.88,2,4.26l.1,0c.19-1.48.48-3,.82-4.65l2-10.14,3.27-.45-4.37,18.18-3,.42-9-16.32Z" transform="translate(-10.99 -5.68)"/><path d="M553.22,625.94c.67,4.23,3.61,5.6,6.75,5.15a11.78,11.78,0,0,0,4.65-1.56l.87,2.15a14.23,14.23,0,0,1-5.6,1.91c-5.29.75-9-2.32-9.72-7.49s1.76-9.74,6.79-10.46c5.63-.8,7.8,3.93,8.25,7.1a8.06,8.06,0,0,1,.1,1.48Zm8.86-3.56c-.25-2-1.53-5-5.05-4.46-3.2.46-4.15,3.54-4.09,5.76Z" transform="translate(-10.99 -5.68)"/><path d="M589.14,603.13,592.22,624c.23,1.53.54,3.25.8,4.42l-2.78.42-.6-3h-.08a6.4,6.4,0,0,1-5.35,4.24c-4.17.61-7.91-2.44-8.68-7.66-.88-5.75,2.17-9.78,6.37-10.4a5.82,5.82,0,0,1,5.58,1.84h.07L586,603.59Zm-.88,15.53a6.89,6.89,0,0,0-.33-1.32,4.68,4.68,0,0,0-5.07-2.93c-3.24.48-4.76,3.61-4.2,7.39.51,3.5,2.68,6.15,6.06,5.65a4.78,4.78,0,0,0,4-4.44,5.31,5.31,0,0,0,0-1.37Z" transform="translate(-10.99 -5.68)"/><path d="M598.53,619.33c.73,4.22,3.68,5.54,6.83,5a11.88,11.88,0,0,0,4.62-1.63l.9,2.13a14.08,14.08,0,0,1-5.57,2c-5.28.83-9-2.19-9.83-7.35s1.61-9.77,6.63-10.56c5.62-.88,7.86,3.81,8.36,7a7.54,7.54,0,0,1,.12,1.48Zm8.8-3.69c-.28-2-1.6-4.94-5.11-4.39-3.2.51-4.1,3.61-4,5.82Z" transform="translate(-10.99 -5.68)"/><path d="M623.8,598.41l3.08-.66,3.41,15.85c1.36,6.31-1.31,8.92-5.39,9.8a10.3,10.3,0,0,1-3.4.15l-.09-2.6a7.61,7.61,0,0,0,2.69-.1c2.73-.59,4.06-2.18,3.06-6.83Z" transform="translate(-10.99 -5.68)"/><path d="M646.8,617.88l-.81-2.07-.09,0a6.47,6.47,0,0,1-4.54,3.81,5,5,0,0,1-6.37-3.56c-1-4.09,2-7.24,8.59-8.82l-.09-.36c-.35-1.38-1.37-3.82-4.82-2.94a8.46,8.46,0,0,0-4.09,2.36l-1.2-1.87a10.91,10.91,0,0,1,5.2-2.87c5.16-1.29,7.3,1.92,8.15,5.31l1.57,6.32a27.47,27.47,0,0,0,1.27,4Zm-2.63-8.51c-3.34.76-7,2.31-6.19,5.57a2.8,2.8,0,0,0,3.61,2.23,4.38,4.38,0,0,0,3.41-3.86,3.54,3.54,0,0,0-.1-1Z" transform="translate(-10.99 -5.68)"/><path d="M650.74,603.74c-.49-1.75-.93-3.13-1.4-4.49l2.69-.75.94,2.71.09,0a6.41,6.41,0,0,1,4.67-4.68c2.3-.64,6.3-.26,7.9,5.5l2.79,10-3,.84-2.69-9.67c-.76-2.71-2.41-4.7-5.27-3.9a4.55,4.55,0,0,0-3.23,4.27,4.71,4.71,0,0,0,.18,1.48l2.81,10.11-3,.84Z" transform="translate(-10.99 -5.68)"/><path d="M672.61,602.29c1.29,4.08,4.4,5,7.45,4.07a11.68,11.68,0,0,0,4.36-2.25l1.18,2a14.1,14.1,0,0,1-5.24,2.73c-5.13,1.54-9.23-.94-10.74-5.94s.27-9.89,5.14-11.36c5.43-1.64,8.29,2.71,9.22,5.78a7.5,7.5,0,0,1,.32,1.45Zm8.22-4.86c-.55-1.91-2.26-4.67-5.66-3.64-3.1.93-3.57,4.12-3.18,6.3Z" transform="translate(-10.99 -5.68)"/><path d="M687.15,583a2,2,0,1,1-2.46-1.29A1.91,1.91,0,0,1,687.15,583Zm3.32,22.37-5.22-16.61,3-1,5.22,16.61Z" transform="translate(-10.99 -5.68)"/><path d="M694.75,591.41c-.63-1.95-1.22-3.61-1.8-5.12l2.64-.85,1.16,3.22.11,0a5.29,5.29,0,0,1,3.44-5.12,3.65,3.65,0,0,1,.87-.18l.91,2.83a4.92,4.92,0,0,0-1.05.25c-2.13.68-3.11,2.77-2.79,5.15a8.33,8.33,0,0,0,.33,1.45l2.86,8.85-3,1Z" transform="translate(-10.99 -5.68)"/><path d="M721.36,585.9c2,6.12-1.3,10.21-5.27,11.54-4.47,1.5-9-.61-10.78-5.85-1.85-5.52.7-10,5.27-11.5C715.32,578.5,719.68,580.88,721.36,585.9Zm-13,4.58c1.21,3.62,4.2,5.65,7.12,4.67s4.13-4.37,2.88-8.12c-.94-2.79-3.53-5.85-7.09-4.66S707.29,587.35,708.34,590.48Z" transform="translate(-10.99 -5.68)"/><path d="M1098.28,511.92a32.52,32.52,0,0,1,6-.48c3.32,0,5.51.66,7,2a6,6,0,0,1,1.88,4.62,6.4,6.4,0,0,1-4.61,6.15v.09c1.85.66,3,2.42,3.53,4.94a42.42,42.42,0,0,0,1.82,6.67l-3.25,0a32.79,32.79,0,0,1-1.55-5.82c-.7-3.33-2-4.62-4.85-4.74h-3l-.06,10.51-3.13,0Zm3.06,11.07h3.2c3.36,0,5.49-1.79,5.51-4.57,0-3.15-2.25-4.53-5.55-4.56a13.76,13.76,0,0,0-3.1.26Z" transform="translate(-10.99 -5.68)"/><path d="M1132,531.29c0,1.83,0,3.39.11,4.76h-2.79l-.15-2.85H1129a6.49,6.49,0,0,1-5.78,3.21c-2.73,0-6-1.56-6-7.67l.06-10.17,3.15,0-.06,9.62c0,3.31,1,5.58,3.86,5.59a4.58,4.58,0,0,0,4.2-2.88,4.68,4.68,0,0,0,.3-1.62l.06-10.66,3.15,0Z" transform="translate(-10.99 -5.68)"/><path d="M1146.85,536.15l-.26-2.2h-.1a6.46,6.46,0,0,1-5.34,2.57,5,5,0,0,1-5.29-5c0-4.22,3.78-6.51,10.5-6.42v-.37c0-1.42-.38-4-3.94-4a8.48,8.48,0,0,0-4.55,1.27l-.7-2.11a10.9,10.9,0,0,1,5.75-1.49c5.32,0,6.6,3.68,6.58,7.16l0,6.52a26.72,26.72,0,0,0,.24,4.16Zm-.44-8.9c-3.42-.09-7.35.5-7.37,3.87a2.79,2.79,0,0,0,2.94,3,4.36,4.36,0,0,0,4.26-2.89,3.71,3.71,0,0,0,.16-1Z" transform="translate(-10.99 -5.68)"/><path d="M1165.57,514.65l-7.39,0V512l18,.1,0,2.65-7.42-.05-.13,21.62-3.15,0Z" transform="translate(-10.99 -5.68)"/><path d="M1178.48,518.93l3.36,9.78c.58,1.62,1,3.06,1.4,4.5h.09c.41-1.45.92-2.89,1.49-4.49l3.46-9.74,3.31,0-6.95,17.37-3,0-6.53-17.45Z" transform="translate(-10.99 -5.68)"/><path d="M1192.34,534.56a2.14,2.14,0,0,1,2.16-2.27,2.27,2.27,0,1,1-2.16,2.27Z" transform="translate(-10.99 -5.68)"/><path d="M1212.31,536.54l-7.8-24.3,3.4,0,3.7,12c1,3.28,1.9,6.24,2.54,9.07h.09c.69-2.8,1.7-5.85,2.81-9l4.18-12,3.35,0-8.82,24.2Z" transform="translate(-10.99 -5.68)"/><path d="M1230.06,514.32a2,2,0,1,1-2-2A1.91,1.91,0,0,1,1230.06,514.32Zm-3.67,22.31.1-17.41,3.15,0-.1,17.41Z" transform="translate(-10.99 -5.68)"/><path d="M1234.89,524c0-1.82,0-3.26-.12-4.71l2.8,0,.16,2.86h.08a6.44,6.44,0,0,1,5.78-3.22c2.39,0,6.13,1.47,6.09,7.45l-.06,10.39-3.15,0,.06-10c0-2.81-1-5.17-4-5.19a4.56,4.56,0,0,0-4.29,3.22,5.33,5.33,0,0,0-.23,1.47L1238,536.7l-3.15,0Z" transform="translate(-10.99 -5.68)"/><path d="M1258.59,514.41l0,5,4.55,0,0,2.4-4.55,0,0,9.39c0,2.17.6,3.39,2.37,3.4a6.43,6.43,0,0,0,1.84-.21l.13,2.4a8,8,0,0,1-2.83.42,4.41,4.41,0,0,1-3.41-1.36c-.87-1-1.21-2.5-1.2-4.55l0-9.5-2.69,0v-2.4l2.7,0,0-4.2Z" transform="translate(-10.99 -5.68)"/><path d="M1268.16,528.75c0,4.28,2.74,6.06,5.92,6.08a11.74,11.74,0,0,0,4.83-.86l.54,2.25a14,14,0,0,1-5.81,1.07c-5.35,0-8.55-3.61-8.52-8.83s3.17-9.38,8.25-9.35c5.68,0,7.14,5,7.12,8.23a8.38,8.38,0,0,1-.12,1.48Zm9.28-2.22c0-2-.78-5.13-4.34-5.15-3.23,0-4.62,2.89-4.89,5.09Z" transform="translate(-10.99 -5.68)"/><path d="M1293.79,528.91c0,4.28,2.74,6.06,5.92,6.08a11.75,11.75,0,0,0,4.83-.87l.54,2.25a14,14,0,0,1-5.82,1.08c-5.34,0-8.54-3.62-8.51-8.84s3.16-9.37,8.25-9.34c5.68,0,7.13,5,7.11,8.23A7.67,7.67,0,0,1,1306,529Zm9.28-2.23c0-2-.79-5.13-4.34-5.15-3.23,0-4.62,2.9-4.89,5.1Z" transform="translate(-10.99 -5.68)"/><path d="M1317.56,537.8l1-24.24,3.44.15,7.25,12.57a70.73,70.73,0,0,1,4,8.08l.08,0c-.15-3.25-.08-6.21.07-10l.43-10.16,3,.13-1,24.24-3.18-.14-7.19-12.61a79.54,79.54,0,0,1-4.17-8.3l-.11,0c.06,3.08,0,6-.19,10l-.43,10.37Z" transform="translate(-10.99 -5.68)"/><path d="M1357.16,530.58c-.27,6.44-4.85,9.07-9,8.9-4.71-.2-8.21-3.79-8-9.31.24-5.82,4.21-9.07,9-8.86C1354.17,521.52,1357.39,525.28,1357.16,530.58Zm-13.8-.37c-.16,3.81,1.91,6.77,5,6.9s5.42-2.61,5.59-6.56c.12-2.94-1.2-6.72-5-6.88S1343.5,526.91,1343.36,530.21Z" transform="translate(-10.99 -5.68)"/><path d="M1362.49,522.26l3,9.89c.52,1.64.91,3.09,1.24,4.56h.09c.46-1.43,1-2.86,1.65-4.43l3.81-9.61,3.31.14-7.58,17.1-3-.12-5.89-17.67Z" transform="translate(-10.99 -5.68)"/><path d="M1380.14,532.54c.21,4.27,3,5.94,6.16,5.83a11.8,11.8,0,0,0,4.79-1.06l.64,2.22a14,14,0,0,1-5.77,1.32c-5.35.19-8.69-3.26-8.87-8.48s2.77-9.5,7.86-9.68c5.67-.2,7.33,4.73,7.45,7.93a7.85,7.85,0,0,1-.06,1.49Zm9.18-2.61c0-2-1-5.09-4.55-5-3.23.12-4.5,3.09-4.67,5.3Z" transform="translate(-10.99 -5.68)"/><path d="M1418.45,513.75l.74,21c0,1.55.17,3.29.3,4.49l-2.81.1-.27-3h-.09a6.38,6.38,0,0,1-5.78,3.61c-4.22.15-7.59-3.3-7.78-8.58-.23-5.82,3.26-9.48,7.49-9.63a5.81,5.81,0,0,1,5.34,2.46h.08l-.37-10.39Zm-2.61,15.33a6.36,6.36,0,0,0-.19-1.35,4.69,4.69,0,0,0-4.71-3.48c-3.27.12-5.13,3.06-5,6.89.13,3.53,2,6.4,5.4,6.28a4.77,4.77,0,0,0,4.49-4,5,5,0,0,0,.11-1.36Z" transform="translate(-10.99 -5.68)"/><path d="M1426.09,530.91c.21,4.28,3,6,6.17,5.84a11.7,11.7,0,0,0,4.79-1.07l.63,2.23a14,14,0,0,1-5.77,1.32c-5.34.18-8.68-3.27-8.87-8.48s2.78-9.51,7.86-9.69c5.68-.19,7.34,4.73,7.45,7.94a7.69,7.69,0,0,1-.06,1.48Zm9.18-2.6c0-2-1-5.09-4.54-5-3.23.12-4.51,3.08-4.68,5.3Z" transform="translate(-10.99 -5.68)"/><path d="M1454.46,513.77l3.15-.11.57,16.21c.22,6.45-2.87,8.55-7,8.69a10.52,10.52,0,0,1-3.37-.44l.36-2.58a7.5,7.5,0,0,0,2.67.37c2.79-.1,4.39-1.43,4.22-6.18Z" transform="translate(-10.99 -5.68)"/><path d="M1473.23,537.39l-.36-2.19h-.1a6.42,6.42,0,0,1-5.23,2.78,5,5,0,0,1-5.49-4.8c-.15-4.22,3.51-6.66,10.23-6.85V526c0-1.42-.54-4-4.11-3.88a8.44,8.44,0,0,0-4.48,1.46l-.8-2.08a11,11,0,0,1,5.69-1.73c5.32-.18,6.75,3.41,6.87,6.89l.23,6.51a26.63,26.63,0,0,0,.41,4.16Zm-.81-8.87c-3.43.05-7.33.8-7.21,4.17a2.79,2.79,0,0,0,3.06,2.92,4.36,4.36,0,0,0,4.14-3.06,3.25,3.25,0,0,0,.12-1Z" transform="translate(-10.99 -5.68)"/><path d="M1480.48,524.41c-.06-1.81-.17-3.25-.3-4.69l2.79-.1.28,2.86h.08A6.44,6.44,0,0,1,1489,519c2.39-.08,6.19,1.23,6.4,7.2l.36,10.38-3.15.11-.35-10c-.1-2.81-1.24-5.13-4.2-5a4.56,4.56,0,0,0-4.15,3.4,4.82,4.82,0,0,0-.17,1.48l.37,10.48-3.15.11Z" transform="translate(-10.99 -5.68)"/><path d="M1502.38,528.22c.21,4.27,3,5.94,6.17,5.83a11.79,11.79,0,0,0,4.78-1.06l.64,2.23a14.17,14.17,0,0,1-5.77,1.31c-5.35.19-8.69-3.26-8.87-8.48s2.77-9.5,7.86-9.68c5.67-.2,7.33,4.73,7.45,7.93a7.8,7.8,0,0,1-.06,1.49Zm9.18-2.6c0-2-1-5.1-4.55-5-3.23.11-4.5,3.08-4.67,5.29Z" transform="translate(-10.99 -5.68)"/><path d="M1521.66,513.33a2,2,0,1,1-2-1.9A1.92,1.92,0,0,1,1521.66,513.33Zm-2.75,22.44-.62-17.4,3.15-.11.62,17.4Z" transform="translate(-10.99 -5.68)"/><path d="M1526.92,523.5c-.08-2.06-.19-3.81-.34-5.42l2.78-.1.24,3.41h.11a5.29,5.29,0,0,1,4.71-4,3.55,3.55,0,0,1,.88.06l.11,3a5.22,5.22,0,0,0-1.08-.05c-2.23.08-3.75,1.81-4.1,4.2a8.75,8.75,0,0,0-.07,1.48l.33,9.3-3.15.11Z" transform="translate(-10.99 -5.68)"/><path d="M1554.18,525.65c.22,6.44-4.15,9.42-8.33,9.57-4.72.16-8.49-3.15-8.68-8.67-.21-5.82,3.5-9.36,8.31-9.53C1550.49,516.84,1554,520.35,1554.18,525.65Zm-13.79.69c.13,3.82,2.42,6.61,5.51,6.5s5.2-3,5.06-7c-.11-2.94-1.72-6.61-5.48-6.48S1540.27,523,1540.39,526.34Z" transform="translate(-10.99 -5.68)"/><path d="M1704.67,42.77a27.41,27.41,0,0,1,1.37,5.91c.4,3.3-.12,5.57-1.62,7.28a8.6,8.6,0,0,1-5.49,2.58c-4,.48-6.82-1.22-8.22-3.61l-.11,0c-.58,1.93-2.61,3.3-5.65,4.27a60.44,60.44,0,0,0-8,2.85l-.4-3.22a48.24,48.24,0,0,1,7-2.46c4-1.22,5.47-2.71,5.25-5.54l-.36-3-13,1.58-.38-3.1Zm-13.31,4.78.38,3.17c.41,3.33,2.93,5.17,6.37,4.75,3.91-.48,5.33-2.94,4.94-6.22a10.73,10.73,0,0,0-.72-3Z" transform="translate(-10.99 -5.68)"/><path d="M1685,79.19c-2.26.28-4.19.57-5.89.86l-.33-2.78,3.51-.59,0-.09a6.46,6.46,0,0,1-4.71-5.23c-.33-2.71,1.17-6.18,8.74-7.1l12.61-1.53.38,3.12-11.92,1.45c-4.11.5-6.79,1.87-6.45,4.7.26,2.11,2.28,3.36,4.11,3.72a7.24,7.24,0,0,0,2,0l13.21-1.61.38,3.13Z" transform="translate(-10.99 -5.68)"/><path d="M1680.87,94.75l2.69-.61v-.09a6.18,6.18,0,0,1-3.85-4.9c-.43-3.49,2.45-5.65,5.55-6,5.23-.63,8.55,2.73,9.29,9.41l.46,0c1.76-.21,5-1,4.5-4.54a7.24,7.24,0,0,0-2.15-4.31l2.53-1a9.46,9.46,0,0,1,2.58,5.48c.64,5.28-3.72,7.12-8,7.64l-8.07,1a42.35,42.35,0,0,0-5.14.88Zm11-1.83c-.32-3.41-1.55-7.21-5.73-6.7-2.57.31-3.59,1.81-3.4,3.38a4.56,4.56,0,0,0,4.12,3.78,5.31,5.31,0,0,0,1.26,0Z" transform="translate(-10.99 -5.68)"/><path d="M1709.89,110l-.88-7.34,3.28-.4,2.15,17.84-3.28.4-.89-7.38-26.79,3.24-.38-3.13Z" transform="translate(-10.99 -5.68)"/><path d="M1706.23,123.44l-11.69,4.85c-1.93.82-3.66,1.49-5.4,2.09v.09c1.84.18,3.7.46,5.75.78l12.5,1.92.4,3.28-22.4-4.19-.36-3,20.79-9.19Z" transform="translate(-10.99 -5.68)"/><path d="M1688.63,139.6c1.65-.19,2.94.55,3.09,1.8s-.92,2.24-2.58,2.45-2.9-.5-3.05-1.8S1687.05,139.78,1688.63,139.6Z" transform="translate(-10.99 -5.68)"/><path d="M1688.71,159.72l29.12-11.49.41,3.38-14.38,5.52c-3.93,1.52-7.49,2.85-10.91,3.92v.08c3.56.26,7.46.79,11.5,1.41l15.36,2.28.4,3.33-31.1-5Z" transform="translate(-10.99 -5.68)"/><path d="M1690.38,173.68,1712,171.1l.38,3.13-21.58,2.58Zm28.1.2a2.18,2.18,0,0,1-2.68-1.71c-.13-1.13.88-2,2.21-2.19a2.22,2.22,0,0,1,2.68,1.67C1720.83,172.82,1719.85,173.71,1718.48,173.88Z" transform="translate(-10.99 -5.68)"/><path d="M1707.14,180.18c2.25-.27,4-.55,5.81-.84l.33,2.77-3.53.6v.09a6.37,6.37,0,0,1,4.72,5.23c.29,2.38-1,6.31-8.46,7.2l-12.87,1.54-.38-3.13,12.44-1.49c3.49-.42,6.29-1.82,5.93-4.76-.24-2.07-2.27-3.46-4.53-3.76a8.15,8.15,0,0,0-1.85,0l-13,1.56-.37-3.13Z" transform="translate(-10.99 -5.68)"/><path d="M1722,202.21l-6.22.74.54,4.52-3,.35-.54-4.51-11.63,1.38c-2.69.32-4.14,1.12-3.93,2.88a5.25,5.25,0,0,0,.5,1.79l-3,.49a6.56,6.56,0,0,1-.88-2.74,4,4,0,0,1,1.26-3.59c1.09-1,2.95-1.59,5.48-1.89l11.79-1.4-.32-2.68,3-.36.31,2.68,5.2-.62Z" transform="translate(-10.99 -5.68)"/><path d="M1705.41,213.91c-5.3.69-7.16,3.65-6.79,6.81a9.82,9.82,0,0,0,1.67,4.65l-2.72.89a11.74,11.74,0,0,1-2.06-5.61c-.63-5.31,3.41-9,9.89-9.8s12,1.7,12.61,6.75c.67,5.64-5.33,7.85-9.31,8.32a11.51,11.51,0,0,1-1.85.11Zm3.92,8.87c2.48-.26,6.26-1.57,5.84-5.09-.38-3.21-4.17-4.15-6.93-4.08Z" transform="translate(-10.99 -5.68)"/><path d="M1708.43,239.41c-5.3.69-7.17,3.64-6.8,6.8a9.66,9.66,0,0,0,1.67,4.66l-2.73.88a11.75,11.75,0,0,1-2-5.61c-.62-5.31,3.42-9,9.9-9.79s12,1.72,12.6,6.77c.66,5.64-5.34,7.84-9.31,8.31a11.67,11.67,0,0,1-1.86.11Zm3.9,8.87c2.48-.26,6.26-1.55,5.85-5.08-.38-3.21-4.16-4.15-6.92-4.08Z" transform="translate(-10.99 -5.68)"/><path d="M1701.14,264.41l30.09-3.45.39,3.42-14.32,9.47a95.89,95.89,0,0,1-9.31,5.42l.06.07c4-.74,7.65-1.21,12.31-1.75l12.61-1.44.34,2.93-30.1,3.44-.36-3.16,14.38-9.41a106.69,106.69,0,0,1,9.56-5.63l-.06-.11c-3.79.63-7.42,1.08-12.39,1.65l-12.87,1.48Z" transform="translate(-10.99 -5.68)"/><path d="M1716.46,302.21c-8,.84-12-3.24-12.41-7.4-.49-4.7,3.4-8.77,10.26-9.5,7.24-.76,11.87,2.61,12.37,7.4C1727.2,297.68,1723,301.51,1716.46,302.21Zm-1.69-13.71c-4.74.5-8.08,3.05-7.76,6.13s4.08,4.9,9,4.39c3.66-.39,8.13-2.35,7.73-6.09S1718.87,288.07,1714.77,288.5Z" transform="translate(-10.99 -5.68)"/><path d="M1726.92,308.15l-12.32,2.92c-2,.51-3.85.89-5.66,1.2v.09c1.79.48,3.58,1.05,5.55,1.69l12,3.89-.13,3.31L1705,313.53l.12-3,22-5.74Z" transform="translate(-10.99 -5.68)"/><path d="M1714.54,325.21c-5.34-.24-7.69,2.35-7.87,5.52a9.68,9.68,0,0,0,.84,4.88l-2.84.4a11.76,11.76,0,0,1-1.05-5.88c.3-5.34,4.92-8.31,11.44-7.94s11.53,3.77,11.25,8.84c-.32,5.68-6.62,6.81-10.61,6.58a10.78,10.78,0,0,1-1.85-.21Zm2.32,9.41c2.48.17,6.43-.45,6.63-4,.18-3.23-3.38-4.81-6.11-5.21Z" transform="translate(-10.99 -5.68)"/><path d="M1733.87,365.46l-26.25-1.69c-1.93-.13-4.1-.21-5.6-.22l.18-2.81,3.76.08v-.08a6.33,6.33,0,0,1-3.87-6.17c.27-4.21,4.93-7.17,11.5-6.74,7.25.44,11.43,4.32,11.15,8.55a5.62,5.62,0,0,1-3.63,5v.07l13,.84Zm-18.78-4.37a9.67,9.67,0,0,0,1.7,0c2.52-.33,4.68-1.9,4.83-4.28.21-3.27-3.24-5.46-8-5.77-4.4-.28-8.17,1.24-8.39,4.65-.14,2.11,1.52,4.15,4.43,4.92a8.45,8.45,0,0,0,1.68.26Z" transform="translate(-10.99 -5.68)"/><path d="M1711.69,371.1c-5.33-.29-7.71,2.27-7.92,5.44a9.74,9.74,0,0,0,.78,4.89l-2.84.36a11.81,11.81,0,0,1-1-5.89c.36-5.33,5-8.24,11.52-7.81s11.5,3.89,11.16,9c-.38,5.66-6.69,6.73-10.68,6.46a13.85,13.85,0,0,1-1.84-.23Zm2.22,9.44c2.48.2,6.44-.38,6.68-3.93.21-3.22-3.33-4.84-6.06-5.28Z" transform="translate(-10.99 -5.68)"/><path d="M1729.8,401.41l-.22,3.14-20.19-1.41c-8.05-.56-10.3-3.89-10-8.05a8.56,8.56,0,0,1,.94-3.3l3.16.67a6.16,6.16,0,0,0-.76,2.61c-.2,2.79,1.27,4.53,7.2,4.95Z" transform="translate(-10.99 -5.68)"/><path d="M1698.32,417.16l2.76-.08V417a6.16,6.16,0,0,1-2.85-5.54c.24-3.5,3.48-5.08,6.59-4.86,5.25.37,7.87,4.3,7.34,11l.46,0c1.76.12,5,0,5.28-3.6a7.29,7.29,0,0,0-1.29-4.64l2.67-.53a9.31,9.31,0,0,1,1.49,5.87c-.37,5.3-5,6.28-9.34,6l-8.11-.57a42.48,42.48,0,0,0-5.21-.11Zm11.11.3c.33-3.42-.16-7.38-4.35-7.68-2.59-.18-3.87,1.1-4,2.68a4.54,4.54,0,0,0,3.33,4.49,5.14,5.14,0,0,0,1.23.24Z" transform="translate(-10.99 -5.68)"/><path d="M1713.61,426c2.26.17,4.06.24,5.86.28l-.2,2.79-3.58-.08v.09a6.36,6.36,0,0,1,3.64,6c-.17,2.39-2.23,6-9.67,5.46l-12.94-.94.23-3.14,12.5.9c3.5.26,6.51-.59,6.73-3.55.15-2.07-1.58-3.82-3.74-4.54a7.17,7.17,0,0,0-1.82-.35l-13.06-.95.22-3.14Z" transform="translate(-10.99 -5.68)"/><path d="M1706.34,447.27c-5.33-.32-7.73,2.23-8,5.4a9.81,9.81,0,0,0,.76,4.89l-2.84.35a11.74,11.74,0,0,1-1-5.9c.39-5.33,5.06-8.22,11.56-7.75s11.48,4,11.11,9c-.42,5.66-6.73,6.69-10.72,6.4a12.07,12.07,0,0,1-1.84-.24Zm2.16,9.45c2.48.21,6.44-.35,6.7-3.89.23-3.22-3.3-4.86-6-5.31Z" transform="translate(-10.99 -5.68)"/><path d="M1695,462.74l21.67,1.59-.23,3.14-21.67-1.59Zm27.54,5.57c-1.34-.09-2.39-.93-2.3-2.19s1.25-1.82,2.59-1.72a2.2,2.2,0,0,1,2.31,2.14C1725.08,467.72,1724,468.41,1722.57,468.31Z" transform="translate(-10.99 -5.68)"/><path d="M1709.33,472.25c2.56.19,4.75.3,6.76.35l-.2,2.77-4.26-.19v.11c2.85,1,4.54,3.08,4.39,5.19a2.92,2.92,0,0,1-.18.87l-3.71-.28a4.26,4.26,0,0,0,.2-1.06c.16-2.23-1.82-4-4.73-4.6a12.37,12.37,0,0,0-1.83-.27l-11.58-.86.23-3.14Z" transform="translate(-10.99 -5.68)"/><path d="M1703.44,499.05c-8-.6-11.21-5.33-10.9-9.5.36-4.71,4.91-8,11.79-7.51,7.26.54,11.21,4.68,10.85,9.48C1714.81,496.52,1710,499.54,1703.44,499.05Zm.77-13.79c-4.75-.35-8.49,1.56-8.72,4.64s3.13,5.56,8,5.93c3.67.27,8.41-.86,8.69-4.62S1708.32,485.57,1704.21,485.26Z" transform="translate(-10.99 -5.68)"/></g></g></svg>