<svg xmlns="http://www.w3.org/2000/svg" viewBox="0 0 1769.23 833.45"><defs><style>.cls-1{fill:#cfdcfa;}.cls-1,.cls-2{stroke:#000;stroke-miterlimit:10;stroke-width:4px;}.cls-2{fill:none;}</style></defs><g id="Layer_2" data-name="Layer 2"><g id="Novo_Mapa" data-name="Novo Mapa"><path class="cls-1" d="M33.82,538.94l199.53-399s140.17,28.54,195.52,15.74,92.25-46,148.73-60.85c47.17-12.44,518.29-22.9,518.29-22.9s14.75-2.7,16.57,16.16-.32,291.84-8.45,303.39-40.76,45.84-45,42.7-12.14-36.86-121.53-81.64S684,279.19,650.34,281.06,574,283.72,554,303.63,401.13,635.94,401.13,635.94Z" transform="translate(-6.77)"/><path class="cls-1" d="M1167.12,80.12l-.5,13.32-2.84,288.25,351-.16L1549.65,90s1.47-8.68-2.17-22.5-9-21.6-17.57-26.68-11.09-7.2-23.89-8.27-60.26-2.18-60.26-2.18-45.06-.15-62.9,6.43S1313.2,57,1298.56,60.85s-104.06,10.64-117.9,10.86S1167.12,80.12,1167.12,80.12Z" transform="translate(-6.77)"/><path class="cls-2" d="M1719.92,833.24c3.58-34.89,27.88-106.43,43.73-181.86s8.84-184.26,8.63-198.53-1.35-26.05-14.72-44.93-35.77-23.72-35.77-23.72l-154.11-4.14s9.22-78.24,18.42-150.62,10-83,12-110.32,3.82-45.7-2-70.1-36-47.43-36-47.43" transform="translate(-6.77)"/><path class="cls-1" d="M1109.63,455.08l24.49-21.55,563.39-1.61s13.84-.22,20.35,7.45S1728,461,1727.78,470.5l-1.66,66.84s-2.11,62.13-7,82.87l-29.61,124.47s-4.58,12.37-12.25,16.73-18,5.4-22.64,4.69-101-42.06-101-42.06-116-41.72-157.18-61.33-140.12-76.16-194.06-120.66S1109,473,1109,473a18.58,18.58,0,0,1-3.19-9.19A9.5,9.5,0,0,1,1109.63,455.08Z" transform="translate(-6.77)"/><path d="M1126.19,409.38a35.09,35.09,0,0,1-.53-6.21c0-3.43.64-5.69,2-7.25a6,6,0,0,1,4.61-2,6.44,6.44,0,0,1,6.19,4.71h.08c.65-1.91,2.4-3.06,4.92-3.67a39,39,0,0,0,6.65-1.92v3.35a31.35,31.35,0,0,1-5.8,1.64c-3.33.75-4.61,2.1-4.71,5v3.06h10.51v3.23Zm11-3.23v-3.3c0-3.46-1.83-5.65-4.61-5.65-3.15,0-4.52,2.35-4.52,5.75a15.13,15.13,0,0,0,.27,3.2Z" transform="translate(-6.77)"/><path d="M1148.25,390.28a2.16,2.16,0,0,1-2.28-2.21,2.27,2.27,0,1,1,2.28,2.21Z" transform="translate(-6.77)"/><path d="M1125.85,373.86V360.39h2.61v10.22h8.08v-9.44h2.59v9.44h11v3.25Z" transform="translate(-6.77)"/><path d="M1142,355.2c4.28-.06,6-2.86,6-6.14a12.32,12.32,0,0,0-.9-5l2.25-.57a14.8,14.8,0,0,1,1.11,6c0,5.51-3.56,8.83-8.78,8.83s-9.4-3.21-9.4-8.45c0-5.85,5-7.38,8.19-7.38a7.67,7.67,0,0,1,1.48.11Zm-2.27-9.55c-2,0-5.13.84-5.13,4.5,0,3.33,2.92,4.75,5.13,5Z" transform="translate(-6.77)"/><path d="M1138.13,338.44c-2.06,0-3.81.05-5.42.15v-2.86l3.41-.12v-.12a5.43,5.43,0,0,1-3.81-5,3.75,3.75,0,0,1,.09-.91h3a5.3,5.3,0,0,0-.09,1.11c0,2.3,1.68,3.93,4,4.37a7.59,7.59,0,0,0,1.47.13h9.3v3.25Z" transform="translate(-6.77)"/><path d="M1137.41,326.15c-1.82,0-3.26.06-4.7.15v-2.89l2.86-.18v-.09a6.64,6.64,0,0,1-3.26-5.93c0-2.47,1.44-6.33,7.42-6.33h10.38v3.25h-10c-2.82,0-5.17,1.1-5.17,4.15a4.68,4.68,0,0,0,3.25,4.4,4.87,4.87,0,0,0,1.46.22h10.49v3.25Z" transform="translate(-6.77)"/><path d="M1150.11,295.6l-2.19.29v.1a6.76,6.76,0,0,1,2.59,5.49c0,3.62-2.5,5.48-5,5.48-4.22,0-6.54-3.85-6.49-10.79h-.37c-1.41,0-4,.41-4,4.09a8.93,8.93,0,0,0,1.3,4.67l-2.1.74a11.51,11.51,0,0,1-1.53-5.92c0-5.48,3.64-6.82,7.13-6.82H1146a26.42,26.42,0,0,0,4.16-.27Zm-8.88.51c-.08,3.53.54,7.57,3.9,7.57a2.84,2.84,0,0,0,3-3,4.49,4.49,0,0,0-2.92-4.38,3.28,3.28,0,0,0-1-.15Z" transform="translate(-6.77)"/><path d="M1137.41,287.66c-1.82,0-3.26.06-4.7.15v-2.88l2.86-.18v-.09a6.66,6.66,0,0,1-3.26-5.94c0-2.46,1.44-6.32,7.42-6.32h10.38v3.24h-10c-2.82,0-5.17,1.1-5.17,4.15a4.67,4.67,0,0,0,3.25,4.4,4.58,4.58,0,0,0,1.46.22h10.49v3.25Z" transform="translate(-6.77)"/><path d="M1124.56,251.57h21.06c1.55,0,3.29-.06,4.49-.15v2.91l-3,.16v.09a6.6,6.6,0,0,1,3.41,6.09c0,4.35-3.57,7.7-8.84,7.7-5.82,0-9.36-3.69-9.36-8.06a6.05,6.05,0,0,1,2.64-5.42v-.07h-10.39Zm15.23,3.25a6.19,6.19,0,0,0-1.35.14,4.78,4.78,0,0,0-3.65,4.72c0,3.38,2.88,5.4,6.7,5.4,3.54,0,6.47-1.81,6.47-5.33a4.88,4.88,0,0,0-3.8-4.77,4.81,4.81,0,0,0-1.35-.16Z" transform="translate(-6.77)"/><path d="M1141.24,229.88c6.45,0,9.27,4.62,9.27,8.93,0,4.87-3.44,8.63-9,8.63-5.82,0-9.23-3.95-9.23-8.91C1132.31,233.37,1135.94,229.88,1141.24,229.88Zm.21,14.24c3.81,0,6.69-2.26,6.69-5.44s-2.84-5.47-6.79-5.47c-2.94,0-6.67,1.53-6.67,5.41S1138.14,244.12,1141.45,244.12Z" transform="translate(-6.77)"/><path d="M1124.56,202.4h21.06c1.55,0,3.29-.07,4.49-.15v2.9l-3,.16v.09a6.6,6.6,0,0,1,3.41,6.09c0,4.35-3.57,7.7-8.84,7.7-5.82,0-9.36-3.69-9.36-8.06a6.05,6.05,0,0,1,2.64-5.42v-.07h-10.39Zm15.23,3.24a6.19,6.19,0,0,0-1.35.14,4.79,4.79,0,0,0-3.65,4.72c0,3.38,2.88,5.4,6.7,5.4,3.54,0,6.47-1.81,6.47-5.33a4.89,4.89,0,0,0-3.8-4.77,4.81,4.81,0,0,0-1.35-.16Z" transform="translate(-6.77)"/><path d="M1142,195.13c4.28-.07,6-2.87,6-6.15a12.32,12.32,0,0,0-.9-5l2.25-.57a14.8,14.8,0,0,1,1.11,6c0,5.51-3.56,8.83-8.78,8.83s-9.4-3.2-9.4-8.44c0-5.86,5-7.39,8.19-7.39a7.67,7.67,0,0,1,1.48.11Zm-2.27-9.56c-2,0-5.13.85-5.13,4.51,0,3.33,2.92,4.75,5.13,5Z" transform="translate(-6.77)"/><path d="M1150.11,170.39h-24.26v-3.55l12.27-8a68.6,68.6,0,0,1,7.89-4.46l0-.08c-3.24.29-6.2.35-10,.35h-10.17v-3h24.26v3.28l-12.29,8a79.42,79.42,0,0,1-8.13,4.65l0,.11c3.08-.19,6-.24,10-.24h10.37Z" transform="translate(-6.77)"/><path d="M1141.24,129.9c6.45,0,9.27,4.61,9.27,8.92,0,4.87-3.44,8.63-9,8.63-5.82,0-9.23-3.95-9.23-8.91C1132.31,133.38,1135.94,129.9,1141.24,129.9Zm.21,14.23c3.81,0,6.69-2.26,6.69-5.44s-2.84-5.47-6.79-5.47c-2.94,0-6.67,1.53-6.67,5.41S1138.14,144.13,1141.45,144.13Z" transform="translate(-6.77)"/><path d="M1138.13,125.77c-2.06,0-3.81,0-5.42.15v-2.86l3.41-.12v-.12a5.43,5.43,0,0,1-3.81-5,3.75,3.75,0,0,1,.09-.91h3a5.3,5.3,0,0,0-.09,1.11c0,2.3,1.68,3.93,4,4.37a7.59,7.59,0,0,0,1.47.13h9.3v3.25Z" transform="translate(-6.77)"/><path d="M1141.24,97.76c6.45,0,9.27,4.61,9.27,8.92,0,4.87-3.44,8.63-9,8.63-5.82,0-9.23-4-9.23-8.91C1132.31,101.24,1135.94,97.76,1141.24,97.76Zm.21,14.23c3.81,0,6.69-2.26,6.69-5.44s-2.84-5.47-6.79-5.47c-2.94,0-6.67,1.53-6.67,5.41S1138.14,112,1141.45,112Z" transform="translate(-6.77)"/><path d="M1137.41,93.62c-1.82,0-3.26.06-4.7.15V90.89l2.86-.18v-.09a6.66,6.66,0,0,1-3.26-5.94c0-2.46,1.44-6.32,7.42-6.32h10.38v3.25h-10c-2.82,0-5.17,1.09-5.17,4.14a4.66,4.66,0,0,0,3.25,4.4,4.56,4.56,0,0,0,1.46.23h10.49v3.24Z" transform="translate(-6.77)"/><path d="M1124.56,73V69.78h10.86V69.7a6.44,6.44,0,0,1-2.23-2.34,6.71,6.71,0,0,1-.88-3.35c0-2.42,1.43-6.25,7.44-6.25h10.36V61h-10c-2.81,0-5.17,1.09-5.17,4.15a4.74,4.74,0,0,0,3.16,4.4,4.18,4.18,0,0,0,1.51.22h10.52V73Z" transform="translate(-6.77)"/><path d="M1150.11,42.47l-2.19.29v.1a6.77,6.77,0,0,1,2.59,5.49c0,3.63-2.5,5.48-5,5.48-4.22,0-6.54-3.85-6.49-10.78h-.37c-1.41,0-4,.41-4,4.08a9,9,0,0,0,1.3,4.68l-2.1.74a11.56,11.56,0,0,1-1.53-5.92c0-5.49,3.64-6.83,7.13-6.83H1146a26.42,26.42,0,0,0,4.16-.27Zm-8.88.51c-.08,3.53.54,7.58,3.9,7.58a2.84,2.84,0,0,0,3-3.05,4.49,4.49,0,0,0-2.92-4.37,3,3,0,0,0-1-.16Z" transform="translate(-6.77)"/><path d="M305.38,112.92a32,32,0,0,1,6,.46c3.28.55,5.34,1.56,6.59,3.2a6.33,6.33,0,0,1,1.09,5,6.56,6.56,0,0,1-5.57,5.53v.09c1.71,1,2.51,2.93,2.66,5.59a42.3,42.3,0,0,0,.71,7.08l-3.21-.54a34,34,0,0,1-.58-6.17c-.14-3.5-1.21-5-4-5.59l-2.92-.49-1.8,10.69-3.09-.52Zm1.19,11.75,3.16.53c3.31.55,5.72-1,6.2-3.78.53-3.21-1.47-5-4.73-5.53a13.43,13.43,0,0,0-3.11-.23Z" transform="translate(-6.77)"/><path d="M335.21,137.55c-.26,1.86-.43,3.46-.55,4.88l-2.77-.39.25-2.93h-.09a6.5,6.5,0,0,1-6.17,2.5c-2.7-.39-5.72-2.41-4.84-8.64l1.48-10.38,3.12.44-1.4,9.82c-.48,3.38.22,5.83,3.05,6.24a4.64,4.64,0,0,0,4.57-2.38,5.14,5.14,0,0,0,.52-1.62l1.55-10.88,3.11.44Z" transform="translate(-6.77)"/><path d="M349.54,144.16l0-2.29h-.09a6.39,6.39,0,0,1-5.59,2.07,5,5,0,0,1-4.72-5.7c.48-4.33,4.46-6.29,11.14-5.5l0-.38c.16-1.45.06-4.18-3.48-4.55a8.3,8.3,0,0,0-4.66.83l-.47-2.24a10.75,10.75,0,0,1,5.88-.93c5.29.59,6.17,4.46,5.77,8l-.74,6.67a28.56,28.56,0,0,0-.21,4.3Zm.52-9.17c-3.39-.45-7.36-.25-7.75,3.2a2.84,2.84,0,0,0,2.6,3.43,4.38,4.38,0,0,0,4.55-2.52,4,4,0,0,0,.26-1Z" transform="translate(-6.77)"/><path d="M382,120l-.95,21.7c-.07,1.6-.09,3.39-.06,4.63l-2.82-.12,0-3.11h-.08A6.36,6.36,0,0,1,372,146.3c-4.21-.18-7.3-4-7.06-9.44.23-6,4-9.48,8.24-9.29a5.74,5.74,0,0,1,5.12,3h.08l.47-10.7Zm-3.83,15.56a7.31,7.31,0,0,0-.08-1.4,4.72,4.72,0,0,0-4.41-4c-3.28-.14-5.37,2.74-5.54,6.68-.16,3.64,1.47,6.74,4.88,6.89a4.82,4.82,0,0,0,4.79-3.71,5.55,5.55,0,0,0,.22-1.4Z" transform="translate(-6.77)"/><path d="M397.12,145.92l-.37-2.25h-.1a6.39,6.39,0,0,1-5.21,2.89,5,5,0,0,1-5.52-4.93c-.17-4.34,3.46-6.88,10.18-7.1v-.38c-.06-1.46-.57-4.14-4.13-4a8.24,8.24,0,0,0-4.48,1.52l-.8-2.14a10.58,10.58,0,0,1,5.68-1.8c5.31-.22,6.76,3.48,6.91,7.07l.27,6.71a29.47,29.47,0,0,0,.43,4.28Zm-.86-9.13c-3.43.06-7.32.85-7.18,4.32a2.82,2.82,0,0,0,3.08,3,4.36,4.36,0,0,0,4.11-3.17,3.13,3.13,0,0,0,.11-1Z" transform="translate(-6.77)"/><path d="M412.65,118.42,416,132.86c1.27,5.43,4.15,7.19,7.33,6.45,3.48-.81,5.19-3.73,4-9.08l-3.37-14.44,3.07-.72,3.31,14.22c1.75,7.49-1.36,11.43-6.48,12.63-4.83,1.12-9.13-.86-10.9-8.44l-3.34-14.35Z" transform="translate(-6.77)"/><path d="M435,125.27c-.58-1.78-1.1-3.18-1.64-4.56l2.66-.87,1.08,2.75.08,0a6.4,6.4,0,0,1,4.43-5c2.28-.75,6.3-.5,8.21,5.36l3.33,10.18-3,1L447,124.26c-.9-2.76-2.67-4.74-5.48-3.82a4.59,4.59,0,0,0-3,4.51,5.19,5.19,0,0,0,.27,1.51l3.36,10.28-3,1Z" transform="translate(-6.77)"/><path d="M453.16,107.89a2,2,0,1,1-3.56,1.65,2,2,0,0,1,.93-2.67A1.92,1.92,0,0,1,453.16,107.89Zm6.46,22.39L452.08,114l2.86-1.32,7.53,16.3Z" transform="translate(-6.77)"/><path d="M459.29,107c-1.23-2.09-1.07-3.83.27-4.57a4.75,4.75,0,0,1,2.36-.37,3.63,3.63,0,0,0,1.63-.17c.5-.28.64-.74.11-1.86l1.47-.82c1.23,2.13,1.14,3.65-.33,4.47a4.61,4.61,0,0,1-2.31.39,3.33,3.33,0,0,0-1.67.18c-.5.27-.45,1,0,1.91Zm17.31,14.48-1.34-1.85-.08,0a6.42,6.42,0,0,1-3.37,4.92,5,5,0,0,1-7.14-1.93c-2.11-3.81,0-7.71,5.92-10.92l-.18-.33c-.71-1.28-2.36-3.45-5.47-1.71a8.3,8.3,0,0,0-3.33,3.37l-1.68-1.56a10.75,10.75,0,0,1,4.27-4.15c4.66-2.58,7.61.08,9.35,3.23l3.25,5.87a29.5,29.5,0,0,0,2.3,3.64Zm-4.86-7.79c-3,1.59-6.16,4-4.48,7.09a2.83,2.83,0,0,0,4.1,1.3,4.38,4.38,0,0,0,2.26-4.68,3.7,3.7,0,0,0-.37-1Z" transform="translate(-6.77)"/><path d="M493,102.4c3.07,5.9.44,10.54-3.27,12.47-4.19,2.18-9.06.72-11.69-4.34-2.77-5.33-1-10.21,3.28-12.43C485.72,95.79,490.44,97.55,493,102.4ZM480.81,109c1.82,3.49,5.13,5.11,7.87,3.68s3.35-5,1.47-8.65c-1.4-2.69-4.48-5.42-7.82-3.68S479.24,105.94,480.81,109Z" transform="translate(-6.77)"/><path d="M744.89,45.43a32,32,0,0,1,6-.76c3.32-.13,5.54.44,7.1,1.79a6.38,6.38,0,0,1,2.07,4.68,6.6,6.6,0,0,1-4.35,6.54v.1c1.88.59,3.06,2.35,3.74,4.92a42.14,42.14,0,0,0,2.1,6.79l-3.25.13a34.24,34.24,0,0,1-1.8-5.93c-.84-3.4-2.2-4.67-5-4.67l-3,.11L748.88,70l-3.13.11Zm3.53,11.26,3.19-.12c3.36-.12,5.41-2.08,5.31-5-.11-3.24-2.43-4.57-5.74-4.45a13.09,13.09,0,0,0-3.09.4Z" transform="translate(-6.77)"/><path d="M779.35,63.91c.07,1.89.19,3.49.32,4.91l-2.79.1L776.6,66h-.08a6.53,6.53,0,0,1-5.65,3.56c-2.72.1-6-1.35-6.26-7.64l-.37-10.48,3.15-.12.34,9.91c.12,3.41,1.24,5.7,4.09,5.59a4.63,4.63,0,0,0,4.09-3.15,5.11,5.11,0,0,0,.22-1.68l-.38-11,3.15-.12Z" transform="translate(-6.77)"/><path d="M794.45,68.27,794.09,66H794a6.45,6.45,0,0,1-5.23,2.88,5,5,0,0,1-5.5-5c-.15-4.35,3.5-6.87,10.22-7.07v-.38c-.05-1.46-.54-4.15-4.11-4a8.31,8.31,0,0,0-4.48,1.5l-.8-2.14a10.84,10.84,0,0,1,5.69-1.79c5.32-.19,6.75,3.5,6.87,7.1l.24,6.71a28.15,28.15,0,0,0,.41,4.28Zm-.82-9.14c-3.42,0-7.32.83-7.2,4.3a2.83,2.83,0,0,0,3.07,3,4.37,4.37,0,0,0,4.13-3.16,3.42,3.42,0,0,0,.11-1Z" transform="translate(-6.77)"/><path d="M823.86,40.8l.76,21.71c.06,1.59.18,3.38.31,4.62l-2.81.1-.27-3.09h-.09A6.36,6.36,0,0,1,816,67.87c-4.21.16-7.59-3.39-7.78-8.83-.24-6,3.24-9.77,7.47-9.93A5.76,5.76,0,0,1,821,51.63h.07l-.38-10.71Zm-2.59,15.81a7.49,7.49,0,0,0-.19-1.39,4.7,4.7,0,0,0-4.71-3.58c-3.28.12-5.13,3.16-5,7.1.13,3.64,2,6.6,5.4,6.48a4.84,4.84,0,0,0,4.49-4.09,5.36,5.36,0,0,0,.1-1.41Z" transform="translate(-6.77)"/><path d="M839.71,66.58l-.36-2.26h-.1A6.42,6.42,0,0,1,834,67.2a5,5,0,0,1-5.49-5c-.15-4.35,3.5-6.87,10.22-7.07V54.8c0-1.46-.55-4.15-4.11-4a8.31,8.31,0,0,0-4.48,1.5l-.8-2.14A10.81,10.81,0,0,1,835,48.38c5.32-.19,6.74,3.51,6.87,7.1l.24,6.71a28.15,28.15,0,0,0,.41,4.28Zm-.82-9.14c-3.42.05-7.32.83-7.2,4.3a2.82,2.82,0,0,0,3.06,3,4.38,4.38,0,0,0,4.14-3.16,3.77,3.77,0,0,0,.11-1Z" transform="translate(-6.77)"/><path d="M857.38,40.89l.52,14.81c.19,5.58,2.67,7.85,5.94,7.73,3.57-.13,5.81-2.67,5.62-8.16l-.52-14.81,3.15-.12.51,14.58c.27,7.69-3.54,11-8.79,11.17-4.95.18-8.79-2.59-9.07-10.36L854.23,41Z" transform="translate(-6.77)"/><path d="M877.81,52.05c-.07-1.88-.18-3.36-.32-4.84l2.8-.11.28,2.95h.09a6.42,6.42,0,0,1,5.63-3.57c2.39-.09,6.18,1.25,6.4,7.42l.37,10.7-3.14.11-.37-10.34c-.1-2.9-1.24-5.29-4.2-5.18a4.6,4.6,0,0,0-4.15,3.51,5.11,5.11,0,0,0-.16,1.52L881.42,65l-3.15.12Z" transform="translate(-6.77)"/><path d="M901,41.26a2,2,0,0,1-1.94,2.1,1.92,1.92,0,0,1-2-2,2,2,0,0,1,1.9-2.1A1.92,1.92,0,0,1,901,41.26Zm-2.72,23.13-.63-17.93,3.14-.12.63,17.94Z" transform="translate(-6.77)"/><path d="M916.3,63.72l-.36-2.26h-.09a6.45,6.45,0,0,1-5.23,2.87,5,5,0,0,1-5.5-5c-.15-4.34,3.5-6.87,10.22-7.07v-.38c-.05-1.46-.54-4.14-4.11-4a8.31,8.31,0,0,0-4.48,1.5l-.8-2.14a10.75,10.75,0,0,1,5.69-1.78c5.32-.2,6.75,3.5,6.87,7.09l.24,6.71a28.15,28.15,0,0,0,.41,4.28ZM907.41,43c-.15-2.42.78-3.9,2.32-4a4.63,4.63,0,0,1,2.26.74,3.61,3.61,0,0,0,1.54.58c.56,0,.89-.37.93-1.61l1.69-.07c.12,2.46-.64,3.78-2.33,3.84a4.53,4.53,0,0,1-2.23-.69,3.42,3.42,0,0,0-1.57-.6c-.56,0-.84.67-.88,1.71Zm8.07,11.59c-3.42.05-7.32.83-7.2,4.3a2.83,2.83,0,0,0,3.07,3,4.36,4.36,0,0,0,4.13-3.16,3.42,3.42,0,0,0,.11-1Z" transform="translate(-6.77)"/><path d="M939.42,53.7c.23,6.64-4.14,9.72-8.32,9.87-4.72.18-8.48-3.23-8.68-8.92-.21-6,3.49-9.66,8.3-9.84C935.72,44.63,939.23,48.24,939.42,53.7Zm-13.79.73c.14,3.93,2.43,6.81,5.52,6.7s5.2-3.12,5.05-7.2c-.1-3-1.72-6.81-5.48-6.67S925.51,51,925.63,54.43Z" transform="translate(-6.77)"/><path d="M1537.84,319.39a34.45,34.45,0,0,1,.17-6.23c.38-3.41,1.26-5.58,2.78-7a5.93,5.93,0,0,1,4.8-1.4,6.49,6.49,0,0,1,5.62,5.41h.09c.86-1.82,2.72-2.76,5.29-3.07a39,39,0,0,0,6.82-1.13l-.37,3.33a30.83,30.83,0,0,1-6,1c-3.38.35-4.81,1.54-5.23,4.44l-.34,3L1562,319l-.36,3.21Zm11.33-1.91.36-3.27c.38-3.44-1.19-5.83-4-6.16-3.13-.37-4.75,1.8-5.13,5.18a13.87,13.87,0,0,0-.08,3.21Z" transform="translate(-6.77)"/><path d="M1560.73,287c1.81.21,3.37.34,4.75.41l-.32,2.87-2.84-.16,0,.09a6.76,6.76,0,0,1,2.57,6.28c-.31,2.79-2.2,6-8.26,5.24l-10.11-1.19.36-3.23,9.55,1.13c3.3.39,5.66-.4,6-3.33a4.57,4.57,0,0,0-4-5.12l-10.59-1.25.36-3.23Z" transform="translate(-6.77)"/><path d="M1567.17,272.3l-2.22,0v.1a6.78,6.78,0,0,1,2,5.76c-.4,3.6-3.09,5.15-5.57,4.86-4.19-.5-6.06-4.6-5.25-11.48l-.37,0c-1.4-.17-4-.07-4.44,3.59a9.09,9.09,0,0,0,.77,4.79l-2.17.49a11.57,11.57,0,0,1-.86-6.06c.61-5.45,4.37-6.35,7.83-5.94l6.47.76a25.76,25.76,0,0,0,4.17.22Zm-8.89-.54c-.46,3.5-.3,7.59,3,8a2.8,2.8,0,0,0,3.34-2.67,4.52,4.52,0,0,0-2.41-4.69,3.37,3.37,0,0,0-1-.27Z" transform="translate(-6.77)"/><path d="M1545.24,238.2l20.93,2.48c1.54.18,3.27.32,4.48.38l-.33,2.88-3-.19v.09a6.65,6.65,0,0,1,2.72,6.45c-.48,4.32-4.4,7.23-9.64,6.61-5.79-.66-8.89-4.77-8.41-9.11a6,6,0,0,1,3.23-5.07v-.07l-10.33-1.23Zm14.77,5a6.85,6.85,0,0,0-1.36,0,4.76,4.76,0,0,0-4.14,4.27c-.37,3.36,2.26,5.7,6.06,6.15,3.51.42,6.63-1,7-4.54a5.12,5.12,0,0,0-4.58-5.5Z" transform="translate(-6.77)"/><path d="M1572.33,225.91l-2.21,0,0,.1a6.75,6.75,0,0,1,2,5.75c-.41,3.61-3.09,5.16-5.57,4.86-4.19-.49-6.07-4.59-5.26-11.47l-.36-.05c-1.41-.16-4.06-.06-4.44,3.59a8.93,8.93,0,0,0,.77,4.8L1555,234a11.73,11.73,0,0,1-.86-6.07c.61-5.45,4.37-6.35,7.84-5.94l6.47.77a27,27,0,0,0,4.17.22Zm-8.89-.54c-.46,3.5-.29,7.59,3,8a2.82,2.82,0,0,0,3.35-2.68,4.52,4.52,0,0,0-2.42-4.68,3.08,3.08,0,0,0-1-.27Z" transform="translate(-6.77)"/><path d="M1550.34,204.05l14.29,1.69c5.37.63,7.93-1.56,8.3-4.91.41-3.65-1.69-6.32-7-7l-14.29-1.69L1552,189l14.06,1.66c7.42.88,10,5.25,9.39,10.64-.56,5.07-3.8,8.57-11.29,7.68L1550,207.27Z" transform="translate(-6.77)"/><path d="M1564.11,184.89c-1.81-.21-3.25-.32-4.69-.4l.32-2.87,2.86.16v-.09a6.72,6.72,0,0,1-2.58-6.28c.27-2.45,2.13-6.11,8.07-5.41l10.32,1.22-.36,3.23-10-1.18c-2.8-.33-5.26.47-5.6,3.51a4.72,4.72,0,0,0,2.74,4.75,4.79,4.79,0,0,0,1.44.4l10.42,1.23-.36,3.23Z" transform="translate(-6.77)"/><path d="M1557.23,159.67A2,2,0,0,1,1559,162a1.89,1.89,0,0,1-2.17,1.72,2,2,0,0,1-1.73-2.25A1.91,1.91,0,0,1,1557.23,159.67Zm21.78,6.25-17.3-2,.36-3.23,17.3,2Z" transform="translate(-6.77)"/><path d="M1559.86,153.36c-2.34-.21-3.62-1.38-3.45-3a5,5,0,0,1,1-2.2,3.81,3.81,0,0,0,.78-1.48c.07-.58-.22-1-1.4-1.2l.19-1.72c2.37.24,3.52,1.21,3.33,2.94a4.82,4.82,0,0,1-1,2.17,3.57,3.57,0,0,0-.8,1.51c-.07.58.51,1,1.5,1.16Zm21.21-6-2.22,0v.09a6.78,6.78,0,0,1,2,5.76c-.4,3.6-3.08,5.15-5.56,4.86-4.19-.5-6.07-4.6-5.26-11.48l-.36,0c-1.41-.17-4.06-.07-4.44,3.59A8.88,8.88,0,0,0,1566,155l-2.18.49a11.68,11.68,0,0,1-.86-6.06c.61-5.45,4.37-6.35,7.84-5.94l6.47.76a25.76,25.76,0,0,0,4.17.22Zm-8.89-.54c-.46,3.5-.3,7.59,3,8a2.81,2.81,0,0,0,3.35-2.67,4.52,4.52,0,0,0-2.42-4.69,3.37,3.37,0,0,0-1-.27Z" transform="translate(-6.77)"/><path d="M1574.93,122.34c6.41.76,8.7,5.67,8.22,10-.54,4.83-4.37,8.16-9.86,7.51-5.79-.68-8.74-5-8.19-9.94C1565.67,124.75,1569.66,121.72,1574.93,122.34Zm-1.37,14.16c3.79.45,6.9-1.45,7.25-4.62s-2.21-5.76-6.14-6.23c-2.92-.34-6.79.74-7.22,4.59S1570.28,136.11,1573.56,136.5Z" transform="translate(-6.77)"/><path d="M449.23,567.39a34.22,34.22,0,0,1,2-5.9c1.35-3.13,2.82-4.93,4.68-5.79a6,6,0,0,1,5,.14,6.65,6.65,0,0,1,3.79,6.9l.08,0c1.35-1.47,3.4-1.79,5.94-1.29a38.94,38.94,0,0,0,6.84,1l-1.32,3.06a30.55,30.55,0,0,1-6-.93c-3.32-.71-5,0-6.28,2.62l-1.2,2.79,9.61,4.41-1.28,2.95Zm11.36,1.68,1.3-3c1.37-3.16.56-5.93-2-7.09-2.88-1.32-5.06.24-6.4,3.36a14.2,14.2,0,0,0-1,3Z" transform="translate(-6.77)"/><path d="M480.48,543.58c1.67.76,3.12,1.36,4.41,1.86l-1.14,2.64-2.67-1,0,.09a6.88,6.88,0,0,1,.62,6.79c-1.11,2.56-3.84,5-9.41,2.45L463,552.1l1.28-3,8.79,4c3,1.39,5.51,1.36,6.68-1.34a4.86,4.86,0,0,0-1-5.16,4.69,4.69,0,0,0-1.36-.95l-9.75-4.47,1.28-3Z" transform="translate(-6.77)"/><path d="M490.9,531.51l-2.12-.66,0,.09a6.86,6.86,0,0,1,.2,6.11c-1.43,3.31-4.44,4-6.72,2.92-3.86-1.77-4.45-6.26-1.68-12.58l-.33-.16c-1.3-.59-3.85-1.31-5.29,2.06a8.91,8.91,0,0,0-.65,4.81l-2.22-.2a11.64,11.64,0,0,1,.94-6c2.16-5,6-4.72,9.2-3.26l6,2.73a24.93,24.93,0,0,0,3.91,1.5Zm-8.33-3.26c-1.45,3.2-2.49,7.15.59,8.56a2.75,2.75,0,0,0,4-1.51,4.6,4.6,0,0,0-.94-5.22,3.12,3.12,0,0,0-.85-.56Z" transform="translate(-6.77)"/><path d="M475.3,507a29.74,29.74,0,0,1,1.85-5.61c1.27-3,2.58-4.64,4.31-5.54a5,5,0,0,1,4.75-.11,5.93,5.93,0,0,1,3.19,6.09l.09,0a6.12,6.12,0,0,1,7.6-2.17,6.52,6.52,0,0,1,3.57,4c.76,2.23.3,5.11-1.32,8.85a44.72,44.72,0,0,1-2.22,4.47Zm10.35,1.21,1.17-2.7c1.33-3.09.53-5.65-1.62-6.64-2.57-1.18-4.48.35-5.77,3.34a13.51,13.51,0,0,0-.93,2.72ZM496.26,513a15.23,15.23,0,0,0,1.22-2.42c1.32-3.07,1.45-6.39-1.78-7.87-3-1.38-5.44.73-6.83,3.95l-1.06,2.46Z" transform="translate(-6.77)"/><path d="M498.4,493.48c3.94,1.74,6.66-.08,8-3.08a12.55,12.55,0,0,0,1.15-4.92l2.28.42a15,15,0,0,1-1.35,5.94c-2.18,5-6.74,6.58-11.51,4.39s-7.33-6.87-5.26-11.66c2.31-5.35,7.47-4.66,10.39-3.32a7.92,7.92,0,0,1,1.32.73Zm1.69-9.69c-1.81-.86-5-1.37-6.46,2-1.31,3.05.8,5.57,2.71,6.73Z" transform="translate(-6.77)"/><path d="M489.09,470.86l1.28-3,23.36,10.71-1.28,3Z" transform="translate(-6.77)"/><path d="M519.82,464.47l-2.12-.66,0,.09a6.86,6.86,0,0,1,.21,6.11c-1.43,3.31-4.45,4-6.73,2.91-3.85-1.76-4.45-6.26-1.67-12.57l-.34-.16c-1.29-.59-3.85-1.31-5.28,2.05a9,9,0,0,0-.66,4.82l-2.22-.2a11.6,11.6,0,0,1,.95-6.06c2.16-5,6-4.71,9.2-3.25l6,2.73a27.54,27.54,0,0,0,3.91,1.5Zm-8.32-3.26c-1.46,3.2-2.49,7.15.58,8.56a2.77,2.77,0,0,0,4-1.51,4.6,4.6,0,0,0-.94-5.22,3.19,3.19,0,0,0-.85-.56Z" transform="translate(-6.77)"/><path d="M527.74,446.12l-25.41-2.68,1.39-3.21,12.46,1.46c3.42.39,6.48.79,9.33,1.35l0-.08c-2.29-1.81-4.68-4-7.12-6.38l-9.3-8.89,1.36-3.16,18.65,18.33Z" transform="translate(-6.77)"/><path d="M514.49,420.18a2,2,0,0,1,1,2.72,1.88,1.88,0,0,1-2.58,1,2,2,0,0,1-1-2.69A1.87,1.87,0,0,1,514.49,420.18Zm19,12.69-15.91-7.3,1.28-3,15.91,7.29Z" transform="translate(-6.77)"/><path d="M533.75,424a8.84,8.84,0,0,0,2.84-3.44c.94-2.18.34-3.66-1-4.27s-2.5-.11-4.23,1.71c-2.32,2.49-4.49,3.17-6.39,2.29-2.57-1.17-3.74-4.29-2.22-7.81a8.65,8.65,0,0,1,2.71-3.57l1.78,1.7a7.1,7.1,0,0,0-2.38,2.94c-.76,1.76-.19,3.17,1,3.72s2.32-.09,4.06-1.87c2.24-2.36,4.25-3.2,6.63-2.11,2.82,1.29,3.82,4.45,2.15,8.33a10.16,10.16,0,0,1-3.1,4.1Z" transform="translate(-6.77)"/><path d="M523.73,398.53l4.58,2.1,1.85-4.29,2.19,1-1.85,4.28,8.57,3.94c2,.91,3.36.83,4.08-.84a7.14,7.14,0,0,0,.54-1.82l2.25.87a8.34,8.34,0,0,1-.75,2.85,4.5,4.5,0,0,1-2.61,2.66c-1.24.42-2.78.11-4.65-.75l-8.69-4-1.1,2.54-2.19-1,1.1-2.54-3.84-1.76Z" transform="translate(-6.77)"/><path d="M551.44,391.19l-2.12-.66,0,.09a6.84,6.84,0,0,1,.2,6.1c-1.42,3.32-4.44,4-6.72,2.92-3.86-1.77-4.45-6.26-1.68-12.58l-.33-.15c-1.3-.59-3.85-1.32-5.29,2a9,9,0,0,0-.65,4.82l-2.22-.21a11.66,11.66,0,0,1,.94-6.05c2.16-5,6-4.71,9.2-3.25l6,2.73a27.54,27.54,0,0,0,3.91,1.5Zm-8.33-3.27c-1.45,3.2-2.49,7.16.59,8.57a2.76,2.76,0,0,0,4-1.52,4.6,4.6,0,0,0-.94-5.22,3.37,3.37,0,0,0-.85-.56Z" transform="translate(-6.77)"/><path d="M711.55,301.75a31.94,31.94,0,0,1,6,.59c3.27.62,5.31,1.67,6.53,3.34a6.34,6.34,0,0,1,1,5,6.57,6.57,0,0,1-5.68,5.41v.09c1.69,1,2.45,3,2.55,5.64a43.17,43.17,0,0,0,.55,7.1l-3.19-.61a34,34,0,0,1-.45-6.18c-.07-3.5-1.11-5-3.88-5.67l-2.92-.55-2,10.65L707,326Zm1,11.77,3.15.6c3.29.62,5.73-.83,6.26-3.65.61-3.19-1.36-5-4.61-5.62a13.46,13.46,0,0,0-3.1-.3Z" transform="translate(-6.77)"/><path d="M741,327.67c-.38,1.84-.64,3.43-.84,4.84l-2.74-.56.42-2.91h-.09a6.49,6.49,0,0,1-6.31,2.12c-2.67-.54-5.56-2.74-4.31-8.9l2.1-10.28,3.09.63-2,9.71c-.68,3.35-.13,5.84,2.67,6.41a4.61,4.61,0,0,0,4.7-2.1,4.92,4.92,0,0,0,.62-1.58l2.2-10.77,3.08.63Z" transform="translate(-6.77)"/><path d="M754.48,335.76l.23-2.27-.09,0a6.44,6.44,0,0,1-5.79,1.43,5,5,0,0,1-4-6.21c1-4.24,5.13-5.74,11.68-4.2l.09-.37c.32-1.42.53-4.14-2.95-4.92a8.35,8.35,0,0,0-4.72.3l-.22-2.27a10.62,10.62,0,0,1,6-.26c5.19,1.18,5.63,5.12,4.83,8.63L758,332.15a28.39,28.39,0,0,0-.69,4.24Zm1.55-9.05c-3.32-.83-7.29-1.08-8.06,2.31a2.83,2.83,0,0,0,2.19,3.7,4.37,4.37,0,0,0,4.81-2,3.77,3.77,0,0,0,.37-1Z" transform="translate(-6.77)"/><path d="M769.92,335.33a10.62,10.62,0,0,0,5.06,2.89c3.11.76,5.35-.47,5.95-2.94.55-2.25-.41-3.89-3.29-5.89-3.51-2.34-5.39-5-4.56-8.41.92-3.78,4.65-5.85,9.24-4.74a10.83,10.83,0,0,1,4.92,2.44l-1.48,2.37a8.92,8.92,0,0,0-4.17-2.24c-3.24-.78-4.94.9-5.34,2.56-.55,2.25.61,3.72,3.55,5.8,3.61,2.59,5.14,5.06,4.28,8.62-.91,3.73-4.37,6.37-10,5a12.06,12.06,0,0,1-5.64-3.05Z" transform="translate(-6.77)"/><path d="M795.94,345.83l.29-2.27-.09,0a6.43,6.43,0,0,1-5.82,1.28,5,5,0,0,1-3.89-6.3c1.07-4.21,5.28-5.61,11.79-3.91l.09-.37c.36-1.41.64-4.13-2.82-5a8.32,8.32,0,0,0-4.73.18l-.16-2.28a10.72,10.72,0,0,1,5.95-.11c5.16,1.31,5.5,5.26,4.61,8.75l-1.65,6.51a30.69,30.69,0,0,0-.8,4.23Zm1.78-9c-3.3-.92-7.26-1.26-8.11,2.1a2.83,2.83,0,0,0,2.09,3.76,4.38,4.38,0,0,0,4.85-1.87,3.12,3.12,0,0,0,.4-1Zm-4.51-13.4c.53-2.37,1.84-3.53,3.33-3.15a4.57,4.57,0,0,1,2,1.35,3.68,3.68,0,0,0,1.31,1c.55.14,1-.1,1.35-1.28l1.63.41c-.56,2.4-1.66,3.45-3.3,3a4.57,4.57,0,0,1-2-1.29c-.59-.58-.91-.91-1.34-1s-1,.41-1.32,1.39Z" transform="translate(-6.77)"/><path d="M820.9,343c-1.72,6.43-6.8,8.08-10.84,7-4.56-1.22-7.17-5.59-5.69-11.1,1.55-5.8,6.16-8.21,10.81-7C820,333.18,822.31,337.67,820.9,343Zm-13.39-3.36c-1,3.8.33,7.23,3.31,8s5.88-1.46,6.93-5.39c.79-2.94.35-7-3.29-8S808.39,336.3,807.51,339.59Z" transform="translate(-6.77)"/><path d="M836.83,331l12.52,3.74-.77,2.58-9.5-2.84-2.39,8,8.78,2.63-.77,2.56L835.93,345l-3.25,10.85-3-.91Z" transform="translate(-6.77)"/><path d="M849.14,348c.66-2,1.18-3.75,1.61-5.36l2.64.87-1,3.38.11,0a5.31,5.31,0,0,1,5.84-2.21,3.09,3.09,0,0,1,.8.36l-1,2.92a4.38,4.38,0,0,0-1-.43c-2.12-.7-4.16.45-5.34,2.64a8.54,8.54,0,0,0-.59,1.4l-3,9.11-3-1Z" transform="translate(-6.77)"/><path d="M865,366.75l.54-2.22-.09,0a6.43,6.43,0,0,1-5.93.62,5,5,0,0,1-3.14-6.71c1.54-4.06,5.88-5,12.15-2.54l.14-.35c.52-1.37,1.1-4-2.24-5.28a8.27,8.27,0,0,0-4.72-.36l.1-2.28a10.72,10.72,0,0,1,5.93.56c5,1.89,4.86,5.86,3.59,9.22L869,363.65a28.65,28.65,0,0,0-1.27,4.11Zm2.79-8.75c-3.18-1.28-7.07-2.08-8.3,1.16a2.83,2.83,0,0,0,1.65,4,4.36,4.36,0,0,0,5-1.3,3.48,3.48,0,0,0,.51-.91Z" transform="translate(-6.77)"/><path d="M876.76,357.14c.65-1.75,1.11-3.17,1.55-4.59l2.62,1-.86,2.83.08,0a6.39,6.39,0,0,1,6.57-1.14c2.24.83,5.24,3.52,3.09,9.3l-3.72,10-3-1.1,3.6-9.7c1-2.72.86-5.37-1.92-6.4a4.57,4.57,0,0,0-5.16,1.66,5.13,5.13,0,0,0-.73,1.34l-3.76,10.14-3-1.1Z" transform="translate(-6.77)"/><path d="M902.65,380.22a11.46,11.46,0,0,1-5-.83c-4.9-1.9-6.78-6.57-4.79-11.69s6.86-7.6,12.17-5.55a10,10,0,0,1,3.76,2.49l-1.56,2.08a7.52,7.52,0,0,0-3.14-2.14c-3.71-1.44-6.84.64-8.18,4.12-1.5,3.88,0,7.2,3.23,8.45a9,9,0,0,0,3.92.6Z" transform="translate(-6.77)"/><path d="M905.69,382.21l6.95-16.55,2.9,1.22-6.95,16.55Zm12.17-19.86a2,2,0,1,1-3.61-1.52,2,2,0,0,1,2.6-1.11A1.92,1.92,0,0,1,917.86,362.35Z" transform="translate(-6.77)"/><path d="M914.2,382.18a8.33,8.33,0,0,0,3.24,3c2.08,1,3.56.4,4.2-1s.2-2.55-1.51-4.36c-2.33-2.41-2.92-4.64-2-6.58,1.25-2.61,4.33-3.77,7.71-2.16a8.16,8.16,0,0,1,3.37,2.83l-1.73,1.8a6.69,6.69,0,0,0-2.77-2.49c-1.69-.8-3.08-.24-3.66,1s0,2.38,1.66,4.18c2.22,2.33,2.95,4.41,1.81,6.84-1.37,2.87-4.49,3.85-8.2,2.08a9.58,9.58,0,0,1-3.88-3.24Z" transform="translate(-6.77)"/><path d="M938.94,396.08a11.53,11.53,0,0,1-5-.92c-4.86-2-6.66-6.68-4.6-11.76s7-7.5,12.27-5.35a9.93,9.93,0,0,1,3.72,2.54l-1.6,2.06a7.54,7.54,0,0,0-3.1-2.2c-3.68-1.49-6.86.53-8.25,4-1.57,3.86-.13,7.2,3.09,8.51a9,9,0,0,0,3.92.66Z" transform="translate(-6.77)"/><path d="M959.61,396.85c-3,5.93-8.29,6.51-12,4.62-4.22-2.12-5.87-6.93-3.3-12,2.7-5.36,7.7-6.77,12-4.6C960.75,387.11,962.08,392,959.61,396.85Zm-12.41-6c-1.78,3.52-1.16,7.15,1.6,8.54s6.05-.22,7.89-3.86c1.37-2.71,1.77-6.8-1.59-8.5S948.73,387.78,947.2,390.81Z" transform="translate(-6.77)"/><path d="M1300,393.44a32.12,32.12,0,0,1,6-.54c3.32,0,5.51.65,7,2.06a6.36,6.36,0,0,1,1.9,4.75,6.58,6.58,0,0,1-4.57,6.37v.09c1.85.67,3,2.48,3.55,5.07a43.16,43.16,0,0,0,1.87,6.86h-3.25a33.58,33.58,0,0,1-1.59-6c-.72-3.43-2-4.76-4.87-4.85h-3V418.1H1300Zm3.13,11.38h3.2c3.36,0,5.48-1.88,5.48-4.75,0-3.25-2.27-4.66-5.58-4.66a13.4,13.4,0,0,0-3.1.28Z" transform="translate(-6.77)"/><path d="M1333.81,413.19c0,1.88.06,3.49.14,4.91h-2.8l-.17-2.93h-.08a6.51,6.51,0,0,1-5.77,3.34c-2.72,0-6-1.57-6-7.86V400.16h3.15v9.91c0,3.42,1,5.75,3.89,5.75a4.62,4.62,0,0,0,4.19-3,5.24,5.24,0,0,0,.29-1.67v-11h3.15Z" transform="translate(-6.77)"/><path d="M1348.74,418.1l-.28-2.26h-.1a6.4,6.4,0,0,1-5.32,2.67,5,5,0,0,1-5.32-5.15c0-4.34,3.74-6.73,10.46-6.68v-.38c0-1.46-.4-4.16-4-4.14a8.31,8.31,0,0,0-4.54,1.33l-.72-2.17a10.71,10.71,0,0,1,5.75-1.57c5.32,0,6.62,3.75,6.62,7.35v6.71a29.59,29.59,0,0,0,.26,4.29Zm-.49-9.16c-3.43-.08-7.35.56-7.35,4a2.83,2.83,0,0,0,2.95,3.13,4.36,4.36,0,0,0,4.24-3,3.54,3.54,0,0,0,.16-1Z" transform="translate(-6.77)"/><path d="M1363.76,414.17a10.68,10.68,0,0,0,5.59,1.62c3.21,0,5.09-1.73,5.09-4.26,0-2.32-1.31-3.69-4.59-4.95-4-1.45-6.41-3.6-6.41-7.09,0-3.9,3.14-6.79,7.86-6.79a10.86,10.86,0,0,1,5.36,1.21l-.88,2.65a9,9,0,0,0-4.58-1.19c-3.33,0-4.59,2-4.59,3.74,0,2.32,1.47,3.47,4.82,4.8,4.12,1.67,6.19,3.7,6.19,7.37,0,3.84-2.74,7.21-8.49,7.21a12.19,12.19,0,0,1-6.2-1.63Z" transform="translate(-6.77)"/><path d="M1391.58,418.1l-.28-2.26h-.1a6.4,6.4,0,0,1-5.32,2.67,5,5,0,0,1-5.32-5.15c0-4.34,3.74-6.73,10.46-6.68v-.38c0-1.46-.4-4.16-4-4.14a8.29,8.29,0,0,0-4.54,1.33l-.72-2.17a10.71,10.71,0,0,1,5.75-1.57c5.32,0,6.62,3.75,6.62,7.35v6.71a29.59,29.59,0,0,0,.26,4.29Zm-8.16-21c-.07-2.42.91-3.87,2.45-3.87a4.67,4.67,0,0,1,2.24.82,3.58,3.58,0,0,0,1.52.64c.56,0,.91-.34,1-1.58h1.68c0,2.46-.76,3.75-2.45,3.75a4.54,4.54,0,0,1-2.21-.78,3.42,3.42,0,0,0-1.55-.65c-.56,0-.87.64-.94,1.67Zm7.66,11.88c-3.42-.08-7.34.56-7.34,4a2.83,2.83,0,0,0,3,3.13,4.36,4.36,0,0,0,4.24-3,3.52,3.52,0,0,0,.15-1Z" transform="translate(-6.77)"/><path d="M1415,409c0,6.64-4.47,9.55-8.65,9.55-4.73,0-8.37-3.55-8.37-9.24,0-6,3.83-9.52,8.64-9.52C1411.66,399.75,1415,403.49,1415,409Zm-13.8.21c0,3.93,2.19,6.9,5.28,6.9s5.3-2.93,5.3-7c0-3-1.48-6.88-5.25-6.88S1401.23,405.76,1401.23,409.17Z" transform="translate(-6.77)"/><path d="M1426.76,393.09h13.07v2.69h-9.92v8.33h9.17v2.67h-9.17V418.1h-3.15Z" transform="translate(-6.77)"/><path d="M1443.26,405.75c0-2.12,0-3.93-.14-5.59h2.77l.12,3.52h.12a5.31,5.31,0,0,1,4.84-3.93,3.45,3.45,0,0,1,.88.09v3.07a4.86,4.86,0,0,0-1.07-.09c-2.23,0-3.81,1.73-4.24,4.17a9.09,9.09,0,0,0-.13,1.53v9.58h-3.15Z" transform="translate(-6.77)"/><path d="M1464.51,418.1l-.28-2.26h-.09a6.42,6.42,0,0,1-5.33,2.67,5,5,0,0,1-5.31-5.15c0-4.34,3.73-6.73,10.46-6.68v-.38c0-1.46-.4-4.16-4-4.14a8.26,8.26,0,0,0-4.53,1.33l-.72-2.17a10.69,10.69,0,0,1,5.75-1.57c5.32,0,6.62,3.75,6.62,7.35v6.71a28.24,28.24,0,0,0,.26,4.29Zm-.49-9.16c-3.43-.08-7.35.56-7.35,4a2.84,2.84,0,0,0,3,3.13,4.36,4.36,0,0,0,4.24-3,3.52,3.52,0,0,0,.15-1Z" transform="translate(-6.77)"/><path d="M1472.21,405c0-1.87-.06-3.35-.14-4.84h2.8l.17,2.95h.09a6.38,6.38,0,0,1,5.75-3.36c2.4,0,6.14,1.48,6.14,7.65v10.7h-3.15V407.76c0-2.9-1.06-5.33-4-5.33a4.58,4.58,0,0,0-4.27,3.35,5.17,5.17,0,0,0-.22,1.51V418.1h-3.15Z" transform="translate(-6.77)"/><path d="M1504.6,417.45a11.68,11.68,0,0,1-5,1c-5.25,0-8.69-3.68-8.69-9.17s3.66-9.56,9.36-9.56a10,10,0,0,1,4.4.95l-.71,2.51a7.45,7.45,0,0,0-3.7-.86c-4,0-6.15,3.06-6.14,6.79,0,4.16,2.59,6.72,6.06,6.72a9,9,0,0,0,3.88-.87Z" transform="translate(-6.77)"/><path d="M1511.86,395.08a2,2,0,1,1-2-2A1.94,1.94,0,0,1,1511.86,395.08Zm-3.54,23V400.16h3.15V418.1Z" transform="translate(-6.77)"/><path d="M1516.29,414.78a8.44,8.44,0,0,0,4.2,1.28c2.31,0,3.38-1.17,3.38-2.67s-.92-2.4-3.23-3.29c-3.15-1.17-4.64-2.94-4.63-5.09,0-2.89,2.28-5.26,6-5.26a8.22,8.22,0,0,1,4.26,1.1l-.79,2.38a6.62,6.62,0,0,0-3.57-1.06c-1.87,0-2.88,1.11-2.88,2.46s1,2.15,3.3,3.06c3,1.16,4.56,2.72,4.57,5.4,0,3.18-2.4,5.4-6.51,5.4a9.68,9.68,0,0,1-4.89-1.25Z" transform="translate(-6.77)"/><path d="M1543.41,417.45a11.68,11.68,0,0,1-5,1c-5.25,0-8.69-3.68-8.69-9.17s3.66-9.56,9.35-9.56a9.92,9.92,0,0,1,4.4.95l-.7,2.51a7.48,7.48,0,0,0-3.7-.86c-4,0-6.15,3.06-6.14,6.79,0,4.16,2.59,6.72,6.06,6.72a9,9,0,0,0,3.88-.87Z" transform="translate(-6.77)"/><path d="M1562.67,409c0,6.64-4.47,9.55-8.66,9.55-4.72,0-8.37-3.55-8.37-9.24,0-6,3.83-9.52,8.65-9.52C1559.29,399.75,1562.67,403.49,1562.67,409Zm-13.8.21c0,3.93,2.18,6.9,5.27,6.9s5.31-2.93,5.31-7c0-3-1.49-6.88-5.25-6.88S1548.87,405.76,1548.87,409.17Z" transform="translate(-6.77)"/><path d="M6.77,513.37A34.63,34.63,0,0,1,9,507.58c1.5-3.06,3.05-4.79,5-5.55a5.92,5.92,0,0,1,5,.39,6.68,6.68,0,0,1,3.46,7.08l.08,0c1.41-1.4,3.48-1.62,6-1a40.65,40.65,0,0,0,6.78,1.37l-1.46,3a30.94,30.94,0,0,1-5.91-1.23c-3.29-.88-5-.27-6.39,2.3l-1.33,2.73,9.38,4.88-1.41,2.89ZM18,515.61l1.44-3c1.51-3.08.83-5.89-1.65-7.18-2.81-1.46-5.06,0-6.55,3a14.9,14.9,0,0,0-1.15,3Z" transform="translate(-6.77)"/><path d="M39.09,491.15c1.63.85,3.06,1.52,4.32,2.08l-1.26,2.57-2.61-1.16,0,.08a6.89,6.89,0,0,1,.3,6.81c-1.23,2.51-4.07,4.81-9.52,2l-9.08-4.72,1.42-2.9,8.59,4.46c3,1.54,5.44,1.63,6.73-1a4.88,4.88,0,0,0-.71-5.2,5.19,5.19,0,0,0-1.32-1l-9.52-4.95,1.41-2.9Z" transform="translate(-6.77)"/><path d="M50.07,479.61,48,478.85l0,.09a6.88,6.88,0,0,1-.08,6.11c-1.59,3.23-4.63,3.73-6.86,2.57-3.76-1.95-4.15-6.47-1.08-12.64l-.33-.17c-1.26-.66-3.78-1.51-5.37,1.79a8.91,8.91,0,0,0-.88,4.77l-2.21-.31a11.6,11.6,0,0,1,1.23-6c2.39-4.9,6.23-4.41,9.34-2.79l5.82,3A26,26,0,0,0,51.35,477Zm-8.16-3.67c-1.61,3.12-2.82,7,.18,8.58a2.75,2.75,0,0,0,4-1.31,4.62,4.62,0,0,0-.69-5.26,3.22,3.22,0,0,0-.83-.6Z" transform="translate(-6.77)"/><path d="M35.35,454.16l5.88-12,2.33,1.21-4.46,9.13,7.21,3.75,4.13-8.44,2.31,1.2-4.13,8.44,9.81,5.1L57,465.42Z" transform="translate(-6.77)"/><path d="M53.73,444.67c-1.83-1-3.42-1.72-4.9-2.39l1.25-2.55,3.1,1.47,0-.1A5.59,5.59,0,0,1,52,434.86a4,4,0,0,1,.48-.76l2.66,1.38a5.06,5.06,0,0,0-.57.95c-1,2.05-.21,4.28,1.71,5.78a8.51,8.51,0,0,0,1.26.8l8.31,4.32-1.42,2.9Z" transform="translate(-6.77)"/><path d="M74,430.66l-2.08-.76,0,.09a6.83,6.83,0,0,1-.08,6.1c-1.58,3.24-4.62,3.74-6.85,2.58-3.77-1.95-4.15-6.47-1.08-12.64l-.33-.17c-1.27-.66-3.78-1.51-5.37,1.78a9.07,9.07,0,0,0-.89,4.78l-2.2-.31a11.58,11.58,0,0,1,1.22-6c2.4-4.9,6.23-4.41,9.35-2.79l5.81,3A26.12,26.12,0,0,0,75.29,428ZM65.85,427c-1.61,3.12-2.83,7,.18,8.58a2.75,2.75,0,0,0,4-1.31,4.6,4.6,0,0,0-.7-5.26,3.18,3.18,0,0,0-.82-.6Z" transform="translate(-6.77)"/><path d="M66.12,417.68c-1.62-.84-2.93-1.46-4.26-2.05l1.26-2.58,2.63,1.17,0-.08a6.79,6.79,0,0,1-.31-6.81c1.07-2.2,4-5,9.38-2.21l9.28,4.82-1.42,2.9-9-4.66c-2.52-1.3-5.1-1.42-6.43,1.31a4.78,4.78,0,0,0,1,5.43,4.63,4.63,0,0,0,1.21.89l9.37,4.87-1.42,2.9Z" transform="translate(-6.77)"/><path d="M91.49,393.46a12.6,12.6,0,0,1-1.35,5.07c-2.36,4.83-7.1,6.34-11.85,3.87s-6.64-7.68-4.08-12.92A10.4,10.4,0,0,1,77,385.86l1.85,1.77a8,8,0,0,0-2.41,3c-1.79,3.66-.11,7.05,3.12,8.72,3.6,1.87,7,.63,8.55-2.56a9.81,9.81,0,0,0,1-4Z" transform="translate(-6.77)"/><path d="M75.38,376.71a2,2,0,0,1,.85,2.77,1.86,1.86,0,0,1-2.62.85,2,2,0,0,1-.87-2.73A1.87,1.87,0,0,1,75.38,376.71Zm18.34,13.62-15.54-8.07,1.42-2.9,15.54,8.07Z" transform="translate(-6.77)"/><path d="M94.43,381.5a8.81,8.81,0,0,0,3-3.29c1-2.13.51-3.64-.79-4.32s-2.49-.23-4.3,1.5c-2.44,2.37-4.63,2.94-6.49,2-2.51-1.3-3.54-4.47-1.85-7.92A8.62,8.62,0,0,1,86.88,366l1.7,1.8a7,7,0,0,0-2.53,2.81c-.84,1.72-.33,3.16.84,3.77s2.32,0,4.14-1.67c2.35-2.25,4.4-3,6.73-1.78,2.75,1.43,3.6,4.64,1.75,8.43a10.13,10.13,0,0,1-3.29,3.94Z" transform="translate(-6.77)"/><path d="M109,357.73a12.77,12.77,0,0,1-1.35,5.07c-2.36,4.83-7.1,6.34-11.85,3.87s-6.64-7.68-4.08-12.92a10.4,10.4,0,0,1,2.81-3.62l1.85,1.78a7.75,7.75,0,0,0-2.41,3c-1.79,3.65-.11,7,3.12,8.71,3.6,1.87,7,.64,8.55-2.56a9.74,9.74,0,0,0,1-4Z" transform="translate(-6.77)"/><path d="M110.27,336.18c5.76,3,6.26,8.42,4.38,12.27-2.13,4.35-6.85,6.11-11.78,3.55-5.2-2.71-6.52-7.82-4.35-12.25C100.77,335.14,105.53,333.72,110.27,336.18Zm-6,12.8c3.41,1.78,7,1.1,8.36-1.75s-.15-6.2-3.68-8c-2.63-1.37-6.62-1.73-8.31,1.73S101.29,347.45,104.23,349Z" transform="translate(-6.77)"/><path d="M107.37,303.89l18.81,9.78c1.38.71,3,1.47,4.08,1.95L129,318.21,126.23,317l0,.08a6.75,6.75,0,0,1,.38,7c-1.9,3.88-6.54,5.22-11.26,2.77-5.21-2.67-6.74-7.64-4.83-11.54a5.81,5.81,0,0,1,4.72-3.61l0-.07L106,306.79Zm12.18,10a6,6,0,0,0-1.26-.51,4.64,4.64,0,0,0-5.32,2.53c-1.48,3,.21,6.16,3.62,7.94,3.16,1.64,6.58,1.38,8.11-1.77a5.23,5.23,0,0,0-2.45-6.79Z" transform="translate(-6.77)"/><path d="M126.1,305.49c3.85,1.93,6.65.24,8.08-2.68a12.51,12.51,0,0,0,1.38-4.86l2.25.54a14.63,14.63,0,0,1-1.62,5.86c-2.41,4.92-7,6.23-11.7,3.81s-7-7.22-4.7-11.9c2.55-5.23,7.67-4.29,10.53-2.8a7.38,7.38,0,0,1,1.28.79Zm2.14-9.59c-1.77-1-4.94-1.63-6.54,1.64-1.46,3,.53,5.6,2.39,6.86Z" transform="translate(-6.77)"/><path d="M140.57,285.78a11.1,11.1,0,0,0,3.92-4.43c1.45-3,.8-5.46-1.39-6.6-2-1-3.79-.45-6.36,2-3,3-6,4.29-9,2.71-3.37-1.75-4.46-5.94-2.33-10.29a11.48,11.48,0,0,1,3.45-4.39l1.9,2a9.53,9.53,0,0,0-3.09,3.68c-1.5,3.07-.3,5.15,1.17,5.91,2,1.05,3.67.21,6.34-2.28,3.29-3,6-4,9.16-2.38,3.33,1.73,5,5.77,2.43,11.07a12.7,12.7,0,0,1-4.21,5Z" transform="translate(-6.77)"/><path d="M151.38,252.1c5.76,3,6.26,8.42,4.38,12.27-2.13,4.35-6.84,6.11-11.78,3.55-5.2-2.71-6.52-7.82-4.35-12.25C141.88,251.06,146.65,249.64,151.38,252.1Zm-6,12.8c3.41,1.78,7,1.09,8.35-1.75s-.15-6.2-3.67-8c-2.63-1.36-6.63-1.72-8.32,1.74S142.4,263.37,145.35,264.9Z" transform="translate(-6.77)"/><path d="M163.4,236.91c1.63.85,3,1.52,4.32,2.08l-1.26,2.58-2.61-1.17,0,.08a6.93,6.93,0,0,1,.3,6.82c-1.23,2.5-4.07,4.81-9.52,2l-9.08-4.73,1.42-2.9,8.59,4.47c3,1.54,5.44,1.63,6.73-1a4.9,4.9,0,0,0-.71-5.21,5.17,5.17,0,0,0-1.32-1l-9.52-5,1.41-2.9Z" transform="translate(-6.77)"/><path d="M151.72,220.36l4.48,2.33,2.05-4.19,2.14,1.12-2,4.18,8.38,4.36c1.93,1,3.31,1,4.11-.63a6.49,6.49,0,0,0,.62-1.8l2.21,1a8.58,8.58,0,0,1-.88,2.8,4.51,4.51,0,0,1-2.74,2.53c-1.25.35-2.78,0-4.61-1l-8.49-4.41-1.21,2.48L153.59,228l1.21-2.48-3.74-2Z" transform="translate(-6.77)"/><path d="M174.47,204.87c5.76,3,6.26,8.42,4.38,12.27-2.13,4.35-6.84,6.11-11.78,3.55-5.2-2.71-6.52-7.81-4.35-12.25C165,203.83,169.74,202.41,174.47,204.87Zm-6,12.81c3.41,1.77,7,1.09,8.35-1.76s-.14-6.2-3.67-8c-2.63-1.37-6.62-1.73-8.32,1.73S165.49,216.14,168.44,217.68Z" transform="translate(-6.77)"/><path d="M172.85,199.41c-1.62-.85-2.94-1.46-4.26-2l1.24-2.54L172.4,196l0-.08a6.36,6.36,0,0,1-.38-6.55,5.1,5.1,0,0,1,5.33-2.9l0-.06a7.42,7.42,0,0,1-1.14-2.86,6.31,6.31,0,0,1,.63-4.1c1.05-2.14,3.93-4.59,9.33-1.78l9.16,4.75L194,185.24l-8.8-4.57c-3-1.56-5.35-1.35-6.49,1a4.34,4.34,0,0,0,.85,4.79,5.25,5.25,0,0,0,1.3,1l9.62,5-1.39,2.84-9.33-4.85c-2.47-1.28-4.81-1.08-5.88,1.12a4.6,4.6,0,0,0,1,5.1,5.26,5.26,0,0,0,1.29,1l9.37,4.87-1.39,2.84Z" transform="translate(-6.77)"/><path d="M202.06,168.77,200,168l0,.09a6.85,6.85,0,0,1-.09,6.11c-1.58,3.23-4.62,3.73-6.85,2.57-3.77-1.95-4.15-6.47-1.08-12.64l-.33-.17c-1.26-.66-3.78-1.51-5.37,1.78a9,9,0,0,0-.88,4.78l-2.21-.31a11.6,11.6,0,0,1,1.23-6c2.39-4.9,6.22-4.41,9.34-2.79l5.81,3a26.59,26.59,0,0,0,3.84,1.69Zm-8.16-3.67c-1.61,3.12-2.83,7,.18,8.58a2.75,2.75,0,0,0,4-1.31,4.6,4.6,0,0,0-.7-5.26,3.18,3.18,0,0,0-.82-.6Z" transform="translate(-6.77)"/><path d="M187.18,148.07a2,2,0,0,1,.85,2.76,1.86,1.86,0,0,1-2.62.85,2,2,0,0,1-.87-2.73A1.87,1.87,0,0,1,187.18,148.07Zm18.34,13.62L190,153.61l1.42-2.9,15.54,8.08Z" transform="translate(-6.77)"/><path d="M208.49,135.31c5.75,3,6.26,8.41,4.37,12.27-2.12,4.35-6.84,6.11-11.77,3.54-5.2-2.7-6.52-7.81-4.35-12.24C199,134.27,203.75,132.84,208.49,135.31Zm-6,12.8c3.41,1.77,7,1.09,8.36-1.75s-.15-6.2-3.68-8c-2.63-1.36-6.62-1.73-8.31,1.74S199.5,146.58,202.45,148.11Z" transform="translate(-6.77)"/><path d="M207.5,130.18c-1.83-1-3.42-1.72-4.9-2.38l1.25-2.56,3.1,1.47.05-.1a5.57,5.57,0,0,1-1.22-6.23,3.76,3.76,0,0,1,.48-.77l2.66,1.38a5.41,5.41,0,0,0-.57,1c-1,2.06-.21,4.29,1.71,5.78a8.53,8.53,0,0,0,1.26.81l8.31,4.31-1.42,2.9Z" transform="translate(-6.77)"/><path d="M1701.53,751.39a32.81,32.81,0,0,1,.8-6c.73-3.25,1.84-5.24,3.55-6.41a6.36,6.36,0,0,1,5.06-.83,6.57,6.57,0,0,1,5.21,5.85l.09,0c1.06-1.66,3.06-2.36,5.72-2.37a42.86,42.86,0,0,0,7.11-.33l-.71,3.17a33.47,33.47,0,0,1-6.19.26c-3.5,0-5.09,1-5.81,3.7l-.65,2.89,10.58,2.36-.69,3Zm11.8-.58.7-3.13c.74-3.27-.64-5.75-3.43-6.37-3.17-.71-5,1.2-5.78,4.43a13.49,13.49,0,0,0-.4,3.09Z" transform="translate(-6.77)"/><path d="M1728.18,722.71c1.84.4,3.42.69,4.83.92l-.61,2.73-2.9-.47,0,.09a6.46,6.46,0,0,1,2,6.34c-.59,2.66-2.84,5.52-9,4.16l-10.24-2.25.69-3.08,9.67,2.14c3.34.73,5.84.22,6.46-2.57a4.6,4.6,0,0,0-2-4.73,5.17,5.17,0,0,0-1.58-.64L1714.77,723l.69-3.08Z" transform="translate(-6.77)"/><path d="M1736.19,709.18l-2.27-.21,0,.09a6.41,6.41,0,0,1,1.46,5.78,5.06,5.06,0,0,1-6.17,4.1c-4.25-.93-5.78-5.09-4.28-11.65l-.37-.08c-1.43-.31-4.15-.5-4.9,3a8.26,8.26,0,0,0,.33,4.72l-2.27.24a10.68,10.68,0,0,1-.31-5.95c1.15-5.2,5.09-5.67,8.6-4.91l6.56,1.43a28.38,28.38,0,0,0,4.25.66Zm-9.06-1.47c-.81,3.33-1,7.3,2.36,8a2.84,2.84,0,0,0,3.69-2.22,4.36,4.36,0,0,0-2-4.79,3.19,3.19,0,0,0-1-.36Z" transform="translate(-6.77)"/><path d="M1732.62,688.63l7.16,4.09-.68,3.18-22.72-13.28.79-3.69,26.2-2.9-.71,3.28-8.23.9Zm-.79-8.32-7.54.85c-1.71.17-3.25.22-4.73.27v.09c1.35.64,2.77,1.33,4.16,2.11l6.58,3.85Z" transform="translate(-6.77)"/><path d="M1726.57,668.69l11.16-1.57c1.25-.16,2.71-.29,3.82-.36l0-.08c-1-.52-2.24-1.18-3.43-1.85l-9.61-5.51.69-3.29,11.54,7.26c5.58,3.46,8.33,5.62,9.8,8.12a8.67,8.67,0,0,1,1.25,4.23l-2.83.22a8.29,8.29,0,0,0-1-3,10.37,10.37,0,0,0-3-3.33,1.9,1.9,0,0,0-.72-.4,2.19,2.19,0,0,0-.86,0l-17.53,2.94Z" transform="translate(-6.77)"/><path d="M1735.23,654.47c-2.08-.41-3.86-.72-5.51-1l.55-2.72,3.48.57,0-.11a5.3,5.3,0,0,1-2.89-5.53,3.06,3.06,0,0,1,.26-.84l3,.6a5.18,5.18,0,0,0-.31,1c-.44,2.18,1,4.07,3.26,5a8.47,8.47,0,0,0,1.47.42l9.4,1.88-.62,3.09Z" transform="translate(-6.77)"/><path d="M1727.78,636.57l5.08.94.83-4.48,2.43.45-.83,4.48,9.51,1.75c2.2.4,3.56,0,3.88-1.73a5.92,5.92,0,0,0,.1-1.85l2.47.31a7.82,7.82,0,0,1-.08,2.86,4.35,4.35,0,0,1-2,3.12c-1.14.68-2.76.74-4.83.36l-9.64-1.77-.49,2.65-2.43-.45.49-2.65-4.25-.78Z" transform="translate(-6.77)"/><path d="M1745,615.45c6.58.92,8.83,5.76,8.24,9.9-.67,4.68-4.7,7.8-10.34,7-5.94-.84-8.88-5.13-8.2-9.9C1735.44,617.51,1739.62,614.68,1745,615.45Zm-1.74,13.7c3.9.55,7.14-1.21,7.58-4.27s-2.15-5.66-6.18-6.23c-3-.42-7,.51-7.55,4.24S1739.92,628.67,1743.29,629.15Z" transform="translate(-6.77)"/><path d="M1741.92,611c-1.85-.28-3.33-.45-4.82-.59l.43-2.76,2.94.27,0-.09a6.37,6.37,0,0,1-2.45-6.19c.36-2.37,2.39-5.85,8.49-4.93l10.58,1.6-.48,3.12-10.23-1.55c-2.86-.43-5.43.25-5.88,3.18a4.58,4.58,0,0,0,2.67,4.72,5.13,5.13,0,0,0,1.46.44l10.69,1.62-.47,3.11Z" transform="translate(-6.77)"/><path d="M1754.82,584.54a10.67,10.67,0,0,0,2.09-5.44c.28-3.19-1.28-5.22-3.8-5.43-2.31-.2-3.79,1-5.33,4.16-1.78,3.82-4.13,6.09-7.61,5.79-3.88-.32-6.49-3.69-6.09-8.41a10.83,10.83,0,0,1,1.67-5.23l2.56,1.1a9,9,0,0,0-1.58,4.46c-.28,3.32,1.64,4.75,3.34,4.89,2.31.2,3.58-1.18,5.19-4.4,2-4,4.22-5.86,7.88-5.55,3.82.32,6.94,3.34,6.45,9.07a12.11,12.11,0,0,1-2.16,6Z" transform="translate(-6.77)"/><path d="M1751.92,563.85c4.41.11,6.34-2.54,6.46-5.72a11.31,11.31,0,0,0-.72-4.85l2.34-.47a13.82,13.82,0,0,1,.91,5.85c-.22,5.35-4,8.42-9.4,8.22s-9.55-3.48-9.35-8.56c.23-5.67,5.42-7,8.72-6.84a8.83,8.83,0,0,1,1.53.17Zm-2-9.35c-2.06-.11-5.32.62-5.46,4.16-.13,3.24,2.83,4.72,5.09,5.06Z" transform="translate(-6.77)"/><path d="M1747.76,547.29c-1.87,0-3.36.08-4.85.17v-2.8l2.95-.19v-.08a6.37,6.37,0,0,1-3.37-5.75c0-2.39,1.47-6.14,7.63-6.16l10.71-.05v3.15l-10.35,0c-2.9,0-5.33,1.09-5.32,4a4.56,4.56,0,0,0,3.35,4.25,5.3,5.3,0,0,0,1.52.22l10.81,0v3.15Z" transform="translate(-6.77)"/><path d="M1747.62,527.51c-1.87,0-3.36.14-4.84.27l-.07-2.8,3-.25v-.09a6.35,6.35,0,0,1-3.49-5.67c-.05-2.39,1.34-6.17,7.5-6.32l10.71-.27.07,3.15-10.34.26c-2.9.07-5.31,1.19-5.24,4.15a4.55,4.55,0,0,0,3.44,4.18,5,5,0,0,0,1.52.19l10.81-.28.07,3.16Z" transform="translate(-6.77)"/><path d="M1759.86,497.65l-2.26.36v.1a6.41,6.41,0,0,1,2.87,5.22,5,5,0,0,1-5,5.51c-4.34.17-6.87-3.47-7.07-10.19h-.38c-1.46.06-4.14.56-4,4.12a8.21,8.21,0,0,0,1.51,4.48l-2.15.81a10.71,10.71,0,0,1-1.78-5.68c-.2-5.32,3.5-6.76,7.09-6.9l6.71-.27a28,28,0,0,0,4.28-.43Zm-9.14.85c0,3.42.83,7.32,4.3,7.18a2.83,2.83,0,0,0,3-3.07,4.34,4.34,0,0,0-3.16-4.12,3.13,3.13,0,0,0-1-.11Z" transform="translate(-6.77)"/><path d="M117.19,576.21a32.73,32.73,0,0,1,6,1.06c3.22.87,5.18,2.08,6.3,3.83a6.74,6.74,0,0,1-5.33,10.07l0,.09c1.62,1.13,2.26,3.17,2.19,5.83a44.05,44.05,0,0,0,.11,7.13l-3.14-.85a34,34,0,0,1-.07-6.21c.15-3.51-.79-5.13-3.51-6l-2.87-.78-2.67,10.49-3-.82Zm.22,11.84,3.1.83c3.24.88,5.76-.38,6.47-3.15.8-3.15-1-5.11-4.25-6a13.67,13.67,0,0,0-3.07-.54Z" transform="translate(-6.77)"/><path d="M145,604.18c-.47,1.82-.81,3.39-1.07,4.79l-2.71-.74.56-2.88-.08,0a6.37,6.37,0,0,1-6.4,1.72c-2.64-.71-5.41-3.09-3.86-9.18L134,587.73l3.05.82-2.44,9.59c-.85,3.31-.42,5.83,2.34,6.58a4.51,4.51,0,0,0,4.79-1.8,5.1,5.1,0,0,0,.7-1.54l2.71-10.64,3,.83Z" transform="translate(-6.77)"/><path d="M158.24,612.84l.29-2.26-.09,0a6.31,6.31,0,0,1-5.82,1.19,5.13,5.13,0,0,1-3.87-6.37c1.07-4.21,5.28-5.54,11.77-3.73l.09-.37c.36-1.41.64-4.12-2.81-5a8.21,8.21,0,0,0-4.72.1l-.16-2.28a10.6,10.6,0,0,1,6,0c5.15,1.39,5.48,5.36,4.59,8.84l-1.66,6.5a30.57,30.57,0,0,0-.8,4.22Zm1.78-9c-3.29-1-7.24-1.39-8.1,2a2.88,2.88,0,0,0,2.09,3.8,4.28,4.28,0,0,0,4.84-1.8,3.22,3.22,0,0,0,.4-1Z" transform="translate(-6.77)"/><path d="M179.24,593a28.37,28.37,0,0,1,5.66,1c3,.82,4.86,1.88,6,3.5a5.46,5.46,0,0,1,.87,4.81,5.78,5.78,0,0,1-5.32,4.23l0,.09a6.47,6.47,0,0,1,3.29,7.39,6.54,6.54,0,0,1-3.23,4.27c-2,1.13-4.84,1.12-8.68.08a40.72,40.72,0,0,1-4.64-1.55Zm-2.45,22.3a13.57,13.57,0,0,0,2.51.85c3.15.86,6.35.45,7.24-3.07.84-3.29-1.57-5.41-4.88-6.32l-2.52-.68Zm3-11.57,2.78.75c3.17.86,5.49-.37,6.09-2.72.71-2.8-1.06-4.5-4.13-5.33a11.86,11.86,0,0,0-2.75-.5Z" transform="translate(-6.77)"/><path d="M195.86,614.36c-1,4.28,1.15,6.76,4.22,7.59a11.37,11.37,0,0,0,4.89.37l0,2.39a13.59,13.59,0,0,1-5.9-.41c-5.17-1.4-7.38-5.8-6-11s5.39-8.56,10.31-7.23c5.49,1.49,5.66,6.85,4.85,10.05a7.94,7.94,0,0,1-.49,1.45Zm9.54.16c.54-2,.51-5.33-2.92-6.26-3.13-.85-5.2,1.71-6,3.84Z" transform="translate(-6.77)"/><path d="M216,601.24l3,.83-6.49,25.49-3-.83Z" transform="translate(-6.77)"/><path d="M227.07,631.49l.29-2.27-.09,0a6.35,6.35,0,0,1-5.81,1.19,5.13,5.13,0,0,1-3.87-6.38c1.07-4.2,5.27-5.53,11.76-3.72l.1-.37c.36-1.41.64-4.13-2.82-5a8.26,8.26,0,0,0-4.71.11l-.16-2.29a10.66,10.66,0,0,1,5.94,0c5.15,1.4,5.48,5.37,4.59,8.85L230.64,628a27.85,27.85,0,0,0-.8,4.22Zm1.79-9c-3.3-1-7.25-1.38-8.1,2a2.87,2.87,0,0,0,2.08,3.79,4.31,4.31,0,0,0,4.85-1.79,3.7,3.7,0,0,0,.4-1Z" transform="translate(-6.77)"/><path d="M245.91,636.59l-1.52-26.28,3.3.89.6,12.92c.18,3.53.3,6.72.21,9.71l.08,0c1.37-2.62,3.11-5.4,5-8.27l7-10.89,3.24.88-14.55,21.92Z" transform="translate(-6.77)"/><path d="M259.52,640.28l4.42-17.37,3.05.83-4.42,17.36Zm9.1-21.35a1.91,1.91,0,0,1-2.45,1.44,2,2,0,0,1-1.35-2.47,1.92,1.92,0,0,1,2.4-1.45A2,2,0,0,1,268.62,618.93Z" transform="translate(-6.77)"/><path d="M268.05,639.15a8.68,8.68,0,0,0,3.75,2.34c2.23.6,3.56-.25,3.93-1.7s-.3-2.56-2.32-4c-2.75-2-3.76-4.06-3.22-6.14.71-2.79,3.5-4.49,7.12-3.51a8.25,8.25,0,0,1,3.85,2.19l-1.34,2.09a6.76,6.76,0,0,0-3.2-2c-1.8-.49-3.06.32-3.39,1.63s.46,2.34,2.44,3.82c2.62,1.9,3.74,3.82,3.09,6.42-.79,3.07-3.65,4.6-7.63,3.52a9.88,9.88,0,0,1-4.43-2.49Z" transform="translate(-6.77)"/><path d="M290.83,624.85l-1.28,5L294,631l-.61,2.39-4.4-1.19-2.38,9.36c-.55,2.16-.26,3.55,1.45,4a6,6,0,0,0,1.84.25l-.48,2.44a7.68,7.68,0,0,1-2.84-.31,4.43,4.43,0,0,1-3-2.23c-.6-1.19-.55-2.81,0-4.85l2.41-9.48-2.6-.71.61-2.39,2.6.71,1.07-4.19Z" transform="translate(-6.77)"/><path d="M302.32,651.87l.28-2.27-.09,0a6.35,6.35,0,0,1-5.81,1.19,5.13,5.13,0,0,1-3.87-6.38c1.07-4.2,5.27-5.53,11.77-3.72l.09-.37c.36-1.41.64-4.13-2.81-5a8.3,8.3,0,0,0-4.72.11l-.16-2.29a10.61,10.61,0,0,1,5.95,0c5.14,1.39,5.47,5.36,4.59,8.84l-1.66,6.49a27.85,27.85,0,0,0-.8,4.22Zm1.78-9c-3.3-1-7.25-1.38-8.1,2a2.87,2.87,0,0,0,2.09,3.79,4.3,4.3,0,0,0,4.84-1.79,3.7,3.7,0,0,0,.4-1Z" transform="translate(-6.77)"/></g></g></svg>