<svg xmlns="http://www.w3.org/2000/svg" viewBox="0 0 1819 734.02"><defs><style>.cls-1,.cls-2,.cls-4{fill:#cfdcfa;}.cls-1{stroke:#000;stroke-width:4px;}.cls-1,.cls-2,.cls-3,.cls-4{stroke-miterlimit:10;}.cls-2,.cls-3,.cls-4{stroke:#cfdcfa;}.cls-2{stroke-width:5px;}.cls-3{fill:none;stroke-width:6px;}.cls-4{stroke-width:7px;}</style></defs><g id="Layer_2" data-name="Layer 2"><g id="Novo_Mapa" data-name="Novo Mapa"><path class="cls-1" d="M690.73,664.54l-9.19-6.17a9.41,9.41,0,0,1-.17-15.51l66.28-46.56a75.58,75.58,0,0,1,14.87-8.14l94.49-44c12.7-5.21,29.09-14.55,42.75-15.93l5.91-.59a221.27,221.27,0,0,1,29.35-1l93,3c13.34.44,26.57,4.57,39.37,8.37,0,0,64.74,14.05,72.16,12.46h0c45.36-9.74,68.19-61.74,45.25-102.06l-180.63-324a8.5,8.5,0,0,1,6-12.53l86.32-14.59a15.82,15.82,0,0,1,13.68,4.28l13.43,13.14L1430,423.49c14.33,14.46,38.43,12.61,49-4.78v-1a31.32,31.32,0,0,0-4.57-38.38L1187.52,91.09a9.49,9.49,0,0,1,4.31-15.87l129.35-35.28a14.59,14.59,0,0,1,13.94,3.55l330,316.4a31.15,31.15,0,0,0,48.41-6.68h0a31.16,31.16,0,0,0-5.31-38.31l-297.9-285a8.41,8.41,0,0,1,3.26-14.09l42.81-13.64H1816V711.19a19.38,19.38,0,0,1-19.38,19.38L801,730.5v-2"/><path class="cls-1" d="M561.35,433c-.6-19.16-13.35-34-28.38-33.11L39.8,430.19c-7.19.44-11.47-10.07-7.06-17.31l64.1-105c.3-.51.59-1,.87-1.55a113.19,113.19,0,0,1,20.16-26.81L150.54,250c.6-.55,1.17-1.13,1.74-1.7,7.43-7.36,20.6-9.5,24.86-10a31.13,31.13,0,0,0,3.16-.54l46.83-10.37c.8-.18,1.61-.33,2.42-.45L928,126.33c5.94-.85,11.77,2.48,15.22,8.7l177.41,319.59c8.36,15.06-2.28,35.32-16.39,31.2l-43.38-12.65a50.69,50.69,0,0,0-12.71-2L924,467.37a83.24,83.24,0,0,0-11.6.46l-34.6,3.84a68.09,68.09,0,0,0-18.44,4.75L745.92,523a123,123,0,0,0-22.85,12.41l-107.41,73.7a141.4,141.4,0,0,0-15.95,12.77h0c-16.58,15.31-15,47.41,3,60l70.56,48.69H22.08A20.08,20.08,0,0,1,2,710.49v-178A32.73,32.73,0,0,1,32.71,499.8l502.84-30.93c14.86-.91,26.36-16.93,25.77-35.87"/><line class="cls-2" x1="1814" y1="2.5" x2="1455.35" y2="2.5"/><path d="M152.89,447.9a32.66,32.66,0,0,1,6-.89c3.32-.21,5.55.29,7.14,1.56a6.08,6.08,0,0,1,2.19,4.48,6.42,6.42,0,0,1-4.19,6.46v.08c1.88.54,3.11,2.22,3.85,4.69a40.83,40.83,0,0,0,2.27,6.53l-3.24.2a31.72,31.72,0,0,1-2-5.7c-.92-3.27-2.31-4.48-5.15-4.4l-3,.19.64,10.49-3.12.19Zm3.8,10.83,3.2-.2c3.35-.2,5.35-2.16,5.18-4.93-.19-3.15-2.54-4.38-5.84-4.18a13.94,13.94,0,0,0-3.08.47Z"/><path d="M187.8,465c.11,1.83.27,3.38.44,4.75l-2.79.17L185.1,467H185a6.49,6.49,0,0,1-5.55,3.59c-2.72.16-6.08-1.16-6.45-7.25l-.63-10.16,3.15-.19.59,9.6c.2,3.31,1.37,5.5,4.22,5.33a4.64,4.64,0,0,0,4-3.16,5.24,5.24,0,0,0,.19-1.64l-.66-10.65,3.14-.19Z"/><path d="M203,468.79l-.41-2.17h-.1a6.47,6.47,0,0,1-5.15,2.92,5,5,0,0,1-5.62-4.66c-.26-4.21,3.33-6.75,10.05-7.12l0-.37c-.08-1.41-.64-4-4.2-3.76a8.46,8.46,0,0,0-4.45,1.57l-.84-2.06a11,11,0,0,1,5.64-1.87c5.31-.33,6.83,3.22,7,6.7l.4,6.5a28.1,28.1,0,0,0,.52,4.15ZM202,460c-3.42.14-7.3,1-7.09,4.35a2.79,2.79,0,0,0,3.14,2.85,4.35,4.35,0,0,0,4.05-3.17,3.27,3.27,0,0,0,.09-1Z"/><path d="M230.24,455.72l-9.39.58.54,8.75,10.51-.65.16,2.6-13.65.84-1.49-24.22,13.09-.8.16,2.6-9.95.62.48,7.67,9.38-.58Z"/><path d="M234.36,441.25l3.15-.19,1.57,25.51-3.14.2Z"/><path d="M244.59,448.79l4,9.53c.68,1.58,1.22,3,1.7,4.4h.09c.31-1.47.72-3,1.18-4.58l2.8-9.95,3.31-.21-5.77,17.8-3,.19-7.69-17Z"/><path d="M263.88,442.67a1.91,1.91,0,0,1-1.89,2.09,1.88,1.88,0,0,1-2-1.85,1.92,1.92,0,0,1,1.84-2.08A1.9,1.9,0,0,1,263.88,442.67Zm-2.16,22.51-1.07-17.38,3.14-.19L264.86,465Z"/><path d="M269.39,452.7c-.13-2.06-.29-3.8-.48-5.41l2.77-.17.33,3.4h.11a5.28,5.28,0,0,1,4.61-4.1,3.18,3.18,0,0,1,.88,0l.19,3a5.4,5.4,0,0,0-1.08,0c-2.23.13-3.7,1.91-4,4.3a9,9,0,0,0,0,1.48l.57,9.29-3.15.19Z"/><path d="M291.34,463.36l-.41-2.18h-.1a6.48,6.48,0,0,1-5.16,2.91,5,5,0,0,1-5.61-4.66c-.26-4.21,3.33-6.75,10-7.11l0-.37c-.08-1.42-.64-4-4.2-3.77a8.47,8.47,0,0,0-4.45,1.58l-.85-2.06a11,11,0,0,1,5.65-1.88c5.31-.33,6.83,3.23,7,6.71l.4,6.5a26.84,26.84,0,0,0,.52,4.14Zm-1-8.85c-3.42.14-7.3,1-7.09,4.36a2.78,2.78,0,0,0,3.13,2.84,4.36,4.36,0,0,0,4.06-3.17,3.19,3.19,0,0,0,.09-1Z"/><path d="M320.08,436l1.29,21c.1,1.55.26,3.28.42,4.48l-2.81.17-.34-3h-.09a6.36,6.36,0,0,1-5.68,3.76c-4.21.26-7.68-3.1-8-8.37-.38-5.81,3-9.56,7.24-9.82a5.82,5.82,0,0,1,5.4,2.31h.07l-.63-10.38Zm-2.21,15.4a6.23,6.23,0,0,0-.21-1.34,4.69,4.69,0,0,0-4.81-3.36c-3.27.2-5.05,3.19-4.81,7,.21,3.53,2.15,6.35,5.56,6.15a4.79,4.79,0,0,0,4.39-4.08,5.54,5.54,0,0,0,.07-1.37Z"/><path d="M328.18,452.94c.33,4.27,3.15,5.87,6.32,5.67a11.68,11.68,0,0,0,4.76-1.19l.69,2.21a13.9,13.9,0,0,1-5.73,1.47c-5.34.33-8.77-3-9.09-8.25s2.53-9.57,7.6-9.88c5.67-.35,7.46,4.53,7.66,7.73a7.67,7.67,0,0,1,0,1.49Zm9.11-2.84c-.09-2-1.13-5.07-4.67-4.85-3.23.2-4.42,3.2-4.54,5.42Z"/><path d="M356.1,451.73l-2,7.77-3.24.2L357.57,435l3.76-.23,9.76,23.71-3.34.21-3.07-7.46Zm7.8-2.93L361.07,442c-.62-1.56-1.07-3-1.52-4.35h-.08c-.26,1.44-.55,2.94-.93,4.45l-2,7.16Z"/><path d="M373.68,446.28c-.13-2-.29-3.8-.48-5.4l2.77-.17.33,3.4h.11A5.28,5.28,0,0,1,381,440a3.59,3.59,0,0,1,.88,0l.18,3a5.29,5.29,0,0,0-1.08,0c-2.22.14-3.69,1.92-4,4.31a8.93,8.93,0,0,0,0,1.48l.58,9.28-3.15.2Z"/><path d="M395.63,456.94l-.41-2.18h-.09a6.49,6.49,0,0,1-5.16,2.92,5,5,0,0,1-5.62-4.66c-.25-4.21,3.33-6.75,10-7.12l0-.37c-.09-1.41-.65-4-4.21-3.76a8.42,8.42,0,0,0-4.44,1.57l-.85-2.06a11,11,0,0,1,5.64-1.87c5.31-.33,6.83,3.22,7.05,6.7l.4,6.5a27,27,0,0,0,.52,4.15Zm-1-8.84c-3.43.14-7.31,1-7.1,4.35a2.79,2.79,0,0,0,3.14,2.85,4.34,4.34,0,0,0,4.05-3.17,3.27,3.27,0,0,0,.09-1Z"/><path d="M417.54,450.82c.11,1.82.27,3.38.44,4.75l-2.79.17-.35-2.83h-.09a6.47,6.47,0,0,1-5.55,3.59c-2.72.17-6.08-1.15-6.45-7.24l-.63-10.16,3.15-.19.59,9.6c.2,3.31,1.37,5.5,4.22,5.32a4.61,4.61,0,0,0,4-3.16,5.14,5.14,0,0,0,.19-1.63l-.66-10.65,3.14-.19Zm-3.39-20-4.07,5.42-2.24.14,2.83-5.35Z"/><path d="M419.15,460.54a5,5,0,0,0,3.37-1.55c.8-1,1.07-2.43.81-6.6l-.9-14.54,3.15-.19,1,15.75c.21,3.38-.2,5.6-1.64,7.29a8,8,0,0,1-5.27,2.3Zm6.51-27.82a1.91,1.91,0,0,1-1.89,2.09,1.89,1.89,0,0,1-2-1.85,1.93,1.93,0,0,1,1.87-2.09A1.9,1.9,0,0,1,425.66,432.72Z"/><path d="M447,444.89c.39,6.44-3.9,9.53-8.07,9.78-4.72.29-8.57-2.92-8.91-8.43-.36-5.82,3.26-9.45,8.06-9.75C443.1,436.18,446.69,439.6,447,444.89Zm-13.77,1.05c.24,3.81,2.6,6.55,5.68,6.36s5.12-3.16,4.88-7.1c-.18-2.94-1.89-6.57-5.65-6.34S433.05,442.65,433.25,445.94Z"/><path d="M1022.88,193a33.41,33.41,0,0,1,3.38,5c1.62,2.91,2.13,5.14,1.67,7.12a6.06,6.06,0,0,1-3.11,3.9,6.41,6.41,0,0,1-7.63-1l-.08,0c.33,1.93-.65,3.76-2.57,5.49a41.53,41.53,0,0,0-4.91,4.87l-1.58-2.84a31.8,31.8,0,0,1,4.31-4.22c2.55-2.24,3-4,1.75-6.54l-1.44-2.59-9.2,5.1-1.52-2.74Zm-8.14,8.1,1.55,2.8c1.63,2.93,4.26,3.9,6.69,2.55,2.76-1.53,2.85-4.18,1.25-7.07a13.82,13.82,0,0,0-1.74-2.58Z"/><path d="M1022.52,231.82c-1.6.88-2.93,1.69-4.1,2.43l-1.35-2.44,2.4-1.53,0-.08a6.49,6.49,0,0,1-5.63-3.46c-1.32-2.39-1.58-6,3.76-9l8.9-4.94,1.53,2.76-8.41,4.66c-2.9,1.61-4.38,3.61-3,6.11a4.63,4.63,0,0,0,4.58,2.26,5,5,0,0,0,1.55-.54l9.33-5.18,1.53,2.76Z"/><path d="M1025.6,247.17l1.78-1.31,0-.08a6.48,6.48,0,0,1-4.86-3.4,5,5,0,0,1,1.79-7.07c3.69-2.05,7.53.1,10.75,6l.32-.18c1.24-.69,3.34-2.31,1.59-5.42a8.46,8.46,0,0,0-3.33-3.33l1.49-1.65a10.92,10.92,0,0,1,4.12,4.28c2.58,4.66,0,7.56-3,9.25l-5.69,3.16a27.19,27.19,0,0,0-3.52,2.25Zm7.53-4.74c-1.6-3-4-6.16-7-4.53a2.79,2.79,0,0,0-1.22,4.06,4.35,4.35,0,0,0,4.61,2.29,3.17,3.17,0,0,0,.94-.35Z"/><path d="M1043,276.31a22.19,22.19,0,0,1-4.78-5.88c-1.79-3.21-2.45-6.32-1.6-9.49a12.39,12.39,0,0,1,6.24-7.32c6.33-3.5,13.38-1.72,17.33,5.39a15.23,15.23,0,0,1,2,5.84l-2.62.56a12.27,12.27,0,0,0-1.69-5.19c-2.86-5.15-7.93-6.74-13.25-3.8s-6.77,8-4,12.95a10,10,0,0,0,2.59,3.32l6.32-3.51-2.38-4.29,2.19-1.22,3.88,7Z"/><path d="M1052.39,278.68c-3.71,2.13-3.94,5.37-2.39,8.15a11.64,11.64,0,0,0,3.12,3.78l-1.7,1.58a14.19,14.19,0,0,1-3.79-4.54c-2.6-4.68-1-9.22,3.53-11.76s9.72-1.84,12.19,2.6c2.76,5-.88,8.69-3.68,10.24a8.07,8.07,0,0,1-1.35.63Zm6.49,7c1.76-.94,4.08-3.2,2.36-6.3-1.57-2.83-4.79-2.62-6.84-1.77Z"/><path d="M1064.29,290.69c1.59-.88,2.82-1.63,4-2.41l1.36,2.45-2.42,1.54,0,.08a6.43,6.43,0,0,1,5.65,3.45c1.16,2.09,1.71,6.06-3.51,9l-9.09,5-1.53-2.76,8.78-4.87c2.46-1.37,4-3.44,2.57-6a4.54,4.54,0,0,0-4.91-2.15,4.87,4.87,0,0,0-1.39.52l-9.17,5.09-1.53-2.75Z"/><path d="M1062.87,314.33l15.23-8.45,1.53,2.75-15.23,8.45Zm21.25-7.75a1.9,1.9,0,0,1-2.7-.81,1.88,1.88,0,0,1,.79-2.62,1.93,1.93,0,0,1,2.68.76A1.9,1.9,0,0,1,1084.12,306.58Z"/><path d="M1080.65,344.1a22,22,0,0,1-4.79-5.88c-1.78-3.21-2.44-6.32-1.6-9.49a12.43,12.43,0,0,1,6.24-7.32c6.34-3.5,13.38-1.72,17.33,5.39a15.21,15.21,0,0,1,2,5.85l-2.61.55a12.49,12.49,0,0,0-1.7-5.19c-2.85-5.15-7.93-6.74-13.24-3.79s-6.77,8-4,12.94a10.07,10.07,0,0,0,2.59,3.32l6.32-3.51-2.38-4.29,2.19-1.22,3.88,7Z"/><path d="M1097.46,358.34c-5.64,3.13-10.28.59-12.31-3.07-2.29-4.13-1.05-9,3.78-11.67,5.09-2.83,9.93-1.13,12.27,3.08C1103.63,351.05,1102.09,355.77,1097.46,358.34Zm-6.88-12c-3.34,1.85-4.79,5.16-3.29,7.86s5,3.27,8.51,1.35c2.57-1.43,5.11-4.54,3.28-7.83S1093.46,344.77,1090.58,346.37Z"/><path d="M1102.75,360c1.59-.89,2.82-1.64,4-2.41l1.34,2.4-2.37,1.51,0,.08a6,6,0,0,1,5.46,3.25,5.11,5.11,0,0,1-.67,6l0,.06a7.05,7.05,0,0,1,2.94.62,5.88,5.88,0,0,1,2.92,2.75c1.13,2,1.48,5.76-3.81,8.69l-9,5-1.5-2.7,8.61-4.78c3-1.64,4.1-3.69,2.86-5.91a4.11,4.11,0,0,0-4.32-1.91,5.29,5.29,0,0,0-1.51.54l-9.42,5.23-1.5-2.7,9.13-5.07c2.43-1.35,3.58-3.39,2.41-5.48a4.37,4.37,0,0,0-4.67-1.91,4.73,4.73,0,0,0-1.48.54l-9.18,5.1-1.5-2.71Z"/><path d="M1114.18,390c-3.71,2.13-3.94,5.36-2.39,8.14a11.69,11.69,0,0,0,3.11,3.79l-1.69,1.57a14,14,0,0,1-3.79-4.54c-2.6-4.67-1-9.22,3.52-11.75s9.73-1.85,12.2,2.6c2.75,5-.88,8.68-3.69,10.24a8.15,8.15,0,0,1-1.35.63Zm6.49,7c1.76-.94,4.08-3.2,2.36-6.31-1.57-2.82-4.79-2.61-6.84-1.76Z"/><path d="M1117.57,406.21a8.52,8.52,0,0,0,1,4.27c1.12,2,2.64,2.41,3.91,1.7s1.58-1.93,1.22-4.37c-.53-3.31.24-5.44,2.07-6.44,2.45-1.37,5.57-.49,7.38,2.79a8.37,8.37,0,0,1,1.14,4.24l-2.4.43a6.83,6.83,0,0,0-.83-3.62c-.91-1.63-2.35-2-3.49-1.36s-1.33,1.91-1,4.33c.48,3.17-.08,5.27-2.35,6.53-2.7,1.5-5.75.45-7.75-3.14a9.94,9.94,0,0,1-1.31-4.87Z"/><path d="M739.81,553.31a32.72,32.72,0,0,1,5.15-3.18c3-1.5,5.21-1.92,7.17-1.38a6,6,0,0,1,3.78,3.26,6.42,6.42,0,0,1-1.3,7.58l0,.08c1.94-.26,3.73.8,5.39,2.78a40.26,40.26,0,0,0,4.66,5.11L761.8,569a31.16,31.16,0,0,1-4-4.47c-2.14-2.64-3.89-3.2-6.47-2l-2.65,1.34,4.74,9.39-2.8,1.41Zm7.77,8.45,2.86-1.44c3-1.51,4.07-4.1,2.81-6.58-1.41-2.82-4.06-3-7-1.53a13.47,13.47,0,0,0-2.65,1.64Z"/><path d="M778.92,556.07c.77,1.66,1.48,3,2.14,4.26l-2.54,1.18L777.17,559l-.08,0a6.51,6.51,0,0,1-3.86,5.37c-2.47,1.15-6.08,1.14-8.65-4.39l-4.29-9.22,2.85-1.33,4.06,8.72c1.4,3,3.29,4.62,5.88,3.41a4.6,4.6,0,0,0,2.57-4.4,4.83,4.83,0,0,0-.42-1.59l-4.5-9.67,2.86-1.33Z"/><path d="M794.5,554.08l-1.18-1.88-.09,0a6.45,6.45,0,0,1-3.73,4.6,5,5,0,0,1-6.93-2.28c-1.78-3.83.63-7.5,6.75-10.3l-.16-.33c-.59-1.28-2.06-3.49-5.28-2a8.45,8.45,0,0,0-3.57,3.09l-1.54-1.61a11,11,0,0,1,4.57-3.81c4.82-2.24,7.53.51,9,3.67l2.75,5.91a28.16,28.16,0,0,0,2,3.67Zm-4.2-7.85c-3.13,1.38-6.43,3.59-5,6.64a2.78,2.78,0,0,0,4,1.5,4.33,4.33,0,0,0,2.61-4.43,3.23,3.23,0,0,0-.28-1Z"/><path d="M824.78,538.79a22.17,22.17,0,0,1-6.2,4.35c-3.34,1.55-6.48,2-9.58.92a12.4,12.4,0,0,1-6.86-6.74c-3-6.57-.76-13.47,6.61-16.9a15.29,15.29,0,0,1,6-1.55l.37,2.65a12.25,12.25,0,0,0-5.3,1.32c-5.34,2.48-7.29,7.43-4.73,12.94s7.48,7.32,12.62,4.92a9.9,9.9,0,0,0,3.5-2.35l-3-6.55-4.45,2.07-1.06-2.27,7.25-3.37Z"/><path d="M827.81,529.61c1.86,3.85,5.06,4.31,8,3a11.63,11.63,0,0,0,4-2.85l1.45,1.81a14.05,14.05,0,0,1-4.79,3.45c-4.85,2.26-9.27.39-11.48-4.35s-1.14-9.83,3.47-12c5.15-2.4,8.6,1.49,10,4.4a8.49,8.49,0,0,1,.53,1.39Zm7.44-6c-.82-1.82-2.9-4.3-6.12-2.8-2.93,1.36-3,4.59-2.25,6.7Z"/><path d="M840.68,518.41c-.74-1.66-1.37-2.95-2-4.24l2.56-1.13,1.31,2.55.08,0a6.43,6.43,0,0,1,3.95-5.3c2.19-1,6.2-1.17,8.61,4.31l4.2,9.5-2.88,1.27-4.06-9.18c-1.14-2.58-3.06-4.31-5.77-3.11a4.56,4.56,0,0,0-2.59,4.7,5.13,5.13,0,0,0,.39,1.43l4.24,9.6L845.81,530Z"/><path d="M858.22,500a2,2,0,1,1-2.6-1A1.91,1.91,0,0,1,858.22,500Zm6,21.79L857,506l2.87-1.3,7.21,15.85Z"/><path d="M895.57,509.45a22.2,22.2,0,0,1-6.84,3.25c-3.55,1-6.72.87-9.6-.71a12.38,12.38,0,0,1-5.63-7.8c-1.89-7,1.52-13.41,9.36-15.55a15.5,15.5,0,0,1,6.15-.52l-.08,2.67a12.42,12.42,0,0,0-5.45.41c-5.68,1.55-8.44,6.1-6.84,12s6.14,8.47,11.62,7a10,10,0,0,0,3.84-1.73l-1.9-7-4.74,1.29-.66-2.41,7.71-2.11Z"/><path d="M914.6,500.17c.55,6.43-3.66,9.62-7.83,10-4.71.41-8.64-2.71-9.11-8.22-.5-5.81,3-9.53,7.82-9.94C910.47,491.56,914.15,494.89,914.6,500.17Zm-13.74,1.39c.33,3.8,2.76,6.48,5.83,6.22s5-3.28,4.71-7.22c-.25-2.94-2-6.52-5.8-6.2S900.58,498.27,900.86,501.56Z"/><path d="M919,496.19c0-1.82,0-3.26,0-4.71l2.75.06.1,2.81h.09a6,6,0,0,1,5.57-3.07,5.12,5.12,0,0,1,4.83,3.6h.07a7.06,7.06,0,0,1,2-2.22,5.93,5.93,0,0,1,3.86-1.14c2.33.05,5.72,1.63,5.58,7.68l-.23,10.25-3.09-.07.22-9.84c.08-3.37-1.12-5.4-3.66-5.46a4.14,4.14,0,0,0-3.83,2.77,5.16,5.16,0,0,0-.29,1.58l-.24,10.78-3.1-.07.24-10.45c.06-2.77-1.12-4.79-3.51-4.85a4.39,4.39,0,0,0-4,3.08,5.14,5.14,0,0,0-.27,1.55L921.8,509l-3.09-.07Z"/><path d="M950.7,501.67c-.08,4.28,2.58,6.13,5.76,6.24a11.74,11.74,0,0,0,4.85-.74l.48,2.26a13.83,13.83,0,0,1-5.84.93c-5.35-.18-8.45-3.84-8.28-9.06s3.41-9.29,8.49-9.13c5.67.18,7,5.21,6.9,8.42a8.71,8.71,0,0,1-.16,1.48Zm9.33-2c.1-2-.65-5.15-4.2-5.26-3.23-.1-4.7,2.77-5,5Z"/><path d="M966.34,507.09a8.61,8.61,0,0,0,4.16,1.38c2.31.07,3.42-1,3.46-2.49s-.84-2.34-3.13-3.29c-3.11-1.23-4.54-3-4.46-5.08.09-2.8,2.44-5,6.18-4.91a8.49,8.49,0,0,1,4.23,1.21l-.86,2.28a6.76,6.76,0,0,0-3.54-1.14c-1.87-.06-2.92,1-3,2.29s1,2.12,3.21,3.08c3,1.21,4.47,2.77,4.4,5.37-.1,3.09-2.57,5.17-6.68,5a9.91,9.91,0,0,1-4.85-1.37Z"/><path d="M1177.14,107.75a32.83,32.83,0,0,1,4.62,3.91c2.34,2.36,3.44,4.36,3.53,6.4a6.06,6.06,0,0,1-1.93,4.6,6.42,6.42,0,0,1-7.61,1.11l-.06.06c.84,1.77.39,3.8-1,6a41.13,41.13,0,0,0-3.41,6l-2.29-2.3a31.73,31.73,0,0,1,3-5.23c1.85-2.85,1.84-4.69-.09-6.77l-2.09-2.11-7.46,7.41-2.21-2.22Zm-5.63,10,2.25,2.28c2.37,2.38,5.16,2.6,7.13.64,2.24-2.22,1.61-4.8-.71-7.15a13.28,13.28,0,0,0-2.39-2Z"/><path d="M1187.35,145.25c-1.3,1.28-2.37,2.42-3.28,3.46l-2-2,1.91-2.13-.06-.06a6.5,6.5,0,0,1-6.37-1.81c-1.92-1.93-3.14-5.33,1.2-9.63l7.22-7.17,2.22,2.24-6.83,6.78c-2.35,2.33-3.23,4.66-1.22,6.69a4.62,4.62,0,0,0,5,.92,4.53,4.53,0,0,0,1.35-.94l7.58-7.51,2.21,2.24Z"/><path d="M1194.47,159.19l1.37-1.74-.07-.07a6.45,6.45,0,0,1-5.59-1.95,5,5,0,0,1-.2-7.3c3-3,7.27-1.95,12,2.86l.27-.26c1-1,2.58-3.12.06-5.64a8.5,8.5,0,0,0-4.12-2.31l1-2a11,11,0,0,1,5.13,3c3.75,3.78,2.08,7.26-.4,9.72l-4.62,4.59a26.93,26.93,0,0,0-2.77,3.12Zm6-6.61c-2.36-2.48-5.56-4.83-8-2.46a2.78,2.78,0,0,0-.07,4.23,4.35,4.35,0,0,0,5.06,1,3.6,3.6,0,0,0,.81-.59Z"/><path d="M1222.35,153.26a34.08,34.08,0,0,1,4.6,3.94c2.16,2.18,3.26,4.3,3.36,6.25a6.6,6.6,0,0,1-2.11,5.09,7.11,7.11,0,0,1-5,2.32c-2.44.06-5-1.22-7.11-3.39a10.63,10.63,0,0,1-1.63-2l-6.91,6.85-2.2-2.22Zm-6.09,10.45a9.82,9.82,0,0,0,1.64,2c2.68,2.7,5.62,3,8,.68s1.78-5-.64-7.44a15.3,15.3,0,0,0-2.26-1.93Z"/><path d="M1226.87,174.82c1.46-1.45,2.67-2.72,3.75-3.93l2,2-2.34,2.5.08.08a5.28,5.28,0,0,1,6.12.75,4.24,4.24,0,0,1,.56.69l-2.11,2.1a4.9,4.9,0,0,0-.7-.83c-1.57-1.58-3.87-1.52-5.86-.16a8.8,8.8,0,0,0-1.14,1l-6.6,6.55-2.22-2.24Z"/><path d="M1233.42,186.89c-3,3.06-2.33,6.23-.09,8.49a11.67,11.67,0,0,0,4,2.8l-1.21,2a14,14,0,0,1-4.88-3.34c-3.77-3.8-3.5-8.59.21-12.27s8.86-4.41,12.44-.8c4,4,1.51,8.59-.77,10.85a7.11,7.11,0,0,1-1.13,1Zm8.15,5c1.43-1.39,3.06-4.19.56-6.71-2.28-2.3-5.32-1.22-7.06.16Z"/><path d="M1239.33,204.39,1250,193.82l-1.71-1.73,1.7-1.69,1.72,1.73.59-.6c1.75-1.73,3.72-2.89,5.76-2.86a6.1,6.1,0,0,1,4.12,1.88,6.7,6.7,0,0,1,1.54,2.28l-2,1.41a4.77,4.77,0,0,0-1.15-1.72c-1.88-1.9-4.06-.73-6,1.17l-.67.66,3,3-1.71,1.69-3-3-10.66,10.58Z"/><path d="M1253.21,206.83c-3,3.06-2.34,6.23-.1,8.49a11.85,11.85,0,0,0,4,2.79l-1.21,2a14.19,14.19,0,0,1-4.88-3.34c-3.76-3.8-3.5-8.6.21-12.27s8.86-4.42,12.44-.81c4,4,1.51,8.6-.76,10.86a8.2,8.2,0,0,1-1.14,1Zm8.14,5c1.44-1.38,3.06-4.19.56-6.71-2.27-2.29-5.32-1.21-7.06.16Z"/><path d="M1258.89,224.11l12.36-12.26,2.22,2.23-12.36,12.27Zm18.35-13.22a2,2,0,1,1,0-2.78A1.9,1.9,0,0,1,1277.24,210.89Z"/><path d="M1283.42,217l-3.56,3.53,3.21,3.23-1.7,1.69-3.21-3.23-6.66,6.61c-1.54,1.53-2,2.84-.72,4.09a6.14,6.14,0,0,0,1.45,1.14l-1.6,1.8a8.21,8.21,0,0,1-2.31-1.7,4.44,4.44,0,0,1-1.45-3.37c.07-1.3.9-2.63,2.36-4.07L1276,220l-1.9-1.92,1.7-1.69,1.9,1.92,3-3Z"/><path d="M1290.47,243.33c-4.58,4.54-9.73,3.36-12.68.38-3.33-3.35-3.45-8.36.47-12.26,4.14-4.1,9.26-3.78,12.65-.36S1294.24,239.6,1290.47,243.33Zm-9.87-9.66c-2.71,2.69-3.21,6.27-1,8.47s5.75,1.76,8.55-1c2.09-2.07,3.69-5.75,1-8.42S1283,231.35,1280.6,233.67Z"/><path d="M1310,244.93l-5.21-5.25,1.88-1.87,12.66,12.76-1.88,1.87-5.23-5.28-15.35,15.23-2.22-2.24Z"/><path d="M1309.12,274.72l1.37-1.74-.07-.07a6.48,6.48,0,0,1-5.6-2,5,5,0,0,1-.2-7.3c3-3,7.28-2,12,2.86l.26-.26c1-1,2.59-3.13.06-5.64a8.47,8.47,0,0,0-4.11-2.31l1-2a11,11,0,0,1,5.14,3c3.74,3.78,2.08,7.26-.4,9.72l-4.62,4.59a27.08,27.08,0,0,0-2.78,3.12Zm6-6.61c-2.37-2.48-5.57-4.83-8-2.46a2.79,2.79,0,0,0-.07,4.23,4.36,4.36,0,0,0,5.06,1,3.45,3.45,0,0,0,.82-.59Z"/><path d="M1323.57,271.24c1.29-1.28,2.27-2.34,3.24-3.42l1.93,2-1.87,2.09.06.06a6,6,0,0,1,6.15,1.65,5.13,5.13,0,0,1,1,5.94l0,.06a7,7,0,0,1,3-.21,5.94,5.94,0,0,1,3.57,1.86c1.63,1.65,3,5.14-1.32,9.4l-7.28,7.22-2.17-2.19,7-6.94c2.39-2.37,2.93-4.66,1.15-6.46a4.14,4.14,0,0,0-4.68-.67,5.32,5.32,0,0,0-1.31.94l-7.65,7.59-2.18-2.2,7.42-7.36c2-1.95,2.52-4.22.84-5.92a4.4,4.4,0,0,0-5-.58,5.28,5.28,0,0,0-1.28.93l-7.45,7.39-2.17-2.19Z"/><path d="M1349.32,308.47c-1.29,1.29-2.36,2.43-3.28,3.46l-2-2,1.9-2.12-.06-.07a6.5,6.5,0,0,1-6.36-1.8c-1.92-1.94-3.14-5.34,1.19-9.63l7.23-7.17,2.22,2.23-6.83,6.78c-2.36,2.34-3.23,4.66-1.22,6.69a4.61,4.61,0,0,0,5,.93,5.13,5.13,0,0,0,1.36-.94l7.57-7.51,2.22,2.23Z"/><path d="M1358.57,311.17l0,.05c.73-.13,1.7-.25,2.48-.32l7.87-.58,2.68,2.7-9.82.27L1360,326l-2.72-2.74,1.72-10.15-2.43.13-4.65,4.62-2.22-2.24,18.15-18,2.21,2.23Z"/><path d="M1368.61,323.12c-3,3.06-2.33,6.23-.09,8.49a11.67,11.67,0,0,0,4,2.8l-1.21,2a14,14,0,0,1-4.88-3.34c-3.77-3.8-3.5-8.59.2-12.27s8.87-4.41,12.45-.8c4,4,1.51,8.59-.77,10.85a7.58,7.58,0,0,1-1.13,1Zm8.14,5c1.44-1.39,3.07-4.19.57-6.71-2.28-2.3-5.32-1.22-7.07.16Z"/><path d="M1397,328.78l2.21,2.22-8.3,8.24.08.08c1.11-.21,2.19-.33,3.18-.45l11.69-1.16,2.73,2.75-13.5,1-3.23,16.55-2.62-2.64,2.83-14.05-3.53.23-6.56,6.51-2.2-2.23Z"/><path d="M1410.82,364.6c-4.58,4.55-9.74,3.36-12.68.39-3.33-3.36-3.46-8.37.47-12.26,4.13-4.11,9.25-3.79,12.64-.37S1414.58,360.87,1410.82,364.6ZM1401,355c-2.71,2.69-3.21,6.26-1,8.46s5.75,1.77,8.56-1c2.09-2.07,3.69-5.75,1-8.42S1403.29,352.62,1401,355Z"/><path d="M1407.34,373.7l12.36-12.27,2.22,2.24-12.36,12.26Zm18.35-13.22a1.91,1.91,0,0,1-2.82-.05,1.88,1.88,0,0,1,.05-2.74,1.93,1.93,0,0,1,2.79,0A1.9,1.9,0,0,1,1425.69,360.48Z"/><path d="M1422.16,375.25l0,.05c.73-.13,1.7-.25,2.48-.32l7.87-.58,2.68,2.7-9.82.27L1423.54,390l-2.71-2.74,1.72-10.15-2.43.13-4.65,4.62-2.22-2.24,18.15-18,2.21,2.23Z"/><path d="M1432.2,387.2c-3,3.06-2.33,6.23-.09,8.49a11.76,11.76,0,0,0,4,2.8l-1.21,2a13.81,13.81,0,0,1-4.88-3.34c-3.77-3.79-3.5-8.59.21-12.27s8.86-4.41,12.44-.8c4,4,1.51,8.59-.77,10.85a7.11,7.11,0,0,1-1.13,1Zm8.15,5c1.44-1.39,3.06-4.19.56-6.71-2.28-2.3-5.32-1.22-7.06.16Z"/><path d="M1447.7,89.39a32.84,32.84,0,0,1,4.71,3.79c2.4,2.3,3.55,4.28,3.69,6.31a6.05,6.05,0,0,1-1.82,4.65,6.4,6.4,0,0,1-7.58,1.29l-.06.07c.89,1.75.48,3.78-.83,6a41,41,0,0,0-3.26,6.09l-2.35-2.24a31.85,31.85,0,0,1,2.87-5.3c1.78-2.9,1.73-4.74-.26-6.77l-2.14-2.05-7.28,7.59-2.26-2.17Zm-5.39,10.14,2.31,2.21c2.43,2.32,5.22,2.48,7.15.47,2.18-2.28,1.49-4.84-.89-7.13a13.88,13.88,0,0,0-2.44-2Z"/><path d="M1458.83,126.62c-1.26,1.32-2.3,2.49-3.19,3.54l-2-1.94,1.85-2.17-.06-.06a6.5,6.5,0,0,1-6.41-1.65c-2-1.88-3.27-5.25,1-9.66l7-7.34,2.27,2.18-6.66,6.94c-2.29,2.4-3.11,4.74-1,6.72a4.61,4.61,0,0,0,5,.8,4.94,4.94,0,0,0,1.33-1l7.38-7.7,2.28,2.18Z"/><path d="M1466.31,140.39l1.32-1.78-.07-.07a6.49,6.49,0,0,1-5.64-1.81,5,5,0,0,1-.38-7.29c2.92-3,7.22-2.13,12,2.56l.25-.27c1-1,2.51-3.18-.08-5.64a8.48,8.48,0,0,0-4.17-2.2l.94-2a11,11,0,0,1,5.2,2.88c3.85,3.68,2.26,7.21-.15,9.72l-4.51,4.7a27.66,27.66,0,0,0-2.69,3.19Zm5.79-6.76c-2.42-2.42-5.68-4.7-8-2.27a2.8,2.8,0,0,0,0,4.24,4.36,4.36,0,0,0,5.08.83,3.66,3.66,0,0,0,.8-.61Z"/><path d="M1505.92,143l-14.58,15.21c-1.07,1.11-2.24,2.41-3,3.34l-2-1.95,2-2.28-.06-.06a6.38,6.38,0,0,1-6.62-1.63c-3-2.92-2.93-7.75.73-11.56,4-4.22,9.06-4.27,12.12-1.34a5.8,5.8,0,0,1,2,5.54l0,.05,7.2-7.5Zm-12.82,8.82a6.19,6.19,0,0,0,.84-1.07,4.69,4.69,0,0,0-.78-5.81c-2.37-2.27-5.78-1.55-8.42,1.22-2.45,2.55-3.21,5.88-.75,8.25a4.8,4.8,0,0,0,6,.46A5.62,5.62,0,0,0,1491,154Z"/><path d="M1499,171.74l1.32-1.78-.07-.06a6.47,6.47,0,0,1-5.64-1.82,5,5,0,0,1-.38-7.28c2.92-3.05,7.22-2.13,12,2.56l.25-.27c1-1,2.51-3.19-.08-5.64a8.4,8.4,0,0,0-4.17-2.2l.94-2a10.87,10.87,0,0,1,5.2,2.87c3.84,3.69,2.26,7.21-.15,9.73l-4.51,4.7a26.07,26.07,0,0,0-2.69,3.19Zm5.79-6.75c-2.42-2.43-5.68-4.7-8-2.27a2.79,2.79,0,0,0,0,4.24,4.37,4.37,0,0,0,5.08.83,3.4,3.4,0,0,0,.8-.62Z"/><path d="M1506.46,174.43a8.74,8.74,0,0,0,2.17,3.8c1.67,1.6,3.23,1.52,4.24.47s.94-2.31-.13-4.54c-1.48-3-1.37-5.27.08-6.77,1.94-2,5.18-2.11,7.88.49a8.37,8.37,0,0,1,2.34,3.72l-2.16,1.12a6.9,6.9,0,0,0-1.87-3.21c-1.35-1.3-2.83-1.22-3.74-.28s-.7,2.22.33,4.44c1.4,2.88,1.47,5.05-.32,6.93-2.14,2.23-5.36,2.13-8.33-.72a9.94,9.94,0,0,1-2.7-4.26Z"/><path d="M1537,175a34.34,34.34,0,0,1,4.69,3.82c2.22,2.13,3.37,4.22,3.51,6.17a6.6,6.6,0,0,1-2,5.14,7.1,7.1,0,0,1-5,2.44c-2.43.13-5-1.09-7.19-3.21a10.49,10.49,0,0,1-1.67-1.92l-6.74,7-2.26-2.17Zm-5.83,10.6a10.14,10.14,0,0,0,1.69,2c2.75,2.63,5.69,2.87,8,.48s1.65-5-.83-7.42a15.45,15.45,0,0,0-2.31-1.88Z"/><path d="M1540.48,211.52l1.32-1.78-.07-.07a6.49,6.49,0,0,1-5.64-1.81,5,5,0,0,1-.38-7.29c2.92-3,7.22-2.13,12,2.56l.26-.27c1-1,2.51-3.19-.08-5.64a8.44,8.44,0,0,0-4.17-2.2l.93-2a10.92,10.92,0,0,1,5.21,2.88c3.84,3.68,2.26,7.2-.15,9.72l-4.51,4.7a28,28,0,0,0-2.7,3.19Zm5.8-6.76c-2.42-2.43-5.68-4.7-8-2.27a2.8,2.8,0,0,0,0,4.24,4.37,4.37,0,0,0,5.08.83,3.21,3.21,0,0,0,.8-.62Z"/><path d="M1563.73,198.4l2.28,2.18L1548.32,219l-2.28-2.18Z"/><path d="M1561,213.56c1.26-1.31,2.22-2.4,3.15-3.5l2,1.91-1.82,2.14.06.06a6,6,0,0,1,6.18,1.49,5.12,5.12,0,0,1,1.13,5.92l0,0a7.07,7.07,0,0,1,3-.28,5.91,5.91,0,0,1,3.61,1.77c1.68,1.61,3.11,5.06-1.08,9.43l-7.09,7.4-2.23-2.14,6.81-7.11c2.33-2.43,2.82-4.73,1-6.49a4.15,4.15,0,0,0-4.69-.55,5.2,5.2,0,0,0-1.29,1l-7.46,7.78-2.23-2.14,7.23-7.54c1.92-2,2.42-4.29.69-5.95a4.39,4.39,0,0,0-5-.45,5.29,5.29,0,0,0-1.25,1l-7.26,7.58-2.23-2.14Z"/><path d="M1580.76,238.87c-2.92,3.13-2.18,6.28.11,8.48a11.78,11.78,0,0,0,4.1,2.7l-1.16,2a14.14,14.14,0,0,1-5-3.21c-3.86-3.71-3.71-8.51-.1-12.28s8.75-4.63,12.42-1.11c4.1,3.93,1.72,8.56-.5,10.87a7.75,7.75,0,0,1-1.1,1Zm8.26,4.77c1.4-1.42,3-4.27.4-6.73-2.34-2.23-5.35-1.08-7.06.34Z"/><path d="M1586.86,256l12.05-12.56,2.27,2.18-12,12.56Zm18-13.67a2,2,0,1,1,0-2.77A1.89,1.89,0,0,1,1604.87,242.31Z"/><path d="M1601.25,253.17c1.42-1.48,2.59-2.78,3.64-4l2,1.92-2.28,2.55.08.08a5.28,5.28,0,0,1,6.14.6,3.77,3.77,0,0,1,.57.67l-2.06,2.15a5,5,0,0,0-.71-.81c-1.61-1.54-3.91-1.42-5.86,0a9,9,0,0,0-1.12,1l-6.44,6.72-2.27-2.18Z"/><path d="M1608.28,276.53l1.32-1.78-.07-.07a6.49,6.49,0,0,1-5.64-1.81,5,5,0,0,1-.38-7.29c2.92-3,7.22-2.13,12,2.56l.26-.27c1-1,2.5-3.18-.08-5.64a8.51,8.51,0,0,0-4.18-2.2l.94-2a11,11,0,0,1,5.21,2.88c3.84,3.68,2.26,7.2-.16,9.72l-4.51,4.7a27.83,27.83,0,0,0-2.69,3.19Zm5.8-6.76c-2.43-2.43-5.68-4.7-8-2.27a2.8,2.8,0,0,0,0,4.24,4.36,4.36,0,0,0,5.08.83,3.66,3.66,0,0,0,.8-.61Z"/><path d="M1615.76,279.24a8.7,8.7,0,0,0,2.17,3.8c1.67,1.6,3.23,1.52,4.24.47s.94-2.32-.13-4.55c-1.48-3-1.37-5.26.08-6.76,1.94-2,5.18-2.11,7.88.48a8.45,8.45,0,0,1,2.34,3.73l-2.17,1.11a6.87,6.87,0,0,0-1.86-3.21c-1.35-1.29-2.83-1.22-3.74-.27s-.7,2.21.33,4.43c1.39,2.89,1.47,5.06-.32,6.94-2.14,2.23-5.36,2.13-8.33-.72a9.94,9.94,0,0,1-2.7-4.26Z"/><path d="M270.26,183.86a32.85,32.85,0,0,1,5.89-1.38c3.29-.47,5.55-.16,7.24,1a6,6,0,0,1,2.54,4.29,6.4,6.4,0,0,1-3.64,6.77v.09c1.92.38,3.28,1.95,4.22,4.35a39.44,39.44,0,0,0,2.8,6.33l-3.22.46a32.65,32.65,0,0,1-2.41-5.52c-1.18-3.19-2.66-4.27-5.49-4l-2.93.42,1.5,10.4-3.1.45Zm4.67,10.48,3.17-.46c3.32-.47,5.16-2.58,4.77-5.34-.45-3.11-2.9-4.14-6.17-3.68a13.41,13.41,0,0,0-3,.72Z"/><path d="M306.43,198c.26,1.81.55,3.34.83,4.7l-2.77.39-.58-2.79h-.08a6.51,6.51,0,0,1-5.24,4c-2.7.39-6.16-.65-7-6.69l-1.44-10.08,3.11-.44,1.37,9.52c.48,3.28,1.82,5.37,4.65,5a4.6,4.6,0,0,0,3.73-3.47,4.73,4.73,0,0,0,0-1.65l-1.51-10.56,3.11-.44Z"/><path d="M321.9,200.6l-.59-2.14h-.1a6.43,6.43,0,0,1-4.9,3.33,5,5,0,0,1-6-4.19c-.6-4.17,2.77-7,9.43-7.9l0-.37c-.2-1.4-1-3.94-4.5-3.41a8.45,8.45,0,0,0-4.3,1.93l-1-2a10.85,10.85,0,0,1,5.47-2.33c5.26-.76,7.07,2.66,7.56,6.11l.93,6.44a27.15,27.15,0,0,0,.85,4.09Zm-1.76-8.73c-3.4.41-7.19,1.58-6.71,4.91a2.78,2.78,0,0,0,3.35,2.58,4.36,4.36,0,0,0,3.79-3.49,3,3,0,0,0,0-1Z"/><path d="M338.62,173.68l3.12-.45,2.31,16.05c.92,6.39-1.93,8.81-6.06,9.4a10.22,10.22,0,0,1-3.4-.08l.09-2.6a7.5,7.5,0,0,0,2.69.08c2.76-.4,4.2-1.89,3.53-6.6Z"/><path d="M364.67,185.48c.92,6.38-3.11,9.81-7.25,10.4-4.67.68-8.77-2.21-9.56-7.68-.83-5.77,2.47-9.68,7.24-10.37C360.05,177.12,363.91,180.23,364.67,185.48ZM351,187.64c.55,3.78,3.12,6.32,6.18,5.88s4.85-3.57,4.28-7.48c-.41-2.91-2.41-6.39-6.14-5.85S350.56,184.38,351,187.64Z"/><path d="M379.48,192.31l-.59-2.14h-.1a6.43,6.43,0,0,1-4.9,3.33,5,5,0,0,1-6-4.19c-.6-4.17,2.77-7,9.43-7.9l-.05-.37c-.21-1.4-1-3.94-4.5-3.41a8.45,8.45,0,0,0-4.3,1.93l-1-2a10.85,10.85,0,0,1,5.47-2.33c5.26-.76,7.06,2.66,7.56,6.11l.93,6.44a27.15,27.15,0,0,0,.85,4.09Zm-11-19c-.4-2.32.37-3.85,1.89-4.07a4.79,4.79,0,0,1,2.33.47,3.54,3.54,0,0,0,1.59.39c.55-.08.85-.45.76-1.65l1.67-.24c.38,2.35-.24,3.71-1.92,4a4.74,4.74,0,0,1-2.29-.43,3.41,3.41,0,0,0-1.62-.41c-.56.08-.77.74-.7,1.74Zm9.22,10.31c-3.4.41-7.19,1.58-6.71,4.91a2.78,2.78,0,0,0,3.35,2.58,4.36,4.36,0,0,0,3.79-3.49,3,3,0,0,0,0-1Z"/><path d="M401.41,180.19c.92,6.38-3.11,9.81-7.25,10.4-4.67.68-8.77-2.21-9.56-7.68-.83-5.77,2.48-9.68,7.24-10.37C396.79,171.83,400.65,174.94,401.41,180.19Zm-13.64,2.16c.55,3.78,3.12,6.32,6.18,5.88s4.85-3.57,4.28-7.48c-.41-2.91-2.41-6.39-6.14-5.85S387.3,179.09,387.77,182.35Z"/><path d="M431,184.11a15.76,15.76,0,0,1-6.18,2.06c-6.76,1-12.45-2.58-13.59-10.46-1.08-7.54,3.27-13.33,10.73-14.41a13.24,13.24,0,0,1,5.85.24l-.4,2.63a11.65,11.65,0,0,0-5-.29c-5.64.81-8.85,5-7.94,11.26.85,5.87,4.77,9.14,10.59,8.3a12.49,12.49,0,0,0,4.94-1.72Z"/><path d="M444.16,183l-.59-2.13h-.09a6.52,6.52,0,0,1-4.9,3.33,5,5,0,0,1-6-4.19c-.6-4.17,2.77-7,9.43-7.91l0-.36c-.2-1.4-1-3.94-4.5-3.41a8.45,8.45,0,0,0-4.3,1.93l-1-2a10.93,10.93,0,0,1,5.47-2.32c5.27-.76,7.07,2.65,7.57,6.11l.92,6.44a26.4,26.4,0,0,0,.86,4.09Zm-1.75-8.72c-3.4.41-7.2,1.58-6.72,4.91a2.78,2.78,0,0,0,3.36,2.58,4.34,4.34,0,0,0,3.78-3.49,3.43,3.43,0,0,0,0-1Z"/><path d="M450,169.32c-.26-1.8-.52-3.22-.81-4.63l2.77-.4.58,2.81.08,0a6.44,6.44,0,0,1,5.24-4c2.36-.34,6.27.55,7.13,6.47l1.48,10.28-3.12.45-1.43-9.94c-.4-2.78-1.79-5-4.72-4.54a4.54,4.54,0,0,0-3.76,3.82,4.86,4.86,0,0,0,0,1.48l1.5,10.39-3.12.45Z"/><path d="M469.34,177.5l6.34-11.25c.63-1.07,1.21-2,1.87-3v-.07l-9.36,1.34-.36-2.5L481,160.11l.27,1.95L475,173.19c-.6,1-1.18,2-1.82,3v.07l10.06-1.45.36,2.51-14,2Z"/><path d="M487.15,154.25a1.91,1.91,0,0,1-1.72,2.23,1.89,1.89,0,0,1-2.17-1.68,2,2,0,1,1,3.89-.55Zm-.32,22.6-2.48-17.23,3.11-.45,2.48,17.23Z"/><path d="M680.72,124.76a32.9,32.9,0,0,1,5.89-1.37c3.29-.48,5.55-.16,7.24,1a6.07,6.07,0,0,1,2.54,4.29,6.4,6.4,0,0,1-3.65,6.77l0,.09c1.92.38,3.28,2,4.22,4.36a40.91,40.91,0,0,0,2.79,6.32l-3.21.47a31.66,31.66,0,0,1-2.41-5.53c-1.18-3.18-2.67-4.27-5.49-4l-2.93.42L687.22,148l-3.1.45Zm4.67,10.49,3.17-.46c3.32-.48,5.16-2.59,4.76-5.34-.45-3.12-2.89-4.15-6.16-3.68a13.27,13.27,0,0,0-3,.71Z"/><path d="M716.92,138.91c.26,1.81.54,3.35.82,4.7L715,144l-.57-2.8h-.09a6.48,6.48,0,0,1-5.24,4c-2.69.39-6.15-.65-7-6.69l-1.45-10.07,3.12-.45,1.37,9.52c.47,3.28,1.82,5.37,4.65,5a4.62,4.62,0,0,0,3.73-3.47,5,5,0,0,0,0-1.65L712,126.85l3.12-.45Z"/><path d="M732.38,141.5l-.59-2.14-.09,0a6.48,6.48,0,0,1-4.91,3.32,5,5,0,0,1-6-4.18c-.6-4.18,2.77-7,9.43-7.91l0-.37c-.2-1.4-1-3.94-4.5-3.41a8.45,8.45,0,0,0-4.3,1.93l-1-2a10.85,10.85,0,0,1,5.47-2.33c5.26-.76,7.07,2.66,7.56,6.11l.93,6.45a26,26,0,0,0,.86,4.08Zm-1.75-8.73c-3.41.42-7.2,1.58-6.72,4.92a2.8,2.8,0,0,0,3.36,2.58,4.37,4.37,0,0,0,3.78-3.49,3.43,3.43,0,0,0,0-1Z"/><path d="M749.11,114.58l3.12-.45,2.3,16.05c.92,6.39-1.92,8.81-6,9.4a10.28,10.28,0,0,1-3.41-.08l.09-2.6a7.5,7.5,0,0,0,2.69.08c2.77-.4,4.21-1.89,3.53-6.6Z"/><path d="M775.15,126.38c.92,6.38-3.11,9.81-7.25,10.4-4.67.68-8.78-2.21-9.56-7.68-.83-5.77,2.47-9.68,7.24-10.37C770.53,118,774.39,121.13,775.15,126.38Zm-13.64,2.17c.55,3.78,3.12,6.31,6.18,5.87s4.85-3.56,4.28-7.48c-.42-2.91-2.41-6.38-6.14-5.85S761,125.28,761.51,128.55Z"/><path d="M789.91,133.22l-.59-2.14h-.09a6.5,6.5,0,0,1-4.9,3.33,5,5,0,0,1-6-4.19c-.6-4.17,2.77-7,9.43-7.91l0-.36c-.2-1.4-1-3.94-4.49-3.41a8.45,8.45,0,0,0-4.31,1.93l-1-2a10.93,10.93,0,0,1,5.47-2.33c5.27-.76,7.07,2.65,7.57,6.11l.92,6.44a27.62,27.62,0,0,0,.86,4.09Zm-11-19c-.4-2.32.37-3.84,1.9-4.06a4.81,4.81,0,0,1,2.33.47,3.53,3.53,0,0,0,1.58.39c.56-.08.85-.45.76-1.65l1.67-.24c.38,2.35-.24,3.71-1.91,4a4.61,4.61,0,0,1-2.29-.44,3.52,3.52,0,0,0-1.62-.4c-.56.08-.78.73-.71,1.74Zm9.23,10.32c-3.4.41-7.2,1.58-6.72,4.91A2.79,2.79,0,0,0,784.8,132a4.34,4.34,0,0,0,3.78-3.49,3.43,3.43,0,0,0,0-1Z"/><path d="M811.88,121.09c.92,6.38-3.1,9.81-7.24,10.41-4.68.67-8.78-2.22-9.57-7.69-.82-5.77,2.48-9.68,7.25-10.37C807.27,112.73,811.13,115.84,811.88,121.09Zm-13.63,2.17c.54,3.78,3.12,6.31,6.18,5.87s4.84-3.56,4.28-7.47c-.42-2.92-2.42-6.39-6.14-5.86S797.78,120,798.25,123.26Z"/><path d="M841.45,125a15.5,15.5,0,0,1-6.19,2.06c-6.76,1-12.45-2.58-13.58-10.46-1.09-7.54,3.26-13.33,10.72-14.4a13.13,13.13,0,0,1,5.85.23l-.4,2.64a11.63,11.63,0,0,0-5-.3c-5.64.81-8.84,5-7.94,11.26.85,5.87,4.77,9.14,10.59,8.3a12.76,12.76,0,0,0,5-1.71Z"/><path d="M854.63,123.9l-.59-2.14H854a6.43,6.43,0,0,1-4.9,3.33,5,5,0,0,1-6-4.19c-.6-4.17,2.77-7,9.43-7.9l0-.37c-.2-1.4-1-3.94-4.49-3.41a8.49,8.49,0,0,0-4.31,1.93l-1-2a10.93,10.93,0,0,1,5.47-2.33c5.27-.76,7.07,2.66,7.57,6.11l.93,6.45a27.26,27.26,0,0,0,.85,4.08Zm-1.75-8.73c-3.4.41-7.2,1.58-6.72,4.91a2.79,2.79,0,0,0,3.36,2.58,4.34,4.34,0,0,0,3.78-3.49,3.36,3.36,0,0,0,0-1Z"/><path d="M860.47,110.22c-.26-1.8-.52-3.22-.81-4.63l2.77-.4L863,108l.08,0a6.44,6.44,0,0,1,5.24-4c2.36-.34,6.28.55,7.13,6.47l1.48,10.28-3.12.45-1.43-9.94c-.4-2.78-1.79-5-4.72-4.54a4.54,4.54,0,0,0-3.76,3.82,4.86,4.86,0,0,0,0,1.48l1.5,10.39-3.12.45Z"/><path d="M879.81,118.41l6.34-11.25c.63-1.07,1.2-2,1.87-3v-.07l-9.36,1.35-.36-2.51L891.45,101l.26,2-6.26,11.12c-.6,1-1.18,2-1.83,3l0,.07,10.06-1.44.36,2.5-14,2Z"/><path d="M897.62,95.15a2,2,0,1,1-2.21-1.67A1.9,1.9,0,0,1,897.62,95.15Zm-.32,22.6-2.48-17.23,3.12-.45,2.48,17.23Z"/><path d="M1059.14,64.63a33.29,33.29,0,0,1,5.86-1.52c3.28-.55,5.54-.29,7.26.8a6.09,6.09,0,0,1,2.65,4.23,6.41,6.41,0,0,1-3.48,6.86v.08c1.94.34,3.33,1.88,4.33,4.26a39.65,39.65,0,0,0,3,6.25l-3.21.54a32.94,32.94,0,0,1-2.54-5.46c-1.26-3.15-2.77-4.21-5.58-3.83l-2.93.5,1.76,10.36-3.09.52ZM1064.07,75l3.16-.53c3.3-.56,5.09-2.72,4.63-5.46-.52-3.11-3-4.08-6.25-3.53a13.35,13.35,0,0,0-3,.79Z"/><path d="M1095.82,77.74c.33,1.8.68,3.32,1,4.66l-2.75.51-.68-2.76h-.09a6.48,6.48,0,0,1-5.07,4.24c-2.68.5-6.18-.4-7.29-6.4l-1.87-10,3.1-.58,1.76,9.46c.61,3.26,2,5.29,4.85,4.77a4.6,4.6,0,0,0,3.58-3.63,4.82,4.82,0,0,0,0-1.65l-1.95-10.48,3.09-.58Z"/><path d="M1111.71,79.08,1111,77l-.09,0a6.5,6.5,0,0,1-4.66,3.67,5,5,0,0,1-6.25-3.76c-.9-4.12,2.27-7.18,8.85-8.56l-.08-.36c-.3-1.38-1.24-3.86-4.72-3.08a8.38,8.38,0,0,0-4.16,2.23l-1.15-1.91a11,11,0,0,1,5.29-2.71c5.2-1.13,7.24,2.15,8,5.56l1.38,6.37a28.67,28.67,0,0,0,1.14,4Zm-2.36-8.58c-3.37.65-7.07,2.08-6.36,5.37a2.78,2.78,0,0,0,3.53,2.34,4.35,4.35,0,0,0,3.53-3.75,3.25,3.25,0,0,0-.06-1Z"/><path d="M1126.5,51l3.08-.66L1133,66.23c1.37,6.31-1.3,8.92-5.38,9.8a10.06,10.06,0,0,1-3.4.16l-.1-2.6a7.41,7.41,0,0,0,2.69-.11c2.73-.59,4.06-2.18,3.06-6.83Z"/><path d="M1153.3,61c1.36,6.31-2.41,10-6.5,10.9-4.62,1-8.91-1.59-10.08-7-1.24-5.7,1.79-9.84,6.49-10.86C1148.1,53,1152.17,55.8,1153.3,61Zm-13.45,3.13c.81,3.73,3.56,6.08,6.57,5.42s4.59-3.89,3.75-7.76c-.62-2.88-2.86-6.2-6.54-5.4S1139.15,60.88,1139.85,64.11Z"/><path d="M1168.51,66.76l-.73-2.09-.1,0a6.45,6.45,0,0,1-4.65,3.67,5,5,0,0,1-6.26-3.76c-.89-4.12,2.27-7.17,8.85-8.55l-.08-.36c-.29-1.39-1.24-3.86-4.72-3.09a8.5,8.5,0,0,0-4.16,2.23l-1.15-1.91a11,11,0,0,1,5.3-2.71c5.2-1.12,7.24,2.16,8,5.57l1.38,6.36a25.88,25.88,0,0,0,1.14,4Zm-12.29-18.22c-.57-2.29.09-3.86,1.6-4.19a4.71,4.71,0,0,1,2.36.31,3.81,3.81,0,0,0,1.61.28c.55-.12.82-.52.64-1.71l1.65-.35c.54,2.32,0,3.71-1.63,4.07a4.73,4.73,0,0,1-2.32-.27,3.46,3.46,0,0,0-1.64-.29c-.56.12-.72.79-.58,1.78Zm9.93,9.64c-3.36.65-7.07,2.09-6.36,5.38a2.8,2.8,0,0,0,3.54,2.34,4.38,4.38,0,0,0,3.53-3.75,3.3,3.3,0,0,0-.07-1Z"/><path d="M1189.57,53.12c1.36,6.3-2.41,10-6.5,10.89-4.62,1-8.91-1.59-10.08-7-1.24-5.69,1.79-9.83,6.49-10.86C1184.37,45.1,1188.44,47.94,1189.57,53.12Zm-13.45,3.12c.81,3.74,3.55,6.08,6.57,5.43s4.59-3.9,3.75-7.76c-.62-2.88-2.86-6.21-6.54-5.41S1175.42,53,1176.12,56.24Z"/><path d="M1219.65,53.13a15.47,15.47,0,0,1-5.89,2.8c-6.59,1.8-12.67-1-14.77-8.7-2-7.35,1.6-13.64,8.87-15.62a13.06,13.06,0,0,1,5.83-.48l-.07,2.66a11.55,11.55,0,0,0-5,.32c-5.5,1.5-8.17,6-6.5,12.15,1.57,5.73,5.86,8.49,11.53,6.94a12.82,12.82,0,0,0,4.7-2.31Z"/><path d="M1232.62,50.4l-.84-2-.09,0a6.49,6.49,0,0,1-4.46,3.9,5,5,0,0,1-6.44-3.42c-1.11-4.07,1.88-7.29,8.38-9l-.09-.36c-.38-1.36-1.45-3.78-4.89-2.83a8.47,8.47,0,0,0-4,2.45l-1.25-1.84a11,11,0,0,1,5.14-3c5.14-1.4,7.35,1.77,8.27,5.13L1234,45.7a28,28,0,0,0,1.35,3.95ZM1229.81,42c-3.32.83-7,2.46-6.06,5.71a2.79,2.79,0,0,0,3.65,2.14,4.35,4.35,0,0,0,3.32-3.93,3.2,3.2,0,0,0-.11-1Z"/><path d="M1236.7,36.12c-.48-1.76-.91-3.13-1.37-4.5l2.7-.74.92,2.72.08,0a6.44,6.44,0,0,1,4.7-4.66c2.31-.62,6.3-.22,7.87,5.55l2.73,10-3,.83-2.64-9.69c-.74-2.71-2.38-4.71-5.24-3.93a4.55,4.55,0,0,0-3.26,4.26,4.65,4.65,0,0,0,.18,1.47l2.76,10.13-3,.82Z"/><path d="M1256.92,41.86l4.9-11.95c.5-1.14,1-2.12,1.5-3.23l0-.07-9.13,2.49-.67-2.44,12.83-3.5.5,1.91L1262,36.88c-.47,1.11-.92,2.16-1.45,3.2l0,.07,9.81-2.67.66,2.44-13.63,3.72Z"/><path d="M1271.74,16.58a1.92,1.92,0,0,1-1.43,2.43,1.89,1.89,0,0,1-2.36-1.39,2,2,0,1,1,3.79-1Zm2.46,22.48-4.58-16.8,3-.83,4.58,16.8Z"/><path class="cls-3" d="M1816,2.06V711.13a19.38,19.38,0,0,1-19.38,19.37L801,730.43"/><path class="cls-4" d="M675,730.52H23.8A20.08,20.08,0,0,1,3.72,710.44v-178"/></g></g></svg>