<svg xmlns="http://www.w3.org/2000/svg" viewBox="0 0 1592.45 667.12"><defs><style>.cls-1{fill:#cfdcfa;stroke:#000;stroke-miterlimit:10;stroke-width:4px;}</style></defs><g id="Layer_2" data-name="Layer 2"><g id="Novo_Mapa" data-name="Novo Mapa"><path class="cls-1" d="M32.19,640.24a21.39,21.39,0,0,1-20.34-28.86C28.53,566.58,60,482.18,74.41,444c17.92-47.43,173.7-336.82,207.84-400.07a21.36,21.36,0,0,1,20.43-11.17L614.44,56.18a21.4,21.4,0,0,1,16.09,33.39L538.05,225.39c-.27.41-.53.81-.78,1.24C506.36,279.56,393.49,558.45,367.61,622.7A21.38,21.38,0,0,1,348,636.1Z" transform="translate(-8.49 -6.21)"/><path class="cls-1" d="M699.55,73.71,597.2,226.44c-.23.34-.45.68-.65,1C567.75,276.65,466.47,521.05,432,605a20,20,0,0,0,19,27.66l319-7a20.05,20.05,0,0,0,19-15.23l24.75-100c5-23.9,153.16-277.27,200.23-357.36a20,20,0,0,0-13.23-29.78L720.26,65.24A20,20,0,0,0,699.55,73.71Z" transform="translate(-8.49 -6.21)"/><path class="cls-1" d="M865.32,624.07a17.7,17.7,0,0,1-17.18-22l19.45-79.93c5.28-25.35,171.61-308.75,207.6-369.9a17.7,17.7,0,0,1,19.82-8.11L1255.58,187c57.79,14.94,239.61,29.89,296,34.26a17.7,17.7,0,0,1,16.32,18.17l-67.6,354.39A17.71,17.71,0,0,1,1482.56,611Z" transform="translate(-8.49 -6.21)"/><path d="M12.43,511.9a33.52,33.52,0,0,1,1.62-5.82c1.17-3.12,2.53-4.95,4.34-5.89a6.08,6.08,0,0,1,5-.17,6.41,6.41,0,0,1,4.19,6.45l.09,0c1.25-1.5,3.28-1.94,5.84-1.61a40.5,40.5,0,0,0,6.89.58l-1.13,3a32.42,32.42,0,0,1-6-.54c-3.37-.49-5,.28-6.12,2.91l-1,2.78,9.84,3.68-1.09,2.93Zm11.44.94,1.13-3c1.17-3.14.2-5.77-2.4-6.75-3-1.1-5,.55-6.19,3.64a12.93,12.93,0,0,0-.83,3Z" transform="translate(-8.49 -6.21)"/><path d="M42.22,487c1.71.64,3.2,1.13,4.52,1.54l-1,2.62L43,490.27l0,.08a6.5,6.5,0,0,1,1,6.53c-1,2.56-3.53,5.09-9.25,2.95l-9.53-3.57,1.1-2.95,9,3.37c3.11,1.16,5.59,1,6.59-1.69a4.5,4.5,0,0,0-2.68-5.78l-10-3.74,1.11-3Z" transform="translate(-8.49 -6.21)"/><path d="M51.92,474.66l-2.16-.51,0,.08a6.49,6.49,0,0,1,.56,5.9,5,5,0,0,1-6.54,3.23c-4-1.48-4.81-5.79-2.41-12.07l-.34-.13c-1.33-.5-3.92-1.05-5.15,2.3a8.48,8.48,0,0,0-.38,4.7l-2.22-.07a10.88,10.88,0,0,1,.58-5.91c1.87-5,5.73-4.92,9-3.7l6.1,2.29a26.38,26.38,0,0,0,4,1.21ZM43.42,472c-1.27,3.18-2.07,7.07,1.08,8.25a2.79,2.79,0,0,0,3.88-1.7,4.37,4.37,0,0,0-1.24-5,3.53,3.53,0,0,0-.88-.49Z" transform="translate(-8.49 -6.21)"/><path d="M34.63,451.66l4.61-12.23,2.44.92-3.49,9.28,7.56,2.85L49,443.9l2.43.92-3.23,8.57,10.28,3.87-1.11,2.95Z" transform="translate(-8.49 -6.21)"/><path d="M52,440.33c-1.9-.79-3.53-1.42-5.06-2L48,435.81l3.2,1.21,0-.1A5.28,5.28,0,0,1,49.62,431a3.74,3.74,0,0,1,.42-.77l2.75,1.15a4.9,4.9,0,0,0-.5.95c-.86,2.06.08,4.17,2.1,5.48a9.45,9.45,0,0,0,1.31.69l8.58,3.59L63.07,445Z" transform="translate(-8.49 -6.21)"/><path d="M71.6,425.76l-2.11-.67,0,.08a6.49,6.49,0,0,1,.11,5.93,5,5,0,0,1-6.77,2.72C59,432,58.44,427.68,61.31,421.6l-.33-.16c-1.28-.59-3.83-1.33-5.31,1.91a8.44,8.44,0,0,0-.73,4.66l-2.22-.24a11,11,0,0,1,1-5.85c2.24-4.83,6.08-4.47,9.25-3l5.9,2.74a27.49,27.49,0,0,0,3.89,1.51Zm-8.27-3.29c-1.51,3.07-2.6,6.89.45,8.31a2.8,2.8,0,0,0,4-1.41,4.36,4.36,0,0,0-.86-5.07,3.51,3.51,0,0,0-.84-.56Z" transform="translate(-8.49 -6.21)"/><path d="M63.42,413.34c-1.63-.8-3-1.38-4.29-1.93l1.23-2.52L63,410l0-.08a6.41,6.41,0,0,1-.42-6.6c1-2.15,4-4.89,9.36-2.28l9.34,4.55L80,408.41l-9-4.39c-2.53-1.23-5.11-1.31-6.41,1.36a4.54,4.54,0,0,0,1.06,5.25,4.66,4.66,0,0,0,1.23.84l9.43,4.59-1.38,2.84Z" transform="translate(-8.49 -6.21)"/><path d="M88.57,389.6a12.16,12.16,0,0,1-1.32,4.92c-2.34,4.7-7.07,6.18-11.84,3.81s-6.67-7.41-4.14-12.51a10.23,10.23,0,0,1,2.79-3.52L75.93,384a7.59,7.59,0,0,0-2.4,2.94c-1.77,3.56-.08,6.83,3.16,8.44,3.61,1.79,7,.58,8.54-2.53a9.15,9.15,0,0,0,1-3.84Z" transform="translate(-8.49 -6.21)"/><path d="M72.43,373.4a1.9,1.9,0,0,1,.85,2.68,1.88,1.88,0,0,1-2.61.83,1.93,1.93,0,0,1-.88-2.65A1.89,1.89,0,0,1,72.43,373.4Zm18.36,13.19-15.55-7.82L76.65,376l15.56,7.82Z" transform="translate(-8.49 -6.21)"/><path d="M91.5,378a8.75,8.75,0,0,0,3-3.18c1-2.07.51-3.53-.79-4.19s-2.48-.23-4.3,1.44c-2.44,2.29-4.64,2.84-6.5,1.89-2.5-1.26-3.52-4.34-1.83-7.68A8.31,8.31,0,0,1,84,363l1.69,1.74a6.87,6.87,0,0,0-2.53,2.72c-.84,1.67-.34,3.06.83,3.65s2.32,0,4.14-1.6c2.36-2.17,4.41-2.88,6.73-1.71,2.76,1.39,3.6,4.51,1.74,8.18a9.82,9.82,0,0,1-3.3,3.81Z" transform="translate(-8.49 -6.21)"/><path d="M106.1,355.05a12.13,12.13,0,0,1-1.37,4.9c-2.39,4.68-7.14,6.12-11.88,3.69s-6.6-7.48-4-12.55a10.21,10.21,0,0,1,2.83-3.49l1.84,1.73a7.7,7.7,0,0,0-2.43,2.92c-1.8,3.53-.14,6.83,3.08,8.46,3.59,1.84,7,.66,8.56-2.43a9.13,9.13,0,0,0,1-3.84Z" transform="translate(-8.49 -6.21)"/><path d="M107.58,334.17c5.73,2.95,6.19,8.22,4.27,11.94-2.16,4.2-6.89,5.86-11.8,3.34-5.18-2.67-6.46-7.64-4.26-11.92C98.09,333.08,102.86,331.74,107.58,334.17Zm-6.14,12.37c3.39,1.74,7,1.11,8.36-1.63s-.09-6-3.6-7.83c-2.62-1.35-6.61-1.73-8.34,1.61S98.5,345,101.44,346.54Z" transform="translate(-8.49 -6.21)"/><path d="M105,302.81l18.7,9.71c1.37.72,3,1.46,4,1.94l-1.29,2.5-2.75-1.24,0,.07a6.38,6.38,0,0,1,.3,6.81c-1.94,3.75-6.6,5-11.29,2.56-5.18-2.66-6.65-7.49-4.7-11.25a5.8,5.8,0,0,1,4.76-3.45l0-.06-9.23-4.79Zm12.07,9.82a6.65,6.65,0,0,0-1.26-.51,4.7,4.7,0,0,0-5.35,2.39c-1.51,2.91.14,6,3.54,7.74,3.14,1.63,6.55,1.42,8.12-1.61a4.77,4.77,0,0,0-1.24-5.86,5.31,5.31,0,0,0-1.13-.76Z" transform="translate(-8.49 -6.21)"/><path d="M123.76,304.58c3.83,1.92,6.65.33,8.12-2.49a11.64,11.64,0,0,0,1.44-4.69l2.25.55a14,14,0,0,1-1.7,5.67c-2.48,4.74-7.13,5.94-11.76,3.53s-6.89-7.1-4.54-11.61c2.63-5,7.73-4.05,10.57-2.57a8,8,0,0,1,1.27.78Zm2.27-9.27c-1.76-.95-4.92-1.65-6.57,1.5-1.49,2.87.46,5.44,2.3,6.68Z" transform="translate(-8.49 -6.21)"/><path d="M138.52,285.66a11,11,0,0,0,4-4.22c1.49-2.84.88-5.29-1.29-6.43-2-1-3.78-.5-6.39,1.83-3.08,2.86-6.07,4.07-9.07,2.49-3.35-1.76-4.37-5.84-2.17-10a11.17,11.17,0,0,1,3.52-4.2l1.87,2a9.23,9.23,0,0,0-3.15,3.52c-1.55,2.95-.38,5,1.08,5.75,2,1,3.67.26,6.37-2.11,3.34-2.89,6.05-3.81,9.2-2.16,3.3,1.73,4.92,5.68,2.25,10.77a12.39,12.39,0,0,1-4.28,4.76Z" transform="translate(-8.49 -6.21)"/><path d="M149.88,253.18c5.7,3,6.12,8.28,4.17,12-2.2,4.18-7,5.8-11.84,3.23-5.16-2.72-6.39-7.69-4.14-11.95C140.4,252,145.18,250.71,149.88,253.18Zm-6.26,12.31c3.38,1.78,6.95,1.18,8.39-1.55s0-6-3.54-7.86c-2.61-1.37-6.59-1.79-8.35,1.54S140.7,264,143.62,265.49Z" transform="translate(-8.49 -6.21)"/><path d="M162.17,238.68c1.62.85,3,1.53,4.28,2.1l-1.3,2.47-2.6-1.18,0,.08a6.53,6.53,0,0,1,.18,6.61c-1.27,2.41-4.15,4.59-9.55,1.74l-9-4.75,1.47-2.79,8.5,4.49c2.93,1.55,5.41,1.69,6.75-.84a4.6,4.6,0,0,0-.62-5.06,4.73,4.73,0,0,0-1.3-1l-9.43-5,1.47-2.78Z" transform="translate(-8.49 -6.21)"/><path d="M150.8,222.41l4.43,2.34,2.13-4,2.12,1.12-2.13,4,8.3,4.39c1.91,1,3.29,1,4.12-.53a6.37,6.37,0,0,0,.65-1.73l2.2,1a8.19,8.19,0,0,1-.94,2.7,4.45,4.45,0,0,1-2.78,2.4c-1.26.32-2.78-.08-4.59-1l-8.41-4.44L154.64,231l-2.12-1.12,1.26-2.39-3.71-2Z" transform="translate(-8.49 -6.21)"/><path d="M173.87,207.81c5.69,3,6.09,8.3,4.13,12-2.21,4.18-7,5.79-11.84,3.2-5.15-2.73-6.37-7.71-4.12-12C164.39,206.61,169.18,205.33,173.87,207.81Zm-6.29,12.3c3.37,1.79,6.94,1.2,8.39-1.53s0-6-3.52-7.87c-2.6-1.38-6.59-1.81-8.35,1.51S164.66,218.56,167.58,220.11Z" transform="translate(-8.49 -6.21)"/><path d="M172.36,202.48c-1.61-.85-2.91-1.48-4.22-2.08l1.29-2.43,2.55,1.17,0-.08a6,6,0,0,1-.24-6.35,5.11,5.11,0,0,1,5.38-2.7l0-.06a6.91,6.91,0,0,1-1.08-2.8,5.91,5.91,0,0,1,.71-4c1.09-2.05,4-4.37,9.37-1.53l9.05,4.82-1.45,2.72-8.69-4.62c-3-1.58-5.33-1.42-6.52.82a4.13,4.13,0,0,0,.75,4.66,5.41,5.41,0,0,0,1.28,1l9.52,5.05-1.45,2.73-9.23-4.9c-2.44-1.3-4.78-1.15-5.9,1a4.37,4.37,0,0,0,.94,5,5.12,5.12,0,0,0,1.26.94l9.27,4.92-1.45,2.73Z" transform="translate(-8.49 -6.21)"/><path d="M202.21,173.41l-2.07-.78,0,.08a6.48,6.48,0,0,1-.21,5.92A5,5,0,0,1,193,181c-3.72-2-4-6.36-.8-12.28l-.33-.17c-1.25-.67-3.75-1.55-5.41,1.61a8.42,8.42,0,0,0-1,4.61l-2.2-.35a11,11,0,0,1,1.35-5.79c2.51-4.7,6.33-4.13,9.4-2.49l5.75,3.06a27.28,27.28,0,0,0,3.8,1.72Zm-8.08-3.74c-1.67,3-3,6.74,0,8.32a2.78,2.78,0,0,0,4.06-1.18,4.35,4.35,0,0,0-.58-5.12,3.64,3.64,0,0,0-.8-.6Z" transform="translate(-8.49 -6.21)"/><path d="M187.79,153a2,2,0,1,1-2.66.8A1.89,1.89,0,0,1,187.79,153Zm18,13.63-15.36-8.19,1.48-2.78,15.36,8.19Z" transform="translate(-8.49 -6.21)"/><path d="M209.39,141.12c5.69,3,6.07,8.31,4.1,12-2.23,4.17-7,5.76-11.86,3.16-5.14-2.75-6.34-7.73-4.07-12C199.92,139.89,204.72,138.62,209.39,141.12Zm-6.32,12.27c3.37,1.8,6.93,1.23,8.39-1.5s0-6-3.49-7.88c-2.6-1.39-6.58-1.83-8.36,1.49S200.15,151.83,203.07,153.39Z" transform="translate(-8.49 -6.21)"/><path d="M208.54,136.1c-1.81-1-3.38-1.75-4.84-2.43l1.31-2.45,3.06,1.51.06-.1a5.29,5.29,0,0,1-1.08-6.07,4.16,4.16,0,0,1,.5-.74l2.62,1.41a5.4,5.4,0,0,0-.59.9c-1.05,2-.31,4.16,1.58,5.65a7.82,7.82,0,0,0,1.24.81l8.2,4.39-1.49,2.78Z" transform="translate(-8.49 -6.21)"/><path d="M447.11,467.35a33.23,33.23,0,0,1,1.85-5.76c1.29-3.07,2.72-4.85,4.57-5.71a6.07,6.07,0,0,1,5,0,6.42,6.42,0,0,1,3.93,6.61l.08,0c1.31-1.46,3.36-1.81,5.91-1.38a41.36,41.36,0,0,0,6.86.86l-1.25,3a32.16,32.16,0,0,1-6-.77c-3.34-.63-5,.08-6.22,2.67l-1.15,2.73,9.7,4.07-1.22,2.89Zm11.4,1.38,1.24-3c1.3-3.09.44-5.76-2.13-6.84-2.91-1.22-5.05.35-6.33,3.4a13.57,13.57,0,0,0-1,3Z" transform="translate(-8.49 -6.21)"/><path d="M477.88,443.62c1.68.71,3.14,1.26,4.44,1.71l-1.08,2.58-2.69-1,0,.08a6.51,6.51,0,0,1,.75,6.57c-1.06,2.51-3.73,4.94-9.36,2.57l-9.37-3.95,1.22-2.9,8.86,3.73c3.06,1.29,5.54,1.21,6.65-1.42a4.62,4.62,0,0,0-1-5,5,5,0,0,0-1.39-.9L465,441.62l1.23-2.91Z" transform="translate(-8.49 -6.21)"/><path d="M488.07,431.73l-2.13-.6,0,.09a6.46,6.46,0,0,1,.32,5.91,5,5,0,0,1-6.67,3c-3.89-1.64-4.57-6-1.91-12.16l-.34-.15c-1.3-.55-3.87-1.2-5.24,2.09a8.51,8.51,0,0,0-.57,4.68l-2.22-.15a11.06,11.06,0,0,1,.83-5.89c2.07-4.9,5.93-4.68,9.14-3.32l6,2.53a27.52,27.52,0,0,0,3.94,1.38Zm-8.38-3c-1.4,3.13-2.36,7,.74,8.29a2.78,2.78,0,0,0,3.94-1.54,4.34,4.34,0,0,0-1-5,3.45,3.45,0,0,0-.86-.53Z" transform="translate(-8.49 -6.21)"/><path d="M473.71,403.46l1.23-2.89,14.92,6.34c5.95,2.53,6.53,6.21,4.9,10a10.36,10.36,0,0,1-1.83,2.87l-2.18-1.42a7.35,7.35,0,0,0,1.46-2.26c1.1-2.57.57-4.58-3.81-6.44Z" transform="translate(-8.49 -6.21)"/><path d="M497.31,387.32c5.93,2.54,6.77,7.76,5.13,11.61-1.86,4.34-6.45,6.34-11.54,4.17-5.36-2.28-7-7.14-5.1-11.57C487.77,386.92,492.43,385.24,497.31,387.32Zm-5.23,12.78c3.51,1.5,7,.62,8.23-2.22s-.53-6-4.16-7.55c-2.71-1.16-6.72-1.25-8.2,2.21S489,398.81,492.08,400.1Z" transform="translate(-8.49 -6.21)"/><path d="M488.89,377.69c-2.19-.87-3.09-2.32-2.49-3.74a4.89,4.89,0,0,1,1.62-1.74,3.61,3.61,0,0,0,1.16-1.15c.22-.52.06-1-1-1.51l.66-1.55c2.21.9,3,2.14,2.37,3.69a4.5,4.5,0,0,1-1.56,1.73c-.65.5-1,.77-1.19,1.17s.22,1.05,1.12,1.51Zm22,.55-2.13-.61,0,.09a6.47,6.47,0,0,1,.29,5.91,5,5,0,0,1-6.69,2.92c-3.88-1.66-4.53-6-1.84-12.17l-.34-.14c-1.3-.56-3.86-1.23-5.25,2.05a8.43,8.43,0,0,0-.59,4.68l-2.22-.17a10.87,10.87,0,0,1,.86-5.88c2.1-4.89,5.95-4.65,9.16-3.27l6,2.57a27.77,27.77,0,0,0,3.94,1.4Zm-8.36-3.05c-1.42,3.12-2.4,7,.69,8.29a2.78,2.78,0,0,0,3.95-1.52,4.36,4.36,0,0,0-1-5,3.45,3.45,0,0,0-.86-.53Z" transform="translate(-8.49 -6.21)"/><path d="M512,353.21c5.92,2.56,6.74,7.78,5.08,11.62-1.87,4.34-6.48,6.32-11.55,4.13-5.35-2.31-7-7.17-5-11.59C502.45,352.77,507.12,351.11,512,353.21ZM506.7,366c3.51,1.51,7,.64,8.24-2.2s-.5-6-4.13-7.56c-2.7-1.16-6.71-1.28-8.2,2.18S503.67,364.66,506.7,366Z" transform="translate(-8.49 -6.21)"/><path d="M502.57,336.28l1.26-2.88,19.81,8.65,4.15-9.51,2.42,1.06L524.8,346Z" transform="translate(-8.49 -6.21)"/><path d="M512.55,318.29a1.91,1.91,0,0,1,1,2.64,1.89,1.89,0,0,1-2.57,1,1.92,1.92,0,0,1-1-2.6A1.9,1.9,0,0,1,512.55,318.29Zm19,12.23-15.94-7,1.27-2.88,15.94,7Z" transform="translate(-8.49 -6.21)"/><path d="M523.32,317.66c-1.66-.74-3-1.27-4.35-1.78l1.12-2.51,2.62,1,0-.08a6,6,0,0,1-.69-6.32,5.13,5.13,0,0,1,5.19-3.07l0-.06A7.12,7.12,0,0,1,526,302.1a6,6,0,0,1,.44-4c.95-2.12,3.71-4.64,9.24-2.18l9.37,4.17-1.26,2.82-9-4c-3.08-1.37-5.41-1.05-6.44,1.27a4.13,4.13,0,0,0,1.08,4.6,4.79,4.79,0,0,0,1.34.88l9.85,4.38-1.26,2.83-9.54-4.25c-2.54-1.12-4.86-.81-5.83,1.37a4.39,4.39,0,0,0,1.28,4.89,5.25,5.25,0,0,0,1.33.86l9.59,4.26-1.25,2.83Z" transform="translate(-8.49 -6.21)"/><path d="M551.14,286.64,549,286l0,.08a6.5,6.5,0,0,1,.17,5.93,5,5,0,0,1-6.75,2.78c-3.84-1.74-4.41-6.1-1.59-12.21l-.33-.15c-1.29-.59-3.84-1.31-5.3,1.95a8.45,8.45,0,0,0-.69,4.67l-2.21-.22a10.82,10.82,0,0,1,1-5.86c2.19-4.85,6-4.53,9.22-3.09l5.93,2.69a28.53,28.53,0,0,0,3.91,1.48Zm-8.3-3.22c-1.48,3.09-2.54,6.92.52,8.31a2.8,2.8,0,0,0,4-1.44,4.38,4.38,0,0,0-.91-5.07,3.19,3.19,0,0,0-.84-.55Z" transform="translate(-8.49 -6.21)"/><path d="M540.73,248.33l19.08,8.95c1.4.66,3,1.35,4.12,1.78l-1.19,2.55-2.8-1.14,0,.08a6.38,6.38,0,0,1,.57,6.8c-1.79,3.82-6.41,5.25-11.19,3-5.28-2.45-6.94-7.22-5.14-11.06a5.81,5.81,0,0,1,4.62-3.63l0-.07-9.41-4.42Zm12.45,9.32a6.68,6.68,0,0,0-1.28-.45,4.66,4.66,0,0,0-5.24,2.6c-1.4,3,.37,6,3.83,7.59,3.21,1.5,6.61,1.16,8.06-1.93a4.77,4.77,0,0,0-1.47-5.81,5.08,5.08,0,0,0-1.16-.72Z" transform="translate(-8.49 -6.21)"/><path d="M570.36,245.85l-2.09-.72,0,.08a6.48,6.48,0,0,1,0,5.93,5,5,0,0,1-6.83,2.57c-3.79-1.86-4.22-6.24-1.21-12.25l-.33-.17c-1.27-.62-3.8-1.42-5.36,1.79a8.56,8.56,0,0,0-.83,4.65l-2.21-.29a10.94,10.94,0,0,1,1.17-5.83c2.34-4.78,6.18-4.34,9.31-2.8l5.85,2.87a26.19,26.19,0,0,0,3.85,1.6Zm-8.19-3.48c-1.58,3-2.76,6.84.27,8.32a2.78,2.78,0,0,0,4-1.32,4.35,4.35,0,0,0-.75-5.09,3.33,3.33,0,0,0-.82-.58Z" transform="translate(-8.49 -6.21)"/><path d="M573.54,230.87a10.9,10.9,0,0,0,4.25-4c1.66-2.74,1.21-5.22-.89-6.49-1.92-1.17-3.74-.73-6.49,1.43-3.25,2.66-6.31,3.68-9.21,1.92-3.23-2-4-6.1-1.54-10.14a11,11,0,0,1,3.78-4l1.74,2.08a9.1,9.1,0,0,0-3.36,3.32c-1.73,2.85-.7,4.95.72,5.81,1.92,1.17,3.64.48,6.48-1.71,3.52-2.68,6.28-3.43,9.32-1.58s4.56,6,1.58,10.89a12.43,12.43,0,0,1-4.57,4.47Z" transform="translate(-8.49 -6.21)"/><path d="M569.82,202.56a2,2,0,0,1-2.19,3.27,1.94,1.94,0,0,1-.54-2.74A1.91,1.91,0,0,1,569.82,202.56Zm16.58,15.37-14.46-9.69,1.75-2.61,14.47,9.68Z" transform="translate(-8.49 -6.21)"/><path d="M569.87,196.7l1.75-2.62,21.23,14.23-1.75,2.61Z" transform="translate(-8.49 -6.21)"/><path d="M582,193.19l10,2.59c1.66.41,3.11.84,4.53,1.32l0-.08c-1-1.13-1.91-2.35-2.93-3.71l-6.21-8.26,1.84-2.75L600,197.68l-1.69,2.51L580.14,196Z" transform="translate(-8.49 -6.21)"/><path d="M610.76,181.59l-2-1,0,.08a6.44,6.44,0,0,1-.81,5.86,5,5,0,0,1-7.11,1.64c-3.5-2.34-3.34-6.74.44-12.3l-.31-.21c-1.17-.78-3.57-1.91-5.54,1.06a8.56,8.56,0,0,0-1.45,4.49l-2.15-.57a11,11,0,0,1,1.93-5.63c3-4.42,6.71-3.47,9.61-1.53l5.41,3.63a28,28,0,0,0,3.61,2.1Zm-7.66-4.54c-2,2.81-3.64,6.41-.85,8.28a2.79,2.79,0,0,0,4.17-.77,4.36,4.36,0,0,0-.06-5.14,3.15,3.15,0,0,0-.75-.68Z" transform="translate(-8.49 -6.21)"/><path d="M820.36,571.83a32.62,32.62,0,0,1,.92-6c.78-3.23,1.92-5.21,3.6-6.36a6.07,6.07,0,0,1,4.93-.75,6.41,6.41,0,0,1,4.93,5.9l.08,0c1.07-1.64,3-2.32,5.62-2.29a41.9,41.9,0,0,0,6.91-.24l-.77,3.16a33,33,0,0,1-6,.17c-3.4-.08-5,.89-5.73,3.62l-.7,2.88,10.22,2.49-.74,3Zm11.47-.43.76-3.11c.79-3.26-.48-5.75-3.18-6.41-3.07-.75-4.93,1.14-5.72,4.35a14.15,14.15,0,0,0-.47,3.08Z" transform="translate(-8.49 -6.21)"/><path d="M847,543.51c1.77.43,3.31.74,4.66,1l-.66,2.72-2.8-.51,0,.08a6.51,6.51,0,0,1,1.78,6.37c-.64,2.64-2.9,5.46-8.83,4l-9.88-2.41.74-3.06,9.35,2.28c3.22.78,5.66.31,6.33-2.47a4.6,4.6,0,0,0-1.83-4.75,4.89,4.89,0,0,0-1.51-.67l-10.36-2.52.75-3.06Z" transform="translate(-8.49 -6.21)"/><path d="M855.13,530.13l-2.2-.25,0,.1a6.44,6.44,0,0,1,1.27,5.78,5,5,0,0,1-6.11,4c-4.1-1-5.47-5.18-3.83-11.7l-.36-.09c-1.38-.33-4-.56-4.84,2.9a8.54,8.54,0,0,0,.19,4.72l-2.22.2a11,11,0,0,1-.12-5.95c1.26-5.17,5.1-5.57,8.49-4.74l6.32,1.54a27.33,27.33,0,0,0,4.11.73Zm-8.75-1.62c-.89,3.31-1.21,7.27,2.06,8.06a2.79,2.79,0,0,0,3.64-2.15,4.36,4.36,0,0,0-1.83-4.81,3.15,3.15,0,0,0-.93-.38Z" transform="translate(-8.49 -6.21)"/><path d="M840.75,504.56l-3.07,6.72-2.41-1.1,7.48-16.34,2.41,1.11-3.09,6.75,19.65,9-1.31,2.87Z" transform="translate(-8.49 -6.21)"/><path d="M850.34,494.23l10.25,1.37c1.71.21,3.19.46,4.66.77l0-.09c-1.11-1-2.17-2.11-3.35-3.33l-7.16-7.46,1.5-2.95,12.42,14-1.36,2.69-18.53-2Z" transform="translate(-8.49 -6.21)"/><path d="M870.54,488.89a2.14,2.14,0,0,1-1-3,2.28,2.28,0,1,1,1,3Z" transform="translate(-8.49 -6.21)"/><path d="M881.51,472.17l-25.13-4.51,1.61-3L870.31,467c3.38.63,6.41,1.24,9.21,2l0-.08c-2.15-1.93-4.37-4.25-6.63-6.71l-8.62-9.3L865.9,450l17.25,19.14Z" transform="translate(-8.49 -6.21)"/><path d="M870.29,446a1.93,1.93,0,0,1,.76,2.72,1.9,1.9,0,0,1-2.65.73,2,2,0,0,1,1.89-3.45Zm17.9,13.82-15.28-8.35,1.51-2.77,15.28,8.35Z" transform="translate(-8.49 -6.21)"/><path d="M881.09,446.32c-1.59-.87-2.88-1.52-4.19-2.14l1.35-2.45,2.59,1.23,0-.08a6.41,6.41,0,0,1-.08-6.61c1.16-2.1,4.22-4.68,9.46-1.79l9.1,5-1.52,2.76-8.79-4.85c-2.47-1.36-5-1.56-6.48,1a4.57,4.57,0,0,0,.79,5.31,5.22,5.22,0,0,0,1.18.9l9.19,5.06-1.52,2.76Z" transform="translate(-8.49 -6.21)"/><path d="M884.06,420.9l4.38,2.43,2.21-4,2.09,1.16-2.21,4,8.2,4.56c1.9,1.06,3.27,1.11,4.13-.44a6.25,6.25,0,0,0,.69-1.72l2.18,1.05a8.2,8.2,0,0,1-1,2.68A4.42,4.42,0,0,1,901.9,433c-1.26.29-2.78-.14-4.57-1.14L889,427.21l-1.31,2.36-2.09-1.17,1.31-2.36-3.67-2Z" transform="translate(-8.49 -6.21)"/><path d="M901.26,419.4c3.76,2,6.63.53,8.18-2.25a11.65,11.65,0,0,0,1.58-4.64l2.23.62a14,14,0,0,1-1.87,5.61c-2.61,4.66-7.29,5.73-11.85,3.17s-6.68-7.3-4.19-11.73c2.77-5,7.85-3.82,10.64-2.25a7.1,7.1,0,0,1,1.24.82Zm2.54-9.2c-1.73-1-4.87-1.79-6.61,1.3-1.58,2.82.3,5.45,2.1,6.75Z" transform="translate(-8.49 -6.21)"/><path d="M913.84,397c3.76,2.05,6.63.55,8.19-2.21a11.63,11.63,0,0,0,1.6-4.64l2.23.62a14,14,0,0,1-1.89,5.61c-2.63,4.65-7.32,5.7-11.87,3.13s-6.65-7.33-4.15-11.76c2.8-4.94,7.87-3.78,10.66-2.21a8.12,8.12,0,0,1,1.24.83Zm2.58-9.19c-1.72-1-4.87-1.81-6.61,1.28-1.59,2.81.27,5.45,2.07,6.75Z" transform="translate(-8.49 -6.21)"/><path d="M932.74,380.13l-21.09-12,1.71-3,14.5-.69a71.07,71.07,0,0,1,9,.14v-.08c-3-1.36-5.55-2.77-8.82-4.63l-8.83-5,1.46-2.57,21.08,12-1.58,2.76-14.5.62a77.12,77.12,0,0,1-9.29-.1l0,.11c2.76,1.36,5.33,2.77,8.81,4.76l9,5.13Z" transform="translate(-8.49 -6.21)"/><path d="M944.51,341.62c5.59,3.2,5.82,8.49,3.74,12.12-2.35,4.1-7.14,5.55-11.94,2.81-5.06-2.9-6.12-7.91-3.72-12.09C935.07,340.11,939.9,339,944.51,341.62Zm-6.69,12.08c3.32,1.9,6.9,1.43,8.44-1.25s.17-6-3.26-8c-2.56-1.46-6.53-2-8.4,1.24S935,352.06,937.82,353.7Z" transform="translate(-8.49 -6.21)"/><path d="M939.57,333.06l10.17,1.9c1.69.29,3.16.62,4.61,1l0-.08c-1-1.06-2.06-2.22-3.17-3.5l-6.77-7.82,1.65-2.87,11.69,14.61-1.51,2.62L937.88,336Z" transform="translate(-8.49 -6.21)"/><path d="M956.34,322.49c3.74,2.09,6.62.61,8.21-2.15a11.6,11.6,0,0,0,1.63-4.62l2.23.64a14.19,14.19,0,0,1-1.94,5.59c-2.67,4.64-7.36,5.65-11.89,3s-6.59-7.38-4.06-11.79c2.84-4.92,7.9-3.72,10.68-2.12a7.92,7.92,0,0,1,1.23.83Zm2.65-9.16c-1.72-1-4.85-1.85-6.63,1.22-1.61,2.81.24,5.46,2,6.77Z" transform="translate(-8.49 -6.21)"/><path d="M960.71,280.05,979,290.59c1.34.78,2.88,1.6,4,2.13l-1.41,2.43-2.69-1.36,0,.07a6.38,6.38,0,0,1,0,6.82c-2.12,3.65-6.83,4.68-11.41,2-5.05-2.89-6.3-7.78-4.18-11.46A5.81,5.81,0,0,1,968.1,288l0-.06-9-5.21Zm11.61,10.35a6,6,0,0,0-1.24-.56,4.68,4.68,0,0,0-5.45,2.14c-1.64,2.84-.13,6,3.18,7.89,3.07,1.77,6.49,1.72,8.2-1.24a4.79,4.79,0,0,0-1-5.91,5.31,5.31,0,0,0-1.1-.81Z" transform="translate(-8.49 -6.21)"/><path d="M979.33,282.66c3.74,2.1,6.62.63,8.22-2.12a11.65,11.65,0,0,0,1.64-4.62l2.23.65a14.17,14.17,0,0,1-1.95,5.58c-2.69,4.63-7.38,5.62-11.9,3s-6.57-7.41-4-11.8c2.85-4.92,7.9-3.7,10.67-2.1a8,8,0,0,1,1.23.84ZM982,273.5c-1.71-1-4.85-1.86-6.63,1.21-1.62,2.8.22,5.45,2,6.78Z" transform="translate(-8.49 -6.21)"/><path d="M979.92,249.51l1.58-2.73,14,8.15c5.59,3.24,5.72,7,3.62,10.58a10.35,10.35,0,0,1-2.18,2.62l-2-1.68a7.61,7.61,0,0,0,1.73-2.06c1.4-2.42,1.13-4.47-3-6.86Z" transform="translate(-8.49 -6.21)"/><path d="M1009.9,246.23l-2-.87-.05.08a6.47,6.47,0,0,1-.44,5.91,5,5,0,0,1-7,2.08c-3.65-2.12-3.77-6.51-.34-12.3l-.32-.19c-1.23-.71-3.69-1.69-5.47,1.41a8.49,8.49,0,0,0-1.16,4.57l-2.18-.44a11,11,0,0,1,1.57-5.73c2.68-4.6,6.48-3.89,9.49-2.14l5.63,3.28a28.22,28.22,0,0,0,3.73,1.87Zm-7.93-4c-1.79,2.92-3.23,6.62-.32,8.32a2.79,2.79,0,0,0,4.1-1,4.36,4.36,0,0,0-.38-5.14,3.47,3.47,0,0,0-.79-.63Z" transform="translate(-8.49 -6.21)"/><path d="M1002.8,233.16c-1.57-.91-2.85-1.59-4.14-2.24l1.41-2.42,2.56,1.29,0-.07a6.41,6.41,0,0,1,.08-6.62c1.2-2.06,4.33-4.57,9.5-1.56l9,5.23-1.59,2.72-8.67-5.05c-2.43-1.42-5-1.69-6.49.87a4.54,4.54,0,0,0,.66,5.32,4.87,4.87,0,0,0,1.16.93l9.06,5.28-1.59,2.72Z" transform="translate(-8.49 -6.21)"/><path d="M1017.71,216.68c3.73,2.1,6.62.65,8.22-2.1a11.76,11.76,0,0,0,1.67-4.61l2.22.65a14.23,14.23,0,0,1-2,5.58c-2.7,4.62-7.4,5.6-11.91,3s-6.55-7.42-4-11.81c2.86-4.9,7.91-3.67,10.68-2.06a7.75,7.75,0,0,1,1.23.85Zm2.71-9.15c-1.71-1-4.84-1.88-6.63,1.18-1.63,2.79.2,5.46,2,6.79Z" transform="translate(-8.49 -6.21)"/><path d="M1015.45,192.42a2,2,0,1,1-2,3.39,1.93,1.93,0,0,1-.71-2.7A1.9,1.9,0,0,1,1015.45,192.42Zm17.48,14.33-15-8.79,1.59-2.72,15,8.79Z" transform="translate(-8.49 -6.21)"/><path d="M1026.84,193.42c-1.77-1-3.31-1.88-4.75-2.62l1.4-2.39,3,1.62.06-.1a5.27,5.27,0,0,1-.84-6.11,3.34,3.34,0,0,1,.52-.71l2.57,1.5a5.58,5.58,0,0,0-.62.88c-1.13,1.93-.48,4.14,1.35,5.71a8.89,8.89,0,0,0,1.21.85l8,4.7-1.59,2.72Z" transform="translate(-8.49 -6.21)"/><path d="M1043.28,171.54c5.56,3.26,5.73,8.55,3.61,12.16-2.39,4.07-7.2,5.47-12,2.68-5-2.95-6-8-3.59-12.13C1033.87,169.93,1038.71,168.85,1043.28,171.54Zm-6.81,12c3.29,1.93,6.88,1.5,8.44-1.17s.24-6-3.17-8c-2.54-1.49-6.5-2.09-8.41,1.15S1033.62,181.88,1036.47,183.55Z" transform="translate(-8.49 -6.21)"/><path d="M1516.47,576.7a32.35,32.35,0,0,1,.62-6c.62-3.26,1.65-5.3,3.28-6.53a6.07,6.07,0,0,1,4.88-1,6.41,6.41,0,0,1,5.22,5.66h.09c1-1.69,2.91-2.47,5.49-2.57a40.23,40.23,0,0,0,6.89-.59l-.6,3.19a31.3,31.3,0,0,1-6,.48c-3.4.09-4.91,1.14-5.54,3.91l-.55,2.91,10.33,2-.59,3.08Zm11.44-1,.6-3.15c.63-3.3-.77-5.72-3.5-6.25-3.1-.59-4.87,1.39-5.49,4.64a13.08,13.08,0,0,0-.31,3.1Z" transform="translate(-8.49 -6.21)"/><path d="M1541.63,547.1c1.8.34,3.34.58,4.71.75l-.52,2.75-2.83-.37,0,.09a6.5,6.5,0,0,1,2.11,6.27c-.51,2.67-2.63,5.6-8.62,4.46l-10-1.91.59-3.09,9.45,1.8c3.26.62,5.67,0,6.21-2.78a4.63,4.63,0,0,0-2.07-4.66,5,5,0,0,0-1.54-.59l-10.48-2,.59-3.1Z" transform="translate(-8.49 -6.21)"/><path d="M1549.11,533.32l-2.21-.14,0,.1a6.45,6.45,0,0,1,1.55,5.72,5,5,0,0,1-5.9,4.28c-4.14-.79-5.72-4.89-4.41-11.49l-.37-.07c-1.39-.26-4-.36-4.69,3.14a8.52,8.52,0,0,0,.43,4.7l-2.2.31a10.89,10.89,0,0,1-.43-5.93c1-5.23,4.82-5.82,8.25-5.17l6.39,1.22a28.41,28.41,0,0,0,4.15.53Zm-8.83-1.18c-.71,3.35-.84,7.32,2.47,8a2.78,2.78,0,0,0,3.53-2.33,4.36,4.36,0,0,0-2.07-4.72,3.08,3.08,0,0,0-1-.33Z" transform="translate(-8.49 -6.21)"/><path d="M1528.75,510.54l14.13,2.7c5.32,1,8-.92,8.64-4.13.67-3.51-1.23-6.25-6.47-7.24l-14.13-2.7.59-3.09,13.91,2.65c7.33,1.4,9.58,5.82,8.6,11-.93,4.86-4.41,8-11.82,6.6l-14-2.68Z" transform="translate(-8.49 -6.21)"/><path d="M1531.24,490.59l.59-3.09,25.11,4.79-.59,3.09Z" transform="translate(-8.49 -6.21)"/><path d="M1536.66,479.37a2,2,0,1,1-.73,3.86,1.93,1.93,0,0,1-1.57-2.31A1.9,1.9,0,0,1,1536.66,479.37Zm21.28,7.66-17.1-3.26.59-3.1,17.1,3.26Z" transform="translate(-8.49 -6.21)"/><path d="M1556.27,478.6a8.58,8.58,0,0,0,2-3.89c.43-2.27-.48-3.53-1.91-3.81s-2.46.47-3.74,2.58c-1.71,2.88-3.67,4-5.72,3.63-2.75-.53-4.59-3.2-3.89-6.88a8.44,8.44,0,0,1,1.86-4l2.11,1.21a6.89,6.89,0,0,0-1.68,3.31c-.35,1.84.52,3,1.81,3.28s2.24-.61,3.54-2.69c1.66-2.74,3.44-4,6-3.5,3,.57,4.71,3.33,3.94,7.38a10,10,0,0,1-2.11,4.58Z" transform="translate(-8.49 -6.21)"/><path d="M1558.94,464.6a8.63,8.63,0,0,0,2-3.89c.44-2.27-.48-3.54-1.91-3.81s-2.45.47-3.74,2.58c-1.71,2.88-3.67,4-5.72,3.62-2.75-.52-4.58-3.19-3.88-6.87a8.44,8.44,0,0,1,1.85-4l2.11,1.2a6.8,6.8,0,0,0-1.67,3.32c-.35,1.83.51,3,1.8,3.28s2.24-.62,3.54-2.69c1.66-2.74,3.44-4,6-3.51,3,.58,4.7,3.34,3.93,7.38a10,10,0,0,1-2.11,4.58Z" transform="translate(-8.49 -6.21)"/><path d="M1557.2,447.49c4.22.74,6.46-1.6,7.06-4.72a12,12,0,0,0,0-4.91l2.31-.12a14,14,0,0,1,0,5.91c-1,5.26-5.11,7.75-10.24,6.77s-8.65-4.81-7.7-9.81c1.07-5.58,6.24-6.1,9.39-5.5a7.48,7.48,0,0,1,1.44.38Zm-.5-9.53c-2-.41-5.19-.16-5.85,3.33-.61,3.17,2,5.07,4.12,5.73Z" transform="translate(-8.49 -6.21)"/><path d="M1565,432.86a8.69,8.69,0,0,0,2-3.89c.43-2.28-.49-3.54-1.92-3.81s-2.45.47-3.73,2.58c-1.71,2.87-3.67,4-5.72,3.62-2.76-.53-4.59-3.2-3.89-6.88a8.35,8.35,0,0,1,1.85-4l2.12,1.2A6.79,6.79,0,0,0,1554,425c-.35,1.83.52,3,1.81,3.28s2.24-.62,3.53-2.69c1.66-2.74,3.44-4,6-3.51,3,.58,4.7,3.34,3.93,7.38a9.94,9.94,0,0,1-2.1,4.58Z" transform="translate(-8.49 -6.21)"/><path d="M1574.75,393.07a21.8,21.8,0,0,1-.09,7.58c-.68,3.62-2.17,6.42-4.85,8.32a12.37,12.37,0,0,1-9.48,1.62c-7.11-1.36-11.38-7.25-9.86-15.23a15.41,15.41,0,0,1,2.23-5.76l2.37,1.25a12.41,12.41,0,0,0-2,5.07c-1.1,5.79,1.78,10.26,7.75,11.4s10.31-1.79,11.37-7.37a10.18,10.18,0,0,0,.14-4.21l-7.1-1.35-.92,4.82-2.47-.47,1.5-7.85Z" transform="translate(-8.49 -6.21)"/><path d="M1574.76,373.42c1.79.34,3.34.58,4.71.75l-.53,2.75-2.83-.37v.09a6.53,6.53,0,0,1,2.11,6.27c-.52,2.68-2.63,5.61-8.62,4.46l-10-1.9.59-3.1,9.45,1.8c3.26.62,5.67,0,6.2-2.78a4.61,4.61,0,0,0-2.07-4.66,4.9,4.9,0,0,0-1.54-.58l-10.47-2,.59-3.1Z" transform="translate(-8.49 -6.21)"/><path d="M1559.15,361.46a2,2,0,1,1-.73,3.86,1.94,1.94,0,0,1-1.57-2.31A1.9,1.9,0,0,1,1559.15,361.46Zm21.28,7.66-17.1-3.26.59-3.1L1581,366Z" transform="translate(-8.49 -6.21)"/><path d="M1569.53,358.46c-1.79-.34-3.22-.55-4.65-.74l.52-2.7,2.78.36,0-.09a6,6,0,0,1-2.12-6,5.14,5.14,0,0,1,4.35-4.16v-.07a7.17,7.17,0,0,1-1.85-2.36,5.91,5.91,0,0,1-.49-4c.44-2.28,2.55-5.37,8.5-4.23l10.07,1.92-.58,3-9.67-1.84c-3.31-.63-5.51.22-6,2.71a4.12,4.12,0,0,0,2.09,4.23,4.92,4.92,0,0,0,1.51.55l10.59,2-.58,3-10.26-2c-2.73-.52-4.92.31-5.36,2.66a4.37,4.37,0,0,0,2.36,4.47,5.07,5.07,0,0,0,1.49.53l10.31,2-.58,3Z" transform="translate(-8.49 -6.21)"/><path d="M1589.45,321.86l-2.22-.14v.1a6.51,6.51,0,0,1,1.55,5.72,5,5,0,0,1-5.91,4.29c-4.14-.79-5.72-4.9-4.41-11.5l-.36-.07c-1.39-.26-4-.36-4.69,3.14a8.51,8.51,0,0,0,.42,4.7l-2.2.31a11,11,0,0,1-.42-5.93c1-5.23,4.81-5.82,8.24-5.17l6.4,1.22a28.11,28.11,0,0,0,4.14.53Zm-8.83-1.18c-.71,3.35-.84,7.32,2.46,7.95a2.79,2.79,0,0,0,3.54-2.33,4.36,4.36,0,0,0-2.07-4.72,3.13,3.13,0,0,0-1-.33Z" transform="translate(-8.49 -6.21)"/><path d="M1579.11,312.06c-2-.39-3.75-.67-5.35-.88l.52-2.72,3.37.52,0-.11a5.28,5.28,0,0,1-2.84-5.48,3.39,3.39,0,0,1,.25-.85l2.93.56a4.66,4.66,0,0,0-.29,1c-.42,2.19.93,4.06,3.18,4.92a8,8,0,0,0,1.43.41l9.14,1.74-.59,3.09Z" transform="translate(-8.49 -6.21)"/><path d="M1573.29,297.62c-2.33-.38-3.52-1.61-3.24-3.12a4.75,4.75,0,0,1,1.21-2.05,3.73,3.73,0,0,0,.89-1.37c.1-.56-.15-1-1.32-1.26l.32-1.66c2.35.41,3.42,1.44,3.11,3.1a4.75,4.75,0,0,1-1.15,2,3.56,3.56,0,0,0-.92,1.4c-.1.56.45,1,1.42,1.24Zm21.58-4.19-2.21-.14,0,.09a6.45,6.45,0,0,1,1.55,5.72,5,5,0,0,1-5.9,4.29c-4.15-.79-5.72-4.9-4.42-11.5l-.36-.07c-1.39-.26-4-.36-4.69,3.15a8.53,8.53,0,0,0,.43,4.7L1577,300a11,11,0,0,1-.42-5.93c1-5.23,4.82-5.83,8.24-5.17l6.4,1.22a26.73,26.73,0,0,0,4.14.52Zm-8.83-1.19c-.71,3.36-.84,7.33,2.47,8a2.79,2.79,0,0,0,3.53-2.34,4.35,4.35,0,0,0-2.07-4.71,3.11,3.11,0,0,0-1-.34Z" transform="translate(-8.49 -6.21)"/><path d="M1588.65,282.62c4.22.74,6.46-1.6,7.06-4.72a11.75,11.75,0,0,0,0-4.91l2.32-.12a14,14,0,0,1,0,5.91c-1,5.26-5.11,7.75-10.24,6.77s-8.65-4.81-7.7-9.81c1.07-5.58,6.24-6.1,9.39-5.5a7.92,7.92,0,0,1,1.44.38Zm-.5-9.53c-2-.41-5.19-.16-5.85,3.33-.61,3.17,2,5.07,4.12,5.73Z" transform="translate(-8.49 -6.21)"/><path d="M1596.44,268a8.63,8.63,0,0,0,2-3.89c.44-2.27-.48-3.54-1.91-3.81s-2.45.47-3.74,2.58c-1.7,2.88-3.67,4-5.71,3.62-2.76-.53-4.59-3.2-3.89-6.87a8.44,8.44,0,0,1,1.85-4l2.11,1.2a6.88,6.88,0,0,0-1.67,3.32c-.35,1.83.52,3,1.8,3.28s2.24-.62,3.54-2.69c1.66-2.74,3.44-4,6-3.51,3,.58,4.7,3.34,3.93,7.38a10,10,0,0,1-2.11,4.58Z" transform="translate(-8.49 -6.21)"/><path d="M220.76,649.41a32.66,32.66,0,0,1,6-.67c3.32-.09,5.53.49,7.08,1.81a6.1,6.1,0,0,1,2,4.56,6.41,6.41,0,0,1-4.41,6.3v.09c1.86.6,3,2.32,3.68,4.82a41,41,0,0,0,2,6.61l-3.25.08a32,32,0,0,1-1.74-5.77c-.81-3.3-2.15-4.55-5-4.57l-3,.07.27,10.51-3.13.08Zm3.41,11,3.2-.08c3.36-.09,5.43-2,5.36-4.75-.08-3.15-2.39-4.46-5.69-4.38a13.78,13.78,0,0,0-3.1.36Z" transform="translate(-8.49 -6.21)"/><path d="M255,667.7c0,1.83.14,3.39.26,4.76l-2.79.07-.25-2.84h-.08a6.51,6.51,0,0,1-5.68,3.39c-2.72.07-6-1.37-6.19-7.47l-.26-10.17,3.15-.08.24,9.61c.09,3.32,1.18,5.55,4,5.47a4.59,4.59,0,0,0,4.11-3,5.07,5.07,0,0,0,.25-1.63l-.28-10.66,3.15-.08Z" transform="translate(-8.49 -6.21)"/><path d="M270.09,672.08l-.34-2.19h-.09a6.49,6.49,0,0,1-5.26,2.73,5,5,0,0,1-5.45-4.85c-.1-4.22,3.57-6.63,10.3-6.76v-.37c0-1.41-.51-4-4.07-3.91a8.5,8.5,0,0,0-4.5,1.41l-.77-2.08a11,11,0,0,1,5.7-1.68c5.32-.13,6.71,3.47,6.8,7l.17,6.51a27,27,0,0,0,.37,4.16Zm-.73-8.87c-3.42,0-7.33.73-7.24,4.09a2.79,2.79,0,0,0,3,3,4.37,4.37,0,0,0,4.17-3,3.22,3.22,0,0,0,.12-1Z" transform="translate(-8.49 -6.21)"/><path d="M284.88,647.43l13.06-.34.07,2.61-9.91.26.2,8.07,9.16-.23.07,2.59-9.16.23.28,11-3.15.08Z" transform="translate(-8.49 -6.21)"/><path d="M301.69,659.27c-.05-2-.15-3.8-.29-5.41l2.78-.07.21,3.41h.11a5.29,5.29,0,0,1,4.75-3.94,3.53,3.53,0,0,1,.88.07l.08,3a5.16,5.16,0,0,0-1.08-.06c-2.23.06-3.77,1.78-4.13,4.16a7.75,7.75,0,0,0-.09,1.48l.24,9.3-3.15.08Z" transform="translate(-8.49 -6.21)"/><path d="M323.24,670.71l-.34-2.19h-.09a6.44,6.44,0,0,1-5.26,2.73,5,5,0,0,1-5.44-4.85c-.11-4.22,3.57-6.63,10.29-6.76v-.37c0-1.41-.5-4-4.07-3.91a8.48,8.48,0,0,0-4.5,1.42l-.77-2.09a10.87,10.87,0,0,1,5.71-1.67c5.32-.14,6.71,3.46,6.8,7l.16,6.51a28.21,28.21,0,0,0,.37,4.16Zm-.72-8.87c-3.43,0-7.33.73-7.25,4.09a2.8,2.8,0,0,0,3,3,4.34,4.34,0,0,0,4.16-3,3.2,3.2,0,0,0,.13-1Z" transform="translate(-8.49 -6.21)"/><path d="M330.61,657.81c-.05-1.82-.14-3.26-.26-4.7l2.79-.07.25,2.86h.09a6.42,6.42,0,0,1,5.67-3.41c2.39-.06,6.17,1.28,6.32,7.26l.27,10.38-3.15.08-.26-10c-.07-2.81-1.19-5.14-4.15-5.07a4.56,4.56,0,0,0-4.18,3.36,4.46,4.46,0,0,0-.18,1.47l.27,10.49-3.15.08Z" transform="translate(-8.49 -6.21)"/><path d="M363.3,669.05a12,12,0,0,1-5,1.13c-5.25.14-8.78-3.34-8.92-8.66s3.42-9.38,9.11-9.52a10.26,10.26,0,0,1,4.43.81l-.64,2.45a7.72,7.72,0,0,0-3.73-.74c-4,.1-6.07,3.13-6,6.75.11,4,2.76,6.44,6.23,6.35a9.16,9.16,0,0,0,3.86-.93Z" transform="translate(-8.49 -6.21)"/><path d="M370,647.17a2,2,0,1,1-3.92.1,1.92,1.92,0,0,1,1.92-2A1.89,1.89,0,0,1,370,647.17Zm-3,22.41-.45-17.4,3.15-.08.45,17.4Z" transform="translate(-8.49 -6.21)"/><path d="M374.92,666.15a8.55,8.55,0,0,0,4.23,1.14c2.31-.06,3.35-1.23,3.31-2.68s-1-2.3-3.31-3.1c-3.17-1.06-4.71-2.73-4.75-4.82-.08-2.8,2.14-5.16,5.89-5.26a8.57,8.57,0,0,1,4.29,1l-.73,2.32a6.89,6.89,0,0,0-3.6-.93c-1.87.05-2.85,1.15-2.82,2.47s1.08,2,3.38,2.88c3,1,4.63,2.51,4.7,5.11.08,3.08-2.26,5.3-6.37,5.41a9.87,9.87,0,0,1-4.92-1.09Z" transform="translate(-8.49 -6.21)"/><path d="M402.1,668.05a12,12,0,0,1-5,1.14c-5.25.13-8.77-3.35-8.91-8.67s3.42-9.37,9.11-9.52a10.21,10.21,0,0,1,4.42.81l-.64,2.45a7.8,7.8,0,0,0-3.72-.74c-4,.1-6.07,3.13-6,6.75.1,4,2.76,6.44,6.23,6.35a9.11,9.11,0,0,0,3.85-.93Z" transform="translate(-8.49 -6.21)"/><path d="M421.14,659.32c.16,6.44-4.24,9.37-8.42,9.48-4.72.12-8.45-3.22-8.6-8.75-.15-5.82,3.59-9.32,8.41-9.45C417.53,650.47,421,654,421.14,659.32Zm-13.8.55c.1,3.82,2.36,6.64,5.45,6.56s5.23-3,5.13-6.92c-.08-3-1.66-6.63-5.42-6.53S407.26,656.57,407.34,659.87Z" transform="translate(-8.49 -6.21)"/><path d="M451.55,666.32a22.12,22.12,0,0,1-7.42,1.52c-3.68.1-6.74-.76-9.16-3a12.37,12.37,0,0,1-3.6-8.92c-.18-7.23,4.66-12.66,12.79-12.87a15.26,15.26,0,0,1,6.09,1l-.71,2.58a12.22,12.22,0,0,0-5.39-.9c-5.88.15-9.64,3.91-9.49,10s3.94,9.69,9.62,9.55a10.23,10.23,0,0,0,4.14-.76l-.18-7.23-4.91.13-.07-2.51,8-.2Z" transform="translate(-8.49 -6.21)"/><path d="M459.28,644.87a1.9,1.9,0,0,1-2,2,1.88,1.88,0,0,1-2-1.92,1.92,1.92,0,0,1,1.91-2A1.9,1.9,0,0,1,459.28,644.87Zm-3,22.41-.45-17.4,3.15-.08.45,17.4Z" transform="translate(-8.49 -6.21)"/><path d="M464.08,641.52l3.15-.08.66,25.55-3.15.08Z" transform="translate(-8.49 -6.21)"/><path d="M495.22,640.72l.55,21.06c0,1.54.14,3.28.26,4.48l-2.82.07-.24-3h-.08a6.4,6.4,0,0,1-5.82,3.56c-4.21.11-7.56-3.37-7.69-8.65-.18-5.82,3.34-9.45,7.57-9.55a5.79,5.79,0,0,1,5.32,2.5h.07l-.26-10.39ZM492.47,656a6.15,6.15,0,0,0-.17-1.34,4.68,4.68,0,0,0-4.68-3.53c-3.27.09-5.16,3-5.06,6.84.09,3.53,1.93,6.42,5.34,6.33a4.78,4.78,0,0,0,4.53-3.92,5.34,5.34,0,0,0,.12-1.36Z" transform="translate(-8.49 -6.21)"/><path d="M502.72,658c.17,4.28,2.93,6,6.11,5.89a11.84,11.84,0,0,0,4.8-1l.61,2.23a14.06,14.06,0,0,1-5.78,1.26c-5.34.14-8.65-3.34-8.79-8.56s2.87-9.48,7.95-9.61c5.68-.14,7.29,4.8,7.37,8a6.91,6.91,0,0,1-.07,1.49Zm9.2-2.51c0-2-.94-5.1-4.49-5-3.23.08-4.53,3-4.73,5.25Z" transform="translate(-8.49 -6.21)"/><path d="M530.65,657.74l-2.31,7.69-3.25.08,7.63-24.46,3.76-.1,8.91,24-3.35.09-2.79-7.56Zm7.9-2.65L536,648.17c-.57-1.57-1-3-1.36-4.39h-.09c-.31,1.43-.65,2.92-1.09,4.41l-2.21,7.09Z" transform="translate(-8.49 -6.21)"/><path d="M548.42,652.92c0-2-.15-3.8-.28-5.41l2.77-.08.21,3.41h.11a5.28,5.28,0,0,1,4.75-3.93,3.55,3.55,0,0,1,.88.06l.08,3a5.16,5.16,0,0,0-1.08-.06c-2.23.05-3.76,1.78-4.13,4.16a7.75,7.75,0,0,0-.09,1.48l.24,9.29-3.15.08Z" transform="translate(-8.49 -6.21)"/><path d="M570,664.36l-.33-2.19h-.1a6.49,6.49,0,0,1-5.25,2.73,5,5,0,0,1-5.45-4.86c-.11-4.21,3.57-6.62,10.29-6.75v-.37c0-1.41-.5-4-4.06-3.91a8.5,8.5,0,0,0-4.5,1.41l-.78-2.08a11,11,0,0,1,5.71-1.68c5.32-.13,6.71,3.47,6.8,7l.17,6.51a26.89,26.89,0,0,0,.37,4.15Zm-.72-8.88c-3.43,0-7.33.73-7.24,4.1a2.79,2.79,0,0,0,3,3,4.34,4.34,0,0,0,4.16-3,3,3,0,0,0,.13-1Z" transform="translate(-8.49 -6.21)"/><path d="M592.1,659c0,1.83.14,3.39.26,4.76l-2.79.07-.24-2.84h-.09a6.51,6.51,0,0,1-5.68,3.39c-2.72.07-6-1.37-6.19-7.47l-.26-10.17,3.15-.08.25,9.61c.08,3.32,1.17,5.55,4,5.48a4.61,4.61,0,0,0,4.11-3,5.07,5.07,0,0,0,.25-1.63l-.28-10.66,3.15-.08Zm-2.68-20.13-4.26,5.27-2.24.05,3-5.23Z" transform="translate(-8.49 -6.21)"/><path d="M593.36,668.79a5,5,0,0,0,3.42-1.43c.84-1,1.16-2.39,1.05-6.57l-.38-14.55,3.15-.09.41,15.78c.09,3.39-.4,5.6-1.9,7.23a8.06,8.06,0,0,1-5.34,2.11Zm7.5-27.56a1.9,1.9,0,0,1-2,2,1.88,1.88,0,0,1-2-1.91,1.92,1.92,0,0,1,1.94-2A1.89,1.89,0,0,1,600.86,641.23Z" transform="translate(-8.49 -6.21)"/><path d="M621.77,654.15c.16,6.44-4.23,9.38-8.42,9.49-4.72.12-8.45-3.23-8.59-8.75-.15-5.83,3.59-9.33,8.4-9.45C618.16,645.31,621.63,648.85,621.77,654.15Zm-13.8.56c.1,3.81,2.36,6.63,5.45,6.55s5.23-3,5.13-6.92c-.08-2.94-1.66-6.63-5.42-6.53S607.89,651.41,608,654.71Z" transform="translate(-8.49 -6.21)"/><path d="M900.74,632.37a33,33,0,0,1,6-.64c3.33-.07,5.53.51,7.07,1.85a6.06,6.06,0,0,1,2,4.57,6.39,6.39,0,0,1-4.44,6.27v.09c1.86.61,3,2.34,3.66,4.84a41.5,41.5,0,0,0,2,6.62l-3.25.07a33.5,33.5,0,0,1-1.71-5.78c-.79-3.31-2.13-4.57-5-4.6l-3,.06.21,10.51-3.13.06Zm3.36,11,3.2-.07c3.35-.07,5.44-1.94,5.38-4.72-.06-3.15-2.36-4.47-5.67-4.41a14,14,0,0,0-3.09.34Z" transform="translate(-8.49 -6.21)"/><path d="M934.93,650.83c0,1.83.12,3.39.24,4.76l-2.8.06-.23-2.84h-.08a6.51,6.51,0,0,1-5.7,3.36c-2.72.06-6-1.4-6.15-7.5L920,638.5l3.15-.07.2,9.62c.07,3.31,1.15,5.55,4,5.49a4.6,4.6,0,0,0,4.13-3,4.81,4.81,0,0,0,.26-1.63l-.22-10.66,3.14-.07Z" transform="translate(-8.49 -6.21)"/><path d="M950,655.29l-.32-2.19h-.1a6.45,6.45,0,0,1-5.27,2.7,5,5,0,0,1-5.42-4.88c-.08-4.22,3.6-6.61,10.33-6.7v-.37c0-1.42-.48-4-4-3.93a8.43,8.43,0,0,0-4.51,1.39l-.76-2.09a11,11,0,0,1,5.71-1.65c5.32-.11,6.69,3.5,6.76,7l.14,6.51a27.06,27.06,0,0,0,.35,4.16Zm-.67-8.88c-3.43,0-7.34.7-7.27,4.06a2.79,2.79,0,0,0,3,3,4.36,4.36,0,0,0,4.18-3,3.28,3.28,0,0,0,.13-1Z" transform="translate(-8.49 -6.21)"/><path d="M964.87,630.72l13.07-.27,0,2.61-9.92.2.17,8.07,9.16-.18.06,2.59-9.16.19.22,11-3.15.06Z" transform="translate(-8.49 -6.21)"/><path d="M981.62,642.65c0-2.06-.13-3.81-.26-5.42l2.78-.06.19,3.41h.11a5.29,5.29,0,0,1,4.77-3.91,3.53,3.53,0,0,1,.88.07l.06,3a5,5,0,0,0-1.08-.07c-2.23.05-3.77,1.76-4.15,4.14a8.61,8.61,0,0,0-.1,1.48l.2,9.3-3.15.06Z" transform="translate(-8.49 -6.21)"/><path d="M1003.11,654.19l-.32-2.19h-.1a6.47,6.47,0,0,1-5.27,2.71,5,5,0,0,1-5.42-4.89c-.08-4.21,3.61-6.61,10.33-6.7v-.37c0-1.41-.48-4-4-3.93a8.43,8.43,0,0,0-4.51,1.39l-.76-2.09a11,11,0,0,1,5.71-1.65c5.32-.1,6.69,3.5,6.77,7l.13,6.51a27.06,27.06,0,0,0,.35,4.16Zm-.67-8.87c-3.43,0-7.34.69-7.27,4a2.78,2.78,0,0,0,3,3,4.35,4.35,0,0,0,4.18-3,3.24,3.24,0,0,0,.13-1Z" transform="translate(-8.49 -6.21)"/><path d="M1010.55,641.33c0-1.82-.13-3.26-.24-4.7l2.8-.06.23,2.86h.09a6.42,6.42,0,0,1,5.68-3.38c2.4,0,6.17,1.32,6.29,7.3l.21,10.38-3.14.06-.21-10c-.06-2.82-1.17-5.15-4.13-5.09a4.55,4.55,0,0,0-4.2,3.34,5,5,0,0,0-.19,1.47L1014,654l-3.15.06Z" transform="translate(-8.49 -6.21)"/><path d="M1043.18,652.73a11.9,11.9,0,0,1-5,1.12c-5.25.1-8.76-3.4-8.87-8.72s3.47-9.35,9.16-9.47a10.12,10.12,0,0,1,4.42.84l-.65,2.44a7.76,7.76,0,0,0-3.72-.76c-4,.08-6.09,3.1-6,6.72.09,4,2.73,6.46,6.2,6.39a9.18,9.18,0,0,0,3.86-.92Z" transform="translate(-8.49 -6.21)"/><path d="M1050,630.89a1.92,1.92,0,0,1-2,2,1.89,1.89,0,0,1-2-1.93,1.93,1.93,0,0,1,1.93-2A1.91,1.91,0,0,1,1050,630.89Zm-3.08,22.4-.36-17.41,3.15-.06.36,17.4Z" transform="translate(-8.49 -6.21)"/><path d="M1054.82,649.9a8.48,8.48,0,0,0,4.22,1.15c2.31,0,3.36-1.2,3.33-2.66s-1-2.3-3.3-3.12c-3.17-1.07-4.69-2.75-4.73-4.84-.06-2.8,2.17-5.15,5.92-5.22a8.39,8.39,0,0,1,4.28,1l-.74,2.31a6.92,6.92,0,0,0-3.59-1c-1.87,0-2.86,1.14-2.83,2.45s1.06,2.06,3.36,2.9c3,1.06,4.62,2.54,4.68,5.14.06,3.08-2.29,5.29-6.4,5.38a10,10,0,0,1-4.92-1.11Z" transform="translate(-8.49 -6.21)"/><path d="M1082,651.93a11.77,11.77,0,0,1-5,1.11c-5.25.11-8.76-3.39-8.87-8.71s3.47-9.35,9.16-9.47a10.12,10.12,0,0,1,4.42.84l-.65,2.44a7.64,7.64,0,0,0-3.72-.76c-4,.08-6.09,3.1-6,6.72.09,4,2.73,6.46,6.2,6.39a9.22,9.22,0,0,0,3.86-.92Z" transform="translate(-8.49 -6.21)"/><path d="M1101.07,643.3c.13,6.44-4.29,9.35-8.47,9.44-4.72.1-8.44-3.27-8.55-8.79-.12-5.83,3.64-9.31,8.45-9.41C1097.51,634.44,1101,638,1101.07,643.3Zm-13.8.48c.08,3.82,2.33,6.65,5.41,6.59s5.25-3,5.17-6.9c-.07-2.94-1.62-6.63-5.39-6.56S1087.2,640.48,1087.27,643.78Z" transform="translate(-8.49 -6.21)"/><path d="M1131.44,650.45a22,22,0,0,1-7.43,1.49c-3.68.08-6.73-.79-9.13-3a12.33,12.33,0,0,1-3.56-8.93c-.14-7.24,4.72-12.64,12.85-12.8a15.32,15.32,0,0,1,6.09,1l-.73,2.57a12.39,12.39,0,0,0-5.38-.92c-5.88.12-9.66,3.86-9.54,9.93s3.89,9.71,9.57,9.6a10.14,10.14,0,0,0,4.14-.74l-.15-7.23-4.9.1-.06-2.5,8-.17Z" transform="translate(-8.49 -6.21)"/><path d="M1139.28,629.05a2,2,0,1,1-2-1.93A1.89,1.89,0,0,1,1139.28,629.05Zm-3.07,22.4-.36-17.41L1139,634l.36,17.4Z" transform="translate(-8.49 -6.21)"/><path d="M1144.1,625.72l3.15-.06.53,25.55-3.15.06Z" transform="translate(-8.49 -6.21)"/><path d="M1175.25,625.08l.43,21.06c0,1.55.13,3.29.24,4.49l-2.81,0-.23-3h-.08a6.39,6.39,0,0,1-5.84,3.53c-4.21.08-7.54-3.41-7.65-8.69-.15-5.82,3.39-9.43,7.63-9.52a5.79,5.79,0,0,1,5.3,2.54h.08l-.22-10.39Zm-2.83,15.29a6.24,6.24,0,0,0-.17-1.35,4.69,4.69,0,0,0-4.65-3.55c-3.28.07-5.18,3-5.1,6.81.07,3.54,1.89,6.43,5.3,6.36a4.77,4.77,0,0,0,4.55-3.89,5.37,5.37,0,0,0,.13-1.36Z" transform="translate(-8.49 -6.21)"/><path d="M1182.66,642.35c.15,4.28,2.9,6,6.08,5.92a11.6,11.6,0,0,0,4.8-1l.6,2.24a14.08,14.08,0,0,1-5.78,1.23c-5.35.11-8.64-3.39-8.75-8.61s2.92-9.46,8-9.56c5.68-.12,7.26,4.83,7.33,8a8.2,8.2,0,0,1-.08,1.48Zm9.21-2.46c0-2-.92-5.11-4.47-5-3.23.07-4.54,3-4.75,5.23Z" transform="translate(-8.49 -6.21)"/><path d="M1210.59,642.28l-2.35,7.68L1205,650l7.75-24.43,3.77-.08,8.78,24.09-3.35.07-2.75-7.57Zm7.91-2.61-2.54-6.93c-.56-1.58-1-3-1.35-4.4h-.08c-.32,1.43-.67,2.92-1.11,4.41l-2.25,7.07Z" transform="translate(-8.49 -6.21)"/><path d="M1228.38,637.55c0-2-.13-3.8-.25-5.41l2.77-.06.19,3.41h.11a5.29,5.29,0,0,1,4.77-3.91,3.53,3.53,0,0,1,.88.07l.06,3a5,5,0,0,0-1.07-.07c-2.23,0-3.78,1.76-4.16,4.14a8.56,8.56,0,0,0-.1,1.47l.2,9.3-3.15.07Z" transform="translate(-8.49 -6.21)"/><path d="M1249.87,649.1l-.32-2.19h-.09a6.47,6.47,0,0,1-5.27,2.7,5,5,0,0,1-5.42-4.88c-.09-4.22,3.6-6.61,10.32-6.7v-.37c0-1.41-.48-4-4-3.93a8.46,8.46,0,0,0-4.51,1.39l-.76-2.09a11,11,0,0,1,5.71-1.65c5.32-.11,6.69,3.5,6.77,7l.13,6.51a27.06,27.06,0,0,0,.35,4.16Zm-.67-8.88c-3.43,0-7.34.7-7.27,4.06a2.79,2.79,0,0,0,3,3,4.35,4.35,0,0,0,4.18-3,3,3,0,0,0,.13-1Z" transform="translate(-8.49 -6.21)"/><path d="M1272,643.88c0,1.82.13,3.38.24,4.76l-2.8.06-.22-2.85h-.09a6.52,6.52,0,0,1-5.7,3.35c-2.72.06-6-1.4-6.15-7.5l-.21-10.17,3.15-.07.2,9.62c.07,3.31,1.15,5.55,4,5.49a4.59,4.59,0,0,0,4.13-3,4.81,4.81,0,0,0,.26-1.63l-.22-10.66,3.15-.06Zm-2.58-20.15-4.28,5.25-2.24,0,3-5.22Z" transform="translate(-8.49 -6.21)"/><path d="M1273.24,653.65a5,5,0,0,0,3.43-1.41c.84-1,1.16-2.38,1.08-6.56l-.3-14.56,3.15-.07.32,15.78c.07,3.39-.42,5.59-1.93,7.22a8.09,8.09,0,0,1-5.36,2.09Zm7.64-27.52a2,2,0,1,1-2-1.93A1.89,1.89,0,0,1,1280.88,626.13Z" transform="translate(-8.49 -6.21)"/><path d="M1301.72,639.16c.14,6.44-4.28,9.35-8.46,9.44-4.72.1-8.44-3.27-8.55-8.79-.12-5.83,3.63-9.31,8.45-9.41C1298.16,630.3,1301.61,633.86,1301.72,639.16Zm-13.79.48c.07,3.82,2.32,6.65,5.41,6.59s5.24-3,5.16-6.9c-.06-2.94-1.62-6.63-5.38-6.56S1287.86,636.34,1287.93,639.64Z" transform="translate(-8.49 -6.21)"/><path d="M476.05,6.38a33.34,33.34,0,0,1,6.05-.06c3.32.25,5.46,1,6.87,2.52a6.09,6.09,0,0,1,1.55,4.74,6.4,6.4,0,0,1-5,5.82v.09c1.79.79,2.78,2.61,3.18,5.17A40.57,40.57,0,0,0,490,31.44l-3.24-.25a32,32,0,0,1-1.16-5.91c-.47-3.37-1.68-4.75-4.5-5.06l-3-.22-.79,10.49-3.12-.24Zm2.3,11.25,3.19.25c3.35.25,5.6-1.42,5.81-4.19.24-3.14-1.93-4.68-5.22-4.93a13.82,13.82,0,0,0-3.12,0Z" transform="translate(-8.49 -6.21)"/><path d="M508.33,28c-.13,1.83-.19,3.39-.21,4.77l-2.79-.21,0-2.85h-.08a6.49,6.49,0,0,1-6,2.8c-2.72-.2-5.87-2-5.41-8.06l.76-10.15,3.14.24-.72,9.59c-.25,3.31.61,5.64,3.46,5.85a4.61,4.61,0,0,0,4.4-2.58,4.94,4.94,0,0,0,.41-1.6l.8-10.63,3.14.23Z" transform="translate(-8.49 -6.21)"/><path d="M522.85,33.9l-.12-2.21h-.09a6.46,6.46,0,0,1-5.51,2.19,5,5,0,0,1-4.93-5.38c.32-4.21,4.22-6.24,10.92-5.68l0-.37c.11-1.41-.09-4.06-3.65-4.31a8.49,8.49,0,0,0-4.62,1l-.56-2.15a11,11,0,0,1,5.85-1.1c5.3.4,6.32,4.13,6.06,7.61l-.49,6.49a28.16,28.16,0,0,0,0,4.18ZM523,25c-3.41-.33-7.37,0-7.62,3.35a2.78,2.78,0,0,0,2.72,3.24A4.34,4.34,0,0,0,522.57,29a3.28,3.28,0,0,0,.22-1Z" transform="translate(-8.49 -6.21)"/><path d="M542.74,27.75l-3.08,7.42-3.24-.25,10.05-23.58,3.76.29,6.45,24.82-3.35-.25-2-7.8Zm8.13-1.85L549,18.76c-.4-1.62-.66-3.09-.91-4.51H548c-.46,1.39-1,2.84-1.53,4.29l-2.91,6.82Z" transform="translate(-8.49 -6.21)"/><path d="M576.6,12.31l-1.58,21c-.12,1.55-.19,3.29-.2,4.49L572,37.6l.07-3H572a6.37,6.37,0,0,1-6.15,3c-4.21-.31-7.19-4.11-6.79-9.38.41-5.81,4.28-9.06,8.5-8.74a5.84,5.84,0,0,1,5.05,3h.07l.78-10.37Zm-4.29,15a6.19,6.19,0,0,0,0-1.36,4.68,4.68,0,0,0-4.3-4c-3.27-.25-5.44,2.47-5.72,6.29-.27,3.53,1.27,6.59,4.67,6.84a4.78,4.78,0,0,0,4.9-3.44,5.48,5.48,0,0,0,.26-1.35Z" transform="translate(-8.49 -6.21)"/><path d="M589.57,38.92l-.12-2.21h-.09a6.52,6.52,0,0,1-5.51,2.19,5,5,0,0,1-4.93-5.39c.32-4.2,4.22-6.23,10.92-5.68l0-.37c.11-1.41-.09-4.05-3.65-4.3a8.48,8.48,0,0,0-4.62,1L581,22a10.9,10.9,0,0,1,5.85-1.09c5.3.4,6.32,4.12,6.06,7.6l-.49,6.5a28,28,0,0,0-.05,4.17Zm.17-8.9c-3.41-.33-7.37,0-7.62,3.34a2.78,2.78,0,0,0,2.72,3.25A4.36,4.36,0,0,0,589.29,34a3.35,3.35,0,0,0,.22-1ZM583,18c.11-2.35,1.2-3.68,2.73-3.56a4.61,4.61,0,0,1,2.17,1,3.78,3.78,0,0,0,1.47.73c.56,0,.93-.26,1.1-1.45l1.68.12c-.14,2.38-1,3.57-2.72,3.45a4.65,4.65,0,0,1-2.14-.92,3.49,3.49,0,0,0-1.5-.75c-.57,0-.91.55-1.06,1.55Z" transform="translate(-8.49 -6.21)"/><path d="M613.61,31.83c-.48,6.43-5.16,8.91-9.33,8.59-4.71-.35-8.09-4.06-7.67-9.57.43-5.81,4.51-8.92,9.31-8.56C610.91,22.67,614,26.54,613.61,31.83ZM599.83,31c-.29,3.81,1.68,6.84,4.76,7.08s5.5-2.44,5.8-6.38c.22-2.93-1-6.76-4.73-7S600.08,27.7,599.83,31Z" transform="translate(-8.49 -6.21)"/><path d="M645.93,33.16c.15-3.37.33-7.47.65-10.45h-.1c-1.11,2.72-2.41,5.67-4,8.86l-5.42,11.29-2.35-.24L632,30.73c-.81-3.53-1.45-6.72-1.84-9.65H630c-.39,3-.94,7-1.53,10.6L626.84,42l-3-.3,4.07-24,4,.39,3,12.1c.7,3.05,1.25,5.79,1.63,8.37h.09c.88-2.38,2-5,3.36-7.88l5.46-11.26,4,.39-.89,24.3-3.06-.3Z" transform="translate(-8.49 -6.21)"/><path d="M663,45.56,663,43.34h-.09a6.47,6.47,0,0,1-5.56,2.06,5,5,0,0,1-4.8-5.49c.42-4.2,4.36-6.14,11-5.43l0-.37c.14-1.4,0-4.05-3.55-4.38a8.46,8.46,0,0,0-4.64.84l-.51-2.16a11,11,0,0,1,5.87-1c5.29.53,6.23,4.27,5.88,7.75L666,41.67a27.5,27.5,0,0,0-.14,4.17Zm.39-8.9c-3.4-.41-7.37-.18-7.7,3.17a2.79,2.79,0,0,0,2.64,3.31,4.35,4.35,0,0,0,4.51-2.49,3,3,0,0,0,.25-1Z" transform="translate(-8.49 -6.21)"/><path d="M671.92,33.67c.18-1.81.27-3.25.32-4.69l2.79.27-.11,2.87H675a6.42,6.42,0,0,1,6-2.68c2.38.23,6,2,5.37,8l-1,10.33-3.13-.31,1-10c.28-2.8-.54-5.25-3.49-5.54a4.58,4.58,0,0,0-4.57,2.81,5,5,0,0,0-.36,1.44l-1,10.45-3.14-.31Z" transform="translate(-8.49 -6.21)"/><path d="M707.14,41c-.63,6.42-5.36,8.79-9.53,8.38-4.7-.47-8-4.25-7.45-9.75.58-5.8,4.72-8.82,9.52-8.34C704.66,31.78,707.66,35.72,707.14,41Zm-13.76-1.15C693,43.65,694.9,46.72,698,47s5.56-2.3,5.95-6.24c.29-2.93-.82-6.78-4.57-7.15S693.7,36.56,693.38,39.85Z" transform="translate(-8.49 -6.21)"/><path d="M712.85,42.31c-.35,4.27,2.18,6.29,5.34,6.6a11.78,11.78,0,0,0,4.89-.41l.33,2.29a13.83,13.83,0,0,1-5.89.53c-5.33-.52-8.18-4.39-7.66-9.58s4-9.05,9.07-8.55c5.66.56,6.64,5.66,6.33,8.85a7.35,7.35,0,0,1-.26,1.47ZM722.3,41c.23-2-.31-5.18-3.84-5.53-3.22-.31-4.88,2.46-5.34,4.63Z" transform="translate(-8.49 -6.21)"/><path d="M732.65,27.61l3.08.64-5.16,25-3.09-.64Z" transform="translate(-8.49 -6.21)"/><path d="M763.16,33.91,758.9,54.54c-.31,1.52-.6,3.23-.76,4.43l-2.76-.57.45-3-.08,0a6.36,6.36,0,0,1-6.47,2.14c-4.13-.85-6.6-5-5.53-10.17,1.15-5.7,5.4-8.44,9.55-7.58a5.8,5.8,0,0,1,4.61,3.65H758l2.1-10.17ZM757,48.19a6.73,6.73,0,0,0,.15-1.35,4.69,4.69,0,0,0-3.76-4.5c-3.21-.66-5.71,1.76-6.48,5.51-.72,3.46.41,6.69,3.76,7.38a4.78,4.78,0,0,0,5.3-2.79,5.28,5.28,0,0,0,.42-1.29Z" transform="translate(-8.49 -6.21)"/><path d="M772.64,62l.17-2.21h-.09A6.53,6.53,0,0,1,767,61.2a5,5,0,0,1-4.19-6c.85-4.13,5-5.64,11.55-4.23l.08-.36c.28-1.39.43-4-3.07-4.74a8.44,8.44,0,0,0-4.7.36l-.28-2.21a10.87,10.87,0,0,1,5.93-.33c5.21,1.07,5.75,4.9,5,8.31L776,58.41a27.14,27.14,0,0,0-.59,4.13Zm1.31-8.8c-3.34-.76-7.3-.95-8,2.34a2.78,2.78,0,0,0,2.28,3.57,4.36,4.36,0,0,0,4.74-2,3.15,3.15,0,0,0,.35-1Z" transform="translate(-8.49 -6.21)"/><path d="M788.1,61.26a10.84,10.84,0,0,0,5.16,2.67c3.14.65,5.32-.61,5.82-3,.46-2.21-.56-3.77-3.52-5.63-3.6-2.18-5.58-4.71-4.89-8,.76-3.7,4.4-5.81,9-4.85a11.14,11.14,0,0,1,5,2.23L803.33,47a9.3,9.3,0,0,0-4.26-2.06c-3.26-.67-4.89,1-5.23,2.63-.45,2.2.77,3.59,3.79,5.54,3.7,2.41,5.33,4.76,4.61,8.24-.75,3.65-4.1,6.3-9.73,5.14a12.49,12.49,0,0,1-5.75-2.81Z" transform="translate(-8.49 -6.21)"/><path d="M805,68.65,808.5,51.6l3.08.64-3.52,17.05Zm8-21.15A1.92,1.92,0,0,1,810.59,49a1.89,1.89,0,0,1-1.48-2.31,1.93,1.93,0,0,1,2.33-1.54A1.9,1.9,0,0,1,813,47.5Z" transform="translate(-8.49 -6.21)"/><path d="M818.41,45.33l3.09.64-5.17,25-3.09-.63Z" transform="translate(-8.49 -6.21)"/><path d="M826.27,55.27l1.36,10.25c.25,1.7.4,3.2.49,4.69l.09,0c.69-1.33,1.47-2.65,2.34-4.11l5.31-8.87,3.24.67L828.87,73.58l-3-.61-3-18.38Z" transform="translate(-8.49 -6.21)"/><path d="M847.82,77.5l.17-2.21-.09,0a6.48,6.48,0,0,1-5.74,1.47,5,5,0,0,1-4.19-6c.85-4.13,5-5.64,11.55-4.24l.08-.36c.28-1.38.42-4-3.07-4.73a8.47,8.47,0,0,0-4.71.35l-.27-2.2a11,11,0,0,1,5.93-.34c5.21,1.08,5.75,4.9,5,8.32L851.2,74a27,27,0,0,0-.58,4.13Zm1.32-8.8c-3.34-.77-7.31-1-8,2.34a2.79,2.79,0,0,0,2.28,3.56,4.35,4.35,0,0,0,4.75-2,3.44,3.44,0,0,0,.35-1Z" transform="translate(-8.49 -6.21)"/><path d="M994.84,83.45a32.86,32.86,0,0,1,6,.71c3.26.67,5.28,1.73,6.48,3.37a6.07,6.07,0,0,1,.93,4.91,6.38,6.38,0,0,1-5.72,5.12l0,.09c1.68,1,2.42,2.95,2.49,5.53a41.35,41.35,0,0,0,.48,6.9l-3.18-.66a32.47,32.47,0,0,1-.39-6c0-3.4-1.06-4.92-3.82-5.59l-2.9-.6-2.13,10.29-3.06-.63Zm.83,11.45,3.14.64c3.28.68,5.73-.68,6.29-3.4.64-3.08-1.31-4.88-4.55-5.56a13.71,13.71,0,0,0-3.09-.35Z" transform="translate(-8.49 -6.21)"/><path d="M1024,109.47c-.41,1.79-.7,3.32-.92,4.68l-2.73-.62.47-2.81-.09,0a6.5,6.5,0,0,1-6.34,1.89c-2.65-.61-5.51-2.82-4.15-8.78l2.25-9.92,3.07.7-2.13,9.38c-.73,3.23-.23,5.67,2.56,6.3a4.6,4.6,0,0,0,4.73-1.91,4.71,4.71,0,0,0,.64-1.52l2.37-10.4,3.07.7Z" transform="translate(-8.49 -6.21)"/><path d="M1037.45,117.43l.21-2.21-.09,0a6.46,6.46,0,0,1-5.77,1.35,5,5,0,0,1-4.08-6c.94-4.11,5.1-5.54,11.64-4l.09-.36c.31-1.38.5-4-3-4.79a8.49,8.49,0,0,0-4.71.26l-.23-2.21a10.88,10.88,0,0,1,5.94-.22c5.19,1.18,5.65,5,4.87,8.42l-1.44,6.35a27.86,27.86,0,0,0-.67,4.12Zm1.49-8.78c-3.33-.83-7.29-1.1-8,2.18a2.8,2.8,0,0,0,2.22,3.62,4.36,4.36,0,0,0,4.78-1.91,3.34,3.34,0,0,0,.37-.94Z" transform="translate(-8.49 -6.21)"/><path d="M1058,114.29l-4.14,6.88-3.16-.72,13.42-21.84,3.68.84,2.7,25.5-3.27-.74-.84-8Zm8.32-.63-.8-7.34c-.16-1.67-.2-3.16-.24-4.59l-.08,0c-.65,1.3-1.35,2.66-2.15,4L1059.2,112Z" transform="translate(-8.49 -6.21)"/><path d="M1093.81,104l-4.67,20.55c-.34,1.51-.67,3.22-.85,4.41l-2.75-.62.51-3-.08,0a6.35,6.35,0,0,1-6.51,2c-4.12-.94-6.5-5.14-5.33-10.29,1.26-5.68,5.57-8.33,9.7-7.39a5.83,5.83,0,0,1,4.54,3.74l.07,0,2.3-10.14Zm-6.44,14.16a6.74,6.74,0,0,0,.17-1.35,4.69,4.69,0,0,0-3.67-4.57c-3.19-.73-5.74,1.64-6.59,5.37-.79,3.45.28,6.71,3.61,7.46a4.79,4.79,0,0,0,5.36-2.68,5.29,5.29,0,0,0,.45-1.29Z" transform="translate(-8.49 -6.21)"/><path d="M1102.38,132.57l.3-2.19-.09,0a6.47,6.47,0,0,1-5.81,1.14,5,5,0,0,1-3.85-6.2c1.08-4.07,5.29-5.35,11.77-3.57l.1-.36c.36-1.36.65-4-2.8-4.9a8.54,8.54,0,0,0-4.71.09l-.15-2.22a10.87,10.87,0,0,1,5.94,0c5.14,1.37,5.46,5.22,4.56,8.58l-1.68,6.3a27.38,27.38,0,0,0-.82,4.09Zm1.82-8.71c-3.29-1-7.24-1.37-8.11,1.88a2.79,2.79,0,0,0,2.08,3.69,4.37,4.37,0,0,0,4.85-1.72,3.4,3.4,0,0,0,.4-.93Zm-4.44-13.11c.55-2.29,1.85-3.39,3.34-3a4.79,4.79,0,0,1,2,1.34,3.62,3.62,0,0,0,1.3,1c.55.14,1-.08,1.36-1.22l1.62.43c-.57,2.32-1.68,3.32-3.31,2.88a4.63,4.63,0,0,1-1.93-1.29c-.6-.57-.91-.9-1.34-1s-1,.37-1.32,1.32Z" transform="translate(-8.49 -6.21)"/><path d="M1127.32,130.05c-1.66,6.23-6.71,7.8-10.75,6.72-4.56-1.22-7.2-5.48-5.77-10.82,1.5-5.63,6.08-7.93,10.73-6.69C1126.36,120.55,1128.69,124.93,1127.32,130.05Zm-13.38-3.36c-1,3.69.38,7,3.37,7.82s5.85-1.37,6.87-5.19c.76-2.84.29-6.82-3.35-7.79S1114.79,123.5,1113.94,126.69Z" transform="translate(-8.49 -6.21)"/><path d="M1158.91,136.64c.69-3.31,1.53-7.32,2.33-10.21l-.1,0c-1.53,2.51-3.29,5.2-5.32,8.1l-7.17,10.27-2.29-.61-.84-12.18c-.23-3.61-.34-6.86-.25-9.81l-.09,0c-.86,2.9-2,6.77-3.21,10.22l-3.31,9.9-2.88-.77,7.89-23,3.86,1,1,12.41c.2,3.12.3,5.92.25,8.52l.09,0c1.25-2.21,2.76-4.58,4.59-7.23l7.21-10.24,3.87,1-4.8,23.82-3-.79Z" transform="translate(-8.49 -6.21)"/><path d="M1173.78,151.63l.3-2.19-.09,0a6.44,6.44,0,0,1-5.81,1.13,5,5,0,0,1-3.85-6.19c1.08-4.08,5.29-5.35,11.77-3.57l.1-.36c.36-1.36.66-4-2.8-4.9a8.36,8.36,0,0,0-4.71.09l-.15-2.22a11,11,0,0,1,5.94,0c5.14,1.38,5.46,5.22,4.56,8.59l-1.68,6.29a27.74,27.74,0,0,0-.82,4.1Zm1.82-8.71c-3.29-1-7.24-1.37-8.11,1.88a2.79,2.79,0,0,0,2.08,3.69,4.37,4.37,0,0,0,4.85-1.72,3.53,3.53,0,0,0,.4-.93Z" transform="translate(-8.49 -6.21)"/><path d="M1184.51,141.35c.47-1.76.79-3.17,1.08-4.58l2.7.72-.57,2.81.09,0a6.41,6.41,0,0,1,6.4-1.66c2.31.61,5.55,3,4,8.75l-2.68,10-3-.81,2.59-9.7c.72-2.72.31-5.27-2.56-6a4.53,4.53,0,0,0-5,2,4.73,4.73,0,0,0-.59,1.36l-2.71,10.13-3-.81Z" transform="translate(-8.49 -6.21)"/><path d="M1218.05,154.27c-1.66,6.22-6.71,7.8-10.75,6.72-4.56-1.22-7.2-5.48-5.78-10.82,1.51-5.63,6.08-7.94,10.74-6.69C1217.09,144.77,1219.42,149.14,1218.05,154.27Zm-13.39-3.37c-1,3.69.39,7,3.37,7.83s5.86-1.37,6.88-5.19c.76-2.85.28-6.83-3.35-7.8S1205.51,147.71,1204.66,150.9Z" transform="translate(-8.49 -6.21)"/><path d="M1223.49,156.48c-1,4.15,1.12,6.56,4.2,7.38a11.69,11.69,0,0,0,4.88.38l0,2.32a14.19,14.19,0,0,1-5.9-.43c-5.16-1.38-7.35-5.65-6-10.69s5.43-8.28,10.34-7c5.48,1.46,5.64,6.66,4.81,9.76a7.2,7.2,0,0,1-.49,1.4Zm9.54.19c.54-1.92.53-5.16-2.9-6.07-3.12-.84-5.21,1.63-6,3.69Z" transform="translate(-8.49 -6.21)"/><path d="M1243.69,143.85l3,.81-6.59,24.69-3-.81Z" transform="translate(-8.49 -6.21)"/><path d="M1273.47,151.27l-4.56,20.56c-.33,1.51-.65,3.23-.83,4.42l-2.74-.61.49-3-.08,0a6.39,6.39,0,0,1-6.5,2c-4.12-.92-6.53-5.1-5.39-10.25,1.24-5.69,5.53-8.36,9.66-7.45a5.81,5.81,0,0,1,4.56,3.72h.07l2.25-10.14Zm-6.37,14.19a6.83,6.83,0,0,0,.17-1.35,4.68,4.68,0,0,0-3.69-4.55c-3.2-.71-5.74,1.67-6.56,5.41-.77,3.45.31,6.7,3.65,7.43a4.78,4.78,0,0,0,5.34-2.71,5.14,5.14,0,0,0,.44-1.29Z" transform="translate(-8.49 -6.21)"/><path d="M1283.26,178.94l.11-2.22h-.1a6.47,6.47,0,0,1-5.69,1.63,5,5,0,0,1-4.38-5.83c.73-4.16,4.81-5.79,11.42-4.59l.07-.36c.24-1.4.3-4.05-3.22-4.64a8.4,8.4,0,0,0-4.69.5l-.34-2.2a11,11,0,0,1,5.92-.52c5.24.92,5.9,4.73,5.3,8.16l-1.13,6.42a27.42,27.42,0,0,0-.45,4.15Zm1-8.85c-3.36-.66-7.33-.73-7.91,2.59a2.78,2.78,0,0,0,2.39,3.49,4.34,4.34,0,0,0,4.68-2.14,3.44,3.44,0,0,0,.32-.95Z" transform="translate(-8.49 -6.21)"/><path d="M1298.49,177.51a10.9,10.9,0,0,0,5.31,2.36c3.18.46,5.28-.92,5.64-3.35.32-2.23-.79-3.73-3.85-5.42-3.72-2-5.85-4.37-5.36-7.73.54-3.74,4-6.06,8.73-5.38a11,11,0,0,1,5.13,1.93l-1.24,2.42a9.09,9.09,0,0,0-4.36-1.8c-3.3-.49-4.83,1.29-5.07,2.92-.33,2.23,1,3.55,4.1,5.31,3.84,2.19,5.61,4.44,5.1,8s-3.73,6.52-9.42,5.7a12.42,12.42,0,0,1-5.9-2.46Z" transform="translate(-8.49 -6.21)"/><path d="M1315.73,183.83l2.34-17.25,3.12.42-2.34,17.25Zm6.51-21.65a2,2,0,0,1-3.89-.53,1.93,1.93,0,0,1,2.22-1.69A1.9,1.9,0,0,1,1322.24,162.18Z" transform="translate(-8.49 -6.21)"/><path d="M1327.34,159.6l3.12.41-3.31,25.34-3.13-.41Z" transform="translate(-8.49 -6.21)"/><path d="M1335.79,168.92,1338,179c.38,1.68.65,3.16.86,4.64h.09c.58-1.38,1.25-2.76,2-4.28l4.59-9.27,3.28.41L1339.85,187l-3-.37-4.43-18.09Z" transform="translate(-8.49 -6.21)"/><path d="M1359,189.25l0-2.21-.09,0a6.49,6.49,0,0,1-5.6,2,5,5,0,0,1-4.7-5.58c.49-4.18,4.47-6.05,11.15-5.22l0-.37c.16-1.4.07-4.05-3.47-4.45a8.54,8.54,0,0,0-4.66.76l-.46-2.17a11,11,0,0,1,5.88-.85c5.28.62,6.15,4.38,5.75,7.85l-.76,6.47a26.76,26.76,0,0,0-.22,4.16Zm.54-8.88c-3.39-.47-7.36-.32-7.75,3a2.8,2.8,0,0,0,2.59,3.36,4.37,4.37,0,0,0,4.55-2.4,3.18,3.18,0,0,0,.26-1Z" transform="translate(-8.49 -6.21)"/></g></g></svg>