<svg xmlns="http://www.w3.org/2000/svg" viewBox="0 0 1691.09 765.63"><defs><style>.cls-1{fill:#cfdcfa;stroke:#000;stroke-miterlimit:10;stroke-width:4px;}</style></defs><g id="Layer_2" data-name="Layer 2"><g id="Layer_2-2" data-name="Layer 2"><path class="cls-1" d="M135,709.74l-4.54-60-20.9-261.23a13.22,13.22,0,0,1,13-14.38H246a13.1,13.1,0,0,0,2.93-.33c4.34-1,14.81-5,14.81-19.68,0-18.48-16.89-18.48-16.89-18.48H114.06a13.14,13.14,0,0,1-12.87-10.91L46,17.7A13.2,13.2,0,0,1,61.48,2.27L308.11,52.61A13.05,13.05,0,0,1,317,59.28c25.45,47.39,212,389.57,319.17,439.26a10.42,10.42,0,0,1,1.14.61c128.51,78.71,383.81,47.72,408.09,44.56a12.93,12.93,0,0,0,4.19-1.3c5.37-2.74,17.94-11.12,14.34-28.21-4.5-11.71-14-12.68-20-13.54a12.51,12.51,0,0,0-4.56.19c-26,5.84-268.08,31.16-370.81-37.46-96-57.75-237.75-302.48-281.76-380.3-5.54-9.8,4.33-15.5,15.27-13.52L545.53,95.51a13.13,13.13,0,0,1,10.16,9C567,140.17,624,292.49,795.83,371c229.29,98.5,474.56,22,520.89,5.89a12.93,12.93,0,0,1,13.64,3.34L1538.83,599c7.89,8.27,2.4,22.13-8.93,22.55L592.84,655.86s-30.29,0-28.78,27.71,28.17,26.17,28.17,26.17l996.35-41.34c14.65-1.77,19.65,6.52,22.22,9l86.34,86.22H139Z" transform="translate(-10.88)"/><path class="cls-1" d="M636.51,113.48l495.6,77.15a4.72,4.72,0,0,1,2.63,1.34L1273,329.52a4.91,4.91,0,0,1-2.2,8.23c-48.15,12-294.18,67.84-438.56-8.31-150.81-74-192.28-180.89-201-209.71A4.85,4.85,0,0,1,636.51,113.48Z" transform="translate(-10.88)"/><path d="M38.35,77.87a38,38,0,0,1,1.82,6.81c.68,3.82.4,6.47-.86,8.48a7.11,7.11,0,0,1-4.91,3.12,7.46,7.46,0,0,1-8-4h-.1c-.37,2.26-2.15,3.9-4.92,5.08a47.86,47.86,0,0,0-7.27,3.5l-.66-3.73a37.86,37.86,0,0,1,6.35-3c3.67-1.5,4.88-3.27,4.41-6.55l-.6-3.4L11.52,86.32l-.64-3.59Zm-12,5.84L27,87.38c.68,3.85,3.21,5.92,6.4,5.35,3.62-.63,4.73-3.52,4.06-7.32a15.83,15.83,0,0,0-.94-3.5Z" transform="translate(-10.88)"/><path d="M23.22,120.56c-2.1.37-3.88.75-5.44,1.13l-.57-3.21,3.23-.77,0-.1a7.6,7.6,0,0,1-4.89-6c-.55-3.13.54-7.19,7.54-8.43l11.68-2.07.64,3.62-11,2c-3.81.68-6.19,2.32-5.61,5.6a5.38,5.38,0,0,0,4.19,4.22,5.87,5.87,0,0,0,1.92,0l12.24-2.16.64,3.61Z" transform="translate(-10.88)"/><path d="M20.78,138.67l2.47-.77,0-.11a7.51,7.51,0,0,1-4.06-5.58,5.78,5.78,0,0,1,4.65-7.12c4.84-.86,8.26,3,9.57,10.69l.42-.07c1.63-.29,4.55-1.28,3.81-5.37a9.87,9.87,0,0,0-2.41-4.94l2.27-1.25a12.76,12.76,0,0,1,2.92,6.28c1.08,6.11-2.83,8.34-6.84,9l-7.47,1.32a32.22,32.22,0,0,0-4.73,1.14Zm10.1-2.37c-.61-4-2.11-8.33-6-7.64a3.25,3.25,0,0,0-2.88,4,5.08,5.08,0,0,0,4.21,4.28,3.84,3.84,0,0,0,1.18,0Z" transform="translate(-10.88)"/><path d="M56.28,168.33,32.09,172.6c-1.77.32-3.76.74-5.12,1.08l-.57-3.23,3.42-.8,0-.09a7.44,7.44,0,0,1-5.1-6.09c-.86-4.84,2.57-9.3,8.63-10.37,6.68-1.22,11.47,2.21,12.33,7.08.54,3.07-.53,5.39-2,6.56l0,.08,11.93-2.11Zm-18.13-.52a8.3,8.3,0,0,0,1.53-.43,5.45,5.45,0,0,0,3.25-6c-.66-3.77-4.36-5.43-8.75-4.66-4.06.72-7.08,3.34-6.38,7.26a5.57,5.57,0,0,0,5.3,4.54,6.27,6.27,0,0,0,1.59-.1Z" transform="translate(-10.88)"/><path d="M30,190.66l2.47-.77,0-.11a7.55,7.55,0,0,1-4.06-5.59A5.79,5.79,0,0,1,33,177.08c4.84-.86,8.25,3,9.56,10.69l.43-.07c1.62-.29,4.55-1.28,3.8-5.37a9.79,9.79,0,0,0-2.41-4.94l2.27-1.25a12.67,12.67,0,0,1,2.92,6.28c1.08,6.11-2.83,8.34-6.83,9.05l-7.48,1.32a32.22,32.22,0,0,0-4.73,1.14Zm10.11-2.37c-.62-3.95-2.12-8.33-6-7.64a3.24,3.24,0,0,0-2.88,4,5.06,5.06,0,0,0,4.21,4.28,3.79,3.79,0,0,0,1.17,0Z" transform="translate(-10.88)"/><path d="M61.59,207,45.08,210c-6.21,1.1-8.36,4.32-7.69,8.08.72,4.09,3.93,6.29,10,5.2l16.5-2.91.64,3.61-16.25,2.87c-8.56,1.52-12.85-2.36-13.92-8.4-1-5.69,1.48-10.55,10.14-12.09l16.4-2.9Z" transform="translate(-10.88)"/><path d="M52.39,232.38c2.09-.37,3.73-.73,5.37-1.12l.57,3.21-3.25.78,0,.1a7.51,7.51,0,0,1,4.91,6c.48,2.74-.41,7.33-7.28,8.54L40.81,252l-.64-3.61,11.53-2c3.23-.57,5.72-2.27,5.11-5.67a5.32,5.32,0,0,0-4.59-4.24,6,6,0,0,0-1.73.05l-12,2.13L37.81,235Z" transform="translate(-10.88)"/><path d="M41.86,257.89l20-3.53.64,3.61-20,3.54Zm26.35-.47a2.29,2.29,0,1,1-.79-4.51,2.25,2.25,0,0,1,2.66,1.86A2.21,2.21,0,0,1,68.21,257.42Z" transform="translate(-10.88)"/><path d="M45.53,278.64l2.47-.76,0-.11a7.57,7.57,0,0,1-4.06-5.59,5.8,5.8,0,0,1,4.66-7.12c4.84-.85,8.25,3,9.56,10.7l.43-.08c1.62-.29,4.55-1.27,3.8-5.37A9.83,9.83,0,0,0,60,265.37l2.27-1.25a12.75,12.75,0,0,1,2.92,6.29c1.08,6.11-2.83,8.33-6.83,9l-7.48,1.32a31.24,31.24,0,0,0-4.73,1.15Zm10.11-2.37c-.62-3.94-2.12-8.32-6-7.64a3.25,3.25,0,0,0-2.88,4A5.07,5.07,0,0,0,51,276.92a3.79,3.79,0,0,0,1.17,0Zm11.67-11.13c2.69-.56,4.49.28,4.81,2.05a5.64,5.64,0,0,1-.46,2.73,4.23,4.23,0,0,0-.4,1.87c.11.64.55,1,1.95.82l.34,1.94c-2.72.53-4.33-.15-4.67-2.09a5.34,5.34,0,0,1,.42-2.68,4,4,0,0,0,.41-1.9c-.11-.65-.88-.88-2-.76Z" transform="translate(-10.88)"/><path d="M60.48,303.77c-7.4,1.31-11.55-3.25-12.4-8.06-1-5.41,2.25-10.3,8.6-11.42,6.69-1.19,11.37,2.52,12.35,8C70.05,298.08,66.57,302.69,60.48,303.77Zm-3-15.8c-4.38.77-7.23,3.87-6.61,7.41s4.34,5.52,8.87,4.71c3.38-.59,7.35-3,6.59-7.37S61.23,287.3,57.44,288Z" transform="translate(-10.88)"/><path d="M336,13.79a38.15,38.15,0,0,1,7,.54c3.83.63,6.23,1.77,7.72,3.62A7.16,7.16,0,0,1,352,23.62a7.48,7.48,0,0,1-6.43,6.25l0,.1c2,1.1,3,3.32,3.17,6.33a47.34,47.34,0,0,0,.89,8l-3.74-.61a37.09,37.09,0,0,1-.74-7c-.2-4-1.47-5.69-4.72-6.33L337,29.82l-2,12.1-3.61-.59Zm1.52,13.3,3.68.6c3.86.64,6.65-1.06,7.17-4.26.6-3.63-1.76-5.63-5.56-6.26a15.64,15.64,0,0,0-3.62-.27Z" transform="translate(-10.88)"/><path d="M371.23,42.22c-.34,2.1-.57,3.91-.73,5.51l-3.22-.53.34-3.3-.1,0a7.58,7.58,0,0,1-7.24,2.64c-3.14-.51-6.62-2.89-5.47-9.91l1.92-11.71,3.63.6-1.81,11.07c-.63,3.81.13,6.61,3.42,7.14a5.35,5.35,0,0,0,5.37-2.55,5.67,5.67,0,0,0,.64-1.81l2-12.27,3.63.59Z" transform="translate(-10.88)"/><path d="M387.51,50.52l.09-2.58-.11,0a7.57,7.57,0,0,1-6.62,2,5.78,5.78,0,0,1-5.17-6.75c.79-4.85,5.53-6.81,13.26-5.49l.07-.43c.27-1.62.3-4.71-3.8-5.37a10,10,0,0,0-5.47.64l-.43-2.56a12.89,12.89,0,0,1,6.9-.67c6.13,1,6.93,5.44,6.27,9.45l-1.23,7.49a31.87,31.87,0,0,0-.48,4.85Zm1.11-10.32c-3.93-.73-8.56-.76-9.2,3.11a3.25,3.25,0,0,0,2.83,4,5.08,5.08,0,0,0,5.43-2.56,3.65,3.65,0,0,0,.36-1.12Z" transform="translate(-10.88)"/><path d="M409.83,25.51l15,2.46-.49,3L413,29.11l-1.53,9.29L422,40.13l-.49,3-10.55-1.73L408.87,54l-3.62-.59Z" transform="translate(-10.88)"/><path d="M426.49,42.75c.39-2.37.66-4.39.86-6.27l3.19.52L430,41l.13,0a6.16,6.16,0,0,1,6.3-3.47,4.06,4.06,0,0,1,1,.26l-.56,3.43a5.79,5.79,0,0,0-1.23-.31c-2.56-.42-4.69,1.22-5.64,3.86a9.17,9.17,0,0,0-.42,1.68l-1.76,10.7-3.62-.59Z" transform="translate(-10.88)"/><path d="M448.68,60.55l.09-2.58-.11,0a7.55,7.55,0,0,1-6.61,2,5.79,5.79,0,0,1-5.18-6.75c.79-4.86,5.53-6.82,13.26-5.49l.07-.43c.27-1.62.3-4.72-3.8-5.37a9.92,9.92,0,0,0-5.47.64L440.5,40a12.81,12.81,0,0,1,6.9-.67c6.13,1,6.93,5.44,6.28,9.45l-1.23,7.49a33.18,33.18,0,0,0-.49,4.85Zm1.11-10.32c-3.93-.73-8.56-.77-9.2,3.11a3.25,3.25,0,0,0,2.84,4,5.07,5.07,0,0,0,5.43-2.55,3.94,3.94,0,0,0,.36-1.12Z" transform="translate(-10.88)"/><path d="M459.93,47.38c.34-2.09.55-3.76.72-5.44l3.22.53-.34,3.33h.1a7.5,7.5,0,0,1,7.24-2.66c2.76.45,6.79,2.81,5.66,9.69l-1.95,12L471,64.2l1.89-11.55c.53-3.24-.24-6.15-3.65-6.71a5.31,5.31,0,0,0-5.52,2.93,5.61,5.61,0,0,0-.53,1.65l-2,12.08-3.62-.6Z" transform="translate(-10.88)"/><path d="M494.92,67.39a13.9,13.9,0,0,1-5.93.21c-6.05-1-9.33-5.75-8.32-11.87s6-10,12.51-8.92a12,12,0,0,1,4.89,1.9l-1.27,2.66a9,9,0,0,0-4.1-1.66c-4.57-.75-7.64,2.27-8.31,6.43-.76,4.64,1.75,8,5.75,8.64a10.56,10.56,0,0,0,4.61-.23Z" transform="translate(-10.88)"/><path d="M499.07,68.81l3.29-20,3.62.59-3.28,20Zm8.29-25a2.29,2.29,0,1,1-1.88-2.63A2.21,2.21,0,0,1,507.36,43.78Z" transform="translate(-10.88)"/><path d="M508.86,66.61a10,10,0,0,0,4.59,2.21c2.66.44,4.11-.66,4.39-2.34s-.63-2.84-3.13-4.28c-3.4-1.9-4.79-4.15-4.39-6.55.53-3.23,3.59-5.45,7.9-4.74a9.73,9.73,0,0,1,4.7,2l-1.34,2.5a8,8,0,0,0-3.92-1.86c-2.15-.35-3.52.7-3.76,2.21-.28,1.66.78,2.59,3.24,4,3.24,1.85,4.75,3.89,4.27,6.88-.58,3.55-3.75,5.58-8.49,4.81a11.62,11.62,0,0,1-5.4-2.32Z" transform="translate(-10.88)"/><path d="M539.57,74.71a13.94,13.94,0,0,1-5.94.21c-6-1-9.32-5.75-8.32-11.87s6-10,12.52-8.92a12,12,0,0,1,4.89,1.9l-1.27,2.66a9,9,0,0,0-4.1-1.66c-4.57-.75-7.64,2.27-8.32,6.43-.76,4.64,1.76,8,5.76,8.64a10.56,10.56,0,0,0,4.61-.23Z" transform="translate(-10.88)"/><path d="M563.28,68.85c-1.22,7.42-6.9,9.82-11.71,9-5.43-.9-9-5.54-7.94-11.9,1.1-6.71,6.15-9.91,11.69-9C561.08,57.94,564.28,62.75,563.28,68.85Zm-15.92-2.37c-.72,4.4,1.25,8.12,4.81,8.7s6.64-2.26,7.38-6.81c.56-3.39-.45-8-4.78-8.66S548,62.68,547.36,66.48Z" transform="translate(-10.88)"/><path d="M597.1,54.68l-4,24.25c-.29,1.78-.55,3.79-.68,5.19l-3.24-.53.38-3.5h-.1a7.43,7.43,0,0,1-7.44,2.8c-4.85-.79-7.92-5.51-6.93-11.58,1.07-6.71,5.89-10.09,10.77-9.29a6.77,6.77,0,0,1,5.55,4h.08l2-12Zm-6.49,16.94a8.39,8.39,0,0,0,.1-1.59,5.45,5.45,0,0,0-4.59-5c-3.77-.62-6.57,2.32-7.29,6.72-.67,4.07.8,7.78,4.73,8.42a5.57,5.57,0,0,0,6-3.5,6.22,6.22,0,0,0,.44-1.53Z" transform="translate(-10.88)"/><path d="M601.92,76.06c-.73,4.94,2.06,7.48,5.72,8.08a13.73,13.73,0,0,0,5.71-.11l.22,2.69a16.45,16.45,0,0,1-6.89.18c-6.16-1-9.19-5.72-8.2-11.73s5.35-10.22,11.2-9.27c6.53,1.08,7.3,7.09,6.7,10.78a9.25,9.25,0,0,1-.41,1.69Zm11.1-.87c.41-2.29,0-6-4.06-6.72-3.72-.61-5.86,2.49-6.56,5Z" transform="translate(-10.88)"/><path d="M628.24,85.48a12.77,12.77,0,0,0,6.14,2.86c3.69.6,6.18-1,6.64-3.79.42-2.59-.84-4.37-4.37-6.39-4.3-2.37-6.73-5.23-6.09-9.13.71-4.35,4.85-7,10.29-6.09a12.89,12.89,0,0,1,5.94,2.36l-1.49,2.79a10.74,10.74,0,0,0-5.06-2.19c-3.83-.63-5.65,1.41-6,3.31-.43,2.59,1.06,4.15,4.67,6.27,4.43,2.63,6.44,5.3,5.77,9.39-.7,4.28-4.47,7.53-11.09,6.45a14.42,14.42,0,0,1-6.83-3Z" transform="translate(-10.88)"/><path d="M668.35,86.08c-1.21,7.42-6.89,9.82-11.71,9-5.43-.89-9-5.54-7.94-11.9,1.1-6.7,6.15-9.9,11.69-9C666.15,75.16,669.35,80,668.35,86.08Zm-15.92-2.37c-.72,4.39,1.25,8.11,4.81,8.7s6.64-2.27,7.38-6.81c.56-3.39-.45-8-4.78-8.67S653.05,79.91,652.43,83.71Z" transform="translate(-10.88)"/><path d="M688.93,94.31c-.34,2.1-.57,3.91-.73,5.51L685,99.29l.34-3.31h-.1A7.58,7.58,0,0,1,678,98.61c-3.14-.51-6.61-2.89-5.46-9.91L674.44,77l3.62.59-1.81,11.07c-.63,3.82.14,6.61,3.42,7.15A5.37,5.37,0,0,0,685,93.25a5.5,5.5,0,0,0,.64-1.82l2-12.27,3.63.6Z" transform="translate(-10.88)"/><path d="M702.71,75.7l-1,5.77,5.24.86-.46,2.76-5.23-.86L699.54,95c-.41,2.49.07,4,2.11,4.35a7.23,7.23,0,0,0,2.16.09l-.29,2.79a9.54,9.54,0,0,1-3.34,0A5.21,5.21,0,0,1,696.5,100c-.82-1.27-.94-3.1-.56-5.46l1.8-10.94-3.1-.5.45-2.76,3.1.5.79-4.82Z" transform="translate(-10.88)"/><path d="M727.37,95.76c-1.22,7.42-6.89,9.82-11.71,9-5.43-.89-9-5.54-7.94-11.9,1.1-6.7,6.15-9.9,11.69-9C725.17,84.84,728.37,89.65,727.37,95.76Zm-15.92-2.37c-.72,4.39,1.25,8.11,4.81,8.69s6.64-2.26,7.38-6.81c.56-3.39-.45-8-4.78-8.66S712.07,89.59,711.45,93.39Z" transform="translate(-10.88)"/><path d="M732.7,92.1c.34-2.09.54-3.76.72-5.44l3.16.52-.33,3.26h.1a7,7,0,0,1,6.93-2.64,6,6,0,0,1,5,4.94h.08A8.16,8.16,0,0,1,751,90.53a6.87,6.87,0,0,1,4.64-.69c2.67.44,6.33,2.81,5.18,9.78l-1.93,11.79-3.56-.58,1.86-11.33c.64-3.88-.42-6.41-3.33-6.89A4.83,4.83,0,0,0,749,95.18a5.92,5.92,0,0,0-.59,1.78l-2,12.4-3.55-.58,2-12c.52-3.19-.51-5.71-3.27-6.16a5.07,5.07,0,0,0-5.13,2.89,5.63,5.63,0,0,0-.57,1.75l-2,12.07-3.56-.58Z" transform="translate(-10.88)"/><path d="M776,114.2l.09-2.58-.11,0a7.51,7.51,0,0,1-6.61,2,5.8,5.8,0,0,1-5.18-6.76c.8-4.85,5.53-6.81,13.26-5.49l.07-.42c.27-1.63.31-4.72-3.8-5.37a9.78,9.78,0,0,0-5.46.64l-.43-2.56a12.69,12.69,0,0,1,6.9-.67c6.12,1,6.93,5.43,6.27,9.44l-1.23,7.5a31.63,31.63,0,0,0-.48,4.84Zm1.11-10.32c-3.93-.73-8.56-.76-9.19,3.11A3.25,3.25,0,0,0,770.7,111a5.1,5.1,0,0,0,5.43-2.55,4,4,0,0,0,.36-1.12Z" transform="translate(-10.88)"/><path d="M784.8,115.66l3.29-20,3.62.6-3.28,20Zm8.29-25a2.22,2.22,0,0,1-2.69,1.88,2.2,2.2,0,0,1-1.83-2.62,2.25,2.25,0,0,1,2.64-1.9A2.21,2.21,0,0,1,793.09,90.63Z" transform="translate(-10.88)"/><path d="M814.3,110c-1.21,7.42-6.89,9.82-11.71,9-5.43-.89-9-5.54-7.94-11.9,1.1-6.7,6.15-9.9,11.69-9C812.1,99.09,815.3,103.91,814.3,110Zm-15.92-2.37c-.72,4.39,1.25,8.11,4.81,8.7s6.64-2.27,7.38-6.81c.56-3.39-.45-8-4.78-8.67S799,103.84,798.38,107.64Z" transform="translate(-10.88)"/><path d="M819.49,107.18c.39-2.37.66-4.39.85-6.27l3.2.53-.51,4,.13,0a6.15,6.15,0,0,1,6.3-3.47,3.76,3.76,0,0,1,1,.27l-.57,3.42a7,7,0,0,0-1.22-.31c-2.57-.42-4.7,1.22-5.64,3.87a8.86,8.86,0,0,0-.42,1.67l-1.76,10.71-3.62-.6Z" transform="translate(-10.88)"/><path d="M955.86,657.7a39.66,39.66,0,0,1,7-1c3.87-.18,6.46.43,8.3,1.93a7.08,7.08,0,0,1,2.47,5.26,7.47,7.47,0,0,1-5,7.46v.1c2.19.65,3.6,2.63,4.42,5.52a49.12,49.12,0,0,0,2.55,7.65l-3.78.19a38.35,38.35,0,0,1-2.19-6.68c-1-3.82-2.62-5.25-5.93-5.2l-3.45.17.59,12.24-3.65.17Zm4.27,12.69,3.73-.19c3.9-.19,6.27-2.43,6.12-5.67-.18-3.67-2.9-5.13-6.75-4.95a15.72,15.72,0,0,0-3.6.49Z" transform="translate(-10.88)"/><path d="M996.3,678.11c.1,2.12.26,3.94.44,5.54l-3.26.15-.36-3.3H993a7.6,7.6,0,0,1-6.53,4.11c-3.17.15-7.07-1.45-7.41-8.55l-.58-11.85,3.67-.17.55,11.19c.18,3.86,1.51,6.44,4.84,6.27a5.39,5.39,0,0,0,4.72-3.62,5.88,5.88,0,0,0,.24-1.9l-.6-12.42,3.66-.18Z" transform="translate(-10.88)"/><path d="M1014,682.81l-.44-2.55h-.11a7.56,7.56,0,0,1-6.06,3.32,5.78,5.78,0,0,1-6.47-5.51c-.24-4.91,4-7.82,11.81-8.15l0-.43c-.08-1.64-.69-4.67-4.84-4.45a9.85,9.85,0,0,0-5.21,1.77l-1-2.41a12.63,12.63,0,0,1,6.6-2.1c6.19-.31,7.91,3.86,8.11,7.92l.37,7.58a30.68,30.68,0,0,0,.54,4.84Zm-1.07-10.32c-4,.1-8.53,1-8.34,5a3.25,3.25,0,0,0,3.62,3.36,5.06,5.06,0,0,0,4.77-3.63,3.73,3.73,0,0,0,.12-1.17Z" transform="translate(-10.88)"/><path d="M1030.56,654.08a48.14,48.14,0,0,1,7.73-1c5.23-.26,9,.8,11.62,3s4.27,5.37,4.49,9.92-1,8.45-3.53,11.18-6.84,4.42-12.31,4.68a58.86,58.86,0,0,1-6.65,0Zm4.88,24.81a26.54,26.54,0,0,0,3.68,0c7.82-.36,11.82-4.92,11.45-12.56-.28-6.67-4.26-10.7-12-10.33a22,22,0,0,0-4.25.58Z" transform="translate(-10.88)"/><path d="M1077.74,669.36c.36,7.5-4.69,11-9.56,11.28-5.5.26-9.94-3.54-10.25-10-.33-6.79,3.94-11,9.54-11.24C1073.3,659.15,1077.44,663.18,1077.74,669.36Zm-16.06,1c.21,4.45,2.92,7.67,6.52,7.5s6-3.61,5.79-8.21c-.16-3.43-2.1-7.68-6.48-7.46S1061.49,666.53,1061.68,670.37Z" transform="translate(-10.88)"/><path d="M1085.76,653.26a2.29,2.29,0,1,1-4.57.22,2.25,2.25,0,0,1,2.18-2.41A2.22,2.22,0,0,1,1085.76,653.26Zm-2.85,26.2-1-20.27,3.67-.18,1,20.27Z" transform="translate(-10.88)"/><path d="M1092,675.25a10.07,10.07,0,0,0,5,1.21c2.69-.13,3.87-1.52,3.79-3.21s-1.2-2.65-4-3.53c-3.72-1.15-5.55-3.05-5.66-5.48-.16-3.27,2.36-6.08,6.72-6.29a9.78,9.78,0,0,1,5,1l-.79,2.72a8,8,0,0,0-4.22-1c-2.17.11-3.29,1.42-3.22,2.95s1.31,2.36,4,3.27c3.56,1.13,5.45,2.8,5.61,5.83.18,3.59-2.49,6.24-7.28,6.47a11.57,11.57,0,0,1-5.77-1.13Z" transform="translate(-10.88)"/><path d="M398.11,128l-4.49-7.35,2.63-1.61,10.91,17.88-2.63,1.6L400,131.11l-21.51,13.13-1.91-3.14Z" transform="translate(-10.88)"/><path d="M401.79,143.41l-7.64,9.33c-1.25,1.56-2.4,2.88-3.61,4.15l.06.09c1.68-.48,3.43-.86,5.36-1.28l11.78-2.54,2,3.29-21.48,3.76-1.83-3L399.73,140Z" transform="translate(-10.88)"/><path d="M394.79,166.73a2.49,2.49,0,0,1,3.58.75,2.65,2.65,0,1,1-3.58-.75Z" transform="translate(-10.88)"/><path d="M414.93,201.44a25.51,25.51,0,0,1-5.85-6.61c-2.24-3.66-3.16-7.24-2.33-11a14.45,14.45,0,0,1,6.92-8.83c7.2-4.39,15.5-2.66,20.43,5.43a17.72,17.72,0,0,1,2.58,6.72l-3,.77a14.39,14.39,0,0,0-2.23-6c-3.57-5.86-9.56-7.47-15.61-3.78s-7.5,9.61-4.05,15.26a11.86,11.86,0,0,0,3.18,3.75l7.19-4.39-3-4.89,2.49-1.52,4.86,8Z" transform="translate(-10.88)"/><path d="M435.2,217.22c-6.42,3.92-11.94,1.18-14.48-3-2.87-4.7-1.66-10.42,3.83-13.78,5.8-3.54,11.52-1.8,14.44,3C442,208.43,440.47,214,435.2,217.22Zm-8.59-13.61c-3.8,2.32-5.33,6.24-3.45,9.32s6,3.55,10,1.15c2.93-1.79,5.73-5.53,3.45-9.27S429.89,201.6,426.61,203.61Z" transform="translate(-10.88)"/><path d="M441.45,218.88c1.8-1.11,3.2-2,4.59-3l1.67,2.74L445,220.48l.05.09a7,7,0,0,1,6.52,3.53,6,6,0,0,1-.49,7l0,.07a8.17,8.17,0,0,1,3.45.58,6.91,6.91,0,0,1,3.54,3.06c1.41,2.32,2,6.63-4,10.31l-10.2,6.23L442,248.27l9.79-6c3.36-2,4.59-4.5,3.05-7a4.8,4.8,0,0,0-5.12-2,5.88,5.88,0,0,0-1.74.7l-10.72,6.55-1.88-3.07,10.4-6.35c2.75-1.69,4-4.12,2.54-6.5a5.1,5.1,0,0,0-5.54-2,5.65,5.65,0,0,0-1.7.71l-10.44,6.37-1.88-3.07Z" transform="translate(-10.88)"/><path d="M456.21,253.29c-4.22,2.66-4.32,6.44-2.39,9.6a13.58,13.58,0,0,0,3.81,4.26l-1.9,1.91a16.38,16.38,0,0,1-4.63-5.1c-3.25-5.32-1.66-10.69,3.54-13.86s11.24-2.62,14.32,2.44c3.45,5.65-.6,10.16-3.79,12.1a8.87,8.87,0,0,1-1.54.8Zm7.9,7.84c2-1.18,4.6-3.93,2.44-7.46-2-3.22-5.7-2.81-8.05-1.72Z" transform="translate(-10.88)"/><path d="M460.94,272a10,10,0,0,0,1.31,4.93c1.41,2.3,3.19,2.67,4.64,1.79s1.74-2.33,1.2-5.15c-.78-3.83,0-6.35,2.1-7.61,2.79-1.7,6.47-.83,8.74,2.89a9.85,9.85,0,0,1,1.53,4.9l-2.77.61a8,8,0,0,0-1.15-4.17c-1.14-1.86-2.83-2.22-4.13-1.42s-1.45,2.28-1,5.09c.71,3.67.15,6.14-2.43,7.72-3.07,1.88-6.67.81-9.17-3.29a11.54,11.54,0,0,1-1.77-5.6Z" transform="translate(-10.88)"/><path d="M504.76,292.16,485,306.75c-1.45,1.07-3,2.33-4.11,3.24l-1.95-2.64,2.71-2.23-.06-.08a7.44,7.44,0,0,1-7.28-3.18c-2.92-4-1.83-9.48,3.12-13.13,5.44-4.06,11.25-3.12,14.19.85a6.79,6.79,0,0,1,1.16,6.76l.05.06,9.75-7.2Zm-16.47,7.59a6.94,6.94,0,0,0,1.18-1.06,5.46,5.46,0,0,0,.24-6.82c-2.27-3.07-6.32-2.92-9.91-.27-3.32,2.45-4.85,6.13-2.49,9.33a5.87,5.87,0,0,0,8.15.91Z" transform="translate(-10.88)"/><path d="M493.3,310.84c-4,3-3.74,6.79-1.54,9.77a13.64,13.64,0,0,0,4.18,3.9l-1.73,2.08a16.27,16.27,0,0,1-5.06-4.68c-3.71-5-2.59-10.5,2.3-14.11s11-3.6,14.49,1.17c3.93,5.33.29,10.17-2.72,12.39a8.66,8.66,0,0,1-1.46.92Zm8.55,7.11c1.9-1.35,4.24-4.32,1.79-7.65-2.24-3-5.94-2.29-8.18-1Z" transform="translate(-10.88)"/><path d="M505.59,335.94a12.76,12.76,0,0,0,2.4,6.34c2.22,3,5.1,3.61,7.4,1.91,2.11-1.56,2.44-3.71,1.32-7.63-1.42-4.68-1.17-8.43,2-10.78,3.55-2.62,8.35-1.61,11.62,2.82a12.93,12.93,0,0,1,2.61,5.83l-3,1a10.7,10.7,0,0,0-2.09-5.1c-2.31-3.12-5-2.93-6.58-1.79-2.11,1.56-2.13,3.71-1,7.75,1.34,5,.92,8.29-2.41,10.75-3.49,2.58-8.46,2.28-12.44-3.11a14.47,14.47,0,0,1-2.81-6.91Z" transform="translate(-10.88)"/><path d="M533.9,364.36c-6,4.46-11.79,2.22-14.69-1.7-3.27-4.43-2.57-10.23,2.62-14.06,5.46-4,11.31-2.8,14.64,1.71C539.94,355,538.87,360.68,533.9,364.36Zm-9.75-12.81c-3.58,2.65-4.76,6.69-2.62,9.59s6.33,3,10,.27c2.76-2,5.22-6,2.62-9.54S527.24,349.27,524.15,351.55Z" transform="translate(-10.88)"/><path d="M542.91,384.61c-1.72,1.26-3.14,2.4-4.37,3.43l-1.94-2.62,2.55-2.13-.06-.08a7.56,7.56,0,0,1-7-3.16c-1.89-2.55-2.72-6.68,3-10.91l9.54-7,2.18,2.95-9,6.66c-3.11,2.3-4.52,4.83-2.54,7.51a5.39,5.39,0,0,0,5.63,1.92,5.54,5.54,0,0,0,1.72-.86l10-7.38,2.18,3Z" transform="translate(-10.88)"/><path d="M542.45,389.72l15,.3c1.45.05,2.71.14,4.14.26l.07,0-6.55-8.87,2.37-1.76,9.21,12.47-1.86,1.35L550,393.14c-1.4-.05-2.73-.1-4.09-.23l-.07,0,7,9.54-2.37,1.75L540.72,391Z" transform="translate(-10.88)"/><path d="M559.45,416.36l1.87-1.79-.07-.08a7.57,7.57,0,0,1-6.12-3.2,5.8,5.8,0,0,1,1-8.45c4-2.92,8.72-1,13.33,5.32l.35-.25c1.32-1,3.51-3.17,1-6.5a9.84,9.84,0,0,0-4.36-3.35l1.48-2.14a12.77,12.77,0,0,1,5.41,4.33c3.68,5,1.17,8.73-2.1,11.14l-6.11,4.51a31.67,31.67,0,0,0-3.72,3.14Zm8-6.62c-2.31-3.26-5.6-6.51-8.76-4.18a3.25,3.25,0,0,0-.79,4.87,5.08,5.08,0,0,0,5.67,2,4,4,0,0,0,1-.55Z" transform="translate(-10.88)"/><path d="M742.33,292.08a38.11,38.11,0,0,1,5.85,3.65c3,2.28,4.59,4.35,5,6.63a7,7,0,0,1-1.42,5.5,7.31,7.31,0,0,1-8.4,2.5l-.06.08c1.24,1.86,1.06,4.22-.12,6.91a45.67,45.67,0,0,0-2.86,7.34l-3-2.23a36.55,36.55,0,0,1,2.52-6.38c1.62-3.51,1.31-5.59-1.21-7.61l-2.7-2L728.8,316,726,313.86Zm-4.71,12.2,2.92,2.19c3.05,2.3,6.24,2.09,8.14-.45,2.16-2.86,1-5.66-2-7.93a15.22,15.22,0,0,0-3-1.87Z" transform="translate(-10.88)"/><path d="M761.09,332.19c-1.16,1.73-2.09,3.24-2.89,4.6L755.56,335l1.64-2.8-.08,0a7.42,7.42,0,0,1-7.51-.59c-2.57-1.73-4.7-5.25-.83-11l6.46-9.63,3,2-6.1,9.1c-2.11,3.13-2.56,5.93.14,7.74a5.24,5.24,0,0,0,5.81-.09,5.61,5.61,0,0,0,1.3-1.35l6.77-10.09,3,2Z" transform="translate(-10.88)"/><path d="M773.62,346l1-2.32-.1-.06a7.37,7.37,0,0,1-6.73-.49,5.66,5.66,0,0,1-2.38-8c2.41-4.15,7.42-4.3,14-.4l.21-.37c.81-1.39,1.91-4.2-1.61-6.22a9.66,9.66,0,0,0-5.21-1.32l.5-2.48a12.55,12.55,0,0,1,6.53,1.78c5.24,3,4.44,7.37,2.44,10.8l-3.72,6.42a31.64,31.64,0,0,0-2.12,4.25Zm4.6-9c-3.33-2-7.55-3.66-9.47-.35a3.17,3.17,0,0,0,1.18,4.68,5,5,0,0,0,5.84-.45,3.86,3.86,0,0,0,.72-.89Z" transform="translate(-10.88)"/><path d="M809.4,361.76a17.87,17.87,0,0,1-7.25-1.59c-7.19-3-10.69-9.77-7.21-18.15,3.32-8,11-11.14,18.88-7.85a14.94,14.94,0,0,1,5.59,3.64l-1.93,2.34a13.26,13.26,0,0,0-4.7-3.18c-6-2.49-11.54-.31-14.32,6.39-2.59,6.25-.65,11.73,5.53,14.3a14.55,14.55,0,0,0,5.84,1.2Z" transform="translate(-10.88)"/><path d="M823,367.93l.6-2.45-.1,0a7.38,7.38,0,0,1-6.72.58,5.65,5.65,0,0,1-3.62-7.48c1.72-4.48,6.64-5.42,13.77-2.63l.15-.39c.58-1.5,1.23-4.45-2.57-5.89a9.67,9.67,0,0,0-5.36-.47l.1-2.53a12.43,12.43,0,0,1,6.73.72c5.66,2.17,5.56,6.57,4.13,10.28l-2.65,6.93a30.5,30.5,0,0,0-1.42,4.53Zm3.1-9.66c-3.61-1.47-8-2.42-9.41,1.16a3.18,3.18,0,0,0,1.91,4.43,5,5,0,0,0,5.7-1.37,3.89,3.89,0,0,0,.57-1Z" transform="translate(-10.88)"/><path d="M835.84,357.3c.68-1.95,1.16-3.52,1.61-5.11l3,1.06-.89,3.14.09,0a7.35,7.35,0,0,1,7.42-1.34c2.57.9,6,3.85,3.81,10.28L847,376.53l-3.38-1.18,3.77-10.8c1.06-3,.8-5.95-2.38-7.07a5.19,5.19,0,0,0-5.81,1.89,5.71,5.71,0,0,0-.79,1.5l-3.94,11.28L831.06,371Z" transform="translate(-10.88)"/><path d="M864.76,355.41,863,360.85l4.94,1.57-.83,2.6-4.94-1.57L859,373.63c-.75,2.36-.49,3.9,1.43,4.51a7.15,7.15,0,0,0,2.07.39l-.68,2.66a9.32,9.32,0,0,1-3.22-.5,5.07,5.07,0,0,1-3.24-2.64c-.62-1.35-.48-3.13.23-5.35l3.29-10.32-2.93-.93.83-2.61,2.93.94,1.45-4.56Z" transform="translate(-10.88)"/><path d="M886.12,377.83c-2,7.06-7.81,8.75-12.39,7.43-5.17-1.48-8.08-6.39-6.35-12.44,1.83-6.38,7.09-8.91,12.36-7.4C885.22,367,887.78,372,886.12,377.83Zm-15.18-4.11c-1.2,4.18.29,8,3.68,9s6.7-1.44,7.94-5.77c.92-3.23.46-7.77-3.66-8.95S872,370.11,870.94,373.72Z" transform="translate(-10.88)"/><path d="M920.24,366.49l-5.34,23.4c-.4,1.72-.77,3.66-1,5l-3.13-.72.59-3.38-.09,0a7.29,7.29,0,0,1-7.43,2.28c-4.68-1.07-7.39-5.85-6.05-11.71,1.45-6.47,6.36-9.48,11.06-8.41a6.62,6.62,0,0,1,5.16,4.27l.08,0,2.64-11.54Zm-7.36,16.12a7.14,7.14,0,0,0,.2-1.54,5.34,5.34,0,0,0-4.17-5.21c-3.64-.83-6.54,1.87-7.51,6.11-.9,3.93.31,7.64,4.1,8.5a5.44,5.44,0,0,0,6.1-3,6.21,6.21,0,0,0,.52-1.47Z" transform="translate(-10.88)"/><path d="M931.07,398.25l.16-2.52-.11,0a7.37,7.37,0,0,1-6.51,1.77,5.66,5.66,0,0,1-4.89-6.72c.9-4.71,5.57-6.51,13.09-5l.07-.41c.31-1.59.42-4.6-3.58-5.34a9.7,9.7,0,0,0-5.35.49L923.6,378a12.47,12.47,0,0,1,6.75-.48c5.95,1.13,6.63,5.47,5.89,9.37l-1.38,7.29a29.78,29.78,0,0,0-.59,4.72Zm1.34-10.05c-3.82-.81-8.34-.95-9,2.81a3.17,3.17,0,0,0,2.66,4,5,5,0,0,0,5.37-2.36,4,4,0,0,0,.38-1.08Z" transform="translate(-10.88)"/><path d="M948.82,396.82a12.55,12.55,0,0,0,6,2.79c3.6.58,6-1,6.47-3.72.41-2.53-.82-4.26-4.28-6.23-4.19-2.31-6.58-5.1-5.95-8.91.68-4.25,4.73-6.83,10-6a12.64,12.64,0,0,1,5.8,2.29l-1.45,2.73a10.48,10.48,0,0,0-4.94-2.13c-3.75-.61-5.52,1.38-5.82,3.24-.42,2.53,1,4.05,4.57,6.12,4.33,2.56,6.3,5.16,5.65,9.16-.68,4.19-4.36,7.37-10.82,6.32a14.22,14.22,0,0,1-6.68-2.91Z" transform="translate(-10.88)"/><path d="M972,395.64c-.69,4.83,2.06,7.29,5.64,7.85a13.46,13.46,0,0,0,5.58-.16l.23,2.63a16.16,16.16,0,0,1-6.73.23c-6-.94-9-5.52-8.1-11.39s5.15-10,10.87-9.14c6.39,1,7.19,6.86,6.63,10.47a8.75,8.75,0,0,1-.39,1.65Zm10.82-.94c.39-2.24,0-5.91-4-6.53-3.64-.57-5.7,2.48-6.37,4.91Z" transform="translate(-10.88)"/><path d="M991,394c.28-2.32.47-4.31.58-6.14l3.14.38-.33,3.87.12,0a6,6,0,0,1,6-3.64,4.42,4.42,0,0,1,1,.22l-.41,3.37a5.72,5.72,0,0,0-1.2-.25c-2.52-.31-4.54,1.37-5.35,4a8.9,8.9,0,0,0-.35,1.65L993,408l-3.56-.44Z" transform="translate(-10.88)"/><path d="M1004.64,395.57c.19-2.33.29-4.33.34-6.17l3.15.26-.18,3.89h.13a6,6,0,0,1,5.85-3.88,4.33,4.33,0,0,1,1,.19l-.28,3.38a5.49,5.49,0,0,0-1.22-.21c-2.53-.2-4.48,1.56-5.18,4.21a9.1,9.1,0,0,0-.29,1.66l-.86,10.56-3.58-.29Z" transform="translate(-10.88)"/><path d="M1028.57,410.58l-.24-2.51h-.11a7.35,7.35,0,0,1-6.15,2.76,5.65,5.65,0,0,1-5.88-5.87c.15-4.8,4.49-7.31,12.14-7v-.42c.05-1.61-.31-4.61-4.37-4.71a9.59,9.59,0,0,0-5.21,1.32l-.74-2.42a12.41,12.41,0,0,1,6.6-1.54c6.05.19,7.4,4.38,7.28,8.35l-.23,7.41a31.34,31.34,0,0,0,.15,4.75Zm-.25-10.14c-3.89-.2-8.38.36-8.5,4.2a3.17,3.17,0,0,0,3.26,3.55A5,5,0,0,0,1028,405a3.62,3.62,0,0,0,.21-1.13Z" transform="translate(-10.88)"/><path d="M1269.64,244.55a39.36,39.36,0,0,1,5.34,4.62c2.7,2.78,4,5.13,4,7.5a7,7,0,0,1-2.31,5.34,7.46,7.46,0,0,1-8.88,1.2l-.08.07c1,2.08.41,4.44-1.21,7-2.19,3.43-3.66,5.79-4,7l-2.64-2.72a37.07,37.07,0,0,1,3.56-6.06c2.19-3.3,2.2-5.44,0-7.89l-2.41-2.48-8.79,8.55-2.55-2.62Zm-6.69,11.6,2.61,2.68c2.72,2.8,6,3.09,8.3.83,2.64-2.56,1.93-5.57-.75-8.34a15.92,15.92,0,0,0-2.75-2.37Z" transform="translate(-10.88)"/><path d="M1281.09,288.39c-1.53,1.48-2.79,2.8-3.87,4L1275,290l2.24-2.45-.07-.08a7.58,7.58,0,0,1-7.4-2.18c-2.21-2.28-3.59-6.25,1.51-11.21l8.51-8.28,2.56,2.64-8,7.82c-2.77,2.69-3.82,5.39-1.49,7.78a5.36,5.36,0,0,0,5.83,1.14,5.47,5.47,0,0,0,1.59-1.08l8.92-8.66,2.56,2.63Z" transform="translate(-10.88)"/><path d="M1289.24,304.74l1.61-2-.08-.08a7.58,7.58,0,0,1-6.5-2.34,5.79,5.79,0,0,1-.14-8.51c3.52-3.43,8.5-2.19,13.92,3.47l.31-.3c1.19-1.15,3.05-3.61.14-6.57a9.87,9.87,0,0,0-4.77-2.74l1.17-2.31a12.76,12.76,0,0,1,5.95,3.56c4.33,4.45,2.34,8.49-.58,11.33l-5.44,5.29a30.76,30.76,0,0,0-3.27,3.61Zm7-7.64c-2.73-2.92-6.43-5.7-9.24-3a3.25,3.25,0,0,0-.13,4.94,5.08,5.08,0,0,0,5.88,1.18,4.14,4.14,0,0,0,1-.69Z" transform="translate(-10.88)"/><path d="M1322.41,302.7l-6-6.18,2.21-2.15,14.61,15-2.22,2.15-6-6.21L1306.9,322.9l-2.57-2.63Z" transform="translate(-10.88)"/><path d="M1314.22,330.43l14.55-14.15,2.56,2.63-14.55,14.15Zm21.54-15.19a2.29,2.29,0,1,1,.06-3.24A2.23,2.23,0,0,1,1335.76,315.24Z" transform="translate(-10.88)"/><path d="M1320.94,337.35c1.07-.91,2.58-2.28,3.87-3.53l17.62-17.13,2.55,2.63-9.14,8.9.05.06a7.51,7.51,0,0,1,7.5,2.37c3.51,3.61,3,9.08-1.44,13.35-5.22,5.07-11,4.28-14.18,1a7.32,7.32,0,0,1-2-7.52l-.07-.07-2.52,2.19Zm8.51-2.92a5.23,5.23,0,0,0-.85,1,5.68,5.68,0,0,0,.76,7c2.71,2.78,6.55,2.23,9.89-1,2.93-2.85,4-6.79,1.21-9.62a5.86,5.86,0,0,0-7.15-.84,6.34,6.34,0,0,0-1.25.91Z" transform="translate(-10.88)"/><path d="M1353.53,362.89c-1.53,1.48-2.79,2.8-3.87,4l-2.27-2.34,2.24-2.45-.07-.07a7.61,7.61,0,0,1-7.4-2.19c-2.21-2.27-3.6-6.25,1.51-11.21l8.5-8.27,2.56,2.63-8,7.82c-2.77,2.7-3.82,5.4-1.49,7.78a5.37,5.37,0,0,0,5.83,1.15,5.82,5.82,0,0,0,1.59-1.08l8.92-8.67,2.56,2.63Zm15.13-18.22-7.88.52-1.83-1.88,6.88-1.55Z" transform="translate(-10.88)"/><path d="M1363.85,361.42c1.72-1.67,3.14-3.13,4.41-4.52l2.26,2.32-2.76,2.87.09.1a6.16,6.16,0,0,1,7.13.95,4.21,4.21,0,0,1,.64.81l-2.49,2.42a5.36,5.36,0,0,0-.8-1c-1.81-1.87-4.5-1.82-6.83-.25a9.29,9.29,0,0,0-1.34,1.09l-7.77,7.56-2.56-2.63Z" transform="translate(-10.88)"/><path d="M1373.72,390.58a14.11,14.11,0,0,1-4.9-3.36c-4.27-4.39-4.08-10.16.38-14.49s10.73-4.49,15.36.27a11.83,11.83,0,0,1,2.8,4.43l-2.61,1.39a8.92,8.92,0,0,0-2.3-3.77c-3.23-3.32-7.49-2.72-10.51.22-3.37,3.28-3.34,7.46-.52,10.37a10.94,10.94,0,0,0,3.85,2.56Z" transform="translate(-10.88)"/><path d="M1376.21,394.19,1390.77,380l2.56,2.63-14.56,14.15ZM1397.76,379a2.23,2.23,0,0,1-3.29-.09,2.19,2.19,0,0,1,.1-3.19,2.29,2.29,0,1,1,3.19,3.28Z" transform="translate(-10.88)"/><path d="M1403.29,407.2c-5.4,5.24-11.39,3.79-14.79.29-3.84-3.95-3.93-9.79.69-14.29,4.87-4.73,10.84-4.3,14.75-.27C1408,397.11,1407.72,402.89,1403.29,407.2Zm-11.4-11.38c-3.19,3.1-3.81,7.27-1.3,9.85s6.68,2.13,10-1.08c2.47-2.39,4.37-6.66,1.31-9.81S1394.65,393.14,1391.89,395.82Z" transform="translate(-10.88)"/><path d="M1438.9,415.92,1421.29,433c-1.29,1.26-2.7,2.73-3.64,3.77l-2.28-2.35,2.38-2.58-.07-.07a7.44,7.44,0,0,1-7.65-2.17c-3.43-3.53-3.09-9.15,1.32-13.44,4.85-4.75,10.74-4.61,14.19-1.06a6.8,6.8,0,0,1,2.06,6.54l.06.06,8.69-8.45Zm-15.29,9.75a7.43,7.43,0,0,0,1-1.21,5.46,5.46,0,0,0-.68-6.8c-2.66-2.74-6.66-2-9.86,1.07-3,2.87-4,6.73-1.2,9.59a5.57,5.57,0,0,0,6.94.77,6.08,6.08,0,0,0,1.26-1Z" transform="translate(-10.88)"/><path d="M1430.06,436c-3.52,3.53-2.79,7.24-.21,9.9a13.59,13.59,0,0,0,4.67,3.3l-1.43,2.3a16.57,16.57,0,0,1-5.65-4c-4.35-4.47-4-10.06.38-14.3s10.38-5,14.52-.79c4.61,4.75,1.65,10-1,12.64a9,9,0,0,1-1.32,1.12Zm9.44,5.9c1.69-1.6,3.62-4.85.73-7.82-2.62-2.7-6.18-1.48-8.23.1Z" transform="translate(-10.88)"/><path d="M1445.62,459.19a12.8,12.8,0,0,0,3.24,6c2.6,2.68,5.53,2.89,7.59.9,1.88-1.83,1.92-4,.28-7.74-2-4.46-2.3-8.2.54-11,3.16-3.07,8-2.73,11.89,1.22a12.89,12.89,0,0,1,3.37,5.43l-2.85,1.36a10.81,10.81,0,0,0-2.77-4.77c-2.7-2.78-5.38-2.23-6.76-.89-1.88,1.84-1.61,4,0,7.82,2,4.76,2,8.1-1,11s-8.08,3.39-12.75-1.41a14.44,14.44,0,0,1-3.71-6.47Z" transform="translate(-10.88)"/><path d="M1477.51,483.54c-5.39,5.24-11.39,3.79-14.79.29-3.84-3.95-3.92-9.79.7-14.29,4.87-4.73,10.83-4.3,14.74-.27C1482.23,473.45,1481.94,479.22,1477.51,483.54Zm-11.39-11.38c-3.2,3.1-3.82,7.27-1.31,9.85s6.68,2.13,10-1.08c2.46-2.4,4.37-6.66,1.31-9.81S1468.88,469.48,1466.12,472.16Z" transform="translate(-10.88)"/><path d="M1489.16,502.39c-1.53,1.48-2.78,2.8-3.87,4L1483,504l2.24-2.45-.07-.08a7.58,7.58,0,0,1-7.4-2.18c-2.21-2.27-3.59-6.25,1.51-11.21l8.51-8.27,2.56,2.63-8,7.82c-2.78,2.69-3.82,5.39-1.5,7.78a5.37,5.37,0,0,0,5.83,1.15,6.1,6.1,0,0,0,1.6-1.08l8.91-8.67,2.56,2.63Z" transform="translate(-10.88)"/><path d="M1491.79,507.68a10.07,10.07,0,0,0,2.38,4.51c1.88,1.94,3.7,1.91,4.92.72s1.19-2.65,0-5.29c-1.6-3.56-1.38-6.19.37-7.88,2.34-2.28,6.12-2.25,9.16.88a9.8,9.8,0,0,1,2.57,4.44l-2.56,1.21a8.08,8.08,0,0,0-2.05-3.82c-1.52-1.56-3.24-1.53-4.34-.47s-.91,2.55.2,5.18c1.51,3.42,1.51,5.95-.66,8.07-2.58,2.51-6.33,2.26-9.67-1.18a11.67,11.67,0,0,1-3-5.07Z" transform="translate(-10.88)"/><path d="M1508.89,530.66l1.62-2-.08-.08a7.56,7.56,0,0,1-6.5-2.35,5.78,5.78,0,0,1-.14-8.5c3.52-3.43,8.5-2.19,13.92,3.47l.31-.3c1.18-1.15,3-3.61.14-6.58a9.92,9.92,0,0,0-4.78-2.73l1.18-2.32a12.79,12.79,0,0,1,6,3.57c4.32,4.45,2.34,8.49-.58,11.32l-5.44,5.3a30.76,30.76,0,0,0-3.27,3.61Zm7-7.64c-2.73-2.92-6.43-5.7-9.24-3a3.25,3.25,0,0,0-.14,4.94,5.11,5.11,0,0,0,5.89,1.18,4.14,4.14,0,0,0,1-.69Z" transform="translate(-10.88)"/></g></g></svg>