<svg xmlns="http://www.w3.org/2000/svg" viewBox="0 0 1348.43 720.68"><defs><style>.cls-1{fill:#cfdcfa;stroke:#000;}.cls-1,.cls-3{stroke-miterlimit:10;stroke-width:4px;}.cls-2{font-size:36px;font-family:MyriadPro-Regular, Myriad Pro;}.cls-3{fill:#fff;stroke:#ccc;}.cls-4{letter-spacing:0em;}.cls-5{letter-spacing:-0.04em;}.cls-6{letter-spacing:-0.02em;}.cls-7{letter-spacing:-0.01em;}.cls-8{letter-spacing:0em;}.cls-9{letter-spacing:0em;}.cls-10{letter-spacing:0.01em;}.cls-11{letter-spacing:-0.02em;}.cls-12{letter-spacing:0.02em;}.cls-13{letter-spacing:-0.01em;}.cls-14{letter-spacing:0.01em;}</style></defs><g id="Layer_2" data-name="Layer 2"><g id="Novo_Mapa" data-name="Novo Mapa"><path class="cls-1" d="M33.92,73.83S93.87,281,102.8,353.49L138,597.41c5.25,31.54,12.61,44.16,24.18,53.62s33.64,21,54.67,24.19,16.82,2.1,41,4.2,288.08,3.15,288.08,3.15c14.72,0,14.72-12.61,11.56-21s-42-92.52-47.31-128.27S507,429.19,502.83,398.7s-16.82-83.05-24.18-102-20-67.29-22.08-95.67-1.05-72.55-1.05-72.55c1.05-22.08-6.31-24.18-22.08-31.54S337.77,68.57,284.15,59.11s-159.81-28.39-185-30.49-33.65,0-33.65,0C27.61,33.88,26.56,48.6,33.92,73.83Z"/><text class="cls-2" transform="translate(180.99 29.7) rotate(9.75)">R</text><text class="cls-2" transform="translate(200.06 32.98) rotate(9.86)">u</text><text class="cls-2" transform="matrix(0.98, 0.17, -0.17, 0.98, 219.59, 36.38)">a</text><text class="cls-2" transform="translate(236.67 39.37) rotate(9.98)"> </text><text class="cls-2" transform="matrix(0.98, 0.17, -0.17, 0.98, 244.21, 40.7)">S</text><text class="cls-2" transform="matrix(0.98, 0.17, -0.17, 0.98, 261.77, 43.8)">a</text><text class="cls-2" transform="translate(278.79 46.74) rotate(10.84)">n</text><text class="cls-2" transform="translate(298.16 50.48) rotate(11.77)">t</text><text class="cls-2" transform="translate(309.77 52.89) rotate(12.46)">a</text><text class="cls-2" transform="translate(326.64 56.64) rotate(12.97)"> </text><text class="cls-2" transform="translate(334.05 58.32) rotate(13.49)">R</text><text class="cls-2" transform="translate(353.17 62.93) rotate(14.02)">i</text><text class="cls-2" transform="translate(361.3 64.96) rotate(14.42)">t</text><text class="cls-2" transform="translate(372.77 67.89) rotate(15.05)">a</text><path class="cls-1" d="M508.09,136.91c0,3.16-1.48,40,.63,68.43s14.71,76.75,22.07,95.68,20,71.49,24.19,102,3.58,83,8.83,118.71c0,0,3.16,17.88,23.13,16.83s85.16-5.26,85.16-5.26c33.65-1,38.91,7.36,42.06,22.08S731,653.14,731,653.14c2.1,21,15.77,20,22.08,20s115.65-8.41,115.65-8.41c18.93-1.05,15.77-14.72,14.72-20s-87.26-396.37-87.26-396.37c-3.16-16.82-9.47-20-20-24.18S523.86,130.6,523.86,130.6C512.3,127.45,508.09,133.76,508.09,136.91Z"/><path class="cls-3" d="M697.34,637.37s-9.47-51.52-11.57-63.09-8.41-14.72-18.92-14.72-79.91,6.31-79.91,6.31c-10.51,0-12.61,10.52-10.51,14.72,3.42,6.85,27.33,76.75,27.33,76.75,5.26,14.72,6.31,23.13,20,23.13,12.66,0,68.34-3.15,68.34-3.15,10.51-2.1,9.82-10.34,9.12-14.63S697.34,637.37,697.34,637.37Z"/><path class="cls-1" d="M851.73,264.59s82.68,375.09,83.69,380.14c2.68,14.71,12.14,14.71,20.56,14.71s135.62-1.05,194.5-4.2,102-5.26,102-5.26c21,0,38.9-6.31,45.21-10.51,9.46-7.36,12.62-14.72,11.57-23.13-1-9.46-11.57-37.85-12.62-41s-11.56-35.74-22.08-78.85S1257.72,426,1257.72,426c-3.15-11.57-15.19-42.39-15.48-43.8s-11.86-26.64-17.11-34c-9.47-13.67-14.72-18.93-26.29-22.08s-164-37.85-204-45.21-130.37-31.54-130.37-31.54C847.68,246.25,849.79,253.61,851.73,264.59Z"/><text class="cls-2" transform="translate(563.59 580.13) rotate(-108.78)">R</text><text class="cls-2" transform="matrix(-0.29, -0.96, 0.96, -0.29, 557.39, 561.98)">u</text><text class="cls-2" transform="matrix(-0.25, -0.97, 0.97, -0.25, 551.6, 543.29)">a</text><text class="cls-2" transform="translate(547.48 526.84) rotate(-100.77)"> </text><text class="cls-2" transform="translate(546.03 519.77) rotate(-96.69)">F</text><text class="cls-2" transform="translate(544.15 503.67) rotate(-94.67)">e</text><text class="cls-2" transform="matrix(-0.06, -1, 1, -0.06, 542.73, 485.78)">r</text><text class="cls-2" transform="matrix(-0.06, -1, 1, -0.06, 541.95, 473.96)">n</text><text class="cls-2" transform="translate(540.85 454.02) rotate(-92.95)">a</text><text class="cls-2" transform="translate(539.98 436.73) rotate(-93.14)">n</text><text class="cls-2" transform="translate(538.92 416.86) rotate(-94.03)">d</text><text class="cls-2" transform="translate(537.54 395.99) rotate(-97.02)">o</text><text class="cls-2" transform="translate(534.76 375.53) rotate(-100.42)"> </text><text class="cls-2" transform="matrix(-0.21, -0.98, 0.98, -0.21, 533.37, 367.53)">d</text><text class="cls-2" transform="translate(529.03 347.69) rotate(-103.92)">e</text><text class="cls-2" transform="matrix(-0.26, -0.97, 0.97, -0.26, 524.67, 330.28)"> </text><text class="cls-2" transform="translate(522.83 322.99) rotate(-106)">N</text><text class="cls-2" transform="translate(516.21 299.86) rotate(-108.45)">o</text><text class="cls-2" transform="translate(509.55 281.18) rotate(-106.75)">r</text><text class="cls-2" transform="translate(506.3 270.73) rotate(-102.11)">o</text><text class="cls-2" transform="translate(502.26 251.67) rotate(-99.32)">n</text><text class="cls-2" transform="translate(499.06 232.13) rotate(-97.52)">h</text><text class="cls-2" transform="matrix(-0.1, -0.99, 0.99, -0.1, 496.48, 212.48)">a</text><text class="cls-2" transform="matrix(-0.21, -0.98, 0.98, -0.21, 905.24, 569.56)">Rua <tspan class="cls-4" x="64.19" y="0">S</tspan><tspan x="82.04" y="0">ão</tspan><tspan class="cls-5" x="119.16" y="0"> </tspan><tspan class="cls-6" x="125.49" y="0">V</tspan><tspan x="145.01" y="0">i</tspan><tspan class="cls-7" x="153.43" y="0">c</tspan><tspan x="169.34" y="0">e</tspan><tspan class="cls-8" x="187.38" y="0">n</tspan><tspan class="cls-7" x="207.21" y="0">t</tspan><tspan class="cls-9" x="218.91" y="0">e</tspan></text><text class="cls-2" transform="translate(915.07 251.62) rotate(12.68)">Rua <tspan class="cls-4" x="64.19" y="0">S</tspan><tspan x="82.04" y="0">a</tspan><tspan class="cls-8" x="99.39" y="0">n</tspan><tspan x="119.23" y="0">ta </tspan><tspan class="cls-10" x="156.13" y="0">R</tspan><tspan x="175.86" y="0">ita</tspan></text><text class="cls-2" transform="translate(555.16 129.6) rotate(20.84)">Rua <tspan class="cls-4" x="64.19" y="0">S</tspan><tspan x="82.04" y="0">a</tspan><tspan class="cls-8" x="99.39" y="0">n</tspan><tspan x="119.23" y="0">ta </tspan><tspan class="cls-10" x="156.13" y="0">R</tspan><tspan x="175.86" y="0">ita</tspan></text><text class="cls-2" transform="translate(975.63 691.82) rotate(-2)">Rua <tspan class="cls-11" x="64.19" y="0">A</tspan><tspan x="85.46" y="0">y</tspan><tspan class="cls-12" x="102.42" y="0">r</tspan><tspan class="cls-13" x="115.05" y="0">t</tspan><tspan x="126.75" y="0">on </tspan><tspan class="cls-14" x="174.13" y="0">S</tspan><tspan x="192.09" y="0">enna</tspan></text><text class="cls-2" transform="translate(244.81 711.68)">Rua <tspan class="cls-11" x="64.19" y="0">A</tspan><tspan x="85.46" y="0">y</tspan><tspan class="cls-12" x="102.42" y="0">r</tspan><tspan class="cls-13" x="115.05" y="0">t</tspan><tspan x="126.75" y="0">on </tspan><tspan class="cls-14" x="174.13" y="0">S</tspan><tspan x="192.09" y="0">enna</tspan></text><text class="cls-2" transform="translate(1339.24 590.91) rotate(-106.78)">R</text><text class="cls-2" transform="translate(1333.39 571.98) rotate(-109.3)">u</text><text class="cls-2" transform="translate(1326.86 553.48) rotate(-107.17)">a</text><text class="cls-2" transform="translate(1321.8 536.97) rotate(-106.46)"> </text><text class="cls-2" transform="matrix(-0.27, -0.96, 0.96, -0.27, 1319.61, 529.73)">A</text><text class="cls-2" transform="matrix(-0.26, -0.97, 0.97, -0.26, 1313.87, 509.33)">y</text><text class="cls-2" transform="translate(1309.53 493) rotate(-104.27)">r</text><text class="cls-2" transform="translate(1306.44 480.83) rotate(-103.7)">t</text><text class="cls-2" transform="translate(1303.67 469.46) rotate(-103.59)">o</text><text class="cls-2" transform="translate(1299.03 450.27) rotate(-103.45)">n</text><text class="cls-2" transform="translate(1294.39 430.85) rotate(-103.34)"> </text><text class="cls-2" transform="translate(1292.63 423.45) rotate(-103.21)">S</text><text class="cls-2" transform="translate(1288.3 404.5) rotate(-108.68)">e</text><text class="cls-2" transform="translate(1282.41 387.32) rotate(-110.28)">n</text><text class="cls-2" transform="matrix(-0.39, -0.92, 0.92, -0.39, 1275.59, 367.87)">n</text><text class="cls-2" transform="translate(1267.18 348.55) rotate(-116.85)">a</text><text class="cls-2" transform="translate(131.28 610.31) rotate(-100.29)">R</text><text class="cls-2" transform="translate(128.08 591.43) rotate(-98.21)">u</text><text class="cls-2" transform="translate(125.25 571.8) rotate(-98.21)">a</text><text class="cls-2" transform="translate(122.77 554.62) rotate(-98.21)"> </text><text class="cls-2" transform="translate(121.68 547.07) rotate(-98.21)">B</text><text class="cls-2" transform="matrix(-0.14, -0.99, 0.99, -0.14, 118.87, 527.61)">e</text><text class="cls-2" transform="matrix(-0.14, -0.99, 0.99, -0.14, 116.29, 509.77)">l</text><text class="cls-2" transform="translate(115.08 501.35) rotate(-98.21)">a</text><text class="cls-2" transform="translate(112.6 484.18) rotate(-98.21)"> </text><text class="cls-2" transform="translate(111.69 477.91) rotate(-98.21)">V</text><text class="cls-2" transform="translate(108.91 458.6) rotate(-98.21)">i</text><text class="cls-2" transform="matrix(-0.14, -0.99, 0.99, -0.14, 107.7, 450.27)">s</text><text class="cls-2" transform="translate(105.67 436.15) rotate(-98.21)">t</text><text class="cls-2" transform="translate(103.96 424.35) rotate(-98.21)">a</text><text class="cls-2" transform="matrix(-0.14, -0.99, 0.99, -0.14, 101.48, 407.17)"> </text><text class="cls-2" transform="translate(100.4 399.63) rotate(-98.21)"> </text><text class="cls-2" transform="translate(99.3 392.06) rotate(-98.21)"> <tspan x="7.64" y="0"> </tspan></text><text class="cls-2" transform="matrix(-0.14, -0.99, 0.99, -0.14, 97.12, 376.94)"> </text><text class="cls-2" transform="translate(96.03 369.41) rotate(-98.21)"> </text><text class="cls-2" transform="translate(94.94 361.85) rotate(-98.21)"> </text><text class="cls-2" transform="translate(93.85 354.35) rotate(-97.56)"> </text><text class="cls-2" transform="translate(92.79 346.44) rotate(-98.95)"> </text><text class="cls-2" transform="matrix(-0.17, -0.99, 0.99, -0.17, 91.56, 338.64)"> </text><text class="cls-2" transform="translate(90.24 331.11) rotate(-100.64)"> </text><text class="cls-2" transform="matrix(-0.19, -0.98, 0.98, -0.19, 88.84, 323.66)"> </text><text class="cls-2" transform="translate(87.37 316.24) rotate(-101.66)"> </text><text class="cls-2" transform="translate(85.83 308.8) rotate(-102.05)"> </text><text class="cls-2" transform="matrix(-0.21, -0.98, 0.98, -0.21, 84.24, 301.36)"> </text><text class="cls-2" transform="translate(82.62 293.95) rotate(-102.68)"> </text><text class="cls-2" transform="matrix(-0.23, -0.97, 0.97, -0.23, 80.97, 286.53)">R</text><text class="cls-2" transform="translate(76.58 267.72) rotate(-103.62)">u</text><text class="cls-2" transform="matrix(-0.24, -0.97, 0.97, -0.24, 71.91, 248.48)">a</text><text class="cls-2" transform="matrix(-0.25, -0.97, 0.97, -0.25, 67.72, 231.68)"> </text><text class="cls-2" transform="translate(65.86 224.29) rotate(-104.43)">B</text><text class="cls-2" transform="translate(60.96 205.28) rotate(-104.69)">e</text><text class="cls-2" transform="matrix(-0.26, -0.97, 0.97, -0.26, 56.38, 187.84)">l</text><text class="cls-2" transform="matrix(-0.26, -0.97, 0.97, -0.26, 54.22, 179.65)">a</text><text class="cls-2" transform="translate(49.73 162.9) rotate(-105.13)"> </text><text class="cls-2" transform="translate(48.08 156.8) rotate(-105.26)">V</text><text class="cls-2" transform="translate(42.94 137.97) rotate(-105.39)">i</text><text class="cls-2" transform="translate(40.72 129.88) rotate(-105.5)">s</text><text class="cls-2" transform="translate(36.91 116.14) rotate(-105.62)">t</text><text class="cls-2" transform="translate(33.71 104.69) rotate(-105.76)">a</text></g></g></svg>