<svg xmlns="http://www.w3.org/2000/svg" viewBox="0 0 1745.72 834.06"><defs><style>.cls-1{fill:#cfdcfa;stroke-width:4px;}.cls-1,.cls-2,.cls-3,.cls-4{stroke:#000;stroke-miterlimit:10;}.cls-2{fill:#2aff3c;}.cls-2,.cls-3,.cls-4{stroke-width:2px;}.cls-3{fill:#e90000;}.cls-4{fill:#ff0;}</style></defs><g id="Layer_2" data-name="Layer 2"><g id="Novo_Mapa" data-name="Novo Mapa"><path class="cls-1" d="M812.23,123.4,625.5,254.49a167.57,167.57,0,0,0-37,41L534.85,404.75c-6.35,14.74-6.35,29.74-6.35,38.74v40.82a7.16,7.16,0,0,1-8.24,7.08l-98.2-14.93a20.53,20.53,0,0,0-23.26,16.46h0A22.21,22.21,0,0,0,417.19,519l99.31,15.47c21,5,7,41,1,51-4.63,7.71-23.51,35-31.93,47.14a11.41,11.41,0,0,1-11.12,4.77L199.72,584.22a7.56,7.56,0,0,1-5.3-11.42l333-545a12.32,12.32,0,0,1,14.36-5.27l268.65,88.64A6.91,6.91,0,0,1,812.23,123.4Z"/><path class="cls-1" d="M931.62,378l53.62,36.85a19.26,19.26,0,0,0,26-3.84h0a19.27,19.27,0,0,0-4-27.8L763.73,212.12l105.21-74a6.8,6.8,0,0,1,6.51-.72L1620.87,448s67.13,8,88.13,18,33.51,32.64,33.51,32.64S1454,529,1364,554,922,688,855,717c-61.37,26.56-362.68,59-412.9,64.26a3.3,3.3,0,0,1-3.05-5.15l89.68-130.22c6.82-9.82,20.21-29.82,27.75-41l4.17-6.15,64.8,40.74a17.37,17.37,0,0,0,23.15-4.29h0a18.09,18.09,0,0,0-4.34-25.83l-73-49.32c4.83-40.31,1.89-93.22,1.89-93.22,0-9,0-24,6.35-38.73l53.65-109.27a167.57,167.57,0,0,1,37-41l57.24-40.18,172.1,118.28L828.87,423.8a64,64,0,0,0-19.49,41.93L808,486.82a19.38,19.38,0,0,0,13.51,19.74h0a19.38,19.38,0,0,0,25.17-17.16l1.17-17.27a43.44,43.44,0,0,1,13.73-28.86Z"/><path d="M540.41,491.9a34.31,34.31,0,0,1-.61-6c0-3.33.56-5.53,1.9-7.06a6.11,6.11,0,0,1,4.58-2,6.4,6.4,0,0,1,6.25,4.48h.09c.62-1.86,2.36-3,4.86-3.63a39.58,39.58,0,0,0,6.63-2l0,3.25a32.61,32.61,0,0,1-5.78,1.68c-3.32.77-4.59,2.1-4.64,4.94l0,3,10.52-.15,0,3.13Zm11-3.29,0-3.2c0-3.36-1.91-5.46-4.69-5.42-3.15.05-4.49,2.34-4.44,5.65a13.12,13.12,0,0,0,.32,3.09Z"/><path d="M558.68,458c1.82-.07,3.38-.19,4.75-.33l.11,2.79-2.83.29v.08a6.5,6.5,0,0,1,3.47,5.63c.11,2.72-1.28,6-7.38,6.3l-10.17.41-.12-3.15,9.61-.39c3.31-.13,5.52-1.25,5.41-4.11a4.62,4.62,0,0,0-3.07-4.07,5.17,5.17,0,0,0-1.64-.22l-10.65.43-.13-3.15Z"/><path d="M564,443.56l-2.22.12v.1a6.46,6.46,0,0,1,2.22,5.49,5,5,0,0,1-5.36,5c-4.21-.29-6.26-4.18-5.74-10.89l-.37,0c-1.41-.09-4.06.12-4.28,3.68a8.49,8.49,0,0,0,1,4.62l-2.15.57a11.07,11.07,0,0,1-1.12-5.84c.37-5.31,4.09-6.36,7.57-6.11l6.5.45a28,28,0,0,0,4.18,0Zm-8.91-.13c-.31,3.41,0,7.37,3.39,7.6a2.78,2.78,0,0,0,3.23-2.73,4.37,4.37,0,0,0-2.61-4.44,3.34,3.34,0,0,0-1-.22Z"/><path d="M543.23,421.57l1.08-2.94,11,4,0-.1c-.67-.92-1.23-1.85-1.76-2.69l-6-10.1,1.34-3.65,6.65,11.8,16.36-4.07-1.28,3.49-13.92,3.37,1.69,3.1,8.67,3.2L566,430Z"/><path d="M577.86,403.49l-2.09-.71,0,.08a6.51,6.51,0,0,1,0,5.93,5,5,0,0,1-6.83,2.57c-3.79-1.86-4.22-6.24-1.21-12.25l-.33-.17c-1.27-.62-3.8-1.42-5.36,1.79a8.56,8.56,0,0,0-.83,4.65l-2.21-.29a11,11,0,0,1,1.16-5.83c2.35-4.78,6.19-4.34,9.32-2.8l5.85,2.87a26.19,26.19,0,0,0,3.85,1.6ZM569.67,400c-1.58,3-2.76,6.83.27,8.32a2.78,2.78,0,0,0,4-1.32,4.35,4.35,0,0,0-.75-5.09,3.2,3.2,0,0,0-.83-.58Z"/><path d="M578.72,397.55,573,386c-.53-1.12-1-2.12-1.44-3.25l-.07,0-4.17,8.5-2.27-1.12,5.86-11.94,1.77.89,5.65,11.45c.52,1.08,1,2.12,1.45,3.2l.07,0,4.48-9.13,2.27,1.12-6.23,12.69Z"/><path d="M590.19,367.58c1.64.8,3.07,1.44,4.34,2l-1.23,2.51-2.63-1.1,0,.08a6.52,6.52,0,0,1,.37,6.6c-1.2,2.44-4,4.71-9.49,2l-9.14-4.49,1.39-2.82,8.64,4.24c3,1.46,5.46,1.52,6.72-1a4.61,4.61,0,0,0-.77-5,4.84,4.84,0,0,0-1.33-1l-9.57-4.7,1.39-2.83Z"/><path d="M595.77,346.89c5.79,2.84,6.35,8.1,4.5,11.86-2.08,4.24-6.77,6-11.74,3.56-5.23-2.57-6.6-7.51-4.47-11.83C586.26,346,591,344.56,595.77,346.89Zm-5.9,12.49c3.42,1.68,7,1,8.33-1.79s-.21-6-3.75-7.76c-2.65-1.3-6.64-1.6-8.3,1.77S586.9,357.92,589.87,359.38Z"/><path d="M593.75,331.64l10.91,1.12c1.21.14,2.63.36,3.68.56l0-.08c-.78-.73-1.81-1.66-2.76-2.59l-7.66-7.6,1.48-3,9,9.74c4.38,4.66,6.43,7.4,7.17,10.17a8.79,8.79,0,0,1,.12,4.38l-2.73-.46a8.18,8.18,0,0,0-.16-3.17,10.1,10.1,0,0,0-2-3.94,1.78,1.78,0,0,0-.58-.55,2,2,0,0,0-.83-.16l-17.24-1.32Z"/><path d="M615.17,307.38c5.79,2.85,6.35,8.1,4.5,11.86-2.08,4.24-6.78,6-11.74,3.56-5.23-2.57-6.6-7.51-4.48-11.83C605.66,306.48,610.41,305.05,615.17,307.38Zm-5.9,12.49c3.42,1.68,7,1,8.33-1.79s-.21-6-3.75-7.76c-2.65-1.29-6.65-1.6-8.31,1.78S606.3,318.41,609.27,319.87Z"/><path d="M618.73,300.61l0-.06c-.26-.7-.54-1.63-.74-2.38l-1.92-7.66,2.2-3.1,1.94,9.62,12.8-.31-2.24,3.15-10.28,0,.54,2.38,5.34,3.79-1.82,2.57-20.84-14.8,1.82-2.57Z"/><path d="M638,277.81c4.83,4.27,4,9.49,1.21,12.62-3.13,3.54-8.13,4-12.27.33-4.36-3.86-4.37-9-1.18-12.59C629.07,274.42,634,274.29,638,277.81Zm-9,10.47c2.86,2.53,6.46,2.8,8.51.48s1.39-5.85-1.57-8.47c-2.21-2-6-3.3-8.47-.49S626.53,286.09,629,288.28Z"/><path d="M638.47,271.56c-1.18-1.38-2.16-2.44-3.16-3.48l2.1-1.78,1.94,2,.07-.06a6,6,0,0,1,2.11-6,5.12,5.12,0,0,1,6-.53l.05,0a7,7,0,0,1,0-3,6,6,0,0,1,2.12-3.42c1.77-1.5,5.35-2.58,9.27,2l6.65,7.8-2.36,2-6.38-7.5c-2.18-2.57-4.42-3.28-6.35-1.64a4.13,4.13,0,0,0-1,4.61,5,5,0,0,0,.83,1.38l7,8.2-2.35,2-6.77-8c-1.8-2.11-4-2.83-5.84-1.28a4.36,4.36,0,0,0-1,5,5.08,5.08,0,0,0,.83,1.35l6.8,8-2.35,2Z"/><path d="M659.91,242.75a2,2,0,1,1-2.73-.48A1.9,1.9,0,0,1,659.91,242.75Zm9.94,20.32-10-14.25,2.58-1.81,10,14.25Z"/><path d="M674.08,257.85l.56-12.9c.08-1.24.18-2.32.3-3.55l0-.06-7.74,5.44-1.46-2.07,10.89-7.65,1.12,1.63-.55,12.76c-.07,1.19-.14,2.34-.28,3.5l0,.06,8.33-5.85,1.45,2.08-11.56,8.12Z"/><path d="M697,233.19c3.71,5.28,1.66,10.16-1.76,12.57-3.87,2.71-8.83,2-12-2.53-3.34-4.77-2.17-9.76,1.77-12.53C689.06,227.82,693.91,228.85,697,233.19Zm-11.18,8.1c2.19,3.13,5.63,4.22,8.16,2.45s2.71-5.37.44-8.61c-1.69-2.41-5-4.6-8.12-2.44S683.88,238.59,685.78,241.29Z"/><path class="cls-1" d="M162.37,831.89l205.72-42.68a15.19,15.19,0,0,0,9.38-6.17l65-92.59a12.84,12.84,0,0,0-8.25-20L122.7,614.67a7.57,7.57,0,0,1-5.3-11.42L477,14h0a7.89,7.89,0,0,0-6.74-12H20.54A18.54,18.54,0,0,0,2,20.54V813.05a19,19,0,0,0,19,19H160.77A7.91,7.91,0,0,0,162.37,831.89Z"/><path d="M239.05,432.84l-3.79,6.35L233,437.83l9.21-15.43,2.27,1.36-3.8,6.38,18.55,11.08-1.61,2.7Z"/><path d="M249.3,423.88,259.43,426c1.69.32,3.15.67,4.59,1.08l.05-.08c-1-1.08-2-2.25-3.11-3.56l-6.64-7.92,1.7-2.84,11.43,14.8L265.91,430l-18.35-3.23Z"/><path d="M269.79,419.88a2.15,2.15,0,0,1-.86-3,2.28,2.28,0,1,1,.86,3Z"/><path d="M260.34,392l20.83,12.43-1.61,2.71-20.84-12.44Z"/><path d="M273.19,393c-1.56-.94-2.83-1.62-4.11-2.29l1.44-2.4,2.54,1.31.05-.07a6.42,6.42,0,0,1,.15-6.61c1.23-2.06,4.38-4.53,9.51-1.47l8.92,5.32-1.61,2.71-8.62-5.15c-2.42-1.44-5-1.74-6.5.81a4.55,4.55,0,0,0,.6,5.33,5.09,5.09,0,0,0,1.15.94l9,5.37-1.62,2.71Z"/><path d="M280.1,356.38l18.09,10.8c1.33.79,2.85,1.63,3.93,2.18l-1.44,2.41-2.67-1.4-.05.07a6.36,6.36,0,0,1-.1,6.82c-2.16,3.62-6.89,4.59-11.42,1.88-5-3-6.2-7.87-4-11.51a5.81,5.81,0,0,1,5-3.16l0-.06-8.92-5.33Zm11.46,10.51a6.51,6.51,0,0,0-1.22-.58,4.68,4.68,0,0,0-5.48,2.07c-1.68,2.82-.22,6,3.07,7.93,3,1.82,6.45,1.81,8.2-1.12a4.77,4.77,0,0,0-.89-5.92,5.14,5.14,0,0,0-1.08-.83Z"/><path d="M298.68,359.26c3.7,2.14,6.61.71,8.24-2a11.6,11.6,0,0,0,1.7-4.6l2.22.68a14,14,0,0,1-2,5.56c-2.74,4.59-7.45,5.52-11.93,2.85s-6.47-7.49-3.87-11.85c2.91-4.88,7.95-3.6,10.7-2a7.5,7.5,0,0,1,1.22.86Zm2.79-9.12c-1.7-1.05-4.82-1.93-6.64,1.12-1.66,2.77.15,5.45,1.91,6.8Z"/><path d="M303.91,343.45c-1.9-1.14-3.49-2-4.94-2.78l1.45-2.43,2.64,1.37,0-.06a6.81,6.81,0,0,1,.28-7c2.16-3.62,6.84-4.53,11.38-1.82,5.38,3.22,6.07,8.1,4,11.6a6.06,6.06,0,0,1-5.1,3.2l0,.06,8.13,4.86-1.61,2.7Zm5.61-.32a5.72,5.72,0,0,0,1.18.55,4.87,4.87,0,0,0,5.61-2.17c1.72-2.88.35-5.95-3.08-8-3-1.78-6.48-1.75-8.19,1.13a5,5,0,0,0,.9,6.12,5.32,5.32,0,0,0,1,.83Z"/><path d="M318.44,326.15c3.7,2.14,6.61.72,8.24-2a11.92,11.92,0,0,0,1.71-4.6l2.21.67a14.08,14.08,0,0,1-2,5.56c-2.75,4.59-7.45,5.53-11.94,2.85s-6.47-7.48-3.87-11.85c2.91-4.87,8-3.59,10.7-1.95a7.57,7.57,0,0,1,1.22.85Zm2.79-9.12c-1.7-1-4.82-1.93-6.64,1.12-1.65,2.78.15,5.46,1.91,6.8Z"/><path d="M322.85,309.84c-1.56-.93-2.83-1.62-4.12-2.28l1.44-2.4,2.55,1.31,0-.07a6.46,6.46,0,0,1,.15-6.62c1.23-2,4.38-4.53,9.52-1.46l8.92,5.32-1.62,2.71-8.62-5.15c-2.41-1.44-5-1.74-6.5.81a4.54,4.54,0,0,0,.6,5.32,4.6,4.6,0,0,0,1.15.94l9,5.38-1.61,2.71Z"/><path d="M329.75,273.2,347.84,284c1.33.79,2.86,1.63,3.93,2.18l-1.44,2.41-2.67-1.4,0,.07a6.4,6.4,0,0,1-.1,6.82c-2.17,3.62-6.9,4.59-11.43,1.88-5-3-6.19-7.87-4-11.51a5.81,5.81,0,0,1,5-3.16l0-.06-8.92-5.33Zm11.47,10.51a6.91,6.91,0,0,0-1.23-.58,4.68,4.68,0,0,0-5.48,2.07c-1.68,2.82-.22,6,3.07,7.93,3,1.81,6.46,1.81,8.21-1.12a4.78,4.78,0,0,0-.9-5.92,5.14,5.14,0,0,0-1.08-.83Z"/><path d="M337,262.2l6.19-.32L342,264l-4,0,0,.07,1.85,3.53-1.21,2-2.69-5.55Zm11.31,13.88c3.7,2.14,6.61.71,8.24-2a11.86,11.86,0,0,0,1.71-4.6l2.21.68a14,14,0,0,1-2,5.55c-2.74,4.6-7.45,5.53-11.94,2.86s-6.47-7.49-3.87-11.85c2.91-4.88,7.95-3.6,10.71-2a8,8,0,0,1,1.22.86Zm2.79-9.13c-1.69-1.05-4.82-1.92-6.64,1.13-1.65,2.77.15,5.45,1.91,6.8Z"/><path d="M352.74,259.77c-1.56-.93-2.83-1.62-4.11-2.29l1.43-2.4,2.55,1.32,0-.08a6.44,6.44,0,0,1,.15-6.61c1.23-2.06,4.38-4.53,9.52-1.47l8.92,5.33-1.62,2.7L361,251.13c-2.41-1.45-5-1.74-6.5.8a4.57,4.57,0,0,0,.6,5.33,5.32,5.32,0,0,0,1.15.94l9,5.38-1.61,2.7Z"/><path d="M379.71,238.14A12.08,12.08,0,0,1,378,243c-2.69,4.51-7.52,5.63-12.09,2.9s-6.09-7.9-3.17-12.79a10.23,10.23,0,0,1,3.05-3.3l1.73,1.85a7.54,7.54,0,0,0-2.62,2.75c-2,3.41-.6,6.8,2.51,8.65,3.47,2.07,6.93,1.11,8.71-1.87a9.21,9.21,0,0,0,1.26-3.75Z"/><path d="M364.79,220.79a2,2,0,1,1-2,3.37,1.93,1.93,0,0,1-.68-2.7A1.9,1.9,0,0,1,364.79,220.79Zm17.36,14.49-14.94-8.93,1.61-2.7,14.95,8.92Z"/><path d="M391.42,219.75l-2-.88-.05.08a6.48,6.48,0,0,1-.5,5.9,5,5,0,0,1-7,2c-3.62-2.16-3.69-6.56-.2-12.31l-.32-.19c-1.21-.72-3.67-1.73-5.48,1.35a8.48,8.48,0,0,0-1.21,4.55l-2.18-.46a10.89,10.89,0,0,1,1.64-5.71c2.72-4.57,6.51-3.82,9.51-2l5.59,3.33a26.33,26.33,0,0,0,3.71,1.91Zm-7.89-4.13c-1.81,2.91-3.3,6.59-.41,8.31a2.79,2.79,0,0,0,4.12-1,4.35,4.35,0,0,0-.33-5.14,3.54,3.54,0,0,0-.78-.64Z"/><path class="cls-2" d="M474.41,495.82q-10.76-11-15.36-20.16t-3.38-17.12a24.77,24.77,0,0,1,3.81-10.25,24.19,24.19,0,0,1,6.76-6.8,23.78,23.78,0,0,1,8.43-3.48,23.64,23.64,0,0,1,16.92,2.61,23.87,23.87,0,0,1,7,5.86A24.15,24.15,0,0,1,503,455a24.83,24.83,0,0,1,.52,11q-1.22,7.92-8.36,15.22T474.41,495.82ZM478.64,469a6.84,6.84,0,0,0,5.41-1.38,7.28,7.28,0,0,0,2.89-4.85,7.09,7.09,0,0,0-1.34-5.45,7,7,0,0,0-4.71-2.91,7.24,7.24,0,0,0-5.5,1.33,7,7,0,0,0-3,4.79,7.5,7.5,0,0,0,6.21,8.47Zm-30.36,37.47,1.21-7.84L497.33,506l-1.21,7.83Z"/><path class="cls-3" d="M611.86,597q-5.16-14.52-5.54-24.73t4.08-17a24.75,24.75,0,0,1,7.73-7.73,24,24,0,0,1,9-3.36,23.67,23.67,0,0,1,9.11.36,23.63,23.63,0,0,1,14.29,9.44,23.78,23.78,0,0,1,3.9,8.24,24.06,24.06,0,0,1,.44,9.58,24.94,24.94,0,0,1-4.12,10.22q-4.41,6.69-14,10.34T611.86,597Zm15-22.61a6.87,6.87,0,0,0,5.5,1,7.26,7.26,0,0,0,4.64-3.2,7.07,7.07,0,0,0,1.06-5.51,6.94,6.94,0,0,0-3.07-4.61,7.2,7.2,0,0,0-5.55-1.09,7,7,0,0,0-4.68,3.12,7.47,7.47,0,0,0,2.1,10.28ZM583.67,595.8l4.37-6.62,40.39,26.68-4.37,6.62Z"/><path class="cls-4" d="M864.14,400.43q-15.39.9-25.3-1.58t-15.15-8.66a24.67,24.67,0,0,1-5.26-9.58,23.7,23.7,0,0,1,2.17-18.22,23.7,23.7,0,0,1,13-11.08,23.75,23.75,0,0,1,9-1.45,24.15,24.15,0,0,1,9.33,2.25,25.21,25.21,0,0,1,8.66,6.81q5.19,6.1,6,16.29T864.14,400.43Zm-17.52-20.75a6.87,6.87,0,0,0,2.51-5,7.29,7.29,0,0,0-1.78-5.35,7.35,7.35,0,0,0-10.28-.9,7.18,7.18,0,0,0-2.59,5,7,7,0,0,0,1.68,5.38,7.5,7.5,0,0,0,10.46.85Zm8.46,47.48-5.14-6.05,36.9-31.33,5.13,6Z"/><path d="M770.86,229.94a33.73,33.73,0,0,1,5.26,3c2.73,1.89,4.18,3.65,4.65,5.64a6.1,6.1,0,0,1-1,4.87,6.4,6.4,0,0,1-7.28,2.49l-.05.08c1.16,1.58,1.08,3.66.14,6.06a41.37,41.37,0,0,0-2.25,6.54l-2.67-1.85a31.92,31.92,0,0,1,2-5.68c1.29-3.15.94-5-1.34-6.64l-2.44-1.68-6,8.65-2.58-1.78Zm-3.69,10.86,2.63,1.82c2.76,1.91,5.55,1.61,7.13-.68,1.79-2.59.69-5-2-6.89a14.47,14.47,0,0,0-2.71-1.54Z"/><path d="M787.79,264.9c-1,1.51-1.87,2.83-2.58,4l-2.31-1.59,1.48-2.44-.07-.05a6.49,6.49,0,0,1-6.58-.6c-2.25-1.55-4.07-4.67-.61-9.69l5.78-8.37,2.6,1.79L780,255.87c-1.88,2.73-2.31,5.18,0,6.8a4.63,4.63,0,0,0,5.1,0,4.83,4.83,0,0,0,1.16-1.18l6-8.77L795,254.5Z"/><path d="M797.38,277.31l1-2-.08-.06a6.45,6.45,0,0,1-5.86-.89,5,5,0,0,1-1.54-7.13c2.4-3.47,6.79-3.25,12.3.61l.21-.31c.8-1.16,2-3.54-1-5.55A8.43,8.43,0,0,0,798,260.5l.6-2.14a11,11,0,0,1,5.6,2c4.38,3,3.38,6.76,1.4,9.63l-3.7,5.36a26.27,26.27,0,0,0-2.15,3.58Zm4.64-7.6c-2.78-2-6.35-3.73-8.27-1a2.8,2.8,0,0,0,.71,4.18,4.37,4.37,0,0,0,5.15,0,3.4,3.4,0,0,0,.69-.74Z"/><path d="M825.91,295.67a22,22,0,0,1-6.89-3.14c-3-2.09-5-4.58-5.65-7.79a12.36,12.36,0,0,1,2.34-9.33c4.12-6,11.22-7.48,17.91-2.87A15.12,15.12,0,0,1,838,276.9l-2.09,1.66a12.49,12.49,0,0,0-3.82-3.89c-4.85-3.35-10.1-2.52-13.55,2.48s-2.53,10.15,2.15,13.37a9.93,9.93,0,0,0,3.79,1.83l4.11-6-4-2.79,1.42-2.06,6.58,4.54Z"/><path d="M843.89,303.61c-1,1.5-1.88,2.82-2.59,4L839,306l1.47-2.44-.07-.05a6.49,6.49,0,0,1-6.58-.6c-2.25-1.55-4.07-4.66-.61-9.69l5.78-8.37,2.59,1.79-5.46,7.91c-1.88,2.73-2.31,5.18,0,6.8a4.6,4.6,0,0,0,5.1,0,5,5,0,0,0,1.16-1.17l6.05-8.78,2.6,1.79Z"/><path d="M845.52,310.53l9.89-14.33L858,298l-9.88,14.33Zm15.6-16.37a1.91,1.91,0,0,1-2.78.47,1.88,1.88,0,0,1-.45-2.7,2,2,0,1,1,3.23,2.23Z"/><path d="M879.34,302.81l-12,17.34c-.87,1.27-1.81,2.74-2.43,3.78l-2.31-1.6,1.57-2.57-.07-.05a6.38,6.38,0,0,1-6.79-.55c-3.47-2.4-4.13-7.18-1.13-11.52,3.28-4.81,8.27-5.67,11.75-3.26a5.84,5.84,0,0,1,2.83,5.16l.06,0,5.9-8.56ZM868.1,313.56a7.24,7.24,0,0,0,.66-1.19,4.68,4.68,0,0,0-1.71-5.6c-2.7-1.87-5.94-.61-8.12,2.54-2,2.91-2.22,6.32.59,8.26a4.77,4.77,0,0,0,6-.5,5.08,5.08,0,0,0,.9-1Z"/><path d="M887.18,328.49c-3.66,5.3-8.95,5.09-12.39,2.71-3.89-2.68-4.94-7.59-1.8-12.13,3.31-4.8,8.4-5.43,12.36-2.69C889.47,319.22,890.19,324.12,887.18,328.49Zm-11.48-7.67c-2.17,3.14-2,6.75.54,8.5s6,.68,8.22-2.57c1.68-2.43,2.57-6.33-.53-8.47S877.58,318.1,875.7,320.82Z"/><path d="M908.17,324.27l-5.78,8.37,9.66,6.66,5.77-8.37,2.59,1.79-13.78,20L904,350.9l6.46-9.37-9.65-6.66-6.46,9.37-2.6-1.79,13.78-20Z"/><path d="M929,357.34c-3.67,5.3-9,5.08-12.39,2.71-3.89-2.68-4.94-7.59-1.8-12.14,3.31-4.79,8.4-5.42,12.36-2.68C931.28,348.07,932,353,929,357.34Zm-11.48-7.68c-2.17,3.15-2,6.76.54,8.51s6,.68,8.22-2.57c1.68-2.43,2.57-6.34-.53-8.47S919.38,347,917.51,349.66Z"/><path d="M934.05,357.05c1.16-1.7,2.12-3.17,3-4.55l2.28,1.58L937.45,357l.09.06a5.28,5.28,0,0,1,6.16-.38,3.46,3.46,0,0,1,.67.57l-1.69,2.45a5.14,5.14,0,0,0-.83-.69c-1.84-1.26-4.09-.78-5.79.93a8.4,8.4,0,0,0-.94,1.14l-5.29,7.66-2.59-1.79Z"/><path d="M953.51,357.8l-2.85,4.12,3.74,2.58-1.36,2-3.74-2.59L944,371.62c-1.23,1.78-1.41,3.14,0,4.15a6.27,6.27,0,0,0,1.64.85l-1.24,2.06a7.93,7.93,0,0,1-2.58-1.24,4.42,4.42,0,0,1-2.05-3.05c-.17-1.28.4-2.75,1.57-4.43l5.4-7.83-2.22-1.53,1.36-2,2.22,1.53,2.38-3.45Z"/><path d="M953.35,375.05c-2.38,3.55-1.14,6.55,1.47,8.36a11.91,11.91,0,0,0,4.48,2l-.82,2.17a14.15,14.15,0,0,1-5.41-2.39c-4.41-3-5-7.8-2.06-12.09s7.89-6,12.07-3.09c4.68,3.23,3.07,8.17,1.25,10.81a7.77,7.77,0,0,1-.93,1.16Zm8.92,3.39c1.16-1.63,2.24-4.69-.68-6.7-2.66-1.84-5.45-.22-6.91,1.46Z"/><path d="M976.63,369.94l2.6,1.79-14.52,21L962.12,391Z"/><path d="M983.63,374.77l2.59,1.79-14.51,21-2.6-1.79Z"/><path d="M976.11,400.63,986,386.3l2.59,1.79-9.88,14.33Zm15.59-16.37a1.91,1.91,0,0,1-2.78.47,1.88,1.88,0,0,1-.45-2.7,1.92,1.92,0,0,1,2.74-.5A1.9,1.9,0,0,1,991.7,384.26Z"/><path d="M1273.51,262a34.52,34.52,0,0,1,5.76,1.86c3.06,1.3,4.84,2.73,5.7,4.57a6.07,6.07,0,0,1,0,5,6.41,6.41,0,0,1-6.62,3.92l0,.08c1.45,1.32,1.8,3.37,1.37,5.91a41.78,41.78,0,0,0-.87,6.86l-3-1.26a32,32,0,0,1,.79-6c.62-3.34-.09-5-2.66-6.23l-2.74-1.15-4.08,9.69-2.89-1.22Zm-1.41,11.4,3,1.24c3.09,1.3,5.75.44,6.83-2.12,1.23-2.9-.34-5-3.38-6.33a14.39,14.39,0,0,0-3-1Z"/><path d="M1297.21,292.78c-.71,1.68-1.26,3.15-1.72,4.45l-2.58-1.09.95-2.69-.08,0a6.5,6.5,0,0,1-6.57.75c-2.51-1.06-4.93-3.74-2.56-9.36l3.95-9.38,2.91,1.23-3.74,8.86c-1.29,3.05-1.21,5.54,1.42,6.65a4.62,4.62,0,0,0,5-1.05,4.75,4.75,0,0,0,.89-1.39l4.15-9.82,2.9,1.22Z"/><path d="M1309.11,303l.6-2.13-.09,0a6.46,6.46,0,0,1-5.91.32,5,5,0,0,1-3-6.66c1.64-3.89,6-4.57,12.16-1.91l.14-.35c.55-1.3,1.2-3.87-2.09-5.24a8.41,8.41,0,0,0-4.68-.56l.15-2.22a11,11,0,0,1,5.89.82c4.9,2.07,4.69,5.93,3.33,9.14l-2.53,6a26.23,26.23,0,0,0-1.37,3.94Zm3-8.38c-3.12-1.4-7-2.35-8.29.75a2.8,2.8,0,0,0,1.55,3.94,4.35,4.35,0,0,0,5-1,3.45,3.45,0,0,0,.53-.86Z"/><path d="M1337.32,288.54l2.91,1.22-6.3,14.95c-2.51,5.94-6.2,6.54-10,4.92a10.34,10.34,0,0,1-2.88-1.82l1.42-2.18a7.47,7.47,0,0,0,2.27,1.45c2.57,1.09,4.57.55,6.42-3.83Z"/><path d="M1353.55,312.08c-2.51,5.94-7.73,6.8-11.58,5.18-4.35-1.84-6.37-6.43-4.23-11.52,2.27-5.37,7.12-7,11.55-5.15C1353.91,302.54,1355.61,307.2,1353.55,312.08Zm-12.8-5.18c-1.48,3.52-.59,7,2.26,8.22s6-.55,7.53-4.19c1.14-2.71,1.22-6.72-2.25-8.19S1342,303.86,1340.75,306.9Z"/><path d="M1362.69,325.56l.59-2.13-.09,0a6.46,6.46,0,0,1-5.91.32,5,5,0,0,1-3-6.67c1.64-3.88,6-4.56,12.16-1.91l.14-.34c.55-1.3,1.21-3.87-2.09-5.24a8.41,8.41,0,0,0-4.68-.56l.15-2.22a10.93,10.93,0,0,1,5.89.82c4.91,2.07,4.69,5.93,3.33,9.14l-2.53,6a27.4,27.4,0,0,0-1.37,3.94Zm3-8.38c-3.13-1.4-7-2.36-8.29.75a2.79,2.79,0,0,0,1.54,3.94,4.35,4.35,0,0,0,5-1,3.45,3.45,0,0,0,.53-.86Zm-2.59-13.59c.85-2.2,2.3-3.11,3.72-2.51a4.76,4.76,0,0,1,1.75,1.6,3.63,3.63,0,0,0,1.16,1.16c.52.22,1,.05,1.51-1l1.55.65c-.89,2.21-2.12,3-3.68,2.4a4.76,4.76,0,0,1-1.74-1.56c-.5-.64-.77-1-1.18-1.18s-1,.23-1.5,1.13Z"/><path d="M1387.75,326.5c-2.51,5.94-7.72,6.8-11.58,5.18-4.35-1.84-6.38-6.42-4.23-11.52,2.27-5.36,7.12-7,11.56-5.15C1388.11,317,1389.81,321.62,1387.75,326.5Zm-12.8-5.18c-1.48,3.52-.59,7,2.26,8.22s6-.55,7.53-4.19c1.14-2.71,1.22-6.72-2.25-8.18S1376.23,318.28,1375,321.32Z"/><path d="M1411,345.1a15.41,15.41,0,0,1-6.36-1.42c-6.3-2.66-9.34-8.63-6.25-16,3-7,9.68-9.74,16.62-6.81a13.18,13.18,0,0,1,4.89,3.22l-1.7,2.05a11.55,11.55,0,0,0-4.11-2.81c-5.25-2.22-10.14-.33-12.61,5.54-2.31,5.47-.63,10.29,4.79,12.58a12.77,12.77,0,0,0,5.12,1.08Z"/><path d="M1422.93,351l.59-2.13-.09,0a6.46,6.46,0,0,1-5.91.32,5,5,0,0,1-3-6.67c1.64-3.88,6-4.56,12.16-1.91l.14-.34c.55-1.3,1.2-3.87-2.09-5.24a8.41,8.41,0,0,0-4.68-.56l.15-2.22a10.93,10.93,0,0,1,5.89.82c4.91,2.07,4.69,5.93,3.33,9.14l-2.53,6a27.4,27.4,0,0,0-1.37,3.94Zm3-8.38c-3.13-1.4-7-2.36-8.3.75a2.8,2.8,0,0,0,1.55,3.94,4.35,4.35,0,0,0,5-1,3.18,3.18,0,0,0,.53-.86Z"/><path d="M1435,342.25c.7-1.68,1.21-3,1.69-4.39l2.58,1.08-1,2.71.08,0a6.43,6.43,0,0,1,6.57-.76c2.2.93,5.09,3.71,2.77,9.22l-4,9.57-2.9-1.23,3.9-9.25c1.09-2.59,1-5.17-1.7-6.32a4.55,4.55,0,0,0-5.19,1.33,5,5,0,0,0-.77,1.27l-4.08,9.67L1430,354Z"/><path d="M1447.32,359.25l11.23-6.37c1.09-.6,2.06-1.08,3.17-1.62l0-.07-8.72-3.68,1-2.33,12.26,5.17-.79,1.81-11.1,6.3c-1.05.58-2.06,1.12-3.11,1.62l0,.07,9.37,4-1,2.34-13-5.49Z"/><path d="M1462.63,367.7l6.76-16,2.9,1.23-6.76,16Zm11.93-19.2a2,2,0,1,1-1-2.57A1.9,1.9,0,0,1,1474.56,348.5Z"/><path d="M854.91,85.76a32.76,32.76,0,0,1,5.76,1.86c3.06,1.29,4.84,2.73,5.7,4.57a6.07,6.07,0,0,1,0,5,6.4,6.4,0,0,1-6.61,3.92l0,.08c1.45,1.32,1.81,3.36,1.37,5.91a41.66,41.66,0,0,0-.87,6.86l-3-1.26a31.81,31.81,0,0,1,.79-6c.62-3.34-.08-5-2.66-6.23l-2.74-1.15L848.5,109l-2.88-1.21Zm-1.4,11.39,3,1.25c3.09,1.3,5.75.44,6.83-2.12,1.23-2.9-.33-5-3.38-6.34a13.71,13.71,0,0,0-3-1Z"/><path d="M878.61,116.55c-.71,1.68-1.26,3.14-1.72,4.45l-2.58-1.09,1-2.69-.08,0a6.5,6.5,0,0,1-6.57.74c-2.51-1.05-4.93-3.73-2.56-9.35l4-9.38,2.91,1.22-3.74,8.87c-1.29,3-1.21,5.53,1.42,6.64a4.48,4.48,0,0,0,5.88-2.43l4.15-9.82,2.9,1.22Z"/><path d="M890.51,126.74l.6-2.13-.08,0a6.48,6.48,0,0,1-5.92.32,5,5,0,0,1-3-6.67c1.64-3.88,6-4.57,12.16-1.91l.14-.34c.55-1.3,1.21-3.87-2.09-5.24a8.51,8.51,0,0,0-4.68-.57l.15-2.21a10.93,10.93,0,0,1,5.89.82c4.91,2.07,4.69,5.92,3.33,9.14l-2.53,6a27.4,27.4,0,0,0-1.37,3.94Zm3-8.38c-3.13-1.4-7-2.36-8.29.75a2.79,2.79,0,0,0,1.54,3.94,4.35,4.35,0,0,0,5-1,3.45,3.45,0,0,0,.53-.86Z"/><path d="M918.72,112.31l2.91,1.22-6.3,14.94c-2.51,5.95-6.2,6.55-10,4.93a10.14,10.14,0,0,1-2.87-1.83l1.41-2.18a7.61,7.61,0,0,0,2.27,1.46c2.57,1.09,4.57.55,6.42-3.83Z"/><path d="M935,135.85c-2.51,5.94-7.72,6.8-11.58,5.17-4.35-1.83-6.37-6.42-4.23-11.51,2.27-5.37,7.12-7,11.56-5.15C935.31,126.31,937,131,935,135.85Zm-12.8-5.18c-1.48,3.52-.58,7,2.26,8.22s6-.55,7.53-4.19c1.14-2.72,1.22-6.73-2.25-8.19S923.43,127.63,922.15,130.67Z"/><path d="M944.09,149.33l.59-2.14-.08,0a6.48,6.48,0,0,1-5.92.32,5,5,0,0,1-3-6.67c1.64-3.88,6-4.57,12.16-1.91l.15-.34c.55-1.3,1.2-3.87-2.1-5.24a8.51,8.51,0,0,0-4.68-.57l.16-2.22a11,11,0,0,1,5.88.83c4.91,2.07,4.69,5.92,3.33,9.14l-2.53,6a27.4,27.4,0,0,0-1.37,3.94Zm3-8.38c-3.13-1.4-7-2.36-8.29.74a2.79,2.79,0,0,0,1.54,3.95,4.35,4.35,0,0,0,5-1,3.18,3.18,0,0,0,.53-.86Zm-2.59-13.6c.85-2.19,2.3-3.1,3.72-2.5a4.76,4.76,0,0,1,1.75,1.6,3.73,3.73,0,0,0,1.16,1.16c.52.21,1,0,1.51-1l1.55.66c-.89,2.21-2.12,3-3.68,2.39a4.73,4.73,0,0,1-1.74-1.55c-.5-.64-.77-1-1.18-1.18s-1,.23-1.49,1.13Z"/><path d="M969.15,150.27c-2.51,5.94-7.72,6.8-11.58,5.17-4.35-1.83-6.37-6.42-4.23-11.51,2.27-5.37,7.12-7,11.56-5.15C969.51,140.73,971.21,145.38,969.15,150.27Zm-12.8-5.18c-1.48,3.52-.58,7,2.26,8.22s6-.55,7.53-4.19c1.14-2.72,1.22-6.72-2.25-8.19S957.63,142.05,956.35,145.09Z"/><path d="M992.44,168.87a15.41,15.41,0,0,1-6.36-1.42c-6.3-2.66-9.34-8.63-6.25-16,3-7,9.68-9.74,16.62-6.81a13.05,13.05,0,0,1,4.89,3.22l-1.7,2.05a11.69,11.69,0,0,0-4.11-2.82c-5.25-2.21-10.13-.32-12.61,5.55-2.31,5.47-.63,10.29,4.79,12.58a13,13,0,0,0,5.12,1.08Z"/><path d="M1004.33,174.73l.59-2.13-.08,0a6.48,6.48,0,0,1-5.92.32,5,5,0,0,1-3-6.67c1.64-3.88,6-4.57,12.16-1.91l.15-.34c.55-1.3,1.2-3.87-2.1-5.24a8.51,8.51,0,0,0-4.68-.57l.16-2.22a11,11,0,0,1,5.88.83c4.91,2.07,4.69,5.92,3.34,9.14l-2.54,6a27.4,27.4,0,0,0-1.37,3.94Zm3-8.38c-3.13-1.4-7-2.36-8.29.74a2.79,2.79,0,0,0,1.54,3.95,4.35,4.35,0,0,0,5-1,3.18,3.18,0,0,0,.53-.86Z"/><path d="M1016.36,166c.7-1.67,1.21-3,1.69-4.38l2.58,1.08-1,2.71.08,0a6.43,6.43,0,0,1,6.57-.76c2.2.93,5.09,3.7,2.77,9.22l-4,9.56-2.91-1.22,3.9-9.25c1.1-2.59,1-5.17-1.7-6.33a4.57,4.57,0,0,0-5.19,1.34,5,5,0,0,0-.77,1.27l-4.08,9.67-2.9-1.23Z"/><path d="M1028.72,183l11.23-6.37c1.09-.59,2.06-1.08,3.17-1.62l0-.07-8.72-3.67,1-2.33,12.25,5.16-.79,1.82-11.1,6.3c-1,.58-2.06,1.12-3.11,1.62l0,.07,9.37,4-1,2.33-13-5.49Z"/><path d="M1044,191.47l6.76-16,2.91,1.22-6.77,16Zm11.93-19.2a1.91,1.91,0,0,1-2.62,1,1.88,1.88,0,0,1-1-2.55,1.92,1.92,0,0,1,2.58-1.06A1.89,1.89,0,0,1,1056,172.27Z"/><path d="M196.76,594.86a29.13,29.13,0,0,1,5.52.57c3,.57,4.86,1.52,6,3a5.54,5.54,0,0,1,.92,4.48A5.88,5.88,0,0,1,204,607.7l0,.08c1.56.9,2.26,2.67,2.36,5a36.92,36.92,0,0,0,.53,6.32l-2.93-.56a29.37,29.37,0,0,1-.43-5.5c-.08-3.12-1-4.51-3.57-5.08l-2.68-.51-1.81,9.46-2.82-.54Zm.91,10.48,2.89.55c3,.58,5.24-.7,5.72-3.2.55-2.84-1.26-4.46-4.24-5a12.07,12.07,0,0,0-2.84-.28Z"/><path d="M223.88,617.94c-.31,1.65-.53,3.06-.69,4.32l-2.52-.48.34-2.6h-.08a6,6,0,0,1-5.75,1.92c-2.45-.47-5.13-2.41-4.08-7.9l1.76-9.16,2.83.54L214,613.23c-.57,3,0,5.2,2.55,5.69a4.21,4.21,0,0,0,4.27-1.89,4.51,4.51,0,0,0,.54-1.41l1.84-9.61,2.84.55Z"/><path d="M236.5,624.81l.13-2h-.08a6,6,0,0,1-5.25,1.41,4.53,4.53,0,0,1-3.92-5.41c.72-3.8,4.49-5.24,10.54-4l.06-.33c.24-1.27.34-3.7-2.88-4.3a7.71,7.71,0,0,0-4.31.39l-.28-2a10,10,0,0,1,5.44-.39c4.79.92,5.33,4.42,4.73,7.56l-1.12,5.87a24.33,24.33,0,0,0-.49,3.79Zm1.09-8.09c-3.07-.66-6.71-.78-7.29,2.25a2.55,2.55,0,0,0,2.14,3.24,4,4,0,0,0,4.32-1.89,3,3,0,0,0,.31-.87Z"/><path d="M257.41,606.17,253.22,628l-2.83-.54,4.18-21.85Z"/><path d="M260.44,618.2c.35-1.85.61-3.43.8-4.9l2.5.48-.48,3.09.1,0a4.84,4.84,0,0,1,5-2.59,3.4,3.4,0,0,1,.78.23l-.51,2.68a4.65,4.65,0,0,0-1-.27c-2-.38-3.71.86-4.51,2.92a7.52,7.52,0,0,0-.37,1.31l-1.61,8.37-2.83-.54Z"/><path d="M269.1,631.06l3-15.68,2.84.54-3,15.68Zm7-19.5a1.8,1.8,0,0,1-3.54-.68,1.77,1.77,0,0,1,2.12-1.43A1.74,1.74,0,0,1,276.14,611.56Z"/><path d="M278.88,621.06c.31-1.63.51-2.94.68-4.25l2.52.48-.34,2.61h.08a5.92,5.92,0,0,1,5.75-1.94c2.15.41,5.27,2.36,4.24,7.74L290,635.06l-2.84-.54,1.74-9c.48-2.53-.07-4.84-2.74-5.35a4.17,4.17,0,0,0-4.4,2.19,4.68,4.68,0,0,0-.45,1.28l-1.81,9.45-2.83-.54Z"/><path d="M297.67,628.94c-.68,3.86,1.46,5.92,4.32,6.47a10.87,10.87,0,0,0,4.5,0l.11,2.12a12.92,12.92,0,0,1-5.42,0c-4.82-.92-7.1-4.68-6.2-9.39s4.42-7.92,9-7c5.11,1,5.59,5.72,5,8.6a6.89,6.89,0,0,1-.36,1.32Zm8.74-.46c.37-1.79.15-4.75-3.05-5.36-2.91-.56-4.65,1.83-5.26,3.77Z"/><path d="M324.84,637.28c-.31,1.65-.53,3.07-.69,4.32l-2.52-.48.34-2.59-.08,0a6,6,0,0,1-5.75,1.93c-2.45-.47-5.14-2.41-4.08-7.91l1.75-9.16,2.84.54L315,632.57c-.57,3,0,5.2,2.54,5.69a4.23,4.23,0,0,0,4.28-1.89,4.77,4.77,0,0,0,.54-1.41l1.84-9.6,2.83.54Z"/><path d="M356,637.76c.41-3.07.92-6.8,1.45-9.49l-.08,0q-1.86,3.59-4.34,7.76l-5.89,9.85-2.13-.4-1.57-11.09c-.45-3.29-.76-6.25-.87-9h-.08c-.6,2.71-1.44,6.32-2.28,9.56l-2.37,9.26-2.68-.51,5.7-21.56,3.61.69,1.69,11.29c.39,2.85.66,5.39.79,7.78l.09,0c1-2.1,2.22-4.37,3.72-6.92l5.92-9.83,3.61.7L357.46,648l-2.78-.53Z"/><path d="M377.61,643.56c-1.11,5.81-5.62,7.58-9.39,6.85-4.26-.81-7-4.54-6-9.52,1-5.24,5-7.65,9.38-6.82C376.11,634.94,378.53,638.79,377.61,643.56Zm-12.46-2.2c-.66,3.44.81,6.41,3.59,6.94s5.27-1.64,5.95-5.2c.51-2.65-.18-6.26-3.57-6.91S365.72,638.39,365.15,641.36Z"/><path d="M381.75,641.45c.35-1.85.61-3.44.8-4.91l2.5.48-.48,3.09.1,0a4.84,4.84,0,0,1,5-2.59,3.4,3.4,0,0,1,.78.23l-.51,2.68a4.65,4.65,0,0,0-1-.27c-2-.38-3.71.86-4.51,2.92a7.52,7.52,0,0,0-.37,1.31l-1.6,8.37-2.84-.54Z"/><path d="M393,647.19c-.69,3.87,1.46,5.92,4.32,6.47a10.69,10.69,0,0,0,4.5,0l.11,2.12a12.76,12.76,0,0,1-5.43,0c-4.81-.92-7.09-4.69-6.19-9.39s4.42-7.93,9-7c5.12,1,5.6,5.72,5,8.61a7,7,0,0,1-.35,1.32Zm8.73-.45c.38-1.79.15-4.76-3-5.37-2.91-.56-4.66,1.84-5.27,3.78Z"/><path d="M413.49,637.79l-.87,4.51,4.1.78-.42,2.16-4.09-.78-1.62,8.45c-.38,2,0,3.16,1.57,3.47a6,6,0,0,0,1.69.11l-.28,2.19a7.34,7.34,0,0,1-2.63-.1,4,4,0,0,1-2.84-1.8c-.62-1-.68-2.45-.33-4.3l1.64-8.56-2.42-.46.41-2.16,2.43.46.72-3.77Z"/><path d="M432.45,654.07c-1.11,5.8-5.63,7.57-9.4,6.85-4.25-.82-6.94-4.54-6-9.52,1-5.25,5-7.65,9.37-6.82C431,645.44,433.37,649.29,432.45,654.07ZM420,651.87c-.65,3.44.82,6.4,3.6,6.94s5.27-1.64,5.95-5.2c.51-2.65-.19-6.26-3.57-6.91S420.55,648.9,420,651.87Z"/><path d="M681.74,779l-8.53,1.22,1.13,8,9.55-1.36.33,2.37L671.82,791l-3.14-22,11.9-1.7.34,2.37-9,1.29,1,7,8.54-1.21Z"/><path d="M687,785.81a8.06,8.06,0,0,0,4,.57c2.1-.31,2.92-1.49,2.73-2.81s-1.15-2-3.36-2.46c-3-.61-4.58-2-4.85-3.86-.37-2.55,1.39-4.94,4.78-5.43a7.75,7.75,0,0,1,4,.4l-.4,2.2a6.17,6.17,0,0,0-3.38-.46c-1.69.25-2.47,1.36-2.3,2.55s1.21,1.75,3.39,2.25c2.87.62,4.49,1.79,4.84,4.14.41,2.8-1.48,5.08-5.21,5.63a9.15,9.15,0,0,1-4.6-.45Z"/><path d="M701.16,765.93l.68,4.55,4.12-.62.33,2.17-4.13.62,1.27,8.51c.3,2,1,3,2.63,2.75a5.49,5.49,0,0,0,1.64-.46l.45,2.17a7.31,7.31,0,0,1-2.5.77,4,4,0,0,1-3.28-.75c-.92-.75-1.45-2.09-1.73-3.95l-1.29-8.62-2.45.37-.32-2.18,2.44-.36-.57-3.8Z"/><path d="M709.88,774.29c-.28-1.86-.57-3.44-.88-4.89l2.51-.39.59,3.08h.1a4.84,4.84,0,0,1,3.86-4.13,3.23,3.23,0,0,1,.81,0l.42,2.7a4.37,4.37,0,0,0-1,.06c-2,.31-3.22,2.06-3.28,4.26a8.1,8.1,0,0,0,.09,1.36l1.29,8.43-2.86.43Z"/><path d="M730.78,782.16l-.57-1.95h-.08a6,6,0,0,1-4.45,3.12,4.56,4.56,0,0,1-5.53-3.77c-.6-3.82,2.45-6.45,8.54-7.36l-.05-.34c-.2-1.28-.93-3.6-4.16-3.07a7.75,7.75,0,0,0-3.92,1.82l-.95-1.8a10,10,0,0,1,5-2.2c4.82-.76,6.51,2.35,7,5.5l.93,5.9a25.25,25.25,0,0,0,.84,3.73Zm-1.72-8c-3.11.43-6.57,1.54-6.09,4.59a2.57,2.57,0,0,0,3.11,2.33,4,4,0,0,0,3.42-3.25,2.84,2.84,0,0,0,0-.92Z"/><path d="M747.47,755.7l3.15,19.06c.23,1.4.54,3,.8,4l-2.55.42-.59-2.7h-.08a5.85,5.85,0,0,1-4.83,4c-3.82.63-7.29-2.11-8.08-6.88-.89-5.26,1.84-9,5.68-9.63a5.31,5.31,0,0,1,5.14,1.6h.07l-1.55-9.4ZM746.9,770a5.69,5.69,0,0,0-.32-1.21,4.31,4.31,0,0,0-4.69-2.61c-3,.49-4.31,3.38-3.74,6.84.52,3.2,2.55,5.6,5.64,5.09a4.38,4.38,0,0,0,3.62-4.13,4.85,4.85,0,0,0-.06-1.25Z"/><path d="M764.74,776.49l-.6-1.94h-.09a6,6,0,0,1-4.4,3.19,4.56,4.56,0,0,1-5.59-3.68c-.66-3.81,2.35-6.49,8.43-7.5l0-.34c-.23-1.28-1-3.58-4.22-3a7.73,7.73,0,0,0-3.89,1.88l-1-1.79A10.17,10.17,0,0,1,758.3,761c4.81-.84,6.55,2.25,7.1,5.4l1,5.88a25.07,25.07,0,0,0,.9,3.72Zm-1.84-8c-3.11.47-6.56,1.64-6,4.69A2.56,2.56,0,0,0,760,775.5a4,4,0,0,0,3.37-3.3,2.88,2.88,0,0,0,0-.93Z"/><path d="M787.63,748.43l3.61,19c.27,1.39.62,3,.91,4l-2.54.48-.66-2.69-.08,0a5.84,5.84,0,0,1-4.73,4.08c-3.8.73-7.35-1.93-8.25-6.68-1-5.24,1.62-9,5.44-9.77a5.33,5.33,0,0,1,5.18,1.47h.07L784.79,749Zm-.22,14.26a6.56,6.56,0,0,0-.35-1.2A4.3,4.3,0,0,0,782.3,759c-2.95.56-4.22,3.49-3.57,6.93.61,3.19,2.7,5.53,5.77,5a4.4,4.4,0,0,0,3.52-4.22,4.92,4.92,0,0,0-.09-1.25Z"/><path d="M809.14,759.63c1.21,5.78-2.28,9.15-6,9.93-4.24.89-8.16-1.52-9.19-6.48-1.09-5.23,1.71-9,6-9.9C804.44,752.24,808.15,754.87,809.14,759.63Zm-12.35,2.76c.72,3.43,3.22,5.6,6,5s4.23-3.54,3.49-7.08c-.55-2.65-2.58-5.71-5.95-5S796.18,759.43,796.79,762.39Z"/><path d="M816.05,743.92a27.1,27.1,0,0,1,5-1.73c2.8-.7,4.7-.67,6.31.09a4.73,4.73,0,0,1,2.76,3.37,5.25,5.25,0,0,1-2.47,5.64l0,.08a5.7,5.7,0,0,1,5.81,4.31,5.81,5.81,0,0,1-.78,4.75c-1.14,1.77-3.41,3-6.94,3.89a37.25,37.25,0,0,1-4.39.83Zm5,8.15,2.55-.64c2.92-.72,4.26-2.71,3.73-4.8-.62-2.5-2.77-3-5.59-2.34a11.46,11.46,0,0,0-2.43.82Zm2.57,10.32A13.54,13.54,0,0,0,826,762c2.89-.73,5.29-2.45,4.51-5.59-.73-2.93-3.58-3.53-6.62-2.77l-2.32.57Z"/><path d="M847.91,757.93l-.85-1.84-.08,0a6,6,0,0,1-4,3.73,4.55,4.55,0,0,1-6-2.92c-1.15-3.69,1.48-6.73,7.38-8.53l-.1-.32c-.39-1.24-1.45-3.43-4.57-2.43a7.71,7.71,0,0,0-3.61,2.37l-1.21-1.64a10,10,0,0,1,4.61-2.91c4.66-1.46,6.79,1.37,7.74,4.42l1.78,5.7a26.2,26.2,0,0,0,1.37,3.57ZM845,750.29c-3,.88-6.28,2.49-5.36,5.43a2.57,2.57,0,0,0,3.42,1.85,4,4,0,0,0,2.91-3.72,2.94,2.94,0,0,0-.14-.91Z"/><path d="M851.12,744.17c-.63-1.55-1.18-2.75-1.75-3.95l2.37-1,1.14,2.36.08,0a5.87,5.87,0,0,1,3.75-4.76c2-.83,5.71-.9,7.78,4.17l3.6,8.81-2.67,1.1-3.48-8.52c-1-2.39-2.7-4-5.21-3a4.18,4.18,0,0,0-2.49,4.24,4.36,4.36,0,0,0,.32,1.32l3.64,8.91L855.52,755Z"/><path d="M877.06,721.39l6.76,18.1c.5,1.33,1.11,2.8,1.57,3.81l-2.42.9-1.1-2.53-.08,0a5.82,5.82,0,0,1-4,4.82c-3.62,1.36-7.56-.66-9.25-5.2-1.89-5,.07-9.18,3.71-10.54a5.33,5.33,0,0,1,5.36.58l.06,0-3.33-8.93Zm2.19,14.1a6.46,6.46,0,0,0-.55-1.12,4.29,4.29,0,0,0-5.11-1.66c-2.81,1-3.57,4.15-2.35,7.43,1.14,3,3.59,5,6.52,3.9a4.38,4.38,0,0,0,2.76-4.75,4.79,4.79,0,0,0-.31-1.21Z"/><path d="M888.74,734.16c1.38,3.67,4.27,4.36,7,3.37a10.72,10.72,0,0,0,3.89-2.26l1.17,1.77a12.9,12.9,0,0,1-4.67,2.76c-4.62,1.65-8.49-.43-10.11-4.94s-.22-9.07,4.17-10.64c4.9-1.76,7.72,2.09,8.71,4.85a7.08,7.08,0,0,1,.37,1.32Zm7.3-4.83c-.59-1.73-2.29-4.17-5.36-3.07-2.79,1-3.07,3.94-2.61,5.92Z"/><path d="M901.56,715.8a1.8,1.8,0,0,1-3.4,1.19,1.77,1.77,0,0,1,1.11-2.3A1.74,1.74,0,0,1,901.56,715.8Zm3.72,20.39L900,721.13l2.73-1L908,735.24Z"/><path d="M908.94,723.27c-.62-1.78-1.19-3.28-1.75-4.65l2.4-.83,1.13,2.92.1,0a4.85,4.85,0,0,1,3-4.76,3.61,3.61,0,0,1,.79-.19l.89,2.58a4.89,4.89,0,0,0-1,.25c-1.93.67-2.79,2.6-2.45,4.78a7.62,7.62,0,0,0,.33,1.31l2.79,8.06-2.72.94Z"/><path d="M930.93,727.32l-.9-1.82-.08,0a6,6,0,0,1-3.85,3.83A4.55,4.55,0,0,1,920,726.6c-1.26-3.65,1.3-6.77,7.15-8.73l-.11-.32c-.42-1.22-1.55-3.38-4.63-2.3a7.74,7.74,0,0,0-3.55,2.47l-1.25-1.62a10,10,0,0,1,4.53-3c4.62-1.58,6.82,1.19,7.85,4.21l1.94,5.65a24.76,24.76,0,0,0,1.46,3.53Zm-3.07-7.56c-3,1-6.21,2.65-5.21,5.57a2.55,2.55,0,0,0,3.46,1.75,4,4,0,0,0,2.81-3.78,2.84,2.84,0,0,0-.16-.91Z"/><path d="M933.85,714c-.53-1.57-1-2.81-1.5-4l2.43-.82,1,2.44.08,0a5.88,5.88,0,0,1,4-4.51c2.08-.7,5.75-.55,7.5,4.64l3.05,9-2.74.93-2.94-8.72c-.82-2.45-2.43-4.18-5-3.31a4.16,4.16,0,0,0-2.75,4.07,4.69,4.69,0,0,0,.24,1.34l3.07,9.11-2.73.92Z"/><path d="M951.59,698.68,953,703l4-1.33.69,2.09-4,1.32,2.72,8.16c.63,1.88,1.53,2.77,3.07,2.25a6.08,6.08,0,0,0,1.53-.73l.82,2.05a7.37,7.37,0,0,1-2.33,1.2,4.06,4.06,0,0,1-3.36-.17c-1-.58-1.79-1.82-2.39-3.59L951,706l-2.34.78-.7-2.08,2.34-.78-1.21-3.65Z"/><path d="M964.17,708.29c1.29,3.71,4.16,4.46,6.93,3.54a10.72,10.72,0,0,0,3.94-2.16l1.13,1.79a12.78,12.78,0,0,1-4.74,2.64c-4.65,1.55-8.48-.63-10-5.17s0-9.08,4.43-10.54c4.94-1.64,7.67,2.27,8.59,5.06a6.54,6.54,0,0,1,.33,1.32Zm7.41-4.65c-.55-1.75-2.19-4.23-5.28-3.2-2.81.93-3.17,3.87-2.75,5.86Z"/><path d="M1215.34,625.48,1207.1,628l2.36,7.68,9.22-2.83.7,2.28-12,3.68-6.53-21.25,11.5-3.53.7,2.28-8.73,2.68,2.06,6.74,8.25-2.53Z"/><path d="M1221.63,631.36a7.79,7.79,0,0,0,4,0c2-.62,2.67-1.9,2.28-3.18s-1.44-1.78-3.7-1.92c-3.06-.16-4.82-1.26-5.38-3.09-.75-2.46.63-5.08,3.91-6.09a7.78,7.78,0,0,1,4-.2l-.07,2.22a6.36,6.36,0,0,0-3.41.07c-1.64.5-2.24,1.71-1.89,2.86s1.46,1.56,3.7,1.72c2.93.17,4.7,1.08,5.41,3.36.82,2.7-.7,5.24-4.31,6.34a8.91,8.91,0,0,1-4.61.25Z"/><path d="M1232.71,609.58l1.35,4.39,4-1.22.64,2.11-4,1.21,2.51,8.23c.58,1.9,1.45,2.81,3,2.33a5.93,5.93,0,0,0,1.55-.69l.77,2.07a7.27,7.27,0,0,1-2.36,1.14,4.08,4.08,0,0,1-3.36-.26,6.13,6.13,0,0,1-2.29-3.65L1232,616.9l-2.37.72-.64-2.1,2.37-.72-1.13-3.68Z"/><path d="M1242.62,616.55c-.54-1.8-1.06-3.33-1.57-4.72l2.43-.74,1,3,.1,0a4.84,4.84,0,0,1,3.23-4.63,3.15,3.15,0,0,1,.8-.16l.8,2.61a4.48,4.48,0,0,0-1,.21c-2,.59-2.89,2.49-2.64,4.68a8.8,8.8,0,0,0,.28,1.33l2.49,8.16-2.76.84Z"/><path d="M1264.47,621.4l-.83-1.85-.08,0a5.94,5.94,0,0,1-4,3.69,4.55,4.55,0,0,1-6-3c-1.12-3.7,1.54-6.72,7.46-8.47l-.1-.32c-.38-1.24-1.42-3.44-4.55-2.47a7.77,7.77,0,0,0-3.63,2.34l-1.19-1.65a10,10,0,0,1,4.64-2.87c4.67-1.42,6.77,1.43,7.7,4.49l1.73,5.72a24.48,24.48,0,0,0,1.34,3.58Zm-2.79-7.67c-3,.85-6.31,2.43-5.41,5.39a2.55,2.55,0,0,0,3.4,1.87,4,4,0,0,0,2.94-3.69,2.9,2.9,0,0,0-.13-.91Z"/><path d="M1277.65,592.94l5.57,18.5c.41,1.36.92,2.87,1.31,3.9l-2.47.75-.93-2.6-.08,0a5.84,5.84,0,0,1-4.28,4.55c-3.7,1.12-7.5-1.15-8.9-5.79-1.56-5.1.67-9.16,4.39-10.28a5.33,5.33,0,0,1,5.31.93l.06,0-2.75-9.12Zm1.26,14.21a6.32,6.32,0,0,0-.47-1.15,4.29,4.29,0,0,0-5-2c-2.88.87-3.84,3.91-2.83,7.27.94,3.1,3.26,5.22,6.26,4.31a4.37,4.37,0,0,0,3-4.56,4.7,4.7,0,0,0-.22-1.23Z"/><path d="M1297.5,611.45l-.82-1.86-.08,0a6,6,0,0,1-4,3.68,4.55,4.55,0,0,1-6-3c-1.11-3.7,1.56-6.72,7.48-8.45l-.1-.32c-.37-1.25-1.41-3.44-4.54-2.49a7.8,7.8,0,0,0-3.64,2.34l-1.18-1.67a10.07,10.07,0,0,1,4.64-2.85c4.68-1.4,6.77,1.46,7.69,4.52l1.71,5.72a27.22,27.22,0,0,0,1.33,3.59Zm-2.77-7.68c-3,.84-6.31,2.41-5.42,5.37a2.54,2.54,0,0,0,3.39,1.88,4,4,0,0,0,3-3.67,3,3,0,0,0-.13-.92Z"/><path d="M1317.52,581.06l5.48,18.52c.4,1.36.91,2.88,1.29,3.91l-2.47.73-.92-2.6-.08,0a5.83,5.83,0,0,1-4.3,4.53c-3.71,1.1-7.5-1.19-8.87-5.83-1.54-5.11.71-9.16,4.44-10.26a5.32,5.32,0,0,1,5.3.95h.07l-2.71-9.14Zm1.19,14.21a5.72,5.72,0,0,0-.46-1.16,4.31,4.31,0,0,0-5-2c-2.89.86-3.86,3.9-2.86,7.26.92,3.11,3.23,5.23,6.23,4.34a4.39,4.39,0,0,0,3.08-4.54,4.77,4.77,0,0,0-.22-1.24Z"/><path d="M1340.38,590.3c1.66,5.68-1.56,9.31-5.24,10.39-4.15,1.21-8.25-.88-9.67-5.74-1.5-5.13,1-9.11,5.23-10.35C1335.11,583.31,1339,585.64,1340.38,590.3Zm-12.1,3.73c1,3.36,3.65,5.33,6.37,4.53s3.93-3.86,2.92-7.33c-.76-2.59-3-5.49-6.34-4.52S1327.43,591.13,1328.28,594Z"/><path d="M1347,574a26.63,26.63,0,0,1,4.92-1.89c2.77-.79,4.68-.82,6.31-.11a4.71,4.71,0,0,1,2.86,3.28,5.25,5.25,0,0,1-2.29,5.71l0,.09a5.69,5.69,0,0,1,5.94,4.12,5.86,5.86,0,0,1-.62,4.78c-1.08,1.8-3.32,3.11-6.82,4.1a40.36,40.36,0,0,1-4.36,1Zm5.24,8,2.53-.71c2.9-.82,4.17-2.85,3.59-4.92-.71-2.48-2.87-3-5.67-2.17a12.05,12.05,0,0,0-2.4.9Zm2.9,10.24a13.89,13.89,0,0,0,2.37-.52c2.87-.81,5.21-2.61,4.33-5.72-.83-2.91-3.69-3.42-6.71-2.57l-2.3.65Z"/><path d="M1378.55,588.19l-.73-1.89-.08,0a5.94,5.94,0,0,1-4.17,3.49,4.56,4.56,0,0,1-5.84-3.27c-.93-3.75,1.88-6.64,7.87-8.09l-.08-.33c-.31-1.25-1.25-3.5-4.41-2.69a7.76,7.76,0,0,0-3.75,2.16l-1.11-1.71a10.06,10.06,0,0,1,4.78-2.64c4.73-1.18,6.69,1.77,7.46,4.88l1.45,5.79a25,25,0,0,0,1.16,3.65Zm-2.4-7.8c-3.07.7-6.42,2.11-5.68,5.11a2.56,2.56,0,0,0,3.31,2,4,4,0,0,0,3.13-3.53,3.34,3.34,0,0,0-.09-.92Z"/><path d="M1382.78,575.22c-.35-1.63-.68-2.91-1-4.18l2.51-.55L1385,573l.08,0a5.9,5.9,0,0,1,4.53-4c2.14-.46,5.77.1,6.93,5.46l2,9.31-2.82.61-1.94-9c-.55-2.53-2-4.43-4.61-3.86a4.19,4.19,0,0,0-3.2,3.74,4.66,4.66,0,0,0,.09,1.36l2,9.4-2.83.61Z"/><path d="M1412.09,557.19l3.69,19c.27,1.4.63,3,.91,4l-2.53.49-.67-2.68h-.08a5.83,5.83,0,0,1-4.72,4.1c-3.79.74-7.35-1.9-8.27-6.65-1-5.23,1.59-9,5.4-9.79a5.35,5.35,0,0,1,5.19,1.46h.07l-1.82-9.36Zm-.17,14.26a6.24,6.24,0,0,0-.35-1.19,4.3,4.3,0,0,0-4.77-2.48c-3,.58-4.21,3.51-3.54,7,.62,3.18,2.72,5.51,5.79,4.92a4.38,4.38,0,0,0,3.5-4.23,4.52,4.52,0,0,0-.1-1.25Z"/><path d="M1421.52,571.71c.75,3.85,3.49,5,6.35,4.49a10.74,10.74,0,0,0,4.21-1.59l.86,1.94a12.91,12.91,0,0,1-5.06,1.94c-4.82.87-8.3-1.82-9.15-6.53s1.28-9,5.86-9.81c5.13-.92,7.28,3.33,7.8,6.22a6.71,6.71,0,0,1,.14,1.36Zm8-3.56c-.3-1.8-1.57-4.49-4.77-3.91-2.92.52-3.69,3.38-3.56,5.41Z"/><path d="M1437.2,555.72a1.74,1.74,0,0,1-1.51,2.09,1.72,1.72,0,0,1-2-1.48,1.75,1.75,0,0,1,1.47-2.08A1.72,1.72,0,0,1,1437.2,555.72Zm.29,20.72-2.72-15.72,2.85-.49,2.72,15.72Z"/><path d="M1443.23,564.31c-.31-1.86-.62-3.43-1-4.88l2.51-.42.63,3.07.1,0a4.83,4.83,0,0,1,3.81-4.17,3.26,3.26,0,0,1,.81-.06l.45,2.7a4.42,4.42,0,0,0-1,.07c-2,.34-3.19,2.1-3.22,4.31a7.15,7.15,0,0,0,.11,1.35l1.41,8.41-2.85.48Z"/><path d="M1464.25,572l-.58-2-.08,0a5.93,5.93,0,0,1-4.44,3.12,4.55,4.55,0,0,1-5.55-3.74c-.61-3.82,2.43-6.46,8.52-7.4l0-.33c-.21-1.28-1-3.6-4.18-3.06a7.78,7.78,0,0,0-3.91,1.84l-1-1.8a10.05,10.05,0,0,1,5-2.22c4.81-.78,6.52,2.32,7,5.48l1,5.89a25.19,25.19,0,0,0,.85,3.73Zm-1.75-8c-3.11.43-6.57,1.56-6.08,4.61a2.56,2.56,0,0,0,3.12,2.31,4,4,0,0,0,3.41-3.26,2.82,2.82,0,0,0,0-.92Z"/><path d="M1469.4,559.38c-.26-1.65-.51-3-.79-4.24l2.53-.4.56,2.57h.08a5.89,5.89,0,0,1,4.76-3.76c2.17-.33,5.76.44,6.6,5.86l1.45,9.41-2.85.44-1.41-9.09c-.39-2.55-1.68-4.54-4.37-4.12a4.19,4.19,0,0,0-3.41,3.54,4.78,4.78,0,0,0,0,1.36l1.48,9.5-2.86.45Z"/><path d="M1489.51,547.29l.68,4.54,4.13-.62.32,2.18-4.12.62,1.27,8.5c.3,2,1,3,2.64,2.75a5.88,5.88,0,0,0,1.63-.45l.46,2.16a7.58,7.58,0,0,1-2.51.78,4,4,0,0,1-3.28-.75c-.92-.75-1.45-2.1-1.73-4l-1.29-8.62-2.45.36-.33-2.17,2.45-.37-.57-3.8Z"/><path d="M1500.25,558.93c.62,3.88,3.32,5.12,6.2,4.7a10.83,10.83,0,0,0,4.26-1.45l.8,2a12.85,12.85,0,0,1-5.12,1.78c-4.85.71-8.24-2.1-8.94-6.83s1.58-8.94,6.19-9.61c5.15-.76,7.16,3.57,7.58,6.47a6.84,6.84,0,0,1,.1,1.36Zm8.1-3.29c-.23-1.82-1.42-4.54-4.64-4.07-2.93.43-3.79,3.26-3.73,5.29Z"/></g></g></svg>